<svg width="1440" height="567" viewBox="0 0 1440 567" fill="none" xmlns="http://www.w3.org/2000/svg">
<g clip-path="url(#clip0_1600_906)">
<path d="M-216.783 191.106C-221.249 183.371 -221.249 173.841 -216.783 166.106L-141.914 36.4287C-137.448 28.6937 -129.195 23.9287 -120.263 23.9287H29.4753C38.407 23.9287 46.6602 28.6937 51.126 36.4287L125.996 166.106C130.461 173.841 130.461 183.371 125.996 191.106L51.126 320.784C46.6601 328.519 38.407 333.284 29.4753 333.284H-120.263C-129.195 333.284 -137.448 328.519 -141.914 320.784L-216.783 191.106Z" fill="#89C958" fill-opacity="0.78"/>
<path d="M61.4118 671.719C56.9461 663.984 56.9461 654.454 61.4118 646.719L136.282 517.042C140.747 509.307 149.001 504.542 157.932 504.542H307.671C316.603 504.542 324.856 509.307 329.322 517.042L404.191 646.719C408.657 654.454 408.657 663.984 404.191 671.719L329.322 801.397C324.856 809.132 316.603 813.897 307.671 813.897H157.932C149.001 813.897 140.747 809.132 136.282 801.397L61.4118 671.719Z" fill="#89C958" fill-opacity="0.78"/>
<path d="M-216.783 511.515C-221.249 503.78 -221.249 494.25 -216.783 486.515L-141.914 356.838C-137.448 349.103 -129.195 344.338 -120.263 344.338H29.4753C38.407 344.338 46.6602 349.103 51.126 356.838L125.996 486.515C130.461 494.25 130.461 503.78 125.996 511.515L51.126 641.193C46.6601 648.928 38.407 653.693 29.4753 653.693H-120.263C-129.195 653.693 -137.448 648.928 -141.914 641.193L-216.783 511.515Z" fill="#89C958" fill-opacity="0.78"/>
<path d="M617.795 671.719C613.329 663.984 613.329 654.454 617.795 646.719L692.664 517.042C697.13 509.307 705.383 504.542 714.315 504.542H864.054C872.985 504.542 881.239 509.307 885.704 517.042L960.574 646.719C965.04 654.454 965.04 663.984 960.574 671.719L885.704 801.397C881.239 809.132 872.985 813.897 864.054 813.897H714.315C705.383 813.897 697.13 809.132 692.664 801.397L617.795 671.719Z" fill="#89C958" fill-opacity="0.78"/>
<path d="M895.989 511.515C891.524 503.78 891.524 494.25 895.989 486.515L970.859 356.838C975.325 349.103 983.578 344.338 992.509 344.338H1142.25C1151.18 344.338 1159.43 349.103 1163.9 356.838L1238.77 486.515C1243.23 494.25 1243.23 503.78 1238.77 511.515L1163.9 641.193C1159.43 648.928 1151.18 653.693 1142.25 653.693H992.509C983.578 653.693 975.325 648.928 970.859 641.193L895.989 511.515Z" fill="#89C958" fill-opacity="0.78"/>
<path d="M1174.18 671.719C1169.71 663.984 1169.71 654.454 1174.18 646.719L1249.05 517.042C1253.52 509.307 1261.77 504.542 1270.7 504.542H1420.44C1429.37 504.542 1437.62 509.307 1442.09 517.042L1516.96 646.719C1521.43 654.454 1521.43 663.984 1516.96 671.719L1442.09 801.397C1437.62 809.132 1429.37 813.897 1420.44 813.897H1270.7C1261.77 813.897 1253.52 809.132 1249.05 801.397L1174.18 671.719Z" fill="#89C958" fill-opacity="0.78"/>
<path d="M61.4118 351.311C56.9461 343.576 56.9461 334.046 61.4118 326.311L136.282 196.633C140.747 188.898 149.001 184.133 157.932 184.133H307.671C316.603 184.133 324.856 188.898 329.322 196.633L404.191 326.311C408.657 334.046 408.657 343.576 404.191 351.311L329.322 480.988C324.856 488.723 316.603 493.488 307.671 493.488H157.932C149.001 493.488 140.747 488.723 136.282 480.988L61.4118 351.311Z" fill="#89C958" fill-opacity="0.78"/>
<path d="M123.779 350.208H131.079C130.933 352.601 130.273 354.725 129.102 356.58C127.946 358.436 126.326 359.884 124.243 360.926C122.176 361.967 119.686 362.488 116.772 362.488C114.494 362.488 112.451 362.098 110.645 361.316C108.838 360.519 107.292 359.38 106.006 357.898C104.736 356.417 103.768 354.627 103.101 352.527C102.433 350.428 102.1 348.076 102.1 345.472V343.006C102.1 340.402 102.441 338.05 103.125 335.95C103.825 333.834 104.818 332.036 106.104 330.555C107.406 329.074 108.96 327.934 110.767 327.137C112.573 326.339 114.591 325.94 116.821 325.94C119.784 325.94 122.282 326.478 124.316 327.552C126.367 328.626 127.954 330.107 129.077 331.995C130.216 333.883 130.9 336.032 131.128 338.44H123.804C123.722 337.008 123.438 335.796 122.949 334.803C122.461 333.794 121.72 333.037 120.728 332.532C119.751 332.011 118.449 331.751 116.821 331.751C115.601 331.751 114.535 331.979 113.623 332.435C112.712 332.89 111.947 333.582 111.328 334.51C110.71 335.438 110.246 336.609 109.937 338.025C109.644 339.425 109.497 341.069 109.497 342.957V345.472C109.497 347.311 109.635 348.93 109.912 350.33C110.189 351.714 110.612 352.885 111.182 353.846C111.768 354.79 112.516 355.506 113.428 355.994C114.355 356.466 115.47 356.702 116.772 356.702C118.302 356.702 119.564 356.458 120.557 355.97C121.549 355.481 122.306 354.757 122.827 353.797C123.364 352.837 123.682 351.64 123.779 350.208ZM149.707 356.043V344.275C149.707 343.429 149.569 342.705 149.292 342.103C149.015 341.484 148.584 341.004 147.998 340.662C147.428 340.32 146.688 340.149 145.776 340.149C144.995 340.149 144.32 340.288 143.75 340.564C143.18 340.825 142.741 341.207 142.432 341.712C142.122 342.2 141.968 342.778 141.968 343.445H134.937C134.937 342.322 135.197 341.256 135.718 340.247C136.239 339.238 136.995 338.351 137.988 337.586C138.981 336.805 140.161 336.194 141.528 335.755C142.912 335.315 144.458 335.096 146.167 335.096C148.218 335.096 150.041 335.438 151.636 336.121C153.231 336.805 154.484 337.83 155.396 339.197C156.323 340.564 156.787 342.273 156.787 344.324V355.628C156.787 357.076 156.877 358.265 157.056 359.192C157.235 360.104 157.495 360.901 157.837 361.585V362H150.732C150.391 361.284 150.13 360.389 149.951 359.314C149.788 358.224 149.707 357.133 149.707 356.043ZM150.635 345.911L150.684 349.891H146.753C145.825 349.891 145.02 349.996 144.336 350.208C143.652 350.42 143.091 350.721 142.651 351.111C142.212 351.486 141.886 351.925 141.675 352.43C141.479 352.934 141.382 353.488 141.382 354.09C141.382 354.692 141.52 355.237 141.797 355.726C142.074 356.198 142.472 356.572 142.993 356.849C143.514 357.109 144.124 357.239 144.824 357.239C145.882 357.239 146.802 357.028 147.583 356.604C148.364 356.181 148.966 355.66 149.39 355.042C149.829 354.424 150.057 353.838 150.073 353.284L151.929 356.263C151.668 356.93 151.31 357.622 150.854 358.338C150.415 359.054 149.854 359.729 149.17 360.364C148.486 360.983 147.664 361.495 146.704 361.902C145.744 362.293 144.604 362.488 143.286 362.488C141.61 362.488 140.088 362.155 138.721 361.487C137.37 360.804 136.296 359.868 135.498 358.68C134.717 357.475 134.326 356.108 134.326 354.578C134.326 353.195 134.587 351.966 135.107 350.892C135.628 349.817 136.393 348.914 137.402 348.182C138.428 347.433 139.705 346.871 141.235 346.497C142.765 346.106 144.539 345.911 146.558 345.911H150.635ZM169.238 340.662V372.156H162.207V335.584H168.726L169.238 340.662ZM185.962 348.499V349.012C185.962 350.932 185.734 352.715 185.278 354.358C184.839 356.002 184.188 357.435 183.325 358.655C182.463 359.86 181.388 360.804 180.103 361.487C178.833 362.155 177.368 362.488 175.708 362.488C174.097 362.488 172.697 362.163 171.509 361.512C170.321 360.861 169.32 359.949 168.506 358.777C167.708 357.589 167.065 356.214 166.577 354.651C166.089 353.089 165.715 351.412 165.454 349.622V348.279C165.715 346.359 166.089 344.601 166.577 343.006C167.065 341.395 167.708 340.003 168.506 338.831C169.32 337.643 170.312 336.723 171.484 336.072C172.673 335.421 174.064 335.096 175.659 335.096C177.336 335.096 178.809 335.413 180.078 336.048C181.364 336.683 182.438 337.594 183.301 338.782C184.18 339.97 184.839 341.386 185.278 343.03C185.734 344.674 185.962 346.497 185.962 348.499ZM178.906 349.012V348.499C178.906 347.376 178.809 346.342 178.613 345.398C178.434 344.438 178.141 343.6 177.734 342.884C177.344 342.168 176.823 341.614 176.172 341.224C175.537 340.817 174.764 340.613 173.853 340.613C172.892 340.613 172.07 340.768 171.387 341.077C170.719 341.386 170.174 341.834 169.751 342.42C169.328 343.006 169.01 343.706 168.799 344.52C168.587 345.333 168.457 346.253 168.408 347.278V350.672C168.49 351.876 168.717 352.959 169.092 353.919C169.466 354.863 170.044 355.612 170.825 356.165C171.606 356.718 172.632 356.995 173.901 356.995C174.829 356.995 175.61 356.792 176.245 356.385C176.88 355.962 177.393 355.384 177.783 354.651C178.19 353.919 178.475 353.073 178.638 352.112C178.817 351.152 178.906 350.118 178.906 349.012ZM204.59 356.043V344.275C204.59 343.429 204.451 342.705 204.175 342.103C203.898 341.484 203.467 341.004 202.881 340.662C202.311 340.32 201.571 340.149 200.659 340.149C199.878 340.149 199.202 340.288 198.633 340.564C198.063 340.825 197.624 341.207 197.314 341.712C197.005 342.2 196.851 342.778 196.851 343.445H189.819C189.819 342.322 190.08 341.256 190.601 340.247C191.121 339.238 191.878 338.351 192.871 337.586C193.864 336.805 195.044 336.194 196.411 335.755C197.795 335.315 199.341 335.096 201.05 335.096C203.101 335.096 204.924 335.438 206.519 336.121C208.114 336.805 209.367 337.83 210.278 339.197C211.206 340.564 211.67 342.273 211.67 344.324V355.628C211.67 357.076 211.759 358.265 211.938 359.192C212.118 360.104 212.378 360.901 212.72 361.585V362H205.615C205.273 361.284 205.013 360.389 204.834 359.314C204.671 358.224 204.59 357.133 204.59 356.043ZM205.518 345.911L205.566 349.891H201.636C200.708 349.891 199.902 349.996 199.219 350.208C198.535 350.42 197.974 350.721 197.534 351.111C197.095 351.486 196.769 351.925 196.558 352.43C196.362 352.934 196.265 353.488 196.265 354.09C196.265 354.692 196.403 355.237 196.68 355.726C196.956 356.198 197.355 356.572 197.876 356.849C198.397 357.109 199.007 357.239 199.707 357.239C200.765 357.239 201.685 357.028 202.466 356.604C203.247 356.181 203.849 355.66 204.272 355.042C204.712 354.424 204.94 353.838 204.956 353.284L206.812 356.263C206.551 356.93 206.193 357.622 205.737 358.338C205.298 359.054 204.736 359.729 204.053 360.364C203.369 360.983 202.547 361.495 201.587 361.902C200.627 362.293 199.487 362.488 198.169 362.488C196.493 362.488 194.971 362.155 193.604 361.487C192.253 360.804 191.178 359.868 190.381 358.68C189.6 357.475 189.209 356.108 189.209 354.578C189.209 353.195 189.469 351.966 189.99 350.892C190.511 349.817 191.276 348.914 192.285 348.182C193.311 347.433 194.588 346.871 196.118 346.497C197.648 346.106 199.422 345.911 201.44 345.911H205.518ZM217.09 324.5H224.121V355.945L223.413 362H217.09V324.5ZM240.845 348.523V349.036C240.845 351.006 240.633 352.812 240.21 354.456C239.803 356.1 239.168 357.524 238.306 358.729C237.443 359.917 236.369 360.844 235.083 361.512C233.813 362.163 232.316 362.488 230.591 362.488C228.979 362.488 227.58 362.163 226.392 361.512C225.22 360.861 224.235 359.941 223.438 358.753C222.64 357.565 221.997 356.173 221.509 354.578C221.021 352.983 220.654 351.242 220.41 349.354V348.23C220.654 346.342 221.021 344.601 221.509 343.006C221.997 341.411 222.64 340.019 223.438 338.831C224.235 337.643 225.22 336.723 226.392 336.072C227.563 335.421 228.947 335.096 230.542 335.096C232.284 335.096 233.797 335.429 235.083 336.097C236.385 336.748 237.459 337.675 238.306 338.88C239.168 340.068 239.803 341.484 240.21 343.128C240.633 344.756 240.845 346.554 240.845 348.523ZM233.813 349.036V348.523C233.813 347.449 233.732 346.44 233.569 345.496C233.423 344.536 233.162 343.698 232.788 342.981C232.414 342.249 231.901 341.671 231.25 341.248C230.615 340.825 229.793 340.613 228.784 340.613C227.824 340.613 227.01 340.776 226.343 341.102C225.675 341.427 225.122 341.883 224.683 342.469C224.259 343.055 223.942 343.755 223.73 344.568C223.519 345.366 223.389 346.245 223.34 347.205V350.403C223.389 351.689 223.6 352.828 223.975 353.821C224.365 354.798 224.951 355.571 225.732 356.141C226.53 356.694 227.563 356.971 228.833 356.971C229.826 356.971 230.648 356.775 231.299 356.385C231.95 355.994 232.454 355.441 232.812 354.725C233.187 354.008 233.447 353.17 233.594 352.21C233.74 351.233 233.813 350.175 233.813 349.036ZM252.637 335.584V362H245.581V335.584H252.637ZM245.142 328.699C245.142 327.674 245.5 326.827 246.216 326.16C246.932 325.493 247.892 325.159 249.097 325.159C250.285 325.159 251.237 325.493 251.953 326.16C252.686 326.827 253.052 327.674 253.052 328.699C253.052 329.725 252.686 330.571 251.953 331.238C251.237 331.906 250.285 332.239 249.097 332.239C247.892 332.239 246.932 331.906 246.216 331.238C245.5 330.571 245.142 329.725 245.142 328.699ZM265.869 324.5V362H258.813V324.5H265.869ZM279.102 335.584V362H272.046V335.584H279.102ZM271.606 328.699C271.606 327.674 271.965 326.827 272.681 326.16C273.397 325.493 274.357 325.159 275.562 325.159C276.75 325.159 277.702 325.493 278.418 326.16C279.15 326.827 279.517 327.674 279.517 328.699C279.517 329.725 279.15 330.571 278.418 331.238C277.702 331.906 276.75 332.239 275.562 332.239C274.357 332.239 273.397 331.906 272.681 331.238C271.965 330.571 271.606 329.725 271.606 328.699ZM297.852 335.584V340.564H282.471V335.584H297.852ZM286.279 329.065H293.311V354.041C293.311 354.806 293.408 355.392 293.604 355.799C293.815 356.206 294.124 356.491 294.531 356.653C294.938 356.8 295.451 356.873 296.069 356.873C296.509 356.873 296.899 356.857 297.241 356.824C297.599 356.775 297.9 356.727 298.145 356.678L298.169 361.854C297.567 362.049 296.916 362.203 296.216 362.317C295.516 362.431 294.743 362.488 293.896 362.488C292.35 362.488 290.999 362.236 289.844 361.731C288.704 361.211 287.826 360.381 287.207 359.241C286.589 358.102 286.279 356.604 286.279 354.749V329.065ZM309.277 335.584V362H302.222V335.584H309.277ZM301.782 328.699C301.782 327.674 302.14 326.827 302.856 326.16C303.573 325.493 304.533 325.159 305.737 325.159C306.925 325.159 307.878 325.493 308.594 326.16C309.326 326.827 309.692 327.674 309.692 328.699C309.692 329.725 309.326 330.571 308.594 331.238C307.878 331.906 306.925 332.239 305.737 332.239C304.533 332.239 303.573 331.906 302.856 331.238C302.14 330.571 301.782 329.725 301.782 328.699ZM327.246 362.488C325.195 362.488 323.356 362.163 321.729 361.512C320.101 360.844 318.717 359.925 317.578 358.753C316.455 357.581 315.592 356.222 314.99 354.676C314.388 353.113 314.087 351.453 314.087 349.695V348.719C314.087 346.717 314.372 344.886 314.941 343.226C315.511 341.565 316.325 340.125 317.383 338.904C318.457 337.684 319.759 336.748 321.289 336.097C322.819 335.429 324.544 335.096 326.465 335.096C328.337 335.096 329.997 335.405 331.445 336.023C332.894 336.642 334.106 337.521 335.083 338.66C336.076 339.799 336.825 341.167 337.329 342.762C337.834 344.34 338.086 346.098 338.086 348.035V350.965H317.09V346.277H331.177V345.74C331.177 344.764 330.998 343.893 330.64 343.128C330.298 342.347 329.777 341.728 329.077 341.272C328.377 340.817 327.482 340.589 326.392 340.589C325.464 340.589 324.666 340.792 323.999 341.199C323.332 341.606 322.786 342.176 322.363 342.908C321.956 343.641 321.647 344.503 321.436 345.496C321.24 346.473 321.143 347.547 321.143 348.719V349.695C321.143 350.753 321.289 351.73 321.582 352.625C321.891 353.52 322.323 354.293 322.876 354.944C323.446 355.595 324.129 356.1 324.927 356.458C325.741 356.816 326.66 356.995 327.686 356.995C328.955 356.995 330.135 356.751 331.226 356.263C332.332 355.758 333.285 355.001 334.082 353.992L337.5 357.703C336.947 358.501 336.19 359.266 335.229 359.998C334.285 360.73 333.146 361.333 331.812 361.805C330.477 362.26 328.955 362.488 327.246 362.488ZM356.372 354.7C356.372 354.196 356.226 353.74 355.933 353.333C355.64 352.926 355.094 352.552 354.297 352.21C353.516 351.852 352.384 351.526 350.903 351.233C349.569 350.94 348.324 350.574 347.168 350.135C346.029 349.679 345.036 349.134 344.189 348.499C343.359 347.864 342.708 347.116 342.236 346.253C341.764 345.374 341.528 344.373 341.528 343.25C341.528 342.143 341.764 341.102 342.236 340.125C342.725 339.148 343.416 338.286 344.312 337.537C345.223 336.772 346.33 336.178 347.632 335.755C348.95 335.315 350.431 335.096 352.075 335.096C354.37 335.096 356.34 335.462 357.983 336.194C359.644 336.927 360.913 337.936 361.792 339.222C362.687 340.491 363.135 341.94 363.135 343.567H356.104C356.104 342.884 355.957 342.273 355.664 341.736C355.387 341.183 354.948 340.752 354.346 340.442C353.76 340.117 352.995 339.954 352.051 339.954C351.27 339.954 350.594 340.092 350.024 340.369C349.455 340.63 349.015 340.988 348.706 341.443C348.413 341.883 348.267 342.371 348.267 342.908C348.267 343.315 348.348 343.681 348.511 344.007C348.69 344.316 348.975 344.601 349.365 344.861C349.756 345.122 350.26 345.366 350.879 345.594C351.514 345.805 352.295 346.001 353.223 346.18C355.127 346.57 356.828 347.083 358.325 347.718C359.823 348.336 361.011 349.183 361.89 350.257C362.769 351.315 363.208 352.706 363.208 354.432C363.208 355.604 362.948 356.678 362.427 357.654C361.906 358.631 361.157 359.485 360.181 360.218C359.204 360.934 358.032 361.495 356.665 361.902C355.314 362.293 353.792 362.488 352.1 362.488C349.642 362.488 347.559 362.049 345.85 361.17C344.157 360.291 342.871 359.176 341.992 357.825C341.13 356.458 340.698 355.058 340.698 353.626H347.363C347.396 354.586 347.64 355.359 348.096 355.945C348.568 356.531 349.162 356.954 349.878 357.215C350.61 357.475 351.4 357.605 352.246 357.605C353.158 357.605 353.914 357.483 354.517 357.239C355.119 356.979 355.575 356.637 355.884 356.214C356.209 355.774 356.372 355.27 356.372 354.7Z" fill="white"/>
<path d="M339.603 511.515C335.137 503.78 335.137 494.25 339.603 486.515L414.472 356.838C418.938 349.103 427.191 344.338 436.123 344.338H585.861C594.793 344.338 603.046 349.103 607.512 356.838L682.381 486.515C686.847 494.25 686.847 503.78 682.381 511.515L607.512 641.193C603.046 648.928 594.793 653.693 585.861 653.693H436.123C427.191 653.693 418.938 648.928 414.472 641.193L339.603 511.515Z" fill="#89C958" fill-opacity="0.78"/>
</g>
<defs>
<clipPath id="clip0_1600_906">
<rect width="1440" height="567" fill="white"/>
</clipPath>
</defs>
</svg>
