<svg width="1440" height="567" viewBox="0 0 1440 567" fill="none" xmlns="http://www.w3.org/2000/svg">
<g clip-path="url(#clip0_1599_716)">
<path d="M-216.783 191.106C-221.249 183.371 -221.249 173.841 -216.783 166.106L-141.914 36.4287C-137.448 28.6937 -129.195 23.9287 -120.263 23.9287H29.4753C38.407 23.9287 46.6602 28.6937 51.126 36.4287L125.996 166.106C130.461 173.841 130.461 183.371 125.996 191.106L51.126 320.784C46.6601 328.519 38.407 333.284 29.4753 333.284H-120.263C-129.195 333.284 -137.448 328.519 -141.914 320.784L-216.783 191.106Z" fill="#89C958" fill-opacity="0.78"/>
<path d="M61.4099 671.719C56.9441 663.984 56.9441 654.454 61.4099 646.719L136.28 517.042C140.745 509.307 148.999 504.542 157.93 504.542H307.669C316.601 504.542 324.854 509.307 329.32 517.042L404.189 646.719C408.655 654.454 408.655 663.984 404.189 671.719L329.32 801.397C324.854 809.132 316.601 813.897 307.669 813.897H157.93C148.999 813.897 140.745 809.132 136.28 801.397L61.4099 671.719Z" fill="#89C958" fill-opacity="0.78"/>
<path d="M-216.783 511.515C-221.249 503.78 -221.249 494.25 -216.783 486.515L-141.914 356.838C-137.448 349.103 -129.195 344.338 -120.263 344.338H29.4753C38.407 344.338 46.6602 349.103 51.126 356.838L125.996 486.515C130.461 494.25 130.461 503.78 125.996 511.515L51.126 641.193C46.6601 648.928 38.407 653.693 29.4753 653.693H-120.263C-129.195 653.693 -137.448 648.928 -141.914 641.193L-216.783 511.515Z" fill="#89C958" fill-opacity="0.78"/>
<path d="M617.797 671.719C613.331 663.984 613.331 654.454 617.797 646.719L692.666 517.042C697.132 509.307 705.385 504.542 714.317 504.542H864.056C872.987 504.542 881.241 509.307 885.706 517.042L960.576 646.719C965.042 654.454 965.042 663.984 960.576 671.719L885.706 801.397C881.241 809.132 872.987 813.897 864.056 813.897H714.317C705.385 813.897 697.132 809.132 692.666 801.397L617.797 671.719Z" fill="#89C958" fill-opacity="0.78"/>
<path d="M895.987 511.515C891.522 503.78 891.522 494.25 895.987 486.515L970.857 356.838C975.323 349.103 983.576 344.338 992.507 344.338H1142.25C1151.18 344.338 1159.43 349.103 1163.9 356.838L1238.77 486.515C1243.23 494.25 1243.23 503.78 1238.77 511.515L1163.9 641.193C1159.43 648.928 1151.18 653.693 1142.25 653.693H992.507C983.576 653.693 975.323 648.928 970.857 641.193L895.987 511.515Z" fill="#89C958" fill-opacity="0.78"/>
<path d="M1174.18 671.719C1169.71 663.984 1169.71 654.454 1174.18 646.719L1249.05 517.042C1253.52 509.307 1261.77 504.542 1270.7 504.542H1420.44C1429.37 504.542 1437.62 509.307 1442.09 517.042L1516.96 646.719C1521.43 654.454 1521.43 663.984 1516.96 671.719L1442.09 801.397C1437.62 809.132 1429.37 813.897 1420.44 813.897H1270.7C1261.77 813.897 1253.52 809.132 1249.05 801.397L1174.18 671.719Z" fill="#89C958" fill-opacity="0.78"/>
<path d="M61.4099 351.311C56.9441 343.576 56.9441 334.046 61.4099 326.311L136.28 196.633C140.745 188.898 148.999 184.133 157.93 184.133H307.669C316.601 184.133 324.854 188.898 329.32 196.633L404.189 326.311C408.655 334.046 408.655 343.576 404.189 351.311L329.32 480.988C324.854 488.723 316.601 493.488 307.669 493.488H157.93C148.999 493.488 140.745 488.723 136.28 480.988L61.4099 351.311Z" fill="#89C958" fill-opacity="0.78"/>
<path d="M115.029 344.387H121.599C121.467 346.541 120.874 348.452 119.819 350.122C118.779 351.792 117.321 353.096 115.446 354.033C113.586 354.971 111.345 355.439 108.723 355.439C106.672 355.439 104.833 355.088 103.208 354.385C101.582 353.667 100.19 352.642 99.0327 351.309C97.8901 349.976 97.0186 348.364 96.418 346.475C95.8174 344.585 95.5171 342.468 95.5171 340.125V337.905C95.5171 335.562 95.8247 333.445 96.4399 331.555C97.0698 329.651 97.9634 328.032 99.1206 326.699C100.292 325.366 101.691 324.341 103.317 323.623C104.943 322.905 106.76 322.546 108.767 322.546C111.433 322.546 113.681 323.03 115.512 323.997C117.358 324.963 118.786 326.296 119.797 327.996C120.822 329.695 121.438 331.628 121.643 333.796H115.051C114.978 332.507 114.721 331.416 114.282 330.522C113.842 329.614 113.176 328.933 112.282 328.479C111.403 328.01 110.231 327.776 108.767 327.776C107.668 327.776 106.708 327.981 105.888 328.391C105.068 328.801 104.379 329.424 103.823 330.259C103.266 331.094 102.849 332.148 102.57 333.423C102.307 334.683 102.175 336.162 102.175 337.861V340.125C102.175 341.78 102.299 343.237 102.548 344.497C102.797 345.742 103.178 346.797 103.691 347.661C104.218 348.511 104.892 349.155 105.712 349.595C106.547 350.02 107.551 350.232 108.723 350.232C110.1 350.232 111.235 350.012 112.128 349.573C113.022 349.133 113.703 348.481 114.172 347.617C114.655 346.753 114.941 345.676 115.029 344.387ZM132.211 321.25V355H125.861V321.25H132.211ZM148.383 355.439C146.538 355.439 144.882 355.146 143.417 354.561C141.953 353.96 140.708 353.132 139.682 352.078C138.671 351.023 137.895 349.8 137.353 348.408C136.811 347.002 136.54 345.508 136.54 343.926V343.047C136.54 341.245 136.796 339.597 137.309 338.103C137.822 336.609 138.554 335.312 139.506 334.214C140.473 333.115 141.645 332.273 143.022 331.687C144.399 331.086 145.952 330.786 147.68 330.786C149.365 330.786 150.859 331.064 152.163 331.621C153.466 332.178 154.558 332.969 155.437 333.994C156.33 335.02 157.004 336.25 157.458 337.686C157.912 339.106 158.139 340.688 158.139 342.432V345.068H139.243V340.85H151.921V340.366C151.921 339.487 151.76 338.704 151.438 338.015C151.13 337.312 150.661 336.755 150.031 336.345C149.401 335.935 148.596 335.73 147.614 335.73C146.779 335.73 146.062 335.913 145.461 336.279C144.86 336.646 144.37 337.158 143.989 337.817C143.623 338.477 143.344 339.253 143.154 340.146C142.978 341.025 142.89 341.992 142.89 343.047V343.926C142.89 344.878 143.022 345.757 143.286 346.562C143.564 347.368 143.952 348.064 144.45 348.65C144.963 349.236 145.578 349.69 146.296 350.012C147.028 350.334 147.856 350.496 148.779 350.496C149.921 350.496 150.983 350.276 151.965 349.836C152.961 349.382 153.818 348.701 154.536 347.793L157.612 351.133C157.114 351.851 156.433 352.539 155.568 353.198C154.719 353.857 153.693 354.399 152.492 354.824C151.291 355.234 149.921 355.439 148.383 355.439ZM174.575 349.639V339.048C174.575 338.286 174.45 337.634 174.201 337.092C173.952 336.536 173.564 336.104 173.037 335.796C172.524 335.488 171.857 335.334 171.037 335.334C170.334 335.334 169.726 335.459 169.213 335.708C168.701 335.942 168.305 336.287 168.027 336.741C167.749 337.18 167.609 337.7 167.609 338.301H161.281C161.281 337.29 161.516 336.331 161.984 335.422C162.453 334.514 163.134 333.716 164.028 333.027C164.921 332.324 165.983 331.775 167.214 331.379C168.459 330.984 169.851 330.786 171.389 330.786C173.234 330.786 174.875 331.094 176.311 331.709C177.746 332.324 178.874 333.247 179.694 334.478C180.529 335.708 180.947 337.246 180.947 339.092V349.265C180.947 350.569 181.027 351.638 181.188 352.473C181.35 353.293 181.584 354.011 181.892 354.626V355H175.498C175.19 354.355 174.956 353.55 174.794 352.583C174.648 351.602 174.575 350.62 174.575 349.639ZM175.41 340.52L175.454 344.102H171.916C171.081 344.102 170.356 344.197 169.741 344.387C169.125 344.578 168.62 344.849 168.225 345.2C167.829 345.537 167.536 345.933 167.346 346.387C167.17 346.841 167.082 347.339 167.082 347.881C167.082 348.423 167.207 348.914 167.456 349.353C167.705 349.778 168.063 350.115 168.532 350.364C169.001 350.598 169.55 350.715 170.18 350.715C171.132 350.715 171.96 350.525 172.663 350.144C173.366 349.763 173.908 349.294 174.289 348.738C174.685 348.181 174.89 347.654 174.904 347.156L176.574 349.836C176.34 350.437 176.018 351.06 175.607 351.704C175.212 352.349 174.707 352.957 174.091 353.528C173.476 354.084 172.736 354.546 171.872 354.912C171.008 355.264 169.982 355.439 168.796 355.439C167.287 355.439 165.917 355.139 164.687 354.539C163.471 353.923 162.504 353.081 161.787 352.012C161.083 350.928 160.732 349.697 160.732 348.32C160.732 347.075 160.966 345.969 161.435 345.002C161.904 344.036 162.592 343.223 163.5 342.563C164.423 341.89 165.573 341.384 166.95 341.047C168.327 340.696 169.924 340.52 171.74 340.52H175.41ZM192.021 336.301V355H185.693V331.226H191.625L192.021 336.301ZM191.098 342.278H189.384C189.384 340.52 189.611 338.938 190.065 337.532C190.52 336.111 191.157 334.902 191.977 333.906C192.797 332.896 193.771 332.126 194.899 331.599C196.042 331.057 197.316 330.786 198.723 330.786C199.836 330.786 200.854 330.947 201.777 331.27C202.7 331.592 203.491 332.104 204.15 332.808C204.824 333.511 205.336 334.441 205.688 335.598C206.054 336.755 206.237 338.169 206.237 339.839V355H199.865V339.817C199.865 338.762 199.719 337.942 199.426 337.356C199.133 336.77 198.701 336.36 198.129 336.125C197.573 335.876 196.884 335.752 196.064 335.752C195.214 335.752 194.475 335.92 193.845 336.257C193.229 336.594 192.717 337.063 192.307 337.664C191.911 338.25 191.611 338.938 191.406 339.729C191.201 340.52 191.098 341.37 191.098 342.278ZM217.729 331.226V355H211.379V331.226H217.729ZM210.983 325.029C210.983 324.106 211.306 323.345 211.95 322.744C212.595 322.144 213.459 321.843 214.543 321.843C215.612 321.843 216.469 322.144 217.114 322.744C217.773 323.345 218.103 324.106 218.103 325.029C218.103 325.952 217.773 326.714 217.114 327.314C216.469 327.915 215.612 328.215 214.543 328.215C213.459 328.215 212.595 327.915 211.95 327.314C211.306 326.714 210.983 325.952 210.983 325.029ZM229.155 336.301V355H222.827V331.226H228.759L229.155 336.301ZM228.232 342.278H226.518C226.518 340.52 226.745 338.938 227.199 337.532C227.653 336.111 228.291 334.902 229.111 333.906C229.931 332.896 230.905 332.126 232.033 331.599C233.176 331.057 234.45 330.786 235.856 330.786C236.97 330.786 237.988 330.947 238.911 331.27C239.833 331.592 240.625 332.104 241.284 332.808C241.958 333.511 242.47 334.441 242.822 335.598C243.188 336.755 243.371 338.169 243.371 339.839V355H236.999V339.817C236.999 338.762 236.853 337.942 236.56 337.356C236.267 336.77 235.834 336.36 235.263 336.125C234.707 335.876 234.018 335.752 233.198 335.752C232.348 335.752 231.608 335.92 230.979 336.257C230.363 336.594 229.851 337.063 229.44 337.664C229.045 338.25 228.745 338.938 228.54 339.729C228.334 340.52 228.232 341.37 228.232 342.278ZM263.234 331.226H268.969V354.209C268.969 356.377 268.486 358.215 267.519 359.724C266.567 361.248 265.234 362.397 263.52 363.174C261.806 363.965 259.814 364.36 257.543 364.36C256.547 364.36 255.493 364.229 254.379 363.965C253.281 363.701 252.226 363.291 251.215 362.734C250.219 362.178 249.384 361.475 248.71 360.625L251.501 356.89C252.233 357.739 253.083 358.398 254.05 358.867C255.017 359.351 256.086 359.592 257.258 359.592C258.4 359.592 259.367 359.38 260.158 358.955C260.949 358.545 261.557 357.937 261.982 357.131C262.407 356.34 262.619 355.381 262.619 354.253V336.719L263.234 331.226ZM247.238 343.398V342.937C247.238 341.121 247.458 339.473 247.897 337.993C248.352 336.499 248.989 335.217 249.809 334.148C250.644 333.079 251.655 332.251 252.841 331.665C254.028 331.079 255.368 330.786 256.862 330.786C258.444 330.786 259.77 331.079 260.839 331.665C261.909 332.251 262.788 333.086 263.476 334.17C264.165 335.239 264.699 336.506 265.08 337.971C265.476 339.421 265.783 341.011 266.003 342.739V343.75C265.783 345.405 265.454 346.943 265.014 348.364C264.575 349.785 263.996 351.03 263.278 352.1C262.561 353.154 261.667 353.975 260.598 354.561C259.543 355.146 258.283 355.439 256.818 355.439C255.354 355.439 254.028 355.139 252.841 354.539C251.669 353.938 250.666 353.096 249.831 352.012C248.996 350.928 248.352 349.653 247.897 348.188C247.458 346.724 247.238 345.127 247.238 343.398ZM253.566 342.937V343.398C253.566 344.38 253.662 345.295 253.852 346.145C254.042 346.995 254.335 347.749 254.731 348.408C255.141 349.053 255.646 349.558 256.247 349.924C256.862 350.276 257.587 350.452 258.422 350.452C259.58 350.452 260.524 350.21 261.257 349.727C261.989 349.229 262.539 348.547 262.905 347.683C263.271 346.819 263.483 345.823 263.542 344.695V341.816C263.513 340.894 263.388 340.066 263.168 339.333C262.949 338.586 262.641 337.949 262.246 337.422C261.85 336.895 261.337 336.484 260.708 336.191C260.078 335.898 259.331 335.752 258.466 335.752C257.631 335.752 256.906 335.942 256.291 336.323C255.69 336.689 255.185 337.195 254.775 337.839C254.379 338.484 254.079 339.246 253.874 340.125C253.669 340.989 253.566 341.926 253.566 342.937ZM297.951 343.596H289.799V338.455H297.951C299.211 338.455 300.236 338.25 301.027 337.839C301.818 337.415 302.397 336.829 302.763 336.082C303.129 335.334 303.312 334.492 303.312 333.555C303.312 332.603 303.129 331.716 302.763 330.896C302.397 330.076 301.818 329.417 301.027 328.918C300.236 328.42 299.211 328.171 297.951 328.171H292.084V355H285.493V323.008H297.951C300.456 323.008 302.602 323.462 304.389 324.37C306.191 325.264 307.568 326.501 308.52 328.083C309.472 329.666 309.948 331.475 309.948 333.511C309.948 335.576 309.472 337.363 308.52 338.872C307.568 340.381 306.191 341.545 304.389 342.366C302.602 343.186 300.456 343.596 297.951 343.596ZM320.781 331.226V355H314.431V331.226H320.781ZM314.035 325.029C314.035 324.106 314.357 323.345 315.002 322.744C315.646 322.144 316.511 321.843 317.595 321.843C318.664 321.843 319.521 322.144 320.166 322.744C320.825 323.345 321.154 324.106 321.154 325.029C321.154 325.952 320.825 326.714 320.166 327.314C319.521 327.915 318.664 328.215 317.595 328.215C316.511 328.215 315.646 327.915 315.002 327.314C314.357 326.714 314.035 325.952 314.035 325.029ZM341.062 331.226H346.796V354.209C346.796 356.377 346.313 358.215 345.346 359.724C344.394 361.248 343.061 362.397 341.347 363.174C339.633 363.965 337.641 364.36 335.371 364.36C334.375 364.36 333.32 364.229 332.207 363.965C331.108 363.701 330.053 363.291 329.042 362.734C328.046 362.178 327.211 361.475 326.538 360.625L329.328 356.89C330.061 357.739 330.91 358.398 331.877 358.867C332.844 359.351 333.913 359.592 335.085 359.592C336.228 359.592 337.194 359.38 337.985 358.955C338.776 358.545 339.384 357.937 339.809 357.131C340.234 356.34 340.446 355.381 340.446 354.253V336.719L341.062 331.226ZM325.065 343.398V342.937C325.065 341.121 325.285 339.473 325.725 337.993C326.179 336.499 326.816 335.217 327.636 334.148C328.471 333.079 329.482 332.251 330.668 331.665C331.855 331.079 333.195 330.786 334.689 330.786C336.271 330.786 337.597 331.079 338.667 331.665C339.736 332.251 340.615 333.086 341.303 334.17C341.992 335.239 342.526 336.506 342.907 337.971C343.303 339.421 343.61 341.011 343.83 342.739V343.75C343.61 345.405 343.281 346.943 342.841 348.364C342.402 349.785 341.823 351.03 341.105 352.1C340.388 353.154 339.494 353.975 338.425 354.561C337.37 355.146 336.11 355.439 334.646 355.439C333.181 355.439 331.855 355.139 330.668 354.539C329.497 353.938 328.493 353.096 327.658 352.012C326.823 350.928 326.179 349.653 325.725 348.188C325.285 346.724 325.065 345.127 325.065 343.398ZM331.394 342.937V343.398C331.394 344.38 331.489 345.295 331.679 346.145C331.87 346.995 332.163 347.749 332.558 348.408C332.968 349.053 333.474 349.558 334.074 349.924C334.689 350.276 335.415 350.452 336.25 350.452C337.407 350.452 338.352 350.21 339.084 349.727C339.816 349.229 340.366 348.547 340.732 347.683C341.098 346.819 341.311 345.823 341.369 344.695V341.816C341.34 340.894 341.215 340.066 340.996 339.333C340.776 338.586 340.468 337.949 340.073 337.422C339.677 336.895 339.165 336.484 338.535 336.191C337.905 335.898 337.158 335.752 336.293 335.752C335.458 335.752 334.733 335.942 334.118 336.323C333.518 336.689 333.012 337.195 332.602 337.839C332.207 338.484 331.906 339.246 331.701 340.125C331.496 340.989 331.394 341.926 331.394 342.937ZM364.572 348.43C364.572 347.976 364.44 347.566 364.177 347.2C363.913 346.833 363.422 346.497 362.705 346.189C362.001 345.867 360.983 345.574 359.65 345.31C358.449 345.046 357.329 344.717 356.289 344.321C355.263 343.911 354.37 343.42 353.608 342.849C352.861 342.278 352.275 341.604 351.85 340.828C351.425 340.037 351.213 339.136 351.213 338.125C351.213 337.129 351.425 336.191 351.85 335.312C352.29 334.434 352.912 333.657 353.718 332.983C354.538 332.295 355.534 331.76 356.706 331.379C357.893 330.984 359.226 330.786 360.705 330.786C362.771 330.786 364.543 331.116 366.022 331.775C367.517 332.434 368.659 333.342 369.45 334.5C370.256 335.642 370.659 336.946 370.659 338.411H364.331C364.331 337.795 364.199 337.246 363.935 336.763C363.686 336.265 363.291 335.876 362.749 335.598C362.221 335.305 361.533 335.159 360.683 335.159C359.98 335.159 359.372 335.283 358.859 335.532C358.347 335.767 357.951 336.089 357.673 336.499C357.409 336.895 357.277 337.334 357.277 337.817C357.277 338.184 357.351 338.513 357.497 338.806C357.658 339.084 357.915 339.341 358.266 339.575C358.618 339.81 359.072 340.029 359.628 340.234C360.2 340.425 360.903 340.601 361.738 340.762C363.452 341.113 364.982 341.575 366.33 342.146C367.678 342.703 368.747 343.464 369.538 344.431C370.329 345.383 370.725 346.636 370.725 348.188C370.725 349.243 370.49 350.21 370.021 351.089C369.553 351.968 368.879 352.737 368 353.396C367.121 354.041 366.066 354.546 364.836 354.912C363.62 355.264 362.25 355.439 360.727 355.439C358.515 355.439 356.64 355.044 355.102 354.253C353.579 353.462 352.421 352.458 351.63 351.243C350.854 350.012 350.466 348.752 350.466 347.463H356.464C356.494 348.328 356.713 349.023 357.124 349.551C357.548 350.078 358.083 350.459 358.728 350.693C359.387 350.928 360.097 351.045 360.859 351.045C361.679 351.045 362.36 350.935 362.902 350.715C363.444 350.481 363.854 350.173 364.133 349.792C364.426 349.397 364.572 348.943 364.572 348.43Z" fill="white"/>
<path d="M339.603 511.515C335.137 503.78 335.137 494.25 339.603 486.515L414.472 356.838C418.938 349.103 427.191 344.338 436.123 344.338H585.861C594.793 344.338 603.046 349.103 607.512 356.838L682.381 486.515C686.847 494.25 686.847 503.78 682.381 511.515L607.512 641.193C603.046 648.928 594.793 653.693 585.861 653.693H436.123C427.191 653.693 418.938 648.928 414.472 641.193L339.603 511.515Z" fill="#89C958" fill-opacity="0.78"/>
</g>
<defs>
<clipPath id="clip0_1599_716">
<rect width="1440" height="567" fill="white"/>
</clipPath>
</defs>
</svg>
