<svg width="1440" height="567" viewBox="0 0 1440 567" fill="none" xmlns="http://www.w3.org/2000/svg">
<g clip-path="url(#clip0_1599_856)">
<path d="M1656.78 191.106C1661.25 183.371 1661.25 173.841 1656.78 166.106L1581.91 36.4287C1577.45 28.6937 1569.2 23.9287 1560.26 23.9287H1410.52C1401.59 23.9287 1393.34 28.6937 1388.87 36.4287L1314 166.106C1309.54 173.841 1309.54 183.371 1314 191.106L1388.87 320.784C1393.34 328.519 1401.59 333.284 1410.52 333.284H1560.26C1569.2 333.284 1577.45 328.519 1581.91 320.784L1656.78 191.106Z" fill="#89C958" fill-opacity="0.78"/>
<path d="M1378.59 671.719C1383.06 663.984 1383.06 654.454 1378.59 646.719L1303.72 517.042C1299.26 509.307 1291 504.542 1282.07 504.542H1132.33C1123.4 504.542 1115.15 509.307 1110.68 517.042L1035.81 646.719C1031.35 654.454 1031.35 663.984 1035.81 671.719L1110.68 801.397C1115.15 809.132 1123.4 813.897 1132.33 813.897H1282.07C1291 813.897 1299.26 809.132 1303.72 801.397L1378.59 671.719Z" fill="#89C958" fill-opacity="0.78"/>
<path d="M1656.78 511.515C1661.25 503.78 1661.25 494.25 1656.78 486.515L1581.91 356.838C1577.45 349.103 1569.2 344.338 1560.26 344.338H1410.52C1401.59 344.338 1393.34 349.103 1388.87 356.838L1314 486.515C1309.54 494.25 1309.54 503.78 1314 511.515L1388.87 641.193C1393.34 648.928 1401.59 653.693 1410.52 653.693H1560.26C1569.2 653.693 1577.45 648.928 1581.91 641.193L1656.78 511.515Z" fill="#89C958" fill-opacity="0.78"/>
<path d="M822.203 671.719C826.669 663.984 826.669 654.454 822.203 646.719L747.334 517.042C742.868 509.307 734.615 504.542 725.683 504.542H575.944C567.013 504.542 558.759 509.307 554.294 517.042L479.424 646.719C474.958 654.454 474.958 663.984 479.424 671.719L554.294 801.397C558.759 809.132 567.013 813.897 575.944 813.897H725.683C734.615 813.897 742.868 809.132 747.334 801.397L822.203 671.719Z" fill="#89C958" fill-opacity="0.78"/>
<path d="M544.013 511.515C548.478 503.78 548.478 494.25 544.013 486.515L469.143 356.838C464.677 349.103 456.424 344.338 447.493 344.338H297.751C288.821 344.338 280.571 349.103 276.101 356.838L201.231 486.515C196.771 494.25 196.771 503.78 201.231 511.515L276.101 641.193C280.571 648.928 288.821 653.693 297.751 653.693H447.493C456.424 653.693 464.677 648.928 469.143 641.193L544.013 511.515Z" fill="#89C958" fill-opacity="0.78"/>
<path d="M265.819 671.719C270.289 663.984 270.289 654.454 265.819 646.719L190.949 517.042C186.479 509.307 178.229 504.542 169.299 504.542H19.5595C10.6295 504.542 2.37945 509.307 -2.09055 517.042L-76.9605 646.719C-81.4305 654.454 -81.4305 663.984 -76.9605 671.719L-2.09055 801.397C2.37945 809.132 10.6295 813.897 19.5595 813.897H169.299C178.229 813.897 186.479 809.132 190.949 801.397L265.819 671.719Z" fill="#89C958" fill-opacity="0.78"/>
<path d="M1378.59 351.311C1383.06 343.576 1383.06 334.046 1378.59 326.311L1303.72 196.633C1299.26 188.898 1291 184.133 1282.07 184.133H1132.33C1123.4 184.133 1115.15 188.898 1110.68 196.633L1035.81 326.311C1031.35 334.046 1031.35 343.576 1035.81 351.311L1110.68 480.988C1115.15 488.723 1123.4 493.488 1132.33 493.488H1282.07C1291 493.488 1299.26 488.723 1303.72 480.988L1378.59 351.311Z" fill="#89C958" fill-opacity="0.78"/>
<path d="M1128.37 337.2L1127.21 331.6C1129.1 331.36 1130.76 331.067 1132.17 330.72C1133.58 330.4 1134.77 329.947 1135.73 329.36C1136.69 328.773 1137.41 327.973 1137.89 326.96C1138.37 325.92 1138.61 324.587 1138.61 322.96C1138.61 322.373 1138.56 321.787 1138.45 321.2C1138.34 320.587 1138.18 320.027 1137.97 319.52C1137.76 319.013 1137.48 318.6 1137.13 318.28C1136.81 317.96 1136.42 317.8 1135.97 317.8C1135.49 317.8 1135.06 317.973 1134.69 318.32C1134.32 318.64 1134.02 319.053 1133.81 319.56C1133.6 320.04 1133.49 320.533 1133.49 321.04C1133.49 321.413 1133.58 321.733 1133.77 322C1133.96 322.24 1134.24 322.427 1134.61 322.56C1134.98 322.667 1135.45 322.72 1136.01 322.72C1136.65 322.72 1137.3 322.653 1137.97 322.52C1138.66 322.36 1139.29 322.147 1139.85 321.88L1140.01 326.24C1139.37 326.747 1138.64 327.2 1137.81 327.6C1136.98 327.973 1135.98 328.16 1134.81 328.16C1133.85 328.16 1132.96 328.053 1132.13 327.84C1131.3 327.6 1130.57 327.24 1129.93 326.76C1129.32 326.28 1128.84 325.667 1128.49 324.92C1128.14 324.147 1127.97 323.227 1127.97 322.16C1127.97 320.853 1128.18 319.587 1128.61 318.36C1129.04 317.133 1129.62 316.04 1130.37 315.08C1131.14 314.093 1132.02 313.32 1133.01 312.76C1134.02 312.173 1135.09 311.88 1136.21 311.88C1137.54 311.88 1138.7 312.213 1139.69 312.88C1140.7 313.547 1141.54 314.427 1142.21 315.52C1142.88 316.587 1143.38 317.747 1143.73 319C1144.08 320.253 1144.25 321.453 1144.25 322.6C1144.25 325.613 1143.61 328.173 1142.33 330.28C1141.05 332.387 1139.22 334.013 1136.85 335.16C1134.48 336.333 1131.65 337.013 1128.37 337.2ZM1169.69 337.28C1167.77 337.28 1166.04 337.053 1164.49 336.6C1162.95 336.173 1161.61 335.52 1160.49 334.64C1159.37 333.76 1158.51 332.667 1157.89 331.36C1157.31 330.08 1157.01 328.587 1157.01 326.88C1157.01 326.267 1157.07 325.547 1157.17 324.72C1157.28 323.893 1157.48 322.96 1157.77 321.92C1158.07 320.853 1158.51 319.667 1159.09 318.36L1164.01 320.08C1163.72 320.907 1163.47 321.667 1163.25 322.36C1163.04 323.027 1162.88 323.653 1162.77 324.24C1162.67 324.8 1162.61 325.36 1162.61 325.92C1162.61 326.96 1162.85 327.92 1163.33 328.8C1163.81 329.68 1164.59 330.373 1165.65 330.88C1166.72 331.413 1168.12 331.68 1169.85 331.68C1171.45 331.68 1172.79 331.493 1173.85 331.12C1174.92 330.773 1175.76 330.28 1176.37 329.64C1176.99 329.027 1177.43 328.307 1177.69 327.48C1177.96 326.653 1178.09 325.76 1178.09 324.8C1178.09 324.053 1178 323.213 1177.81 322.28C1177.65 321.347 1177.41 320.333 1177.09 319.24C1176.77 318.12 1176.41 316.947 1176.01 315.72L1181.61 314.28C1181.99 315.827 1182.28 317.027 1182.49 317.88C1182.73 318.733 1182.92 319.373 1183.05 319.8C1183.32 320.6 1183.64 321.213 1184.01 321.64C1184.41 322.04 1184.85 322.307 1185.33 322.44C1185.84 322.573 1186.4 322.64 1187.01 322.64C1187.52 322.64 1187.99 322.56 1188.41 322.4C1188.84 322.24 1189.23 321.907 1189.57 321.4C1189.95 320.867 1190.28 320.053 1190.57 318.96C1190.87 317.867 1191.13 316.36 1191.37 314.44L1196.65 315.28C1196.55 315.893 1196.44 316.547 1196.33 317.24C1196.23 317.933 1196.13 318.587 1196.05 319.2C1195.97 319.787 1195.93 320.267 1195.93 320.64C1195.93 320.987 1196.03 321.307 1196.21 321.6C1196.43 321.893 1196.8 322.133 1197.33 322.32C1197.87 322.507 1198.63 322.6 1199.61 322.6C1200.84 322.6 1201.73 322.347 1202.29 321.84C1202.88 321.307 1203.17 320.507 1203.17 319.44C1203.17 318.827 1203.16 318.173 1203.13 317.48C1203.11 316.76 1203.05 315.96 1202.97 315.08C1202.92 314.173 1202.81 313.147 1202.65 312L1207.81 311.6C1208.03 314.08 1208.27 316.053 1208.53 317.52C1208.8 318.987 1209.15 320.093 1209.57 320.84C1210.03 321.56 1210.6 322.04 1211.29 322.28C1211.99 322.493 1212.85 322.6 1213.89 322.6C1214.91 322.6 1215.63 322.867 1216.05 323.4C1216.51 323.907 1216.73 324.547 1216.73 325.32C1216.73 326.147 1216.45 326.84 1215.89 327.4C1215.33 327.933 1214.53 328.2 1213.49 328.2C1212.37 328.2 1211.29 328.053 1210.25 327.76C1209.21 327.467 1208.29 326.947 1207.49 326.2C1206.72 325.427 1206.13 324.347 1205.73 322.96L1207.25 323.2C1206.91 324.64 1206.32 325.72 1205.49 326.44C1204.69 327.16 1203.79 327.64 1202.77 327.88C1201.76 328.093 1200.75 328.2 1199.73 328.2C1198.4 328.2 1197.21 328 1196.17 327.6C1195.16 327.2 1194.36 326.627 1193.77 325.88C1193.21 325.133 1192.95 324.227 1192.97 323.16H1194.33C1193.93 324.627 1193.39 325.72 1192.69 326.44C1192 327.16 1191.23 327.64 1190.37 327.88C1189.52 328.093 1188.65 328.2 1187.77 328.2C1187.08 328.2 1186.41 328.133 1185.77 328C1185.13 327.867 1184.55 327.653 1184.01 327.36C1183.51 327.04 1183.07 326.627 1182.69 326.12C1182.32 325.587 1182.07 324.947 1181.93 324.2L1183.41 325.8C1183.36 327.613 1183 329.227 1182.33 330.64C1181.67 332.053 1180.73 333.253 1179.53 334.24C1178.36 335.227 1176.93 335.973 1175.25 336.48C1173.6 337.013 1171.75 337.28 1169.69 337.28ZM1191.53 303.44C1190.87 303.44 1190.28 303.187 1189.77 302.68C1189.29 302.173 1189.05 301.573 1189.05 300.88C1189.05 300.187 1189.29 299.6 1189.77 299.12C1190.28 298.64 1190.87 298.4 1191.53 298.4C1192.23 298.4 1192.81 298.64 1193.29 299.12C1193.77 299.6 1194.01 300.187 1194.01 300.88C1194.01 301.573 1193.77 302.173 1193.29 302.68C1192.81 303.187 1192.23 303.44 1191.53 303.44ZM1188.33 308.72C1187.67 308.72 1187.08 308.467 1186.57 307.96C1186.09 307.453 1185.85 306.853 1185.85 306.16C1185.85 305.467 1186.09 304.88 1186.57 304.4C1187.08 303.92 1187.67 303.68 1188.33 303.68C1189.03 303.68 1189.61 303.92 1190.09 304.4C1190.57 304.88 1190.81 305.467 1190.81 306.16C1190.81 306.853 1190.57 307.453 1190.09 307.96C1189.61 308.467 1189.03 308.72 1188.33 308.72ZM1194.53 308.72C1193.87 308.72 1193.28 308.467 1192.77 307.96C1192.29 307.453 1192.05 306.853 1192.05 306.16C1192.05 305.467 1192.29 304.88 1192.77 304.4C1193.28 303.92 1193.87 303.68 1194.53 303.68C1195.23 303.68 1195.81 303.92 1196.29 304.4C1196.77 304.88 1197.01 305.467 1197.01 306.16C1197.01 306.853 1196.77 307.453 1196.29 307.96C1195.81 308.467 1195.23 308.72 1194.53 308.72ZM1213.55 328.2L1213.95 322.6C1214.83 322.6 1215.55 322.533 1216.11 322.4C1216.67 322.24 1217.12 321.907 1217.47 321.4C1217.84 320.867 1218.16 320.08 1218.43 319.04C1218.72 317.973 1219.04 316.533 1219.39 314.72L1224.59 315.68C1224.51 316.08 1224.42 316.547 1224.31 317.08C1224.2 317.613 1224.11 318.16 1224.03 318.72C1223.95 319.253 1223.91 319.733 1223.91 320.16C1223.91 320.907 1224.15 321.507 1224.63 321.96C1225.11 322.387 1226.02 322.6 1227.35 322.6C1228.02 322.6 1228.59 322.533 1229.07 322.4C1229.58 322.24 1230 321.907 1230.35 321.4C1230.72 320.867 1231.04 320.053 1231.31 318.96C1231.6 317.84 1231.88 316.333 1232.15 314.44L1237.43 315.28C1237.32 315.893 1237.22 316.547 1237.11 317.24C1237 317.933 1236.91 318.573 1236.83 319.16C1236.75 319.747 1236.71 320.227 1236.71 320.6C1236.71 320.947 1236.8 321.28 1236.99 321.6C1237.2 321.893 1237.58 322.133 1238.11 322.32C1238.67 322.507 1239.46 322.6 1240.47 322.6C1241.19 322.6 1241.8 322.507 1242.31 322.32C1242.84 322.133 1243.24 321.827 1243.51 321.4C1243.8 320.973 1243.95 320.413 1243.95 319.72C1243.95 318.733 1243.72 317.44 1243.27 315.84C1242.82 314.24 1242.28 312.56 1241.67 310.8L1247.31 309.12C1247.74 310.267 1248.11 311.493 1248.43 312.8C1248.78 314.08 1249.04 315.333 1249.23 316.56C1249.44 317.76 1249.55 318.813 1249.55 319.72C1249.55 321.08 1249.34 322.293 1248.91 323.36C1248.48 324.4 1247.88 325.28 1247.11 326C1246.34 326.72 1245.42 327.267 1244.35 327.64C1243.28 328.013 1242.11 328.2 1240.83 328.2C1239.28 328.2 1238.02 328.053 1237.03 327.76C1236.04 327.44 1235.28 326.92 1234.75 326.2C1234.24 325.453 1233.91 324.44 1233.75 323.16H1235.11C1234.55 324.733 1233.92 325.88 1233.23 326.6C1232.54 327.293 1231.71 327.733 1230.75 327.92C1229.82 328.107 1228.64 328.2 1227.23 328.2C1226.35 328.2 1225.44 328.107 1224.51 327.92C1223.6 327.707 1222.79 327.227 1222.07 326.48C1221.35 325.733 1220.82 324.573 1220.47 323L1222.63 322.92C1222.07 324.493 1221.34 325.653 1220.43 326.4C1219.55 327.147 1218.54 327.64 1217.39 327.88C1216.24 328.093 1214.96 328.2 1213.55 328.2ZM1234.47 303.44C1233.8 303.44 1233.22 303.187 1232.71 302.68C1232.23 302.173 1231.99 301.573 1231.99 300.88C1231.99 300.187 1232.23 299.6 1232.71 299.12C1233.22 298.64 1233.8 298.4 1234.47 298.4C1235.16 298.4 1235.75 298.64 1236.23 299.12C1236.71 299.6 1236.95 300.187 1236.95 300.88C1236.95 301.573 1236.71 302.173 1236.23 302.68C1235.75 303.187 1235.16 303.44 1234.47 303.44ZM1231.27 308.72C1230.6 308.72 1230.02 308.467 1229.51 307.96C1229.03 307.453 1228.79 306.853 1228.79 306.16C1228.79 305.467 1229.03 304.88 1229.51 304.4C1230.02 303.92 1230.6 303.68 1231.27 303.68C1231.96 303.68 1232.55 303.92 1233.03 304.4C1233.51 304.88 1233.75 305.467 1233.75 306.16C1233.75 306.853 1233.51 307.453 1233.03 307.96C1232.55 308.467 1231.96 308.72 1231.27 308.72ZM1237.47 308.72C1236.8 308.72 1236.22 308.467 1235.71 307.96C1235.23 307.453 1234.99 306.853 1234.99 306.16C1234.99 305.467 1235.23 304.88 1235.71 304.4C1236.22 303.92 1236.8 303.68 1237.47 303.68C1238.16 303.68 1238.75 303.92 1239.23 304.4C1239.71 304.88 1239.95 305.467 1239.95 306.16C1239.95 306.853 1239.71 307.453 1239.23 307.96C1238.75 308.467 1238.16 308.72 1237.47 308.72ZM1253.84 337.2L1252.68 331.6C1254.57 331.36 1256.23 331.067 1257.64 330.72C1259.05 330.4 1260.24 329.947 1261.2 329.36C1262.16 328.773 1262.88 327.973 1263.36 326.96C1263.84 325.92 1264.08 324.587 1264.08 322.96C1264.08 321.387 1263.84 320.133 1263.36 319.2C1262.88 318.267 1262.24 317.8 1261.44 317.8C1260.88 317.8 1260.41 318 1260.04 318.4C1259.67 318.773 1259.39 319.227 1259.2 319.76C1259.04 320.267 1258.96 320.72 1258.96 321.12C1258.96 321.36 1259.03 321.613 1259.16 321.88C1259.29 322.147 1259.59 322.373 1260.04 322.56C1260.49 322.747 1261.2 322.853 1262.16 322.88C1263.15 322.907 1264.48 322.813 1266.16 322.6H1272.88C1273.89 322.6 1274.61 322.867 1275.04 323.4C1275.49 323.907 1275.72 324.547 1275.72 325.32C1275.72 326.147 1275.44 326.84 1274.88 327.4C1274.32 327.933 1273.52 328.2 1272.48 328.2H1261.48C1259.8 328.2 1258.36 328 1257.16 327.6C1255.96 327.2 1255.04 326.56 1254.4 325.68C1253.76 324.773 1253.44 323.573 1253.44 322.08C1253.44 320.88 1253.64 319.68 1254.04 318.48C1254.47 317.28 1255.05 316.187 1255.8 315.2C1256.55 314.187 1257.41 313.387 1258.4 312.8C1259.41 312.187 1260.51 311.88 1261.68 311.88C1263.28 311.88 1264.68 312.373 1265.88 313.36C1267.08 314.347 1268.01 315.653 1268.68 317.28C1269.37 318.907 1269.72 320.68 1269.72 322.6C1269.72 325.613 1269.08 328.173 1267.8 330.28C1266.52 332.387 1264.69 334.013 1262.32 335.16C1259.95 336.333 1257.12 337.013 1253.84 337.2ZM1272.54 328.2L1272.94 322.6C1274.54 322.6 1275.76 322.52 1276.62 322.36C1277.47 322.2 1278.06 321.907 1278.38 321.48C1278.72 321.027 1278.9 320.387 1278.9 319.56C1278.9 318.813 1278.79 317.92 1278.58 316.88C1278.39 315.84 1278.14 314.76 1277.82 313.64C1277.52 312.52 1277.2 311.493 1276.86 310.56L1282.38 309.04C1282.72 309.947 1283.06 311 1283.38 312.2C1283.7 313.4 1283.96 314.64 1284.18 315.92C1284.39 317.173 1284.5 318.387 1284.5 319.56C1284.5 321.373 1284.2 322.853 1283.62 324C1283.03 325.12 1282.2 325.987 1281.14 326.6C1280.1 327.213 1278.84 327.64 1277.38 327.88C1275.91 328.093 1274.3 328.2 1272.54 328.2ZM1278.58 341.52C1277.91 341.52 1277.35 341.293 1276.9 340.84C1276.47 340.387 1276.26 339.84 1276.26 339.2C1276.26 338.533 1276.47 337.96 1276.9 337.48C1277.35 337 1277.91 336.76 1278.58 336.76C1279.22 336.76 1279.76 337 1280.22 337.48C1280.67 337.96 1280.9 338.533 1280.9 339.2C1280.9 339.84 1280.67 340.387 1280.22 340.84C1279.76 341.293 1279.22 341.52 1278.58 341.52ZM1281.66 336.36C1280.99 336.36 1280.43 336.133 1279.98 335.68C1279.55 335.227 1279.34 334.68 1279.34 334.04C1279.34 333.373 1279.55 332.8 1279.98 332.32C1280.43 331.84 1280.99 331.6 1281.66 331.6C1282.3 331.6 1282.84 331.84 1283.3 332.32C1283.75 332.8 1283.98 333.373 1283.98 334.04C1283.98 334.68 1283.75 335.227 1283.3 335.68C1282.84 336.133 1282.3 336.36 1281.66 336.36ZM1275.66 336.36C1274.99 336.36 1274.43 336.133 1273.98 335.68C1273.52 335.227 1273.3 334.68 1273.3 334.04C1273.3 333.373 1273.52 332.8 1273.98 332.32C1274.43 331.84 1274.99 331.6 1275.66 331.6C1276.27 331.6 1276.8 331.84 1277.26 332.32C1277.74 332.8 1277.98 333.373 1277.98 334.04C1277.98 334.68 1277.74 335.227 1277.26 335.68C1276.8 336.133 1276.27 336.36 1275.66 336.36ZM1084.96 386.88C1084.96 386.267 1085.02 385.547 1085.12 384.72C1085.23 383.893 1085.43 382.96 1085.72 381.92C1086.02 380.853 1086.46 379.667 1087.04 378.36L1091.96 380.08C1091.67 380.907 1091.42 381.667 1091.2 382.36C1090.99 383.027 1090.83 383.653 1090.72 384.24C1090.62 384.8 1090.56 385.36 1090.56 385.92C1090.56 386.72 1090.74 387.467 1091.08 388.16C1091.43 388.853 1091.95 389.453 1092.64 389.96C1093.34 390.493 1094.19 390.907 1095.2 391.2C1096.24 391.493 1097.44 391.64 1098.8 391.64C1100.35 391.64 1101.71 391.493 1102.88 391.2C1104.08 390.933 1105.08 390.573 1105.88 390.12C1106.71 389.693 1107.34 389.24 1107.76 388.76C1108.19 388.28 1108.4 387.84 1108.4 387.44C1108.4 387.12 1108.18 386.84 1107.72 386.6C1107.3 386.36 1106.72 386.12 1106 385.88C1105.31 385.613 1104.56 385.32 1103.76 385C1102.99 384.68 1102.24 384.28 1101.52 383.8C1100.83 383.32 1100.26 382.733 1099.8 382.04C1099.38 381.347 1099.16 380.507 1099.16 379.52C1099.16 378.507 1099.43 377.4 1099.96 376.2C1100.5 374.973 1101.26 373.813 1102.24 372.72C1103.23 371.6 1104.4 370.693 1105.76 370C1107.15 369.28 1108.67 368.92 1110.32 368.92C1111.5 368.92 1112.56 369.107 1113.52 369.48C1114.51 369.853 1115.34 370.28 1116 370.76L1113.92 375.44C1113.36 375.067 1112.76 374.787 1112.12 374.6C1111.48 374.387 1110.87 374.28 1110.28 374.28C1109.54 374.28 1108.82 374.427 1108.12 374.72C1107.46 375.013 1106.86 375.4 1106.32 375.88C1105.82 376.333 1105.42 376.827 1105.12 377.36C1104.83 377.893 1104.68 378.4 1104.68 378.88C1104.68 379.36 1104.91 379.787 1105.36 380.16C1105.84 380.507 1106.46 380.84 1107.2 381.16C1107.95 381.453 1108.74 381.76 1109.56 382.08C1110.39 382.4 1111.18 382.76 1111.92 383.16C1112.67 383.56 1113.27 384.04 1113.72 384.6C1114.2 385.16 1114.44 385.84 1114.44 386.64C1114.44 387.787 1114.08 388.973 1113.36 390.2C1112.67 391.453 1111.63 392.613 1110.24 393.68C1108.86 394.747 1107.15 395.6 1105.12 396.24C1103.12 396.907 1100.8 397.24 1098.16 397.24C1096.24 397.24 1094.48 397.013 1092.88 396.56C1091.28 396.133 1089.88 395.48 1088.68 394.6C1087.51 393.747 1086.59 392.667 1085.92 391.36C1085.28 390.08 1084.96 388.587 1084.96 386.88ZM1125.49 382.6C1126.69 382.6 1127.61 382.493 1128.25 382.28C1128.89 382.067 1129.33 381.787 1129.57 381.44C1129.81 381.093 1129.93 380.72 1129.93 380.32C1129.93 379.68 1129.75 378.933 1129.37 378.08C1129.03 377.227 1128.59 376.333 1128.05 375.4C1127.52 374.467 1126.96 373.573 1126.37 372.72C1125.81 371.867 1125.31 371.12 1124.85 370.48L1129.61 367.32C1130.76 368.867 1131.75 370.4 1132.57 371.92C1133.4 373.413 1134.07 374.8 1134.57 376.08C1135.11 377.36 1135.48 378.453 1135.69 379.36C1135.91 380.213 1136.23 380.88 1136.65 381.36C1137.11 381.813 1137.63 382.133 1138.21 382.32C1138.8 382.507 1139.39 382.6 1139.97 382.6C1140.99 382.6 1141.71 382.867 1142.13 383.4C1142.59 383.907 1142.81 384.547 1142.81 385.32C1142.81 386.147 1142.53 386.84 1141.97 387.4C1141.44 387.933 1140.64 388.2 1139.57 388.2C1138.4 388.2 1137.37 388.04 1136.49 387.72C1135.61 387.4 1134.87 386.893 1134.25 386.2C1133.64 385.507 1133.12 384.627 1132.69 383.56L1135.13 384.08C1134.92 384.827 1134.43 385.52 1133.65 386.16C1132.91 386.773 1131.91 387.28 1130.65 387.68C1129.43 388.053 1127.97 388.24 1126.29 388.24C1125.49 388.24 1124.6 388.173 1123.61 388.04C1122.65 387.907 1121.69 387.707 1120.73 387.44C1119.8 387.173 1118.95 386.827 1118.17 386.4L1120.13 381.32C1121.12 381.747 1122.07 382.067 1122.97 382.28C1123.91 382.493 1124.75 382.6 1125.49 382.6ZM1139.62 388.2L1140.03 382.6C1141.63 382.6 1142.85 382.52 1143.71 382.36C1144.56 382.2 1145.15 381.907 1145.47 381.48C1145.81 381.027 1145.99 380.387 1145.99 379.56C1145.99 378.813 1145.88 377.92 1145.67 376.88C1145.48 375.84 1145.23 374.76 1144.9 373.64C1144.61 372.52 1144.29 371.493 1143.95 370.56L1149.47 369.04C1149.81 369.947 1150.15 371 1150.47 372.2C1150.79 373.4 1151.05 374.64 1151.27 375.92C1151.48 377.173 1151.59 378.387 1151.59 379.56C1151.59 381.373 1151.29 382.853 1150.71 384C1150.12 385.12 1149.29 385.987 1148.23 386.6C1147.19 387.213 1145.93 387.64 1144.47 387.88C1143 388.093 1141.38 388.2 1139.62 388.2ZM1150.47 365.8C1149.69 365.8 1149.03 365.533 1148.47 365C1147.93 364.44 1147.67 363.787 1147.67 363.04C1147.67 362.267 1147.93 361.6 1148.47 361.04C1149.03 360.48 1149.69 360.2 1150.47 360.2C1151.21 360.2 1151.85 360.48 1152.39 361.04C1152.92 361.6 1153.19 362.267 1153.19 363.04C1153.19 363.787 1152.92 364.44 1152.39 365C1151.85 365.533 1151.21 365.8 1150.47 365.8ZM1143.55 365.76C1142.77 365.76 1142.11 365.493 1141.55 364.96C1141.01 364.4 1140.75 363.747 1140.75 363C1140.75 362.227 1141.01 361.56 1141.55 361C1142.11 360.44 1142.77 360.16 1143.55 360.16C1144.29 360.16 1144.93 360.44 1145.47 361C1146 361.56 1146.27 362.227 1146.27 363C1146.27 363.747 1146 364.4 1145.47 364.96C1144.93 365.493 1144.29 365.76 1143.55 365.76ZM1166.68 388.2C1164.2 388.2 1162.28 387.947 1160.92 387.44C1159.59 386.933 1158.65 386.147 1158.12 385.08C1157.59 383.987 1157.28 382.613 1157.2 380.96L1156.36 358.72H1161.96L1162.8 378.28C1162.85 379.507 1162.99 380.427 1163.2 381.04C1163.41 381.653 1163.81 382.067 1164.4 382.28C1165.01 382.493 1165.91 382.6 1167.08 382.6C1168.09 382.6 1168.81 382.867 1169.24 383.4C1169.69 383.907 1169.92 384.547 1169.92 385.32C1169.92 386.147 1169.64 386.84 1169.08 387.4C1168.52 387.933 1167.72 388.2 1166.68 388.2ZM1166.73 388.2L1167.13 382.6H1172.85C1173.41 382.6 1173.91 382.573 1174.33 382.52C1174.76 382.44 1175.11 382.32 1175.37 382.16C1175.67 382 1175.88 381.8 1176.01 381.56C1176.15 381.32 1176.21 381.04 1176.21 380.72C1176.21 380.4 1176.04 379.893 1175.69 379.2C1175.37 378.48 1174.67 377.613 1173.57 376.6C1172.99 376.067 1172.35 375.507 1171.65 374.92C1170.99 374.307 1170.35 373.733 1169.73 373.2C1169.12 372.64 1168.61 372.147 1168.21 371.72C1167.81 371.293 1167.61 370.987 1167.61 370.8C1167.61 370.4 1167.64 369.96 1167.69 369.48C1167.75 369 1167.83 368.56 1167.93 368.16C1168.07 367.76 1168.24 367.467 1168.45 367.28C1168.91 366.853 1169.57 366.36 1170.45 365.8C1171.36 365.213 1172.44 364.587 1173.69 363.92C1174.95 363.227 1176.35 362.507 1177.89 361.76C1179.47 360.987 1181.15 360.213 1182.93 359.44L1185.21 364.32C1183.75 364.96 1182.36 365.587 1181.05 366.2C1179.75 366.787 1178.52 367.373 1177.37 367.96C1176.25 368.52 1175.21 369.08 1174.25 369.64C1173.32 370.173 1172.49 370.707 1171.77 371.24L1172.29 368.28C1174.56 370.013 1176.36 371.573 1177.69 372.96C1179.05 374.347 1180.07 375.587 1180.73 376.68C1181.4 377.747 1181.84 378.707 1182.05 379.56C1182.27 380.387 1182.37 381.12 1182.37 381.76C1182.37 382.4 1182.21 383.093 1181.89 383.84C1181.6 384.56 1181.05 385.253 1180.25 385.92C1179.48 386.587 1178.39 387.133 1176.97 387.56C1175.56 387.987 1173.75 388.2 1171.53 388.2H1166.73ZM1211.86 388.84L1212.9 383.24C1214.82 383.24 1216.66 383.147 1218.42 382.96C1220.21 382.773 1221.9 382.4 1223.5 381.84C1225.13 381.28 1226.65 380.453 1228.06 379.36C1229.47 378.267 1230.75 376.8 1231.9 374.96L1236.38 377C1236.22 377.507 1236.09 378 1235.98 378.48C1235.87 378.933 1235.82 379.307 1235.82 379.6C1235.82 380.213 1235.97 380.747 1236.26 381.2C1236.58 381.653 1237.11 382 1237.86 382.24C1238.61 382.48 1239.63 382.6 1240.94 382.6C1241.95 382.6 1242.67 382.867 1243.1 383.4C1243.53 383.907 1243.74 384.547 1243.74 385.32C1243.74 386.147 1243.46 386.84 1242.9 387.4C1242.37 387.933 1241.58 388.2 1240.54 388.2C1238.7 388.2 1237.1 387.947 1235.74 387.44C1234.41 386.933 1233.35 386.227 1232.58 385.32C1231.83 384.387 1231.39 383.32 1231.26 382.12L1232.86 382.28C1231.9 383.427 1230.7 384.413 1229.26 385.24C1227.85 386.067 1226.23 386.747 1224.42 387.28C1222.63 387.813 1220.67 388.2 1218.54 388.44C1216.43 388.707 1214.21 388.84 1211.86 388.84ZM1211.82 388.84C1208.94 388.84 1206.5 388.613 1204.5 388.16C1202.53 387.733 1200.91 387.12 1199.66 386.32C1198.43 385.493 1197.54 384.533 1196.98 383.44C1196.42 382.347 1196.14 381.147 1196.14 379.84C1196.14 378.987 1196.21 378.133 1196.34 377.28C1196.5 376.4 1196.69 375.547 1196.9 374.72C1197.14 373.893 1197.35 373.147 1197.54 372.48L1202.54 373.64C1202.43 374.12 1202.31 374.64 1202.18 375.2C1202.05 375.76 1201.94 376.307 1201.86 376.84C1201.78 377.347 1201.74 377.813 1201.74 378.24C1201.74 379.227 1202.09 380.107 1202.78 380.88C1203.5 381.627 1204.67 382.213 1206.3 382.64C1207.93 383.04 1210.11 383.24 1212.86 383.24L1213.66 387.56L1211.82 388.84ZM1219.26 370.56C1218.49 370.56 1217.82 370.293 1217.26 369.76C1216.73 369.2 1216.46 368.547 1216.46 367.8C1216.46 367.027 1216.73 366.36 1217.26 365.8C1217.82 365.24 1218.49 364.96 1219.26 364.96C1220.01 364.96 1220.65 365.24 1221.18 365.8C1221.71 366.36 1221.98 367.027 1221.98 367.8C1221.98 368.547 1221.71 369.2 1221.18 369.76C1220.65 370.293 1220.01 370.56 1219.26 370.56ZM1212.34 370.52C1211.57 370.52 1210.9 370.253 1210.34 369.72C1209.81 369.16 1209.54 368.507 1209.54 367.76C1209.54 366.987 1209.81 366.32 1210.34 365.76C1210.9 365.2 1211.57 364.92 1212.34 364.92C1213.09 364.92 1213.73 365.2 1214.26 365.76C1214.79 366.32 1215.06 366.987 1215.06 367.76C1215.06 368.507 1214.79 369.16 1214.26 369.72C1213.73 370.253 1213.09 370.52 1212.34 370.52ZM1240.52 388.2L1240.92 382.6H1249.88C1252.39 382.6 1254.47 382.507 1256.12 382.32C1257.8 382.133 1259.14 381.867 1260.12 381.52C1261.11 381.147 1261.8 380.72 1262.2 380.24C1262.63 379.76 1262.84 379.24 1262.84 378.68C1262.84 378.173 1262.72 377.693 1262.48 377.24C1262.24 376.76 1261.88 376.373 1261.4 376.08C1260.92 375.787 1260.3 375.64 1259.52 375.64C1258.54 375.64 1257.55 375.88 1256.56 376.36C1255.58 376.813 1254.62 377.44 1253.68 378.24C1252.75 379.013 1251.86 379.88 1251 380.84C1250.18 381.8 1249.42 382.773 1248.72 383.76L1242.68 382.92C1243.8 381.187 1245.02 379.547 1246.32 378C1247.66 376.427 1249.06 375.053 1250.52 373.88C1252.02 372.68 1253.55 371.747 1255.12 371.08C1256.72 370.387 1258.35 370.04 1260 370.04C1261.76 370.04 1263.27 370.4 1264.52 371.12C1265.78 371.84 1266.74 372.827 1267.4 374.08C1268.1 375.333 1268.44 376.787 1268.44 378.44C1268.44 380.173 1267.95 381.733 1266.96 383.12C1266 384.507 1264.36 385.653 1262.04 386.56C1261.06 386.933 1259.99 387.24 1258.84 387.48C1257.7 387.72 1256.35 387.893 1254.8 388C1253.26 388.133 1251.4 388.2 1249.24 388.2H1240.52ZM1244.68 384.12L1243.84 358.72H1249.44L1250.16 377.92L1244.68 384.12ZM1258.84 366.32C1258.02 366.32 1257.31 366.04 1256.72 365.48C1256.16 364.92 1255.88 364.227 1255.88 363.4C1255.88 362.573 1256.16 361.867 1256.72 361.28C1257.31 360.693 1258.02 360.4 1258.84 360.4C1259.64 360.4 1260.32 360.693 1260.88 361.28C1261.47 361.867 1261.76 362.573 1261.76 363.4C1261.76 364.227 1261.47 364.92 1260.88 365.48C1260.32 366.04 1259.64 366.32 1258.84 366.32ZM1282.7 388.2C1280.22 388.2 1278.3 387.947 1276.94 387.44C1275.6 386.933 1274.67 386.147 1274.14 385.08C1273.6 383.987 1273.3 382.613 1273.22 380.96L1272.38 358.72H1277.98L1278.82 378.28C1278.87 379.507 1279 380.427 1279.22 381.04C1279.43 381.653 1279.83 382.067 1280.42 382.28C1281.03 382.493 1281.92 382.6 1283.1 382.6C1284.11 382.6 1284.83 382.867 1285.26 383.4C1285.71 383.907 1285.94 384.547 1285.94 385.32C1285.94 386.147 1285.66 386.84 1285.1 387.4C1284.54 387.933 1283.74 388.2 1282.7 388.2ZM1282.75 388.2L1283.15 382.64C1284.19 382.667 1285.15 382.653 1286.03 382.6C1286.91 382.547 1287.7 382.467 1288.39 382.36C1289.11 382.253 1289.74 382.133 1290.27 382C1290.83 381.867 1291.3 381.747 1291.67 381.64C1292.58 381.347 1293.35 381 1293.99 380.6C1294.63 380.173 1295.12 379.693 1295.47 379.16C1295.82 378.627 1295.99 378.053 1295.99 377.44C1295.99 376.96 1295.88 376.48 1295.67 376C1295.48 375.493 1295.2 375.08 1294.83 374.76C1294.46 374.44 1294.02 374.28 1293.51 374.28C1293.03 374.28 1292.59 374.427 1292.19 374.72C1291.79 375.013 1291.47 375.413 1291.23 375.92C1290.99 376.4 1290.87 376.96 1290.87 377.6C1290.87 378.16 1291 378.693 1291.27 379.2C1291.54 379.68 1291.91 380.147 1292.39 380.6C1292.87 381.053 1293.44 381.48 1294.11 381.88L1288.79 383.92C1288.2 383.36 1287.64 382.76 1287.11 382.12C1286.6 381.48 1286.18 380.76 1285.83 379.96C1285.51 379.133 1285.35 378.213 1285.35 377.2C1285.35 375.973 1285.59 374.853 1286.07 373.84C1286.55 372.827 1287.19 371.96 1287.99 371.24C1288.79 370.493 1289.68 369.92 1290.67 369.52C1291.66 369.12 1292.64 368.92 1293.63 368.92C1295.23 368.92 1296.62 369.293 1297.79 370.04C1298.96 370.787 1299.87 371.76 1300.51 372.96C1301.18 374.16 1301.51 375.467 1301.51 376.88C1301.51 378.187 1301.27 379.36 1300.79 380.4C1300.31 381.413 1299.66 382.32 1298.83 383.12C1298.03 383.893 1297.14 384.573 1296.15 385.16C1295.19 385.747 1294.22 386.24 1293.23 386.64C1292.75 386.853 1292.15 387.053 1291.43 387.24C1290.71 387.427 1289.9 387.6 1288.99 387.76C1288.08 387.893 1287.11 388 1286.07 388.08C1285.03 388.16 1283.92 388.2 1282.75 388.2ZM1303.87 388.2C1302.32 388.2 1300.8 388.12 1299.31 387.96C1297.82 387.8 1296.43 387.56 1295.15 387.24C1293.9 386.92 1292.8 386.533 1291.87 386.08L1294.63 381.76C1295.43 381.973 1296.36 382.147 1297.43 382.28C1298.52 382.387 1299.66 382.467 1300.83 382.52C1302.03 382.573 1303.18 382.6 1304.27 382.6C1305.28 382.6 1306 382.867 1306.43 383.4C1306.88 383.907 1307.11 384.547 1307.11 385.32C1307.11 386.147 1306.83 386.84 1306.27 387.4C1305.71 387.933 1304.91 388.2 1303.87 388.2ZM1293.67 365.2C1292.84 365.2 1292.14 364.92 1291.55 364.36C1290.99 363.8 1290.71 363.107 1290.71 362.28C1290.71 361.453 1290.99 360.747 1291.55 360.16C1292.14 359.573 1292.84 359.28 1293.67 359.28C1294.47 359.28 1295.15 359.573 1295.71 360.16C1296.3 360.747 1296.59 361.453 1296.59 362.28C1296.59 363.107 1296.3 363.8 1295.71 364.36C1295.15 364.92 1294.47 365.2 1293.67 365.2ZM1303.92 388.2L1304.32 382.6C1305.76 382.6 1307.19 382.52 1308.6 382.36C1310.02 382.2 1311.39 381.96 1312.72 381.64C1314.06 381.32 1315.32 380.907 1316.52 380.4C1317.75 379.893 1318.9 379.28 1319.96 378.56C1319.16 378.08 1318.3 377.667 1317.36 377.32C1316.43 376.973 1315.43 376.72 1314.36 376.56C1313.32 376.373 1312.22 376.28 1311.04 376.28C1310.62 376.28 1310.16 376.293 1309.68 376.32C1309.23 376.347 1308.76 376.4 1308.28 376.48C1307.8 376.533 1307.32 376.613 1306.84 376.72L1306.04 371.24C1306.82 371.027 1307.63 370.88 1308.48 370.8C1309.36 370.693 1310.14 370.64 1310.8 370.64C1312.24 370.64 1313.56 370.8 1314.76 371.12C1315.99 371.44 1317.11 371.84 1318.12 372.32C1319.16 372.8 1320.12 373.28 1321 373.76C1321.91 374.24 1322.76 374.64 1323.56 374.96C1324.39 375.28 1325.19 375.44 1325.96 375.44H1327.44L1328.08 380.76C1326.94 380.813 1325.86 381.04 1324.84 381.44C1323.86 381.813 1322.87 382.293 1321.88 382.88C1320.92 383.44 1319.88 384.027 1318.76 384.64C1317.67 385.253 1316.43 385.827 1315.04 386.36C1313.66 386.893 1312.06 387.333 1310.24 387.68C1308.43 388.027 1306.32 388.2 1303.92 388.2Z" fill="white"/>
<path d="M1100.4 511.515C1104.86 503.78 1104.86 494.25 1100.4 486.515L1025.53 356.838C1021.06 349.103 1012.81 344.338 1003.88 344.338H854.139C845.207 344.338 836.954 349.103 832.488 356.838L757.619 486.515C753.153 494.25 753.153 503.78 757.619 511.515L832.488 641.193C836.954 648.928 845.207 653.693 854.139 653.693H1003.88C1012.81 653.693 1021.06 648.928 1025.53 641.193L1100.4 511.515Z" fill="#89C958" fill-opacity="0.78"/>
</g>
<defs>
<clipPath id="clip0_1599_856">
<rect width="1440" height="567" fill="white" transform="matrix(-1 0 0 1 1440 0)"/>
</clipPath>
</defs>
</svg>
