<svg width="77" height="72" viewBox="0 0 77 72" fill="none" xmlns="http://www.w3.org/2000/svg">
<g filter="url(#filter0_f_458_222)">
<path fill-rule="evenodd" clip-rule="evenodd" d="M74.0903 -51.7807C74.6621 -52.0731 75.3396 -52.0731 75.9115 -51.7807L91.0431 -44.0429C91.7117 -43.701 92.1325 -43.0132 92.1325 -42.2622V-27.1883C92.1325 -26.4373 91.7117 -25.7496 91.0431 -25.4076L75.9115 -17.6698C75.3396 -17.3774 74.6622 -17.3774 74.0903 -17.6698L58.9587 -25.4076C58.2901 -25.7496 57.8693 -26.4373 57.8693 -27.1883V-42.2622C57.8693 -43.0132 58.2901 -43.701 58.9587 -44.0429L74.0903 -51.7807ZM92.1766 -23.5209C92.7484 -23.8133 93.4259 -23.8133 93.9977 -23.5209L109.129 -15.7831C109.798 -15.4412 110.219 -14.7534 110.219 -14.0024V1.07146C110.219 1.82248 109.798 2.51021 109.129 2.85214L93.9977 10.5899C93.4259 10.8824 92.7484 10.8824 92.1766 10.5899L77.045 2.85214C76.3763 2.51021 75.9556 1.82249 75.9556 1.07146V-14.0024C75.9556 -14.7534 76.3763 -15.4412 77.045 -15.7831L92.1766 -23.5209ZM75.9115 4.73888C75.3396 4.44646 74.6621 4.44646 74.0903 4.73888L58.9587 12.4767C58.2901 12.8186 57.8693 13.5063 57.8693 14.2574V29.3312C57.8693 30.0823 58.2901 30.77 58.9587 31.1119L74.0903 38.8497C74.6622 39.1421 75.3396 39.1421 75.9115 38.8497L91.0431 31.1119C91.7117 30.77 92.1325 30.0823 92.1325 29.3312V14.2574C92.1325 13.5063 91.7117 12.8186 91.0431 12.4767L75.9115 4.73888ZM37.9178 4.73888C38.4896 4.44646 39.1671 4.44646 39.739 4.73888L54.8705 12.4767C55.5392 12.8186 55.96 13.5063 55.96 14.2574V29.3312C55.96 30.0823 55.5392 30.77 54.8705 31.1119L39.739 38.8497C39.1671 39.1421 38.4896 39.1421 37.9178 38.8497L22.7862 31.1119C22.1175 30.77 21.6968 30.0823 21.6968 29.3312V14.2574C21.6968 13.5063 22.1175 12.8186 22.7862 12.4767L37.9178 4.73888ZM56.3935 -23.2427C56.9654 -23.5351 57.6428 -23.5351 58.2147 -23.2427L73.3463 -15.5049C74.0149 -15.163 74.4357 -14.4753 74.4357 -13.7242V1.34964C74.4357 2.10067 74.0149 2.78839 73.3463 3.13033L58.2147 10.8681C57.6428 11.1605 56.9654 11.1605 56.3935 10.8681L41.2619 3.13033C40.5933 2.78839 40.1725 2.10067 40.1725 1.34964V-13.7242C40.1725 -14.4753 40.5933 -15.163 41.2619 -15.5049L56.3935 -23.2427ZM22.0422 -23.2427C21.4703 -23.5351 20.7928 -23.5351 20.221 -23.2427L5.08942 -15.5049C4.42075 -15.163 4 -14.4753 4 -13.7242V1.34964C4 2.10067 4.42075 2.78839 5.08942 3.13033L20.221 10.8681C20.7928 11.1605 21.4703 11.1605 22.0422 10.8681L37.1737 3.13033C37.8424 2.78839 38.2632 2.10067 38.2632 1.34964V-13.7242C38.2632 -14.4753 37.8424 -15.163 37.1737 -15.5049L22.0422 -23.2427ZM38.3073 -51.5025C38.8791 -51.7949 39.5566 -51.7949 40.1284 -51.5025L55.26 -43.7647C55.9287 -43.4228 56.3494 -42.735 56.3494 -41.984V-26.9101C56.3494 -26.1591 55.9287 -25.4714 55.26 -25.1295L40.1284 -17.3917C39.5566 -17.0992 38.8791 -17.0992 38.3073 -17.3917L23.1757 -25.1295C22.507 -25.4714 22.0863 -26.1591 22.0863 -26.9101V-41.984C22.0863 -42.735 22.507 -43.4228 23.1757 -43.7647L38.3073 -51.5025ZM22.0422 33.2768C21.4703 32.9844 20.7928 32.9844 20.221 33.2768L5.08942 41.0146C4.42075 41.3566 4 42.0443 4 42.7953V57.8692C4 58.6202 4.42075 59.3079 5.08942 59.6499L20.221 67.3877C20.7928 67.6801 21.4703 67.6801 22.0422 67.3877L37.1737 59.6499C37.8424 59.3079 38.2632 58.6202 38.2632 57.8692V42.7953C38.2632 42.0443 37.8424 41.3566 37.1737 41.0146L22.0422 33.2768ZM56.3935 32.1465C56.9654 31.854 57.6428 31.854 58.2147 32.1465L73.3463 39.8842C74.0149 40.2262 74.4357 40.9139 74.4357 41.6649V56.7388C74.4357 57.4898 74.0149 58.1776 73.3463 58.5195L58.2147 66.2573C57.6428 66.5497 56.9654 66.5497 56.3935 66.2573L41.2619 58.5195C40.5933 58.1776 40.1725 57.4898 40.1725 56.7388V41.6649C40.1725 40.9139 40.5933 40.2262 41.2619 39.8842L56.3935 32.1465ZM93.9977 32.9987C93.4259 32.7062 92.7484 32.7062 92.1766 32.9987L77.045 40.7365C76.3763 41.0784 75.9556 41.7661 75.9556 42.5171V57.591C75.9556 58.342 76.3763 59.0298 77.045 59.3717L92.1766 67.1095C92.7484 67.4019 93.4259 67.4019 93.9977 67.1095L109.129 59.3717C109.798 59.0298 110.219 58.342 110.219 57.591V42.5171C110.219 41.7661 109.798 41.0784 109.129 40.7365L93.9977 32.9987Z" fill="#89C958" fill-opacity="0.79"/>
</g>
<defs>
<filter id="filter0_f_458_222" x="0" y="-56" width="114.219" height="127.607" filterUnits="userSpaceOnUse" color-interpolation-filters="sRGB">
<feFlood flood-opacity="0" result="BackgroundImageFix"/>
<feBlend mode="normal" in="SourceGraphic" in2="BackgroundImageFix" result="shape"/>
<feGaussianBlur stdDeviation="2" result="effect1_foregroundBlur_458_222"/>
</filter>
</defs>
</svg>
