<svg width="667" height="423" viewBox="0 0 667 423" fill="none" xmlns="http://www.w3.org/2000/svg">
<path d="M304.979 442.641C301.4 442.597 298.064 444.48 296.237 447.576L247.78 529.671C245.963 532.749 245.913 536.559 247.65 539.671L294.15 622.989C295.886 626.101 299.146 628.043 302.706 628.086L397.626 629.244C401.205 629.288 404.541 627.405 406.368 624.309L454.825 542.214C456.642 539.136 456.692 535.326 454.955 532.214L408.456 448.896C406.719 445.784 403.459 443.842 399.9 443.799L304.979 442.641Z" fill="#2FA3EE"/>
<path d="M-31.3712 52.4798C-34.9506 52.4361 -38.2864 54.3191 -40.1136 57.4149L-88.5707 139.51C-90.3877 142.588 -90.4372 146.398 -88.7005 149.51L-42.2009 232.828C-40.4642 235.94 -37.2042 237.882 -33.6448 237.925L61.2753 239.083C64.8547 239.127 68.1904 237.244 70.0177 234.148L118.475 152.053C120.292 148.975 120.341 145.164 118.605 142.053L72.105 58.7349C70.3683 55.6231 67.1083 53.6809 63.5489 53.6375L-31.3712 52.4798Z" fill="#2FA3EE"/>
<path d="M474.742 346.807C471.162 346.763 467.826 348.646 465.999 351.742L417.542 433.837C415.725 436.915 415.676 440.726 417.412 443.837L463.912 527.155C465.649 530.267 468.909 532.209 472.468 532.253L567.388 533.41C570.968 533.454 574.303 531.571 576.131 528.475L624.588 446.38C626.405 443.302 626.454 439.492 624.717 436.38L578.218 353.062C576.481 349.95 573.221 348.008 569.662 347.965L474.742 346.807Z" fill="#2FA3EE"/>
<path d="M307.09 248.495C303.511 248.451 300.175 250.335 298.348 253.43L249.891 335.525C248.074 338.603 248.024 342.414 249.761 345.526L296.261 428.843C297.997 431.955 301.257 433.897 304.817 433.941L399.737 435.098C403.316 435.142 406.652 433.259 408.479 430.163L456.936 348.069C458.753 344.99 458.803 341.18 457.066 338.068L410.566 254.75C408.83 251.638 405.57 249.696 402.01 249.653L307.09 248.495Z" fill="#2FA3EE"/>
<path d="M138.053 149.793C134.474 149.75 131.138 151.633 129.311 154.728L80.8537 236.823C79.0366 239.902 78.9871 243.712 80.7238 246.824L127.223 330.142C128.96 333.253 132.22 335.196 135.779 335.239L230.7 336.397C234.279 336.44 237.615 334.557 239.442 331.462L287.899 249.367C289.716 246.288 289.766 242.478 288.029 239.366L241.529 156.048C239.793 152.937 236.533 150.995 232.973 150.951L138.053 149.793Z" fill="#2FA3EE"/>
<path d="M138.207 343.83C134.628 343.786 131.292 345.669 129.464 348.765L81.0075 430.86C79.1904 433.938 79.1409 437.749 80.8776 440.86L127.377 524.178C129.114 527.29 132.374 529.232 135.933 529.276L230.853 530.433C234.433 530.477 237.769 528.594 239.596 525.498L288.053 443.404C289.87 440.325 289.919 436.515 288.183 433.403L241.683 350.085C239.946 346.973 236.686 345.031 233.127 344.988L138.207 343.83Z" fill="#2FA3EE"/>
<path d="M-28.9713 245.48C-32.5507 245.436 -35.8865 247.319 -37.7137 250.415L-86.1708 332.51C-87.9878 335.588 -88.0373 339.399 -86.3006 342.51L-39.801 425.828C-38.0643 428.94 -34.8043 430.882 -31.2449 430.926L63.6752 432.083C67.2546 432.127 70.5903 430.244 72.4176 427.148L120.875 345.054C122.692 341.975 122.741 338.165 121.005 335.053L74.5049 251.735C72.7682 248.623 69.5082 246.681 65.9488 246.638L-28.9713 245.48Z" fill="#2FA3EE"/>
</svg>
