<svg width="1440" height="567" viewBox="0 0 1440 567" fill="none" xmlns="http://www.w3.org/2000/svg">
<path d="M-216.783 191.106C-221.249 183.371 -221.249 173.841 -216.783 166.106L-141.914 36.4287C-137.448 28.6937 -129.195 23.9287 -120.263 23.9287H29.4756C38.4073 23.9287 46.6605 28.6937 51.1263 36.4287L125.996 166.106C130.461 173.841 130.461 183.371 125.996 191.106L51.1263 320.784C46.6604 328.519 38.4073 333.284 29.4756 333.284H-120.263C-129.195 333.284 -137.448 328.519 -141.914 320.784L-216.783 191.106Z" fill="#89C958" fill-opacity="0.78"/>
<path d="M61.4102 671.719C56.9444 663.984 56.9444 654.454 61.4102 646.719L136.28 517.042C140.745 509.307 148.999 504.542 157.93 504.542H307.669C316.601 504.542 324.854 509.307 329.32 517.042L404.189 646.719C408.655 654.454 408.655 663.984 404.189 671.719L329.32 801.397C324.854 809.132 316.601 813.897 307.669 813.897H157.93C148.999 813.897 140.745 809.132 136.28 801.397L61.4102 671.719Z" fill="#89C958" fill-opacity="0.78"/>
<path d="M-216.783 511.515C-221.249 503.78 -221.249 494.25 -216.783 486.515L-141.914 356.838C-137.448 349.103 -129.195 344.338 -120.263 344.338H29.4756C38.4073 344.338 46.6605 349.103 51.1263 356.838L125.996 486.515C130.461 494.25 130.461 503.78 125.996 511.515L51.1263 641.193C46.6604 648.928 38.4073 653.693 29.4756 653.693H-120.263C-129.195 653.693 -137.448 648.928 -141.914 641.193L-216.783 511.515Z" fill="#89C958" fill-opacity="0.78"/>
<path d="M617.796 671.719C613.33 663.984 613.33 654.454 617.796 646.719L692.665 517.042C697.131 509.307 705.384 504.542 714.316 504.542H864.055C872.986 504.542 881.24 509.307 885.705 517.042L960.575 646.719C965.041 654.454 965.041 663.984 960.575 671.719L885.705 801.397C881.24 809.132 872.986 813.897 864.055 813.897H714.316C705.384 813.897 697.131 809.132 692.665 801.397L617.796 671.719Z" fill="#89C958" fill-opacity="0.78"/>
<path d="M895.988 511.515C891.523 503.78 891.523 494.25 895.988 486.515L970.858 356.838C975.324 349.103 983.577 344.338 992.508 344.338H1142.25C1151.18 344.338 1159.43 349.103 1163.9 356.838L1238.77 486.515C1243.23 494.25 1243.23 503.78 1238.77 511.515L1163.9 641.193C1159.43 648.928 1151.18 653.693 1142.25 653.693H992.508C983.577 653.693 975.324 648.928 970.858 641.193L895.988 511.515Z" fill="#89C958" fill-opacity="0.78"/>
<path d="M1174.18 671.719C1169.71 663.984 1169.71 654.454 1174.18 646.719L1249.05 517.042C1253.52 509.307 1261.77 504.542 1270.7 504.542H1420.44C1429.37 504.542 1437.62 509.307 1442.09 517.042L1516.96 646.719C1521.43 654.454 1521.43 663.984 1516.96 671.719L1442.09 801.397C1437.62 809.132 1429.37 813.897 1420.44 813.897H1270.7C1261.77 813.897 1253.52 809.132 1249.05 801.397L1174.18 671.719Z" fill="#89C958" fill-opacity="0.78"/>
<path d="M61.4102 351.311C56.9444 343.576 56.9444 334.046 61.4102 326.311L136.28 196.633C140.745 188.898 148.999 184.133 157.93 184.133H307.669C316.601 184.133 324.854 188.898 329.32 196.633L404.189 326.311C408.655 334.046 408.655 343.576 404.189 351.311L329.32 480.988C324.854 488.723 316.601 493.488 307.669 493.488H157.93C148.999 493.488 140.745 488.723 136.28 480.988L61.4102 351.311Z" fill="#89C958" fill-opacity="0.78"/>
<path d="M339.603 511.515C335.137 503.78 335.137 494.25 339.603 486.515L414.472 356.838C418.938 349.103 427.191 344.338 436.123 344.338H585.861C594.793 344.338 603.046 349.103 607.512 356.838L682.381 486.515C686.847 494.25 686.847 503.78 682.381 511.515L607.512 641.193C603.046 648.928 594.793 653.693 585.861 653.693H436.123C427.191 653.693 418.938 648.928 414.472 641.193L339.603 511.515Z" fill="#89C958" fill-opacity="0.78"/>
</svg>
