<svg width="697" height="530" viewBox="0 0 697 530" fill="none" xmlns="http://www.w3.org/2000/svg">
<path d="M386.592 548.959C390.165 548.915 393.489 550.781 395.312 553.853L443.741 635.434C445.565 638.506 445.611 642.318 443.863 645.433L397.426 728.164C395.678 731.28 392.4 733.226 388.827 733.269L293.962 734.419C290.39 734.463 287.066 732.597 285.242 729.525L236.813 647.944C234.989 644.872 234.943 641.06 236.692 637.945L283.128 555.214C284.877 552.098 288.154 550.153 291.727 550.109L386.592 548.959Z" fill="#2FA3EE"/>
<path d="M722.796 161.187C726.368 161.144 729.692 163.01 731.516 166.082L779.945 247.663C781.769 250.735 781.815 254.546 780.066 257.662L733.63 340.393C731.881 343.508 728.603 345.454 725.031 345.498L630.165 346.648C626.593 346.691 623.269 344.826 621.445 341.753L573.016 260.173C571.192 257.101 571.146 253.289 572.895 250.174L619.331 167.443C621.08 164.327 624.358 162.381 627.93 162.338L722.796 161.187Z" fill="#2FA3EE"/>
<path d="M216.9 453.712C220.473 453.668 223.797 455.534 225.621 458.606L274.05 540.187C275.873 543.259 275.92 547.071 274.171 550.186L227.735 632.917C225.986 636.033 222.708 637.979 219.136 638.022L124.27 639.172C120.698 639.216 117.374 637.35 115.55 634.278L67.1209 552.697C65.2972 549.625 65.251 545.813 66.9996 542.698L113.436 459.967C115.185 456.851 118.463 454.906 122.035 454.862L216.9 453.712Z" fill="#2FA3EE"/>
<path d="M384.483 356.002C388.055 355.959 391.379 357.825 393.203 360.897L441.632 442.477C443.456 445.55 443.502 449.361 441.753 452.477L395.317 535.208C393.568 538.323 390.29 540.269 386.718 540.312L291.853 541.463C288.28 541.506 284.956 539.64 283.132 536.568L234.703 454.988C232.88 451.916 232.833 448.104 234.582 444.988L281.018 362.257C282.767 359.142 286.045 357.196 289.617 357.153L384.483 356.002Z" fill="#2FA3EE"/>
<path d="M553.445 257.905C557.018 257.862 560.342 259.727 562.166 262.8L610.595 344.38C612.418 347.452 612.465 351.264 610.716 354.379L564.28 437.11C562.531 440.226 559.253 442.172 555.681 442.215L460.815 443.366C457.243 443.409 453.919 441.543 452.095 438.471L403.666 356.89C401.842 353.818 401.796 350.007 403.545 346.891L449.981 264.16C451.73 261.045 455.008 259.099 458.58 259.055L553.445 257.905Z" fill="#2FA3EE"/>
<path d="M553.291 450.753C556.864 450.71 560.188 452.576 562.011 455.648L610.44 537.228C612.264 540.3 612.31 544.112 610.562 547.228L564.125 629.959C562.377 633.074 559.099 635.02 555.526 635.063L460.661 636.214C457.089 636.257 453.765 634.391 451.941 631.319L403.512 549.739C401.688 546.666 401.642 542.855 403.39 539.739L449.827 457.008C451.576 453.893 454.853 451.947 458.426 451.904L553.291 450.753Z" fill="#2FA3EE"/>
<path d="M720.396 353.006C723.969 352.962 727.293 354.828 729.117 357.9L777.546 439.481C779.369 442.553 779.416 446.365 777.667 449.48L731.231 532.211C729.482 535.327 726.204 537.272 722.632 537.316L627.766 538.466C624.194 538.51 620.87 536.644 619.046 533.572L570.617 451.991C568.793 448.919 568.747 445.107 570.496 441.992L616.932 359.261C618.681 356.145 621.959 354.199 625.531 354.156L720.396 353.006Z" fill="#2FA3EE"/>
</svg>
