<svg width="57" height="54" viewBox="0 0 57 54" fill="none" xmlns="http://www.w3.org/2000/svg">
<g filter="url(#filter0_d_1260_539)">
<path d="M5.44338 27C4.55021 25.453 4.55021 23.547 5.44338 22L14.8066 5.78238C15.6998 4.23537 17.3504 3.28238 19.1368 3.28238H37.8632C39.6496 3.28238 41.3002 4.23537 42.1934 5.78238L51.5566 22C52.4498 23.547 52.4498 25.453 51.5566 27L42.1934 43.2176C41.3002 44.7646 39.6496 45.7176 37.8632 45.7176H19.1368C17.3504 45.7176 15.6998 44.7646 14.8066 43.2176L5.44338 27Z" fill="#89C958"/>
<g clip-path="url(#clip0_1260_539)">
<path d="M37.5059 12.8813H19.6309C18.2598 12.8813 17.1934 13.9985 17.1934 15.3188V33.1938C17.1934 34.5649 18.2598 35.6313 19.6309 35.6313H26.5879V27.9126H23.3887V24.2563H26.5879V21.5142C26.5879 18.3657 28.4668 16.5884 31.3105 16.5884C32.7324 16.5884 34.1543 16.8423 34.1543 16.8423V19.9399H32.5801C31.0059 19.9399 30.498 20.9048 30.498 21.9204V24.2563H34.002L33.4434 27.9126H30.498V35.6313H37.5059C38.8262 35.6313 39.9434 34.5649 39.9434 33.1938V15.3188C39.9434 13.9985 38.8262 12.8813 37.5059 12.8813Z" fill="white"/>
</g>
</g>
<defs>
<filter id="filter0_d_1260_539" x="0.773499" y="3.28223" width="55.453" height="50.4355" filterUnits="userSpaceOnUse" color-interpolation-filters="sRGB">
<feFlood flood-opacity="0" result="BackgroundImageFix"/>
<feColorMatrix in="SourceAlpha" type="matrix" values="0 0 0 0 0 0 0 0 0 0 0 0 0 0 0 0 0 0 127 0" result="hardAlpha"/>
<feOffset dy="4"/>
<feGaussianBlur stdDeviation="2"/>
<feComposite in2="hardAlpha" operator="out"/>
<feColorMatrix type="matrix" values="0 0 0 0 0.395833 0 0 0 0 0.395833 0 0 0 0 0.395833 0 0 0 0.25 0"/>
<feBlend mode="normal" in2="BackgroundImageFix" result="effect1_dropShadow_1260_539"/>
<feBlend mode="normal" in="SourceGraphic" in2="effect1_dropShadow_1260_539" result="shape"/>
</filter>
<clipPath id="clip0_1260_539">
<rect width="25.48" height="25.48" fill="white" transform="translate(15.76 11.7598)"/>
</clipPath>
</defs>
</svg>
