<svg width="14" height="14" viewBox="0 0 14 14" fill="none" xmlns="http://www.w3.org/2000/svg">
<path d="M3.5 5.24984V1.1665H10.5V5.24984" stroke="#89C958" stroke-width="1.5" stroke-linecap="round" stroke-linejoin="round"/>
<path d="M3.49996 10.5H2.33329C2.02387 10.5 1.72713 10.3771 1.50833 10.1583C1.28954 9.9395 1.16663 9.64275 1.16663 9.33333V6.41667C1.16663 6.10725 1.28954 5.8105 1.50833 5.59171C1.72713 5.37292 2.02387 5.25 2.33329 5.25H11.6666C11.976 5.25 12.2728 5.37292 12.4916 5.59171C12.7104 5.8105 12.8333 6.10725 12.8333 6.41667V9.33333C12.8333 9.64275 12.7104 9.9395 12.4916 10.1583C12.2728 10.3771 11.976 10.5 11.6666 10.5H10.5" stroke="#89C958" stroke-width="1.5" stroke-linecap="round" stroke-linejoin="round"/>
<path d="M10.5 8.1665H3.5V12.8332H10.5V8.1665Z" stroke="#89C958" stroke-width="1.5" stroke-linecap="round" stroke-linejoin="round"/>
</svg>
