<svg width="1440" height="567" viewBox="0 0 1440 567" fill="none" xmlns="http://www.w3.org/2000/svg">
<g clip-path="url(#clip0_1599_876)">
<path d="M1656.78 191.106C1661.25 183.371 1661.25 173.841 1656.78 166.106L1581.91 36.4287C1577.45 28.6937 1569.2 23.9287 1560.26 23.9287H1410.52C1401.59 23.9287 1393.34 28.6937 1388.87 36.4287L1314 166.106C1309.54 173.841 1309.54 183.371 1314 191.106L1388.87 320.784C1393.34 328.519 1401.59 333.284 1410.52 333.284H1560.26C1569.2 333.284 1577.45 328.519 1581.91 320.784L1656.78 191.106Z" fill="#89C958" fill-opacity="0.78"/>
<path d="M1378.59 671.719C1383.05 663.984 1383.05 654.454 1378.59 646.719L1303.72 517.042C1299.25 509.307 1291 504.542 1282.07 504.542H1132.33C1123.4 504.542 1115.14 509.307 1110.68 517.042L1035.81 646.719C1031.34 654.454 1031.34 663.984 1035.81 671.719L1110.68 801.397C1115.14 809.132 1123.4 813.897 1132.33 813.897H1282.07C1291 813.897 1299.25 809.132 1303.72 801.397L1378.59 671.719Z" fill="#89C958" fill-opacity="0.78"/>
<path d="M1656.78 511.515C1661.25 503.78 1661.25 494.25 1656.78 486.515L1581.91 356.838C1577.45 349.103 1569.2 344.338 1560.26 344.338H1410.52C1401.59 344.338 1393.34 349.103 1388.87 356.838L1314 486.515C1309.54 494.25 1309.54 503.78 1314 511.515L1388.87 641.193C1393.34 648.928 1401.59 653.693 1410.52 653.693H1560.26C1569.2 653.693 1577.45 648.928 1581.91 641.193L1656.78 511.515Z" fill="#89C958" fill-opacity="0.78"/>
<path d="M822.205 671.719C826.671 663.984 826.671 654.454 822.205 646.719L747.336 517.042C742.87 509.307 734.617 504.542 725.685 504.542H575.946C567.015 504.542 558.761 509.307 554.296 517.042L479.426 646.719C474.96 654.454 474.96 663.984 479.426 671.719L554.296 801.397C558.761 809.132 567.015 813.897 575.946 813.897H725.685C734.617 813.897 742.87 809.132 747.336 801.397L822.205 671.719Z" fill="#89C958" fill-opacity="0.78"/>
<path d="M544.011 511.515C548.476 503.78 548.476 494.25 544.011 486.515L469.141 356.838C464.675 349.103 456.422 344.338 447.491 344.338H297.749C288.819 344.338 280.569 349.103 276.099 356.838L201.229 486.515C196.769 494.25 196.769 503.78 201.229 511.515L276.099 641.193C280.569 648.928 288.819 653.693 297.749 653.693H447.491C456.422 653.693 464.675 648.928 469.141 641.193L544.011 511.515Z" fill="#89C958" fill-opacity="0.78"/>
<path d="M265.819 671.719C270.289 663.984 270.289 654.454 265.819 646.719L190.949 517.042C186.479 509.307 178.229 504.542 169.299 504.542H19.5595C10.6295 504.542 2.37945 509.307 -2.09055 517.042L-76.9605 646.719C-81.4305 654.454 -81.4305 663.984 -76.9605 671.719L-2.09055 801.397C2.37945 809.132 10.6295 813.897 19.5595 813.897H169.299C178.229 813.897 186.479 809.132 190.949 801.397L265.819 671.719Z" fill="#89C958" fill-opacity="0.78"/>
<path d="M1378.59 351.311C1383.05 343.576 1383.05 334.046 1378.59 326.311L1303.72 196.633C1299.25 188.898 1291 184.133 1282.07 184.133H1132.33C1123.4 184.133 1115.14 188.898 1110.68 196.633L1035.81 326.311C1031.34 334.046 1031.34 343.576 1035.81 351.311L1110.68 480.988C1115.14 488.723 1123.4 493.488 1132.33 493.488H1282.07C1291 493.488 1299.25 488.723 1303.72 480.988L1378.59 351.311Z" fill="#89C958" fill-opacity="0.78"/>
<path d="M1098.99 359.945L1100.16 353.645C1103.07 353.645 1105.61 353.57 1107.77 353.42C1109.93 353.24 1111.71 352.985 1113.12 352.655C1114.56 352.295 1115.63 351.83 1116.32 351.26C1117.04 350.69 1117.4 350 1117.4 349.19C1117.4 348.11 1117.22 346.82 1116.86 345.32C1116.5 343.79 1116.03 342.245 1115.46 340.685L1121.36 338.975C1121.75 339.995 1122.12 341.12 1122.48 342.35C1122.84 343.55 1123.13 344.765 1123.34 345.995C1123.58 347.195 1123.7 348.32 1123.7 349.37C1123.7 351.23 1123.29 352.835 1122.48 354.185C1121.67 355.505 1120.32 356.6 1118.43 357.47C1116.57 358.31 1114.05 358.925 1110.87 359.315C1107.69 359.735 1103.73 359.945 1098.99 359.945ZM1098.95 359.945C1095.71 359.945 1092.96 359.69 1090.71 359.18C1088.49 358.7 1086.68 358.01 1085.27 357.11C1083.89 356.18 1082.88 355.1 1082.25 353.87C1081.62 352.64 1081.31 351.29 1081.31 349.82C1081.31 348.86 1081.38 347.9 1081.53 346.94C1081.71 345.95 1081.92 344.99 1082.16 344.06C1082.43 343.13 1082.67 342.29 1082.88 341.54L1088.51 342.845C1088.39 343.385 1088.25 343.97 1088.1 344.6C1087.95 345.23 1087.83 345.845 1087.74 346.445C1087.65 347.015 1087.61 347.54 1087.61 348.02C1087.61 349.13 1088 350.12 1088.78 350.99C1089.59 351.83 1090.91 352.49 1092.74 352.97C1094.57 353.42 1097.03 353.645 1100.12 353.645L1101.02 358.505L1098.95 359.945ZM1102.41 370.475C1101.54 370.475 1100.79 370.175 1100.16 369.575C1099.56 368.975 1099.26 368.24 1099.26 367.37C1099.26 366.5 1099.56 365.735 1100.16 365.075C1100.79 364.445 1101.54 364.13 1102.41 364.13C1103.28 364.13 1104.02 364.445 1104.62 365.075C1105.25 365.735 1105.56 366.5 1105.56 367.37C1105.56 368.24 1105.25 368.975 1104.62 369.575C1104.02 370.175 1103.28 370.475 1102.41 370.475ZM1128.53 369.35L1127.22 363.05C1129.35 362.78 1131.21 362.45 1132.8 362.06C1134.39 361.7 1135.73 361.19 1136.81 360.53C1137.89 359.87 1138.7 358.97 1139.24 357.83C1139.78 356.66 1140.05 355.16 1140.05 353.33C1140.05 351.56 1139.78 350.15 1139.24 349.1C1138.7 348.05 1137.98 347.525 1137.08 347.525C1136.45 347.525 1135.92 347.75 1135.5 348.2C1135.08 348.62 1134.77 349.13 1134.56 349.73C1134.38 350.3 1134.29 350.81 1134.29 351.26C1134.29 351.53 1134.36 351.815 1134.51 352.115C1134.66 352.415 1134.99 352.67 1135.5 352.88C1136.01 353.09 1136.81 353.21 1137.89 353.24C1139 353.27 1140.5 353.165 1142.39 352.925H1149.95C1151.09 352.925 1151.9 353.225 1152.38 353.825C1152.89 354.395 1153.14 355.115 1153.14 355.985C1153.14 356.915 1152.83 357.695 1152.2 358.325C1151.57 358.925 1150.67 359.225 1149.5 359.225H1137.12C1135.23 359.225 1133.61 359 1132.26 358.55C1130.91 358.1 1129.88 357.38 1129.16 356.39C1128.44 355.37 1128.08 354.02 1128.08 352.34C1128.08 350.99 1128.3 349.64 1128.75 348.29C1129.23 346.94 1129.89 345.71 1130.73 344.6C1131.57 343.46 1132.55 342.56 1133.66 341.9C1134.8 341.21 1136.03 340.865 1137.35 340.865C1139.15 340.865 1140.72 341.42 1142.07 342.53C1143.42 343.64 1144.47 345.11 1145.22 346.94C1146 348.77 1146.39 350.765 1146.39 352.925C1146.39 356.315 1145.67 359.195 1144.23 361.565C1142.79 363.935 1140.74 365.765 1138.07 367.055C1135.4 368.375 1132.22 369.14 1128.53 369.35ZM1149.56 359.225L1150.01 352.925C1151.09 352.925 1152.02 352.82 1152.8 352.61C1153.58 352.4 1154.24 351.98 1154.78 351.35C1155.32 350.69 1155.77 349.73 1156.13 348.47C1156.52 347.21 1156.87 345.53 1157.17 343.43L1163.06 344.42C1163 344.87 1162.91 345.395 1162.79 345.995C1162.7 346.595 1162.61 347.21 1162.52 347.84C1162.46 348.44 1162.43 349.01 1162.43 349.55C1162.43 350.09 1162.54 350.57 1162.75 350.99C1162.96 351.41 1163.29 351.77 1163.74 352.07C1164.22 352.34 1164.83 352.55 1165.58 352.7C1166.36 352.85 1167.31 352.925 1168.42 352.925C1169.56 352.925 1170.37 353.225 1170.85 353.825C1171.33 354.395 1171.57 355.115 1171.57 355.985C1171.57 356.915 1171.25 357.695 1170.62 358.325C1170.02 358.925 1169.14 359.225 1167.97 359.225C1166.62 359.225 1165.39 359.12 1164.28 358.91C1163.2 358.7 1162.25 358.355 1161.44 357.875C1160.66 357.365 1160.02 356.705 1159.51 355.895C1159.03 355.055 1158.73 354.035 1158.61 352.835H1160.77C1160.23 354.275 1159.54 355.43 1158.7 356.3C1157.89 357.14 1156.97 357.77 1155.95 358.19C1154.93 358.61 1153.87 358.88 1152.76 359C1151.68 359.15 1150.61 359.225 1149.56 359.225ZM1162.12 369.665C1161.25 369.665 1160.5 369.35 1159.87 368.72C1159.27 368.12 1158.97 367.4 1158.97 366.56C1158.97 365.69 1159.27 364.94 1159.87 364.31C1160.5 363.68 1161.25 363.365 1162.12 363.365C1162.96 363.365 1163.68 363.68 1164.28 364.31C1164.88 364.94 1165.18 365.69 1165.18 366.56C1165.18 367.4 1164.88 368.12 1164.28 368.72C1163.68 369.35 1162.96 369.665 1162.12 369.665ZM1154.33 369.665C1153.46 369.665 1152.71 369.35 1152.08 368.72C1151.48 368.12 1151.18 367.4 1151.18 366.56C1151.18 365.69 1151.48 364.94 1152.08 364.31C1152.71 363.68 1153.46 363.365 1154.33 363.365C1155.17 363.365 1155.89 363.68 1156.49 364.31C1157.09 364.94 1157.39 365.69 1157.39 366.56C1157.39 367.4 1157.09 368.12 1156.49 368.72C1155.89 369.35 1155.17 369.665 1154.33 369.665ZM1167.98 359.225L1168.43 352.925C1169.84 352.925 1170.92 352.91 1171.67 352.88C1172.45 352.85 1173.03 352.82 1173.42 352.79C1173.81 352.73 1174.14 352.685 1174.41 352.655C1174.11 352.355 1173.72 351.92 1173.24 351.35C1172.76 350.78 1172.33 350.045 1171.94 349.145C1171.58 348.245 1171.4 347.165 1171.4 345.905C1171.4 344.075 1171.86 342.47 1172.79 341.09C1173.75 339.71 1175.04 338.63 1176.66 337.85C1178.28 337.07 1180.1 336.68 1182.11 336.68C1183.07 336.68 1183.95 336.74 1184.76 336.86C1185.6 336.98 1186.44 337.16 1187.28 337.4L1186.29 343.385C1185.69 343.235 1185.06 343.115 1184.4 343.025C1183.74 342.935 1183.16 342.89 1182.65 342.89C1181.66 342.89 1180.79 343.055 1180.04 343.385C1179.32 343.685 1178.75 344.12 1178.33 344.69C1177.94 345.23 1177.74 345.89 1177.74 346.67C1177.74 347.18 1177.83 347.66 1178.01 348.11C1178.22 348.56 1178.48 348.965 1178.78 349.325C1179.08 349.685 1179.41 350 1179.77 350.27C1180.13 350.54 1180.47 350.765 1180.8 350.945C1181.16 351.095 1181.46 351.2 1181.7 351.26C1182.45 351.05 1183.1 350.87 1183.64 350.72C1184.21 350.54 1184.75 350.375 1185.26 350.225C1185.8 350.045 1186.38 349.82 1187.01 349.55C1187.64 349.28 1188.42 348.95 1189.35 348.56L1191.38 354.5C1188.86 355.73 1186.4 356.69 1184 357.38C1181.6 358.07 1179.11 358.55 1176.53 358.82C1173.95 359.09 1171.1 359.225 1167.98 359.225ZM1205.4 357.74C1205.4 357.05 1205.46 356.24 1205.58 355.31C1205.7 354.38 1205.93 353.33 1206.26 352.16C1206.59 350.96 1207.08 349.625 1207.74 348.155L1213.28 350.09C1212.95 351.02 1212.66 351.875 1212.42 352.655C1212.18 353.405 1212 354.11 1211.88 354.77C1211.76 355.4 1211.7 356.03 1211.7 356.66C1211.7 357.65 1211.91 358.535 1212.33 359.315C1212.78 360.125 1213.43 360.8 1214.27 361.34C1215.11 361.91 1216.13 362.345 1217.33 362.645C1218.56 362.945 1219.97 363.095 1221.56 363.095C1223.21 363.095 1224.68 363.02 1225.97 362.87C1227.29 362.72 1228.4 362.495 1229.3 362.195C1230.23 361.895 1230.93 361.505 1231.41 361.025C1231.89 360.575 1232.13 360.05 1232.13 359.45C1232.13 359.18 1232.03 358.925 1231.82 358.685C1231.64 358.445 1231.32 358.19 1230.87 357.92C1230.45 357.65 1229.88 357.365 1229.16 357.065C1228.47 356.765 1227.63 356.435 1226.64 356.075L1228.13 349.73C1229.42 350.27 1230.63 350.75 1231.77 351.17C1232.94 351.56 1234.05 351.89 1235.1 352.16C1236.15 352.4 1237.14 352.595 1238.07 352.745C1239 352.865 1239.87 352.925 1240.68 352.925C1241.82 352.925 1242.63 353.225 1243.11 353.825C1243.59 354.395 1243.83 355.115 1243.83 355.985C1243.83 356.915 1243.52 357.695 1242.89 358.325C1242.26 358.925 1241.37 359.225 1240.23 359.225C1239.99 359.225 1239.75 359.225 1239.51 359.225C1239.3 359.225 1239.08 359.225 1238.84 359.225C1238.63 359.225 1238.4 359.225 1238.16 359.225C1238.22 359.525 1238.25 359.78 1238.25 359.99C1238.25 360.23 1238.25 360.455 1238.25 360.665C1238.25 361.655 1237.91 362.66 1237.22 363.68C1236.56 364.7 1235.52 365.645 1234.11 366.515C1232.7 367.385 1230.9 368.075 1228.71 368.585C1226.55 369.125 1223.97 369.395 1220.97 369.395C1217.73 369.395 1214.94 368.975 1212.6 368.135C1210.29 367.325 1208.51 366.05 1207.25 364.31C1206.02 362.6 1205.4 360.41 1205.4 357.74ZM1240.22 359.225L1240.67 352.925C1241.99 352.925 1243.03 352.835 1243.78 352.655C1244.56 352.475 1245.11 352.145 1245.44 351.665C1245.77 351.155 1245.94 350.435 1245.94 349.505C1245.94 348.665 1245.82 347.66 1245.58 346.49C1245.37 345.32 1245.08 344.105 1244.72 342.845C1244.36 341.585 1244 340.43 1243.64 339.38L1249.85 337.67C1250.21 338.69 1250.57 339.875 1250.93 341.225C1251.29 342.575 1251.59 343.97 1251.83 345.41C1252.1 346.82 1252.24 348.185 1252.24 349.505C1252.24 351.155 1252.03 352.55 1251.61 353.69C1251.19 354.8 1250.6 355.73 1249.85 356.48C1249.13 357.2 1248.26 357.77 1247.24 358.19C1246.25 358.58 1245.16 358.85 1243.96 359C1242.76 359.15 1241.51 359.225 1240.22 359.225ZM1245.76 369.575C1244.89 369.575 1244.14 369.275 1243.51 368.675C1242.91 368.075 1242.61 367.34 1242.61 366.47C1242.61 365.6 1242.91 364.835 1243.51 364.175C1244.14 363.545 1244.89 363.23 1245.76 363.23C1246.63 363.23 1247.36 363.545 1247.96 364.175C1248.59 364.835 1248.91 365.6 1248.91 366.47C1248.91 367.34 1248.59 368.075 1247.96 368.675C1247.36 369.275 1246.63 369.575 1245.76 369.575ZM1268.77 359.225C1265.98 359.225 1263.82 358.94 1262.29 358.37C1260.79 357.8 1259.74 356.915 1259.14 355.715C1258.54 354.485 1258.19 352.94 1258.1 351.08L1257.16 326.06H1263.46L1264.4 348.065C1264.46 349.445 1264.61 350.48 1264.85 351.17C1265.09 351.86 1265.54 352.325 1266.2 352.565C1266.89 352.805 1267.9 352.925 1269.22 352.925C1270.36 352.925 1271.17 353.225 1271.65 353.825C1272.16 354.395 1272.41 355.115 1272.41 355.985C1272.41 356.915 1272.1 357.695 1271.47 358.325C1270.84 358.925 1269.94 359.225 1268.77 359.225ZM1268.83 359.225L1269.28 352.925C1271.08 352.925 1272.46 352.835 1273.42 352.655C1274.38 352.475 1275.04 352.145 1275.4 351.665C1275.79 351.155 1275.99 350.435 1275.99 349.505C1275.99 348.665 1275.87 347.66 1275.63 346.49C1275.42 345.32 1275.13 344.105 1274.77 342.845C1274.44 341.585 1274.08 340.43 1273.69 339.38L1279.9 337.67C1280.29 338.69 1280.67 339.875 1281.03 341.225C1281.39 342.575 1281.69 343.97 1281.93 345.41C1282.17 346.82 1282.29 348.185 1282.29 349.505C1282.29 351.545 1281.96 353.21 1281.3 354.5C1280.64 355.76 1279.71 356.735 1278.51 357.425C1277.34 358.115 1275.93 358.595 1274.28 358.865C1272.63 359.105 1270.81 359.225 1268.83 359.225ZM1279.95 369.665C1279.08 369.665 1278.33 369.35 1277.7 368.72C1277.1 368.12 1276.8 367.4 1276.8 366.56C1276.8 365.69 1277.1 364.94 1277.7 364.31C1278.33 363.68 1279.08 363.365 1279.95 363.365C1280.79 363.365 1281.51 363.68 1282.11 364.31C1282.71 364.94 1283.01 365.69 1283.01 366.56C1283.01 367.4 1282.71 368.12 1282.11 368.72C1281.51 369.35 1280.79 369.665 1279.95 369.665ZM1272.16 369.665C1271.29 369.665 1270.54 369.35 1269.91 368.72C1269.31 368.12 1269.01 367.4 1269.01 366.56C1269.01 365.69 1269.31 364.94 1269.91 364.31C1270.54 363.68 1271.29 363.365 1272.16 363.365C1273 363.365 1273.72 363.68 1274.32 364.31C1274.92 364.94 1275.22 365.69 1275.22 366.56C1275.22 367.4 1274.92 368.12 1274.32 368.72C1273.72 369.35 1273 369.665 1272.16 369.665ZM1285.72 369.35L1283.43 363.59C1286.01 362.69 1288.09 361.7 1289.68 360.62C1291.3 359.54 1292.49 358.385 1293.24 357.155C1294.02 355.925 1294.41 354.65 1294.41 353.33C1294.41 352.49 1294.29 351.62 1294.05 350.72C1293.81 349.79 1293.46 348.815 1293.01 347.795C1292.59 346.775 1292.08 345.71 1291.48 344.6L1297.38 341.765C1298.43 343.775 1299.24 345.695 1299.81 347.525C1300.41 349.355 1300.71 351.065 1300.71 352.655C1300.71 354.125 1300.51 355.535 1300.12 356.885C1299.76 358.235 1299.19 359.495 1298.41 360.665C1297.66 361.865 1296.69 362.99 1295.49 364.04C1294.29 365.09 1292.88 366.05 1291.26 366.92C1289.64 367.82 1287.79 368.63 1285.72 369.35ZM1295.67 337.175C1294.74 337.175 1293.94 336.86 1293.28 336.23C1292.65 335.6 1292.34 334.82 1292.34 333.89C1292.34 332.96 1292.65 332.165 1293.28 331.505C1293.94 330.845 1294.74 330.515 1295.67 330.515C1296.57 330.515 1297.33 330.845 1297.96 331.505C1298.62 332.165 1298.95 332.96 1298.95 333.89C1298.95 334.82 1298.62 335.6 1297.96 336.23C1297.33 336.86 1296.57 337.175 1295.67 337.175ZM1304.14 369.35L1301.84 363.59C1304.42 362.69 1306.51 361.7 1308.1 360.62C1309.72 359.54 1310.9 358.385 1311.65 357.155C1312.43 355.925 1312.82 354.65 1312.82 353.33C1312.82 352.49 1312.7 351.62 1312.46 350.72C1312.22 349.79 1311.88 348.815 1311.43 347.795C1311.01 346.775 1310.5 345.71 1309.9 344.6L1315.79 341.765C1316.84 343.775 1317.65 345.695 1318.22 347.525C1318.82 349.355 1319.12 351.065 1319.12 352.655C1319.12 354.125 1318.93 355.535 1318.54 356.885C1318.18 358.235 1317.61 359.495 1316.83 360.665C1316.08 361.865 1315.1 362.99 1313.9 364.04C1312.7 365.09 1311.29 366.05 1309.67 366.92C1308.05 367.82 1306.21 368.63 1304.14 369.35ZM1325.43 359L1324.48 326.06H1330.78L1331.73 359H1325.43Z" fill="white"/>
<path d="M1100.4 511.515C1104.86 503.78 1104.86 494.25 1100.4 486.515L1025.53 356.838C1021.06 349.103 1012.81 344.338 1003.88 344.338H854.139C845.207 344.338 836.954 349.103 832.488 356.838L757.619 486.515C753.153 494.25 753.153 503.78 757.619 511.515L832.488 641.193C836.954 648.928 845.207 653.693 854.139 653.693H1003.88C1012.81 653.693 1021.06 648.928 1025.53 641.193L1100.4 511.515Z" fill="#89C958" fill-opacity="0.78"/>
</g>
<defs>
<clipPath id="clip0_1599_876">
<rect width="1440" height="567" fill="white" transform="matrix(-1 0 0 1 1440 0)"/>
</clipPath>
</defs>
</svg>
