<svg width="1440" height="567" viewBox="0 0 1440 567" fill="none" xmlns="http://www.w3.org/2000/svg">
<g clip-path="url(#clip0_1599_766)">
<path d="M-216.783 191.106C-221.249 183.371 -221.249 173.841 -216.783 166.106L-141.914 36.4287C-137.448 28.6937 -129.195 23.9287 -120.263 23.9287H29.4753C38.407 23.9287 46.6602 28.6937 51.126 36.4287L125.996 166.106C130.461 173.841 130.461 183.371 125.996 191.106L51.126 320.784C46.6601 328.519 38.407 333.284 29.4753 333.284H-120.263C-129.195 333.284 -137.448 328.519 -141.914 320.784L-216.783 191.106Z" fill="#89C958" fill-opacity="0.78"/>
<path d="M61.4118 671.719C56.9461 663.984 56.9461 654.454 61.4118 646.719L136.282 517.042C140.747 509.307 149.001 504.542 157.932 504.542H307.671C316.603 504.542 324.856 509.307 329.322 517.042L404.191 646.719C408.657 654.454 408.657 663.984 404.191 671.719L329.322 801.397C324.856 809.132 316.603 813.897 307.671 813.897H157.932C149.001 813.897 140.747 809.132 136.282 801.397L61.4118 671.719Z" fill="#89C958" fill-opacity="0.78"/>
<path d="M-216.783 511.515C-221.249 503.78 -221.249 494.25 -216.783 486.515L-141.914 356.838C-137.448 349.103 -129.195 344.338 -120.263 344.338H29.4753C38.407 344.338 46.6602 349.103 51.126 356.838L125.996 486.515C130.461 494.25 130.461 503.78 125.996 511.515L51.126 641.193C46.6601 648.928 38.407 653.693 29.4753 653.693H-120.263C-129.195 653.693 -137.448 648.928 -141.914 641.193L-216.783 511.515Z" fill="#89C958" fill-opacity="0.78"/>
<path d="M617.795 671.719C613.329 663.984 613.329 654.454 617.795 646.719L692.664 517.042C697.13 509.307 705.383 504.542 714.315 504.542H864.054C872.985 504.542 881.239 509.307 885.704 517.042L960.574 646.719C965.04 654.454 965.04 663.984 960.574 671.719L885.704 801.397C881.239 809.132 872.985 813.897 864.054 813.897H714.315C705.383 813.897 697.13 809.132 692.664 801.397L617.795 671.719Z" fill="#89C958" fill-opacity="0.78"/>
<path d="M895.989 511.515C891.524 503.78 891.524 494.25 895.989 486.515L970.859 356.838C975.325 349.103 983.578 344.338 992.509 344.338H1142.25C1151.18 344.338 1159.43 349.103 1163.9 356.838L1238.77 486.515C1243.23 494.25 1243.23 503.78 1238.77 511.515L1163.9 641.193C1159.43 648.928 1151.18 653.693 1142.25 653.693H992.509C983.578 653.693 975.325 648.928 970.859 641.193L895.989 511.515Z" fill="#89C958" fill-opacity="0.78"/>
<path d="M1174.18 671.719C1169.71 663.984 1169.71 654.454 1174.18 646.719L1249.05 517.042C1253.52 509.307 1261.77 504.542 1270.7 504.542H1420.44C1429.37 504.542 1437.62 509.307 1442.09 517.042L1516.96 646.719C1521.43 654.454 1521.43 663.984 1516.96 671.719L1442.09 801.397C1437.62 809.132 1429.37 813.897 1420.44 813.897H1270.7C1261.77 813.897 1253.52 809.132 1249.05 801.397L1174.18 671.719Z" fill="#89C958" fill-opacity="0.78"/>
<path d="M61.4118 351.311C56.9461 343.576 56.9461 334.046 61.4118 326.311L136.282 196.633C140.747 188.898 149.001 184.133 157.932 184.133H307.671C316.603 184.133 324.856 188.898 329.322 196.633L404.191 326.311C408.657 334.046 408.657 343.576 404.191 351.311L329.322 480.988C324.856 488.723 316.603 493.488 307.671 493.488H157.932C149.001 493.488 140.747 488.723 136.282 480.988L61.4118 351.311Z" fill="#89C958" fill-opacity="0.78"/>
<path d="M127.012 324.562V353H121.152V324.562H127.012ZM138.34 336.711V341.281H125.41V336.711H138.34ZM139.707 324.562V329.152H125.41V324.562H139.707ZM148.965 324.562V353H143.105V324.562H148.965ZM160.293 336.711V341.281H147.363V336.711H160.293ZM161.66 324.562V329.152H147.363V324.562H161.66ZM179.863 345.559C179.863 345.051 179.785 344.595 179.629 344.191C179.486 343.775 179.212 343.397 178.809 343.059C178.405 342.707 177.839 342.362 177.109 342.023C176.38 341.685 175.436 341.333 174.277 340.969C172.988 340.552 171.764 340.083 170.605 339.562C169.46 339.042 168.444 338.436 167.559 337.746C166.686 337.043 165.996 336.229 165.488 335.305C164.993 334.38 164.746 333.306 164.746 332.082C164.746 330.897 165.007 329.823 165.527 328.859C166.048 327.883 166.777 327.049 167.715 326.359C168.652 325.656 169.759 325.116 171.035 324.738C172.324 324.361 173.737 324.172 175.273 324.172C177.37 324.172 179.199 324.549 180.762 325.305C182.324 326.06 183.535 327.095 184.395 328.41C185.267 329.725 185.703 331.229 185.703 332.922H179.883C179.883 332.089 179.707 331.359 179.355 330.734C179.017 330.096 178.496 329.595 177.793 329.23C177.103 328.866 176.23 328.684 175.176 328.684C174.16 328.684 173.314 328.84 172.637 329.152C171.96 329.452 171.452 329.862 171.113 330.383C170.775 330.891 170.605 331.464 170.605 332.102C170.605 332.583 170.723 333.02 170.957 333.41C171.204 333.801 171.569 334.165 172.051 334.504C172.533 334.842 173.125 335.161 173.828 335.461C174.531 335.76 175.345 336.053 176.27 336.34C177.819 336.809 179.18 337.336 180.352 337.922C181.536 338.508 182.526 339.165 183.32 339.895C184.115 340.624 184.714 341.451 185.117 342.375C185.521 343.299 185.723 344.348 185.723 345.52C185.723 346.757 185.482 347.863 185 348.84C184.518 349.816 183.822 350.643 182.91 351.32C181.999 351.997 180.911 352.512 179.648 352.863C178.385 353.215 176.973 353.391 175.41 353.391C174.004 353.391 172.617 353.208 171.25 352.844C169.883 352.466 168.639 351.9 167.52 351.145C166.413 350.389 165.527 349.426 164.863 348.254C164.199 347.082 163.867 345.695 163.867 344.094H169.746C169.746 344.979 169.883 345.728 170.156 346.34C170.43 346.952 170.814 347.447 171.309 347.824C171.816 348.202 172.415 348.475 173.105 348.645C173.809 348.814 174.577 348.898 175.41 348.898C176.426 348.898 177.259 348.755 177.91 348.469C178.574 348.182 179.062 347.785 179.375 347.277C179.701 346.77 179.863 346.197 179.863 345.559ZM210.723 348.234V338.82C210.723 338.143 210.612 337.564 210.391 337.082C210.169 336.587 209.824 336.203 209.355 335.93C208.9 335.656 208.307 335.52 207.578 335.52C206.953 335.52 206.413 335.63 205.957 335.852C205.501 336.06 205.15 336.366 204.902 336.77C204.655 337.16 204.531 337.622 204.531 338.156H198.906C198.906 337.258 199.115 336.405 199.531 335.598C199.948 334.79 200.553 334.081 201.348 333.469C202.142 332.844 203.086 332.355 204.18 332.004C205.286 331.652 206.523 331.477 207.891 331.477C209.531 331.477 210.99 331.75 212.266 332.297C213.542 332.844 214.544 333.664 215.273 334.758C216.016 335.852 216.387 337.219 216.387 338.859V347.902C216.387 349.061 216.458 350.012 216.602 350.754C216.745 351.483 216.953 352.121 217.227 352.668V353H211.543C211.27 352.427 211.061 351.711 210.918 350.852C210.788 349.979 210.723 349.107 210.723 348.234ZM211.465 340.129L211.504 343.312H208.359C207.617 343.312 206.973 343.397 206.426 343.566C205.879 343.736 205.43 343.977 205.078 344.289C204.727 344.589 204.466 344.94 204.297 345.344C204.141 345.747 204.062 346.19 204.062 346.672C204.062 347.154 204.173 347.59 204.395 347.98C204.616 348.358 204.935 348.658 205.352 348.879C205.768 349.087 206.257 349.191 206.816 349.191C207.663 349.191 208.398 349.022 209.023 348.684C209.648 348.345 210.13 347.928 210.469 347.434C210.82 346.939 211.003 346.47 211.016 346.027L212.5 348.41C212.292 348.944 212.005 349.497 211.641 350.07C211.289 350.643 210.84 351.184 210.293 351.691C209.746 352.186 209.089 352.596 208.32 352.922C207.552 353.234 206.641 353.391 205.586 353.391C204.245 353.391 203.027 353.124 201.934 352.59C200.853 352.043 199.993 351.294 199.355 350.344C198.73 349.38 198.418 348.286 198.418 347.062C198.418 345.956 198.626 344.973 199.043 344.113C199.46 343.254 200.072 342.531 200.879 341.945C201.699 341.346 202.721 340.897 203.945 340.598C205.169 340.285 206.589 340.129 208.203 340.129H211.465ZM226.23 336.379V353H220.605V331.867H225.879L226.23 336.379ZM225.41 341.691H223.887C223.887 340.129 224.089 338.723 224.492 337.473C224.896 336.21 225.462 335.135 226.191 334.25C226.921 333.352 227.786 332.668 228.789 332.199C229.805 331.717 230.938 331.477 232.188 331.477C233.177 331.477 234.082 331.62 234.902 331.906C235.723 332.193 236.426 332.648 237.012 333.273C237.611 333.898 238.066 334.725 238.379 335.754C238.704 336.783 238.867 338.039 238.867 339.523V353H233.203V339.504C233.203 338.566 233.073 337.837 232.812 337.316C232.552 336.796 232.168 336.431 231.66 336.223C231.165 336.001 230.553 335.891 229.824 335.891C229.069 335.891 228.411 336.04 227.852 336.34C227.305 336.639 226.849 337.056 226.484 337.59C226.133 338.111 225.866 338.723 225.684 339.426C225.501 340.129 225.41 340.884 225.41 341.691ZM255.625 348.391V323H261.289V353H256.191L255.625 348.391ZM242.266 342.688V342.277C242.266 340.663 242.448 339.198 242.812 337.883C243.177 336.555 243.711 335.415 244.414 334.465C245.117 333.514 245.983 332.779 247.012 332.258C248.04 331.737 249.212 331.477 250.527 331.477C251.764 331.477 252.845 331.737 253.77 332.258C254.707 332.779 255.501 333.521 256.152 334.484C256.816 335.435 257.35 336.561 257.754 337.863C258.158 339.152 258.451 340.565 258.633 342.102V343C258.451 344.471 258.158 345.839 257.754 347.102C257.35 348.365 256.816 349.471 256.152 350.422C255.501 351.359 254.707 352.089 253.77 352.609C252.832 353.13 251.738 353.391 250.488 353.391C249.173 353.391 248.001 353.124 246.973 352.59C245.957 352.056 245.098 351.307 244.395 350.344C243.704 349.38 243.177 348.247 242.812 346.945C242.448 345.643 242.266 344.224 242.266 342.688ZM247.891 342.277V342.688C247.891 343.56 247.956 344.374 248.086 345.129C248.229 345.884 248.457 346.555 248.77 347.141C249.095 347.714 249.512 348.163 250.02 348.488C250.54 348.801 251.172 348.957 251.914 348.957C252.878 348.957 253.672 348.742 254.297 348.312C254.922 347.87 255.397 347.264 255.723 346.496C256.061 345.728 256.257 344.842 256.309 343.84V341.281C256.27 340.461 256.152 339.725 255.957 339.074C255.775 338.41 255.501 337.844 255.137 337.375C254.785 336.906 254.342 336.542 253.809 336.281C253.288 336.021 252.669 335.891 251.953 335.891C251.224 335.891 250.599 336.06 250.078 336.398C249.557 336.724 249.134 337.173 248.809 337.746C248.496 338.319 248.262 338.996 248.105 339.777C247.962 340.546 247.891 341.379 247.891 342.277ZM281.855 324.562V353H275.996V324.562H281.855ZM293.184 336.711V341.281H280.254V336.711H293.184ZM294.551 324.562V329.152H280.254V324.562H294.551ZM311.055 324.562V353H305.215V324.562H311.055ZM319.805 324.562V329.152H296.602V324.562H319.805ZM334.219 342.863H326.973V338.293H334.219C335.339 338.293 336.25 338.111 336.953 337.746C337.656 337.368 338.171 336.848 338.496 336.184C338.822 335.52 338.984 334.771 338.984 333.938C338.984 333.091 338.822 332.303 338.496 331.574C338.171 330.845 337.656 330.259 336.953 329.816C336.25 329.374 335.339 329.152 334.219 329.152H329.004V353H323.145V324.562H334.219C336.445 324.562 338.353 324.966 339.941 325.773C341.543 326.568 342.767 327.668 343.613 329.074C344.46 330.48 344.883 332.089 344.883 333.898C344.883 335.734 344.46 337.323 343.613 338.664C342.767 340.005 341.543 341.04 339.941 341.77C338.353 342.499 336.445 342.863 334.219 342.863Z" fill="white"/>
<path d="M339.603 511.515C335.137 503.78 335.137 494.25 339.603 486.515L414.472 356.838C418.938 349.103 427.191 344.338 436.123 344.338H585.861C594.793 344.338 603.046 349.103 607.512 356.838L682.381 486.515C686.847 494.25 686.847 503.78 682.381 511.515L607.512 641.193C603.046 648.928 594.793 653.693 585.861 653.693H436.123C427.191 653.693 418.938 648.928 414.472 641.193L339.603 511.515Z" fill="#89C958" fill-opacity="0.78"/>
</g>
<defs>
<clipPath id="clip0_1599_766">
<rect width="1440" height="567" fill="white"/>
</clipPath>
</defs>
</svg>
