<svg width="366" height="343" viewBox="0 0 366 343" fill="none" xmlns="http://www.w3.org/2000/svg">
<path d="M392.68 -157.021C395.2 -159.553 398.879 -160.549 402.332 -159.633L469.463 -141.823C472.916 -140.907 475.619 -138.219 476.552 -134.77L494.694 -67.7283C495.627 -64.2797 494.65 -60.5952 492.13 -58.0627L443.141 -8.83036C440.621 -6.29786 436.941 -5.30212 433.488 -6.21824L366.357 -24.0276C362.904 -24.9437 360.202 -27.6325 359.269 -31.0811L341.127 -98.1228C340.193 -101.571 341.171 -105.256 343.691 -107.788L392.68 -157.021Z" fill="#2FA3EE"/>
<path d="M355.079 -13.0025C357.606 -15.5281 361.289 -16.5137 364.739 -15.5881L431.821 2.40525C435.272 3.33082 437.967 6.02701 438.89 9.47817L456.849 76.5693C457.772 80.0205 456.785 83.7023 454.258 86.2279L405.134 135.326C402.607 137.851 398.925 138.837 395.474 137.911L328.393 119.918C324.942 118.992 322.247 116.296 321.323 112.845L303.365 45.7538C302.441 42.3027 303.429 38.6208 305.956 36.0953L355.079 -13.0025Z" fill="#2FA3EE"/>
<path d="M212.887 25.499C215.414 22.9734 219.096 21.9877 222.547 22.9133L289.629 40.9067C293.08 41.8323 295.774 44.5285 296.698 47.9796L314.656 115.071C315.58 118.522 314.593 122.204 312.066 124.729L262.942 173.827C260.415 176.353 256.733 177.338 253.282 176.413L186.2 158.419C182.75 157.494 180.055 154.798 179.131 151.346L161.173 84.2553C160.249 80.8041 161.237 77.1223 163.764 74.5967L212.887 25.499Z" fill="#2FA3EE"/>
<path d="M108.342 -79.815C110.868 -82.3406 114.551 -83.3262 118.001 -82.4006L185.083 -64.4073C188.534 -63.4817 191.229 -60.7855 192.152 -57.3343L210.111 9.75681C211.034 13.208 210.047 16.8898 207.52 19.4154L158.396 68.5131C155.87 71.0387 152.187 72.0244 148.736 71.0988L81.6547 53.1054C78.204 52.1798 75.5093 49.4836 74.5855 46.0325L56.6273 -21.0587C55.7035 -24.5098 56.6911 -28.1917 59.218 -30.7172L108.342 -79.815Z" fill="#2FA3EE"/>
<path d="M317.434 130.813C319.961 128.287 323.643 127.302 327.094 128.227L394.176 146.221C397.626 147.146 400.321 149.842 401.245 153.294L419.203 220.385C420.127 223.836 419.139 227.518 416.612 230.043L367.489 279.141C364.962 281.667 361.28 282.652 357.829 281.727L290.747 263.733C287.296 262.808 284.602 260.112 283.678 256.66L265.72 189.569C264.796 186.118 265.783 182.436 268.31 179.911L317.434 130.813Z" fill="#2FA3EE"/>
<path d="M250.534 -118.316C253.061 -120.842 256.743 -121.828 260.194 -120.902L327.275 -102.909C330.726 -101.983 333.421 -99.287 334.345 -95.8358L352.303 -28.7447C353.227 -25.2935 352.239 -21.6117 349.712 -19.0861L300.589 30.0117C298.062 32.5372 294.379 33.5229 290.929 32.5973L223.847 14.6039C220.396 13.6783 217.702 10.9822 216.778 7.531L198.82 -59.5601C197.896 -63.0113 198.883 -66.6931 201.41 -69.2187L250.534 -118.316Z" fill="#2FA3EE"/>
</svg>
