<svg width="1440" height="567" viewBox="0 0 1440 567" fill="none" xmlns="http://www.w3.org/2000/svg">
<g clip-path="url(#clip0_1599_796)">
<path d="M1656.78 191.106C1661.25 183.371 1661.25 173.841 1656.78 166.106L1581.91 36.4287C1577.45 28.6937 1569.2 23.9287 1560.26 23.9287H1410.52C1401.59 23.9287 1393.34 28.6937 1388.87 36.4287L1314 166.106C1309.54 173.841 1309.54 183.371 1314 191.106L1388.87 320.784C1393.34 328.519 1401.59 333.284 1410.52 333.284H1560.26C1569.2 333.284 1577.45 328.519 1581.91 320.784L1656.78 191.106Z" fill="#89C958" fill-opacity="0.78"/>
<path d="M1378.59 671.719C1383.06 663.984 1383.06 654.454 1378.59 646.719L1303.72 517.042C1299.26 509.307 1291 504.542 1282.07 504.542H1132.33C1123.4 504.542 1115.15 509.307 1110.68 517.042L1035.81 646.719C1031.35 654.454 1031.35 663.984 1035.81 671.719L1110.68 801.397C1115.15 809.132 1123.4 813.897 1132.33 813.897H1282.07C1291 813.897 1299.26 809.132 1303.72 801.397L1378.59 671.719Z" fill="#89C958" fill-opacity="0.78"/>
<path d="M1656.78 511.515C1661.25 503.78 1661.25 494.25 1656.78 486.515L1581.91 356.838C1577.45 349.103 1569.2 344.338 1560.26 344.338H1410.52C1401.59 344.338 1393.34 349.103 1388.87 356.838L1314 486.515C1309.54 494.25 1309.54 503.78 1314 511.515L1388.87 641.193C1393.34 648.928 1401.59 653.693 1410.52 653.693H1560.26C1569.2 653.693 1577.45 648.928 1581.91 641.193L1656.78 511.515Z" fill="#89C958" fill-opacity="0.78"/>
<path d="M822.203 671.719C826.669 663.984 826.669 654.454 822.203 646.719L747.334 517.042C742.868 509.307 734.615 504.542 725.683 504.542H575.944C567.013 504.542 558.759 509.307 554.294 517.042L479.424 646.719C474.958 654.454 474.958 663.984 479.424 671.719L554.294 801.397C558.759 809.132 567.013 813.897 575.944 813.897H725.683C734.615 813.897 742.868 809.132 747.334 801.397L822.203 671.719Z" fill="#89C958" fill-opacity="0.78"/>
<path d="M544.013 511.515C548.478 503.78 548.478 494.25 544.013 486.515L469.143 356.838C464.677 349.103 456.424 344.338 447.493 344.338H297.751C288.821 344.338 280.571 349.103 276.101 356.838L201.231 486.515C196.771 494.25 196.771 503.78 201.231 511.515L276.101 641.193C280.571 648.928 288.821 653.693 297.751 653.693H447.493C456.424 653.693 464.677 648.928 469.143 641.193L544.013 511.515Z" fill="#89C958" fill-opacity="0.78"/>
<path d="M265.819 671.719C270.289 663.984 270.289 654.454 265.819 646.719L190.949 517.042C186.479 509.307 178.229 504.542 169.299 504.542H19.5595C10.6295 504.542 2.37945 509.307 -2.09055 517.042L-76.9605 646.719C-81.4305 654.454 -81.4305 663.984 -76.9605 671.719L-2.09055 801.397C2.37945 809.132 10.6295 813.897 19.5595 813.897H169.299C178.229 813.897 186.479 809.132 190.949 801.397L265.819 671.719Z" fill="#89C958" fill-opacity="0.78"/>
<path d="M1378.59 351.311C1383.06 343.576 1383.06 334.046 1378.59 326.311L1303.72 196.633C1299.26 188.898 1291 184.133 1282.07 184.133H1132.33C1123.4 184.133 1115.15 188.898 1110.68 196.633L1035.81 326.311C1031.35 334.046 1031.35 343.576 1035.81 351.311L1110.68 480.988C1115.15 488.723 1123.4 493.488 1132.33 493.488H1282.07C1291 493.488 1299.26 488.723 1303.72 480.988L1378.59 351.311Z" fill="#89C958" fill-opacity="0.78"/>
<path d="M1075.02 347.6C1076.22 347.6 1077.14 347.493 1077.78 347.28C1078.42 347.067 1078.86 346.787 1079.1 346.44C1079.34 346.093 1079.46 345.72 1079.46 345.32C1079.46 344.68 1079.27 343.933 1078.9 343.08C1078.55 342.227 1078.11 341.333 1077.58 340.4C1077.04 339.467 1076.48 338.573 1075.9 337.72C1075.34 336.867 1074.83 336.12 1074.38 335.48L1079.14 332.32C1080.28 333.867 1081.27 335.4 1082.1 336.92C1082.92 338.413 1083.59 339.8 1084.1 341.08C1084.63 342.36 1085 343.453 1085.22 344.36C1085.43 345.213 1085.75 345.88 1086.18 346.36C1086.63 346.813 1087.15 347.133 1087.74 347.32C1088.32 347.507 1088.91 347.6 1089.5 347.6C1090.51 347.6 1091.23 347.867 1091.66 348.4C1092.11 348.907 1092.34 349.547 1092.34 350.32C1092.34 351.147 1092.06 351.84 1091.5 352.4C1090.96 352.933 1090.16 353.2 1089.1 353.2C1087.92 353.2 1086.9 353.04 1086.02 352.72C1085.14 352.4 1084.39 351.893 1083.78 351.2C1083.16 350.507 1082.64 349.627 1082.22 348.56L1084.66 349.08C1084.44 349.827 1083.95 350.52 1083.18 351.16C1082.43 351.773 1081.43 352.28 1080.18 352.68C1078.95 353.053 1077.5 353.24 1075.82 353.24C1075.02 353.24 1074.12 353.173 1073.14 353.04C1072.18 352.907 1071.22 352.707 1070.26 352.44C1069.32 352.173 1068.47 351.827 1067.7 351.4L1069.66 346.32C1070.64 346.747 1071.59 347.067 1072.5 347.28C1073.43 347.493 1074.27 347.6 1075.02 347.6ZM1089.15 353.2L1089.55 347.6C1090.56 347.6 1091.36 347.507 1091.95 347.32C1092.56 347.133 1093.04 346.76 1093.39 346.2C1093.76 345.613 1094.07 344.76 1094.31 343.64C1094.58 342.52 1094.84 341.027 1095.11 339.16L1100.35 340.04C1100.3 340.44 1100.22 340.907 1100.11 341.44C1100.03 341.973 1099.95 342.52 1099.87 343.08C1099.82 343.613 1099.79 344.12 1099.79 344.6C1099.79 345.24 1099.92 345.787 1100.19 346.24C1100.48 346.667 1100.99 347 1101.71 347.24C1102.46 347.48 1103.52 347.6 1104.91 347.6C1105.92 347.6 1106.64 347.867 1107.07 348.4C1107.5 348.907 1107.71 349.547 1107.71 350.32C1107.71 351.147 1107.43 351.84 1106.87 352.4C1106.34 352.933 1105.55 353.2 1104.51 353.2C1102.67 353.2 1101.18 353.027 1100.03 352.68C1098.88 352.333 1098.03 351.747 1097.47 350.92C1096.91 350.093 1096.55 348.96 1096.39 347.52H1098.31C1097.83 348.8 1097.27 349.827 1096.63 350.6C1095.99 351.347 1095.27 351.907 1094.47 352.28C1093.67 352.653 1092.82 352.893 1091.91 353C1091.03 353.133 1090.11 353.2 1089.15 353.2ZM1097.31 335.08C1096.48 335.08 1095.78 334.8 1095.19 334.24C1094.63 333.68 1094.35 332.987 1094.35 332.16C1094.35 331.333 1094.63 330.627 1095.19 330.04C1095.78 329.453 1096.48 329.16 1097.31 329.16C1098.11 329.16 1098.79 329.453 1099.35 330.04C1099.94 330.627 1100.23 331.333 1100.23 332.16C1100.23 332.987 1099.94 333.68 1099.35 334.24C1098.79 334.8 1098.11 335.08 1097.31 335.08ZM1104.5 353.2L1104.9 347.6C1105.57 347.6 1106.07 347.467 1106.42 347.2C1106.77 346.933 1107.11 346.467 1107.46 345.8C1107.81 345.133 1108.29 344.227 1108.9 343.08C1109.57 341.8 1110.26 340.733 1110.98 339.88C1111.7 339 1112.42 338.307 1113.14 337.8C1113.89 337.267 1114.62 336.893 1115.34 336.68C1116.09 336.44 1116.82 336.32 1117.54 336.32C1118.53 336.32 1119.45 336.533 1120.3 336.96C1121.18 337.36 1122.02 338.067 1122.82 339.08C1123.62 340.067 1124.38 341.427 1125.1 343.16C1125.61 344.36 1126.11 345.28 1126.62 345.92C1127.13 346.56 1127.65 347 1128.18 347.24C1128.74 347.48 1129.3 347.6 1129.86 347.6C1130.87 347.6 1131.59 347.867 1132.02 348.4C1132.45 348.907 1132.66 349.547 1132.66 350.32C1132.66 351.147 1132.38 351.84 1131.82 352.4C1131.26 352.933 1130.47 353.2 1129.46 353.2C1128.15 353.2 1126.97 352.987 1125.9 352.56C1124.83 352.133 1123.99 351.493 1123.38 350.64L1124.54 349.76C1124.3 350.32 1123.94 350.907 1123.46 351.52C1123.01 352.133 1122.41 352.653 1121.66 353.08C1120.94 353.507 1120.07 353.72 1119.06 353.72C1118.39 353.72 1117.61 353.587 1116.7 353.32C1115.82 353.08 1114.9 352.667 1113.94 352.08C1113.01 351.467 1112.14 350.64 1111.34 349.6C1110.83 350.533 1110.27 351.267 1109.66 351.8C1109.05 352.307 1108.33 352.667 1107.5 352.88C1106.67 353.093 1105.67 353.2 1104.5 353.2ZM1113.66 344.88C1113.93 345.28 1114.25 345.68 1114.62 346.08C1114.99 346.48 1115.41 346.84 1115.86 347.16C1116.31 347.453 1116.79 347.693 1117.3 347.88C1117.83 348.067 1118.35 348.16 1118.86 348.16C1119.39 348.16 1119.83 347.96 1120.18 347.56C1120.53 347.133 1120.54 346.507 1120.22 345.68C1120.09 345.333 1119.9 344.947 1119.66 344.52C1119.45 344.067 1119.19 343.64 1118.9 343.24C1118.63 342.84 1118.33 342.507 1117.98 342.24C1117.66 341.973 1117.33 341.84 1116.98 341.84C1116.63 341.84 1116.27 341.947 1115.9 342.16C1115.53 342.373 1115.15 342.707 1114.78 343.16C1114.41 343.587 1114.03 344.16 1113.66 344.88ZM1129.46 353.2L1129.86 347.6C1130.74 347.6 1131.46 347.533 1132.02 347.4C1132.58 347.24 1133.03 346.907 1133.38 346.4C1133.75 345.867 1134.07 345.08 1134.34 344.04C1134.63 342.973 1134.95 341.533 1135.3 339.72L1140.5 340.68C1140.42 341.08 1140.33 341.547 1140.22 342.08C1140.11 342.613 1140.02 343.16 1139.94 343.72C1139.86 344.253 1139.82 344.733 1139.82 345.16C1139.82 345.907 1140.06 346.507 1140.54 346.96C1141.02 347.387 1141.93 347.6 1143.26 347.6C1143.93 347.6 1144.5 347.533 1144.98 347.4C1145.49 347.24 1145.91 346.907 1146.26 346.4C1146.63 345.867 1146.95 345.053 1147.22 343.96C1147.51 342.84 1147.79 341.333 1148.06 339.44L1153.34 340.28C1153.23 340.893 1153.13 341.547 1153.02 342.24C1152.91 342.933 1152.82 343.573 1152.74 344.16C1152.66 344.747 1152.62 345.227 1152.62 345.6C1152.62 345.947 1152.71 346.28 1152.9 346.6C1153.11 346.893 1153.49 347.133 1154.02 347.32C1154.58 347.507 1155.37 347.6 1156.38 347.6C1157.1 347.6 1157.71 347.507 1158.22 347.32C1158.75 347.133 1159.15 346.827 1159.42 346.4C1159.71 345.973 1159.86 345.413 1159.86 344.72C1159.86 343.733 1159.63 342.44 1159.18 340.84C1158.73 339.24 1158.19 337.56 1157.58 335.8L1163.22 334.12C1163.65 335.267 1164.02 336.493 1164.34 337.8C1164.69 339.08 1164.95 340.333 1165.14 341.56C1165.35 342.76 1165.46 343.813 1165.46 344.72C1165.46 346.08 1165.25 347.293 1164.82 348.36C1164.39 349.4 1163.79 350.28 1163.02 351C1162.25 351.72 1161.33 352.267 1160.26 352.64C1159.19 353.013 1158.02 353.2 1156.74 353.2C1155.19 353.2 1153.93 353.053 1152.94 352.76C1151.95 352.44 1151.19 351.92 1150.66 351.2C1150.15 350.453 1149.82 349.44 1149.66 348.16H1151.02C1150.46 349.733 1149.83 350.88 1149.14 351.6C1148.45 352.293 1147.62 352.733 1146.66 352.92C1145.73 353.107 1144.55 353.2 1143.14 353.2C1142.26 353.2 1141.35 353.107 1140.42 352.92C1139.51 352.707 1138.7 352.227 1137.98 351.48C1137.26 350.733 1136.73 349.573 1136.38 348L1138.54 347.92C1137.98 349.493 1137.25 350.653 1136.34 351.4C1135.46 352.147 1134.45 352.64 1133.3 352.88C1132.15 353.093 1130.87 353.2 1129.46 353.2ZM1150.38 328.44C1149.71 328.44 1149.13 328.187 1148.62 327.68C1148.14 327.173 1147.9 326.573 1147.9 325.88C1147.9 325.187 1148.14 324.6 1148.62 324.12C1149.13 323.64 1149.71 323.4 1150.38 323.4C1151.07 323.4 1151.66 323.64 1152.14 324.12C1152.62 324.6 1152.86 325.187 1152.86 325.88C1152.86 326.573 1152.62 327.173 1152.14 327.68C1151.66 328.187 1151.07 328.44 1150.38 328.44ZM1147.18 333.72C1146.51 333.72 1145.93 333.467 1145.42 332.96C1144.94 332.453 1144.7 331.853 1144.7 331.16C1144.7 330.467 1144.94 329.88 1145.42 329.4C1145.93 328.92 1146.51 328.68 1147.18 328.68C1147.87 328.68 1148.46 328.92 1148.94 329.4C1149.42 329.88 1149.66 330.467 1149.66 331.16C1149.66 331.853 1149.42 332.453 1148.94 332.96C1148.46 333.467 1147.87 333.72 1147.18 333.72ZM1153.38 333.72C1152.71 333.72 1152.13 333.467 1151.62 332.96C1151.14 332.453 1150.9 331.853 1150.9 331.16C1150.9 330.467 1151.14 329.88 1151.62 329.4C1152.13 328.92 1152.71 328.68 1153.38 328.68C1154.07 328.68 1154.66 328.92 1155.14 329.4C1155.62 329.88 1155.86 330.467 1155.86 331.16C1155.86 331.853 1155.62 332.453 1155.14 332.96C1154.66 333.467 1154.07 333.72 1153.38 333.72ZM1169.75 362.2L1168.59 356.6C1170.48 356.36 1172.14 356.067 1173.55 355.72C1174.96 355.4 1176.15 354.947 1177.11 354.36C1178.07 353.773 1178.79 352.973 1179.27 351.96C1179.75 350.92 1179.99 349.587 1179.99 347.96C1179.99 346.387 1179.75 345.133 1179.27 344.2C1178.79 343.267 1178.15 342.8 1177.35 342.8C1176.79 342.8 1176.32 343 1175.95 343.4C1175.58 343.773 1175.3 344.227 1175.11 344.76C1174.95 345.267 1174.87 345.72 1174.87 346.12C1174.87 346.36 1174.94 346.613 1175.07 346.88C1175.2 347.147 1175.5 347.373 1175.95 347.56C1176.4 347.747 1177.11 347.853 1178.07 347.88C1179.06 347.907 1180.39 347.813 1182.07 347.6H1188.79C1189.8 347.6 1190.52 347.867 1190.95 348.4C1191.4 348.907 1191.63 349.547 1191.63 350.32C1191.63 351.147 1191.35 351.84 1190.79 352.4C1190.23 352.933 1189.43 353.2 1188.39 353.2H1177.39C1175.71 353.2 1174.27 353 1173.07 352.6C1171.87 352.2 1170.95 351.56 1170.31 350.68C1169.67 349.773 1169.35 348.573 1169.35 347.08C1169.35 345.88 1169.55 344.68 1169.95 343.48C1170.38 342.28 1170.96 341.187 1171.71 340.2C1172.46 339.187 1173.32 338.387 1174.31 337.8C1175.32 337.187 1176.42 336.88 1177.59 336.88C1179.19 336.88 1180.59 337.373 1181.79 338.36C1182.99 339.347 1183.92 340.653 1184.59 342.28C1185.28 343.907 1185.63 345.68 1185.63 347.6C1185.63 350.613 1184.99 353.173 1183.71 355.28C1182.43 357.387 1180.6 359.013 1178.23 360.16C1175.86 361.333 1173.03 362.013 1169.75 362.2ZM1204.73 353.32C1203.53 353.32 1202.29 353.173 1201.01 352.88C1199.75 352.587 1198.54 352.147 1197.37 351.56C1196.19 350.973 1195.14 350.24 1194.21 349.36C1193.27 348.48 1192.53 347.467 1191.97 346.32C1191.43 345.147 1191.17 343.827 1191.17 342.36C1191.17 341.16 1191.42 340.053 1191.93 339.04C1192.43 338.027 1193.18 337.213 1194.17 336.6C1195.18 335.96 1196.41 335.64 1197.85 335.64C1199.21 335.64 1200.38 335.973 1201.37 336.64C1202.38 337.28 1203.17 338.12 1203.73 339.16C1204.29 340.173 1204.57 341.24 1204.57 342.36C1204.57 344.147 1204.13 345.72 1203.25 347.08C1202.37 348.413 1201.15 349.533 1199.61 350.44C1198.09 351.347 1196.37 352.04 1194.45 352.52C1192.53 352.973 1190.53 353.2 1188.45 353.2L1188.85 347.6C1190.37 347.6 1191.69 347.56 1192.81 347.48C1193.95 347.4 1194.94 347.227 1195.77 346.96C1196.59 346.693 1197.31 346.293 1197.93 345.76C1198.54 345.227 1199.01 344.64 1199.33 344C1199.67 343.333 1199.85 342.68 1199.85 342.04C1199.85 341.613 1199.78 341.213 1199.65 340.84C1199.54 340.467 1199.35 340.16 1199.09 339.92C1198.85 339.653 1198.53 339.52 1198.13 339.52C1197.7 339.52 1197.34 339.653 1197.05 339.92C1196.78 340.16 1196.57 340.48 1196.41 340.88C1196.27 341.28 1196.21 341.707 1196.21 342.16C1196.21 343.093 1196.45 343.933 1196.93 344.68C1197.43 345.427 1198.1 346.053 1198.93 346.56C1199.75 347.067 1200.66 347.453 1201.65 347.72C1202.66 347.987 1203.69 348.12 1204.73 348.12C1205.55 348.12 1206.14 347.987 1206.49 347.72C1206.83 347.453 1207.01 347.093 1207.01 346.64C1207.01 346.32 1206.93 345.987 1206.77 345.64C1206.63 345.267 1206.33 344.813 1205.85 344.28C1205.37 343.747 1204.63 343.093 1203.65 342.32C1202.66 341.52 1201.34 340.533 1199.69 339.36C1198.03 338.187 1195.95 336.76 1193.45 335.08L1196.53 330.72C1199.35 332.72 1201.71 334.467 1203.61 335.96C1205.53 337.453 1207.07 338.76 1208.25 339.88C1209.42 341 1210.31 341.987 1210.93 342.84C1211.57 343.667 1211.99 344.427 1212.21 345.12C1212.42 345.813 1212.53 346.507 1212.53 347.2C1212.53 348.48 1212.22 349.573 1211.61 350.48C1210.99 351.387 1210.1 352.093 1208.93 352.6C1207.78 353.08 1206.38 353.32 1204.73 353.32ZM1225.07 351.88C1225.07 351.267 1225.12 350.547 1225.23 349.72C1225.34 348.893 1225.54 347.96 1225.83 346.92C1226.12 345.853 1226.56 344.667 1227.15 343.36L1232.07 345.08C1231.78 345.907 1231.52 346.667 1231.31 347.36C1231.1 348.027 1230.94 348.653 1230.83 349.24C1230.72 349.8 1230.67 350.36 1230.67 350.92C1230.67 351.8 1230.86 352.587 1231.23 353.28C1231.63 354 1232.2 354.6 1232.95 355.08C1233.7 355.587 1234.6 355.973 1235.67 356.24C1236.76 356.507 1238.02 356.64 1239.43 356.64C1240.9 356.64 1242.2 356.573 1243.35 356.44C1244.52 356.307 1245.51 356.107 1246.31 355.84C1247.14 355.573 1247.76 355.227 1248.19 354.8C1248.62 354.4 1248.83 353.933 1248.83 353.4C1248.83 353.16 1248.74 352.933 1248.55 352.72C1248.39 352.507 1248.11 352.28 1247.71 352.04C1247.34 351.8 1246.83 351.547 1246.19 351.28C1245.58 351.013 1244.83 350.72 1243.95 350.4L1245.27 344.76C1246.42 345.24 1247.5 345.667 1248.51 346.04C1249.55 346.387 1250.54 346.68 1251.47 346.92C1252.4 347.133 1253.28 347.307 1254.11 347.44C1254.94 347.547 1255.71 347.6 1256.43 347.6C1257.44 347.6 1258.16 347.867 1258.59 348.4C1259.02 348.907 1259.23 349.547 1259.23 350.32C1259.23 351.147 1258.95 351.84 1258.39 352.4C1257.83 352.933 1257.04 353.2 1256.03 353.2C1255.82 353.2 1255.6 353.2 1255.39 353.2C1255.2 353.2 1255 353.2 1254.79 353.2C1254.6 353.2 1254.4 353.2 1254.19 353.2C1254.24 353.467 1254.27 353.693 1254.27 353.88C1254.27 354.093 1254.27 354.293 1254.27 354.48C1254.27 355.36 1253.96 356.253 1253.35 357.16C1252.76 358.067 1251.84 358.907 1250.59 359.68C1249.34 360.453 1247.74 361.067 1245.79 361.52C1243.87 362 1241.58 362.24 1238.91 362.24C1236.03 362.24 1233.55 361.867 1231.47 361.12C1229.42 360.4 1227.83 359.267 1226.71 357.72C1225.62 356.2 1225.07 354.253 1225.07 351.88ZM1256.02 353.2L1256.42 347.6C1257.6 347.6 1258.52 347.52 1259.18 347.36C1259.88 347.2 1260.37 346.907 1260.66 346.48C1260.96 346.027 1261.1 345.387 1261.1 344.56C1261.1 343.813 1261 342.92 1260.78 341.88C1260.6 340.84 1260.34 339.76 1260.02 338.64C1259.7 337.52 1259.38 336.493 1259.06 335.56L1264.58 334.04C1264.9 334.947 1265.22 336 1265.54 337.2C1265.86 338.4 1266.13 339.64 1266.34 340.92C1266.58 342.173 1266.7 343.387 1266.7 344.56C1266.7 346.027 1266.52 347.267 1266.14 348.28C1265.77 349.267 1265.25 350.093 1264.58 350.76C1263.94 351.4 1263.17 351.907 1262.26 352.28C1261.38 352.627 1260.41 352.867 1259.34 353C1258.28 353.133 1257.17 353.2 1256.02 353.2ZM1261.78 330.72C1260.96 330.72 1260.25 330.44 1259.66 329.88C1259.1 329.32 1258.82 328.627 1258.82 327.8C1258.82 326.973 1259.1 326.267 1259.66 325.68C1260.25 325.093 1260.96 324.8 1261.78 324.8C1262.58 324.8 1263.26 325.093 1263.82 325.68C1264.41 326.267 1264.7 326.973 1264.7 327.8C1264.7 328.627 1264.41 329.32 1263.82 329.88C1263.26 330.44 1262.58 330.72 1261.78 330.72ZM1271.92 353L1271.08 323.72H1276.68L1277.52 353H1271.92ZM1279.28 362.24L1277.24 357.28C1278.65 356.8 1279.95 356.24 1281.12 355.6C1282.32 354.96 1283.36 354.253 1284.24 353.48C1285.12 352.707 1285.8 351.867 1286.28 350.96C1286.76 350.027 1287 349.027 1287 347.96C1287 346.84 1286.75 345.613 1286.24 344.28C1285.73 342.947 1285.12 341.587 1284.4 340.2L1289.64 337.68C1290.12 338.507 1290.53 339.4 1290.88 340.36C1291.25 341.293 1291.56 342.133 1291.8 342.88C1292.04 343.627 1292.2 344.133 1292.28 344.4C1292.65 345.68 1293.16 346.533 1293.8 346.96C1294.47 347.387 1295.53 347.6 1297 347.6C1298.01 347.6 1298.73 347.867 1299.16 348.4C1299.61 348.907 1299.84 349.547 1299.84 350.32C1299.84 351.147 1299.56 351.84 1299 352.4C1298.44 352.933 1297.64 353.2 1296.6 353.2C1295.51 353.2 1294.55 353.04 1293.72 352.72C1292.89 352.4 1292.23 351.933 1291.72 351.32C1291.24 350.707 1290.93 349.987 1290.8 349.16L1292.28 350C1292.12 351.413 1291.65 352.747 1290.88 354C1290.13 355.28 1289.16 356.453 1287.96 357.52C1286.76 358.587 1285.41 359.52 1283.92 360.32C1282.43 361.12 1280.88 361.76 1279.28 362.24ZM1296.97 329.6L1295.01 326.32C1296.32 325.547 1297.66 324.773 1299.05 324C1300.44 323.2 1301.98 322.347 1303.69 321.44C1305.42 320.507 1307.45 319.453 1309.77 318.28L1311.61 321.8C1309.24 322.947 1307.18 323.973 1305.45 324.88C1303.74 325.787 1302.21 326.627 1300.85 327.4C1299.52 328.147 1298.22 328.88 1296.97 329.6ZM1296.65 353.2L1297.05 347.6H1302.65C1303.58 347.6 1304.29 347.547 1304.77 347.44C1305.28 347.333 1305.62 347.173 1305.81 346.96C1306 346.72 1306.09 346.44 1306.09 346.12C1306.09 345.64 1305.88 345.08 1305.45 344.44C1305.05 343.8 1304.52 343.133 1303.85 342.44C1303.21 341.747 1302.53 341.053 1301.81 340.36C1301.09 339.64 1300.4 338.973 1299.73 338.36C1299.09 337.747 1298.56 337.213 1298.13 336.76C1297.73 336.28 1297.53 335.933 1297.53 335.72C1297.53 334.973 1297.57 334.387 1297.65 333.96C1297.73 333.507 1297.84 333.147 1297.97 332.88C1298.13 332.613 1298.3 332.387 1298.49 332.2C1298.94 331.747 1299.62 331.24 1300.53 330.68C1301.44 330.093 1302.5 329.48 1303.73 328.84C1304.98 328.173 1306.38 327.48 1307.93 326.76C1309.48 326.013 1311.12 325.24 1312.85 324.44L1315.13 329.32C1313.37 330.093 1311.8 330.813 1310.41 331.48C1309.05 332.12 1307.82 332.72 1306.73 333.28C1305.66 333.813 1304.7 334.32 1303.85 334.8C1303.02 335.28 1302.28 335.733 1301.61 336.16L1302.01 333.2C1303.16 334.187 1304.2 335.12 1305.13 336C1306.06 336.88 1306.93 337.76 1307.73 338.64C1308.53 339.52 1309.28 340.427 1309.97 341.36C1310.69 342.293 1311.38 343.307 1312.05 344.4C1312.64 345.333 1313.24 346.027 1313.85 346.48C1314.49 346.933 1315.1 347.24 1315.69 347.4C1316.3 347.533 1316.85 347.6 1317.33 347.6C1318.34 347.6 1319.06 347.867 1319.49 348.4C1319.94 348.907 1320.17 349.547 1320.17 350.32C1320.17 351.147 1319.89 351.84 1319.33 352.4C1318.77 352.933 1317.97 353.2 1316.93 353.2C1316.05 353.2 1315.1 353.053 1314.09 352.76C1313.08 352.44 1312.13 351.933 1311.25 351.24C1310.37 350.547 1309.7 349.6 1309.25 348.4L1311.41 348.56C1311.01 349.413 1310.53 350.147 1309.97 350.76C1309.44 351.347 1308.8 351.827 1308.05 352.2C1307.3 352.547 1306.45 352.8 1305.49 352.96C1304.53 353.12 1303.45 353.2 1302.25 353.2H1296.65ZM1316.96 353.2L1317.36 347.6C1318.32 347.6 1319.15 347.507 1319.84 347.32C1320.53 347.133 1321.12 346.76 1321.6 346.2C1322.08 345.613 1322.48 344.76 1322.8 343.64C1323.15 342.52 1323.45 341.027 1323.72 339.16L1328.96 340.04C1328.91 340.44 1328.83 340.907 1328.72 341.44C1328.64 341.973 1328.56 342.52 1328.48 343.08C1328.43 343.613 1328.4 344.12 1328.4 344.6C1328.4 345.08 1328.49 345.507 1328.68 345.88C1328.87 346.253 1329.16 346.573 1329.56 346.84C1329.99 347.08 1330.53 347.267 1331.2 347.4C1331.89 347.533 1332.73 347.6 1333.72 347.6C1334.73 347.6 1335.45 347.867 1335.88 348.4C1336.31 348.907 1336.52 349.547 1336.52 350.32C1336.52 351.147 1336.24 351.84 1335.68 352.4C1335.15 352.933 1334.36 353.2 1333.32 353.2C1332.12 353.2 1331.03 353.107 1330.04 352.92C1329.08 352.733 1328.24 352.427 1327.52 352C1326.83 351.547 1326.25 350.96 1325.8 350.24C1325.37 349.493 1325.11 348.587 1325 347.52H1326.92C1326.44 348.8 1325.83 349.827 1325.08 350.6C1324.36 351.347 1323.55 351.907 1322.64 352.28C1321.73 352.653 1320.79 352.893 1319.8 353C1318.84 353.133 1317.89 353.2 1316.96 353.2ZM1328.12 362.48C1327.35 362.48 1326.68 362.2 1326.12 361.64C1325.59 361.107 1325.32 360.467 1325.32 359.72C1325.32 358.947 1325.59 358.28 1326.12 357.72C1326.68 357.16 1327.35 356.88 1328.12 356.88C1328.87 356.88 1329.51 357.16 1330.04 357.72C1330.57 358.28 1330.84 358.947 1330.84 359.72C1330.84 360.467 1330.57 361.107 1330.04 361.64C1329.51 362.2 1328.87 362.48 1328.12 362.48ZM1321.2 362.48C1320.43 362.48 1319.76 362.2 1319.2 361.64C1318.67 361.107 1318.4 360.467 1318.4 359.72C1318.4 358.947 1318.67 358.28 1319.2 357.72C1319.76 357.16 1320.43 356.88 1321.2 356.88C1321.95 356.88 1322.59 357.16 1323.12 357.72C1323.65 358.28 1323.92 358.947 1323.92 359.72C1323.92 360.467 1323.65 361.107 1323.12 361.64C1322.59 362.2 1321.95 362.48 1321.2 362.48ZM1333.33 353.2L1333.73 347.6C1335.33 347.6 1336.55 347.52 1337.41 347.36C1338.26 347.2 1338.85 346.907 1339.17 346.48C1339.51 346.027 1339.69 345.387 1339.69 344.56C1339.69 343.813 1339.58 342.92 1339.37 341.88C1339.18 340.84 1338.93 339.76 1338.61 338.64C1338.31 337.52 1337.99 336.493 1337.65 335.56L1343.17 334.04C1343.51 334.947 1343.85 336 1344.17 337.2C1344.49 338.4 1344.75 339.64 1344.97 340.92C1345.18 342.173 1345.29 343.387 1345.29 344.56C1345.29 346.373 1344.99 347.853 1344.41 349C1343.82 350.12 1342.99 350.987 1341.93 351.6C1340.89 352.213 1339.63 352.64 1338.17 352.88C1336.7 353.093 1335.09 353.2 1333.33 353.2ZM1339.37 366.52C1338.7 366.52 1338.14 366.293 1337.69 365.84C1337.26 365.387 1337.05 364.84 1337.05 364.2C1337.05 363.533 1337.26 362.96 1337.69 362.48C1338.14 362 1338.7 361.76 1339.37 361.76C1340.01 361.76 1340.55 362 1341.01 362.48C1341.46 362.96 1341.69 363.533 1341.69 364.2C1341.69 364.84 1341.46 365.387 1341.01 365.84C1340.55 366.293 1340.01 366.52 1339.37 366.52ZM1342.45 361.36C1341.78 361.36 1341.22 361.133 1340.77 360.68C1340.34 360.227 1340.13 359.68 1340.13 359.04C1340.13 358.373 1340.34 357.8 1340.77 357.32C1341.22 356.84 1341.78 356.6 1342.45 356.6C1343.09 356.6 1343.63 356.84 1344.09 357.32C1344.54 357.8 1344.77 358.373 1344.77 359.04C1344.77 359.68 1344.54 360.227 1344.09 360.68C1343.63 361.133 1343.09 361.36 1342.45 361.36ZM1336.45 361.36C1335.78 361.36 1335.22 361.133 1334.77 360.68C1334.31 360.227 1334.09 359.68 1334.09 359.04C1334.09 358.373 1334.31 357.8 1334.77 357.32C1335.22 356.84 1335.78 356.6 1336.45 356.6C1337.06 356.6 1337.59 356.84 1338.05 357.32C1338.53 357.8 1338.77 358.373 1338.77 359.04C1338.77 359.68 1338.53 360.227 1338.05 360.68C1337.59 361.133 1337.06 361.36 1336.45 361.36Z" fill="white"/>
<path d="M1100.4 511.515C1104.86 503.78 1104.86 494.25 1100.4 486.515L1025.53 356.838C1021.06 349.103 1012.81 344.338 1003.88 344.338H854.139C845.207 344.338 836.954 349.103 832.488 356.838L757.619 486.515C753.153 494.25 753.153 503.78 757.619 511.515L832.488 641.193C836.954 648.928 845.207 653.693 854.139 653.693H1003.88C1012.81 653.693 1021.06 648.928 1025.53 641.193L1100.4 511.515Z" fill="#89C958" fill-opacity="0.78"/>
</g>
<defs>
<clipPath id="clip0_1599_796">
<rect width="1440" height="567" fill="white" transform="matrix(-1 0 0 1 1440 0)"/>
</clipPath>
</defs>
</svg>
