<svg width="1440" height="567" viewBox="0 0 1440 567" fill="none" xmlns="http://www.w3.org/2000/svg">
<g clip-path="url(#clip0_1599_866)">
<path d="M1656.78 191.106C1661.25 183.371 1661.25 173.841 1656.78 166.106L1581.91 36.4287C1577.45 28.6937 1569.2 23.9287 1560.26 23.9287H1410.52C1401.59 23.9287 1393.34 28.6937 1388.87 36.4287L1314 166.106C1309.54 173.841 1309.54 183.371 1314 191.106L1388.87 320.784C1393.34 328.519 1401.59 333.284 1410.52 333.284H1560.26C1569.2 333.284 1577.45 328.519 1581.91 320.784L1656.78 191.106Z" fill="#89C958" fill-opacity="0.78"/>
<path d="M1378.59 671.719C1383.05 663.984 1383.05 654.454 1378.59 646.719L1303.72 517.042C1299.25 509.307 1291 504.542 1282.07 504.542H1132.33C1123.4 504.542 1115.14 509.307 1110.68 517.042L1035.81 646.719C1031.34 654.454 1031.34 663.984 1035.81 671.719L1110.68 801.397C1115.14 809.132 1123.4 813.897 1132.33 813.897H1282.07C1291 813.897 1299.25 809.132 1303.72 801.397L1378.59 671.719Z" fill="#89C958" fill-opacity="0.78"/>
<path d="M1656.78 511.515C1661.25 503.78 1661.25 494.25 1656.78 486.515L1581.91 356.838C1577.45 349.103 1569.2 344.338 1560.26 344.338H1410.52C1401.59 344.338 1393.34 349.103 1388.87 356.838L1314 486.515C1309.54 494.25 1309.54 503.78 1314 511.515L1388.87 641.193C1393.34 648.928 1401.59 653.693 1410.52 653.693H1560.26C1569.2 653.693 1577.45 648.928 1581.91 641.193L1656.78 511.515Z" fill="#89C958" fill-opacity="0.78"/>
<path d="M822.205 671.719C826.671 663.984 826.671 654.454 822.205 646.719L747.336 517.042C742.87 509.307 734.617 504.542 725.685 504.542H575.946C567.015 504.542 558.761 509.307 554.296 517.042L479.426 646.719C474.96 654.454 474.96 663.984 479.426 671.719L554.296 801.397C558.761 809.132 567.015 813.897 575.946 813.897H725.685C734.617 813.897 742.87 809.132 747.336 801.397L822.205 671.719Z" fill="#89C958" fill-opacity="0.78"/>
<path d="M544.011 511.515C548.476 503.78 548.476 494.25 544.011 486.515L469.141 356.838C464.675 349.103 456.422 344.338 447.491 344.338H297.749C288.819 344.338 280.569 349.103 276.099 356.838L201.229 486.515C196.769 494.25 196.769 503.78 201.229 511.515L276.099 641.193C280.569 648.928 288.819 653.693 297.749 653.693H447.491C456.422 653.693 464.675 648.928 469.141 641.193L544.011 511.515Z" fill="#89C958" fill-opacity="0.78"/>
<path d="M265.819 671.719C270.289 663.984 270.289 654.454 265.819 646.719L190.949 517.042C186.479 509.307 178.229 504.542 169.299 504.542H19.5595C10.6295 504.542 2.37945 509.307 -2.09055 517.042L-76.9605 646.719C-81.4305 654.454 -81.4305 663.984 -76.9605 671.719L-2.09055 801.397C2.37945 809.132 10.6295 813.897 19.5595 813.897H169.299C178.229 813.897 186.479 809.132 190.949 801.397L265.819 671.719Z" fill="#89C958" fill-opacity="0.78"/>
<path d="M1378.59 351.311C1383.05 343.576 1383.05 334.046 1378.59 326.311L1303.72 196.633C1299.25 188.898 1291 184.133 1282.07 184.133H1132.33C1123.4 184.133 1115.14 188.898 1110.68 196.633L1035.81 326.311C1031.34 334.046 1031.34 343.576 1035.81 351.311L1110.68 480.988C1115.14 488.723 1123.4 493.488 1132.33 493.488H1282.07C1291 493.488 1299.25 488.723 1303.72 480.988L1378.59 351.311Z" fill="#89C958" fill-opacity="0.78"/>
<path d="M1127.7 355.6C1127.7 354.833 1127.76 353.933 1127.9 352.9C1128.03 351.867 1128.28 350.7 1128.65 349.4C1129.01 348.067 1129.56 346.583 1130.3 344.95L1136.45 347.1C1136.08 348.133 1135.76 349.083 1135.5 349.95C1135.23 350.783 1135.03 351.567 1134.9 352.3C1134.76 353 1134.7 353.7 1134.7 354.4C1134.7 355.5 1134.93 356.483 1135.4 357.35C1135.9 358.25 1136.61 359 1137.55 359.6C1138.48 360.233 1139.61 360.717 1140.95 361.05C1142.31 361.383 1143.88 361.55 1145.65 361.55C1147.48 361.55 1149.11 361.467 1150.55 361.3C1152.01 361.133 1153.25 360.883 1154.25 360.55C1155.28 360.217 1156.06 359.783 1156.6 359.25C1157.13 358.75 1157.4 358.167 1157.4 357.5C1157.4 357.2 1157.28 356.917 1157.05 356.65C1156.85 356.383 1156.5 356.1 1156 355.8C1155.53 355.5 1154.9 355.183 1154.1 354.85C1153.33 354.517 1152.4 354.15 1151.3 353.75L1152.95 346.7C1154.38 347.3 1155.73 347.833 1157 348.3C1158.3 348.733 1159.53 349.1 1160.7 349.4C1161.86 349.667 1162.96 349.883 1164 350.05C1165.03 350.183 1166 350.25 1166.9 350.25C1168.16 350.25 1169.06 350.583 1169.6 351.25C1170.13 351.883 1170.4 352.683 1170.4 353.65C1170.4 354.683 1170.05 355.55 1169.35 356.25C1168.65 356.917 1167.66 357.25 1166.4 357.25C1166.13 357.25 1165.86 357.25 1165.6 357.25C1165.36 357.25 1165.11 357.25 1164.85 357.25C1164.61 357.25 1164.36 357.25 1164.1 357.25C1164.16 357.583 1164.2 357.867 1164.2 358.1C1164.2 358.367 1164.2 358.617 1164.2 358.85C1164.2 359.95 1163.81 361.067 1163.05 362.2C1162.31 363.333 1161.16 364.383 1159.6 365.35C1158.03 366.317 1156.03 367.083 1153.6 367.65C1151.2 368.25 1148.33 368.55 1145 368.55C1141.4 368.55 1138.3 368.083 1135.7 367.15C1133.13 366.25 1131.15 364.833 1129.75 362.9C1128.38 361 1127.7 358.567 1127.7 355.6ZM1166.39 357.25L1166.89 350.25C1167.99 350.25 1168.89 350.167 1169.59 350C1170.29 349.8 1170.85 349.383 1171.29 348.75C1171.75 348.083 1172.15 347.1 1172.49 345.8C1172.85 344.467 1173.25 342.667 1173.69 340.4L1180.19 341.6C1180.09 342.1 1179.97 342.683 1179.84 343.35C1179.7 344.017 1179.59 344.7 1179.49 345.4C1179.39 346.067 1179.34 346.667 1179.34 347.2C1179.34 348.133 1179.64 348.883 1180.24 349.45C1180.84 349.983 1181.97 350.25 1183.64 350.25C1184.47 350.25 1185.19 350.167 1185.79 350C1186.42 349.8 1186.95 349.383 1187.39 348.75C1187.85 348.083 1188.25 347.067 1188.59 345.7C1188.95 344.3 1189.3 342.417 1189.64 340.05L1196.24 341.1C1196.1 341.867 1195.97 342.683 1195.84 343.55C1195.7 344.417 1195.59 345.217 1195.49 345.95C1195.39 346.683 1195.34 347.283 1195.34 347.75C1195.34 348.183 1195.45 348.6 1195.69 349C1195.95 349.367 1196.42 349.667 1197.09 349.9C1197.79 350.133 1198.77 350.25 1200.04 350.25C1200.94 350.25 1201.7 350.133 1202.34 349.9C1203 349.667 1203.5 349.283 1203.84 348.75C1204.2 348.217 1204.39 347.517 1204.39 346.65C1204.39 345.417 1204.1 343.8 1203.54 341.8C1202.97 339.8 1202.3 337.7 1201.54 335.5L1208.59 333.4C1209.12 334.833 1209.59 336.367 1209.99 338C1210.42 339.6 1210.75 341.167 1210.99 342.7C1211.25 344.2 1211.39 345.517 1211.39 346.65C1211.39 348.35 1211.12 349.867 1210.59 351.2C1210.05 352.5 1209.3 353.6 1208.34 354.5C1207.37 355.4 1206.22 356.083 1204.89 356.55C1203.55 357.017 1202.09 357.25 1200.49 357.25C1198.55 357.25 1196.97 357.067 1195.74 356.7C1194.5 356.3 1193.55 355.65 1192.89 354.75C1192.25 353.817 1191.84 352.55 1191.64 350.95H1193.34C1192.64 352.917 1191.85 354.35 1190.99 355.25C1190.12 356.117 1189.09 356.667 1187.89 356.9C1186.72 357.133 1185.25 357.25 1183.49 357.25C1182.39 357.25 1181.25 357.133 1180.09 356.9C1178.95 356.633 1177.94 356.033 1177.04 355.1C1176.14 354.167 1175.47 352.717 1175.04 350.75L1177.74 350.65C1177.04 352.617 1176.12 354.067 1174.99 355C1173.89 355.933 1172.62 356.55 1171.19 356.85C1169.75 357.117 1168.15 357.25 1166.39 357.25ZM1214.7 368.5L1212.15 362.1C1215.01 361.1 1217.33 360 1219.1 358.8C1220.9 357.6 1222.21 356.317 1223.05 354.95C1223.91 353.583 1224.35 352.167 1224.35 350.7C1224.35 349.767 1224.21 348.8 1223.95 347.8C1223.68 346.767 1223.3 345.683 1222.8 344.55C1222.33 343.417 1221.76 342.233 1221.1 341L1227.65 337.85C1228.81 340.083 1229.71 342.217 1230.35 344.25C1231.01 346.283 1231.35 348.183 1231.35 349.95C1231.35 351.583 1231.13 353.15 1230.7 354.65C1230.3 356.15 1229.66 357.55 1228.8 358.85C1227.96 360.183 1226.88 361.433 1225.55 362.6C1224.21 363.767 1222.65 364.833 1220.85 365.8C1219.05 366.8 1217 367.7 1214.7 368.5ZM1235.16 368.5L1232.61 362.1C1235.47 361.1 1237.79 360 1239.56 358.8C1241.36 357.6 1242.67 356.317 1243.51 354.95C1244.37 353.583 1244.81 352.167 1244.81 350.7C1244.81 349.767 1244.67 348.8 1244.41 347.8C1244.14 346.767 1243.76 345.683 1243.26 344.55C1242.79 343.417 1242.22 342.233 1241.56 341L1248.11 337.85C1249.27 340.083 1250.17 342.217 1250.81 344.25C1251.47 346.283 1251.81 348.183 1251.81 349.95C1251.81 351.583 1251.59 353.15 1251.16 354.65C1250.76 356.15 1250.12 357.55 1249.26 358.85C1248.42 360.183 1247.34 361.433 1246.01 362.6C1244.67 363.767 1243.11 364.833 1241.31 365.8C1239.51 366.8 1237.46 367.7 1235.16 368.5ZM1246.21 332.75C1245.17 332.75 1244.29 332.4 1243.56 331.7C1242.86 331 1242.51 330.133 1242.51 329.1C1242.51 328.067 1242.86 327.183 1243.56 326.45C1244.29 325.717 1245.17 325.35 1246.21 325.35C1247.21 325.35 1248.06 325.717 1248.76 326.45C1249.49 327.183 1249.86 328.067 1249.86 329.1C1249.86 330.133 1249.49 331 1248.76 331.7C1248.06 332.4 1247.21 332.75 1246.21 332.75ZM1270.67 357.25C1267.57 357.25 1265.17 356.933 1263.47 356.3C1261.8 355.667 1260.63 354.683 1259.97 353.35C1259.3 351.983 1258.92 350.267 1258.82 348.2L1257.77 320.4H1264.77L1265.82 344.85C1265.88 346.383 1266.05 347.533 1266.32 348.3C1266.58 349.067 1267.08 349.583 1267.82 349.85C1268.58 350.117 1269.7 350.25 1271.17 350.25C1272.43 350.25 1273.33 350.583 1273.87 351.25C1274.43 351.883 1274.72 352.683 1274.72 353.65C1274.72 354.683 1274.37 355.55 1273.67 356.25C1272.97 356.917 1271.97 357.25 1270.67 357.25ZM1270.73 357.25L1271.23 350.25C1272.7 350.25 1273.85 350.15 1274.68 349.95C1275.55 349.75 1276.17 349.383 1276.53 348.85C1276.9 348.283 1277.08 347.483 1277.08 346.45C1277.08 345.517 1276.95 344.4 1276.68 343.1C1276.45 341.8 1276.13 340.45 1275.73 339.05C1275.33 337.65 1274.93 336.367 1274.53 335.2L1281.43 333.3C1281.83 334.433 1282.23 335.75 1282.63 337.25C1283.03 338.75 1283.37 340.3 1283.63 341.9C1283.93 343.467 1284.08 344.983 1284.08 346.45C1284.08 348.283 1283.85 349.833 1283.38 351.1C1282.92 352.333 1282.27 353.367 1281.43 354.2C1280.63 355 1279.67 355.633 1278.53 356.1C1277.43 356.533 1276.22 356.833 1274.88 357C1273.55 357.167 1272.17 357.25 1270.73 357.25ZM1276.88 368.75C1275.92 368.75 1275.08 368.417 1274.38 367.75C1273.72 367.083 1273.38 366.267 1273.38 365.3C1273.38 364.333 1273.72 363.483 1274.38 362.75C1275.08 362.05 1275.92 361.7 1276.88 361.7C1277.85 361.7 1278.67 362.05 1279.33 362.75C1280.03 363.483 1280.38 364.333 1280.38 365.3C1280.38 366.267 1280.03 367.083 1279.33 367.75C1278.67 368.417 1277.85 368.75 1276.88 368.75Z" fill="white"/>
<path d="M1100.4 511.515C1104.86 503.78 1104.86 494.25 1100.4 486.515L1025.53 356.838C1021.06 349.103 1012.81 344.338 1003.88 344.338H854.139C845.207 344.338 836.954 349.103 832.488 356.838L757.619 486.515C753.153 494.25 753.153 503.78 757.619 511.515L832.488 641.193C836.954 648.928 845.207 653.693 854.139 653.693H1003.88C1012.81 653.693 1021.06 648.928 1025.53 641.193L1100.4 511.515Z" fill="#89C958" fill-opacity="0.78"/>
</g>
<defs>
<clipPath id="clip0_1599_866">
<rect width="1440" height="567" fill="white" transform="matrix(-1 0 0 1 1440 0)"/>
</clipPath>
</defs>
</svg>
