<svg width="1440" height="567" viewBox="0 0 1440 567" fill="none" xmlns="http://www.w3.org/2000/svg">
<g clip-path="url(#clip0_1599_756)">
<path d="M-216.783 191.106C-221.249 183.371 -221.249 173.841 -216.783 166.106L-141.914 36.4287C-137.448 28.6937 -129.195 23.9287 -120.263 23.9287H29.4753C38.407 23.9287 46.6602 28.6937 51.126 36.4287L125.996 166.106C130.461 173.841 130.461 183.371 125.996 191.106L51.126 320.784C46.6601 328.519 38.407 333.284 29.4753 333.284H-120.263C-129.195 333.284 -137.448 328.519 -141.914 320.784L-216.783 191.106Z" fill="#89C958" fill-opacity="0.78"/>
<path d="M61.4099 671.719C56.9441 663.984 56.9441 654.454 61.4099 646.719L136.28 517.042C140.745 509.307 148.999 504.542 157.93 504.542H307.669C316.601 504.542 324.854 509.307 329.32 517.042L404.189 646.719C408.655 654.454 408.655 663.984 404.189 671.719L329.32 801.397C324.854 809.132 316.601 813.897 307.669 813.897H157.93C148.999 813.897 140.745 809.132 136.28 801.397L61.4099 671.719Z" fill="#89C958" fill-opacity="0.78"/>
<path d="M-216.783 511.515C-221.249 503.78 -221.249 494.25 -216.783 486.515L-141.914 356.838C-137.448 349.103 -129.195 344.338 -120.263 344.338H29.4753C38.407 344.338 46.6602 349.103 51.126 356.838L125.996 486.515C130.461 494.25 130.461 503.78 125.996 511.515L51.126 641.193C46.6601 648.928 38.407 653.693 29.4753 653.693H-120.263C-129.195 653.693 -137.448 648.928 -141.914 641.193L-216.783 511.515Z" fill="#89C958" fill-opacity="0.78"/>
<path d="M617.795 671.719C613.329 663.984 613.329 654.454 617.795 646.719L692.664 517.042C697.13 509.307 705.383 504.542 714.315 504.542H864.054C872.985 504.542 881.239 509.307 885.704 517.042L960.574 646.719C965.04 654.454 965.04 663.984 960.574 671.719L885.704 801.397C881.239 809.132 872.985 813.897 864.054 813.897H714.315C705.383 813.897 697.13 809.132 692.664 801.397L617.795 671.719Z" fill="#89C958" fill-opacity="0.78"/>
<path d="M895.989 511.515C891.524 503.78 891.524 494.25 895.989 486.515L970.859 356.838C975.325 349.103 983.578 344.338 992.509 344.338H1142.25C1151.18 344.338 1159.43 349.103 1163.9 356.838L1238.77 486.515C1243.23 494.25 1243.23 503.78 1238.77 511.515L1163.9 641.193C1159.43 648.928 1151.18 653.693 1142.25 653.693H992.509C983.578 653.693 975.325 648.928 970.859 641.193L895.989 511.515Z" fill="#89C958" fill-opacity="0.78"/>
<path d="M1174.18 671.719C1169.71 663.984 1169.71 654.454 1174.18 646.719L1249.05 517.042C1253.52 509.307 1261.77 504.542 1270.7 504.542H1420.44C1429.37 504.542 1437.62 509.307 1442.09 517.042L1516.96 646.719C1521.43 654.454 1521.43 663.984 1516.96 671.719L1442.09 801.397C1437.62 809.132 1429.37 813.897 1420.44 813.897H1270.7C1261.77 813.897 1253.52 809.132 1249.05 801.397L1174.18 671.719Z" fill="#89C958" fill-opacity="0.78"/>
<path d="M61.4099 351.311C56.9441 343.576 56.9441 334.046 61.4099 326.311L136.28 196.633C140.745 188.898 148.999 184.133 157.93 184.133H307.669C316.601 184.133 324.854 188.898 329.32 196.633L404.189 326.311C408.655 334.046 408.655 343.576 404.189 351.311L329.32 480.988C324.854 488.723 316.601 493.488 307.669 493.488H157.93C148.999 493.488 140.745 488.723 136.28 480.988L61.4099 351.311Z" fill="#89C958" fill-opacity="0.78"/>
<path d="M125.969 321.453V357H118.669V321.453H125.969ZM139.274 336.224V357H132.243V330.584H138.835L139.274 336.224ZM138.249 342.864H136.345C136.345 340.911 136.597 339.153 137.102 337.591C137.606 336.012 138.314 334.669 139.226 333.562C140.137 332.439 141.219 331.585 142.473 330.999C143.742 330.397 145.158 330.096 146.721 330.096C147.958 330.096 149.089 330.275 150.114 330.633C151.14 330.991 152.019 331.561 152.751 332.342C153.5 333.123 154.069 334.157 154.46 335.442C154.867 336.728 155.07 338.299 155.07 340.154V357H147.99V340.13C147.99 338.958 147.827 338.047 147.502 337.396C147.176 336.744 146.696 336.289 146.062 336.028C145.443 335.752 144.678 335.613 143.767 335.613C142.823 335.613 142.001 335.8 141.301 336.175C140.617 336.549 140.048 337.07 139.592 337.737C139.152 338.388 138.819 339.153 138.591 340.032C138.363 340.911 138.249 341.855 138.249 342.864ZM174.699 349.7C174.699 349.196 174.553 348.74 174.26 348.333C173.967 347.926 173.422 347.552 172.624 347.21C171.843 346.852 170.712 346.526 169.23 346.233C167.896 345.94 166.651 345.574 165.495 345.135C164.356 344.679 163.363 344.134 162.517 343.499C161.687 342.864 161.035 342.116 160.563 341.253C160.091 340.374 159.855 339.373 159.855 338.25C159.855 337.143 160.091 336.102 160.563 335.125C161.052 334.148 161.743 333.286 162.639 332.537C163.55 331.772 164.657 331.178 165.959 330.755C167.277 330.315 168.758 330.096 170.402 330.096C172.697 330.096 174.667 330.462 176.311 331.194C177.971 331.927 179.24 332.936 180.119 334.222C181.014 335.491 181.462 336.94 181.462 338.567H174.431C174.431 337.884 174.284 337.273 173.991 336.736C173.715 336.183 173.275 335.752 172.673 335.442C172.087 335.117 171.322 334.954 170.378 334.954C169.597 334.954 168.921 335.092 168.352 335.369C167.782 335.63 167.342 335.988 167.033 336.443C166.74 336.883 166.594 337.371 166.594 337.908C166.594 338.315 166.675 338.681 166.838 339.007C167.017 339.316 167.302 339.601 167.692 339.861C168.083 340.122 168.588 340.366 169.206 340.594C169.841 340.805 170.622 341.001 171.55 341.18C173.454 341.57 175.155 342.083 176.652 342.718C178.15 343.336 179.338 344.183 180.217 345.257C181.096 346.315 181.535 347.706 181.535 349.432C181.535 350.604 181.275 351.678 180.754 352.654C180.233 353.631 179.484 354.485 178.508 355.218C177.531 355.934 176.359 356.495 174.992 356.902C173.641 357.293 172.119 357.488 170.427 357.488C167.969 357.488 165.886 357.049 164.177 356.17C162.484 355.291 161.198 354.176 160.319 352.825C159.457 351.458 159.025 350.058 159.025 348.626H165.69C165.723 349.586 165.967 350.359 166.423 350.945C166.895 351.531 167.489 351.954 168.205 352.215C168.938 352.475 169.727 352.605 170.573 352.605C171.485 352.605 172.242 352.483 172.844 352.239C173.446 351.979 173.902 351.637 174.211 351.214C174.536 350.774 174.699 350.27 174.699 349.7ZM193.132 335.662V367.156H186.101V330.584H192.619L193.132 335.662ZM209.855 343.499V344.012C209.855 345.932 209.628 347.715 209.172 349.358C208.732 351.002 208.081 352.435 207.219 353.655C206.356 354.86 205.282 355.804 203.996 356.487C202.727 357.155 201.262 357.488 199.602 357.488C197.99 357.488 196.59 357.163 195.402 356.512C194.214 355.861 193.213 354.949 192.399 353.777C191.602 352.589 190.959 351.214 190.471 349.651C189.982 348.089 189.608 346.412 189.348 344.622V343.279C189.608 341.359 189.982 339.601 190.471 338.006C190.959 336.395 191.602 335.003 192.399 333.831C193.213 332.643 194.206 331.723 195.378 331.072C196.566 330.421 197.958 330.096 199.553 330.096C201.229 330.096 202.702 330.413 203.972 331.048C205.257 331.683 206.332 332.594 207.194 333.782C208.073 334.97 208.732 336.386 209.172 338.03C209.628 339.674 209.855 341.497 209.855 343.499ZM202.8 344.012V343.499C202.8 342.376 202.702 341.342 202.507 340.398C202.328 339.438 202.035 338.6 201.628 337.884C201.237 337.168 200.716 336.614 200.065 336.224C199.431 335.817 198.658 335.613 197.746 335.613C196.786 335.613 195.964 335.768 195.28 336.077C194.613 336.386 194.068 336.834 193.645 337.42C193.221 338.006 192.904 338.706 192.692 339.52C192.481 340.333 192.351 341.253 192.302 342.278V345.672C192.383 346.876 192.611 347.959 192.985 348.919C193.36 349.863 193.938 350.612 194.719 351.165C195.5 351.718 196.525 351.995 197.795 351.995C198.723 351.995 199.504 351.792 200.139 351.385C200.773 350.962 201.286 350.384 201.677 349.651C202.084 348.919 202.368 348.073 202.531 347.112C202.71 346.152 202.8 345.118 202.8 344.012ZM226.384 357.488C224.333 357.488 222.494 357.163 220.866 356.512C219.239 355.844 217.855 354.925 216.716 353.753C215.593 352.581 214.73 351.222 214.128 349.676C213.526 348.113 213.225 346.453 213.225 344.695V343.719C213.225 341.717 213.509 339.886 214.079 338.226C214.649 336.565 215.463 335.125 216.521 333.904C217.595 332.684 218.897 331.748 220.427 331.097C221.957 330.429 223.682 330.096 225.603 330.096C227.474 330.096 229.134 330.405 230.583 331.023C232.032 331.642 233.244 332.521 234.221 333.66C235.214 334.799 235.962 336.167 236.467 337.762C236.971 339.34 237.224 341.098 237.224 343.035V345.965H216.228V341.277H230.314V340.74C230.314 339.764 230.135 338.893 229.777 338.128C229.436 337.347 228.915 336.728 228.215 336.272C227.515 335.817 226.62 335.589 225.529 335.589C224.602 335.589 223.804 335.792 223.137 336.199C222.469 336.606 221.924 337.176 221.501 337.908C221.094 338.641 220.785 339.503 220.573 340.496C220.378 341.473 220.28 342.547 220.28 343.719V344.695C220.28 345.753 220.427 346.73 220.72 347.625C221.029 348.52 221.46 349.293 222.014 349.944C222.583 350.595 223.267 351.1 224.064 351.458C224.878 351.816 225.798 351.995 226.823 351.995C228.093 351.995 229.273 351.751 230.363 351.263C231.47 350.758 232.422 350.001 233.22 348.992L236.638 352.703C236.084 353.501 235.327 354.266 234.367 354.998C233.423 355.73 232.284 356.333 230.949 356.805C229.615 357.26 228.093 357.488 226.384 357.488ZM252.141 351.995C253.003 351.995 253.768 351.832 254.436 351.507C255.103 351.165 255.624 350.693 255.998 350.091C256.389 349.472 256.592 348.748 256.608 347.918H263.225C263.208 349.773 262.712 351.425 261.735 352.874C260.759 354.306 259.449 355.438 257.805 356.268C256.161 357.081 254.322 357.488 252.287 357.488C250.236 357.488 248.446 357.146 246.916 356.463C245.402 355.779 244.141 354.835 243.132 353.631C242.123 352.41 241.366 350.994 240.861 349.383C240.357 347.755 240.104 346.014 240.104 344.158V343.45C240.104 341.578 240.357 339.837 240.861 338.226C241.366 336.598 242.123 335.182 243.132 333.978C244.141 332.757 245.402 331.805 246.916 331.121C248.43 330.438 250.204 330.096 252.238 330.096C254.403 330.096 256.299 330.511 257.927 331.341C259.571 332.171 260.856 333.359 261.784 334.905C262.728 336.435 263.208 338.25 263.225 340.35H256.608C256.592 339.471 256.405 338.673 256.047 337.957C255.705 337.241 255.201 336.671 254.533 336.248C253.882 335.809 253.076 335.589 252.116 335.589C251.091 335.589 250.253 335.809 249.602 336.248C248.951 336.671 248.446 337.257 248.088 338.006C247.73 338.738 247.478 339.576 247.331 340.521C247.201 341.448 247.136 342.425 247.136 343.45V344.158C247.136 345.184 247.201 346.168 247.331 347.112C247.461 348.056 247.705 348.895 248.063 349.627C248.438 350.359 248.951 350.937 249.602 351.36C250.253 351.784 251.099 351.995 252.141 351.995ZM280.241 330.584V335.564H264.86V330.584H280.241ZM268.669 324.065H275.7V349.041C275.7 349.806 275.798 350.392 275.993 350.799C276.205 351.206 276.514 351.491 276.921 351.653C277.328 351.8 277.84 351.873 278.459 351.873C278.898 351.873 279.289 351.857 279.631 351.824C279.989 351.775 280.29 351.727 280.534 351.678L280.559 356.854C279.956 357.049 279.305 357.203 278.605 357.317C277.906 357.431 277.132 357.488 276.286 357.488C274.74 357.488 273.389 357.236 272.233 356.731C271.094 356.211 270.215 355.381 269.597 354.241C268.978 353.102 268.669 351.604 268.669 349.749V324.065ZM291.667 330.584V357H284.611V330.584H291.667ZM284.172 323.699C284.172 322.674 284.53 321.827 285.246 321.16C285.962 320.493 286.923 320.159 288.127 320.159C289.315 320.159 290.267 320.493 290.983 321.16C291.716 321.827 292.082 322.674 292.082 323.699C292.082 324.725 291.716 325.571 290.983 326.238C290.267 326.906 289.315 327.239 288.127 327.239C286.923 327.239 285.962 326.906 285.246 326.238C284.53 325.571 284.172 324.725 284.172 323.699ZM296.354 344.061V343.548C296.354 341.611 296.631 339.829 297.185 338.201C297.738 336.557 298.544 335.133 299.602 333.929C300.66 332.724 301.962 331.788 303.508 331.121C305.054 330.438 306.828 330.096 308.83 330.096C310.832 330.096 312.614 330.438 314.177 331.121C315.739 331.788 317.049 332.724 318.107 333.929C319.182 335.133 319.995 336.557 320.549 338.201C321.102 339.829 321.379 341.611 321.379 343.548V344.061C321.379 345.981 321.102 347.763 320.549 349.407C319.995 351.035 319.182 352.459 318.107 353.68C317.049 354.884 315.747 355.82 314.201 356.487C312.655 357.155 310.881 357.488 308.879 357.488C306.877 357.488 305.095 357.155 303.532 356.487C301.986 355.82 300.676 354.884 299.602 353.68C298.544 352.459 297.738 351.035 297.185 349.407C296.631 347.763 296.354 345.981 296.354 344.061ZM303.386 343.548V344.061C303.386 345.167 303.483 346.201 303.679 347.161C303.874 348.121 304.183 348.968 304.606 349.7C305.046 350.416 305.616 350.978 306.315 351.385C307.015 351.792 307.87 351.995 308.879 351.995C309.855 351.995 310.694 351.792 311.394 351.385C312.093 350.978 312.655 350.416 313.078 349.7C313.501 348.968 313.811 348.121 314.006 347.161C314.217 346.201 314.323 345.167 314.323 344.061V343.548C314.323 342.474 314.217 341.465 314.006 340.521C313.811 339.56 313.493 338.714 313.054 337.981C312.631 337.233 312.069 336.647 311.369 336.224C310.669 335.8 309.823 335.589 308.83 335.589C307.837 335.589 306.991 335.8 306.291 336.224C305.607 336.647 305.046 337.233 304.606 337.981C304.183 338.714 303.874 339.56 303.679 340.521C303.483 341.465 303.386 342.474 303.386 343.548ZM332.585 336.224V357H325.554V330.584H332.146L332.585 336.224ZM331.56 342.864H329.655C329.655 340.911 329.908 339.153 330.412 337.591C330.917 336.012 331.625 334.669 332.536 333.562C333.448 332.439 334.53 331.585 335.783 330.999C337.053 330.397 338.469 330.096 340.031 330.096C341.268 330.096 342.399 330.275 343.425 330.633C344.45 330.991 345.329 331.561 346.062 332.342C346.81 333.123 347.38 334.157 347.771 335.442C348.177 336.728 348.381 338.299 348.381 340.154V357H341.301V340.13C341.301 338.958 341.138 338.047 340.812 337.396C340.487 336.744 340.007 336.289 339.372 336.028C338.754 335.752 337.989 335.613 337.077 335.613C336.133 335.613 335.311 335.8 334.611 336.175C333.928 336.549 333.358 337.07 332.902 337.737C332.463 338.388 332.129 339.153 331.901 340.032C331.674 340.911 331.56 341.855 331.56 342.864Z" fill="white"/>
<path d="M339.603 511.515C335.137 503.78 335.137 494.25 339.603 486.515L414.472 356.838C418.938 349.103 427.191 344.338 436.123 344.338H585.861C594.793 344.338 603.046 349.103 607.512 356.838L682.381 486.515C686.847 494.25 686.847 503.78 682.381 511.515L607.512 641.193C603.046 648.928 594.793 653.693 585.861 653.693H436.123C427.191 653.693 418.938 648.928 414.472 641.193L339.603 511.515Z" fill="#89C958" fill-opacity="0.78"/>
</g>
<defs>
<clipPath id="clip0_1599_756">
<rect width="1440" height="567" fill="white"/>
</clipPath>
</defs>
</svg>
