<svg width="1440" height="567" viewBox="0 0 1440 567" fill="none" xmlns="http://www.w3.org/2000/svg">
<g clip-path="url(#clip0_1599_886)">
<path d="M1656.78 191.106C1661.25 183.371 1661.25 173.841 1656.78 166.106L1581.91 36.4287C1577.45 28.6937 1569.2 23.9287 1560.26 23.9287H1410.52C1401.59 23.9287 1393.34 28.6937 1388.87 36.4287L1314 166.106C1309.54 173.841 1309.54 183.371 1314 191.106L1388.87 320.784C1393.34 328.519 1401.59 333.284 1410.52 333.284H1560.26C1569.2 333.284 1577.45 328.519 1581.91 320.784L1656.78 191.106Z" fill="#89C958" fill-opacity="0.78"/>
<path d="M1378.59 671.719C1383.05 663.984 1383.05 654.454 1378.59 646.719L1303.72 517.042C1299.25 509.307 1291 504.542 1282.07 504.542H1132.33C1123.4 504.542 1115.14 509.307 1110.68 517.042L1035.81 646.719C1031.34 654.454 1031.34 663.984 1035.81 671.719L1110.68 801.397C1115.14 809.132 1123.4 813.897 1132.33 813.897H1282.07C1291 813.897 1299.25 809.132 1303.72 801.397L1378.59 671.719Z" fill="#89C958" fill-opacity="0.78"/>
<path d="M1656.78 511.515C1661.25 503.78 1661.25 494.25 1656.78 486.515L1581.91 356.838C1577.45 349.103 1569.2 344.338 1560.26 344.338H1410.52C1401.59 344.338 1393.34 349.103 1388.87 356.838L1314 486.515C1309.54 494.25 1309.54 503.78 1314 511.515L1388.87 641.193C1393.34 648.928 1401.59 653.693 1410.52 653.693H1560.26C1569.2 653.693 1577.45 648.928 1581.91 641.193L1656.78 511.515Z" fill="#89C958" fill-opacity="0.78"/>
<path d="M822.205 671.719C826.671 663.984 826.671 654.454 822.205 646.719L747.336 517.042C742.87 509.307 734.617 504.542 725.685 504.542H575.946C567.015 504.542 558.761 509.307 554.296 517.042L479.426 646.719C474.96 654.454 474.96 663.984 479.426 671.719L554.296 801.397C558.761 809.132 567.015 813.897 575.946 813.897H725.685C734.617 813.897 742.87 809.132 747.336 801.397L822.205 671.719Z" fill="#89C958" fill-opacity="0.78"/>
<path d="M544.011 511.515C548.476 503.78 548.476 494.25 544.011 486.515L469.141 356.838C464.675 349.103 456.422 344.338 447.491 344.338H297.749C288.819 344.338 280.569 349.103 276.099 356.838L201.229 486.515C196.769 494.25 196.769 503.78 201.229 511.515L276.099 641.193C280.569 648.928 288.819 653.693 297.749 653.693H447.491C456.422 653.693 464.675 648.928 469.141 641.193L544.011 511.515Z" fill="#89C958" fill-opacity="0.78"/>
<path d="M265.819 671.719C270.289 663.984 270.289 654.454 265.819 646.719L190.949 517.042C186.479 509.307 178.229 504.542 169.299 504.542H19.5595C10.6295 504.542 2.37945 509.307 -2.09055 517.042L-76.9605 646.719C-81.4305 654.454 -81.4305 663.984 -76.9605 671.719L-2.09055 801.397C2.37945 809.132 10.6295 813.897 19.5595 813.897H169.299C178.229 813.897 186.479 809.132 190.949 801.397L265.819 671.719Z" fill="#89C958" fill-opacity="0.78"/>
<path d="M1378.59 351.311C1383.05 343.576 1383.05 334.046 1378.59 326.311L1303.72 196.633C1299.25 188.898 1291 184.133 1282.07 184.133H1132.33C1123.4 184.133 1115.14 188.898 1110.68 196.633L1035.81 326.311C1031.34 334.046 1031.34 343.576 1035.81 351.311L1110.68 480.988C1115.14 488.723 1123.4 493.488 1132.33 493.488H1282.07C1291 493.488 1299.25 488.723 1303.72 480.988L1378.59 351.311Z" fill="#89C958" fill-opacity="0.78"/>
<path d="M1094.76 360.6C1094.76 359.833 1094.83 358.933 1094.96 357.9C1095.1 356.867 1095.35 355.7 1095.71 354.4C1096.08 353.067 1096.63 351.583 1097.36 349.95L1103.51 352.1C1103.15 353.133 1102.83 354.083 1102.56 354.95C1102.3 355.783 1102.1 356.567 1101.96 357.3C1101.83 358 1101.76 358.7 1101.76 359.4C1101.76 360.5 1102 361.483 1102.46 362.35C1102.96 363.25 1103.68 364 1104.61 364.6C1105.55 365.233 1106.68 365.717 1108.01 366.05C1109.38 366.383 1110.95 366.55 1112.71 366.55C1114.55 366.55 1116.18 366.467 1117.61 366.3C1119.08 366.133 1120.31 365.883 1121.31 365.55C1122.35 365.217 1123.13 364.783 1123.66 364.25C1124.2 363.75 1124.46 363.167 1124.46 362.5C1124.46 362.2 1124.35 361.917 1124.11 361.65C1123.91 361.383 1123.56 361.1 1123.06 360.8C1122.6 360.5 1121.96 360.183 1121.16 359.85C1120.4 359.517 1119.46 359.15 1118.36 358.75L1120.01 351.7C1121.45 352.3 1122.8 352.833 1124.06 353.3C1125.36 353.733 1126.6 354.1 1127.76 354.4C1128.93 354.667 1130.03 354.883 1131.06 355.05C1132.1 355.183 1133.06 355.25 1133.96 355.25C1135.23 355.25 1136.13 355.583 1136.66 356.25C1137.2 356.883 1137.46 357.683 1137.46 358.65C1137.46 359.683 1137.11 360.55 1136.41 361.25C1135.71 361.917 1134.73 362.25 1133.46 362.25C1133.2 362.25 1132.93 362.25 1132.66 362.25C1132.43 362.25 1132.18 362.25 1131.91 362.25C1131.68 362.25 1131.43 362.25 1131.16 362.25C1131.23 362.583 1131.26 362.867 1131.26 363.1C1131.26 363.367 1131.26 363.617 1131.26 363.85C1131.26 364.95 1130.88 366.067 1130.11 367.2C1129.38 368.333 1128.23 369.383 1126.66 370.35C1125.1 371.317 1123.1 372.083 1120.66 372.65C1118.26 373.25 1115.4 373.55 1112.06 373.55C1108.46 373.55 1105.36 373.083 1102.76 372.15C1100.2 371.25 1098.21 369.833 1096.81 367.9C1095.45 366 1094.76 363.567 1094.76 360.6ZM1133.45 362.25L1133.95 355.25C1135.42 355.25 1136.57 355.15 1137.4 354.95C1138.27 354.75 1138.89 354.383 1139.25 353.85C1139.62 353.283 1139.8 352.483 1139.8 351.45C1139.8 350.517 1139.67 349.4 1139.4 348.1C1139.17 346.8 1138.85 345.45 1138.45 344.05C1138.05 342.65 1137.65 341.367 1137.25 340.2L1144.15 338.3C1144.55 339.433 1144.95 340.75 1145.35 342.25C1145.75 343.75 1146.09 345.3 1146.35 346.9C1146.65 348.467 1146.8 349.983 1146.8 351.45C1146.8 353.283 1146.57 354.833 1146.1 356.1C1145.64 357.333 1144.99 358.367 1144.15 359.2C1143.35 360 1142.39 360.633 1141.25 361.1C1140.15 361.533 1138.94 361.833 1137.6 362C1136.27 362.167 1134.89 362.25 1133.45 362.25ZM1139.6 373.75C1138.64 373.75 1137.8 373.417 1137.1 372.75C1136.44 372.083 1136.1 371.267 1136.1 370.3C1136.1 369.333 1136.44 368.483 1137.1 367.75C1137.8 367.05 1138.64 366.7 1139.6 366.7C1140.57 366.7 1141.39 367.05 1142.05 367.75C1142.75 368.483 1143.1 369.333 1143.1 370.3C1143.1 371.267 1142.75 372.083 1142.05 372.75C1141.39 373.417 1140.57 373.75 1139.6 373.75ZM1165.17 362.25C1162.07 362.25 1159.67 361.933 1157.97 361.3C1156.31 360.667 1155.14 359.683 1154.47 358.35C1153.81 356.983 1153.42 355.267 1153.32 353.2L1152.27 325.4H1159.27L1160.32 349.85C1160.39 351.383 1160.56 352.533 1160.82 353.3C1161.09 354.067 1161.59 354.583 1162.32 354.85C1163.09 355.117 1164.21 355.25 1165.67 355.25C1166.94 355.25 1167.84 355.583 1168.37 356.25C1168.94 356.883 1169.22 357.683 1169.22 358.65C1169.22 359.683 1168.87 360.55 1168.17 361.25C1167.47 361.917 1166.47 362.25 1165.17 362.25ZM1165.24 362.25L1165.74 355.25C1167.74 355.25 1169.27 355.15 1170.34 354.95C1171.41 354.75 1172.14 354.383 1172.54 353.85C1172.97 353.283 1173.19 352.483 1173.19 351.45C1173.19 350.517 1173.06 349.4 1172.79 348.1C1172.56 346.8 1172.24 345.45 1171.84 344.05C1171.47 342.65 1171.07 341.367 1170.64 340.2L1177.54 338.3C1177.97 339.433 1178.39 340.75 1178.79 342.25C1179.19 343.75 1179.52 345.3 1179.79 346.9C1180.06 348.467 1180.19 349.983 1180.19 351.45C1180.19 353.717 1179.82 355.567 1179.09 357C1178.36 358.4 1177.32 359.483 1175.99 360.25C1174.69 361.017 1173.12 361.55 1171.29 361.85C1169.46 362.117 1167.44 362.25 1165.24 362.25ZM1177.59 373.85C1176.62 373.85 1175.79 373.5 1175.09 372.8C1174.42 372.133 1174.09 371.333 1174.09 370.4C1174.09 369.433 1174.42 368.6 1175.09 367.9C1175.79 367.2 1176.62 366.85 1177.59 366.85C1178.52 366.85 1179.32 367.2 1179.99 367.9C1180.66 368.6 1180.99 369.433 1180.99 370.4C1180.99 371.333 1180.66 372.133 1179.99 372.8C1179.32 373.5 1178.52 373.85 1177.59 373.85ZM1168.94 373.85C1167.97 373.85 1167.14 373.5 1166.44 372.8C1165.77 372.133 1165.44 371.333 1165.44 370.4C1165.44 369.433 1165.77 368.6 1166.44 367.9C1167.14 367.2 1167.97 366.85 1168.94 366.85C1169.87 366.85 1170.67 367.2 1171.34 367.9C1172.01 368.6 1172.34 369.433 1172.34 370.4C1172.34 371.333 1172.01 372.133 1171.34 372.8C1170.67 373.5 1169.87 373.85 1168.94 373.85ZM1216.91 363.05L1218.21 356.05C1220.61 356.05 1222.91 355.933 1225.11 355.7C1227.34 355.467 1229.46 355 1231.46 354.3C1233.49 353.6 1235.39 352.567 1237.16 351.2C1238.93 349.833 1240.53 348 1241.96 345.7L1247.56 348.25C1247.36 348.883 1247.19 349.5 1247.06 350.1C1246.93 350.667 1246.86 351.133 1246.86 351.5C1246.86 352.267 1247.04 352.933 1247.41 353.5C1247.81 354.067 1248.48 354.5 1249.41 354.8C1250.34 355.1 1251.63 355.25 1253.26 355.25C1254.53 355.25 1255.43 355.583 1255.96 356.25C1256.49 356.883 1256.76 357.683 1256.76 358.65C1256.76 359.683 1256.41 360.55 1255.71 361.25C1255.04 361.917 1254.06 362.25 1252.76 362.25C1250.46 362.25 1248.46 361.933 1246.76 361.3C1245.09 360.667 1243.78 359.783 1242.81 358.65C1241.88 357.483 1241.33 356.15 1241.16 354.65L1243.16 354.85C1241.96 356.283 1240.46 357.517 1238.66 358.55C1236.89 359.583 1234.88 360.433 1232.61 361.1C1230.38 361.767 1227.93 362.25 1225.26 362.55C1222.63 362.883 1219.84 363.05 1216.91 363.05ZM1216.86 363.05C1213.26 363.05 1210.21 362.767 1207.71 362.2C1205.24 361.667 1203.23 360.9 1201.66 359.9C1200.13 358.867 1199.01 357.667 1198.31 356.3C1197.61 354.933 1197.26 353.433 1197.26 351.8C1197.26 350.733 1197.34 349.667 1197.51 348.6C1197.71 347.5 1197.94 346.433 1198.21 345.4C1198.51 344.367 1198.78 343.433 1199.01 342.6L1205.26 344.05C1205.13 344.65 1204.98 345.3 1204.81 346C1204.64 346.7 1204.51 347.383 1204.41 348.05C1204.31 348.683 1204.26 349.267 1204.26 349.8C1204.26 351.033 1204.69 352.133 1205.56 353.1C1206.46 354.033 1207.93 354.767 1209.96 355.3C1211.99 355.8 1214.73 356.05 1218.16 356.05L1219.16 361.45L1216.86 363.05ZM1226.16 340.2C1225.19 340.2 1224.36 339.867 1223.66 339.2C1222.99 338.5 1222.66 337.683 1222.66 336.75C1222.66 335.783 1222.99 334.95 1223.66 334.25C1224.36 333.55 1225.19 333.2 1226.16 333.2C1227.09 333.2 1227.89 333.55 1228.56 334.25C1229.23 334.95 1229.56 335.783 1229.56 336.75C1229.56 337.683 1229.23 338.5 1228.56 339.2C1227.89 339.867 1227.09 340.2 1226.16 340.2ZM1217.51 340.15C1216.54 340.15 1215.71 339.817 1215.01 339.15C1214.34 338.45 1214.01 337.633 1214.01 336.7C1214.01 335.733 1214.34 334.9 1215.01 334.2C1215.71 333.5 1216.54 333.15 1217.51 333.15C1218.44 333.15 1219.24 333.5 1219.91 334.2C1220.58 334.9 1220.91 335.733 1220.91 336.7C1220.91 337.633 1220.58 338.45 1219.91 339.15C1219.24 339.817 1218.44 340.15 1217.51 340.15ZM1252.74 362.25L1253.24 355.25C1254.34 355.25 1255.24 355.167 1255.94 355C1256.64 354.8 1257.21 354.383 1257.64 353.75C1258.11 353.083 1258.51 352.1 1258.84 350.8C1259.21 349.467 1259.61 347.667 1260.04 345.4L1266.54 346.6C1266.41 347.333 1266.22 348.25 1265.99 349.35C1265.79 350.45 1265.69 351.4 1265.69 352.2C1265.69 352.833 1265.81 353.383 1266.04 353.85C1266.31 354.283 1266.74 354.633 1267.34 354.9C1267.97 355.133 1268.84 355.25 1269.94 355.25C1270.81 355.25 1271.54 355.167 1272.14 355C1272.77 354.8 1273.31 354.383 1273.74 353.75C1274.21 353.083 1274.61 352.067 1274.94 350.7C1275.31 349.3 1275.66 347.417 1275.99 345.05L1282.59 346.1C1282.46 346.867 1282.32 347.683 1282.19 348.55C1282.06 349.417 1281.94 350.217 1281.84 350.95C1281.74 351.683 1281.69 352.283 1281.69 352.75C1281.69 353.183 1281.81 353.6 1282.04 354C1282.31 354.367 1282.77 354.667 1283.44 354.9C1284.14 355.133 1285.11 355.25 1286.34 355.25C1287.84 355.25 1288.94 354.933 1289.64 354.3C1290.37 353.633 1290.74 352.633 1290.74 351.3C1290.74 350.533 1290.72 349.717 1290.69 348.85C1290.66 347.95 1290.59 346.95 1290.49 345.85C1290.42 344.717 1290.29 343.433 1290.09 342L1296.54 341.5C1296.77 344.367 1297.04 346.7 1297.34 348.5C1297.64 350.3 1298.04 351.7 1298.54 352.7C1299.07 353.667 1299.77 354.333 1300.64 354.7C1301.54 355.067 1302.71 355.25 1304.14 355.25C1305.41 355.25 1306.31 355.583 1306.84 356.25C1307.41 356.883 1307.69 357.683 1307.69 358.65C1307.69 359.683 1307.34 360.55 1306.64 361.25C1305.97 361.917 1304.97 362.25 1303.64 362.25C1302.74 362.25 1301.81 362.167 1300.84 362C1299.87 361.867 1298.94 361.583 1298.04 361.15C1297.14 360.683 1296.34 360.017 1295.64 359.15C1294.94 358.283 1294.39 357.133 1293.99 355.7L1294.89 356C1294.42 357.667 1293.79 358.95 1292.99 359.85C1292.19 360.75 1291.21 361.383 1290.04 361.75C1288.87 362.083 1287.47 362.25 1285.84 362.25C1284.34 362.25 1283.01 362.05 1281.84 361.65C1280.67 361.25 1279.74 360.6 1279.04 359.7C1278.37 358.767 1278.02 357.517 1277.99 355.95H1279.69C1279.02 357.817 1278.26 359.2 1277.39 360.1C1276.52 361 1275.47 361.583 1274.24 361.85C1273.01 362.117 1271.46 362.25 1269.59 362.25C1268.46 362.25 1267.34 362.133 1266.24 361.9C1265.14 361.633 1264.16 361.05 1263.29 360.15C1262.42 359.217 1261.79 357.75 1261.39 355.75L1264.09 355.65C1263.39 357.617 1262.47 359.067 1261.34 360C1260.24 360.933 1258.97 361.55 1257.54 361.85C1256.11 362.117 1254.51 362.25 1252.74 362.25ZM1278.39 331.3C1277.56 331.3 1276.82 330.983 1276.19 330.35C1275.59 329.717 1275.29 328.967 1275.29 328.1C1275.29 327.233 1275.59 326.5 1276.19 325.9C1276.82 325.3 1277.56 325 1278.39 325C1279.26 325 1279.99 325.3 1280.59 325.9C1281.19 326.5 1281.49 327.233 1281.49 328.1C1281.49 328.967 1281.19 329.717 1280.59 330.35C1279.99 330.983 1279.26 331.3 1278.39 331.3ZM1274.39 337.9C1273.56 337.9 1272.82 337.583 1272.19 336.95C1271.59 336.317 1271.29 335.567 1271.29 334.7C1271.29 333.833 1271.59 333.1 1272.19 332.5C1272.82 331.9 1273.56 331.6 1274.39 331.6C1275.26 331.6 1275.99 331.9 1276.59 332.5C1277.19 333.1 1277.49 333.833 1277.49 334.7C1277.49 335.567 1277.19 336.317 1276.59 336.95C1275.99 337.583 1275.26 337.9 1274.39 337.9ZM1282.14 337.9C1281.31 337.9 1280.57 337.583 1279.94 336.95C1279.34 336.317 1279.04 335.567 1279.04 334.7C1279.04 333.833 1279.34 333.1 1279.94 332.5C1280.57 331.9 1281.31 331.6 1282.14 331.6C1283.01 331.6 1283.74 331.9 1284.34 332.5C1284.94 333.1 1285.24 333.833 1285.24 334.7C1285.24 335.567 1284.94 336.317 1284.34 336.95C1283.74 337.583 1283.01 337.9 1282.14 337.9ZM1303.67 362.25L1304.17 355.25C1305.63 355.25 1306.78 355.15 1307.62 354.95C1308.48 354.75 1309.1 354.383 1309.47 353.85C1309.83 353.283 1310.02 352.483 1310.02 351.45C1310.02 350.517 1309.88 349.4 1309.62 348.1C1309.38 346.8 1309.07 345.45 1308.67 344.05C1308.27 342.65 1307.87 341.367 1307.47 340.2L1314.37 338.3C1314.77 339.433 1315.17 340.75 1315.57 342.25C1315.97 343.75 1316.3 345.3 1316.57 346.9C1316.87 348.467 1317.02 349.983 1317.02 351.45C1317.02 353.283 1316.78 354.833 1316.32 356.1C1315.85 357.333 1315.2 358.367 1314.37 359.2C1313.57 360 1312.6 360.633 1311.47 361.1C1310.37 361.533 1309.15 361.833 1307.82 362C1306.48 362.167 1305.1 362.25 1303.67 362.25ZM1310.87 334.15C1309.83 334.15 1308.95 333.8 1308.22 333.1C1307.52 332.4 1307.17 331.533 1307.17 330.5C1307.17 329.467 1307.52 328.583 1308.22 327.85C1308.95 327.117 1309.83 326.75 1310.87 326.75C1311.87 326.75 1312.72 327.117 1313.42 327.85C1314.15 328.583 1314.52 329.467 1314.52 330.5C1314.52 331.533 1314.15 332.4 1313.42 333.1C1312.72 333.8 1311.87 334.15 1310.87 334.15Z" fill="white"/>
<path d="M1100.4 511.515C1104.86 503.78 1104.86 494.25 1100.4 486.515L1025.53 356.838C1021.06 349.103 1012.81 344.338 1003.88 344.338H854.139C845.207 344.338 836.954 349.103 832.488 356.838L757.619 486.515C753.153 494.25 753.153 503.78 757.619 511.515L832.488 641.193C836.954 648.928 845.207 653.693 854.139 653.693H1003.88C1012.81 653.693 1021.06 648.928 1025.53 641.193L1100.4 511.515Z" fill="#89C958" fill-opacity="0.78"/>
</g>
<defs>
<clipPath id="clip0_1599_886">
<rect width="1440" height="567" fill="white" transform="matrix(-1 0 0 1 1440 0)"/>
</clipPath>
</defs>
</svg>
