<svg width="1440" height="567" viewBox="0 0 1440 567" fill="none" xmlns="http://www.w3.org/2000/svg">
<g clip-path="url(#clip0_1597_666)">
<path d="M1656.78 191.106C1661.25 183.371 1661.25 173.841 1656.78 166.106L1581.91 36.4287C1577.45 28.6937 1569.2 23.9287 1560.26 23.9287H1410.52C1401.59 23.9287 1393.34 28.6937 1388.87 36.4287L1314 166.106C1309.54 173.841 1309.54 183.371 1314 191.106L1388.87 320.784C1393.34 328.519 1401.59 333.284 1410.52 333.284H1560.26C1569.2 333.284 1577.45 328.519 1581.91 320.784L1656.78 191.106Z" fill="#89C958" fill-opacity="0.78"/>
<path d="M1378.59 671.719C1383.06 663.984 1383.06 654.454 1378.59 646.719L1303.72 517.042C1299.26 509.307 1291 504.542 1282.07 504.542H1132.33C1123.4 504.542 1115.15 509.307 1110.68 517.042L1035.81 646.719C1031.35 654.454 1031.35 663.984 1035.81 671.719L1110.68 801.397C1115.15 809.132 1123.4 813.897 1132.33 813.897H1282.07C1291 813.897 1299.26 809.132 1303.72 801.397L1378.59 671.719Z" fill="#89C958" fill-opacity="0.78"/>
<path d="M1656.78 511.515C1661.25 503.78 1661.25 494.25 1656.78 486.515L1581.91 356.838C1577.45 349.103 1569.2 344.338 1560.26 344.338H1410.52C1401.59 344.338 1393.34 349.103 1388.87 356.838L1314 486.515C1309.54 494.25 1309.54 503.78 1314 511.515L1388.87 641.193C1393.34 648.928 1401.59 653.693 1410.52 653.693H1560.26C1569.2 653.693 1577.45 648.928 1581.91 641.193L1656.78 511.515Z" fill="#89C958" fill-opacity="0.78"/>
<path d="M822.203 671.719C826.669 663.984 826.669 654.454 822.203 646.719L747.334 517.042C742.868 509.307 734.615 504.542 725.683 504.542H575.944C567.013 504.542 558.759 509.307 554.294 517.042L479.424 646.719C474.958 654.454 474.958 663.984 479.424 671.719L554.294 801.397C558.759 809.132 567.013 813.897 575.944 813.897H725.683C734.615 813.897 742.868 809.132 747.334 801.397L822.203 671.719Z" fill="#89C958" fill-opacity="0.78"/>
<path d="M544.013 511.515C548.478 503.78 548.478 494.25 544.013 486.515L469.143 356.838C464.677 349.103 456.424 344.338 447.493 344.338H297.751C288.821 344.338 280.571 349.103 276.101 356.838L201.231 486.515C196.771 494.25 196.771 503.78 201.231 511.515L276.101 641.193C280.571 648.928 288.821 653.693 297.751 653.693H447.493C456.424 653.693 464.677 648.928 469.143 641.193L544.013 511.515Z" fill="#89C958" fill-opacity="0.78"/>
<path d="M265.819 671.719C270.289 663.984 270.289 654.454 265.819 646.719L190.949 517.042C186.479 509.307 178.229 504.542 169.299 504.542H19.5595C10.6295 504.542 2.37945 509.307 -2.09055 517.042L-76.9605 646.719C-81.4305 654.454 -81.4305 663.984 -76.9605 671.719L-2.09055 801.397C2.37945 809.132 10.6295 813.897 19.5595 813.897H169.299C178.229 813.897 186.479 809.132 190.949 801.397L265.819 671.719Z" fill="#89C958" fill-opacity="0.78"/>
<path d="M1378.59 351.311C1383.06 343.576 1383.06 334.046 1378.59 326.311L1303.72 196.633C1299.26 188.898 1291 184.133 1282.07 184.133H1132.33C1123.4 184.133 1115.15 188.898 1110.68 196.633L1035.81 326.311C1031.35 334.046 1031.35 343.576 1035.81 351.311L1110.68 480.988C1115.15 488.723 1123.4 493.488 1132.33 493.488H1282.07C1291 493.488 1299.26 488.723 1303.72 480.988L1378.59 351.311Z" fill="#89C958" fill-opacity="0.78"/>
<path d="M1097.99 321.88C1097.99 321.267 1098.04 320.547 1098.15 319.72C1098.26 318.893 1098.46 317.96 1098.75 316.92C1099.04 315.853 1099.48 314.667 1100.07 313.36L1104.99 315.08C1104.7 315.907 1104.44 316.667 1104.23 317.36C1104.02 318.027 1103.86 318.653 1103.75 319.24C1103.64 319.8 1103.59 320.36 1103.59 320.92C1103.59 321.72 1103.76 322.467 1104.11 323.16C1104.46 323.853 1104.98 324.453 1105.67 324.96C1106.36 325.493 1107.22 325.907 1108.23 326.2C1109.27 326.493 1110.47 326.64 1111.83 326.64C1113.38 326.64 1114.74 326.493 1115.91 326.2C1117.11 325.933 1118.11 325.573 1118.91 325.12C1119.74 324.693 1120.36 324.24 1120.79 323.76C1121.22 323.28 1121.43 322.84 1121.43 322.44C1121.43 322.12 1121.2 321.84 1120.75 321.6C1120.32 321.36 1119.75 321.12 1119.03 320.88C1118.34 320.613 1117.59 320.32 1116.79 320C1116.02 319.68 1115.27 319.28 1114.55 318.8C1113.86 318.32 1113.28 317.733 1112.83 317.04C1112.4 316.347 1112.19 315.507 1112.19 314.52C1112.19 313.507 1112.46 312.4 1112.99 311.2C1113.52 309.973 1114.28 308.813 1115.27 307.72C1116.26 306.6 1117.43 305.693 1118.79 305C1120.18 304.28 1121.7 303.92 1123.35 303.92C1124.52 303.92 1125.59 304.107 1126.55 304.48C1127.54 304.853 1128.36 305.28 1129.03 305.76L1126.95 310.44C1126.39 310.067 1125.79 309.787 1125.15 309.6C1124.51 309.387 1123.9 309.28 1123.31 309.28C1122.56 309.28 1121.84 309.427 1121.15 309.72C1120.48 310.013 1119.88 310.4 1119.35 310.88C1118.84 311.333 1118.44 311.827 1118.15 312.36C1117.86 312.893 1117.71 313.4 1117.71 313.88C1117.71 314.36 1117.94 314.787 1118.39 315.16C1118.87 315.507 1119.48 315.84 1120.23 316.16C1120.98 316.453 1121.76 316.76 1122.59 317.08C1123.42 317.4 1124.2 317.76 1124.95 318.16C1125.7 318.56 1126.3 319.04 1126.75 319.6C1127.23 320.16 1127.47 320.84 1127.47 321.64C1127.47 322.787 1127.11 323.973 1126.39 325.2C1125.7 326.453 1124.66 327.613 1123.27 328.68C1121.88 329.747 1120.18 330.6 1118.15 331.24C1116.15 331.907 1113.83 332.24 1111.19 332.24C1109.27 332.24 1107.51 332.013 1105.91 331.56C1104.31 331.133 1102.91 330.48 1101.71 329.6C1100.54 328.747 1099.62 327.667 1098.95 326.36C1098.31 325.08 1097.99 323.587 1097.99 321.88ZM1142.48 323.2C1140 323.2 1138.08 322.947 1136.72 322.44C1135.39 321.933 1134.45 321.147 1133.92 320.08C1133.39 318.987 1133.08 317.613 1133 315.96L1132.16 293.72H1137.76L1138.6 313.28C1138.65 314.507 1138.79 315.427 1139 316.04C1139.21 316.653 1139.61 317.067 1140.2 317.28C1140.81 317.493 1141.71 317.6 1142.88 317.6C1143.89 317.6 1144.61 317.867 1145.04 318.4C1145.49 318.907 1145.72 319.547 1145.72 320.32C1145.72 321.147 1145.44 321.84 1144.88 322.4C1144.32 322.933 1143.52 323.2 1142.48 323.2ZM1158.82 323.32C1157.62 323.32 1156.38 323.173 1155.1 322.88C1153.84 322.587 1152.63 322.147 1151.46 321.56C1150.28 320.973 1149.23 320.24 1148.3 319.36C1147.36 318.48 1146.62 317.467 1146.06 316.32C1145.52 315.147 1145.26 313.827 1145.26 312.36C1145.26 311.16 1145.51 310.053 1146.02 309.04C1146.52 308.027 1147.27 307.213 1148.26 306.6C1149.27 305.96 1150.5 305.64 1151.94 305.64C1153.3 305.64 1154.47 305.973 1155.46 306.64C1156.47 307.28 1157.26 308.12 1157.82 309.16C1158.38 310.173 1158.66 311.24 1158.66 312.36C1158.66 314.147 1158.22 315.72 1157.34 317.08C1156.46 318.413 1155.24 319.533 1153.7 320.44C1152.18 321.347 1150.46 322.04 1148.54 322.52C1146.62 322.973 1144.62 323.2 1142.54 323.2L1142.94 317.6C1144.46 317.6 1145.78 317.56 1146.9 317.48C1148.04 317.4 1149.03 317.227 1149.86 316.96C1150.68 316.693 1151.4 316.293 1152.02 315.76C1152.63 315.227 1153.1 314.64 1153.42 314C1153.76 313.333 1153.94 312.68 1153.94 312.04C1153.94 311.613 1153.87 311.213 1153.74 310.84C1153.63 310.467 1153.44 310.16 1153.18 309.92C1152.94 309.653 1152.62 309.52 1152.22 309.52C1151.79 309.52 1151.43 309.653 1151.14 309.92C1150.87 310.16 1150.66 310.48 1150.5 310.88C1150.36 311.28 1150.3 311.707 1150.3 312.16C1150.3 313.093 1150.54 313.933 1151.02 314.68C1151.52 315.427 1152.19 316.053 1153.02 316.56C1153.84 317.067 1154.75 317.453 1155.74 317.72C1156.75 317.987 1157.78 318.12 1158.82 318.12C1159.64 318.12 1160.23 317.987 1160.58 317.72C1160.92 317.453 1161.1 317.093 1161.1 316.64C1161.1 316.32 1161.02 315.987 1160.86 315.64C1160.72 315.267 1160.42 314.813 1159.94 314.28C1159.46 313.747 1158.72 313.093 1157.74 312.32C1156.75 311.52 1155.43 310.533 1153.78 309.36C1152.12 308.187 1150.04 306.76 1147.54 305.08L1150.62 300.72C1153.44 302.72 1155.8 304.467 1157.7 305.96C1159.62 307.453 1161.16 308.76 1162.34 309.88C1163.51 311 1164.4 311.987 1165.02 312.84C1165.66 313.667 1166.08 314.427 1166.3 315.12C1166.51 315.813 1166.62 316.507 1166.62 317.2C1166.62 318.48 1166.31 319.573 1165.7 320.48C1165.08 321.387 1164.19 322.093 1163.02 322.6C1161.87 323.08 1160.47 323.32 1158.82 323.32ZM1181.4 338.72C1180.79 336.533 1180.28 334.453 1179.88 332.48C1179.48 330.533 1179.19 328.76 1179 327.16C1178.81 325.587 1178.72 324.267 1178.72 323.2C1178.72 320.827 1179.09 318.72 1179.84 316.88C1180.61 315.013 1181.6 313.413 1182.8 312.08C1184.03 310.72 1185.33 309.6 1186.72 308.72C1188.13 307.84 1189.49 307.187 1190.8 306.76C1192.13 306.333 1193.27 306.12 1194.2 306.12C1195.16 306.12 1195.95 306.373 1196.56 306.88C1197.2 307.387 1197.76 308.12 1198.24 309.08C1198.75 310.013 1199.28 311.147 1199.84 312.48C1200.48 313.92 1201.04 315.013 1201.52 315.76C1202.03 316.48 1202.55 316.973 1203.08 317.24C1203.61 317.48 1204.21 317.6 1204.88 317.6C1205.89 317.6 1206.63 317.867 1207.08 318.4C1207.53 318.907 1207.76 319.547 1207.76 320.32C1207.76 321.147 1207.48 321.84 1206.92 322.4C1206.36 322.933 1205.55 323.2 1204.48 323.2C1203.17 323.2 1202.04 322.987 1201.08 322.56C1200.12 322.107 1199.25 321.467 1198.48 320.64L1199.6 319.4C1199.36 320.227 1199.03 320.973 1198.6 321.64C1198.2 322.28 1197.65 322.787 1196.96 323.16C1196.29 323.533 1195.45 323.72 1194.44 323.72C1193.53 323.72 1192.63 323.587 1191.72 323.32C1190.84 323.053 1189.97 322.653 1189.12 322.12C1188.29 321.587 1187.49 320.933 1186.72 320.16C1185.95 319.36 1185.21 318.44 1184.52 317.4L1186 317.12C1185.41 318.027 1184.99 319.04 1184.72 320.16C1184.45 321.28 1184.32 322.387 1184.32 323.48C1184.32 324.333 1184.39 325.32 1184.52 326.44C1184.68 327.587 1184.88 328.787 1185.12 330.04C1185.36 331.32 1185.63 332.573 1185.92 333.8C1186.24 335.053 1186.55 336.2 1186.84 337.24L1181.4 338.72ZM1194.36 318.08C1194.87 318.08 1195.27 318.013 1195.56 317.88C1195.88 317.72 1196.08 317.493 1196.16 317.2C1196.27 316.907 1196.24 316.56 1196.08 316.16C1195.81 315.44 1195.55 314.813 1195.28 314.28C1195.04 313.747 1194.8 313.293 1194.56 312.92C1194.35 312.547 1194.12 312.267 1193.88 312.08C1193.67 311.893 1193.44 311.8 1193.2 311.8C1192.85 311.8 1192.43 311.92 1191.92 312.16C1191.41 312.373 1190.91 312.64 1190.4 312.96C1189.89 313.28 1189.47 313.6 1189.12 313.92C1188.77 314.213 1188.57 314.44 1188.52 314.6L1188.04 313.28C1188.52 314.213 1189.09 315.053 1189.76 315.8C1190.45 316.52 1191.2 317.08 1192 317.48C1192.8 317.88 1193.59 318.08 1194.36 318.08ZM1204.57 323.2L1204.97 317.6C1205.93 317.6 1206.75 317.507 1207.45 317.32C1208.14 317.133 1208.73 316.76 1209.21 316.2C1209.69 315.613 1210.09 314.76 1210.41 313.64C1210.75 312.52 1211.06 311.027 1211.33 309.16L1216.57 310.04C1216.51 310.44 1216.43 310.907 1216.33 311.44C1216.25 311.973 1216.17 312.52 1216.09 313.08C1216.03 313.613 1216.01 314.12 1216.01 314.6C1216.01 315.08 1216.1 315.507 1216.29 315.88C1216.47 316.253 1216.77 316.573 1217.17 316.84C1217.59 317.08 1218.14 317.267 1218.81 317.4C1219.5 317.533 1220.34 317.6 1221.33 317.6C1222.34 317.6 1223.06 317.867 1223.49 318.4C1223.91 318.907 1224.13 319.547 1224.13 320.32C1224.13 321.147 1223.85 321.84 1223.29 322.4C1222.75 322.933 1221.97 323.2 1220.93 323.2C1219.73 323.2 1218.63 323.107 1217.65 322.92C1216.69 322.733 1215.85 322.427 1215.13 322C1214.43 321.547 1213.86 320.96 1213.41 320.24C1212.98 319.493 1212.71 318.587 1212.61 317.52H1214.53C1214.05 318.8 1213.43 319.827 1212.69 320.6C1211.97 321.347 1211.15 321.907 1210.25 322.28C1209.34 322.653 1208.39 322.893 1207.41 323C1206.45 323.133 1205.5 323.2 1204.57 323.2ZM1217.41 305.56C1216.63 305.56 1215.97 305.293 1215.41 304.76C1214.87 304.2 1214.61 303.547 1214.61 302.8C1214.61 302.027 1214.87 301.36 1215.41 300.8C1215.97 300.24 1216.63 299.96 1217.41 299.96C1218.15 299.96 1218.79 300.24 1219.33 300.8C1219.86 301.36 1220.13 302.027 1220.13 302.8C1220.13 303.547 1219.86 304.2 1219.33 304.76C1218.79 305.293 1218.15 305.56 1217.41 305.56ZM1210.49 305.52C1209.71 305.52 1209.05 305.253 1208.49 304.72C1207.95 304.16 1207.69 303.507 1207.69 302.76C1207.69 301.987 1207.95 301.32 1208.49 300.76C1209.05 300.2 1209.71 299.92 1210.49 299.92C1211.23 299.92 1211.87 300.2 1212.41 300.76C1212.94 301.32 1213.21 301.987 1213.21 302.76C1213.21 303.507 1212.94 304.16 1212.41 304.72C1211.87 305.253 1211.23 305.52 1210.49 305.52ZM1220.93 323.2L1221.33 317.6C1222.21 317.6 1222.93 317.533 1223.49 317.4C1224.05 317.24 1224.51 316.907 1224.85 316.4C1225.23 315.867 1225.55 315.08 1225.81 314.04C1226.11 312.973 1226.43 311.533 1226.77 309.72L1231.97 310.68C1231.87 311.267 1231.72 312 1231.53 312.88C1231.37 313.76 1231.29 314.52 1231.29 315.16C1231.29 315.667 1231.39 316.107 1231.57 316.48C1231.79 316.827 1232.13 317.107 1232.61 317.32C1233.12 317.507 1233.81 317.6 1234.69 317.6C1235.39 317.6 1235.97 317.533 1236.45 317.4C1236.96 317.24 1237.39 316.907 1237.73 316.4C1238.11 315.867 1238.43 315.053 1238.69 313.96C1238.99 312.84 1239.27 311.333 1239.53 309.44L1244.81 310.28C1244.71 310.893 1244.6 311.547 1244.49 312.24C1244.39 312.933 1244.29 313.573 1244.21 314.16C1244.13 314.747 1244.09 315.227 1244.09 315.6C1244.09 315.947 1244.19 316.28 1244.37 316.6C1244.59 316.893 1244.96 317.133 1245.49 317.32C1246.05 317.507 1246.83 317.6 1247.81 317.6C1249.01 317.6 1249.89 317.347 1250.45 316.84C1251.04 316.307 1251.33 315.507 1251.33 314.44C1251.33 313.827 1251.32 313.173 1251.29 312.48C1251.27 311.76 1251.21 310.96 1251.13 310.08C1251.08 309.173 1250.97 308.147 1250.81 307L1255.97 306.6C1256.16 308.893 1256.37 310.76 1256.61 312.2C1256.85 313.64 1257.17 314.76 1257.57 315.56C1258 316.333 1258.56 316.867 1259.25 317.16C1259.97 317.453 1260.91 317.6 1262.05 317.6C1263.07 317.6 1263.79 317.867 1264.21 318.4C1264.67 318.907 1264.89 319.547 1264.89 320.32C1264.89 321.147 1264.61 321.84 1264.05 322.4C1263.52 322.933 1262.72 323.2 1261.65 323.2C1260.93 323.2 1260.19 323.133 1259.41 323C1258.64 322.893 1257.89 322.667 1257.17 322.32C1256.45 321.947 1255.81 321.413 1255.25 320.72C1254.69 320.027 1254.25 319.107 1253.93 317.96L1254.65 318.2C1254.28 319.533 1253.77 320.56 1253.13 321.28C1252.49 322 1251.71 322.507 1250.77 322.8C1249.84 323.067 1248.72 323.2 1247.41 323.2C1246.21 323.2 1245.15 323.04 1244.21 322.72C1243.28 322.4 1242.53 321.88 1241.97 321.16C1241.44 320.413 1241.16 319.413 1241.13 318.16H1242.49C1241.96 319.653 1241.35 320.76 1240.65 321.48C1239.96 322.2 1239.12 322.667 1238.13 322.88C1237.15 323.093 1235.91 323.2 1234.41 323.2C1233.51 323.2 1232.61 323.107 1231.73 322.92C1230.85 322.707 1230.07 322.24 1229.37 321.52C1228.68 320.773 1228.17 319.6 1227.85 318L1230.01 317.92C1229.45 319.493 1228.72 320.653 1227.81 321.4C1226.93 322.147 1225.92 322.64 1224.77 322.88C1223.63 323.093 1222.35 323.2 1220.93 323.2ZM1261.68 323.2L1262.08 317.6C1263.04 317.6 1263.86 317.507 1264.56 317.32C1265.25 317.133 1265.84 316.76 1266.32 316.2C1266.8 315.613 1267.2 314.76 1267.52 313.64C1267.86 312.52 1268.17 311.027 1268.44 309.16L1273.68 310.04C1273.62 310.44 1273.54 310.907 1273.44 311.44C1273.36 311.973 1273.28 312.52 1273.2 313.08C1273.14 313.613 1273.12 314.12 1273.12 314.6C1273.12 315.08 1273.21 315.507 1273.4 315.88C1273.58 316.253 1273.88 316.573 1274.28 316.84C1274.7 317.08 1275.25 317.267 1275.92 317.4C1276.61 317.533 1277.45 317.6 1278.44 317.6C1279.45 317.6 1280.17 317.867 1280.6 318.4C1281.02 318.907 1281.24 319.547 1281.24 320.32C1281.24 321.147 1280.96 321.84 1280.4 322.4C1279.86 322.933 1279.08 323.2 1278.04 323.2C1276.84 323.2 1275.74 323.107 1274.76 322.92C1273.8 322.733 1272.96 322.427 1272.24 322C1271.54 321.547 1270.97 320.96 1270.52 320.24C1270.09 319.493 1269.82 318.587 1269.72 317.52H1271.64C1271.16 318.8 1270.54 319.827 1269.8 320.6C1269.08 321.347 1268.26 321.907 1267.36 322.28C1266.45 322.653 1265.5 322.893 1264.52 323C1263.56 323.133 1262.61 323.2 1261.68 323.2ZM1272.84 332.48C1272.06 332.48 1271.4 332.2 1270.84 331.64C1270.3 331.107 1270.04 330.467 1270.04 329.72C1270.04 328.947 1270.3 328.28 1270.84 327.72C1271.4 327.16 1272.06 326.88 1272.84 326.88C1273.58 326.88 1274.22 327.16 1274.76 327.72C1275.29 328.28 1275.56 328.947 1275.56 329.72C1275.56 330.467 1275.29 331.107 1274.76 331.64C1274.22 332.2 1273.58 332.48 1272.84 332.48ZM1265.92 332.48C1265.14 332.48 1264.48 332.2 1263.92 331.64C1263.38 331.107 1263.12 330.467 1263.12 329.72C1263.12 328.947 1263.38 328.28 1263.92 327.72C1264.48 327.16 1265.14 326.88 1265.92 326.88C1266.66 326.88 1267.3 327.16 1267.84 327.72C1268.37 328.28 1268.64 328.947 1268.64 329.72C1268.64 330.467 1268.37 331.107 1267.84 331.64C1267.3 332.2 1266.66 332.48 1265.92 332.48ZM1278.04 323.2L1278.44 317.6C1279.32 317.6 1280.04 317.533 1280.6 317.4C1281.16 317.24 1281.62 316.907 1281.96 316.4C1282.34 315.867 1282.66 315.08 1282.92 314.04C1283.22 312.973 1283.54 311.533 1283.88 309.72L1289.08 310.68C1289 311.08 1288.91 311.547 1288.8 312.08C1288.7 312.613 1288.6 313.16 1288.52 313.72C1288.44 314.253 1288.4 314.733 1288.4 315.16C1288.4 315.907 1288.64 316.507 1289.12 316.96C1289.6 317.387 1290.51 317.6 1291.84 317.6C1292.51 317.6 1293.08 317.533 1293.56 317.4C1294.07 317.24 1294.5 316.907 1294.84 316.4C1295.22 315.867 1295.54 315.053 1295.8 313.96C1296.1 312.84 1296.38 311.333 1296.64 309.44L1301.92 310.28C1301.82 310.893 1301.71 311.547 1301.6 312.24C1301.5 312.933 1301.4 313.573 1301.32 314.16C1301.24 314.747 1301.2 315.227 1301.2 315.6C1301.2 315.947 1301.3 316.28 1301.48 316.6C1301.7 316.893 1302.07 317.133 1302.6 317.32C1303.16 317.507 1303.95 317.6 1304.96 317.6C1305.68 317.6 1306.3 317.507 1306.8 317.32C1307.34 317.133 1307.74 316.827 1308 316.4C1308.3 315.973 1308.44 315.413 1308.44 314.72C1308.44 313.733 1308.22 312.44 1307.76 310.84C1307.31 309.24 1306.78 307.56 1306.16 305.8L1311.8 304.12C1312.23 305.267 1312.6 306.493 1312.92 307.8C1313.27 309.08 1313.54 310.333 1313.72 311.56C1313.94 312.76 1314.04 313.813 1314.04 314.72C1314.04 316.08 1313.83 317.293 1313.4 318.36C1312.98 319.4 1312.38 320.28 1311.6 321C1310.83 321.72 1309.91 322.267 1308.84 322.64C1307.78 323.013 1306.6 323.2 1305.32 323.2C1303.78 323.2 1302.51 323.053 1301.52 322.76C1300.54 322.44 1299.78 321.92 1299.24 321.2C1298.74 320.453 1298.4 319.44 1298.24 318.16H1299.6C1299.04 319.733 1298.42 320.88 1297.72 321.6C1297.03 322.293 1296.2 322.733 1295.24 322.92C1294.31 323.107 1293.14 323.2 1291.72 323.2C1290.84 323.2 1289.94 323.107 1289 322.92C1288.1 322.707 1287.28 322.227 1286.56 321.48C1285.84 320.733 1285.31 319.573 1284.96 318L1287.12 317.92C1286.56 319.493 1285.83 320.653 1284.92 321.4C1284.04 322.147 1283.03 322.64 1281.88 322.88C1280.74 323.093 1279.46 323.2 1278.04 323.2ZM1136.92 381.88C1136.92 381.267 1136.97 380.547 1137.08 379.72C1137.18 378.893 1137.38 377.96 1137.68 376.92C1137.97 375.853 1138.41 374.667 1139 373.36L1143.92 375.08C1143.62 375.907 1143.37 376.667 1143.16 377.36C1142.94 378.027 1142.78 378.653 1142.68 379.24C1142.57 379.8 1142.52 380.36 1142.52 380.92C1142.52 381.8 1142.7 382.587 1143.08 383.28C1143.48 384 1144.05 384.6 1144.8 385.08C1145.54 385.587 1146.45 385.973 1147.52 386.24C1148.61 386.507 1149.86 386.64 1151.28 386.64C1152.74 386.64 1154.05 386.573 1155.2 386.44C1156.37 386.307 1157.36 386.107 1158.16 385.84C1158.98 385.573 1159.61 385.227 1160.04 384.8C1160.46 384.4 1160.68 383.933 1160.68 383.4C1160.68 383.16 1160.58 382.933 1160.4 382.72C1160.24 382.507 1159.96 382.28 1159.56 382.04C1159.18 381.8 1158.68 381.547 1158.04 381.28C1157.42 381.013 1156.68 380.72 1155.8 380.4L1157.12 374.76C1158.26 375.24 1159.34 375.667 1160.36 376.04C1161.4 376.387 1162.38 376.68 1163.32 376.92C1164.25 377.133 1165.13 377.307 1165.96 377.44C1166.78 377.547 1167.56 377.6 1168.28 377.6C1169.29 377.6 1170.01 377.867 1170.44 378.4C1170.86 378.907 1171.08 379.547 1171.08 380.32C1171.08 381.147 1170.8 381.84 1170.24 382.4C1169.68 382.933 1168.89 383.2 1167.88 383.2C1167.66 383.2 1167.45 383.2 1167.24 383.2C1167.05 383.2 1166.85 383.2 1166.64 383.2C1166.45 383.2 1166.25 383.2 1166.04 383.2C1166.09 383.467 1166.12 383.693 1166.12 383.88C1166.12 384.093 1166.12 384.293 1166.12 384.48C1166.12 385.36 1165.81 386.253 1165.2 387.16C1164.61 388.067 1163.69 388.907 1162.44 389.68C1161.18 390.453 1159.58 391.067 1157.64 391.52C1155.72 392 1153.42 392.24 1150.76 392.24C1147.88 392.24 1145.4 391.867 1143.32 391.12C1141.26 390.4 1139.68 389.267 1138.56 387.72C1137.46 386.2 1136.92 384.253 1136.92 381.88ZM1167.87 383.2L1168.27 377.6C1169.23 377.6 1170.05 377.507 1170.75 377.32C1171.44 377.133 1172.03 376.76 1172.51 376.2C1172.99 375.613 1173.39 374.76 1173.71 373.64C1174.05 372.52 1174.36 371.027 1174.63 369.16L1179.87 370.04C1179.81 370.44 1179.73 370.907 1179.63 371.44C1179.55 371.973 1179.47 372.52 1179.39 373.08C1179.33 373.613 1179.31 374.12 1179.31 374.6C1179.31 375.08 1179.4 375.507 1179.59 375.88C1179.77 376.253 1180.07 376.573 1180.47 376.84C1180.89 377.08 1181.44 377.267 1182.11 377.4C1182.8 377.533 1183.64 377.6 1184.63 377.6C1185.64 377.6 1186.36 377.867 1186.79 378.4C1187.21 378.907 1187.43 379.547 1187.43 380.32C1187.43 381.147 1187.15 381.84 1186.59 382.4C1186.05 382.933 1185.27 383.2 1184.23 383.2C1183.03 383.2 1181.93 383.107 1180.95 382.92C1179.99 382.733 1179.15 382.427 1178.43 382C1177.73 381.547 1177.16 380.96 1176.71 380.24C1176.28 379.493 1176.01 378.587 1175.91 377.52H1177.83C1177.35 378.8 1176.73 379.827 1175.99 380.6C1175.27 381.347 1174.45 381.907 1173.55 382.28C1172.64 382.653 1171.69 382.893 1170.71 383C1169.75 383.133 1168.8 383.2 1167.87 383.2ZM1180.71 365.56C1179.93 365.56 1179.27 365.293 1178.71 364.76C1178.17 364.2 1177.91 363.547 1177.91 362.8C1177.91 362.027 1178.17 361.36 1178.71 360.8C1179.27 360.24 1179.93 359.96 1180.71 359.96C1181.45 359.96 1182.09 360.24 1182.63 360.8C1183.16 361.36 1183.43 362.027 1183.43 362.8C1183.43 363.547 1183.16 364.2 1182.63 364.76C1182.09 365.293 1181.45 365.56 1180.71 365.56ZM1173.79 365.52C1173.01 365.52 1172.35 365.253 1171.79 364.72C1171.25 364.16 1170.99 363.507 1170.99 362.76C1170.99 361.987 1171.25 361.32 1171.79 360.76C1172.35 360.2 1173.01 359.92 1173.79 359.92C1174.53 359.92 1175.17 360.2 1175.71 360.76C1176.24 361.32 1176.51 361.987 1176.51 362.76C1176.51 363.507 1176.24 364.16 1175.71 364.72C1175.17 365.253 1174.53 365.52 1173.79 365.52ZM1184.23 383.2L1184.63 377.6C1186.23 377.6 1187.46 377.52 1188.31 377.36C1189.17 377.2 1189.75 376.907 1190.07 376.48C1190.42 376.027 1190.59 375.387 1190.59 374.56C1190.59 373.813 1190.49 372.92 1190.27 371.88C1190.09 370.84 1189.83 369.76 1189.51 368.64C1189.22 367.52 1188.9 366.493 1188.55 365.56L1194.07 364.04C1194.42 364.947 1194.75 366 1195.07 367.2C1195.39 368.4 1195.66 369.64 1195.87 370.92C1196.09 372.173 1196.19 373.387 1196.19 374.56C1196.19 376.373 1195.9 377.853 1195.31 379C1194.73 380.12 1193.9 380.987 1192.83 381.6C1191.79 382.213 1190.54 382.64 1189.07 382.88C1187.61 383.093 1185.99 383.2 1184.23 383.2ZM1194.11 392.48C1193.34 392.48 1192.67 392.2 1192.11 391.64C1191.58 391.107 1191.31 390.467 1191.31 389.72C1191.31 388.947 1191.58 388.28 1192.11 387.72C1192.67 387.16 1193.34 386.88 1194.11 386.88C1194.86 386.88 1195.5 387.16 1196.03 387.72C1196.57 388.28 1196.83 388.947 1196.83 389.72C1196.83 390.467 1196.57 391.107 1196.03 391.64C1195.5 392.2 1194.86 392.48 1194.11 392.48ZM1187.19 392.48C1186.42 392.48 1185.75 392.2 1185.19 391.64C1184.66 391.107 1184.39 390.467 1184.39 389.72C1184.39 388.947 1184.66 388.28 1185.19 387.72C1185.75 387.16 1186.42 386.88 1187.19 386.88C1187.94 386.88 1188.58 387.16 1189.11 387.72C1189.65 388.28 1189.91 388.947 1189.91 389.72C1189.91 390.467 1189.65 391.107 1189.11 391.64C1188.58 392.2 1187.94 392.48 1187.19 392.48ZM1199.25 392.24L1197.21 387.28C1198.62 386.8 1199.92 386.24 1201.09 385.6C1202.29 384.96 1203.33 384.253 1204.21 383.48C1205.09 382.707 1205.77 381.867 1206.25 380.96C1206.73 380.027 1206.97 379.027 1206.97 377.96C1206.97 376.84 1206.72 375.613 1206.21 374.28C1205.7 372.947 1205.09 371.587 1204.37 370.2L1209.61 367.68C1210.09 368.507 1210.5 369.4 1210.85 370.36C1211.22 371.293 1211.53 372.133 1211.77 372.88C1212.01 373.627 1212.17 374.133 1212.25 374.4C1212.62 375.68 1213.13 376.533 1213.77 376.96C1214.44 377.387 1215.5 377.6 1216.97 377.6C1217.98 377.6 1218.7 377.867 1219.13 378.4C1219.58 378.907 1219.81 379.547 1219.81 380.32C1219.81 381.147 1219.53 381.84 1218.97 382.4C1218.41 382.933 1217.61 383.2 1216.57 383.2C1215.48 383.2 1214.52 383.04 1213.69 382.72C1212.86 382.4 1212.2 381.933 1211.69 381.32C1211.21 380.707 1210.9 379.987 1210.77 379.16L1212.25 380C1212.09 381.413 1211.62 382.747 1210.85 384C1210.1 385.28 1209.13 386.453 1207.93 387.52C1206.73 388.587 1205.38 389.52 1203.89 390.32C1202.4 391.12 1200.85 391.76 1199.25 392.24ZM1216.62 383.2L1217.02 377.6C1218.62 377.6 1219.84 377.52 1220.7 377.36C1221.55 377.2 1222.14 376.907 1222.46 376.48C1222.8 376.027 1222.98 375.387 1222.98 374.56C1222.98 373.813 1222.87 372.92 1222.66 371.88C1222.47 370.84 1222.22 369.76 1221.9 368.64C1221.6 367.52 1221.28 366.493 1220.94 365.56L1226.46 364.04C1226.8 364.947 1227.14 366 1227.46 367.2C1227.78 368.4 1228.04 369.64 1228.26 370.92C1228.47 372.173 1228.58 373.387 1228.58 374.56C1228.58 376.373 1228.28 377.853 1227.7 379C1227.11 380.12 1226.28 380.987 1225.22 381.6C1224.18 382.213 1222.92 382.64 1221.46 382.88C1219.99 383.093 1218.38 383.2 1216.62 383.2ZM1226.5 392.48C1225.72 392.48 1225.06 392.2 1224.5 391.64C1223.96 391.107 1223.7 390.467 1223.7 389.72C1223.7 388.947 1223.96 388.28 1224.5 387.72C1225.06 387.16 1225.72 386.88 1226.5 386.88C1227.24 386.88 1227.88 387.16 1228.42 387.72C1228.95 388.28 1229.22 388.947 1229.22 389.72C1229.22 390.467 1228.95 391.107 1228.42 391.64C1227.88 392.2 1227.24 392.48 1226.5 392.48ZM1219.58 392.48C1218.8 392.48 1218.14 392.2 1217.58 391.64C1217.04 391.107 1216.78 390.467 1216.78 389.72C1216.78 388.947 1217.04 388.28 1217.58 387.72C1218.14 387.16 1218.8 386.88 1219.58 386.88C1220.32 386.88 1220.96 387.16 1221.5 387.72C1222.03 388.28 1222.3 388.947 1222.3 389.72C1222.3 390.467 1222.03 391.107 1221.5 391.64C1220.96 392.2 1220.32 392.48 1219.58 392.48ZM1239.71 377.6C1240.91 377.6 1241.83 377.493 1242.47 377.28C1243.11 377.067 1243.55 376.787 1243.79 376.44C1244.03 376.093 1244.15 375.72 1244.15 375.32C1244.15 374.68 1243.97 373.933 1243.59 373.08C1243.25 372.227 1242.81 371.333 1242.27 370.4C1241.74 369.467 1241.18 368.573 1240.59 367.72C1240.03 366.867 1239.53 366.12 1239.07 365.48L1243.83 362.32C1244.98 363.867 1245.97 365.4 1246.79 366.92C1247.62 368.413 1248.29 369.8 1248.79 371.08C1249.33 372.36 1249.7 373.453 1249.91 374.36C1250.13 375.213 1250.45 375.88 1250.87 376.36C1251.33 376.813 1251.85 377.133 1252.43 377.32C1253.02 377.507 1253.61 377.6 1254.19 377.6C1255.21 377.6 1255.93 377.867 1256.35 378.4C1256.81 378.907 1257.03 379.547 1257.03 380.32C1257.03 381.147 1256.75 381.84 1256.19 382.4C1255.66 382.933 1254.86 383.2 1253.79 383.2C1252.62 383.2 1251.59 383.04 1250.71 382.72C1249.83 382.4 1249.09 381.893 1248.47 381.2C1247.86 380.507 1247.34 379.627 1246.91 378.56L1249.35 379.08C1249.14 379.827 1248.65 380.52 1247.87 381.16C1247.13 381.773 1246.13 382.28 1244.87 382.68C1243.65 383.053 1242.19 383.24 1240.51 383.24C1239.71 383.24 1238.82 383.173 1237.83 383.04C1236.87 382.907 1235.91 382.707 1234.95 382.44C1234.02 382.173 1233.17 381.827 1232.39 381.4L1234.35 376.32C1235.34 376.747 1236.29 377.067 1237.19 377.28C1238.13 377.493 1238.97 377.6 1239.71 377.6ZM1253.84 383.2L1254.24 377.6C1254.86 377.6 1255.38 377.453 1255.8 377.16C1256.26 376.84 1256.72 376.32 1257.2 375.6C1257.68 374.853 1258.24 373.853 1258.88 372.6C1259.68 371 1260.51 369.747 1261.36 368.84C1262.24 367.933 1263.14 367.293 1264.04 366.92C1264.98 366.52 1265.91 366.32 1266.84 366.32C1268.02 366.32 1269.11 366.573 1270.12 367.08C1271.14 367.587 1272.02 368.28 1272.76 369.16C1273.51 370.013 1274.08 371 1274.48 372.12C1274.91 373.213 1275.12 374.347 1275.12 375.52C1275.12 376.933 1274.82 378.213 1274.2 379.36C1273.62 380.48 1272.79 381.373 1271.72 382.04C1270.68 382.68 1269.48 383 1268.12 383C1266.98 383 1265.64 382.8 1264.12 382.4C1262.6 382 1261 381.16 1259.32 379.88L1261.36 375.04C1262.56 375.867 1263.68 376.467 1264.72 376.84C1265.79 377.213 1266.67 377.4 1267.36 377.4C1267.9 377.4 1268.34 377.347 1268.68 377.24C1269.03 377.133 1269.28 376.96 1269.44 376.72C1269.6 376.48 1269.68 376.16 1269.68 375.76C1269.68 375.2 1269.55 374.627 1269.28 374.04C1269.02 373.453 1268.66 372.96 1268.2 372.56C1267.78 372.133 1267.27 371.92 1266.68 371.92C1266.12 371.92 1265.64 372.133 1265.24 372.56C1264.87 372.96 1264.5 373.547 1264.12 374.32C1263.78 375.067 1263.35 375.947 1262.84 376.96C1262.23 378.187 1261.63 379.213 1261.04 380.04C1260.46 380.84 1259.83 381.48 1259.16 381.96C1258.52 382.413 1257.76 382.733 1256.88 382.92C1256.03 383.107 1255.02 383.2 1253.84 383.2Z" fill="white"/>
<path d="M1100.4 511.515C1104.86 503.78 1104.86 494.25 1100.4 486.515L1025.53 356.838C1021.06 349.103 1012.81 344.338 1003.88 344.338H854.139C845.207 344.338 836.954 349.103 832.488 356.838L757.619 486.515C753.153 494.25 753.153 503.78 757.619 511.515L832.488 641.193C836.954 648.928 845.207 653.693 854.139 653.693H1003.88C1012.81 653.693 1021.06 648.928 1025.53 641.193L1100.4 511.515Z" fill="#89C958" fill-opacity="0.78"/>
</g>
<defs>
<clipPath id="clip0_1597_666">
<rect width="1440" height="567" fill="white" transform="matrix(-1 0 0 1 1440 0)"/>
</clipPath>
</defs>
</svg>
