<svg width="1440" height="567" viewBox="0 0 1440 567" fill="none" xmlns="http://www.w3.org/2000/svg">
<g clip-path="url(#clip0_1591_595)">
<path d="M-216.783 191.106C-221.249 183.371 -221.249 173.841 -216.783 166.106L-141.914 36.4287C-137.448 28.6937 -129.195 23.9287 -120.263 23.9287H29.4753C38.407 23.9287 46.6602 28.6937 51.126 36.4287L125.996 166.106C130.461 173.841 130.461 183.371 125.996 191.106L51.126 320.784C46.6601 328.519 38.407 333.284 29.4753 333.284H-120.263C-129.195 333.284 -137.448 328.519 -141.914 320.784L-216.783 191.106Z" fill="#89C958" fill-opacity="0.78"/>
<path d="M61.4099 671.719C56.9441 663.984 56.9441 654.454 61.4099 646.719L136.28 517.042C140.745 509.307 148.999 504.542 157.93 504.542H307.669C316.601 504.542 324.854 509.307 329.32 517.042L404.189 646.719C408.655 654.454 408.655 663.984 404.189 671.719L329.32 801.397C324.854 809.132 316.601 813.897 307.669 813.897H157.93C148.999 813.897 140.745 809.132 136.28 801.397L61.4099 671.719Z" fill="#89C958" fill-opacity="0.78"/>
<path d="M-216.783 511.515C-221.249 503.78 -221.249 494.25 -216.783 486.515L-141.914 356.838C-137.448 349.103 -129.195 344.338 -120.263 344.338H29.4753C38.407 344.338 46.6602 349.103 51.126 356.838L125.996 486.515C130.461 494.25 130.461 503.78 125.996 511.515L51.126 641.193C46.6601 648.928 38.407 653.693 29.4753 653.693H-120.263C-129.195 653.693 -137.448 648.928 -141.914 641.193L-216.783 511.515Z" fill="#89C958" fill-opacity="0.78"/>
<path d="M617.797 671.719C613.331 663.984 613.331 654.454 617.797 646.719L692.666 517.042C697.132 509.307 705.385 504.542 714.317 504.542H864.056C872.987 504.542 881.241 509.307 885.706 517.042L960.576 646.719C965.042 654.454 965.042 663.984 960.576 671.719L885.706 801.397C881.241 809.132 872.987 813.897 864.056 813.897H714.317C705.385 813.897 697.132 809.132 692.666 801.397L617.797 671.719Z" fill="#89C958" fill-opacity="0.78"/>
<path d="M895.987 511.515C891.522 503.78 891.522 494.25 895.987 486.515L970.857 356.838C975.323 349.103 983.576 344.338 992.507 344.338H1142.25C1151.18 344.338 1159.43 349.103 1163.9 356.838L1238.77 486.515C1243.23 494.25 1243.23 503.78 1238.77 511.515L1163.9 641.193C1159.43 648.928 1151.18 653.693 1142.25 653.693H992.507C983.576 653.693 975.323 648.928 970.857 641.193L895.987 511.515Z" fill="#89C958" fill-opacity="0.78"/>
<path d="M1174.18 671.719C1169.71 663.984 1169.71 654.454 1174.18 646.719L1249.05 517.042C1253.52 509.307 1261.77 504.542 1270.7 504.542H1420.44C1429.37 504.542 1437.62 509.307 1442.09 517.042L1516.96 646.719C1521.43 654.454 1521.43 663.984 1516.96 671.719L1442.09 801.397C1437.62 809.132 1429.37 813.897 1420.44 813.897H1270.7C1261.77 813.897 1253.52 809.132 1249.05 801.397L1174.18 671.719Z" fill="#89C958" fill-opacity="0.78"/>
<path d="M61.4099 351.311C56.9441 343.576 56.9441 334.046 61.4099 326.311L136.28 196.633C140.745 188.898 148.999 184.133 157.93 184.133H307.669C316.601 184.133 324.854 188.898 329.32 196.633L404.189 326.311C408.655 334.046 408.655 343.576 404.189 351.311L329.32 480.988C324.854 488.723 316.601 493.488 307.669 493.488H157.93C148.999 493.488 140.745 488.723 136.28 480.988L61.4099 351.311Z" fill="#89C958" fill-opacity="0.78"/>
<path d="M105.081 307.008H110.662L118.879 330.497L127.097 307.008H132.678L121.121 339H116.638L105.081 307.008ZM102.07 307.008H107.629L108.64 329.903V339H102.07V307.008ZM130.129 307.008H135.71V339H129.119V329.903L130.129 307.008ZM153.926 333.639V323.048C153.926 322.286 153.801 321.634 153.552 321.092C153.303 320.536 152.915 320.104 152.388 319.796C151.875 319.488 151.208 319.334 150.388 319.334C149.685 319.334 149.077 319.459 148.564 319.708C148.052 319.942 147.656 320.287 147.378 320.741C147.1 321.18 146.96 321.7 146.96 322.301H140.632C140.632 321.29 140.867 320.331 141.335 319.422C141.804 318.514 142.485 317.716 143.379 317.027C144.272 316.324 145.334 315.775 146.565 315.379C147.81 314.984 149.202 314.786 150.74 314.786C152.585 314.786 154.226 315.094 155.662 315.709C157.097 316.324 158.225 317.247 159.045 318.478C159.88 319.708 160.298 321.246 160.298 323.092V333.265C160.298 334.569 160.378 335.638 160.54 336.473C160.701 337.293 160.935 338.011 161.243 338.626V339H154.849C154.541 338.355 154.307 337.55 154.146 336.583C153.999 335.602 153.926 334.62 153.926 333.639ZM154.761 324.52L154.805 328.102H151.267C150.432 328.102 149.707 328.197 149.092 328.387C148.477 328.578 147.971 328.849 147.576 329.2C147.18 329.537 146.887 329.933 146.697 330.387C146.521 330.841 146.433 331.339 146.433 331.881C146.433 332.423 146.558 332.914 146.807 333.353C147.056 333.778 147.415 334.115 147.883 334.364C148.352 334.598 148.901 334.715 149.531 334.715C150.483 334.715 151.311 334.525 152.014 334.144C152.717 333.763 153.259 333.294 153.64 332.738C154.036 332.181 154.241 331.654 154.255 331.156L155.925 333.836C155.691 334.437 155.369 335.06 154.958 335.704C154.563 336.349 154.058 336.957 153.442 337.528C152.827 338.084 152.087 338.546 151.223 338.912C150.359 339.264 149.333 339.439 148.147 339.439C146.638 339.439 145.269 339.139 144.038 338.539C142.822 337.923 141.855 337.081 141.138 336.012C140.435 334.928 140.083 333.697 140.083 332.32C140.083 331.075 140.317 329.969 140.786 329.002C141.255 328.036 141.943 327.223 142.852 326.563C143.774 325.89 144.924 325.384 146.301 325.047C147.678 324.696 149.275 324.52 151.091 324.52H154.761ZM171.372 320.301V339H165.044V315.226H170.977L171.372 320.301ZM170.449 326.278H168.735C168.735 324.52 168.962 322.938 169.417 321.532C169.871 320.111 170.508 318.902 171.328 317.906C172.148 316.896 173.123 316.126 174.25 315.599C175.393 315.057 176.667 314.786 178.074 314.786C179.187 314.786 180.205 314.947 181.128 315.27C182.051 315.592 182.842 316.104 183.501 316.808C184.175 317.511 184.688 318.441 185.039 319.598C185.405 320.755 185.588 322.169 185.588 323.839V339H179.216V323.817C179.216 322.762 179.07 321.942 178.777 321.356C178.484 320.77 178.052 320.36 177.48 320.125C176.924 319.876 176.235 319.752 175.415 319.752C174.565 319.752 173.826 319.92 173.196 320.257C172.581 320.594 172.068 321.063 171.658 321.664C171.262 322.25 170.962 322.938 170.757 323.729C170.552 324.52 170.449 325.37 170.449 326.278ZM203.232 333.639V323.048C203.232 322.286 203.108 321.634 202.859 321.092C202.61 320.536 202.222 320.104 201.694 319.796C201.182 319.488 200.515 319.334 199.695 319.334C198.992 319.334 198.384 319.459 197.871 319.708C197.358 319.942 196.963 320.287 196.685 320.741C196.406 321.18 196.267 321.7 196.267 322.301H189.939C189.939 321.29 190.173 320.331 190.642 319.422C191.111 318.514 191.792 317.716 192.686 317.027C193.579 316.324 194.641 315.775 195.872 315.379C197.117 314.984 198.508 314.786 200.046 314.786C201.892 314.786 203.533 315.094 204.968 315.709C206.404 316.324 207.532 317.247 208.352 318.478C209.187 319.708 209.604 321.246 209.604 323.092V333.265C209.604 334.569 209.685 335.638 209.846 336.473C210.007 337.293 210.242 338.011 210.549 338.626V339H204.155C203.848 338.355 203.613 337.55 203.452 336.583C203.306 335.602 203.232 334.62 203.232 333.639ZM204.067 324.52L204.111 328.102H200.574C199.739 328.102 199.014 328.197 198.398 328.387C197.783 328.578 197.278 328.849 196.882 329.2C196.487 329.537 196.194 329.933 196.003 330.387C195.828 330.841 195.74 331.339 195.74 331.881C195.74 332.423 195.864 332.914 196.113 333.353C196.362 333.778 196.721 334.115 197.19 334.364C197.659 334.598 198.208 334.715 198.838 334.715C199.79 334.715 200.618 334.525 201.321 334.144C202.024 333.763 202.566 333.294 202.947 332.738C203.342 332.181 203.547 331.654 203.562 331.156L205.232 333.836C204.998 334.437 204.675 335.06 204.265 335.704C203.87 336.349 203.364 336.957 202.749 337.528C202.134 338.084 201.394 338.546 200.53 338.912C199.666 339.264 198.64 339.439 197.454 339.439C195.945 339.439 194.575 339.139 193.345 338.539C192.129 337.923 191.162 337.081 190.444 336.012C189.741 334.928 189.39 333.697 189.39 332.32C189.39 331.075 189.624 329.969 190.093 329.002C190.562 328.036 191.25 327.223 192.158 326.563C193.081 325.89 194.231 325.384 195.608 325.047C196.985 324.696 198.582 324.52 200.398 324.52H204.067ZM229.534 315.226H235.269V338.209C235.269 340.377 234.785 342.215 233.818 343.724C232.866 345.248 231.533 346.397 229.819 347.174C228.105 347.965 226.113 348.36 223.843 348.36C222.847 348.36 221.792 348.229 220.679 347.965C219.58 347.701 218.525 347.291 217.515 346.734C216.519 346.178 215.684 345.475 215.01 344.625L217.8 340.89C218.533 341.739 219.382 342.398 220.349 342.867C221.316 343.351 222.385 343.592 223.557 343.592C224.7 343.592 225.667 343.38 226.458 342.955C227.249 342.545 227.856 341.937 228.281 341.131C228.706 340.34 228.918 339.381 228.918 338.253V320.719L229.534 315.226ZM213.538 327.398V326.937C213.538 325.121 213.757 323.473 214.197 321.993C214.651 320.499 215.288 319.217 216.108 318.148C216.943 317.079 217.954 316.251 219.141 315.665C220.327 315.079 221.667 314.786 223.162 314.786C224.744 314.786 226.069 315.079 227.139 315.665C228.208 316.251 229.087 317.086 229.775 318.17C230.464 319.239 230.999 320.506 231.379 321.971C231.775 323.421 232.083 325.011 232.302 326.739V327.75C232.083 329.405 231.753 330.943 231.313 332.364C230.874 333.785 230.295 335.03 229.578 336.1C228.86 337.154 227.966 337.975 226.897 338.561C225.842 339.146 224.583 339.439 223.118 339.439C221.653 339.439 220.327 339.139 219.141 338.539C217.969 337.938 216.965 337.096 216.13 336.012C215.295 334.928 214.651 333.653 214.197 332.188C213.757 330.724 213.538 329.127 213.538 327.398ZM219.866 326.937V327.398C219.866 328.38 219.961 329.295 220.151 330.145C220.342 330.995 220.635 331.749 221.03 332.408C221.44 333.053 221.946 333.558 222.546 333.924C223.162 334.276 223.887 334.452 224.722 334.452C225.879 334.452 226.824 334.21 227.556 333.727C228.289 333.229 228.838 332.547 229.204 331.683C229.57 330.819 229.783 329.823 229.841 328.695V325.816C229.812 324.894 229.688 324.066 229.468 323.333C229.248 322.586 228.94 321.949 228.545 321.422C228.149 320.895 227.637 320.484 227.007 320.191C226.377 319.898 225.63 319.752 224.766 319.752C223.931 319.752 223.206 319.942 222.59 320.323C221.99 320.689 221.484 321.195 221.074 321.839C220.679 322.484 220.378 323.246 220.173 324.125C219.968 324.989 219.866 325.926 219.866 326.937ZM251.133 339.439C249.287 339.439 247.632 339.146 246.167 338.561C244.702 337.96 243.457 337.132 242.432 336.078C241.421 335.023 240.645 333.8 240.103 332.408C239.561 331.002 239.29 329.508 239.29 327.926V327.047C239.29 325.245 239.546 323.597 240.059 322.103C240.571 320.609 241.304 319.312 242.256 318.214C243.223 317.115 244.395 316.273 245.771 315.687C247.148 315.086 248.701 314.786 250.43 314.786C252.114 314.786 253.608 315.064 254.912 315.621C256.216 316.178 257.307 316.969 258.186 317.994C259.08 319.02 259.753 320.25 260.208 321.686C260.662 323.106 260.889 324.688 260.889 326.432V329.068H241.992V324.85H254.67V324.366C254.67 323.487 254.509 322.704 254.187 322.015C253.879 321.312 253.411 320.755 252.781 320.345C252.151 319.935 251.345 319.73 250.364 319.73C249.529 319.73 248.811 319.913 248.21 320.279C247.61 320.646 247.119 321.158 246.738 321.817C246.372 322.477 246.094 323.253 245.903 324.146C245.728 325.025 245.64 325.992 245.64 327.047V327.926C245.64 328.878 245.771 329.757 246.035 330.562C246.313 331.368 246.702 332.064 247.2 332.65C247.712 333.236 248.328 333.69 249.045 334.012C249.778 334.334 250.605 334.496 251.528 334.496C252.671 334.496 253.733 334.276 254.714 333.836C255.71 333.382 256.567 332.701 257.285 331.793L260.361 335.133C259.863 335.851 259.182 336.539 258.318 337.198C257.468 337.857 256.443 338.399 255.242 338.824C254.041 339.234 252.671 339.439 251.133 339.439ZM270.82 320.147V339H264.47V315.226H270.425L270.82 320.147ZM269.941 326.278H268.184C268.184 324.623 268.381 323.099 268.777 321.708C269.187 320.301 269.78 319.085 270.557 318.06C271.348 317.02 272.322 316.214 273.479 315.643C274.636 315.072 275.977 314.786 277.5 314.786C278.555 314.786 279.521 314.947 280.4 315.27C281.279 315.577 282.034 316.068 282.664 316.742C283.308 317.401 283.806 318.265 284.158 319.334C284.509 320.389 284.685 321.656 284.685 323.136V339H278.357V323.839C278.357 322.755 278.21 321.92 277.917 321.334C277.625 320.748 277.207 320.338 276.665 320.104C276.138 319.869 275.5 319.752 274.753 319.752C273.933 319.752 273.215 319.92 272.6 320.257C272 320.594 271.501 321.063 271.106 321.664C270.71 322.25 270.417 322.938 270.227 323.729C270.037 324.52 269.941 325.37 269.941 326.278ZM284.092 325.553L281.829 325.838C281.829 324.286 282.019 322.843 282.4 321.51C282.795 320.177 283.374 319.005 284.136 317.994C284.912 316.983 285.872 316.2 287.014 315.643C288.157 315.072 289.475 314.786 290.969 314.786C292.112 314.786 293.152 314.955 294.089 315.292C295.027 315.614 295.825 316.134 296.484 316.852C297.158 317.555 297.671 318.478 298.022 319.62C298.389 320.763 298.572 322.162 298.572 323.817V339H292.222V323.817C292.222 322.718 292.075 321.883 291.782 321.312C291.504 320.726 291.094 320.323 290.552 320.104C290.024 319.869 289.395 319.752 288.662 319.752C287.9 319.752 287.234 319.906 286.663 320.213C286.091 320.506 285.615 320.917 285.234 321.444C284.854 321.971 284.568 322.586 284.377 323.29C284.187 323.978 284.092 324.732 284.092 325.553ZM314.414 339.439C312.568 339.439 310.913 339.146 309.448 338.561C307.983 337.96 306.738 337.132 305.713 336.078C304.702 335.023 303.926 333.8 303.384 332.408C302.842 331.002 302.571 329.508 302.571 327.926V327.047C302.571 325.245 302.827 323.597 303.34 322.103C303.853 320.609 304.585 319.312 305.537 318.214C306.504 317.115 307.676 316.273 309.053 315.687C310.43 315.086 311.982 314.786 313.711 314.786C315.396 314.786 316.89 315.064 318.193 315.621C319.497 316.178 320.588 316.969 321.467 317.994C322.361 319.02 323.035 320.25 323.489 321.686C323.943 323.106 324.17 324.688 324.17 326.432V329.068H305.273V324.85H317.952V324.366C317.952 323.487 317.791 322.704 317.468 322.015C317.161 321.312 316.692 320.755 316.062 320.345C315.432 319.935 314.626 319.73 313.645 319.73C312.81 319.73 312.092 319.913 311.492 320.279C310.891 320.646 310.4 321.158 310.02 321.817C309.653 322.477 309.375 323.253 309.185 324.146C309.009 325.025 308.921 325.992 308.921 327.047V327.926C308.921 328.878 309.053 329.757 309.316 330.562C309.595 331.368 309.983 332.064 310.481 332.65C310.994 333.236 311.609 333.69 312.327 334.012C313.059 334.334 313.887 334.496 314.81 334.496C315.952 334.496 317.014 334.276 317.996 333.836C318.992 333.382 319.849 332.701 320.566 331.793L323.643 335.133C323.145 335.851 322.463 336.539 321.599 337.198C320.75 337.857 319.724 338.399 318.523 338.824C317.322 339.234 315.952 339.439 314.414 339.439ZM333.97 320.301V339H327.642V315.226H333.574L333.97 320.301ZM333.047 326.278H331.333C331.333 324.52 331.56 322.938 332.014 321.532C332.468 320.111 333.105 318.902 333.926 317.906C334.746 316.896 335.72 316.126 336.848 315.599C337.991 315.057 339.265 314.786 340.671 314.786C341.785 314.786 342.803 314.947 343.726 315.27C344.648 315.592 345.439 316.104 346.099 316.808C346.772 317.511 347.285 318.441 347.637 319.598C348.003 320.755 348.186 322.169 348.186 323.839V339H341.814V323.817C341.814 322.762 341.667 321.942 341.375 321.356C341.082 320.77 340.649 320.36 340.078 320.125C339.521 319.876 338.833 319.752 338.013 319.752C337.163 319.752 336.423 319.92 335.793 320.257C335.178 320.594 334.666 321.063 334.255 321.664C333.86 322.25 333.56 322.938 333.354 323.729C333.149 324.52 333.047 325.37 333.047 326.278ZM364.644 315.226V319.708H350.801V315.226H364.644ZM354.229 309.359H360.557V331.837C360.557 332.525 360.645 333.053 360.82 333.419C361.011 333.785 361.289 334.042 361.655 334.188C362.021 334.32 362.483 334.386 363.04 334.386C363.435 334.386 363.787 334.371 364.094 334.342C364.417 334.298 364.688 334.254 364.907 334.21L364.929 338.868C364.387 339.044 363.801 339.183 363.171 339.286C362.542 339.388 361.846 339.439 361.084 339.439C359.692 339.439 358.477 339.212 357.437 338.758C356.411 338.29 355.62 337.542 355.063 336.517C354.507 335.492 354.229 334.144 354.229 332.474V309.359ZM164.429 383.628C164.429 383.057 164.341 382.544 164.165 382.09C164.004 381.622 163.696 381.197 163.242 380.816C162.788 380.42 162.151 380.032 161.331 379.651C160.51 379.271 159.448 378.875 158.145 378.465C156.694 377.996 155.317 377.469 154.014 376.883C152.725 376.297 151.582 375.616 150.586 374.839C149.604 374.048 148.828 373.133 148.257 372.093C147.7 371.053 147.422 369.844 147.422 368.467C147.422 367.134 147.715 365.926 148.301 364.842C148.887 363.743 149.707 362.806 150.762 362.029C151.816 361.238 153.062 360.63 154.497 360.206C155.947 359.781 157.537 359.568 159.265 359.568C161.624 359.568 163.682 359.993 165.439 360.843C167.197 361.692 168.56 362.857 169.526 364.336C170.508 365.816 170.999 367.508 170.999 369.412H164.451C164.451 368.475 164.253 367.654 163.857 366.951C163.477 366.233 162.891 365.669 162.1 365.259C161.323 364.849 160.342 364.644 159.155 364.644C158.013 364.644 157.061 364.82 156.299 365.171C155.537 365.508 154.966 365.97 154.585 366.556C154.204 367.127 154.014 367.771 154.014 368.489C154.014 369.031 154.146 369.522 154.409 369.961C154.688 370.401 155.098 370.811 155.64 371.192C156.182 371.573 156.848 371.932 157.639 372.269C158.43 372.605 159.346 372.935 160.386 373.257C162.129 373.785 163.66 374.378 164.978 375.037C166.311 375.696 167.424 376.436 168.318 377.256C169.211 378.077 169.885 379.007 170.339 380.047C170.793 381.087 171.021 382.266 171.021 383.584C171.021 384.976 170.75 386.221 170.208 387.32C169.666 388.418 168.882 389.349 167.856 390.11C166.831 390.872 165.608 391.451 164.187 391.846C162.766 392.242 161.177 392.439 159.419 392.439C157.837 392.439 156.277 392.234 154.739 391.824C153.201 391.399 151.802 390.762 150.542 389.913C149.297 389.063 148.301 387.979 147.554 386.661C146.807 385.342 146.433 383.782 146.433 381.98H153.047C153.047 382.977 153.201 383.819 153.508 384.507C153.816 385.196 154.248 385.752 154.805 386.177C155.376 386.602 156.05 386.91 156.826 387.1C157.617 387.291 158.481 387.386 159.419 387.386C160.562 387.386 161.499 387.225 162.231 386.902C162.979 386.58 163.528 386.133 163.879 385.562C164.246 384.991 164.429 384.346 164.429 383.628ZM182.161 389.319L188.467 368.226H195.256L185.698 395.582C185.493 396.182 185.215 396.827 184.863 397.515C184.526 398.204 184.065 398.855 183.479 399.471C182.908 400.101 182.183 400.613 181.304 401.009C180.439 401.404 179.377 401.602 178.118 401.602C177.517 401.602 177.026 401.565 176.646 401.492C176.265 401.419 175.811 401.316 175.283 401.185V396.548C175.444 396.548 175.613 396.548 175.789 396.548C175.964 396.563 176.133 396.57 176.294 396.57C177.129 396.57 177.81 396.475 178.337 396.285C178.865 396.094 179.29 395.801 179.612 395.406C179.934 395.025 180.19 394.527 180.381 393.912L182.161 389.319ZM179.524 368.226L184.688 385.452L185.588 392.154L181.282 392.615L172.734 368.226H179.524ZM210.637 385.43C210.637 384.976 210.505 384.566 210.242 384.2C209.978 383.833 209.487 383.497 208.77 383.189C208.066 382.867 207.048 382.574 205.715 382.31C204.514 382.046 203.394 381.717 202.354 381.321C201.328 380.911 200.435 380.42 199.673 379.849C198.926 379.278 198.34 378.604 197.915 377.828C197.49 377.037 197.278 376.136 197.278 375.125C197.278 374.129 197.49 373.191 197.915 372.312C198.354 371.434 198.977 370.657 199.783 369.983C200.603 369.295 201.599 368.76 202.771 368.379C203.958 367.984 205.291 367.786 206.77 367.786C208.835 367.786 210.608 368.116 212.087 368.775C213.582 369.434 214.724 370.342 215.515 371.5C216.321 372.642 216.724 373.946 216.724 375.411H210.396C210.396 374.795 210.264 374.246 210 373.763C209.751 373.265 209.355 372.876 208.813 372.598C208.286 372.305 207.598 372.159 206.748 372.159C206.045 372.159 205.437 372.283 204.924 372.532C204.412 372.767 204.016 373.089 203.738 373.499C203.474 373.895 203.342 374.334 203.342 374.817C203.342 375.184 203.416 375.513 203.562 375.806C203.723 376.084 203.979 376.341 204.331 376.575C204.683 376.81 205.137 377.029 205.693 377.234C206.265 377.425 206.968 377.601 207.803 377.762C209.517 378.113 211.047 378.575 212.395 379.146C213.743 379.703 214.812 380.464 215.603 381.431C216.394 382.383 216.79 383.636 216.79 385.188C216.79 386.243 216.555 387.21 216.086 388.089C215.618 388.968 214.944 389.737 214.065 390.396C213.186 391.041 212.131 391.546 210.901 391.912C209.685 392.264 208.315 392.439 206.792 392.439C204.58 392.439 202.705 392.044 201.167 391.253C199.644 390.462 198.486 389.458 197.695 388.243C196.919 387.012 196.531 385.752 196.531 384.463H202.529C202.559 385.328 202.778 386.023 203.188 386.551C203.613 387.078 204.148 387.459 204.792 387.693C205.452 387.928 206.162 388.045 206.924 388.045C207.744 388.045 208.425 387.935 208.967 387.715C209.509 387.481 209.919 387.173 210.198 386.792C210.491 386.397 210.637 385.943 210.637 385.43ZM232.544 368.226V372.708H218.701V368.226H232.544ZM222.129 362.359H228.457V384.837C228.457 385.525 228.545 386.053 228.721 386.419C228.911 386.785 229.189 387.042 229.556 387.188C229.922 387.32 230.383 387.386 230.94 387.386C231.335 387.386 231.687 387.371 231.995 387.342C232.317 387.298 232.588 387.254 232.808 387.21L232.83 391.868C232.288 392.044 231.702 392.183 231.072 392.286C230.442 392.388 229.746 392.439 228.984 392.439C227.593 392.439 226.377 392.212 225.337 391.758C224.312 391.29 223.521 390.542 222.964 389.517C222.407 388.492 222.129 387.144 222.129 385.474V362.359ZM247.09 392.439C245.244 392.439 243.589 392.146 242.124 391.561C240.659 390.96 239.414 390.132 238.389 389.078C237.378 388.023 236.602 386.8 236.06 385.408C235.518 384.002 235.247 382.508 235.247 380.926V380.047C235.247 378.245 235.503 376.597 236.016 375.103C236.528 373.609 237.261 372.312 238.213 371.214C239.18 370.115 240.352 369.273 241.729 368.687C243.105 368.086 244.658 367.786 246.387 367.786C248.071 367.786 249.565 368.064 250.869 368.621C252.173 369.178 253.264 369.969 254.143 370.994C255.037 372.02 255.71 373.25 256.165 374.686C256.619 376.106 256.846 377.688 256.846 379.432V382.068H237.949V377.85H250.627V377.366C250.627 376.487 250.466 375.704 250.144 375.015C249.836 374.312 249.368 373.755 248.738 373.345C248.108 372.935 247.302 372.73 246.321 372.73C245.486 372.73 244.768 372.913 244.167 373.279C243.567 373.646 243.076 374.158 242.695 374.817C242.329 375.477 242.051 376.253 241.86 377.146C241.685 378.025 241.597 378.992 241.597 380.047V380.926C241.597 381.878 241.729 382.757 241.992 383.562C242.271 384.368 242.659 385.064 243.157 385.65C243.669 386.236 244.285 386.69 245.002 387.012C245.735 387.334 246.562 387.496 247.485 387.496C248.628 387.496 249.69 387.276 250.671 386.836C251.667 386.382 252.524 385.701 253.242 384.793L256.318 388.133C255.82 388.851 255.139 389.539 254.275 390.198C253.425 390.857 252.4 391.399 251.199 391.824C249.998 392.234 248.628 392.439 247.09 392.439ZM266.777 373.147V392H260.427V368.226H266.382L266.777 373.147ZM265.898 379.278H264.141C264.141 377.623 264.338 376.099 264.734 374.708C265.144 373.301 265.737 372.085 266.514 371.06C267.305 370.02 268.279 369.214 269.436 368.643C270.593 368.072 271.934 367.786 273.457 367.786C274.512 367.786 275.479 367.947 276.357 368.27C277.236 368.577 277.991 369.068 278.621 369.742C279.265 370.401 279.763 371.265 280.115 372.334C280.466 373.389 280.642 374.656 280.642 376.136V392H274.314V376.839C274.314 375.755 274.167 374.92 273.875 374.334C273.582 373.748 273.164 373.338 272.622 373.104C272.095 372.869 271.458 372.752 270.71 372.752C269.89 372.752 269.172 372.92 268.557 373.257C267.957 373.594 267.458 374.063 267.063 374.664C266.667 375.25 266.375 375.938 266.184 376.729C265.994 377.52 265.898 378.37 265.898 379.278ZM280.049 378.553L277.786 378.838C277.786 377.286 277.976 375.843 278.357 374.51C278.752 373.177 279.331 372.005 280.093 370.994C280.869 369.983 281.829 369.2 282.971 368.643C284.114 368.072 285.432 367.786 286.926 367.786C288.069 367.786 289.109 367.955 290.046 368.292C290.984 368.614 291.782 369.134 292.441 369.852C293.115 370.555 293.628 371.478 293.979 372.62C294.346 373.763 294.529 375.162 294.529 376.817V392H288.179V376.817C288.179 375.718 288.032 374.883 287.739 374.312C287.461 373.726 287.051 373.323 286.509 373.104C285.981 372.869 285.352 372.752 284.619 372.752C283.857 372.752 283.191 372.906 282.62 373.213C282.048 373.506 281.572 373.917 281.191 374.444C280.811 374.971 280.525 375.586 280.334 376.29C280.144 376.978 280.049 377.732 280.049 378.553ZM312.283 385.43C312.283 384.976 312.151 384.566 311.887 384.2C311.624 383.833 311.133 383.497 310.415 383.189C309.712 382.867 308.694 382.574 307.361 382.31C306.16 382.046 305.039 381.717 303.999 381.321C302.974 380.911 302.08 380.42 301.318 379.849C300.571 379.278 299.985 378.604 299.561 377.828C299.136 377.037 298.923 376.136 298.923 375.125C298.923 374.129 299.136 373.191 299.561 372.312C300 371.434 300.623 370.657 301.428 369.983C302.249 369.295 303.245 368.76 304.417 368.379C305.603 367.984 306.936 367.786 308.416 367.786C310.481 367.786 312.253 368.116 313.733 368.775C315.227 369.434 316.37 370.342 317.161 371.5C317.966 372.642 318.369 373.946 318.369 375.411H312.041C312.041 374.795 311.909 374.246 311.646 373.763C311.396 373.265 311.001 372.876 310.459 372.598C309.932 372.305 309.243 372.159 308.394 372.159C307.69 372.159 307.083 372.283 306.57 372.532C306.057 372.767 305.662 373.089 305.383 373.499C305.12 373.895 304.988 374.334 304.988 374.817C304.988 375.184 305.061 375.513 305.208 375.806C305.369 376.084 305.625 376.341 305.977 376.575C306.328 376.81 306.782 377.029 307.339 377.234C307.91 377.425 308.613 377.601 309.448 377.762C311.162 378.113 312.693 378.575 314.041 379.146C315.388 379.703 316.458 380.464 317.249 381.431C318.04 382.383 318.435 383.636 318.435 385.188C318.435 386.243 318.201 387.21 317.732 388.089C317.263 388.968 316.589 389.737 315.71 390.396C314.832 391.041 313.777 391.546 312.546 391.912C311.331 392.264 309.961 392.439 308.438 392.439C306.226 392.439 304.351 392.044 302.812 391.253C301.289 390.462 300.132 389.458 299.341 388.243C298.564 387.012 298.176 385.752 298.176 384.463H304.175C304.204 385.328 304.424 386.023 304.834 386.551C305.259 387.078 305.793 387.459 306.438 387.693C307.097 387.928 307.808 388.045 308.569 388.045C309.39 388.045 310.071 387.935 310.613 387.715C311.155 387.481 311.565 387.173 311.843 386.792C312.136 386.397 312.283 385.943 312.283 385.43Z" fill="white"/>
<path d="M339.603 511.515C335.137 503.78 335.137 494.25 339.603 486.515L414.472 356.838C418.938 349.103 427.191 344.338 436.123 344.338H585.861C594.793 344.338 603.046 349.103 607.512 356.838L682.381 486.515C686.847 494.25 686.847 503.78 682.381 511.515L607.512 641.193C603.046 648.928 594.793 653.693 585.861 653.693H436.123C427.191 653.693 418.938 648.928 414.472 641.193L339.603 511.515Z" fill="#89C958" fill-opacity="0.78"/>
</g>
<defs>
<clipPath id="clip0_1591_595">
<rect width="1440" height="567" fill="white"/>
</clipPath>
</defs>
</svg>
