<svg width="19" height="19" viewBox="0 0 19 19" fill="none" xmlns="http://www.w3.org/2000/svg">
<g clip-path="url(#clip0_1393_869)">
<path d="M16.4786 7.61914C16.4786 12.8691 9.72864 17.3691 9.72864 17.3691C9.72864 17.3691 2.97864 12.8691 2.97864 7.61914C2.97864 5.82893 3.6898 4.11204 4.95567 2.84617C6.22154 1.5803 7.93843 0.869141 9.72864 0.869141C11.5188 0.869141 13.2357 1.5803 14.5016 2.84617C15.7675 4.11204 16.4786 5.82893 16.4786 7.61914Z" stroke="#89C958" stroke-width="2" stroke-linecap="round" stroke-linejoin="round"/>
<path d="M9.72864 9.86914C10.9713 9.86914 11.9786 8.86178 11.9786 7.61914C11.9786 6.3765 10.9713 5.36914 9.72864 5.36914C8.486 5.36914 7.47864 6.3765 7.47864 7.61914C7.47864 8.86178 8.486 9.86914 9.72864 9.86914Z" stroke="#89C958" stroke-width="2" stroke-linecap="round" stroke-linejoin="round"/>
</g>
<defs>
<clipPath id="clip0_1393_869">
<rect width="18" height="18" fill="white" transform="translate(0.728638 0.119141)"/>
</clipPath>
</defs>
</svg>
