<svg width="141" height="171" viewBox="0 0 141 171" fill="none" xmlns="http://www.w3.org/2000/svg">
<path fill-rule="evenodd" clip-rule="evenodd" d="M138.898 95.6915C139.821 95.1481 140.385 94.1531 140.376 93.0813L140.111 60.5465C140.103 59.4747 139.523 58.4891 138.59 57.9607L110.282 41.9229C109.349 41.3946 108.206 41.4039 107.282 41.9474L79.2383 58.4443C78.3145 58.9878 77.7508 59.9828 77.7595 61.0545L78.0246 93.5894C78.0333 94.6611 78.6132 95.6468 79.5457 96.1751L107.854 112.213C108.787 112.741 109.93 112.732 110.854 112.189L138.898 95.6915ZM75.0649 94.3107C75.0736 95.3824 74.5099 96.3774 73.5861 96.9209L45.5426 113.418C44.6188 113.961 43.4753 113.971 42.5427 113.442L14.2342 97.4045C13.3017 96.8762 12.7218 95.8905 12.7131 94.8187L12.448 62.2839C12.4393 61.2121 13.003 60.2171 13.9268 59.6737L41.9702 43.1767C42.894 42.6333 44.0376 42.6239 44.9701 43.1523L73.2786 59.1901C74.2112 59.7184 74.791 60.7041 74.7998 61.7758L75.0649 94.3107ZM40.6359 41.4746C41.5597 40.9311 42.1234 39.9361 42.1147 38.8644L41.8496 6.32954C41.8408 5.25778 41.261 4.27209 40.3284 3.74377L12.0199 -12.2941C11.0874 -12.8224 9.94383 -12.813 9.02001 -12.2696L-19.0234 4.22738C-19.9472 4.77082 -20.5109 5.76583 -20.5022 6.83759L-20.2371 39.3724C-20.2284 40.4442 -19.6485 41.4299 -18.716 41.9582L9.59254 57.996C10.5251 58.5243 11.6686 58.515 12.5924 57.9716L40.6359 41.4746ZM8.17835 -14.8416C9.10217 -15.385 9.66587 -16.38 9.65713 -17.4518L9.39204 -49.9866C9.38331 -51.0584 8.80346 -52.0441 7.87092 -52.5724L-20.4376 -68.6102C-21.3701 -69.1385 -22.5137 -69.1292 -23.4375 -68.5858L-51.4809 -52.0888C-52.4047 -51.5453 -52.9685 -50.5503 -52.9597 -49.4786L-52.6946 -16.9438C-52.6859 -15.872 -52.106 -14.8863 -51.1735 -14.358L-22.865 1.67984C-21.9324 2.20816 -20.7889 2.19884 -19.8651 1.6554L8.17835 -14.8416ZM108.634 150.577C108.643 151.648 108.079 152.643 107.156 153.187L79.1121 169.684C78.1883 170.227 77.0448 170.237 76.1122 169.708L47.8037 153.67C46.8712 153.142 46.2913 152.156 46.2826 151.085L46.0175 118.55C46.0088 117.478 46.5725 116.483 47.4963 115.94L75.5397 99.4427C76.4635 98.8992 77.6071 98.8899 78.5396 99.4182L106.848 115.456C107.781 115.984 108.361 116.97 108.369 118.042L108.634 150.577ZM42.5459 153.475C43.4697 152.932 44.0334 151.937 44.0247 150.865L43.7596 118.33C43.7508 117.259 43.171 116.273 42.2384 115.745L13.9299 99.7068C12.9974 99.1785 11.8538 99.1878 10.93 99.7312L-17.1134 116.228C-18.0372 116.772 -18.6009 117.767 -18.5922 118.838L-18.3271 151.373C-18.3184 152.445 -17.7385 153.431 -16.806 153.959L11.5026 169.997C12.4351 170.525 13.5787 170.516 14.5024 169.972L42.5459 153.475ZM10.0744 95.4191C10.0831 96.4908 9.5194 97.4858 8.59559 98.0293L-19.4478 114.526C-20.3717 115.07 -21.5152 115.079 -22.4477 114.551L-50.7563 98.5129C-51.6888 97.9846 -52.2687 96.9989 -52.2774 95.9271L-52.5425 63.3923C-52.5512 62.3205 -51.9875 61.3255 -51.0637 60.7821L-23.0203 44.2851C-22.0965 43.7417 -20.9529 43.7323 -20.0204 44.2607L8.28816 60.2985C9.2207 60.8268 9.80055 61.8125 9.80927 62.8842L10.0744 95.4191ZM-23.8619 41.7129C-22.9381 41.1694 -22.3744 40.1744 -22.3831 39.1026L-22.6482 6.56782C-22.6569 5.49606 -23.2368 4.51038 -24.1693 3.98206L-52.4778 -12.0558C-53.4104 -12.5841 -54.5539 -12.5748 -55.4777 -12.0313L-83.5212 4.46566C-84.445 5.0091 -85.0087 6.00411 -84.9999 7.07587L-84.7348 39.6107C-84.7261 40.6824 -84.1462 41.6681 -83.2137 42.1965L-54.9052 58.2343C-53.9726 58.7626 -52.8291 58.7533 -51.9053 58.2098L-23.8619 41.7129Z" fill="#89C958" fill-opacity="0.68"/>
</svg>
