<svg width="207" height="194" viewBox="0 0 207 194" fill="none" xmlns="http://www.w3.org/2000/svg">
<path fill-rule="evenodd" clip-rule="evenodd" d="M219.577 0.00010001C220.648 -0.00863274 221.643 0.555076 222.187 1.47888L238.684 29.5223C239.227 30.4461 239.237 31.5897 238.708 32.5222L222.67 60.8307C222.142 61.7633 221.156 62.3431 220.085 62.3519L187.55 62.617C186.478 62.6257 185.483 62.062 184.94 61.1382L168.443 33.0947C167.899 32.1709 167.89 31.0274 168.418 30.0948L184.456 1.78632C184.984 0.853776 185.97 0.273928 187.042 0.265195L219.577 0.00010001ZM165.921 35.0484C165.377 34.1246 164.382 33.5608 163.311 33.5696L130.776 33.8347C129.704 33.8434 128.718 34.4233 128.19 35.3558L112.152 63.6643C111.624 64.5969 111.633 65.7404 112.177 66.6642L128.674 94.7076C129.217 95.6315 130.212 96.1952 131.284 96.1864L163.819 95.9213C164.89 95.9126 165.876 95.3327 166.404 94.4002L182.442 66.0917C182.971 65.1591 182.961 64.0156 182.418 63.0918L165.921 35.0484ZM107.864 66.5198C108.936 66.511 109.931 67.0748 110.475 67.9986L126.972 96.042C127.515 96.9658 127.524 98.1094 126.996 99.0419L110.958 127.35C110.43 128.283 109.444 128.863 108.372 128.872L75.8376 129.137C74.7658 129.145 73.7708 128.582 73.2274 127.658L56.7304 99.6144C56.187 98.6906 56.1776 97.5471 56.7059 96.6145L72.7438 68.306C73.2721 67.3735 74.2578 66.7936 75.3295 66.7849L107.864 66.5198ZM51.5482 98.9773C52.62 98.9686 53.615 99.5323 54.1584 100.456L70.6554 128.5C71.1988 129.423 71.2082 130.567 70.6798 131.499L54.642 159.808C54.1137 160.74 53.128 161.32 52.0562 161.329L19.5214 161.594C18.4497 161.603 17.4547 161.039 16.9112 160.115L0.414232 132.072C-0.129211 131.148 -0.13853 130.005 0.389788 129.072L16.4276 100.764C16.9559 99.831 17.9416 99.2511 19.0134 99.2424L51.5482 98.9773ZM222.475 66.0885C221.932 65.1647 220.937 64.601 219.865 64.6098L187.33 64.8749C186.259 64.8836 185.273 65.4634 184.745 66.396L168.707 94.7045C168.178 95.637 168.188 96.7806 168.731 97.7044L185.228 125.748C185.772 126.672 186.767 127.235 187.838 127.227L220.373 126.962C221.445 126.953 222.431 126.373 222.959 125.44L238.997 97.1319C239.525 96.1993 239.516 95.0558 238.972 94.132L222.475 66.0885ZM164.419 98.5601C165.491 98.5513 166.486 99.115 167.029 100.039L183.526 128.082C184.07 129.006 184.079 130.15 183.551 131.082L167.513 159.391C166.985 160.323 165.999 160.903 164.927 160.912L132.392 161.177C131.321 161.186 130.326 160.622 129.782 159.698L113.285 131.655C112.742 130.731 112.732 129.587 113.261 128.655L129.298 100.346C129.827 99.4137 130.812 98.8339 131.884 98.8252L164.419 98.5601ZM110.713 132.496C110.169 131.573 109.174 131.009 108.103 131.018L75.5678 131.283C74.4961 131.291 73.5104 131.871 72.9821 132.804L56.9442 161.112C56.4159 162.045 56.4252 163.188 56.9687 164.112L73.4657 192.156C74.0091 193.079 75.0041 193.643 76.0759 193.634L108.611 193.369C109.682 193.361 110.668 192.781 111.196 191.848L127.234 163.54C127.763 162.607 127.753 161.464 127.21 160.54L110.713 132.496Z" fill="#89C958" fill-opacity="0.68"/>
</svg>
