<svg width="1440" height="567" viewBox="0 0 1440 567" fill="none" xmlns="http://www.w3.org/2000/svg">
<g clip-path="url(#clip0_1602_571)">
<path d="M1656.78 191.106C1661.25 183.371 1661.25 173.841 1656.78 166.106L1581.91 36.4287C1577.45 28.6937 1569.2 23.9287 1560.26 23.9287H1410.52C1401.59 23.9287 1393.34 28.6937 1388.87 36.4287L1314 166.106C1309.54 173.841 1309.54 183.371 1314 191.106L1388.87 320.784C1393.34 328.519 1401.59 333.284 1410.52 333.284H1560.26C1569.2 333.284 1577.45 328.519 1581.91 320.784L1656.78 191.106Z" fill="#89C958" fill-opacity="0.78"/>
<path d="M1378.59 671.719C1383.05 663.984 1383.05 654.454 1378.59 646.719L1303.72 517.042C1299.25 509.307 1291 504.542 1282.07 504.542H1132.33C1123.4 504.542 1115.14 509.307 1110.68 517.042L1035.81 646.719C1031.34 654.454 1031.34 663.984 1035.81 671.719L1110.68 801.397C1115.14 809.132 1123.4 813.897 1132.33 813.897H1282.07C1291 813.897 1299.25 809.132 1303.72 801.397L1378.59 671.719Z" fill="#89C958" fill-opacity="0.78"/>
<path d="M1656.78 511.515C1661.25 503.78 1661.25 494.25 1656.78 486.515L1581.91 356.838C1577.45 349.103 1569.2 344.338 1560.26 344.338H1410.52C1401.59 344.338 1393.34 349.103 1388.87 356.838L1314 486.515C1309.54 494.25 1309.54 503.78 1314 511.515L1388.87 641.193C1393.34 648.928 1401.59 653.693 1410.52 653.693H1560.26C1569.2 653.693 1577.45 648.928 1581.91 641.193L1656.78 511.515Z" fill="#89C958" fill-opacity="0.78"/>
<path d="M822.205 671.719C826.671 663.984 826.671 654.454 822.205 646.719L747.336 517.042C742.87 509.307 734.617 504.542 725.685 504.542H575.946C567.015 504.542 558.761 509.307 554.296 517.042L479.426 646.719C474.96 654.454 474.96 663.984 479.426 671.719L554.296 801.397C558.761 809.132 567.015 813.897 575.946 813.897H725.685C734.617 813.897 742.87 809.132 747.336 801.397L822.205 671.719Z" fill="#89C958" fill-opacity="0.78"/>
<path d="M544.011 511.515C548.476 503.78 548.476 494.25 544.011 486.515L469.141 356.838C464.675 349.103 456.422 344.338 447.491 344.338H297.749C288.819 344.338 280.569 349.103 276.099 356.838L201.229 486.515C196.769 494.25 196.769 503.78 201.229 511.515L276.099 641.193C280.569 648.928 288.819 653.693 297.749 653.693H447.491C456.422 653.693 464.675 648.928 469.141 641.193L544.011 511.515Z" fill="#89C958" fill-opacity="0.78"/>
<path d="M265.819 671.719C270.289 663.984 270.289 654.454 265.819 646.719L190.949 517.042C186.479 509.307 178.229 504.542 169.299 504.542H19.5595C10.6295 504.542 2.37945 509.307 -2.09055 517.042L-76.9605 646.719C-81.4305 654.454 -81.4305 663.984 -76.9605 671.719L-2.09055 801.397C2.37945 809.132 10.6295 813.897 19.5595 813.897H169.299C178.229 813.897 186.479 809.132 190.949 801.397L265.819 671.719Z" fill="#89C958" fill-opacity="0.78"/>
<path d="M1378.59 351.311C1383.05 343.576 1383.05 334.046 1378.59 326.311L1303.72 196.633C1299.25 188.898 1291 184.133 1282.07 184.133H1132.33C1123.4 184.133 1115.14 188.898 1110.68 196.633L1035.81 326.311C1031.34 334.046 1031.34 343.576 1035.81 351.311L1110.68 480.988C1115.14 488.723 1123.4 493.488 1132.33 493.488H1282.07C1291 493.488 1299.25 488.723 1303.72 480.988L1378.59 351.311Z" fill="#89C958" fill-opacity="0.78"/>
<path d="M1107.42 368.55L1104.87 362.35C1106.64 361.75 1108.26 361.05 1109.72 360.25C1111.22 359.45 1112.52 358.567 1113.62 357.6C1114.72 356.633 1115.57 355.583 1116.17 354.45C1116.77 353.283 1117.07 352.033 1117.07 350.7C1117.07 349.3 1116.76 347.767 1116.12 346.1C1115.49 344.433 1114.72 342.733 1113.82 341L1120.37 337.85C1120.97 338.883 1121.49 340 1121.92 341.2C1122.39 342.367 1122.77 343.417 1123.07 344.35C1123.37 345.283 1123.57 345.917 1123.67 346.25C1124.14 347.85 1124.77 348.917 1125.57 349.45C1126.41 349.983 1127.74 350.25 1129.57 350.25C1130.84 350.25 1131.74 350.583 1132.27 351.25C1132.84 351.883 1133.12 352.683 1133.12 353.65C1133.12 354.683 1132.77 355.55 1132.07 356.25C1131.37 356.917 1130.37 357.25 1129.07 357.25C1127.71 357.25 1126.51 357.05 1125.47 356.65C1124.44 356.25 1123.61 355.667 1122.97 354.9C1122.37 354.133 1121.99 353.233 1121.82 352.2L1123.67 353.25C1123.47 355.017 1122.89 356.683 1121.92 358.25C1120.99 359.85 1119.77 361.317 1118.27 362.65C1116.77 363.983 1115.09 365.15 1113.22 366.15C1111.36 367.15 1109.42 367.95 1107.42 368.55ZM1129.13 357.25L1129.63 350.25C1130.83 350.25 1131.87 350.133 1132.73 349.9C1133.6 349.667 1134.33 349.2 1134.93 348.5C1135.53 347.767 1136.03 346.7 1136.43 345.3C1136.87 343.9 1137.25 342.033 1137.58 339.7L1144.13 340.8C1144.07 341.3 1143.97 341.883 1143.83 342.55C1143.73 343.217 1143.63 343.9 1143.53 344.6C1143.47 345.267 1143.43 345.9 1143.43 346.5C1143.43 347.1 1143.55 347.633 1143.78 348.1C1144.02 348.567 1144.38 348.967 1144.88 349.3C1145.42 349.6 1146.1 349.833 1146.93 350C1147.8 350.167 1148.85 350.25 1150.08 350.25C1151.35 350.25 1152.25 350.583 1152.78 351.25C1153.32 351.883 1153.58 352.683 1153.58 353.65C1153.58 354.683 1153.23 355.55 1152.53 356.25C1151.87 356.917 1150.88 357.25 1149.58 357.25C1148.08 357.25 1146.72 357.133 1145.48 356.9C1144.28 356.667 1143.23 356.283 1142.33 355.75C1141.47 355.183 1140.75 354.45 1140.18 353.55C1139.65 352.617 1139.32 351.483 1139.18 350.15H1141.58C1140.98 351.75 1140.22 353.033 1139.28 354C1138.38 354.933 1137.37 355.633 1136.23 356.1C1135.1 356.567 1133.92 356.867 1132.68 357C1131.48 357.167 1130.3 357.25 1129.13 357.25ZM1145.18 335.2C1144.22 335.2 1143.38 334.867 1142.68 334.2C1142.02 333.5 1141.68 332.683 1141.68 331.75C1141.68 330.783 1142.02 329.95 1142.68 329.25C1143.38 328.55 1144.22 328.2 1145.18 328.2C1146.12 328.2 1146.92 328.55 1147.58 329.25C1148.25 329.95 1148.58 330.783 1148.58 331.75C1148.58 332.683 1148.25 333.5 1147.58 334.2C1146.92 334.867 1146.12 335.2 1145.18 335.2ZM1136.53 335.15C1135.57 335.15 1134.73 334.817 1134.03 334.15C1133.37 333.45 1133.03 332.633 1133.03 331.7C1133.03 330.733 1133.37 329.9 1134.03 329.2C1134.73 328.5 1135.57 328.15 1136.53 328.15C1137.47 328.15 1138.27 328.5 1138.93 329.2C1139.6 329.9 1139.93 330.733 1139.93 331.7C1139.93 332.633 1139.6 333.45 1138.93 334.15C1138.27 334.817 1137.47 335.15 1136.53 335.15ZM1149.59 357.25L1150.09 350.25H1157.24C1157.94 350.25 1158.56 350.217 1159.09 350.15C1159.62 350.05 1160.06 349.9 1160.39 349.7C1160.76 349.5 1161.02 349.25 1161.19 348.95C1161.36 348.65 1161.44 348.3 1161.44 347.9C1161.44 347.5 1161.22 346.867 1160.79 346C1160.39 345.1 1159.51 344.017 1158.14 342.75C1157.41 342.083 1156.61 341.383 1155.74 340.65C1154.91 339.883 1154.11 339.167 1153.34 338.5C1152.57 337.8 1151.94 337.183 1151.44 336.65C1150.94 336.117 1150.69 335.733 1150.69 335.5C1150.69 335 1150.72 334.45 1150.79 333.85C1150.86 333.25 1150.96 332.7 1151.09 332.2C1151.26 331.7 1151.47 331.333 1151.74 331.1C1152.31 330.567 1153.14 329.95 1154.24 329.25C1155.37 328.517 1156.72 327.733 1158.29 326.9C1159.86 326.033 1161.61 325.133 1163.54 324.2C1165.51 323.233 1167.61 322.267 1169.84 321.3L1172.69 327.4C1170.86 328.2 1169.12 328.983 1167.49 329.75C1165.86 330.483 1164.32 331.217 1162.89 331.95C1161.49 332.65 1160.19 333.35 1158.99 334.05C1157.82 334.717 1156.79 335.383 1155.89 336.05L1156.54 332.35C1159.37 334.517 1161.62 336.467 1163.29 338.2C1164.99 339.933 1166.26 341.483 1167.09 342.85C1167.92 344.183 1168.47 345.383 1168.74 346.45C1169.01 347.483 1169.14 348.4 1169.14 349.2C1169.14 350 1168.94 350.867 1168.54 351.8C1168.17 352.7 1167.49 353.567 1166.49 354.4C1165.52 355.233 1164.16 355.917 1162.39 356.45C1160.62 356.983 1158.36 357.25 1155.59 357.25H1149.59ZM1174.05 355L1176.5 348.65C1177.73 349.183 1178.91 349.583 1180.05 349.85C1181.18 350.117 1182.31 350.25 1183.45 350.25C1184.61 350.25 1185.58 350.15 1186.35 349.95C1187.15 349.717 1187.75 349.383 1188.15 348.95C1188.55 348.517 1188.75 348 1188.75 347.4C1188.75 346.833 1188.56 346.05 1188.2 345.05C1187.86 344.05 1187.25 342.75 1186.35 341.15C1185.45 339.517 1184.13 337.5 1182.4 335.1L1188.35 331.15C1189.95 333.417 1191.33 335.633 1192.5 337.8C1193.66 339.933 1194.56 341.933 1195.2 343.8C1195.86 345.633 1196.2 347.25 1196.2 348.65C1196.2 350.383 1195.73 351.9 1194.8 353.2C1193.9 354.467 1192.55 355.467 1190.75 356.2C1188.98 356.933 1186.8 357.3 1184.2 357.3C1183.23 357.3 1182.15 357.217 1180.95 357.05C1179.75 356.883 1178.53 356.633 1177.3 356.3C1176.1 355.967 1175.01 355.533 1174.05 355ZM1211.88 355.6C1211.88 354.833 1211.94 353.933 1212.08 352.9C1212.21 351.867 1212.46 350.7 1212.83 349.4C1213.19 348.067 1213.74 346.583 1214.48 344.95L1220.63 347.1C1220.26 348.133 1219.94 349.083 1219.68 349.95C1219.41 350.783 1219.21 351.567 1219.08 352.3C1218.94 353 1218.88 353.7 1218.88 354.4C1218.88 355.4 1219.09 356.333 1219.53 357.2C1219.96 358.067 1220.61 358.817 1221.48 359.45C1222.34 360.117 1223.41 360.633 1224.68 361C1225.98 361.367 1227.48 361.55 1229.18 361.55C1231.11 361.55 1232.81 361.367 1234.28 361C1235.78 360.667 1237.03 360.217 1238.03 359.65C1239.06 359.117 1239.84 358.55 1240.38 357.95C1240.91 357.35 1241.18 356.8 1241.18 356.3C1241.18 355.9 1240.89 355.55 1240.33 355.25C1239.79 354.95 1239.08 354.65 1238.18 354.35C1237.31 354.017 1236.38 353.65 1235.38 353.25C1234.41 352.85 1233.48 352.35 1232.58 351.75C1231.71 351.15 1230.99 350.417 1230.43 349.55C1229.89 348.683 1229.63 347.633 1229.63 346.4C1229.63 345.133 1229.96 343.75 1230.63 342.25C1231.29 340.717 1232.24 339.267 1233.48 337.9C1234.71 336.5 1236.18 335.367 1237.88 334.5C1239.61 333.6 1241.51 333.15 1243.58 333.15C1245.04 333.15 1246.38 333.383 1247.58 333.85C1248.81 334.317 1249.84 334.85 1250.68 335.45L1248.08 341.3C1247.38 340.833 1246.63 340.483 1245.83 340.25C1245.03 339.983 1244.26 339.85 1243.53 339.85C1242.59 339.85 1241.69 340.033 1240.83 340.4C1239.99 340.767 1239.24 341.25 1238.58 341.85C1237.94 342.417 1237.44 343.033 1237.08 343.7C1236.71 344.367 1236.53 345 1236.53 345.6C1236.53 346.2 1236.81 346.733 1237.38 347.2C1237.98 347.633 1238.74 348.05 1239.68 348.45C1240.61 348.817 1241.59 349.2 1242.63 349.6C1243.66 350 1244.64 350.45 1245.58 350.95C1246.51 351.45 1247.26 352.05 1247.83 352.75C1248.43 353.45 1248.73 354.3 1248.73 355.3C1248.73 356.733 1248.28 358.217 1247.38 359.75C1246.51 361.317 1245.21 362.767 1243.48 364.1C1241.74 365.433 1239.61 366.5 1237.08 367.3C1234.58 368.133 1231.68 368.55 1228.38 368.55C1225.98 368.55 1223.78 368.267 1221.78 367.7C1219.78 367.167 1218.03 366.35 1216.53 365.25C1215.06 364.183 1213.91 362.833 1213.08 361.2C1212.28 359.6 1211.88 357.733 1211.88 355.6ZM1267.49 357.25C1264.39 357.25 1261.99 356.933 1260.29 356.3C1258.62 355.667 1257.46 354.683 1256.79 353.35C1256.12 351.983 1255.74 350.267 1255.64 348.2L1254.59 320.4H1261.59L1262.64 344.85C1262.71 346.383 1262.87 347.533 1263.14 348.3C1263.41 349.067 1263.91 349.583 1264.64 349.85C1265.41 350.117 1266.52 350.25 1267.99 350.25C1269.26 350.25 1270.16 350.583 1270.69 351.25C1271.26 351.883 1271.54 352.683 1271.54 353.65C1271.54 354.683 1271.19 355.55 1270.49 356.25C1269.79 356.917 1268.79 357.25 1267.49 357.25ZM1267.56 357.25L1268.06 350.3C1270.83 350.3 1273.04 350.283 1274.71 350.25C1276.41 350.217 1277.73 350.15 1278.66 350.05C1279.63 349.917 1280.34 349.767 1280.81 349.6C1281.28 349.4 1281.68 349.183 1282.01 348.95C1282.41 348.65 1282.74 348.25 1283.01 347.75C1283.31 347.217 1283.54 346.517 1283.71 345.65C1283.88 344.783 1283.96 343.7 1283.96 342.4C1283.96 340.767 1283.81 339.4 1283.51 338.3C1283.24 337.167 1282.84 336.317 1282.31 335.75C1281.81 335.183 1281.19 334.9 1280.46 334.9C1279.93 334.9 1279.43 335.083 1278.96 335.45C1278.49 335.783 1278.11 336.25 1277.81 336.85C1277.51 337.45 1277.36 338.133 1277.36 338.9C1277.36 339.333 1277.48 339.717 1277.71 340.05C1277.94 340.383 1278.31 340.633 1278.81 340.8C1279.31 340.967 1279.94 341.05 1280.71 341.05C1281.44 341.05 1282.21 340.967 1283.01 340.8C1283.84 340.6 1284.61 340.333 1285.31 340L1285.51 345.95C1284.98 346.317 1284.36 346.65 1283.66 346.95C1282.96 347.25 1282.21 347.483 1281.41 347.65C1280.64 347.783 1279.86 347.85 1279.06 347.85C1277.29 347.85 1275.76 347.617 1274.46 347.15C1273.19 346.65 1272.21 345.85 1271.51 344.75C1270.81 343.65 1270.46 342.15 1270.46 340.25C1270.46 338.783 1270.71 337.333 1271.21 335.9C1271.71 334.433 1272.43 333.117 1273.36 331.95C1274.29 330.75 1275.39 329.8 1276.66 329.1C1277.93 328.367 1279.33 328 1280.86 328C1283.13 328 1284.99 328.667 1286.46 330C1287.96 331.3 1289.06 333.067 1289.76 335.3C1290.49 337.5 1290.86 339.95 1290.86 342.65C1290.86 345.017 1290.51 347.083 1289.81 348.85C1289.11 350.583 1288.28 351.95 1287.31 352.95C1286.51 353.783 1285.59 354.483 1284.56 355.05C1283.53 355.617 1282.26 356.067 1280.76 356.4C1279.29 356.7 1277.48 356.917 1275.31 357.05C1273.18 357.183 1270.59 357.25 1267.56 357.25ZM1285.11 323.45C1284.14 323.45 1283.31 323.117 1282.61 322.45C1281.94 321.75 1281.61 320.933 1281.61 320C1281.61 319.033 1281.94 318.2 1282.61 317.5C1283.31 316.8 1284.14 316.45 1285.11 316.45C1286.04 316.45 1286.84 316.8 1287.51 317.5C1288.18 318.2 1288.51 319.033 1288.51 320C1288.51 320.933 1288.18 321.75 1287.51 322.45C1286.84 323.117 1286.04 323.45 1285.11 323.45ZM1276.46 323.4C1275.49 323.4 1274.66 323.067 1273.96 322.4C1273.29 321.7 1272.96 320.883 1272.96 319.95C1272.96 318.983 1273.29 318.15 1273.96 317.45C1274.66 316.75 1275.49 316.4 1276.46 316.4C1277.39 316.4 1278.19 316.75 1278.86 317.45C1279.53 318.15 1279.86 318.983 1279.86 319.95C1279.86 320.883 1279.53 321.7 1278.86 322.4C1278.19 323.067 1277.39 323.4 1276.46 323.4ZM1296.7 357L1295.75 323.9H1302.75L1303.7 357H1296.7ZM1302.4 319.05C1301.4 319.05 1300.5 318.883 1299.7 318.55C1298.9 318.183 1298.17 317.833 1297.5 317.5C1296.84 317.167 1296.22 317 1295.65 317C1295.05 317 1294.5 317.15 1294 317.45C1293.54 317.75 1293.04 318.167 1292.5 318.7L1290.15 316.5C1291.05 315.367 1291.95 314.517 1292.85 313.95C1293.79 313.383 1294.72 313.1 1295.65 313.1C1296.49 313.1 1297.25 313.267 1297.95 313.6C1298.65 313.933 1299.35 314.267 1300.05 314.6C1300.79 314.933 1301.57 315.1 1302.4 315.1C1302.94 315.1 1303.44 315.017 1303.9 314.85C1304.37 314.65 1304.94 314.35 1305.6 313.95L1307.35 316.7C1306.15 317.733 1305.15 318.383 1304.35 318.65C1303.59 318.917 1302.94 319.05 1302.4 319.05Z" fill="white"/>
<path d="M1100.4 511.515C1104.86 503.78 1104.86 494.25 1100.4 486.515L1025.53 356.838C1021.06 349.103 1012.81 344.338 1003.88 344.338H854.139C845.207 344.338 836.954 349.103 832.488 356.838L757.619 486.515C753.153 494.25 753.153 503.78 757.619 511.515L832.488 641.193C836.954 648.928 845.207 653.693 854.139 653.693H1003.88C1012.81 653.693 1021.06 648.928 1025.53 641.193L1100.4 511.515Z" fill="#89C958" fill-opacity="0.78"/>
</g>
<defs>
<clipPath id="clip0_1602_571">
<rect width="1440" height="567" fill="white" transform="matrix(-1 0 0 1 1440 0)"/>
</clipPath>
</defs>
</svg>
