<svg width="32" height="32" viewBox="0 0 32 32" fill="none" xmlns="http://www.w3.org/2000/svg">
<path d="M16 27.6666C22.4434 27.6666 27.6667 22.4433 27.6667 16C27.6667 9.55666 22.4434 4.33331 16 4.33331C9.55672 4.33331 4.33337 9.55666 4.33337 16C4.33337 22.4433 9.55672 27.6666 16 27.6666Z" stroke="white" stroke-width="3" stroke-linecap="round" stroke-linejoin="round"/>
<path d="M12.605 12.5C12.8793 11.7203 13.4207 11.0628 14.1333 10.644C14.8459 10.2252 15.6837 10.0721 16.4984 10.2118C17.313 10.3516 18.0519 10.7751 18.5842 11.4074C19.1165 12.0398 19.4079 12.8401 19.4066 13.6667C19.4066 16 15.9066 17.1667 15.9066 17.1667" stroke="white" stroke-width="3" stroke-linecap="round" stroke-linejoin="round"/>
<path d="M16 21.8333H16.0117" stroke="white" stroke-width="3" stroke-linecap="round" stroke-linejoin="round"/>
</svg>
