<svg width="1440" height="567" viewBox="0 0 1440 567" fill="none" xmlns="http://www.w3.org/2000/svg">
<g clip-path="url(#clip0_1601_551)">
<path d="M-216.783 191.106C-221.249 183.371 -221.249 173.841 -216.783 166.106L-141.914 36.4287C-137.448 28.6937 -129.195 23.9287 -120.263 23.9287H29.4753C38.407 23.9287 46.6602 28.6937 51.126 36.4287L125.996 166.106C130.461 173.841 130.461 183.371 125.996 191.106L51.126 320.784C46.6601 328.519 38.407 333.284 29.4753 333.284H-120.263C-129.195 333.284 -137.448 328.519 -141.914 320.784L-216.783 191.106Z" fill="#89C958" fill-opacity="0.78"/>
<path d="M61.4118 671.719C56.9461 663.984 56.9461 654.454 61.4118 646.719L136.282 517.042C140.747 509.307 149.001 504.542 157.932 504.542H307.671C316.603 504.542 324.856 509.307 329.322 517.042L404.191 646.719C408.657 654.454 408.657 663.984 404.191 671.719L329.322 801.397C324.856 809.132 316.603 813.897 307.671 813.897H157.932C149.001 813.897 140.747 809.132 136.282 801.397L61.4118 671.719Z" fill="#89C958" fill-opacity="0.78"/>
<path d="M-216.783 511.515C-221.249 503.78 -221.249 494.25 -216.783 486.515L-141.914 356.838C-137.448 349.103 -129.195 344.338 -120.263 344.338H29.4753C38.407 344.338 46.6602 349.103 51.126 356.838L125.996 486.515C130.461 494.25 130.461 503.78 125.996 511.515L51.126 641.193C46.6601 648.928 38.407 653.693 29.4753 653.693H-120.263C-129.195 653.693 -137.448 648.928 -141.914 641.193L-216.783 511.515Z" fill="#89C958" fill-opacity="0.78"/>
<path d="M617.795 671.719C613.329 663.984 613.329 654.454 617.795 646.719L692.664 517.042C697.13 509.307 705.383 504.542 714.315 504.542H864.054C872.985 504.542 881.239 509.307 885.704 517.042L960.574 646.719C965.04 654.454 965.04 663.984 960.574 671.719L885.704 801.397C881.239 809.132 872.985 813.897 864.054 813.897H714.315C705.383 813.897 697.13 809.132 692.664 801.397L617.795 671.719Z" fill="#89C958" fill-opacity="0.78"/>
<path d="M895.989 511.515C891.524 503.78 891.524 494.25 895.989 486.515L970.859 356.838C975.325 349.103 983.578 344.338 992.509 344.338H1142.25C1151.18 344.338 1159.43 349.103 1163.9 356.838L1238.77 486.515C1243.23 494.25 1243.23 503.78 1238.77 511.515L1163.9 641.193C1159.43 648.928 1151.18 653.693 1142.25 653.693H992.509C983.578 653.693 975.325 648.928 970.859 641.193L895.989 511.515Z" fill="#89C958" fill-opacity="0.78"/>
<path d="M1174.18 671.719C1169.71 663.984 1169.71 654.454 1174.18 646.719L1249.05 517.042C1253.52 509.307 1261.77 504.542 1270.7 504.542H1420.44C1429.37 504.542 1437.62 509.307 1442.09 517.042L1516.96 646.719C1521.43 654.454 1521.43 663.984 1516.96 671.719L1442.09 801.397C1437.62 809.132 1429.37 813.897 1420.44 813.897H1270.7C1261.77 813.897 1253.52 809.132 1249.05 801.397L1174.18 671.719Z" fill="#89C958" fill-opacity="0.78"/>
<path d="M61.4118 351.311C56.9461 343.576 56.9461 334.046 61.4118 326.311L136.282 196.633C140.747 188.898 149.001 184.133 157.932 184.133H307.671C316.603 184.133 324.856 188.898 329.322 196.633L404.191 326.311C408.657 334.046 408.657 343.576 404.191 351.311L329.322 480.988C324.856 488.723 316.603 493.488 307.671 493.488H157.932C149.001 493.488 140.747 488.723 136.282 480.988L61.4118 351.311Z" fill="#89C958" fill-opacity="0.78"/>
<path d="M172.17 323.898H178.992L189.036 352.607L199.08 323.898H205.901L191.775 363H186.296L172.17 323.898ZM168.491 323.898H175.286L176.521 351.882V363H168.491V323.898ZM202.786 323.898H209.607V363H201.55V351.882L202.786 323.898ZM223.921 340.28V363H216.187V333.942H223.464L223.921 340.28ZM232.676 333.754L232.542 340.925C232.166 340.871 231.709 340.826 231.172 340.791C230.653 340.737 230.178 340.71 229.749 340.71C228.656 340.71 227.708 340.853 226.902 341.14C226.114 341.408 225.452 341.811 224.915 342.348C224.395 342.885 224.001 343.539 223.733 344.309C223.482 345.078 223.339 345.956 223.303 346.94L221.746 346.457C221.746 344.577 221.934 342.849 222.31 341.274C222.686 339.681 223.232 338.293 223.948 337.111C224.682 335.93 225.577 335.017 226.633 334.372C227.69 333.728 228.898 333.405 230.259 333.405C230.688 333.405 231.127 333.441 231.575 333.513C232.022 333.566 232.389 333.647 232.676 333.754ZM232.461 359.267C232.461 358.121 232.855 357.163 233.643 356.394C234.448 355.624 235.514 355.239 236.838 355.239C238.163 355.239 239.22 355.624 240.007 356.394C240.813 357.163 241.216 358.121 241.216 359.267C241.216 360.413 240.813 361.371 240.007 362.141C239.22 362.91 238.163 363.295 236.838 363.295C235.514 363.295 234.448 362.91 233.643 362.141C232.855 361.371 232.461 360.413 232.461 359.267ZM260.525 363H252.012L252.065 356.716H260.525C262.638 356.716 264.419 356.241 265.869 355.292C267.319 354.326 268.411 352.92 269.146 351.076C269.897 349.232 270.273 347.003 270.273 344.389V342.482C270.273 340.477 270.059 338.714 269.629 337.192C269.217 335.67 268.599 334.39 267.776 333.352C266.952 332.313 265.941 331.534 264.741 331.015C263.542 330.478 262.163 330.209 260.605 330.209H251.851V323.898H260.605C263.219 323.898 265.61 324.346 267.776 325.241C269.96 326.118 271.849 327.381 273.442 329.028C275.036 330.675 276.262 332.644 277.122 334.936C277.999 337.21 278.438 339.743 278.438 342.536V344.389C278.438 347.164 277.999 349.698 277.122 351.989C276.262 354.281 275.036 356.25 273.442 357.897C271.867 359.527 269.978 360.789 267.776 361.684C265.592 362.561 263.175 363 260.525 363ZM256.577 323.898V363H248.521V323.898H256.577ZM291.543 340.28V363H283.809V333.942H291.086L291.543 340.28ZM300.298 333.754L300.164 340.925C299.788 340.871 299.331 340.826 298.794 340.791C298.275 340.737 297.8 340.71 297.371 340.71C296.278 340.71 295.33 340.853 294.524 341.14C293.736 341.408 293.074 341.811 292.537 342.348C292.017 342.885 291.624 343.539 291.355 344.309C291.104 345.078 290.961 345.956 290.925 346.94L289.368 346.457C289.368 344.577 289.556 342.849 289.932 341.274C290.308 339.681 290.854 338.293 291.57 337.111C292.304 335.93 293.199 335.017 294.255 334.372C295.312 333.728 296.52 333.405 297.881 333.405C298.311 333.405 298.749 333.441 299.197 333.513C299.644 333.566 300.011 333.647 300.298 333.754Z" fill="white"/>
<path d="M339.603 511.515C335.137 503.78 335.137 494.25 339.603 486.515L414.472 356.838C418.938 349.103 427.191 344.338 436.123 344.338H585.861C594.793 344.338 603.046 349.103 607.512 356.838L682.381 486.515C686.847 494.25 686.847 503.78 682.381 511.515L607.512 641.193C603.046 648.928 594.793 653.693 585.861 653.693H436.123C427.191 653.693 418.938 648.928 414.472 641.193L339.603 511.515Z" fill="#89C958" fill-opacity="0.78"/>
</g>
<defs>
<clipPath id="clip0_1601_551">
<rect width="1440" height="567" fill="white"/>
</clipPath>
</defs>
</svg>
