<svg width="1440" height="567" viewBox="0 0 1440 567" fill="none" xmlns="http://www.w3.org/2000/svg">
<g clip-path="url(#clip0_1632_593)">
<path d="M-216.783 191.106C-221.249 183.371 -221.249 173.841 -216.783 166.106L-141.914 36.4287C-137.448 28.6937 -129.195 23.9287 -120.263 23.9287H29.4753C38.407 23.9287 46.6602 28.6937 51.126 36.4287L125.996 166.106C130.461 173.841 130.461 183.371 125.996 191.106L51.126 320.784C46.6601 328.519 38.407 333.284 29.4753 333.284H-120.263C-129.195 333.284 -137.448 328.519 -141.914 320.784L-216.783 191.106Z" fill="#89C958" fill-opacity="0.78"/>
<path d="M61.4099 671.719C56.9441 663.984 56.9441 654.454 61.4099 646.719L136.28 517.042C140.745 509.307 148.999 504.542 157.93 504.542H307.669C316.601 504.542 324.854 509.307 329.32 517.042L404.189 646.719C408.655 654.454 408.655 663.984 404.189 671.719L329.32 801.397C324.854 809.132 316.601 813.897 307.669 813.897H157.93C148.999 813.897 140.745 809.132 136.28 801.397L61.4099 671.719Z" fill="#89C958" fill-opacity="0.78"/>
<path d="M-216.783 511.515C-221.249 503.78 -221.249 494.25 -216.783 486.515L-141.914 356.838C-137.448 349.103 -129.195 344.338 -120.263 344.338H29.4753C38.407 344.338 46.6602 349.103 51.126 356.838L125.996 486.515C130.461 494.25 130.461 503.78 125.996 511.515L51.126 641.193C46.6601 648.928 38.407 653.693 29.4753 653.693H-120.263C-129.195 653.693 -137.448 648.928 -141.914 641.193L-216.783 511.515Z" fill="#89C958" fill-opacity="0.78"/>
<path d="M617.797 671.719C613.331 663.984 613.331 654.454 617.797 646.719L692.666 517.042C697.132 509.307 705.385 504.542 714.317 504.542H864.056C872.987 504.542 881.241 509.307 885.706 517.042L960.576 646.719C965.042 654.454 965.042 663.984 960.576 671.719L885.706 801.397C881.241 809.132 872.987 813.897 864.056 813.897H714.317C705.385 813.897 697.132 809.132 692.666 801.397L617.797 671.719Z" fill="#89C958" fill-opacity="0.78"/>
<path d="M895.987 511.515C891.522 503.78 891.522 494.25 895.987 486.515L970.857 356.838C975.323 349.103 983.576 344.338 992.507 344.338H1142.25C1151.18 344.338 1159.43 349.103 1163.9 356.838L1238.77 486.515C1243.23 494.25 1243.23 503.78 1238.77 511.515L1163.9 641.193C1159.43 648.928 1151.18 653.693 1142.25 653.693H992.507C983.576 653.693 975.323 648.928 970.857 641.193L895.987 511.515Z" fill="#89C958" fill-opacity="0.78"/>
<path d="M1174.18 671.719C1169.71 663.984 1169.71 654.454 1174.18 646.719L1249.05 517.042C1253.52 509.307 1261.77 504.542 1270.7 504.542H1420.44C1429.37 504.542 1437.62 509.307 1442.09 517.042L1516.96 646.719C1521.43 654.454 1521.43 663.984 1516.96 671.719L1442.09 801.397C1437.62 809.132 1429.37 813.897 1420.44 813.897H1270.7C1261.77 813.897 1253.52 809.132 1249.05 801.397L1174.18 671.719Z" fill="#89C958" fill-opacity="0.78"/>
<path d="M61.4099 351.311C56.9441 343.576 56.9441 334.046 61.4099 326.311L136.28 196.633C140.745 188.898 148.999 184.133 157.93 184.133H307.669C316.601 184.133 324.854 188.898 329.32 196.633L404.189 326.311C408.655 334.046 408.655 343.576 404.189 351.311L329.32 480.988C324.854 488.723 316.601 493.488 307.669 493.488H157.93C148.999 493.488 140.745 488.723 136.28 480.988L61.4099 351.311Z" fill="#89C958" fill-opacity="0.78"/>
<path d="M144.516 327.257V328.773C144.516 331.205 144.187 333.387 143.527 335.321C142.868 337.254 141.938 338.902 140.737 340.265C139.536 341.612 138.1 342.645 136.43 343.363C134.775 344.081 132.937 344.439 130.915 344.439C128.908 344.439 127.07 344.081 125.4 343.363C123.745 342.645 122.309 341.612 121.093 340.265C119.877 338.902 118.933 337.254 118.259 335.321C117.6 333.387 117.27 331.205 117.27 328.773V327.257C117.27 324.811 117.6 322.628 118.259 320.709C118.918 318.775 119.848 317.127 121.049 315.765C122.265 314.403 123.701 313.363 125.356 312.645C127.026 311.927 128.864 311.568 130.871 311.568C132.893 311.568 134.731 311.927 136.386 312.645C138.056 313.363 139.492 314.403 140.693 315.765C141.909 317.127 142.846 318.775 143.505 320.709C144.179 322.628 144.516 324.811 144.516 327.257ZM137.858 328.773V327.213C137.858 325.514 137.705 324.02 137.397 322.73C137.089 321.441 136.635 320.357 136.035 319.479C135.434 318.6 134.702 317.94 133.837 317.501C132.973 317.047 131.984 316.82 130.871 316.82C129.758 316.82 128.769 317.047 127.905 317.501C127.055 317.94 126.33 318.6 125.729 319.479C125.144 320.357 124.697 321.441 124.389 322.73C124.082 324.02 123.928 325.514 123.928 327.213V328.773C123.928 330.458 124.082 331.952 124.389 333.255C124.697 334.544 125.151 335.636 125.751 336.529C126.352 337.408 127.084 338.075 127.949 338.529C128.813 338.983 129.802 339.21 130.915 339.21C132.028 339.21 133.017 338.983 133.881 338.529C134.746 338.075 135.471 337.408 136.057 336.529C136.643 335.636 137.089 334.544 137.397 333.255C137.705 331.952 137.858 330.458 137.858 328.773ZM155.546 320.226V344H149.196V320.226H155.546ZM148.801 314.029C148.801 313.106 149.123 312.345 149.768 311.744C150.412 311.144 151.276 310.843 152.36 310.843C153.43 310.843 154.287 311.144 154.931 311.744C155.59 312.345 155.92 313.106 155.92 314.029C155.92 314.952 155.59 315.714 154.931 316.314C154.287 316.915 153.43 317.215 152.36 317.215C151.276 317.215 150.412 316.915 149.768 316.314C149.123 315.714 148.801 314.952 148.801 314.029ZM167.456 310.25V344H161.105V310.25H167.456ZM197.294 317.479L188.593 344H181.584L193.471 312.008H197.932L197.294 317.479ZM204.523 344L195.8 317.479L195.097 312.008H199.602L211.555 344H204.523ZM204.128 332.091V337.254H187.231V332.091H204.128ZM219.619 325.301V344H213.291V320.226H219.223L219.619 325.301ZM218.696 331.278H216.982C216.982 329.52 217.209 327.938 217.663 326.532C218.117 325.111 218.754 323.902 219.575 322.906C220.395 321.896 221.369 321.126 222.497 320.599C223.64 320.057 224.914 319.786 226.32 319.786C227.434 319.786 228.452 319.947 229.375 320.27C230.297 320.592 231.088 321.104 231.748 321.808C232.421 322.511 232.934 323.441 233.286 324.598C233.652 325.755 233.835 327.169 233.835 328.839V344H227.463V328.817C227.463 327.762 227.316 326.942 227.023 326.356C226.73 325.77 226.298 325.36 225.727 325.125C225.17 324.876 224.482 324.752 223.662 324.752C222.812 324.752 222.072 324.92 221.442 325.257C220.827 325.594 220.314 326.063 219.904 326.664C219.509 327.25 219.208 327.938 219.003 328.729C218.798 329.52 218.696 330.37 218.696 331.278ZM252.688 338.814V310.25H259.06V344H253.325L252.688 338.814ZM237.658 332.398V331.937C237.658 330.121 237.863 328.473 238.273 326.993C238.684 325.499 239.284 324.217 240.075 323.148C240.866 322.079 241.84 321.251 242.998 320.665C244.155 320.079 245.473 319.786 246.953 319.786C248.344 319.786 249.56 320.079 250.6 320.665C251.655 321.251 252.548 322.086 253.281 323.17C254.028 324.239 254.628 325.506 255.083 326.971C255.537 328.421 255.866 330.011 256.071 331.739V332.75C255.866 334.405 255.537 335.943 255.083 337.364C254.628 338.785 254.028 340.03 253.281 341.1C252.548 342.154 251.655 342.975 250.6 343.561C249.545 344.146 248.315 344.439 246.909 344.439C245.429 344.439 244.111 344.139 242.954 343.539C241.811 342.938 240.844 342.096 240.053 341.012C239.277 339.928 238.684 338.653 238.273 337.188C237.863 335.724 237.658 334.127 237.658 332.398ZM243.986 331.937V332.398C243.986 333.38 244.06 334.295 244.206 335.145C244.367 335.995 244.624 336.749 244.975 337.408C245.341 338.053 245.81 338.558 246.381 338.924C246.967 339.276 247.678 339.452 248.513 339.452C249.597 339.452 250.49 339.21 251.193 338.727C251.896 338.229 252.431 337.547 252.797 336.683C253.178 335.819 253.398 334.823 253.457 333.695V330.816C253.413 329.894 253.281 329.066 253.061 328.333C252.856 327.586 252.548 326.949 252.138 326.422C251.743 325.895 251.245 325.484 250.644 325.191C250.058 324.898 249.362 324.752 248.557 324.752C247.736 324.752 247.033 324.942 246.447 325.323C245.861 325.689 245.385 326.195 245.019 326.839C244.667 327.484 244.404 328.246 244.228 329.125C244.067 329.989 243.986 330.926 243.986 331.937ZM300.961 327.279V339.957C300.463 340.558 299.694 341.209 298.654 341.913C297.614 342.601 296.274 343.194 294.633 343.692C292.993 344.19 291.008 344.439 288.679 344.439C286.613 344.439 284.731 344.103 283.032 343.429C281.333 342.74 279.868 341.737 278.637 340.418C277.421 339.1 276.484 337.489 275.825 335.584C275.166 333.666 274.836 331.476 274.836 329.015V327.015C274.836 324.554 275.151 322.364 275.781 320.445C276.425 318.526 277.341 316.908 278.527 315.589C279.714 314.271 281.127 313.268 282.768 312.579C284.409 311.891 286.232 311.546 288.239 311.546C291.022 311.546 293.308 312 295.095 312.909C296.882 313.802 298.244 315.047 299.182 316.644C300.134 318.226 300.72 320.042 300.939 322.093H294.545C294.384 321.009 294.077 320.064 293.623 319.259C293.168 318.453 292.517 317.823 291.667 317.369C290.832 316.915 289.748 316.688 288.415 316.688C287.316 316.688 286.335 316.915 285.471 317.369C284.621 317.809 283.903 318.46 283.317 319.325C282.731 320.189 282.285 321.258 281.977 322.533C281.669 323.807 281.516 325.287 281.516 326.971V329.015C281.516 330.685 281.677 332.164 281.999 333.453C282.321 334.728 282.797 335.804 283.427 336.683C284.072 337.547 284.863 338.199 285.8 338.639C286.738 339.078 287.829 339.298 289.074 339.298C290.114 339.298 290.979 339.21 291.667 339.034C292.37 338.858 292.934 338.646 293.359 338.397C293.798 338.133 294.135 337.884 294.37 337.65V331.981H288.349V327.279H300.961ZM318.715 338.639V328.048C318.715 327.286 318.591 326.634 318.342 326.092C318.093 325.536 317.705 325.104 317.177 324.796C316.665 324.488 315.998 324.334 315.178 324.334C314.475 324.334 313.867 324.459 313.354 324.708C312.841 324.942 312.446 325.287 312.167 325.741C311.889 326.18 311.75 326.7 311.75 327.301H305.422C305.422 326.29 305.656 325.331 306.125 324.422C306.594 323.514 307.275 322.716 308.168 322.027C309.062 321.324 310.124 320.775 311.354 320.379C312.6 319.984 313.991 319.786 315.529 319.786C317.375 319.786 319.016 320.094 320.451 320.709C321.887 321.324 323.015 322.247 323.835 323.478C324.67 324.708 325.087 326.246 325.087 328.092V338.265C325.087 339.569 325.168 340.638 325.329 341.473C325.49 342.293 325.725 343.011 326.032 343.626V344H319.638C319.331 343.355 319.096 342.55 318.935 341.583C318.789 340.602 318.715 339.62 318.715 338.639ZM319.55 329.52L319.594 333.102H316.057C315.222 333.102 314.497 333.197 313.881 333.387C313.266 333.578 312.761 333.849 312.365 334.2C311.97 334.537 311.677 334.933 311.486 335.387C311.311 335.841 311.223 336.339 311.223 336.881C311.223 337.423 311.347 337.914 311.596 338.353C311.845 338.778 312.204 339.115 312.673 339.364C313.142 339.598 313.691 339.715 314.321 339.715C315.273 339.715 316.101 339.525 316.804 339.144C317.507 338.763 318.049 338.294 318.43 337.738C318.825 337.181 319.03 336.654 319.045 336.156L320.715 338.836C320.48 339.437 320.158 340.06 319.748 340.704C319.353 341.349 318.847 341.957 318.232 342.528C317.617 343.084 316.877 343.546 316.013 343.912C315.148 344.264 314.123 344.439 312.937 344.439C311.428 344.439 310.058 344.139 308.828 343.539C307.612 342.923 306.645 342.081 305.927 341.012C305.224 339.928 304.873 338.697 304.873 337.32C304.873 336.075 305.107 334.969 305.576 334.002C306.044 333.036 306.733 332.223 307.641 331.563C308.564 330.89 309.714 330.384 311.091 330.047C312.468 329.696 314.064 329.52 315.881 329.52H319.55ZM342.819 337.43C342.819 336.976 342.688 336.566 342.424 336.2C342.16 335.833 341.669 335.497 340.952 335.189C340.249 334.867 339.23 334.574 337.897 334.31C336.696 334.046 335.576 333.717 334.536 333.321C333.51 332.911 332.617 332.42 331.855 331.849C331.108 331.278 330.522 330.604 330.097 329.828C329.672 329.037 329.46 328.136 329.46 327.125C329.46 326.129 329.672 325.191 330.097 324.312C330.537 323.434 331.159 322.657 331.965 321.983C332.785 321.295 333.781 320.76 334.953 320.379C336.14 319.984 337.473 319.786 338.952 319.786C341.018 319.786 342.79 320.116 344.27 320.775C345.764 321.434 346.906 322.342 347.697 323.5C348.503 324.642 348.906 325.946 348.906 327.411H342.578C342.578 326.795 342.446 326.246 342.182 325.763C341.933 325.265 341.538 324.876 340.996 324.598C340.468 324.305 339.78 324.159 338.93 324.159C338.227 324.159 337.619 324.283 337.106 324.532C336.594 324.767 336.198 325.089 335.92 325.499C335.656 325.895 335.524 326.334 335.524 326.817C335.524 327.184 335.598 327.513 335.744 327.806C335.905 328.084 336.162 328.341 336.513 328.575C336.865 328.81 337.319 329.029 337.875 329.234C338.447 329.425 339.15 329.601 339.985 329.762C341.699 330.113 343.229 330.575 344.577 331.146C345.925 331.703 346.994 332.464 347.785 333.431C348.576 334.383 348.972 335.636 348.972 337.188C348.972 338.243 348.737 339.21 348.269 340.089C347.8 340.968 347.126 341.737 346.247 342.396C345.368 343.041 344.313 343.546 343.083 343.912C341.867 344.264 340.498 344.439 338.974 344.439C336.762 344.439 334.887 344.044 333.349 343.253C331.826 342.462 330.668 341.458 329.877 340.243C329.101 339.012 328.713 337.752 328.713 336.463H334.711C334.741 337.328 334.96 338.023 335.371 338.551C335.795 339.078 336.33 339.459 336.975 339.693C337.634 339.928 338.344 340.045 339.106 340.045C339.926 340.045 340.607 339.935 341.149 339.715C341.691 339.481 342.102 339.173 342.38 338.792C342.673 338.397 342.819 337.943 342.819 337.43ZM205.776 365.008V397H199.184L186.33 375.555V397H179.738V365.008H186.33L199.206 386.475V365.008H205.776ZM222.058 397.439C220.212 397.439 218.557 397.146 217.092 396.561C215.627 395.96 214.382 395.132 213.356 394.078C212.346 393.023 211.569 391.8 211.027 390.408C210.485 389.002 210.214 387.508 210.214 385.926V385.047C210.214 383.245 210.471 381.597 210.983 380.103C211.496 378.609 212.229 377.312 213.181 376.214C214.147 375.115 215.319 374.273 216.696 373.687C218.073 373.086 219.626 372.786 221.354 372.786C223.039 372.786 224.533 373.064 225.837 373.621C227.141 374.178 228.232 374.969 229.111 375.994C230.004 377.02 230.678 378.25 231.132 379.686C231.586 381.106 231.813 382.688 231.813 384.432V387.068H212.917V382.85H225.595V382.366C225.595 381.487 225.434 380.704 225.112 380.015C224.804 379.312 224.335 378.755 223.706 378.345C223.076 377.935 222.27 377.73 221.289 377.73C220.454 377.73 219.736 377.913 219.135 378.279C218.535 378.646 218.044 379.158 217.663 379.817C217.297 380.477 217.019 381.253 216.828 382.146C216.652 383.025 216.564 383.992 216.564 385.047V385.926C216.564 386.878 216.696 387.757 216.96 388.562C217.238 389.368 217.626 390.064 218.125 390.65C218.637 391.236 219.252 391.69 219.97 392.012C220.703 392.334 221.53 392.496 222.453 392.496C223.596 392.496 224.658 392.276 225.639 391.836C226.635 391.382 227.492 390.701 228.21 389.793L231.286 393.133C230.788 393.851 230.107 394.539 229.243 395.198C228.393 395.857 227.368 396.399 226.167 396.824C224.965 397.234 223.596 397.439 222.058 397.439ZM242.207 390.848L247.15 373.226H251.171L249.875 380.147L244.931 397H241.569L242.207 390.848ZM239.702 373.226L243.239 390.826L243.569 397H239.614L233.593 373.226H239.702ZM255.698 390.54L259.147 373.226H265.278L259.257 397H255.324L255.698 390.54ZM251.721 373.226L256.643 390.716L257.324 397H253.94L248.996 380.169L247.744 373.226H251.721ZM281.318 390.43C281.318 389.976 281.186 389.566 280.922 389.2C280.659 388.833 280.168 388.497 279.45 388.189C278.747 387.867 277.729 387.574 276.396 387.31C275.195 387.046 274.074 386.717 273.034 386.321C272.009 385.911 271.115 385.42 270.354 384.849C269.606 384.278 269.021 383.604 268.596 382.828C268.171 382.037 267.958 381.136 267.958 380.125C267.958 379.129 268.171 378.191 268.596 377.312C269.035 376.434 269.658 375.657 270.463 374.983C271.284 374.295 272.28 373.76 273.452 373.379C274.638 372.984 275.971 372.786 277.451 372.786C279.516 372.786 281.289 373.116 282.768 373.775C284.262 374.434 285.405 375.342 286.196 376.5C287.001 377.642 287.404 378.946 287.404 380.411H281.076C281.076 379.795 280.944 379.246 280.681 378.763C280.432 378.265 280.036 377.876 279.494 377.598C278.967 377.305 278.278 377.159 277.429 377.159C276.726 377.159 276.118 377.283 275.605 377.532C275.092 377.767 274.697 378.089 274.418 378.499C274.155 378.895 274.023 379.334 274.023 379.817C274.023 380.184 274.096 380.513 274.243 380.806C274.404 381.084 274.66 381.341 275.012 381.575C275.363 381.81 275.817 382.029 276.374 382.234C276.945 382.425 277.648 382.601 278.483 382.762C280.197 383.113 281.728 383.575 283.076 384.146C284.423 384.703 285.493 385.464 286.284 386.431C287.075 387.383 287.47 388.636 287.47 390.188C287.47 391.243 287.236 392.21 286.767 393.089C286.298 393.968 285.625 394.737 284.746 395.396C283.867 396.041 282.812 396.546 281.582 396.912C280.366 397.264 278.996 397.439 277.473 397.439C275.261 397.439 273.386 397.044 271.848 396.253C270.324 395.462 269.167 394.458 268.376 393.243C267.6 392.012 267.211 390.752 267.211 389.463H273.21C273.239 390.328 273.459 391.023 273.869 391.551C274.294 392.078 274.829 392.459 275.473 392.693C276.132 392.928 276.843 393.045 277.604 393.045C278.425 393.045 279.106 392.935 279.648 392.715C280.19 392.481 280.6 392.173 280.878 391.792C281.171 391.397 281.318 390.943 281.318 390.43Z" fill="white"/>
<path d="M339.603 511.515C335.137 503.78 335.137 494.25 339.603 486.515L414.472 356.838C418.938 349.103 427.191 344.338 436.123 344.338H585.861C594.793 344.338 603.046 349.103 607.512 356.838L682.381 486.515C686.847 494.25 686.847 503.78 682.381 511.515L607.512 641.193C603.046 648.928 594.793 653.693 585.861 653.693H436.123C427.191 653.693 418.938 648.928 414.472 641.193L339.603 511.515Z" fill="#89C958" fill-opacity="0.78"/>
</g>
<defs>
<clipPath id="clip0_1632_593">
<rect width="1440" height="567" fill="white"/>
</clipPath>
</defs>
</svg>
