<svg width="1440" height="567" viewBox="0 0 1440 567" fill="none" xmlns="http://www.w3.org/2000/svg">
<g clip-path="url(#clip0_1632_573)">
<path d="M1656.78 191.106C1661.25 183.371 1661.25 173.841 1656.78 166.106L1581.91 36.4287C1577.45 28.6937 1569.2 23.9287 1560.26 23.9287H1410.52C1401.59 23.9287 1393.34 28.6937 1388.87 36.4287L1314 166.106C1309.54 173.841 1309.54 183.371 1314 191.106L1388.87 320.784C1393.34 328.519 1401.59 333.284 1410.52 333.284H1560.26C1569.2 333.284 1577.45 328.519 1581.91 320.784L1656.78 191.106Z" fill="#89C958" fill-opacity="0.78"/>
<path d="M1378.59 671.719C1383.06 663.984 1383.06 654.454 1378.59 646.719L1303.72 517.042C1299.26 509.307 1291 504.542 1282.07 504.542H1132.33C1123.4 504.542 1115.15 509.307 1110.68 517.042L1035.81 646.719C1031.35 654.454 1031.35 663.984 1035.81 671.719L1110.68 801.397C1115.15 809.132 1123.4 813.897 1132.33 813.897H1282.07C1291 813.897 1299.26 809.132 1303.72 801.397L1378.59 671.719Z" fill="#89C958" fill-opacity="0.78"/>
<path d="M1656.78 511.515C1661.25 503.78 1661.25 494.25 1656.78 486.515L1581.91 356.838C1577.45 349.103 1569.2 344.338 1560.26 344.338H1410.52C1401.59 344.338 1393.34 349.103 1388.87 356.838L1314 486.515C1309.54 494.25 1309.54 503.78 1314 511.515L1388.87 641.193C1393.34 648.928 1401.59 653.693 1410.52 653.693H1560.26C1569.2 653.693 1577.45 648.928 1581.91 641.193L1656.78 511.515Z" fill="#89C958" fill-opacity="0.78"/>
<path d="M822.203 671.719C826.669 663.984 826.669 654.454 822.203 646.719L747.334 517.042C742.868 509.307 734.615 504.542 725.683 504.542H575.944C567.013 504.542 558.759 509.307 554.294 517.042L479.424 646.719C474.958 654.454 474.958 663.984 479.424 671.719L554.294 801.397C558.759 809.132 567.013 813.897 575.944 813.897H725.683C734.615 813.897 742.868 809.132 747.334 801.397L822.203 671.719Z" fill="#89C958" fill-opacity="0.78"/>
<path d="M544.013 511.515C548.478 503.78 548.478 494.25 544.013 486.515L469.143 356.838C464.677 349.103 456.424 344.338 447.493 344.338H297.751C288.821 344.338 280.571 349.103 276.101 356.838L201.231 486.515C196.771 494.25 196.771 503.78 201.231 511.515L276.101 641.193C280.571 648.928 288.821 653.693 297.751 653.693H447.493C456.424 653.693 464.677 648.928 469.143 641.193L544.013 511.515Z" fill="#89C958" fill-opacity="0.78"/>
<path d="M265.819 671.719C270.289 663.984 270.289 654.454 265.819 646.719L190.949 517.042C186.479 509.307 178.229 504.542 169.299 504.542H19.5595C10.6295 504.542 2.37945 509.307 -2.09055 517.042L-76.9605 646.719C-81.4305 654.454 -81.4305 663.984 -76.9605 671.719L-2.09055 801.397C2.37945 809.132 10.6295 813.897 19.5595 813.897H169.299C178.229 813.897 186.479 809.132 190.949 801.397L265.819 671.719Z" fill="#89C958" fill-opacity="0.78"/>
<path d="M1378.59 351.311C1383.06 343.576 1383.06 334.046 1378.59 326.311L1303.72 196.633C1299.26 188.898 1291 184.133 1282.07 184.133H1132.33C1123.4 184.133 1115.15 188.898 1110.68 196.633L1035.81 326.311C1031.35 334.046 1031.35 343.576 1035.81 351.311L1110.68 480.988C1115.15 488.723 1123.4 493.488 1132.33 493.488H1282.07C1291 493.488 1299.26 488.723 1303.72 480.988L1378.59 351.311Z" fill="#89C958" fill-opacity="0.78"/>
<path d="M1079.07 361.2L1077.03 356.08C1079.32 355.28 1081.17 354.4 1082.59 353.44C1084.03 352.48 1085.08 351.453 1085.75 350.36C1086.44 349.267 1086.79 348.133 1086.79 346.96C1086.79 346.213 1086.68 345.44 1086.47 344.64C1086.25 343.813 1085.95 342.947 1085.55 342.04C1085.17 341.133 1084.72 340.187 1084.19 339.2L1089.43 336.68C1090.36 338.467 1091.08 340.173 1091.59 341.8C1092.12 343.427 1092.39 344.947 1092.39 346.36C1092.39 347.667 1092.21 348.92 1091.87 350.12C1091.55 351.32 1091.04 352.44 1090.35 353.48C1089.68 354.547 1088.81 355.547 1087.75 356.48C1086.68 357.413 1085.43 358.267 1083.99 359.04C1082.55 359.84 1080.91 360.56 1079.07 361.2ZM1087.91 332.6C1087.08 332.6 1086.37 332.32 1085.79 331.76C1085.23 331.2 1084.95 330.507 1084.95 329.68C1084.95 328.853 1085.23 328.147 1085.79 327.56C1086.37 326.973 1087.08 326.68 1087.91 326.68C1088.71 326.68 1089.39 326.973 1089.95 327.56C1090.53 328.147 1090.83 328.853 1090.83 329.68C1090.83 330.507 1090.53 331.2 1089.95 331.76C1089.39 332.32 1088.71 332.6 1087.91 332.6ZM1107.47 352.2C1104.99 352.2 1103.07 351.947 1101.71 351.44C1100.38 350.933 1099.45 350.147 1098.91 349.08C1098.38 347.987 1098.07 346.613 1097.99 344.96L1097.15 322.72H1102.75L1103.59 342.28C1103.65 343.507 1103.78 344.427 1103.99 345.04C1104.21 345.653 1104.61 346.067 1105.19 346.28C1105.81 346.493 1106.7 346.6 1107.87 346.6C1108.89 346.6 1109.61 346.867 1110.03 347.4C1110.49 347.907 1110.71 348.547 1110.71 349.32C1110.71 350.147 1110.43 350.84 1109.87 351.4C1109.31 351.933 1108.51 352.2 1107.47 352.2ZM1107.65 328.6L1105.69 325.32C1106.99 324.547 1108.34 323.773 1109.73 323C1111.11 322.2 1112.66 321.347 1114.37 320.44C1116.1 319.507 1118.13 318.453 1120.45 317.28L1122.29 320.8C1119.91 321.947 1117.86 322.973 1116.13 323.88C1114.42 324.787 1112.89 325.627 1111.53 326.4C1110.19 327.147 1108.9 327.88 1107.65 328.6ZM1107.53 352.2L1107.93 346.6H1113.65C1114.21 346.6 1114.7 346.573 1115.13 346.52C1115.55 346.44 1115.9 346.32 1116.17 346.16C1116.46 346 1116.67 345.8 1116.81 345.56C1116.94 345.32 1117.01 345.04 1117.01 344.72C1117.01 344.4 1116.83 343.893 1116.49 343.2C1116.17 342.48 1115.46 341.613 1114.37 340.6C1113.78 340.067 1113.14 339.507 1112.45 338.92C1111.78 338.307 1111.14 337.733 1110.53 337.2C1109.91 336.64 1109.41 336.147 1109.01 335.72C1108.61 335.293 1108.41 334.987 1108.41 334.8C1108.41 334.4 1108.43 333.96 1108.49 333.48C1108.54 333 1108.62 332.56 1108.73 332.16C1108.86 331.76 1109.03 331.467 1109.25 331.28C1109.7 330.853 1110.37 330.36 1111.25 329.8C1112.15 329.213 1113.23 328.587 1114.49 327.92C1115.74 327.227 1117.14 326.507 1118.69 325.76C1120.26 324.987 1121.94 324.213 1123.73 323.44L1126.01 328.32C1124.54 328.96 1123.15 329.587 1121.85 330.2C1120.54 330.787 1119.31 331.373 1118.17 331.96C1117.05 332.52 1116.01 333.08 1115.05 333.64C1114.11 334.173 1113.29 334.707 1112.57 335.24L1113.09 332.28C1115.35 334.013 1117.15 335.573 1118.49 336.96C1119.85 338.347 1120.86 339.587 1121.53 340.68C1122.19 341.747 1122.63 342.707 1122.85 343.56C1123.06 344.387 1123.17 345.12 1123.17 345.76C1123.17 346.4 1123.01 347.093 1122.69 347.84C1122.39 348.56 1121.85 349.253 1121.05 349.92C1120.27 350.587 1119.18 351.133 1117.77 351.56C1116.35 351.987 1114.54 352.2 1112.33 352.2H1107.53ZM1137.93 361.2L1136.77 355.6C1138.67 355.36 1140.32 355.067 1141.73 354.72C1143.15 354.4 1144.33 353.947 1145.29 353.36C1146.25 352.773 1146.97 351.973 1147.45 350.96C1147.93 349.92 1148.17 348.587 1148.17 346.96C1148.17 346.373 1148.12 345.787 1148.01 345.2C1147.91 344.587 1147.75 344.027 1147.53 343.52C1147.32 343.013 1147.04 342.6 1146.69 342.28C1146.37 341.96 1145.99 341.8 1145.53 341.8C1145.05 341.8 1144.63 341.973 1144.25 342.32C1143.88 342.64 1143.59 343.053 1143.37 343.56C1143.16 344.04 1143.05 344.533 1143.05 345.04C1143.05 345.413 1143.15 345.733 1143.33 346C1143.52 346.24 1143.8 346.427 1144.17 346.56C1144.55 346.667 1145.01 346.72 1145.57 346.72C1146.21 346.72 1146.87 346.653 1147.53 346.52C1148.23 346.36 1148.85 346.147 1149.41 345.88L1149.57 350.24C1148.93 350.747 1148.2 351.2 1147.37 351.6C1146.55 351.973 1145.55 352.16 1144.37 352.16C1143.41 352.16 1142.52 352.053 1141.69 351.84C1140.87 351.6 1140.13 351.24 1139.49 350.76C1138.88 350.28 1138.4 349.667 1138.05 348.92C1137.71 348.147 1137.53 347.227 1137.53 346.16C1137.53 344.853 1137.75 343.587 1138.17 342.36C1138.6 341.133 1139.19 340.04 1139.93 339.08C1140.71 338.093 1141.59 337.32 1142.57 336.76C1143.59 336.173 1144.65 335.88 1145.77 335.88C1147.11 335.88 1148.27 336.213 1149.25 336.88C1150.27 337.547 1151.11 338.427 1151.77 339.52C1152.44 340.587 1152.95 341.747 1153.29 343C1153.64 344.253 1153.81 345.453 1153.81 346.6C1153.81 349.613 1153.17 352.173 1151.89 354.28C1150.61 356.387 1148.79 358.013 1146.41 359.16C1144.04 360.333 1141.21 361.013 1137.93 361.2ZM1182.54 352.84L1183.58 347.24C1185.5 347.24 1187.34 347.147 1189.1 346.96C1190.88 346.773 1192.58 346.4 1194.18 345.84C1195.8 345.28 1197.32 344.453 1198.74 343.36C1200.15 342.267 1201.43 340.8 1202.58 338.96L1207.06 341C1206.9 341.507 1206.76 342 1206.66 342.48C1206.55 342.933 1206.5 343.307 1206.5 343.6C1206.5 344.213 1206.64 344.747 1206.94 345.2C1207.26 345.653 1207.79 346 1208.54 346.24C1209.28 346.48 1210.31 346.6 1211.62 346.6C1212.63 346.6 1213.35 346.867 1213.78 347.4C1214.2 347.907 1214.42 348.547 1214.42 349.32C1214.42 350.147 1214.14 350.84 1213.58 351.4C1213.04 351.933 1212.26 352.2 1211.22 352.2C1209.38 352.2 1207.78 351.947 1206.42 351.44C1205.08 350.933 1204.03 350.227 1203.26 349.32C1202.51 348.387 1202.07 347.32 1201.94 346.12L1203.54 346.28C1202.58 347.427 1201.38 348.413 1199.94 349.24C1198.52 350.067 1196.91 350.747 1195.1 351.28C1193.31 351.813 1191.35 352.2 1189.22 352.44C1187.11 352.707 1184.88 352.84 1182.54 352.84ZM1182.5 352.84C1179.62 352.84 1177.18 352.613 1175.18 352.16C1173.2 351.733 1171.59 351.12 1170.34 350.32C1169.11 349.493 1168.22 348.533 1167.66 347.44C1167.1 346.347 1166.82 345.147 1166.82 343.84C1166.82 342.987 1166.88 342.133 1167.02 341.28C1167.18 340.4 1167.36 339.547 1167.58 338.72C1167.82 337.893 1168.03 337.147 1168.22 336.48L1173.22 337.64C1173.11 338.12 1172.99 338.64 1172.86 339.2C1172.72 339.76 1172.62 340.307 1172.54 340.84C1172.46 341.347 1172.42 341.813 1172.42 342.24C1172.42 343.227 1172.76 344.107 1173.46 344.88C1174.18 345.627 1175.35 346.213 1176.98 346.64C1178.6 347.04 1180.79 347.24 1183.54 347.24L1184.34 351.56L1182.5 352.84ZM1189.94 334.56C1189.16 334.56 1188.5 334.293 1187.94 333.76C1187.4 333.2 1187.14 332.547 1187.14 331.8C1187.14 331.027 1187.4 330.36 1187.94 329.8C1188.5 329.24 1189.16 328.96 1189.94 328.96C1190.68 328.96 1191.32 329.24 1191.86 329.8C1192.39 330.36 1192.66 331.027 1192.66 331.8C1192.66 332.547 1192.39 333.2 1191.86 333.76C1191.32 334.293 1190.68 334.56 1189.94 334.56ZM1183.02 334.52C1182.24 334.52 1181.58 334.253 1181.02 333.72C1180.48 333.16 1180.22 332.507 1180.22 331.76C1180.22 330.987 1180.48 330.32 1181.02 329.76C1181.58 329.2 1182.24 328.92 1183.02 328.92C1183.76 328.92 1184.4 329.2 1184.94 329.76C1185.47 330.32 1185.74 330.987 1185.74 331.76C1185.74 332.507 1185.47 333.16 1184.94 333.72C1184.4 334.253 1183.76 334.52 1183.02 334.52ZM1211.2 352.2L1211.6 346.64C1212.64 346.667 1213.6 346.653 1214.48 346.6C1215.36 346.547 1216.15 346.467 1216.84 346.36C1217.56 346.253 1218.19 346.133 1218.72 346C1219.28 345.867 1219.75 345.747 1220.12 345.64C1221.03 345.347 1221.8 345 1222.44 344.6C1223.08 344.173 1223.57 343.693 1223.92 343.16C1224.27 342.627 1224.44 342.053 1224.44 341.44C1224.44 340.96 1224.33 340.48 1224.12 340C1223.93 339.493 1223.65 339.08 1223.28 338.76C1222.91 338.44 1222.47 338.28 1221.96 338.28C1221.48 338.28 1221.04 338.427 1220.64 338.72C1220.24 339.013 1219.92 339.413 1219.68 339.92C1219.44 340.4 1219.32 340.96 1219.32 341.6C1219.32 342.16 1219.45 342.693 1219.72 343.2C1219.99 343.68 1220.36 344.147 1220.84 344.6C1221.32 345.053 1221.89 345.48 1222.56 345.88L1217.24 347.92C1216.65 347.36 1216.09 346.76 1215.56 346.12C1215.05 345.48 1214.63 344.76 1214.28 343.96C1213.96 343.133 1213.8 342.213 1213.8 341.2C1213.8 339.973 1214.04 338.853 1214.52 337.84C1215 336.827 1215.64 335.96 1216.44 335.24C1217.24 334.493 1218.13 333.92 1219.12 333.52C1220.11 333.12 1221.09 332.92 1222.08 332.92C1223.68 332.92 1225.07 333.293 1226.24 334.04C1227.41 334.787 1228.32 335.76 1228.96 336.96C1229.63 338.16 1229.96 339.467 1229.96 340.88C1229.96 342.187 1229.72 343.36 1229.24 344.4C1228.76 345.413 1228.11 346.32 1227.28 347.12C1226.48 347.893 1225.59 348.573 1224.6 349.16C1223.64 349.747 1222.67 350.24 1221.68 350.64C1221.2 350.853 1220.6 351.053 1219.88 351.24C1219.16 351.427 1218.35 351.6 1217.44 351.76C1216.53 351.893 1215.56 352 1214.52 352.08C1213.48 352.16 1212.37 352.2 1211.2 352.2ZM1232.32 352.2C1230.77 352.2 1229.25 352.12 1227.76 351.96C1226.27 351.8 1224.88 351.56 1223.6 351.24C1222.35 350.92 1221.25 350.533 1220.32 350.08L1223.08 345.76C1223.88 345.973 1224.81 346.147 1225.88 346.28C1226.97 346.387 1228.11 346.467 1229.28 346.52C1230.48 346.573 1231.63 346.6 1232.72 346.6C1233.73 346.6 1234.45 346.867 1234.88 347.4C1235.33 347.907 1235.56 348.547 1235.56 349.32C1235.56 350.147 1235.28 350.84 1234.72 351.4C1234.16 351.933 1233.36 352.2 1232.32 352.2ZM1222.12 329.2C1221.29 329.2 1220.59 328.92 1220 328.36C1219.44 327.8 1219.16 327.107 1219.16 326.28C1219.16 325.453 1219.44 324.747 1220 324.16C1220.59 323.573 1221.29 323.28 1222.12 323.28C1222.92 323.28 1223.6 323.573 1224.16 324.16C1224.75 324.747 1225.04 325.453 1225.04 326.28C1225.04 327.107 1224.75 327.8 1224.16 328.36C1223.6 328.92 1222.92 329.2 1222.12 329.2ZM1232.37 352.2L1232.77 346.6C1233.94 346.6 1234.86 346.52 1235.53 346.36C1236.22 346.2 1236.72 345.907 1237.01 345.48C1237.3 345.027 1237.45 344.387 1237.45 343.56C1237.45 342.813 1237.34 341.92 1237.13 340.88C1236.94 339.84 1236.69 338.76 1236.37 337.64C1236.05 336.52 1235.73 335.493 1235.41 334.56L1240.93 333.04C1241.25 333.947 1241.57 335 1241.89 336.2C1242.21 337.4 1242.48 338.64 1242.69 339.92C1242.93 341.173 1243.05 342.387 1243.05 343.56C1243.05 345.027 1242.86 346.267 1242.49 347.28C1242.12 348.267 1241.6 349.093 1240.93 349.76C1240.29 350.4 1239.52 350.907 1238.61 351.28C1237.73 351.627 1236.76 351.867 1235.69 352C1234.62 352.133 1233.52 352.2 1232.37 352.2ZM1238.13 329.72C1237.3 329.72 1236.6 329.44 1236.01 328.88C1235.45 328.32 1235.17 327.627 1235.17 326.8C1235.17 325.973 1235.45 325.267 1236.01 324.68C1236.6 324.093 1237.3 323.8 1238.13 323.8C1238.93 323.8 1239.61 324.093 1240.17 324.68C1240.76 325.267 1241.05 325.973 1241.05 326.8C1241.05 327.627 1240.76 328.32 1240.17 328.88C1239.61 329.44 1238.93 329.72 1238.13 329.72ZM1255.67 361.2L1253.63 356.08C1255.92 355.28 1257.77 354.4 1259.19 353.44C1260.63 352.48 1261.68 351.453 1262.35 350.36C1263.04 349.267 1263.39 348.133 1263.39 346.96C1263.39 346.213 1263.28 345.44 1263.07 344.64C1262.85 343.813 1262.55 342.947 1262.15 342.04C1261.77 341.133 1261.32 340.187 1260.79 339.2L1266.03 336.68C1266.96 338.467 1267.68 340.173 1268.19 341.8C1268.72 343.427 1268.99 344.947 1268.99 346.36C1268.99 347.667 1268.81 348.92 1268.47 350.12C1268.15 351.32 1267.64 352.44 1266.95 353.48C1266.28 354.547 1265.41 355.547 1264.35 356.48C1263.28 357.413 1262.03 358.267 1260.59 359.04C1259.15 359.84 1257.51 360.56 1255.67 361.2ZM1284.07 352.2C1281.59 352.2 1279.67 351.947 1278.31 351.44C1276.98 350.933 1276.05 350.147 1275.51 349.08C1274.98 347.987 1274.67 346.613 1274.59 344.96L1273.75 322.72H1279.35L1280.19 342.28C1280.25 343.507 1280.38 344.427 1280.59 345.04C1280.81 345.653 1281.21 346.067 1281.79 346.28C1282.41 346.493 1283.3 346.6 1284.47 346.6C1285.49 346.6 1286.21 346.867 1286.63 347.4C1287.09 347.907 1287.31 348.547 1287.31 349.32C1287.31 350.147 1287.03 350.84 1286.47 351.4C1285.91 351.933 1285.11 352.2 1284.07 352.2ZM1284.13 352.2L1284.53 346.6C1285.54 346.6 1286.34 346.507 1286.93 346.32C1287.54 346.133 1288.02 345.76 1288.37 345.2C1288.74 344.613 1289.05 343.76 1289.29 342.64C1289.56 341.52 1289.82 340.027 1290.09 338.16L1295.33 339.04C1295.28 339.44 1295.2 339.907 1295.09 340.44C1295.01 340.973 1294.93 341.52 1294.85 342.08C1294.8 342.613 1294.77 343.12 1294.77 343.6C1294.77 344.24 1294.9 344.787 1295.17 345.24C1295.46 345.667 1295.97 346 1296.69 346.24C1297.44 346.48 1298.5 346.6 1299.89 346.6C1300.9 346.6 1301.62 346.867 1302.05 347.4C1302.48 347.907 1302.69 348.547 1302.69 349.32C1302.69 350.147 1302.41 350.84 1301.85 351.4C1301.32 351.933 1300.53 352.2 1299.49 352.2C1297.65 352.2 1296.16 352.027 1295.01 351.68C1293.86 351.333 1293.01 350.747 1292.45 349.92C1291.89 349.093 1291.53 347.96 1291.37 346.52H1293.29C1292.81 347.8 1292.25 348.827 1291.61 349.6C1290.97 350.347 1290.25 350.907 1289.45 351.28C1288.65 351.653 1287.8 351.893 1286.89 352C1286.01 352.133 1285.09 352.2 1284.13 352.2ZM1291.25 361.4C1290.48 361.4 1289.81 361.133 1289.25 360.6C1288.72 360.067 1288.45 359.413 1288.45 358.64C1288.45 357.867 1288.72 357.187 1289.25 356.6C1289.81 356.04 1290.48 355.76 1291.25 355.76C1292.02 355.76 1292.68 356.04 1293.21 356.6C1293.77 357.187 1294.05 357.867 1294.05 358.64C1294.05 359.413 1293.77 360.067 1293.21 360.6C1292.68 361.133 1292.02 361.4 1291.25 361.4ZM1299.48 352.2L1299.88 346.6C1301.32 346.6 1302.75 346.52 1304.16 346.36C1305.57 346.2 1306.95 345.96 1308.28 345.64C1309.61 345.32 1310.88 344.907 1312.08 344.4C1313.31 343.893 1314.45 343.28 1315.52 342.56C1314.72 342.08 1313.85 341.667 1312.92 341.32C1311.99 340.973 1310.99 340.72 1309.92 340.56C1308.88 340.373 1307.77 340.28 1306.6 340.28C1306.17 340.28 1305.72 340.293 1305.24 340.32C1304.79 340.347 1304.32 340.4 1303.84 340.48C1303.36 340.533 1302.88 340.613 1302.4 340.72L1301.6 335.24C1302.37 335.027 1303.19 334.88 1304.04 334.8C1304.92 334.693 1305.69 334.64 1306.36 334.64C1307.8 334.64 1309.12 334.8 1310.32 335.12C1311.55 335.44 1312.67 335.84 1313.68 336.32C1314.72 336.8 1315.68 337.28 1316.56 337.76C1317.47 338.24 1318.32 338.64 1319.12 338.96C1319.95 339.28 1320.75 339.44 1321.52 339.44H1323L1323.64 344.76C1322.49 344.813 1321.41 345.04 1320.4 345.44C1319.41 345.813 1318.43 346.293 1317.44 346.88C1316.48 347.44 1315.44 348.027 1314.32 348.64C1313.23 349.253 1311.99 349.827 1310.6 350.36C1309.21 350.893 1307.61 351.333 1305.8 351.68C1303.99 352.027 1301.88 352.2 1299.48 352.2ZM1306.4 330.92C1305.57 330.92 1304.87 330.64 1304.28 330.08C1303.72 329.52 1303.44 328.827 1303.44 328C1303.44 327.173 1303.72 326.467 1304.28 325.88C1304.87 325.293 1305.57 325 1306.4 325C1307.2 325 1307.88 325.293 1308.44 325.88C1309.03 326.467 1309.32 327.173 1309.32 328C1309.32 328.827 1309.03 329.52 1308.44 330.08C1307.88 330.64 1307.2 330.92 1306.4 330.92ZM1327.84 352L1327 322.72H1332.6L1333.44 352H1327.84Z" fill="white"/>
<path d="M1100.4 511.515C1104.86 503.78 1104.86 494.25 1100.4 486.515L1025.53 356.838C1021.06 349.103 1012.81 344.338 1003.88 344.338H854.139C845.207 344.338 836.954 349.103 832.488 356.838L757.619 486.515C753.153 494.25 753.153 503.78 757.619 511.515L832.488 641.193C836.954 648.928 845.207 653.693 854.139 653.693H1003.88C1012.81 653.693 1021.06 648.928 1025.53 641.193L1100.4 511.515Z" fill="#89C958" fill-opacity="0.78"/>
</g>
<defs>
<clipPath id="clip0_1632_573">
<rect width="1440" height="567" fill="white" transform="matrix(-1 0 0 1 1440 0)"/>
</clipPath>
</defs>
</svg>
