<svg width="18" height="17" viewBox="0 0 18 17" fill="none" xmlns="http://www.w3.org/2000/svg">
<g clip-path="url(#clip0_1257_484)">
<path d="M15.4996 11.4817V13.5893C15.5004 13.7849 15.4602 13.9786 15.3817 14.1578C15.3031 14.3371 15.1879 14.498 15.0435 14.6303C14.899 14.7626 14.7285 14.8633 14.5428 14.9259C14.3571 14.9886 14.1603 15.0119 13.965 14.9943C11.799 14.7594 9.7183 14.0207 7.89023 12.8376C6.18945 11.7589 4.74748 10.3198 3.66674 8.62243C2.4771 6.78969 1.73677 4.70306 1.50571 2.53156C1.48812 2.33729 1.51126 2.1415 1.57364 1.95664C1.63603 1.77178 1.7363 1.60191 1.86807 1.45785C1.99984 1.31378 2.16022 1.19868 2.339 1.11986C2.51779 1.04105 2.71106 1.00025 2.90651 1.00007H5.01826C5.35987 0.996713 5.69105 1.11744 5.95007 1.33976C6.20909 1.56208 6.37828 1.87081 6.42609 2.20841C6.51522 2.88287 6.68052 3.54511 6.91883 4.18249C7.01354 4.43394 7.03403 4.70721 6.97789 4.96993C6.92175 5.23265 6.79132 5.4738 6.60207 5.66481L5.70809 6.55701C6.71016 8.31581 8.1693 9.77206 9.93159 10.7721L10.8256 9.87994C11.017 9.69106 11.2586 9.56089 11.5218 9.50486C11.7851 9.44883 12.0589 9.46929 12.3108 9.56381C12.9495 9.80164 13.613 9.96662 14.2888 10.0556C14.6308 10.1037 14.9431 10.2756 15.1663 10.5386C15.3895 10.8015 15.5081 11.1372 15.4996 11.4817Z" stroke="#89C958" stroke-width="2" stroke-linecap="round" stroke-linejoin="round"/>
</g>
<defs>
<clipPath id="clip0_1257_484">
<rect width="17" height="17" fill="white" transform="translate(0.5)"/>
</clipPath>
</defs>
</svg>
