<svg width="1440" height="567" viewBox="0 0 1440 567" fill="none" xmlns="http://www.w3.org/2000/svg">
<g clip-path="url(#clip0_1591_575)">
<path d="M-216.783 191.106C-221.249 183.371 -221.249 173.841 -216.783 166.106L-141.914 36.4287C-137.448 28.6937 -129.195 23.9287 -120.263 23.9287H29.4753C38.407 23.9287 46.6602 28.6937 51.126 36.4287L125.996 166.106C130.461 173.841 130.461 183.371 125.996 191.106L51.126 320.784C46.6601 328.519 38.407 333.284 29.4753 333.284H-120.263C-129.195 333.284 -137.448 328.519 -141.914 320.784L-216.783 191.106Z" fill="#89C958" fill-opacity="0.78"/>
<path d="M61.4099 671.719C56.9441 663.984 56.9441 654.454 61.4099 646.719L136.28 517.042C140.745 509.307 148.999 504.542 157.93 504.542H307.669C316.601 504.542 324.854 509.307 329.32 517.042L404.189 646.719C408.655 654.454 408.655 663.984 404.189 671.719L329.32 801.397C324.854 809.132 316.601 813.897 307.669 813.897H157.93C148.999 813.897 140.745 809.132 136.28 801.397L61.4099 671.719Z" fill="#89C958" fill-opacity="0.78"/>
<path d="M-216.783 511.515C-221.249 503.78 -221.249 494.25 -216.783 486.515L-141.914 356.838C-137.448 349.103 -129.195 344.338 -120.263 344.338H29.4753C38.407 344.338 46.6602 349.103 51.126 356.838L125.996 486.515C130.461 494.25 130.461 503.78 125.996 511.515L51.126 641.193C46.6601 648.928 38.407 653.693 29.4753 653.693H-120.263C-129.195 653.693 -137.448 648.928 -141.914 641.193L-216.783 511.515Z" fill="#89C958" fill-opacity="0.78"/>
<path d="M617.796 671.719C613.33 663.984 613.33 654.454 617.796 646.719L692.665 517.042C697.131 509.307 705.384 504.542 714.316 504.542H864.055C872.986 504.542 881.24 509.307 885.705 517.042L960.575 646.719C965.041 654.454 965.041 663.984 960.575 671.719L885.705 801.397C881.24 809.132 872.986 813.897 864.055 813.897H714.316C705.384 813.897 697.131 809.132 692.665 801.397L617.796 671.719Z" fill="#89C958" fill-opacity="0.78"/>
<path d="M895.988 511.515C891.523 503.78 891.523 494.25 895.988 486.515L970.858 356.838C975.324 349.103 983.577 344.338 992.508 344.338H1142.25C1151.18 344.338 1159.43 349.103 1163.9 356.838L1238.77 486.515C1243.23 494.25 1243.23 503.78 1238.77 511.515L1163.9 641.193C1159.43 648.928 1151.18 653.693 1142.25 653.693H992.508C983.577 653.693 975.324 648.928 970.858 641.193L895.988 511.515Z" fill="#89C958" fill-opacity="0.78"/>
<path d="M1174.18 671.719C1169.71 663.984 1169.71 654.454 1174.18 646.719L1249.05 517.042C1253.52 509.307 1261.77 504.542 1270.7 504.542H1420.44C1429.37 504.542 1437.62 509.307 1442.09 517.042L1516.96 646.719C1521.43 654.454 1521.43 663.984 1516.96 671.719L1442.09 801.397C1437.62 809.132 1429.37 813.897 1420.44 813.897H1270.7C1261.77 813.897 1253.52 809.132 1249.05 801.397L1174.18 671.719Z" fill="#89C958" fill-opacity="0.78"/>
<path d="M61.4099 351.311C56.9441 343.576 56.9441 334.046 61.4099 326.311L136.28 196.633C140.745 188.898 148.999 184.133 157.93 184.133H307.669C316.601 184.133 324.854 188.898 329.32 196.633L404.189 326.311C408.655 334.046 408.655 343.576 404.189 351.311L329.32 480.988C324.854 488.723 316.601 493.488 307.669 493.488H157.93C148.999 493.488 140.745 488.723 136.28 480.988L61.4099 351.311Z" fill="#89C958" fill-opacity="0.78"/>
<path d="M121.613 346.863H114.367V342.293H121.613C122.733 342.293 123.645 342.111 124.348 341.746C125.051 341.368 125.565 340.848 125.891 340.184C126.216 339.52 126.379 338.771 126.379 337.938C126.379 337.091 126.216 336.303 125.891 335.574C125.565 334.845 125.051 334.259 124.348 333.816C123.645 333.374 122.733 333.152 121.613 333.152H116.398V357H110.539V328.562H121.613C123.84 328.562 125.747 328.966 127.336 329.773C128.938 330.568 130.161 331.668 131.008 333.074C131.854 334.48 132.277 336.089 132.277 337.898C132.277 339.734 131.854 341.323 131.008 342.664C130.161 344.005 128.938 345.04 127.336 345.77C125.747 346.499 123.84 346.863 121.613 346.863ZM141.594 340.477V357H135.969V335.867H141.262L141.594 340.477ZM147.961 335.73L147.863 340.945C147.59 340.906 147.258 340.874 146.867 340.848C146.49 340.809 146.145 340.789 145.832 340.789C145.038 340.789 144.348 340.893 143.762 341.102C143.189 341.297 142.707 341.59 142.316 341.98C141.939 342.371 141.652 342.846 141.457 343.406C141.275 343.966 141.171 344.604 141.145 345.32L140.012 344.969C140.012 343.602 140.148 342.345 140.422 341.199C140.695 340.04 141.092 339.031 141.613 338.172C142.147 337.312 142.798 336.648 143.566 336.18C144.335 335.711 145.214 335.477 146.203 335.477C146.516 335.477 146.835 335.503 147.16 335.555C147.486 335.594 147.753 335.652 147.961 335.73ZM149.133 346.648V346.238C149.133 344.689 149.354 343.263 149.797 341.961C150.24 340.646 150.884 339.507 151.73 338.543C152.577 337.579 153.618 336.831 154.855 336.297C156.092 335.75 157.512 335.477 159.113 335.477C160.715 335.477 162.141 335.75 163.391 336.297C164.641 336.831 165.689 337.579 166.535 338.543C167.395 339.507 168.046 340.646 168.488 341.961C168.931 343.263 169.152 344.689 169.152 346.238V346.648C169.152 348.185 168.931 349.611 168.488 350.926C168.046 352.228 167.395 353.367 166.535 354.344C165.689 355.307 164.647 356.056 163.41 356.59C162.173 357.124 160.754 357.391 159.152 357.391C157.551 357.391 156.125 357.124 154.875 356.59C153.638 356.056 152.59 355.307 151.73 354.344C150.884 353.367 150.24 352.228 149.797 350.926C149.354 349.611 149.133 348.185 149.133 346.648ZM154.758 346.238V346.648C154.758 347.534 154.836 348.361 154.992 349.129C155.148 349.897 155.396 350.574 155.734 351.16C156.086 351.733 156.542 352.182 157.102 352.508C157.661 352.833 158.345 352.996 159.152 352.996C159.934 352.996 160.604 352.833 161.164 352.508C161.724 352.182 162.173 351.733 162.512 351.16C162.85 350.574 163.098 349.897 163.254 349.129C163.423 348.361 163.508 347.534 163.508 346.648V346.238C163.508 345.379 163.423 344.572 163.254 343.816C163.098 343.048 162.844 342.371 162.492 341.785C162.154 341.186 161.704 340.717 161.145 340.379C160.585 340.04 159.908 339.871 159.113 339.871C158.319 339.871 157.642 340.04 157.082 340.379C156.535 340.717 156.086 341.186 155.734 341.785C155.396 342.371 155.148 343.048 154.992 343.816C154.836 344.572 154.758 345.379 154.758 346.238ZM181.34 352.996C182.03 352.996 182.642 352.866 183.176 352.605C183.71 352.332 184.126 351.954 184.426 351.473C184.738 350.978 184.901 350.398 184.914 349.734H190.207C190.194 351.219 189.797 352.54 189.016 353.699C188.234 354.845 187.186 355.75 185.871 356.414C184.556 357.065 183.085 357.391 181.457 357.391C179.816 357.391 178.384 357.117 177.16 356.57C175.949 356.023 174.94 355.268 174.133 354.305C173.326 353.328 172.72 352.195 172.316 350.906C171.913 349.604 171.711 348.211 171.711 346.727V346.16C171.711 344.663 171.913 343.27 172.316 341.98C172.72 340.678 173.326 339.546 174.133 338.582C174.94 337.605 175.949 336.844 177.16 336.297C178.371 335.75 179.79 335.477 181.418 335.477C183.15 335.477 184.667 335.809 185.969 336.473C187.284 337.137 188.312 338.087 189.055 339.324C189.81 340.548 190.194 342 190.207 343.68H184.914C184.901 342.977 184.751 342.339 184.465 341.766C184.191 341.193 183.788 340.737 183.254 340.398C182.733 340.047 182.089 339.871 181.32 339.871C180.5 339.871 179.829 340.047 179.309 340.398C178.788 340.737 178.384 341.206 178.098 341.805C177.811 342.391 177.609 343.061 177.492 343.816C177.388 344.559 177.336 345.34 177.336 346.16V346.727C177.336 347.547 177.388 348.335 177.492 349.09C177.596 349.845 177.792 350.516 178.078 351.102C178.378 351.688 178.788 352.15 179.309 352.488C179.829 352.827 180.507 352.996 181.34 352.996ZM203.195 357.391C201.555 357.391 200.083 357.13 198.781 356.609C197.479 356.076 196.372 355.34 195.461 354.402C194.562 353.465 193.872 352.378 193.391 351.141C192.909 349.891 192.668 348.562 192.668 347.156V346.375C192.668 344.773 192.896 343.309 193.352 341.98C193.807 340.652 194.458 339.5 195.305 338.523C196.164 337.547 197.206 336.798 198.43 336.277C199.654 335.743 201.034 335.477 202.57 335.477C204.068 335.477 205.396 335.724 206.555 336.219C207.714 336.714 208.684 337.417 209.465 338.328C210.259 339.24 210.858 340.333 211.262 341.609C211.665 342.872 211.867 344.279 211.867 345.828V348.172H195.07V344.422H206.34V343.992C206.34 343.211 206.197 342.514 205.91 341.902C205.637 341.277 205.22 340.783 204.66 340.418C204.1 340.053 203.384 339.871 202.512 339.871C201.77 339.871 201.132 340.034 200.598 340.359C200.064 340.685 199.628 341.141 199.289 341.727C198.964 342.312 198.716 343.003 198.547 343.797C198.391 344.578 198.312 345.438 198.312 346.375V347.156C198.312 348.003 198.43 348.784 198.664 349.5C198.911 350.216 199.257 350.835 199.699 351.355C200.155 351.876 200.702 352.28 201.34 352.566C201.991 352.853 202.727 352.996 203.547 352.996C204.562 352.996 205.507 352.801 206.379 352.41C207.264 352.007 208.026 351.401 208.664 350.594L211.398 353.562C210.956 354.201 210.35 354.812 209.582 355.398C208.827 355.984 207.915 356.466 206.848 356.844C205.78 357.208 204.562 357.391 203.195 357.391ZM226.496 351.16C226.496 350.757 226.379 350.392 226.145 350.066C225.91 349.741 225.474 349.441 224.836 349.168C224.211 348.882 223.306 348.621 222.121 348.387C221.053 348.152 220.057 347.859 219.133 347.508C218.221 347.143 217.427 346.707 216.75 346.199C216.086 345.691 215.565 345.092 215.188 344.402C214.81 343.699 214.621 342.898 214.621 342C214.621 341.115 214.81 340.281 215.188 339.5C215.578 338.719 216.132 338.029 216.848 337.43C217.577 336.818 218.462 336.342 219.504 336.004C220.559 335.652 221.743 335.477 223.059 335.477C224.895 335.477 226.47 335.77 227.785 336.355C229.113 336.941 230.129 337.749 230.832 338.777C231.548 339.793 231.906 340.952 231.906 342.254H226.281C226.281 341.707 226.164 341.219 225.93 340.789C225.708 340.346 225.357 340.001 224.875 339.754C224.406 339.493 223.794 339.363 223.039 339.363C222.414 339.363 221.874 339.474 221.418 339.695C220.962 339.904 220.611 340.19 220.363 340.555C220.129 340.906 220.012 341.297 220.012 341.727C220.012 342.052 220.077 342.345 220.207 342.605C220.35 342.853 220.578 343.081 220.891 343.289C221.203 343.497 221.607 343.693 222.102 343.875C222.609 344.044 223.234 344.201 223.977 344.344C225.5 344.656 226.861 345.066 228.059 345.574C229.257 346.069 230.207 346.746 230.91 347.605C231.613 348.452 231.965 349.565 231.965 350.945C231.965 351.883 231.757 352.742 231.34 353.523C230.923 354.305 230.324 354.988 229.543 355.574C228.762 356.147 227.824 356.596 226.73 356.922C225.65 357.234 224.432 357.391 223.078 357.391C221.112 357.391 219.445 357.039 218.078 356.336C216.724 355.633 215.695 354.741 214.992 353.66C214.302 352.566 213.957 351.447 213.957 350.301H219.289C219.315 351.069 219.51 351.688 219.875 352.156C220.253 352.625 220.728 352.964 221.301 353.172C221.887 353.38 222.518 353.484 223.195 353.484C223.924 353.484 224.53 353.387 225.012 353.191C225.493 352.983 225.858 352.71 226.105 352.371C226.366 352.02 226.496 351.616 226.496 351.16ZM247.043 351.16C247.043 350.757 246.926 350.392 246.691 350.066C246.457 349.741 246.021 349.441 245.383 349.168C244.758 348.882 243.853 348.621 242.668 348.387C241.6 348.152 240.604 347.859 239.68 347.508C238.768 347.143 237.974 346.707 237.297 346.199C236.633 345.691 236.112 345.092 235.734 344.402C235.357 343.699 235.168 342.898 235.168 342C235.168 341.115 235.357 340.281 235.734 339.5C236.125 338.719 236.678 338.029 237.395 337.43C238.124 336.818 239.009 336.342 240.051 336.004C241.105 335.652 242.29 335.477 243.605 335.477C245.441 335.477 247.017 335.77 248.332 336.355C249.66 336.941 250.676 337.749 251.379 338.777C252.095 339.793 252.453 340.952 252.453 342.254H246.828C246.828 341.707 246.711 341.219 246.477 340.789C246.255 340.346 245.904 340.001 245.422 339.754C244.953 339.493 244.341 339.363 243.586 339.363C242.961 339.363 242.421 339.474 241.965 339.695C241.509 339.904 241.158 340.19 240.91 340.555C240.676 340.906 240.559 341.297 240.559 341.727C240.559 342.052 240.624 342.345 240.754 342.605C240.897 342.853 241.125 343.081 241.438 343.289C241.75 343.497 242.154 343.693 242.648 343.875C243.156 344.044 243.781 344.201 244.523 344.344C246.047 344.656 247.408 345.066 248.605 345.574C249.803 346.069 250.754 346.746 251.457 347.605C252.16 348.452 252.512 349.565 252.512 350.945C252.512 351.883 252.303 352.742 251.887 353.523C251.47 354.305 250.871 354.988 250.09 355.574C249.309 356.147 248.371 356.596 247.277 356.922C246.197 357.234 244.979 357.391 243.625 357.391C241.659 357.391 239.992 357.039 238.625 356.336C237.271 355.633 236.242 354.741 235.539 353.66C234.849 352.566 234.504 351.447 234.504 350.301H239.836C239.862 351.069 240.057 351.688 240.422 352.156C240.799 352.625 241.275 352.964 241.848 353.172C242.434 353.38 243.065 353.484 243.742 353.484C244.471 353.484 245.077 353.387 245.559 353.191C246.04 352.983 246.405 352.71 246.652 352.371C246.913 352.02 247.043 351.616 247.043 351.16ZM282.18 328.562H288.02V347.352C288.02 349.539 287.551 351.382 286.613 352.879C285.689 354.376 284.406 355.503 282.766 356.258C281.138 357.013 279.263 357.391 277.141 357.391C275.018 357.391 273.13 357.013 271.477 356.258C269.836 355.503 268.547 354.376 267.609 352.879C266.685 351.382 266.223 349.539 266.223 347.352V328.562H272.082V347.352C272.082 348.628 272.284 349.669 272.688 350.477C273.091 351.284 273.671 351.876 274.426 352.254C275.194 352.632 276.099 352.82 277.141 352.82C278.208 352.82 279.113 352.632 279.855 352.254C280.611 351.876 281.184 351.284 281.574 350.477C281.978 349.669 282.18 348.628 282.18 347.352V328.562ZM298 340.379V357H292.375V335.867H297.648L298 340.379ZM297.18 345.691H295.656C295.656 344.129 295.858 342.723 296.262 341.473C296.665 340.21 297.232 339.135 297.961 338.25C298.69 337.352 299.556 336.668 300.559 336.199C301.574 335.717 302.707 335.477 303.957 335.477C304.947 335.477 305.852 335.62 306.672 335.906C307.492 336.193 308.195 336.648 308.781 337.273C309.38 337.898 309.836 338.725 310.148 339.754C310.474 340.783 310.637 342.039 310.637 343.523V357H304.973V343.504C304.973 342.566 304.842 341.837 304.582 341.316C304.322 340.796 303.938 340.431 303.43 340.223C302.935 340.001 302.323 339.891 301.594 339.891C300.839 339.891 300.181 340.04 299.621 340.34C299.074 340.639 298.618 341.056 298.254 341.59C297.902 342.111 297.635 342.723 297.453 343.426C297.271 344.129 297.18 344.884 297.18 345.691ZM320.852 335.867V357H315.207V335.867H320.852ZM314.855 330.359C314.855 329.539 315.142 328.862 315.715 328.328C316.288 327.794 317.056 327.527 318.02 327.527C318.97 327.527 319.732 327.794 320.305 328.328C320.891 328.862 321.184 329.539 321.184 330.359C321.184 331.18 320.891 331.857 320.305 332.391C319.732 332.924 318.97 333.191 318.02 333.191C317.056 333.191 316.288 332.924 315.715 332.391C315.142 331.857 314.855 331.18 314.855 330.359ZM335.852 335.867V339.852H323.547V335.867H335.852ZM326.594 330.652H332.219V350.633C332.219 351.245 332.297 351.714 332.453 352.039C332.622 352.365 332.87 352.592 333.195 352.723C333.521 352.84 333.931 352.898 334.426 352.898C334.777 352.898 335.09 352.885 335.363 352.859C335.65 352.82 335.891 352.781 336.086 352.742L336.105 356.883C335.624 357.039 335.103 357.163 334.543 357.254C333.983 357.345 333.365 357.391 332.688 357.391C331.451 357.391 330.37 357.189 329.445 356.785C328.534 356.368 327.831 355.704 327.336 354.793C326.841 353.882 326.594 352.684 326.594 351.199V330.652ZM350.48 351.16C350.48 350.757 350.363 350.392 350.129 350.066C349.895 349.741 349.458 349.441 348.82 349.168C348.195 348.882 347.29 348.621 346.105 348.387C345.038 348.152 344.042 347.859 343.117 347.508C342.206 347.143 341.411 346.707 340.734 346.199C340.07 345.691 339.549 345.092 339.172 344.402C338.794 343.699 338.605 342.898 338.605 342C338.605 341.115 338.794 340.281 339.172 339.5C339.562 338.719 340.116 338.029 340.832 337.43C341.561 336.818 342.447 336.342 343.488 336.004C344.543 335.652 345.728 335.477 347.043 335.477C348.879 335.477 350.454 335.77 351.77 336.355C353.098 336.941 354.113 337.749 354.816 338.777C355.533 339.793 355.891 340.952 355.891 342.254H350.266C350.266 341.707 350.148 341.219 349.914 340.789C349.693 340.346 349.341 340.001 348.859 339.754C348.391 339.493 347.779 339.363 347.023 339.363C346.398 339.363 345.858 339.474 345.402 339.695C344.947 339.904 344.595 340.19 344.348 340.555C344.113 340.906 343.996 341.297 343.996 341.727C343.996 342.052 344.061 342.345 344.191 342.605C344.335 342.853 344.562 343.081 344.875 343.289C345.188 343.497 345.591 343.693 346.086 343.875C346.594 344.044 347.219 344.201 347.961 344.344C349.484 344.656 350.845 345.066 352.043 345.574C353.241 346.069 354.191 346.746 354.895 347.605C355.598 348.452 355.949 349.565 355.949 350.945C355.949 351.883 355.741 352.742 355.324 353.523C354.908 354.305 354.309 354.988 353.527 355.574C352.746 356.147 351.809 356.596 350.715 356.922C349.634 357.234 348.417 357.391 347.062 357.391C345.096 357.391 343.43 357.039 342.062 356.336C340.708 355.633 339.68 354.741 338.977 353.66C338.286 352.566 337.941 351.447 337.941 350.301H343.273C343.299 351.069 343.495 351.688 343.859 352.156C344.237 352.625 344.712 352.964 345.285 353.172C345.871 353.38 346.503 353.484 347.18 353.484C347.909 353.484 348.514 353.387 348.996 353.191C349.478 352.983 349.842 352.71 350.09 352.371C350.35 352.02 350.48 351.616 350.48 351.16Z" fill="white"/>
<path d="M339.603 511.515C335.137 503.78 335.137 494.25 339.603 486.515L414.472 356.838C418.938 349.103 427.191 344.338 436.123 344.338H585.861C594.793 344.338 603.046 349.103 607.512 356.838L682.381 486.515C686.847 494.25 686.847 503.78 682.381 511.515L607.512 641.193C603.046 648.928 594.793 653.693 585.861 653.693H436.123C427.191 653.693 418.938 648.928 414.472 641.193L339.603 511.515Z" fill="#89C958" fill-opacity="0.78"/>
</g>
<defs>
<clipPath id="clip0_1591_575">
<rect width="1440" height="567" fill="white"/>
</clipPath>
</defs>
</svg>
