<svg width="1440" height="567" viewBox="0 0 1440 567" fill="none" xmlns="http://www.w3.org/2000/svg">
<g clip-path="url(#clip0_1599_696)">
<path d="M-216.783 191.106C-221.249 183.371 -221.249 173.841 -216.783 166.106L-141.914 36.4287C-137.448 28.6937 -129.195 23.9287 -120.263 23.9287H29.4753C38.407 23.9287 46.6602 28.6937 51.126 36.4287L125.996 166.106C130.461 173.841 130.461 183.371 125.996 191.106L51.126 320.784C46.6601 328.519 38.407 333.284 29.4753 333.284H-120.263C-129.195 333.284 -137.448 328.519 -141.914 320.784L-216.783 191.106Z" fill="#89C958" fill-opacity="0.78"/>
<path d="M61.4099 671.719C56.9441 663.984 56.9441 654.454 61.4099 646.719L136.28 517.042C140.745 509.307 148.999 504.542 157.93 504.542H307.669C316.601 504.542 324.854 509.307 329.32 517.042L404.189 646.719C408.655 654.454 408.655 663.984 404.189 671.719L329.32 801.397C324.854 809.132 316.601 813.897 307.669 813.897H157.93C148.999 813.897 140.745 809.132 136.28 801.397L61.4099 671.719Z" fill="#89C958" fill-opacity="0.78"/>
<path d="M-216.783 511.515C-221.249 503.78 -221.249 494.25 -216.783 486.515L-141.914 356.838C-137.448 349.103 -129.195 344.338 -120.263 344.338H29.4753C38.407 344.338 46.6602 349.103 51.126 356.838L125.996 486.515C130.461 494.25 130.461 503.78 125.996 511.515L51.126 641.193C46.6601 648.928 38.407 653.693 29.4753 653.693H-120.263C-129.195 653.693 -137.448 648.928 -141.914 641.193L-216.783 511.515Z" fill="#89C958" fill-opacity="0.78"/>
<path d="M617.797 671.719C613.331 663.984 613.331 654.454 617.797 646.719L692.666 517.042C697.132 509.307 705.385 504.542 714.317 504.542H864.056C872.987 504.542 881.241 509.307 885.706 517.042L960.576 646.719C965.042 654.454 965.042 663.984 960.576 671.719L885.706 801.397C881.241 809.132 872.987 813.897 864.056 813.897H714.317C705.385 813.897 697.132 809.132 692.666 801.397L617.797 671.719Z" fill="#89C958" fill-opacity="0.78"/>
<path d="M895.987 511.515C891.522 503.78 891.522 494.25 895.987 486.515L970.857 356.838C975.323 349.103 983.576 344.338 992.507 344.338H1142.25C1151.18 344.338 1159.43 349.103 1163.9 356.838L1238.77 486.515C1243.23 494.25 1243.23 503.78 1238.77 511.515L1163.9 641.193C1159.43 648.928 1151.18 653.693 1142.25 653.693H992.507C983.576 653.693 975.323 648.928 970.857 641.193L895.987 511.515Z" fill="#89C958" fill-opacity="0.78"/>
<path d="M1174.18 671.719C1169.71 663.984 1169.71 654.454 1174.18 646.719L1249.05 517.042C1253.52 509.307 1261.77 504.542 1270.7 504.542H1420.44C1429.37 504.542 1437.62 509.307 1442.09 517.042L1516.96 646.719C1521.43 654.454 1521.43 663.984 1516.96 671.719L1442.09 801.397C1437.62 809.132 1429.37 813.897 1420.44 813.897H1270.7C1261.77 813.897 1253.52 809.132 1249.05 801.397L1174.18 671.719Z" fill="#89C958" fill-opacity="0.78"/>
<path d="M61.4099 351.311C56.9441 343.576 56.9441 334.046 61.4099 326.311L136.28 196.633C140.745 188.898 148.999 184.133 157.93 184.133H307.669C316.601 184.133 324.854 188.898 329.32 196.633L404.189 326.311C408.655 334.046 408.655 343.576 404.189 351.311L329.32 480.988C324.854 488.723 316.601 493.488 307.669 493.488H157.93C148.999 493.488 140.745 488.723 136.28 480.988L61.4099 351.311Z" fill="#89C958" fill-opacity="0.78"/>
<path d="M151.311 307.008H157.881V328.146C157.881 330.606 157.354 332.679 156.299 334.364C155.259 336.048 153.816 337.315 151.97 338.165C150.139 339.015 148.03 339.439 145.642 339.439C143.254 339.439 141.13 339.015 139.27 338.165C137.424 337.315 135.974 336.048 134.919 334.364C133.879 332.679 133.359 330.606 133.359 328.146V307.008H139.951V328.146C139.951 329.581 140.178 330.753 140.632 331.661C141.086 332.569 141.738 333.236 142.588 333.661C143.452 334.085 144.47 334.298 145.642 334.298C146.843 334.298 147.861 334.085 148.696 333.661C149.546 333.236 150.19 332.569 150.63 331.661C151.084 330.753 151.311 329.581 151.311 328.146V307.008ZM169.109 320.301V339H162.781V315.226H168.713L169.109 320.301ZM168.186 326.278H166.472C166.472 324.52 166.699 322.938 167.153 321.532C167.607 320.111 168.245 318.902 169.065 317.906C169.885 316.896 170.859 316.126 171.987 315.599C173.13 315.057 174.404 314.786 175.811 314.786C176.924 314.786 177.942 314.947 178.865 315.27C179.788 315.592 180.579 316.104 181.238 316.808C181.912 317.511 182.424 318.441 182.776 319.598C183.142 320.755 183.325 322.169 183.325 323.839V339H176.953V323.817C176.953 322.762 176.807 321.942 176.514 321.356C176.221 320.77 175.789 320.36 175.217 320.125C174.661 319.876 173.972 319.752 173.152 319.752C172.302 319.752 171.562 319.92 170.933 320.257C170.317 320.594 169.805 321.063 169.395 321.664C168.999 322.25 168.699 322.938 168.494 323.729C168.289 324.52 168.186 325.37 168.186 326.278ZM194.465 319.796V348.141H188.137V315.226H194.004L194.465 319.796ZM209.517 326.849V327.311C209.517 329.039 209.312 330.643 208.901 332.123C208.506 333.602 207.92 334.891 207.144 335.99C206.367 337.074 205.4 337.923 204.243 338.539C203.101 339.139 201.782 339.439 200.288 339.439C198.838 339.439 197.578 339.146 196.509 338.561C195.439 337.975 194.539 337.154 193.806 336.1C193.088 335.03 192.51 333.792 192.07 332.386C191.631 330.98 191.294 329.471 191.06 327.86V326.651C191.294 324.923 191.631 323.341 192.07 321.905C192.51 320.455 193.088 319.203 193.806 318.148C194.539 317.079 195.432 316.251 196.487 315.665C197.556 315.079 198.809 314.786 200.244 314.786C201.753 314.786 203.079 315.072 204.221 315.643C205.378 316.214 206.345 317.035 207.122 318.104C207.913 319.173 208.506 320.448 208.901 321.927C209.312 323.407 209.517 325.047 209.517 326.849ZM203.167 327.311V326.849C203.167 325.838 203.079 324.908 202.903 324.059C202.742 323.194 202.478 322.44 202.112 321.795C201.76 321.151 201.292 320.653 200.706 320.301C200.134 319.935 199.438 319.752 198.618 319.752C197.754 319.752 197.014 319.891 196.399 320.169C195.798 320.448 195.308 320.851 194.927 321.378C194.546 321.905 194.26 322.535 194.07 323.268C193.879 324 193.762 324.828 193.718 325.75V328.805C193.792 329.889 193.997 330.863 194.333 331.727C194.67 332.577 195.19 333.25 195.894 333.749C196.597 334.247 197.52 334.496 198.662 334.496C199.497 334.496 200.2 334.312 200.771 333.946C201.343 333.565 201.804 333.045 202.156 332.386C202.522 331.727 202.778 330.965 202.925 330.101C203.086 329.237 203.167 328.307 203.167 327.311ZM220.129 315.226V339H213.779V315.226H220.129ZM213.384 309.029C213.384 308.106 213.706 307.345 214.351 306.744C214.995 306.144 215.859 305.843 216.943 305.843C218.013 305.843 218.87 306.144 219.514 306.744C220.173 307.345 220.503 308.106 220.503 309.029C220.503 309.952 220.173 310.714 219.514 311.314C218.87 311.915 218.013 312.215 216.943 312.215C215.859 312.215 214.995 311.915 214.351 311.314C213.706 310.714 213.384 309.952 213.384 309.029ZM240.41 315.226H246.145V338.209C246.145 340.377 245.662 342.215 244.695 343.724C243.743 345.248 242.41 346.397 240.696 347.174C238.982 347.965 236.99 348.36 234.719 348.36C233.723 348.36 232.668 348.229 231.555 347.965C230.457 347.701 229.402 347.291 228.391 346.734C227.395 346.178 226.56 345.475 225.886 344.625L228.677 340.89C229.409 341.739 230.259 342.398 231.226 342.867C232.192 343.351 233.262 343.592 234.434 343.592C235.576 343.592 236.543 343.38 237.334 342.955C238.125 342.545 238.733 341.937 239.158 341.131C239.583 340.34 239.795 339.381 239.795 338.253V320.719L240.41 315.226ZM224.414 327.398V326.937C224.414 325.121 224.634 323.473 225.073 321.993C225.527 320.499 226.165 319.217 226.985 318.148C227.82 317.079 228.831 316.251 230.017 315.665C231.204 315.079 232.544 314.786 234.038 314.786C235.62 314.786 236.946 315.079 238.015 315.665C239.084 316.251 239.963 317.086 240.652 318.17C241.34 319.239 241.875 320.506 242.256 321.971C242.651 323.421 242.959 325.011 243.179 326.739V327.75C242.959 329.405 242.629 330.943 242.19 332.364C241.75 333.785 241.172 335.03 240.454 336.1C239.736 337.154 238.843 337.975 237.773 338.561C236.719 339.146 235.459 339.439 233.994 339.439C232.529 339.439 231.204 339.139 230.017 338.539C228.845 337.938 227.842 337.096 227.007 336.012C226.172 334.928 225.527 333.653 225.073 332.188C224.634 330.724 224.414 329.127 224.414 327.398ZM230.742 326.937V327.398C230.742 328.38 230.837 329.295 231.028 330.145C231.218 330.995 231.511 331.749 231.907 332.408C232.317 333.053 232.822 333.558 233.423 333.924C234.038 334.276 234.763 334.452 235.598 334.452C236.755 334.452 237.7 334.21 238.433 333.727C239.165 333.229 239.714 332.547 240.081 331.683C240.447 330.819 240.659 329.823 240.718 328.695V325.816C240.688 324.894 240.564 324.066 240.344 323.333C240.125 322.586 239.817 321.949 239.421 321.422C239.026 320.895 238.513 320.484 237.883 320.191C237.253 319.898 236.506 319.752 235.642 319.752C234.807 319.752 234.082 319.942 233.467 320.323C232.866 320.689 232.361 321.195 231.951 321.839C231.555 322.484 231.255 323.246 231.05 324.125C230.845 324.989 230.742 325.926 230.742 326.937ZM263.899 333.639V323.048C263.899 322.286 263.774 321.634 263.525 321.092C263.276 320.536 262.888 320.104 262.361 319.796C261.848 319.488 261.182 319.334 260.361 319.334C259.658 319.334 259.05 319.459 258.538 319.708C258.025 319.942 257.629 320.287 257.351 320.741C257.073 321.18 256.934 321.7 256.934 322.301H250.605C250.605 321.29 250.84 320.331 251.309 319.422C251.777 318.514 252.458 317.716 253.352 317.027C254.246 316.324 255.308 315.775 256.538 315.379C257.783 314.984 259.175 314.786 260.713 314.786C262.559 314.786 264.199 315.094 265.635 315.709C267.07 316.324 268.198 317.247 269.019 318.478C269.854 319.708 270.271 321.246 270.271 323.092V333.265C270.271 334.569 270.352 335.638 270.513 336.473C270.674 337.293 270.908 338.011 271.216 338.626V339H264.822C264.514 338.355 264.28 337.55 264.119 336.583C263.972 335.602 263.899 334.62 263.899 333.639ZM264.734 324.52L264.778 328.102H261.24C260.405 328.102 259.68 328.197 259.065 328.387C258.45 328.578 257.944 328.849 257.549 329.2C257.153 329.537 256.86 329.933 256.67 330.387C256.494 330.841 256.406 331.339 256.406 331.881C256.406 332.423 256.531 332.914 256.78 333.353C257.029 333.778 257.388 334.115 257.856 334.364C258.325 334.598 258.875 334.715 259.504 334.715C260.457 334.715 261.284 334.525 261.987 334.144C262.69 333.763 263.232 333.294 263.613 332.738C264.009 332.181 264.214 331.654 264.229 331.156L265.898 333.836C265.664 334.437 265.342 335.06 264.932 335.704C264.536 336.349 264.031 336.957 263.416 337.528C262.8 338.084 262.061 338.546 261.196 338.912C260.332 339.264 259.307 339.439 258.12 339.439C256.611 339.439 255.242 339.139 254.011 338.539C252.795 337.923 251.829 337.081 251.111 336.012C250.408 334.928 250.056 333.697 250.056 332.32C250.056 331.075 250.291 329.969 250.759 329.002C251.228 328.036 251.917 327.223 252.825 326.563C253.748 325.89 254.897 325.384 256.274 325.047C257.651 324.696 259.248 324.52 261.064 324.52H264.734ZM275.149 305.25H281.477V333.551L280.84 339H275.149V305.25ZM296.528 326.871V327.333C296.528 329.105 296.338 330.731 295.957 332.21C295.591 333.69 295.02 334.972 294.243 336.056C293.467 337.125 292.5 337.96 291.343 338.561C290.2 339.146 288.853 339.439 287.3 339.439C285.85 339.439 284.59 339.146 283.521 338.561C282.466 337.975 281.58 337.147 280.862 336.078C280.144 335.008 279.565 333.756 279.126 332.32C278.687 330.885 278.357 329.317 278.137 327.618V326.607C278.357 324.908 278.687 323.341 279.126 321.905C279.565 320.47 280.144 319.217 280.862 318.148C281.58 317.079 282.466 316.251 283.521 315.665C284.575 315.079 285.82 314.786 287.256 314.786C288.823 314.786 290.186 315.086 291.343 315.687C292.515 316.273 293.481 317.108 294.243 318.192C295.02 319.261 295.591 320.536 295.957 322.015C296.338 323.48 296.528 325.099 296.528 326.871ZM290.2 327.333V326.871C290.2 325.904 290.127 324.996 289.98 324.146C289.849 323.282 289.614 322.528 289.277 321.883C288.94 321.224 288.479 320.704 287.893 320.323C287.322 319.942 286.582 319.752 285.674 319.752C284.81 319.752 284.077 319.898 283.477 320.191C282.876 320.484 282.378 320.895 281.982 321.422C281.602 321.949 281.316 322.579 281.125 323.312C280.935 324.029 280.818 324.82 280.774 325.685V328.563C280.818 329.72 281.008 330.746 281.345 331.639C281.697 332.518 282.224 333.214 282.927 333.727C283.645 334.225 284.575 334.474 285.718 334.474C286.611 334.474 287.351 334.298 287.937 333.946C288.523 333.595 288.977 333.097 289.299 332.452C289.636 331.808 289.871 331.053 290.002 330.189C290.134 329.31 290.2 328.358 290.2 327.333ZM307.141 305.25V339H300.791V305.25H307.141ZM323.313 339.439C321.467 339.439 319.812 339.146 318.347 338.561C316.882 337.96 315.637 337.132 314.612 336.078C313.601 335.023 312.825 333.8 312.283 332.408C311.741 331.002 311.47 329.508 311.47 327.926V327.047C311.47 325.245 311.726 323.597 312.239 322.103C312.751 320.609 313.484 319.312 314.436 318.214C315.403 317.115 316.575 316.273 317.952 315.687C319.329 315.086 320.881 314.786 322.61 314.786C324.294 314.786 325.789 315.064 327.092 315.621C328.396 316.178 329.487 316.969 330.366 317.994C331.26 319.02 331.934 320.25 332.388 321.686C332.842 323.106 333.069 324.688 333.069 326.432V329.068H314.172V324.85H326.851V324.366C326.851 323.487 326.689 322.704 326.367 322.015C326.06 321.312 325.591 320.755 324.961 320.345C324.331 319.935 323.525 319.73 322.544 319.73C321.709 319.73 320.991 319.913 320.391 320.279C319.79 320.646 319.299 321.158 318.918 321.817C318.552 322.477 318.274 323.253 318.083 324.146C317.908 325.025 317.82 325.992 317.82 327.047V327.926C317.82 328.878 317.952 329.757 318.215 330.562C318.494 331.368 318.882 332.064 319.38 332.65C319.893 333.236 320.508 333.69 321.226 334.012C321.958 334.334 322.786 334.496 323.708 334.496C324.851 334.496 325.913 334.276 326.895 333.836C327.891 333.382 328.748 332.701 329.465 331.793L332.542 335.133C332.043 335.851 331.362 336.539 330.498 337.198C329.648 337.857 328.623 338.399 327.422 338.824C326.221 339.234 324.851 339.439 323.313 339.439ZM154.321 380.596H146.169V375.455H154.321C155.581 375.455 156.606 375.25 157.397 374.839C158.188 374.415 158.767 373.829 159.133 373.082C159.5 372.334 159.683 371.492 159.683 370.555C159.683 369.603 159.5 368.716 159.133 367.896C158.767 367.076 158.188 366.417 157.397 365.918C156.606 365.42 155.581 365.171 154.321 365.171H148.455V392H141.863V360.008H154.321C156.826 360.008 158.972 360.462 160.759 361.37C162.561 362.264 163.938 363.501 164.89 365.083C165.842 366.666 166.318 368.475 166.318 370.511C166.318 372.576 165.842 374.363 164.89 375.872C163.938 377.381 162.561 378.545 160.759 379.366C158.972 380.186 156.826 380.596 154.321 380.596ZM177.151 368.226V392H170.801V368.226H177.151ZM170.405 362.029C170.405 361.106 170.728 360.345 171.372 359.744C172.017 359.144 172.881 358.843 173.965 358.843C175.034 358.843 175.891 359.144 176.536 359.744C177.195 360.345 177.524 361.106 177.524 362.029C177.524 362.952 177.195 363.714 176.536 364.314C175.891 364.915 175.034 365.215 173.965 365.215C172.881 365.215 172.017 364.915 171.372 364.314C170.728 363.714 170.405 362.952 170.405 362.029ZM188.708 372.796V401.141H182.38V368.226H188.247L188.708 372.796ZM203.76 379.849V380.311C203.76 382.039 203.555 383.643 203.145 385.123C202.749 386.602 202.163 387.891 201.387 388.99C200.61 390.074 199.644 390.923 198.486 391.539C197.344 392.139 196.025 392.439 194.531 392.439C193.081 392.439 191.821 392.146 190.752 391.561C189.683 390.975 188.782 390.154 188.049 389.1C187.332 388.03 186.753 386.792 186.313 385.386C185.874 383.98 185.537 382.471 185.303 380.86V379.651C185.537 377.923 185.874 376.341 186.313 374.905C186.753 373.455 187.332 372.203 188.049 371.148C188.782 370.079 189.675 369.251 190.73 368.665C191.799 368.079 193.052 367.786 194.487 367.786C195.996 367.786 197.322 368.072 198.464 368.643C199.622 369.214 200.588 370.035 201.365 371.104C202.156 372.173 202.749 373.448 203.145 374.927C203.555 376.407 203.76 378.047 203.76 379.849ZM197.41 380.311V379.849C197.41 378.838 197.322 377.908 197.146 377.059C196.985 376.194 196.721 375.44 196.355 374.795C196.003 374.151 195.535 373.653 194.949 373.301C194.377 372.935 193.682 372.752 192.861 372.752C191.997 372.752 191.257 372.891 190.642 373.169C190.042 373.448 189.551 373.851 189.17 374.378C188.789 374.905 188.503 375.535 188.313 376.268C188.123 377 188.005 377.828 187.961 378.75V381.805C188.035 382.889 188.24 383.863 188.577 384.727C188.914 385.577 189.434 386.25 190.137 386.749C190.84 387.247 191.763 387.496 192.905 387.496C193.74 387.496 194.443 387.312 195.015 386.946C195.586 386.565 196.047 386.045 196.399 385.386C196.765 384.727 197.021 383.965 197.168 383.101C197.329 382.237 197.41 381.307 197.41 380.311ZM218.635 392.439C216.79 392.439 215.134 392.146 213.669 391.561C212.205 390.96 210.959 390.132 209.934 389.078C208.923 388.023 208.147 386.8 207.605 385.408C207.063 384.002 206.792 382.508 206.792 380.926V380.047C206.792 378.245 207.048 376.597 207.561 375.103C208.074 373.609 208.806 372.312 209.758 371.214C210.725 370.115 211.897 369.273 213.274 368.687C214.651 368.086 216.204 367.786 217.932 367.786C219.617 367.786 221.111 368.064 222.415 368.621C223.718 369.178 224.81 369.969 225.688 370.994C226.582 372.02 227.256 373.25 227.71 374.686C228.164 376.106 228.391 377.688 228.391 379.432V382.068H209.495V377.85H222.173V377.366C222.173 376.487 222.012 375.704 221.689 375.015C221.382 374.312 220.913 373.755 220.283 373.345C219.653 372.935 218.848 372.73 217.866 372.73C217.031 372.73 216.313 372.913 215.713 373.279C215.112 373.646 214.622 374.158 214.241 374.817C213.875 375.477 213.596 376.253 213.406 377.146C213.23 378.025 213.142 378.992 213.142 380.047V380.926C213.142 381.878 213.274 382.757 213.538 383.562C213.816 384.368 214.204 385.064 214.702 385.65C215.215 386.236 215.83 386.69 216.548 387.012C217.28 387.334 218.108 387.496 219.031 387.496C220.173 387.496 221.235 387.276 222.217 386.836C223.213 386.382 224.07 385.701 224.788 384.793L227.864 388.133C227.366 388.851 226.685 389.539 225.82 390.198C224.971 390.857 223.945 391.399 222.744 391.824C221.543 392.234 220.173 392.439 218.635 392.439ZM238.674 358.25V392H232.324V358.25H238.674ZM250.583 368.226V392H244.233V368.226H250.583ZM243.838 362.029C243.838 361.106 244.16 360.345 244.805 359.744C245.449 359.144 246.313 358.843 247.397 358.843C248.467 358.843 249.324 359.144 249.968 359.744C250.627 360.345 250.957 361.106 250.957 362.029C250.957 362.952 250.627 363.714 249.968 364.314C249.324 364.915 248.467 365.215 247.397 365.215C246.313 365.215 245.449 364.915 244.805 364.314C244.16 363.714 243.838 362.952 243.838 362.029ZM262.009 373.301V392H255.681V368.226H261.614L262.009 373.301ZM261.086 379.278H259.373C259.373 377.52 259.6 375.938 260.054 374.532C260.508 373.111 261.145 371.902 261.965 370.906C262.786 369.896 263.76 369.126 264.888 368.599C266.03 368.057 267.305 367.786 268.711 367.786C269.824 367.786 270.842 367.947 271.765 368.27C272.688 368.592 273.479 369.104 274.138 369.808C274.812 370.511 275.325 371.441 275.676 372.598C276.042 373.755 276.226 375.169 276.226 376.839V392H269.854V376.817C269.854 375.762 269.707 374.942 269.414 374.356C269.121 373.77 268.689 373.36 268.118 373.125C267.561 372.876 266.873 372.752 266.052 372.752C265.203 372.752 264.463 372.92 263.833 373.257C263.218 373.594 262.705 374.063 262.295 374.664C261.899 375.25 261.599 375.938 261.394 376.729C261.189 377.52 261.086 378.37 261.086 379.278ZM291.98 392.439C290.134 392.439 288.479 392.146 287.014 391.561C285.549 390.96 284.304 390.132 283.279 389.078C282.268 388.023 281.492 386.8 280.95 385.408C280.408 384.002 280.137 382.508 280.137 380.926V380.047C280.137 378.245 280.393 376.597 280.906 375.103C281.418 373.609 282.151 372.312 283.103 371.214C284.07 370.115 285.242 369.273 286.619 368.687C287.996 368.086 289.548 367.786 291.277 367.786C292.961 367.786 294.456 368.064 295.759 368.621C297.063 369.178 298.154 369.969 299.033 370.994C299.927 372.02 300.601 373.25 301.055 374.686C301.509 376.106 301.736 377.688 301.736 379.432V382.068H282.839V377.85H295.518V377.366C295.518 376.487 295.356 375.704 295.034 375.015C294.727 374.312 294.258 373.755 293.628 373.345C292.998 372.935 292.192 372.73 291.211 372.73C290.376 372.73 289.658 372.913 289.058 373.279C288.457 373.646 287.966 374.158 287.585 374.817C287.219 375.477 286.941 376.253 286.75 377.146C286.575 378.025 286.487 378.992 286.487 380.047V380.926C286.487 381.878 286.619 382.757 286.882 383.562C287.161 384.368 287.549 385.064 288.047 385.65C288.56 386.236 289.175 386.69 289.893 387.012C290.625 387.334 291.453 387.496 292.375 387.496C293.518 387.496 294.58 387.276 295.562 386.836C296.558 386.382 297.415 385.701 298.132 384.793L301.208 388.133C300.71 388.851 300.029 389.539 299.165 390.198C298.315 390.857 297.29 391.399 296.089 391.824C294.888 392.234 293.518 392.439 291.98 392.439ZM318.193 385.43C318.193 384.976 318.062 384.566 317.798 384.2C317.534 383.833 317.043 383.497 316.326 383.189C315.623 382.867 314.604 382.574 313.271 382.31C312.07 382.046 310.95 381.717 309.91 381.321C308.884 380.911 307.991 380.42 307.229 379.849C306.482 379.278 305.896 378.604 305.471 377.828C305.046 377.037 304.834 376.136 304.834 375.125C304.834 374.129 305.046 373.191 305.471 372.312C305.911 371.434 306.533 370.657 307.339 369.983C308.159 369.295 309.155 368.76 310.327 368.379C311.514 367.984 312.847 367.786 314.326 367.786C316.392 367.786 318.164 368.116 319.644 368.775C321.138 369.434 322.28 370.342 323.071 371.5C323.877 372.642 324.28 373.946 324.28 375.411H317.952C317.952 374.795 317.82 374.246 317.556 373.763C317.307 373.265 316.912 372.876 316.37 372.598C315.842 372.305 315.154 372.159 314.304 372.159C313.601 372.159 312.993 372.283 312.48 372.532C311.968 372.767 311.572 373.089 311.294 373.499C311.03 373.895 310.898 374.334 310.898 374.817C310.898 375.184 310.972 375.513 311.118 375.806C311.279 376.084 311.536 376.341 311.887 376.575C312.239 376.81 312.693 377.029 313.25 377.234C313.821 377.425 314.524 377.601 315.359 377.762C317.073 378.113 318.604 378.575 319.951 379.146C321.299 379.703 322.368 380.464 323.159 381.431C323.95 382.383 324.346 383.636 324.346 385.188C324.346 386.243 324.111 387.21 323.643 388.089C323.174 388.968 322.5 389.737 321.621 390.396C320.742 391.041 319.688 391.546 318.457 391.912C317.241 392.264 315.872 392.439 314.348 392.439C312.136 392.439 310.261 392.044 308.723 391.253C307.2 390.462 306.042 389.458 305.251 388.243C304.475 387.012 304.087 385.752 304.087 384.463H310.085C310.115 385.328 310.334 386.023 310.745 386.551C311.169 387.078 311.704 387.459 312.349 387.693C313.008 387.928 313.718 388.045 314.48 388.045C315.3 388.045 315.981 387.935 316.523 387.715C317.065 387.481 317.476 387.173 317.754 386.792C318.047 386.397 318.193 385.943 318.193 385.43Z" fill="white"/>
<path d="M339.603 511.515C335.137 503.78 335.137 494.25 339.603 486.515L414.472 356.838C418.938 349.103 427.191 344.338 436.123 344.338H585.861C594.793 344.338 603.046 349.103 607.512 356.838L682.381 486.515C686.847 494.25 686.847 503.78 682.381 511.515L607.512 641.193C603.046 648.928 594.793 653.693 585.861 653.693H436.123C427.191 653.693 418.938 648.928 414.472 641.193L339.603 511.515Z" fill="#89C958" fill-opacity="0.78"/>
</g>
<defs>
<clipPath id="clip0_1599_696">
<rect width="1440" height="567" fill="white"/>
</clipPath>
</defs>
</svg>
