<svg width="158" height="158" viewBox="0 0 158 158" fill="none" xmlns="http://www.w3.org/2000/svg">
<path d="M85 6.9282L138.416 37.7679C142.129 39.9115 144.416 43.8731 144.416 48.1603V109.84C144.416 114.127 142.129 118.088 138.416 120.232L85 151.072C81.2872 153.215 76.7128 153.215 73 151.072L19.584 120.232C15.8712 118.088 13.584 114.127 13.584 109.84V48.1603C13.584 43.8731 15.8712 39.9115 19.584 37.7679L73 6.9282C76.7128 4.78461 81.2872 4.78461 85 6.9282Z" fill="#00006A" stroke="#89C958" stroke-width="6"/>
<path d="M108.334 112V104.667C108.334 100.777 106.788 97.0463 104.038 94.2958C101.287 91.5452 97.5568 90 93.667 90H64.3337C60.4438 90 56.7133 91.5452 53.9628 94.2958C51.2122 97.0463 49.667 100.777 49.667 104.667V112" stroke="white" stroke-width="6" stroke-linecap="round" stroke-linejoin="round"/>
<path d="M78.9997 75.3333C87.0999 75.3333 93.6663 68.7668 93.6663 60.6667C93.6663 52.5665 87.0999 46 78.9997 46C70.8995 46 64.333 52.5665 64.333 60.6667C64.333 68.7668 70.8995 75.3333 78.9997 75.3333Z" stroke="white" stroke-width="6" stroke-linecap="round" stroke-linejoin="round"/>
</svg>
