<svg width="1440" height="567" viewBox="0 0 1440 567" fill="none" xmlns="http://www.w3.org/2000/svg">
<g clip-path="url(#clip0_1591_605)">
<path d="M-216.783 191.106C-221.249 183.371 -221.249 173.841 -216.783 166.106L-141.914 36.4287C-137.448 28.6937 -129.195 23.9287 -120.263 23.9287H29.4753C38.407 23.9287 46.6602 28.6937 51.126 36.4287L125.996 166.106C130.461 173.841 130.461 183.371 125.996 191.106L51.126 320.784C46.6601 328.519 38.407 333.284 29.4753 333.284H-120.263C-129.195 333.284 -137.448 328.519 -141.914 320.784L-216.783 191.106Z" fill="#89C958" fill-opacity="0.78"/>
<path d="M61.4099 671.719C56.9441 663.984 56.9441 654.454 61.4099 646.719L136.28 517.042C140.745 509.307 148.999 504.542 157.93 504.542H307.669C316.601 504.542 324.854 509.307 329.32 517.042L404.189 646.719C408.655 654.454 408.655 663.984 404.189 671.719L329.32 801.397C324.854 809.132 316.601 813.897 307.669 813.897H157.93C148.999 813.897 140.745 809.132 136.28 801.397L61.4099 671.719Z" fill="#89C958" fill-opacity="0.78"/>
<path d="M-216.783 511.515C-221.249 503.78 -221.249 494.25 -216.783 486.515L-141.914 356.838C-137.448 349.103 -129.195 344.338 -120.263 344.338H29.4753C38.407 344.338 46.6602 349.103 51.126 356.838L125.996 486.515C130.461 494.25 130.461 503.78 125.996 511.515L51.126 641.193C46.6601 648.928 38.407 653.693 29.4753 653.693H-120.263C-129.195 653.693 -137.448 648.928 -141.914 641.193L-216.783 511.515Z" fill="#89C958" fill-opacity="0.78"/>
<path d="M617.797 671.719C613.331 663.984 613.331 654.454 617.797 646.719L692.666 517.042C697.132 509.307 705.385 504.542 714.317 504.542H864.056C872.987 504.542 881.241 509.307 885.706 517.042L960.576 646.719C965.042 654.454 965.042 663.984 960.576 671.719L885.706 801.397C881.241 809.132 872.987 813.897 864.056 813.897H714.317C705.385 813.897 697.132 809.132 692.666 801.397L617.797 671.719Z" fill="#89C958" fill-opacity="0.78"/>
<path d="M895.987 511.515C891.522 503.78 891.522 494.25 895.987 486.515L970.857 356.838C975.323 349.103 983.576 344.338 992.507 344.338H1142.25C1151.18 344.338 1159.43 349.103 1163.9 356.838L1238.77 486.515C1243.23 494.25 1243.23 503.78 1238.77 511.515L1163.9 641.193C1159.43 648.928 1151.18 653.693 1142.25 653.693H992.507C983.576 653.693 975.323 648.928 970.857 641.193L895.987 511.515Z" fill="#89C958" fill-opacity="0.78"/>
<path d="M1174.18 671.719C1169.71 663.984 1169.71 654.454 1174.18 646.719L1249.05 517.042C1253.52 509.307 1261.77 504.542 1270.7 504.542H1420.44C1429.37 504.542 1437.62 509.307 1442.09 517.042L1516.96 646.719C1521.43 654.454 1521.43 663.984 1516.96 671.719L1442.09 801.397C1437.62 809.132 1429.37 813.897 1420.44 813.897H1270.7C1261.77 813.897 1253.52 809.132 1249.05 801.397L1174.18 671.719Z" fill="#89C958" fill-opacity="0.78"/>
<path d="M61.4099 351.311C56.9441 343.576 56.9441 334.046 61.4099 326.311L136.28 196.633C140.745 188.898 148.999 184.133 157.93 184.133H307.669C316.601 184.133 324.854 188.898 329.32 196.633L404.189 326.311C408.655 334.046 408.655 343.576 404.189 351.311L329.32 480.988C324.854 488.723 316.601 493.488 307.669 493.488H157.93C148.999 493.488 140.745 488.723 136.28 480.988L61.4099 351.311Z" fill="#89C958" fill-opacity="0.78"/>
<path d="M147.124 327.532L137.456 357H129.668L142.876 321.453H147.832L147.124 327.532ZM155.156 357L145.464 327.532L144.683 321.453H149.688L162.969 357H155.156ZM154.717 343.768V349.505H135.942V343.768H154.717ZM165.825 319.5H172.856V350.945L172.148 357H165.825V319.5ZM189.58 343.523V344.036C189.58 346.006 189.368 347.812 188.945 349.456C188.538 351.1 187.904 352.524 187.041 353.729C186.178 354.917 185.104 355.844 183.818 356.512C182.549 357.163 181.051 357.488 179.326 357.488C177.715 357.488 176.315 357.163 175.127 356.512C173.955 355.861 172.97 354.941 172.173 353.753C171.375 352.565 170.732 351.173 170.244 349.578C169.756 347.983 169.39 346.242 169.146 344.354V343.23C169.39 341.342 169.756 339.601 170.244 338.006C170.732 336.411 171.375 335.019 172.173 333.831C172.97 332.643 173.955 331.723 175.127 331.072C176.299 330.421 177.682 330.096 179.277 330.096C181.019 330.096 182.533 330.429 183.818 331.097C185.12 331.748 186.195 332.675 187.041 333.88C187.904 335.068 188.538 336.484 188.945 338.128C189.368 339.756 189.58 341.554 189.58 343.523ZM182.549 344.036V343.523C182.549 342.449 182.467 341.44 182.305 340.496C182.158 339.536 181.898 338.698 181.523 337.981C181.149 337.249 180.636 336.671 179.985 336.248C179.351 335.825 178.529 335.613 177.52 335.613C176.559 335.613 175.745 335.776 175.078 336.102C174.411 336.427 173.857 336.883 173.418 337.469C172.995 338.055 172.677 338.755 172.466 339.568C172.254 340.366 172.124 341.245 172.075 342.205V345.403C172.124 346.689 172.336 347.828 172.71 348.821C173.101 349.798 173.687 350.571 174.468 351.141C175.265 351.694 176.299 351.971 177.568 351.971C178.561 351.971 179.383 351.775 180.034 351.385C180.685 350.994 181.19 350.441 181.548 349.725C181.922 349.008 182.183 348.17 182.329 347.21C182.476 346.233 182.549 345.175 182.549 344.036ZM192.827 344.061V343.548C192.827 341.611 193.104 339.829 193.657 338.201C194.211 336.557 195.016 335.133 196.074 333.929C197.132 332.724 198.434 331.788 199.98 331.121C201.527 330.438 203.301 330.096 205.303 330.096C207.305 330.096 209.087 330.438 210.649 331.121C212.212 331.788 213.522 332.724 214.58 333.929C215.654 335.133 216.468 336.557 217.021 338.201C217.575 339.829 217.852 341.611 217.852 343.548V344.061C217.852 345.981 217.575 347.763 217.021 349.407C216.468 351.035 215.654 352.459 214.58 353.68C213.522 354.884 212.22 355.82 210.674 356.487C209.128 357.155 207.354 357.488 205.352 357.488C203.35 357.488 201.567 357.155 200.005 356.487C198.459 355.82 197.148 354.884 196.074 353.68C195.016 352.459 194.211 351.035 193.657 349.407C193.104 347.763 192.827 345.981 192.827 344.061ZM199.858 343.548V344.061C199.858 345.167 199.956 346.201 200.151 347.161C200.347 348.121 200.656 348.968 201.079 349.7C201.519 350.416 202.088 350.978 202.788 351.385C203.488 351.792 204.342 351.995 205.352 351.995C206.328 351.995 207.166 351.792 207.866 351.385C208.566 350.978 209.128 350.416 209.551 349.7C209.974 348.968 210.283 348.121 210.479 347.161C210.69 346.201 210.796 345.167 210.796 344.061V343.548C210.796 342.474 210.69 341.465 210.479 340.521C210.283 339.56 209.966 338.714 209.526 337.981C209.103 337.233 208.542 336.647 207.842 336.224C207.142 335.8 206.296 335.589 205.303 335.589C204.31 335.589 203.464 335.8 202.764 336.224C202.08 336.647 201.519 337.233 201.079 337.981C200.656 338.714 200.347 339.56 200.151 340.521C199.956 341.465 199.858 342.474 199.858 343.548ZM237.798 350.677V330.584H244.829V357H238.213L237.798 350.677ZM238.579 345.257L240.654 345.208C240.654 346.966 240.451 348.602 240.044 350.115C239.637 351.613 239.027 352.915 238.213 354.021C237.399 355.112 236.374 355.966 235.137 356.585C233.9 357.187 232.443 357.488 230.767 357.488C229.481 357.488 228.293 357.309 227.202 356.951C226.128 356.577 225.2 355.999 224.419 355.218C223.654 354.42 223.052 353.403 222.612 352.166C222.189 350.913 221.978 349.407 221.978 347.649V330.584H229.009V347.698C229.009 348.479 229.098 349.139 229.277 349.676C229.473 350.213 229.741 350.652 230.083 350.994C230.425 351.336 230.824 351.58 231.279 351.727C231.751 351.873 232.272 351.946 232.842 351.946C234.29 351.946 235.43 351.653 236.26 351.067C237.106 350.481 237.7 349.684 238.042 348.675C238.4 347.649 238.579 346.51 238.579 345.257ZM263.14 330.584V335.564H247.759V330.584H263.14ZM251.567 324.065H258.599V349.041C258.599 349.806 258.696 350.392 258.892 350.799C259.103 351.206 259.412 351.491 259.819 351.653C260.226 351.8 260.739 351.873 261.357 351.873C261.797 351.873 262.188 351.857 262.529 351.824C262.887 351.775 263.188 351.727 263.433 351.678L263.457 356.854C262.855 357.049 262.204 357.203 261.504 357.317C260.804 357.431 260.031 357.488 259.185 357.488C257.638 357.488 256.287 357.236 255.132 356.731C253.993 356.211 253.114 355.381 252.495 354.241C251.877 353.102 251.567 351.604 251.567 349.749V324.065ZM299.663 321.453H306.963V344.939C306.963 347.674 306.377 349.977 305.205 351.849C304.049 353.72 302.446 355.128 300.396 356.072C298.361 357.016 296.017 357.488 293.364 357.488C290.711 357.488 288.351 357.016 286.284 356.072C284.233 355.128 282.622 353.72 281.45 351.849C280.295 349.977 279.717 347.674 279.717 344.939V321.453H287.041V344.939C287.041 346.535 287.293 347.837 287.798 348.846C288.302 349.855 289.027 350.595 289.971 351.067C290.931 351.539 292.062 351.775 293.364 351.775C294.699 351.775 295.83 351.539 296.758 351.067C297.702 350.595 298.418 349.855 298.906 348.846C299.411 347.837 299.663 346.535 299.663 344.939V321.453ZM326.836 349.7C326.836 349.196 326.689 348.74 326.396 348.333C326.104 347.926 325.558 347.552 324.761 347.21C323.979 346.852 322.848 346.526 321.367 346.233C320.033 345.94 318.787 345.574 317.632 345.135C316.493 344.679 315.5 344.134 314.653 343.499C313.823 342.864 313.172 342.116 312.7 341.253C312.228 340.374 311.992 339.373 311.992 338.25C311.992 337.143 312.228 336.102 312.7 335.125C313.188 334.148 313.88 333.286 314.775 332.537C315.687 331.772 316.794 331.178 318.096 330.755C319.414 330.315 320.895 330.096 322.539 330.096C324.834 330.096 326.803 330.462 328.447 331.194C330.107 331.927 331.377 332.936 332.256 334.222C333.151 335.491 333.599 336.94 333.599 338.567H326.567C326.567 337.884 326.421 337.273 326.128 336.736C325.851 336.183 325.412 335.752 324.81 335.442C324.224 335.117 323.459 334.954 322.515 334.954C321.733 334.954 321.058 335.092 320.488 335.369C319.919 335.63 319.479 335.988 319.17 336.443C318.877 336.883 318.73 337.371 318.73 337.908C318.73 338.315 318.812 338.681 318.975 339.007C319.154 339.316 319.438 339.601 319.829 339.861C320.22 340.122 320.724 340.366 321.343 340.594C321.978 340.805 322.759 341.001 323.687 341.18C325.591 341.57 327.292 342.083 328.789 342.718C330.286 343.336 331.475 344.183 332.354 345.257C333.232 346.315 333.672 347.706 333.672 349.432C333.672 350.604 333.411 351.678 332.891 352.654C332.37 353.631 331.621 354.485 330.645 355.218C329.668 355.934 328.496 356.495 327.129 356.902C325.778 357.293 324.256 357.488 322.563 357.488C320.106 357.488 318.022 357.049 316.313 356.17C314.621 355.291 313.335 354.176 312.456 352.825C311.593 351.458 311.162 350.058 311.162 348.626H317.827C317.86 349.586 318.104 350.359 318.56 350.945C319.032 351.531 319.626 351.954 320.342 352.215C321.074 352.475 321.864 352.605 322.71 352.605C323.621 352.605 324.378 352.483 324.98 352.239C325.583 351.979 326.038 351.637 326.348 351.214C326.673 350.774 326.836 350.27 326.836 349.7Z" fill="white"/>
<path d="M339.603 511.515C335.137 503.78 335.137 494.25 339.603 486.515L414.472 356.838C418.938 349.103 427.191 344.338 436.123 344.338H585.861C594.793 344.338 603.046 349.103 607.512 356.838L682.381 486.515C686.847 494.25 686.847 503.78 682.381 511.515L607.512 641.193C603.046 648.928 594.793 653.693 585.861 653.693H436.123C427.191 653.693 418.938 648.928 414.472 641.193L339.603 511.515Z" fill="#89C958" fill-opacity="0.78"/>
</g>
<defs>
<clipPath id="clip0_1591_605">
<rect width="1440" height="567" fill="white"/>
</clipPath>
</defs>
</svg>
