<svg width="1440" height="567" viewBox="0 0 1440 567" fill="none" xmlns="http://www.w3.org/2000/svg">
<g clip-path="url(#clip0_1591_615)">
<path d="M1656.78 191.106C1661.25 183.371 1661.25 173.841 1656.78 166.106L1581.91 36.4287C1577.45 28.6937 1569.2 23.9287 1560.26 23.9287H1410.52C1401.59 23.9287 1393.34 28.6937 1388.87 36.4287L1314 166.106C1309.54 173.841 1309.54 183.371 1314 191.106L1388.87 320.784C1393.34 328.519 1401.59 333.284 1410.52 333.284H1560.26C1569.2 333.284 1577.45 328.519 1581.91 320.784L1656.78 191.106Z" fill="#89C958" fill-opacity="0.78"/>
<path d="M1378.59 671.719C1383.06 663.984 1383.06 654.454 1378.59 646.719L1303.72 517.042C1299.26 509.307 1291 504.542 1282.07 504.542H1132.33C1123.4 504.542 1115.15 509.307 1110.68 517.042L1035.81 646.719C1031.35 654.454 1031.35 663.984 1035.81 671.719L1110.68 801.397C1115.15 809.132 1123.4 813.897 1132.33 813.897H1282.07C1291 813.897 1299.26 809.132 1303.72 801.397L1378.59 671.719Z" fill="#89C958" fill-opacity="0.78"/>
<path d="M1656.78 511.515C1661.25 503.78 1661.25 494.25 1656.78 486.515L1581.91 356.838C1577.45 349.103 1569.2 344.338 1560.26 344.338H1410.52C1401.59 344.338 1393.34 349.103 1388.87 356.838L1314 486.515C1309.54 494.25 1309.54 503.78 1314 511.515L1388.87 641.193C1393.34 648.928 1401.59 653.693 1410.52 653.693H1560.26C1569.2 653.693 1577.45 648.928 1581.91 641.193L1656.78 511.515Z" fill="#89C958" fill-opacity="0.78"/>
<path d="M822.203 671.719C826.669 663.984 826.669 654.454 822.203 646.719L747.334 517.042C742.868 509.307 734.615 504.542 725.683 504.542H575.944C567.013 504.542 558.759 509.307 554.294 517.042L479.424 646.719C474.958 654.454 474.958 663.984 479.424 671.719L554.294 801.397C558.759 809.132 567.013 813.897 575.944 813.897H725.683C734.615 813.897 742.868 809.132 747.334 801.397L822.203 671.719Z" fill="#89C958" fill-opacity="0.78"/>
<path d="M544.013 511.515C548.478 503.78 548.478 494.25 544.013 486.515L469.143 356.838C464.677 349.103 456.424 344.338 447.493 344.338H297.751C288.821 344.338 280.571 349.103 276.101 356.838L201.231 486.515C196.771 494.25 196.771 503.78 201.231 511.515L276.101 641.193C280.571 648.928 288.821 653.693 297.751 653.693H447.493C456.424 653.693 464.677 648.928 469.143 641.193L544.013 511.515Z" fill="#89C958" fill-opacity="0.78"/>
<path d="M265.819 671.719C270.289 663.984 270.289 654.454 265.819 646.719L190.949 517.042C186.479 509.307 178.229 504.542 169.299 504.542H19.5595C10.6295 504.542 2.37945 509.307 -2.09055 517.042L-76.9605 646.719C-81.4305 654.454 -81.4305 663.984 -76.9605 671.719L-2.09055 801.397C2.37945 809.132 10.6295 813.897 19.5595 813.897H169.299C178.229 813.897 186.479 809.132 190.949 801.397L265.819 671.719Z" fill="#89C958" fill-opacity="0.78"/>
<path d="M1378.59 351.311C1383.06 343.576 1383.06 334.046 1378.59 326.311L1303.72 196.633C1299.26 188.898 1291 184.133 1282.07 184.133H1132.33C1123.4 184.133 1115.15 188.898 1110.68 196.633L1035.81 326.311C1031.35 334.046 1031.35 343.576 1035.81 351.311L1110.68 480.988C1115.15 488.723 1123.4 493.488 1132.33 493.488H1282.07C1291 493.488 1299.26 488.723 1303.72 480.988L1378.59 351.311Z" fill="#89C958" fill-opacity="0.78"/>
<path d="M1134.08 362.25C1130.98 362.25 1128.58 361.933 1126.88 361.3C1125.21 360.667 1124.05 359.683 1123.38 358.35C1122.71 356.983 1122.33 355.267 1122.23 353.2L1121.18 325.4H1128.18L1129.23 349.85C1129.3 351.383 1129.46 352.533 1129.73 353.3C1130 354.067 1130.5 354.583 1131.23 354.85C1132 355.117 1133.11 355.25 1134.58 355.25C1135.85 355.25 1136.75 355.583 1137.28 356.25C1137.85 356.883 1138.13 357.683 1138.13 358.65C1138.13 359.683 1137.78 360.55 1137.08 361.25C1136.38 361.917 1135.38 362.25 1134.08 362.25ZM1134.15 362.25L1134.65 355.25C1135.42 355.25 1136.07 355.067 1136.6 354.7C1137.17 354.3 1137.75 353.65 1138.35 352.75C1138.95 351.817 1139.65 350.567 1140.45 349C1141.45 347 1142.48 345.433 1143.55 344.3C1144.65 343.167 1145.77 342.367 1146.9 341.9C1148.07 341.4 1149.23 341.15 1150.4 341.15C1151.87 341.15 1153.23 341.467 1154.5 342.1C1155.77 342.733 1156.87 343.6 1157.8 344.7C1158.73 345.767 1159.45 347 1159.95 348.4C1160.48 349.767 1160.75 351.183 1160.75 352.65C1160.75 354.417 1160.37 356.017 1159.6 357.45C1158.87 358.85 1157.83 359.967 1156.5 360.8C1155.2 361.6 1153.7 362 1152 362C1150.57 362 1148.9 361.75 1147 361.25C1145.1 360.75 1143.1 359.7 1141 358.1L1143.55 352.05C1145.05 353.083 1146.45 353.833 1147.75 354.3C1149.08 354.767 1150.18 355 1151.05 355C1151.72 355 1152.27 354.933 1152.7 354.8C1153.13 354.667 1153.45 354.45 1153.65 354.15C1153.85 353.85 1153.95 353.45 1153.95 352.95C1153.95 352.25 1153.78 351.533 1153.45 350.8C1153.12 350.067 1152.67 349.45 1152.1 348.95C1151.57 348.417 1150.93 348.15 1150.2 348.15C1149.5 348.15 1148.9 348.417 1148.4 348.95C1147.93 349.45 1147.47 350.183 1147 351.15C1146.57 352.083 1146.03 353.183 1145.4 354.45C1144.63 355.983 1143.88 357.267 1143.15 358.3C1142.42 359.3 1141.63 360.1 1140.8 360.7C1140 361.267 1139.05 361.667 1137.95 361.9C1136.88 362.133 1135.62 362.25 1134.15 362.25ZM1186.85 362.15C1184.98 362.15 1183.3 361.833 1181.8 361.2C1180.33 360.533 1179.17 359.55 1178.3 358.25C1177.47 356.917 1177.05 355.267 1177.05 353.3C1177.05 351.333 1177.72 349.15 1179.05 346.75C1180.38 344.317 1182.62 341.883 1185.75 339.45L1185.25 344.05L1180.75 340.55L1185.45 334.8C1187.98 336.733 1190.15 338.617 1191.95 340.45C1193.78 342.25 1195.18 344.1 1196.15 346C1197.12 347.9 1197.6 349.917 1197.6 352.05C1197.6 353.083 1197.43 354.2 1197.1 355.4C1196.77 356.567 1196.2 357.667 1195.4 358.7C1194.6 359.7 1193.5 360.533 1192.1 361.2C1190.73 361.833 1188.98 362.15 1186.85 362.15ZM1187.4 355.25C1188.23 355.25 1188.9 355.083 1189.4 354.75C1189.93 354.417 1190.33 353.983 1190.6 353.45C1190.87 352.917 1191 352.35 1191 351.75C1191 351.15 1190.87 350.5 1190.6 349.8C1190.33 349.1 1189.82 348.317 1189.05 347.45C1188.28 346.583 1187.15 345.583 1185.65 344.45L1189.45 343.95C1188.08 344.883 1186.98 345.833 1186.15 346.8C1185.32 347.767 1184.72 348.7 1184.35 349.6C1184.02 350.467 1183.85 351.267 1183.85 352C1183.85 353.067 1184.2 353.883 1184.9 354.45C1185.6 354.983 1186.43 355.25 1187.4 355.25ZM1198.03 373.5L1195.48 367.1C1198.35 366.1 1200.67 365 1202.43 363.8C1204.23 362.6 1205.55 361.317 1206.38 359.95C1207.25 358.583 1207.68 357.167 1207.68 355.7C1207.68 354.767 1207.55 353.8 1207.28 352.8C1207.02 351.767 1206.63 350.683 1206.13 349.55C1205.67 348.417 1205.1 347.233 1204.43 346L1210.98 342.85C1212.15 345.083 1213.05 347.217 1213.68 349.25C1214.35 351.283 1214.68 353.183 1214.68 354.95C1214.68 356.583 1214.47 358.15 1214.03 359.65C1213.63 361.15 1213 362.55 1212.13 363.85C1211.3 365.183 1210.22 366.433 1208.88 367.6C1207.55 368.767 1205.98 369.833 1204.18 370.8C1202.38 371.8 1200.33 372.7 1198.03 373.5ZM1233.54 362.25C1230.44 362.25 1228.04 361.933 1226.34 361.3C1224.68 360.667 1223.51 359.683 1222.84 358.35C1222.18 356.983 1221.79 355.267 1221.69 353.2L1220.64 325.4H1227.64L1228.69 349.85C1228.76 351.383 1228.93 352.533 1229.19 353.3C1229.46 354.067 1229.96 354.583 1230.69 354.85C1231.46 355.117 1232.58 355.25 1234.04 355.25C1235.31 355.25 1236.21 355.583 1236.74 356.25C1237.31 356.883 1237.59 357.683 1237.59 358.65C1237.59 359.683 1237.24 360.55 1236.54 361.25C1235.84 361.917 1234.84 362.25 1233.54 362.25ZM1233.61 362.25L1234.11 355.25C1235.58 355.25 1236.73 355.15 1237.56 354.95C1238.43 354.75 1239.04 354.383 1239.41 353.85C1239.78 353.283 1239.96 352.483 1239.96 351.45C1239.96 350.517 1239.83 349.4 1239.56 348.1C1239.33 346.8 1239.01 345.45 1238.61 344.05C1238.21 342.65 1237.81 341.367 1237.41 340.2L1244.31 338.3C1244.71 339.433 1245.11 340.75 1245.51 342.25C1245.91 343.75 1246.24 345.3 1246.51 346.9C1246.81 348.467 1246.96 349.983 1246.96 351.45C1246.96 353.283 1246.73 354.833 1246.26 356.1C1245.79 357.333 1245.14 358.367 1244.31 359.2C1243.51 360 1242.54 360.633 1241.41 361.1C1240.31 361.533 1239.09 361.833 1237.76 362C1236.43 362.167 1235.04 362.25 1233.61 362.25ZM1239.76 373.75C1238.79 373.75 1237.96 373.417 1237.26 372.75C1236.59 372.083 1236.26 371.267 1236.26 370.3C1236.26 369.333 1236.59 368.483 1237.26 367.75C1237.96 367.05 1238.79 366.7 1239.76 366.7C1240.73 366.7 1241.54 367.05 1242.21 367.75C1242.91 368.483 1243.26 369.333 1243.26 370.3C1243.26 371.267 1242.91 372.083 1242.21 372.75C1241.54 373.417 1240.73 373.75 1239.76 373.75ZM1250.28 373.5L1247.73 367.1C1250.6 366.1 1252.91 365 1254.68 363.8C1256.48 362.6 1257.8 361.317 1258.63 359.95C1259.5 358.583 1259.93 357.167 1259.93 355.7C1259.93 354.767 1259.8 353.8 1259.53 352.8C1259.26 351.767 1258.88 350.683 1258.38 349.55C1257.91 348.417 1257.35 347.233 1256.68 346L1263.23 342.85C1264.4 345.083 1265.3 347.217 1265.93 349.25C1266.6 351.283 1266.93 353.183 1266.93 354.95C1266.93 356.583 1266.71 358.15 1266.28 359.65C1265.88 361.15 1265.25 362.55 1264.38 363.85C1263.55 365.183 1262.46 366.433 1261.13 367.6C1259.8 368.767 1258.23 369.833 1256.43 370.8C1254.63 371.8 1252.58 372.7 1250.28 373.5ZM1271.69 360L1274.14 353.65C1275.37 354.183 1276.56 354.583 1277.69 354.85C1278.82 355.117 1279.96 355.25 1281.09 355.25C1282.26 355.25 1283.22 355.15 1283.99 354.95C1284.79 354.717 1285.39 354.383 1285.79 353.95C1286.19 353.517 1286.39 353 1286.39 352.4C1286.39 351.833 1286.21 351.05 1285.84 350.05C1285.51 349.05 1284.89 347.75 1283.99 346.15C1283.09 344.517 1281.77 342.5 1280.04 340.1L1285.99 336.15C1287.59 338.417 1288.97 340.633 1290.14 342.8C1291.31 344.933 1292.21 346.933 1292.84 348.8C1293.51 350.633 1293.84 352.25 1293.84 353.65C1293.84 355.383 1293.37 356.9 1292.44 358.2C1291.54 359.467 1290.19 360.467 1288.39 361.2C1286.62 361.933 1284.44 362.3 1281.84 362.3C1280.87 362.3 1279.79 362.217 1278.59 362.05C1277.39 361.883 1276.17 361.633 1274.94 361.3C1273.74 360.967 1272.66 360.533 1271.69 360Z" fill="white"/>
<path d="M1100.4 511.515C1104.86 503.78 1104.86 494.25 1100.4 486.515L1025.53 356.838C1021.06 349.103 1012.81 344.338 1003.88 344.338H854.139C845.207 344.338 836.954 349.103 832.488 356.838L757.619 486.515C753.153 494.25 753.153 503.78 757.619 511.515L832.488 641.193C836.954 648.928 845.207 653.693 854.139 653.693H1003.88C1012.81 653.693 1021.06 648.928 1025.53 641.193L1100.4 511.515Z" fill="#89C958" fill-opacity="0.78"/>
</g>
<defs>
<clipPath id="clip0_1591_615">
<rect width="1440" height="567" fill="white" transform="matrix(-1 0 0 1 1440 0)"/>
</clipPath>
</defs>
</svg>
