<svg width="23" height="23" viewBox="0 0 23 23" fill="none" xmlns="http://www.w3.org/2000/svg">
<path d="M17 7.83331C17 6.37462 16.4205 4.97568 15.3891 3.94423C14.3576 2.91278 12.9587 2.33331 11.5 2.33331C10.0413 2.33331 8.64236 2.91278 7.61091 3.94423C6.57946 4.97568 6 6.37462 6 7.83331C6 14.25 3.25 16.0833 3.25 16.0833H19.75C19.75 16.0833 17 14.25 17 7.83331Z" stroke="#00006A" stroke-width="2.5" stroke-linecap="round" stroke-linejoin="round"/>
<path d="M13.0859 19.75C12.9247 20.0278 12.6934 20.2584 12.4151 20.4187C12.1367 20.579 11.8212 20.6634 11.5 20.6634C11.1788 20.6634 10.8633 20.579 10.585 20.4187C10.3067 20.2584 10.0753 20.0278 9.91418 19.75" stroke="#00006A" stroke-width="2.5" stroke-linecap="round" stroke-linejoin="round"/>
</svg>
