<svg width="1440" height="567" viewBox="0 0 1440 567" fill="none" xmlns="http://www.w3.org/2000/svg">
<g clip-path="url(#clip0_1592_626)">
<path d="M1656.78 191.106C1661.25 183.371 1661.25 173.841 1656.78 166.106L1581.91 36.4287C1577.45 28.6937 1569.2 23.9287 1560.26 23.9287H1410.52C1401.59 23.9287 1393.34 28.6937 1388.87 36.4287L1314 166.106C1309.54 173.841 1309.54 183.371 1314 191.106L1388.87 320.784C1393.34 328.519 1401.59 333.284 1410.52 333.284H1560.26C1569.2 333.284 1577.45 328.519 1581.91 320.784L1656.78 191.106Z" fill="#89C958" fill-opacity="0.78"/>
<path d="M1378.59 671.719C1383.06 663.984 1383.06 654.454 1378.59 646.719L1303.72 517.042C1299.26 509.307 1291 504.542 1282.07 504.542H1132.33C1123.4 504.542 1115.15 509.307 1110.68 517.042L1035.81 646.719C1031.35 654.454 1031.35 663.984 1035.81 671.719L1110.68 801.397C1115.15 809.132 1123.4 813.897 1132.33 813.897H1282.07C1291 813.897 1299.26 809.132 1303.72 801.397L1378.59 671.719Z" fill="#89C958" fill-opacity="0.78"/>
<path d="M1656.78 511.515C1661.25 503.78 1661.25 494.25 1656.78 486.515L1581.91 356.838C1577.45 349.103 1569.2 344.338 1560.26 344.338H1410.52C1401.59 344.338 1393.34 349.103 1388.87 356.838L1314 486.515C1309.54 494.25 1309.54 503.78 1314 511.515L1388.87 641.193C1393.34 648.928 1401.59 653.693 1410.52 653.693H1560.26C1569.2 653.693 1577.45 648.928 1581.91 641.193L1656.78 511.515Z" fill="#89C958" fill-opacity="0.78"/>
<path d="M822.203 671.719C826.669 663.984 826.669 654.454 822.203 646.719L747.334 517.042C742.868 509.307 734.615 504.542 725.683 504.542H575.944C567.013 504.542 558.759 509.307 554.294 517.042L479.424 646.719C474.958 654.454 474.958 663.984 479.424 671.719L554.294 801.397C558.759 809.132 567.013 813.897 575.944 813.897H725.683C734.615 813.897 742.868 809.132 747.334 801.397L822.203 671.719Z" fill="#89C958" fill-opacity="0.78"/>
<path d="M544.013 511.515C548.478 503.78 548.478 494.25 544.013 486.515L469.143 356.838C464.677 349.103 456.424 344.338 447.493 344.338H297.751C288.821 344.338 280.571 349.103 276.101 356.838L201.231 486.515C196.771 494.25 196.771 503.78 201.231 511.515L276.101 641.193C280.571 648.928 288.821 653.693 297.751 653.693H447.493C456.424 653.693 464.677 648.928 469.143 641.193L544.013 511.515Z" fill="#89C958" fill-opacity="0.78"/>
<path d="M265.82 671.719C270.29 663.984 270.29 654.454 265.82 646.719L190.95 517.042C186.48 509.307 178.23 504.542 169.3 504.542H19.5605C10.6305 504.542 2.38043 509.307 -2.08957 517.042L-76.9596 646.719C-81.4296 654.454 -81.4296 663.984 -76.9596 671.719L-2.08957 801.397C2.38043 809.132 10.6305 813.897 19.5605 813.897H169.3C178.23 813.897 186.48 809.132 190.95 801.397L265.82 671.719Z" fill="#89C958" fill-opacity="0.78"/>
<path d="M1378.59 351.311C1383.06 343.576 1383.06 334.046 1378.59 326.311L1303.72 196.633C1299.26 188.898 1291 184.133 1282.07 184.133H1132.33C1123.4 184.133 1115.15 188.898 1110.68 196.633L1035.81 326.311C1031.35 334.046 1031.35 343.576 1035.81 351.311L1110.68 480.988C1115.15 488.723 1123.4 493.488 1132.33 493.488H1282.07C1291 493.488 1299.26 488.723 1303.72 480.988L1378.59 351.311Z" fill="#89C958" fill-opacity="0.78"/>
<path d="M1118.02 352.2C1115.54 352.2 1113.62 351.947 1112.26 351.44C1110.93 350.933 1109.99 350.147 1109.46 349.08C1108.93 347.987 1108.62 346.613 1108.54 344.96L1107.7 322.72H1113.3L1114.14 342.28C1114.19 343.507 1114.33 344.427 1114.54 345.04C1114.75 345.653 1115.15 346.067 1115.74 346.28C1116.35 346.493 1117.25 346.6 1118.42 346.6C1119.43 346.6 1120.15 346.867 1120.58 347.4C1121.03 347.907 1121.26 348.547 1121.26 349.32C1121.26 350.147 1120.98 350.84 1120.42 351.4C1119.86 351.933 1119.06 352.2 1118.02 352.2ZM1134.35 352.32C1133.15 352.32 1131.91 352.173 1130.63 351.88C1129.38 351.587 1128.17 351.147 1126.99 350.56C1125.82 349.973 1124.77 349.24 1123.83 348.36C1122.9 347.48 1122.15 346.467 1121.59 345.32C1121.06 344.147 1120.79 342.827 1120.79 341.36C1120.79 340.16 1121.05 339.053 1121.55 338.04C1122.06 337.027 1122.81 336.213 1123.79 335.6C1124.81 334.96 1126.03 334.64 1127.47 334.64C1128.83 334.64 1130.01 334.973 1130.99 335.64C1132.01 336.28 1132.79 337.12 1133.35 338.16C1133.91 339.173 1134.19 340.24 1134.19 341.36C1134.19 343.147 1133.75 344.72 1132.87 346.08C1131.99 347.413 1130.78 348.533 1129.23 349.44C1127.71 350.347 1125.99 351.04 1124.07 351.52C1122.15 351.973 1120.15 352.2 1118.07 352.2L1118.47 346.6C1119.99 346.6 1121.31 346.56 1122.43 346.48C1123.58 346.4 1124.57 346.227 1125.39 345.96C1126.22 345.693 1126.94 345.293 1127.55 344.76C1128.17 344.227 1128.63 343.64 1128.95 343C1129.3 342.333 1129.47 341.68 1129.47 341.04C1129.47 340.613 1129.41 340.213 1129.27 339.84C1129.17 339.467 1128.98 339.16 1128.71 338.92C1128.47 338.653 1128.15 338.52 1127.75 338.52C1127.33 338.52 1126.97 338.653 1126.67 338.92C1126.41 339.16 1126.19 339.48 1126.03 339.88C1125.9 340.28 1125.83 340.707 1125.83 341.16C1125.83 342.093 1126.07 342.933 1126.55 343.68C1127.06 344.427 1127.73 345.053 1128.55 345.56C1129.38 346.067 1130.29 346.453 1131.27 346.72C1132.29 346.987 1133.31 347.12 1134.35 347.12C1135.18 347.12 1135.77 346.987 1136.11 346.72C1136.46 346.453 1136.63 346.093 1136.63 345.64C1136.63 345.32 1136.55 344.987 1136.39 344.64C1136.26 344.267 1135.95 343.813 1135.47 343.28C1134.99 342.747 1134.26 342.093 1133.27 341.32C1132.29 340.52 1130.97 339.533 1129.31 338.36C1127.66 337.187 1125.58 335.76 1123.07 334.08L1126.15 329.72C1128.98 331.72 1131.34 333.467 1133.23 334.96C1135.15 336.453 1136.7 337.76 1137.87 338.88C1139.05 340 1139.94 340.987 1140.55 341.84C1141.19 342.667 1141.62 343.427 1141.83 344.12C1142.05 344.813 1142.15 345.507 1142.15 346.2C1142.15 347.48 1141.85 348.573 1141.23 349.48C1140.62 350.387 1139.73 351.093 1138.55 351.6C1137.41 352.08 1136.01 352.32 1134.35 352.32ZM1154.7 350.88C1154.7 350.267 1154.75 349.547 1154.86 348.72C1154.97 347.893 1155.17 346.96 1155.46 345.92C1155.75 344.853 1156.19 343.667 1156.78 342.36L1161.7 344.08C1161.41 344.907 1161.15 345.667 1160.94 346.36C1160.73 347.027 1160.57 347.653 1160.46 348.24C1160.35 348.8 1160.3 349.36 1160.3 349.92C1160.3 350.72 1160.47 351.467 1160.82 352.16C1161.17 352.853 1161.69 353.453 1162.38 353.96C1163.07 354.493 1163.93 354.907 1164.94 355.2C1165.98 355.493 1167.18 355.64 1168.54 355.64C1170.09 355.64 1171.45 355.493 1172.62 355.2C1173.82 354.933 1174.82 354.573 1175.62 354.12C1176.45 353.693 1177.07 353.24 1177.5 352.76C1177.93 352.28 1178.14 351.84 1178.14 351.44C1178.14 351.12 1177.91 350.84 1177.46 350.6C1177.03 350.36 1176.46 350.12 1175.74 349.88C1175.05 349.613 1174.3 349.32 1173.5 349C1172.73 348.68 1171.98 348.28 1171.26 347.8C1170.57 347.32 1169.99 346.733 1169.54 346.04C1169.11 345.347 1168.9 344.507 1168.9 343.52C1168.9 342.507 1169.17 341.4 1169.7 340.2C1170.23 338.973 1170.99 337.813 1171.98 336.72C1172.97 335.6 1174.14 334.693 1175.5 334C1176.89 333.28 1178.41 332.92 1180.06 332.92C1181.23 332.92 1182.3 333.107 1183.26 333.48C1184.25 333.853 1185.07 334.28 1185.74 334.76L1183.66 339.44C1183.1 339.067 1182.5 338.787 1181.86 338.6C1181.22 338.387 1180.61 338.28 1180.02 338.28C1179.27 338.28 1178.55 338.427 1177.86 338.72C1177.19 339.013 1176.59 339.4 1176.06 339.88C1175.55 340.333 1175.15 340.827 1174.86 341.36C1174.57 341.893 1174.42 342.4 1174.42 342.88C1174.42 343.36 1174.65 343.787 1175.1 344.16C1175.58 344.507 1176.19 344.84 1176.94 345.16C1177.69 345.453 1178.47 345.76 1179.3 346.08C1180.13 346.4 1180.91 346.76 1181.66 347.16C1182.41 347.56 1183.01 348.04 1183.46 348.6C1183.94 349.16 1184.18 349.84 1184.18 350.64C1184.18 351.787 1183.82 352.973 1183.1 354.2C1182.41 355.453 1181.37 356.613 1179.98 357.68C1178.59 358.747 1176.89 359.6 1174.86 360.24C1172.86 360.907 1170.54 361.24 1167.9 361.24C1165.98 361.24 1164.22 361.013 1162.62 360.56C1161.02 360.133 1159.62 359.48 1158.42 358.6C1157.25 357.747 1156.33 356.667 1155.66 355.36C1155.02 354.08 1154.7 352.587 1154.7 350.88ZM1195.23 346.6C1196.43 346.6 1197.35 346.493 1197.99 346.28C1198.63 346.067 1199.07 345.787 1199.31 345.44C1199.55 345.093 1199.67 344.72 1199.67 344.32C1199.67 343.68 1199.49 342.933 1199.11 342.08C1198.77 341.227 1198.33 340.333 1197.79 339.4C1197.26 338.467 1196.7 337.573 1196.11 336.72C1195.55 335.867 1195.05 335.12 1194.59 334.48L1199.35 331.32C1200.5 332.867 1201.49 334.4 1202.31 335.92C1203.14 337.413 1203.81 338.8 1204.31 340.08C1204.85 341.36 1205.22 342.453 1205.43 343.36C1205.65 344.213 1205.97 344.88 1206.39 345.36C1206.85 345.813 1207.37 346.133 1207.95 346.32C1208.54 346.507 1209.13 346.6 1209.71 346.6C1210.73 346.6 1211.45 346.867 1211.87 347.4C1212.33 347.907 1212.55 348.547 1212.55 349.32C1212.55 350.147 1212.27 350.84 1211.71 351.4C1211.18 351.933 1210.38 352.2 1209.31 352.2C1208.14 352.2 1207.11 352.04 1206.23 351.72C1205.35 351.4 1204.61 350.893 1203.99 350.2C1203.38 349.507 1202.86 348.627 1202.43 347.56L1204.87 348.08C1204.66 348.827 1204.17 349.52 1203.39 350.16C1202.65 350.773 1201.65 351.28 1200.39 351.68C1199.17 352.053 1197.71 352.24 1196.03 352.24C1195.23 352.24 1194.34 352.173 1193.35 352.04C1192.39 351.907 1191.43 351.707 1190.47 351.44C1189.54 351.173 1188.69 350.827 1187.91 350.4L1189.87 345.32C1190.86 345.747 1191.81 346.067 1192.71 346.28C1193.65 346.493 1194.49 346.6 1195.23 346.6ZM1209.36 352.2L1209.76 346.6C1210.78 346.6 1211.58 346.507 1212.16 346.32C1212.78 346.133 1213.26 345.76 1213.6 345.2C1213.98 344.613 1214.28 343.76 1214.52 342.64C1214.79 341.52 1215.06 340.027 1215.32 338.16L1220.56 339.04C1220.51 339.44 1220.43 339.907 1220.32 340.44C1220.24 340.973 1220.16 341.52 1220.08 342.08C1220.03 342.613 1220 343.12 1220 343.6C1220 344.24 1220.14 344.787 1220.4 345.24C1220.7 345.667 1221.2 346 1221.92 346.24C1222.67 346.48 1223.74 346.6 1225.12 346.6C1226.14 346.6 1226.86 346.867 1227.28 347.4C1227.71 347.907 1227.92 348.547 1227.92 349.32C1227.92 350.147 1227.64 350.84 1227.08 351.4C1226.55 351.933 1225.76 352.2 1224.72 352.2C1222.88 352.2 1221.39 352.027 1220.24 351.68C1219.1 351.333 1218.24 350.747 1217.68 349.92C1217.12 349.093 1216.76 347.96 1216.6 346.52H1218.52C1218.04 347.8 1217.48 348.827 1216.84 349.6C1216.2 350.347 1215.48 350.907 1214.68 351.28C1213.88 351.653 1213.03 351.893 1212.12 352C1211.24 352.133 1210.32 352.2 1209.36 352.2ZM1217.52 334.08C1216.7 334.08 1215.99 333.8 1215.4 333.24C1214.84 332.68 1214.56 331.987 1214.56 331.16C1214.56 330.333 1214.84 329.627 1215.4 329.04C1215.99 328.453 1216.7 328.16 1217.52 328.16C1218.32 328.16 1219 328.453 1219.56 329.04C1220.15 329.627 1220.44 330.333 1220.44 331.16C1220.44 331.987 1220.15 332.68 1219.56 333.24C1219 333.8 1218.32 334.08 1217.52 334.08ZM1224.71 352.2L1225.11 346.6C1225.78 346.6 1226.29 346.467 1226.63 346.2C1226.98 345.933 1227.33 345.467 1227.67 344.8C1228.02 344.133 1228.5 343.227 1229.11 342.08C1229.78 340.8 1230.47 339.733 1231.19 338.88C1231.91 338 1232.63 337.307 1233.35 336.8C1234.1 336.267 1234.83 335.893 1235.55 335.68C1236.3 335.44 1237.03 335.32 1237.75 335.32C1238.74 335.32 1239.66 335.533 1240.51 335.96C1241.39 336.36 1242.23 337.067 1243.03 338.08C1243.83 339.067 1244.59 340.427 1245.31 342.16C1245.82 343.36 1246.33 344.28 1246.83 344.92C1247.34 345.56 1247.86 346 1248.39 346.24C1248.95 346.48 1249.51 346.6 1250.07 346.6C1251.09 346.6 1251.81 346.867 1252.23 347.4C1252.66 347.907 1252.87 348.547 1252.87 349.32C1252.87 350.147 1252.59 350.84 1252.03 351.4C1251.47 351.933 1250.69 352.2 1249.67 352.2C1248.37 352.2 1247.18 351.987 1246.11 351.56C1245.05 351.133 1244.21 350.493 1243.59 349.64L1244.75 348.76C1244.51 349.32 1244.15 349.907 1243.67 350.52C1243.22 351.133 1242.62 351.653 1241.87 352.08C1241.15 352.507 1240.29 352.72 1239.27 352.72C1238.61 352.72 1237.82 352.587 1236.91 352.32C1236.03 352.08 1235.11 351.667 1234.15 351.08C1233.22 350.467 1232.35 349.64 1231.55 348.6C1231.05 349.533 1230.49 350.267 1229.87 350.8C1229.26 351.307 1228.54 351.667 1227.71 351.88C1226.89 352.093 1225.89 352.2 1224.71 352.2ZM1233.87 343.88C1234.14 344.28 1234.46 344.68 1234.83 345.08C1235.21 345.48 1235.62 345.84 1236.07 346.16C1236.53 346.453 1237.01 346.693 1237.51 346.88C1238.05 347.067 1238.57 347.16 1239.07 347.16C1239.61 347.16 1240.05 346.96 1240.39 346.56C1240.74 346.133 1240.75 345.507 1240.43 344.68C1240.3 344.333 1240.11 343.947 1239.87 343.52C1239.66 343.067 1239.41 342.64 1239.11 342.24C1238.85 341.84 1238.54 341.507 1238.19 341.24C1237.87 340.973 1237.54 340.84 1237.19 340.84C1236.85 340.84 1236.49 340.947 1236.11 341.16C1235.74 341.373 1235.37 341.707 1234.99 342.16C1234.62 342.587 1234.25 343.16 1233.87 343.88ZM1249.68 352.2L1250.08 346.6C1251.25 346.6 1252.17 346.52 1252.84 346.36C1253.53 346.2 1254.02 345.907 1254.32 345.48C1254.61 345.027 1254.76 344.387 1254.76 343.56C1254.76 342.813 1254.65 341.92 1254.44 340.88C1254.25 339.84 1254 338.76 1253.68 337.64C1253.36 336.52 1253.04 335.493 1252.72 334.56L1258.24 333.04C1258.56 333.947 1258.88 335 1259.2 336.2C1259.52 337.4 1259.78 338.64 1260 339.92C1260.24 341.173 1260.36 342.387 1260.36 343.56C1260.36 345.027 1260.17 346.267 1259.8 347.28C1259.42 348.267 1258.9 349.093 1258.24 349.76C1257.6 350.4 1256.82 350.907 1255.92 351.28C1255.04 351.627 1254.06 351.867 1253 352C1251.93 352.133 1250.82 352.2 1249.68 352.2ZM1255.44 329.72C1254.61 329.72 1253.9 329.44 1253.32 328.88C1252.76 328.32 1252.48 327.627 1252.48 326.8C1252.48 325.973 1252.76 325.267 1253.32 324.68C1253.9 324.093 1254.61 323.8 1255.44 323.8C1256.24 323.8 1256.92 324.093 1257.48 324.68C1258.06 325.267 1258.36 325.973 1258.36 326.8C1258.36 327.627 1258.06 328.32 1257.48 328.88C1256.92 329.44 1256.24 329.72 1255.44 329.72ZM1265.57 352L1264.73 322.72H1270.33L1271.17 352H1265.57ZM1275.59 361.2L1274.43 355.6C1276.32 355.36 1277.98 355.067 1279.39 354.72C1280.8 354.4 1281.99 353.947 1282.95 353.36C1283.91 352.773 1284.63 351.973 1285.11 350.96C1285.59 349.92 1285.83 348.587 1285.83 346.96C1285.83 345.387 1285.59 344.133 1285.11 343.2C1284.63 342.267 1283.99 341.8 1283.19 341.8C1282.63 341.8 1282.16 342 1281.79 342.4C1281.42 342.773 1281.14 343.227 1280.95 343.76C1280.79 344.267 1280.71 344.72 1280.71 345.12C1280.71 345.36 1280.78 345.613 1280.91 345.88C1281.04 346.147 1281.34 346.373 1281.79 346.56C1282.24 346.747 1282.95 346.853 1283.91 346.88C1284.9 346.907 1286.23 346.813 1287.91 346.6H1294.63C1295.64 346.6 1296.36 346.867 1296.79 347.4C1297.24 347.907 1297.47 348.547 1297.47 349.32C1297.47 350.147 1297.19 350.84 1296.63 351.4C1296.07 351.933 1295.27 352.2 1294.23 352.2H1283.23C1281.55 352.2 1280.11 352 1278.91 351.6C1277.71 351.2 1276.79 350.56 1276.15 349.68C1275.51 348.773 1275.19 347.573 1275.19 346.08C1275.19 344.88 1275.39 343.68 1275.79 342.48C1276.22 341.28 1276.8 340.187 1277.55 339.2C1278.3 338.187 1279.16 337.387 1280.15 336.8C1281.16 336.187 1282.26 335.88 1283.43 335.88C1285.03 335.88 1286.43 336.373 1287.63 337.36C1288.83 338.347 1289.76 339.653 1290.43 341.28C1291.12 342.907 1291.47 344.68 1291.47 346.6C1291.47 349.613 1290.83 352.173 1289.55 354.28C1288.27 356.387 1286.44 358.013 1284.07 359.16C1281.7 360.333 1278.87 361.013 1275.59 361.2ZM1294.29 352.2L1294.69 346.6C1296.29 346.6 1297.51 346.52 1298.37 346.36C1299.22 346.2 1299.81 345.907 1300.13 345.48C1300.47 345.027 1300.65 344.387 1300.65 343.56C1300.65 342.813 1300.54 341.92 1300.33 340.88C1300.14 339.84 1299.89 338.76 1299.57 337.64C1299.27 336.52 1298.95 335.493 1298.61 334.56L1304.13 333.04C1304.47 333.947 1304.81 335 1305.13 336.2C1305.45 337.4 1305.71 338.64 1305.93 339.92C1306.14 341.173 1306.25 342.387 1306.25 343.56C1306.25 345.373 1305.95 346.853 1305.37 348C1304.78 349.12 1303.95 349.987 1302.89 350.6C1301.85 351.213 1300.59 351.64 1299.13 351.88C1297.66 352.093 1296.05 352.2 1294.29 352.2ZM1305.13 329.8C1304.35 329.8 1303.69 329.533 1303.13 329C1302.59 328.44 1302.33 327.787 1302.33 327.04C1302.33 326.267 1302.59 325.6 1303.13 325.04C1303.69 324.48 1304.35 324.2 1305.13 324.2C1305.87 324.2 1306.51 324.48 1307.05 325.04C1307.58 325.6 1307.85 326.267 1307.85 327.04C1307.85 327.787 1307.58 328.44 1307.05 329C1306.51 329.533 1305.87 329.8 1305.13 329.8ZM1298.21 329.76C1297.43 329.76 1296.77 329.493 1296.21 328.96C1295.67 328.4 1295.41 327.747 1295.41 327C1295.41 326.227 1295.67 325.56 1296.21 325C1296.77 324.44 1297.43 324.16 1298.21 324.16C1298.95 324.16 1299.59 324.44 1300.13 325C1300.66 325.56 1300.93 326.227 1300.93 327C1300.93 327.747 1300.66 328.4 1300.13 328.96C1299.59 329.493 1298.95 329.76 1298.21 329.76Z" fill="white"/>
<path d="M1100.4 511.515C1104.86 503.78 1104.86 494.25 1100.4 486.515L1025.53 356.838C1021.06 349.103 1012.81 344.338 1003.88 344.338H854.139C845.207 344.338 836.954 349.103 832.488 356.838L757.619 486.515C753.153 494.25 753.153 503.78 757.619 511.515L832.488 641.193C836.954 648.928 845.207 653.693 854.139 653.693H1003.88C1012.81 653.693 1021.06 648.928 1025.53 641.193L1100.4 511.515Z" fill="#89C958" fill-opacity="0.78"/>
</g>
<defs>
<clipPath id="clip0_1592_626">
<rect width="1440" height="567" fill="white" transform="matrix(-1 0 0 1 1440 0)"/>
</clipPath>
</defs>
</svg>
