<svg width="1440" height="567" viewBox="0 0 1440 567" fill="none" xmlns="http://www.w3.org/2000/svg">
<g clip-path="url(#clip0_1596_646)">
<path d="M1656.78 191.106C1661.25 183.371 1661.25 173.841 1656.78 166.106L1581.91 36.4287C1577.45 28.6937 1569.2 23.9287 1560.26 23.9287H1410.52C1401.59 23.9287 1393.34 28.6937 1388.87 36.4287L1314 166.106C1309.54 173.841 1309.54 183.371 1314 191.106L1388.87 320.784C1393.34 328.519 1401.59 333.284 1410.52 333.284H1560.26C1569.2 333.284 1577.45 328.519 1581.91 320.784L1656.78 191.106Z" fill="#89C958" fill-opacity="0.78"/>
<path d="M1378.59 671.719C1383.06 663.984 1383.06 654.454 1378.59 646.719L1303.72 517.042C1299.26 509.307 1291 504.542 1282.07 504.542H1132.33C1123.4 504.542 1115.15 509.307 1110.68 517.042L1035.81 646.719C1031.35 654.454 1031.35 663.984 1035.81 671.719L1110.68 801.397C1115.15 809.132 1123.4 813.897 1132.33 813.897H1282.07C1291 813.897 1299.26 809.132 1303.72 801.397L1378.59 671.719Z" fill="#89C958" fill-opacity="0.78"/>
<path d="M1656.78 511.515C1661.25 503.78 1661.25 494.25 1656.78 486.515L1581.91 356.838C1577.45 349.103 1569.2 344.338 1560.26 344.338H1410.52C1401.59 344.338 1393.34 349.103 1388.87 356.838L1314 486.515C1309.54 494.25 1309.54 503.78 1314 511.515L1388.87 641.193C1393.34 648.928 1401.59 653.693 1410.52 653.693H1560.26C1569.2 653.693 1577.45 648.928 1581.91 641.193L1656.78 511.515Z" fill="#89C958" fill-opacity="0.78"/>
<path d="M822.203 671.719C826.669 663.984 826.669 654.454 822.203 646.719L747.334 517.042C742.868 509.307 734.615 504.542 725.683 504.542H575.944C567.013 504.542 558.759 509.307 554.294 517.042L479.424 646.719C474.958 654.454 474.958 663.984 479.424 671.719L554.294 801.397C558.759 809.132 567.013 813.897 575.944 813.897H725.683C734.615 813.897 742.868 809.132 747.334 801.397L822.203 671.719Z" fill="#89C958" fill-opacity="0.78"/>
<path d="M544.013 511.515C548.478 503.78 548.478 494.25 544.013 486.515L469.143 356.838C464.677 349.103 456.424 344.338 447.493 344.338H297.751C288.821 344.338 280.571 349.103 276.101 356.838L201.231 486.515C196.771 494.25 196.771 503.78 201.231 511.515L276.101 641.193C280.571 648.928 288.821 653.693 297.751 653.693H447.493C456.424 653.693 464.677 648.928 469.143 641.193L544.013 511.515Z" fill="#89C958" fill-opacity="0.78"/>
<path d="M265.819 671.719C270.289 663.984 270.289 654.454 265.819 646.719L190.949 517.042C186.479 509.307 178.229 504.542 169.299 504.542H19.5595C10.6295 504.542 2.37945 509.307 -2.09055 517.042L-76.9605 646.719C-81.4305 654.454 -81.4305 663.984 -76.9605 671.719L-2.09055 801.397C2.37945 809.132 10.6295 813.897 19.5595 813.897H169.299C178.229 813.897 186.479 809.132 190.949 801.397L265.819 671.719Z" fill="#89C958" fill-opacity="0.78"/>
<path d="M1378.59 351.311C1383.06 343.576 1383.06 334.046 1378.59 326.311L1303.72 196.633C1299.26 188.898 1291 184.133 1282.07 184.133H1132.33C1123.4 184.133 1115.15 188.898 1110.68 196.633L1035.81 326.311C1031.35 334.046 1031.35 343.576 1035.81 351.311L1110.68 480.988C1115.15 488.723 1123.4 493.488 1132.33 493.488H1282.07C1291 493.488 1299.26 488.723 1303.72 480.988L1378.59 351.311Z" fill="#89C958" fill-opacity="0.78"/>
<path d="M1124 326.88C1124 326.267 1124.06 325.547 1124.16 324.72C1124.27 323.893 1124.47 322.96 1124.76 321.92C1125.06 320.853 1125.5 319.667 1126.08 318.36L1131 320.08C1130.71 320.907 1130.46 321.667 1130.24 322.36C1130.03 323.027 1129.87 323.653 1129.76 324.24C1129.66 324.8 1129.6 325.36 1129.6 325.92C1129.6 326.72 1129.78 327.467 1130.12 328.16C1130.47 328.853 1130.99 329.453 1131.68 329.96C1132.38 330.493 1133.23 330.907 1134.24 331.2C1135.28 331.493 1136.48 331.64 1137.84 331.64C1139.39 331.64 1140.75 331.493 1141.92 331.2C1143.12 330.933 1144.12 330.573 1144.92 330.12C1145.75 329.693 1146.38 329.24 1146.8 328.76C1147.23 328.28 1147.44 327.84 1147.44 327.44C1147.44 327.12 1147.22 326.84 1146.76 326.6C1146.34 326.36 1145.76 326.12 1145.04 325.88C1144.35 325.613 1143.6 325.32 1142.8 325C1142.03 324.68 1141.28 324.28 1140.56 323.8C1139.87 323.32 1139.3 322.733 1138.84 322.04C1138.42 321.347 1138.2 320.507 1138.2 319.52C1138.2 318.507 1138.47 317.4 1139 316.2C1139.54 314.973 1140.3 313.813 1141.28 312.72C1142.27 311.6 1143.44 310.693 1144.8 310C1146.19 309.28 1147.71 308.92 1149.36 308.92C1150.54 308.92 1151.6 309.107 1152.56 309.48C1153.55 309.853 1154.38 310.28 1155.04 310.76L1152.96 315.44C1152.4 315.067 1151.8 314.787 1151.16 314.6C1150.52 314.387 1149.91 314.28 1149.32 314.28C1148.58 314.28 1147.86 314.427 1147.16 314.72C1146.5 315.013 1145.9 315.4 1145.36 315.88C1144.86 316.333 1144.46 316.827 1144.16 317.36C1143.87 317.893 1143.72 318.4 1143.72 318.88C1143.72 319.36 1143.95 319.787 1144.4 320.16C1144.88 320.507 1145.5 320.84 1146.24 321.16C1146.99 321.453 1147.78 321.76 1148.6 322.08C1149.43 322.4 1150.22 322.76 1150.96 323.16C1151.71 323.56 1152.31 324.04 1152.76 324.6C1153.24 325.16 1153.48 325.84 1153.48 326.64C1153.48 327.787 1153.12 328.973 1152.4 330.2C1151.71 331.453 1150.67 332.613 1149.28 333.68C1147.9 334.747 1146.19 335.6 1144.16 336.24C1142.16 336.907 1139.84 337.24 1137.2 337.24C1135.28 337.24 1133.52 337.013 1131.92 336.56C1130.32 336.133 1128.92 335.48 1127.72 334.6C1126.55 333.747 1125.63 332.667 1124.96 331.36C1124.32 330.08 1124 328.587 1124 326.88ZM1168.5 328.2C1166.02 328.2 1164.1 327.947 1162.74 327.44C1161.4 326.933 1160.47 326.147 1159.94 325.08C1159.4 323.987 1159.1 322.613 1159.02 320.96L1158.18 298.72H1163.78L1164.62 318.28C1164.67 319.507 1164.8 320.427 1165.02 321.04C1165.23 321.653 1165.63 322.067 1166.22 322.28C1166.83 322.493 1167.72 322.6 1168.9 322.6C1169.91 322.6 1170.63 322.867 1171.06 323.4C1171.51 323.907 1171.74 324.547 1171.74 325.32C1171.74 326.147 1171.46 326.84 1170.9 327.4C1170.34 327.933 1169.54 328.2 1168.5 328.2ZM1184.83 328.32C1183.63 328.32 1182.39 328.173 1181.11 327.88C1179.86 327.587 1178.64 327.147 1177.47 326.56C1176.3 325.973 1175.24 325.24 1174.31 324.36C1173.38 323.48 1172.63 322.467 1172.07 321.32C1171.54 320.147 1171.27 318.827 1171.27 317.36C1171.27 316.16 1171.52 315.053 1172.03 314.04C1172.54 313.027 1173.28 312.213 1174.27 311.6C1175.28 310.96 1176.51 310.64 1177.95 310.64C1179.31 310.64 1180.48 310.973 1181.47 311.64C1182.48 312.28 1183.27 313.12 1183.83 314.16C1184.39 315.173 1184.67 316.24 1184.67 317.36C1184.67 319.147 1184.23 320.72 1183.35 322.08C1182.47 323.413 1181.26 324.533 1179.71 325.44C1178.19 326.347 1176.47 327.04 1174.55 327.52C1172.63 327.973 1170.63 328.2 1168.55 328.2L1168.95 322.6C1170.47 322.6 1171.79 322.56 1172.91 322.48C1174.06 322.4 1175.04 322.227 1175.87 321.96C1176.7 321.693 1177.42 321.293 1178.03 320.76C1178.64 320.227 1179.11 319.64 1179.43 319C1179.78 318.333 1179.95 317.68 1179.95 317.04C1179.95 316.613 1179.88 316.213 1179.75 315.84C1179.64 315.467 1179.46 315.16 1179.19 314.92C1178.95 314.653 1178.63 314.52 1178.23 314.52C1177.8 314.52 1177.44 314.653 1177.15 314.92C1176.88 315.16 1176.67 315.48 1176.51 315.88C1176.38 316.28 1176.31 316.707 1176.31 317.16C1176.31 318.093 1176.55 318.933 1177.03 319.68C1177.54 320.427 1178.2 321.053 1179.03 321.56C1179.86 322.067 1180.76 322.453 1181.75 322.72C1182.76 322.987 1183.79 323.12 1184.83 323.12C1185.66 323.12 1186.24 322.987 1186.59 322.72C1186.94 322.453 1187.11 322.093 1187.11 321.64C1187.11 321.32 1187.03 320.987 1186.87 320.64C1186.74 320.267 1186.43 319.813 1185.95 319.28C1185.47 318.747 1184.74 318.093 1183.75 317.32C1182.76 316.52 1181.44 315.533 1179.79 314.36C1178.14 313.187 1176.06 311.76 1173.55 310.08L1176.63 305.72C1179.46 307.72 1181.82 309.467 1183.71 310.96C1185.63 312.453 1187.18 313.76 1188.35 314.88C1189.52 316 1190.42 316.987 1191.03 317.84C1191.67 318.667 1192.1 319.427 1192.31 320.12C1192.52 320.813 1192.63 321.507 1192.63 322.2C1192.63 323.48 1192.32 324.573 1191.71 325.48C1191.1 326.387 1190.2 327.093 1189.03 327.6C1187.88 328.08 1186.48 328.32 1184.83 328.32ZM1213.06 328.12C1211.56 328.12 1210.22 327.867 1209.02 327.36C1207.84 326.827 1206.91 326.04 1206.22 325C1205.55 323.933 1205.22 322.613 1205.22 321.04C1205.22 319.467 1205.75 317.72 1206.82 315.8C1207.88 313.853 1209.67 311.907 1212.18 309.96L1211.78 313.64L1208.18 310.84L1211.94 306.24C1213.96 307.787 1215.7 309.293 1217.14 310.76C1218.6 312.2 1219.72 313.68 1220.5 315.2C1221.27 316.72 1221.66 318.333 1221.66 320.04C1221.66 320.867 1221.52 321.76 1221.26 322.72C1220.99 323.653 1220.54 324.533 1219.9 325.36C1219.26 326.16 1218.38 326.827 1217.26 327.36C1216.16 327.867 1214.76 328.12 1213.06 328.12ZM1213.5 322.6C1214.16 322.6 1214.7 322.467 1215.1 322.2C1215.52 321.933 1215.84 321.587 1216.06 321.16C1216.27 320.733 1216.38 320.28 1216.38 319.8C1216.38 319.32 1216.27 318.8 1216.06 318.24C1215.84 317.68 1215.43 317.053 1214.82 316.36C1214.2 315.667 1213.3 314.867 1212.1 313.96L1215.14 313.56C1214.04 314.307 1213.16 315.067 1212.5 315.84C1211.83 316.613 1211.35 317.36 1211.06 318.08C1210.79 318.773 1210.66 319.413 1210.66 320C1210.66 320.853 1210.94 321.507 1211.5 321.96C1212.06 322.387 1212.72 322.6 1213.5 322.6ZM1222 337.2L1219.96 332.08C1222.26 331.28 1224.11 330.4 1225.52 329.44C1226.96 328.48 1228.02 327.453 1228.68 326.36C1229.38 325.267 1229.72 324.133 1229.72 322.96C1229.72 322.213 1229.62 321.44 1229.4 320.64C1229.19 319.813 1228.88 318.947 1228.48 318.04C1228.11 317.133 1227.66 316.187 1227.12 315.2L1232.36 312.68C1233.3 314.467 1234.02 316.173 1234.52 317.8C1235.06 319.427 1235.32 320.947 1235.32 322.36C1235.32 323.667 1235.15 324.92 1234.8 326.12C1234.48 327.32 1233.98 328.44 1233.28 329.48C1232.62 330.547 1231.75 331.547 1230.68 332.48C1229.62 333.413 1228.36 334.267 1226.92 335.04C1225.48 335.84 1223.84 336.56 1222 337.2ZM1230.8 303.32C1230.14 303.32 1229.55 303.067 1229.04 302.56C1228.56 302.053 1228.32 301.453 1228.32 300.76C1228.32 300.067 1228.56 299.48 1229.04 299C1229.55 298.52 1230.14 298.28 1230.8 298.28C1231.5 298.28 1232.08 298.52 1232.56 299C1233.04 299.48 1233.28 300.067 1233.28 300.76C1233.28 301.453 1233.04 302.053 1232.56 302.56C1232.08 303.067 1231.5 303.32 1230.8 303.32ZM1227.6 308.6C1226.94 308.6 1226.35 308.347 1225.84 307.84C1225.36 307.333 1225.12 306.733 1225.12 306.04C1225.12 305.347 1225.36 304.76 1225.84 304.28C1226.35 303.8 1226.94 303.56 1227.6 303.56C1228.3 303.56 1228.88 303.8 1229.36 304.28C1229.84 304.76 1230.08 305.347 1230.08 306.04C1230.08 306.733 1229.84 307.333 1229.36 307.84C1228.88 308.347 1228.3 308.6 1227.6 308.6ZM1233.8 308.6C1233.14 308.6 1232.55 308.347 1232.04 307.84C1231.56 307.333 1231.32 306.733 1231.32 306.04C1231.32 305.347 1231.56 304.76 1232.04 304.28C1232.55 303.8 1233.14 303.56 1233.8 303.56C1234.5 303.56 1235.08 303.8 1235.56 304.28C1236.04 304.76 1236.28 305.347 1236.28 306.04C1236.28 306.733 1236.04 307.333 1235.56 307.84C1235.08 308.347 1234.5 308.6 1233.8 308.6ZM1240.01 337.2L1238.85 331.6C1240.74 331.36 1242.4 331.067 1243.81 330.72C1245.22 330.4 1246.41 329.947 1247.37 329.36C1248.33 328.773 1249.05 327.973 1249.53 326.96C1250.01 325.92 1250.25 324.587 1250.25 322.96C1250.25 322.373 1250.2 321.787 1250.09 321.2C1249.98 320.587 1249.82 320.027 1249.61 319.52C1249.4 319.013 1249.12 318.6 1248.77 318.28C1248.45 317.96 1248.06 317.8 1247.61 317.8C1247.13 317.8 1246.7 317.973 1246.33 318.32C1245.96 318.64 1245.66 319.053 1245.45 319.56C1245.24 320.04 1245.13 320.533 1245.13 321.04C1245.13 321.413 1245.22 321.733 1245.41 322C1245.6 322.24 1245.88 322.427 1246.25 322.56C1246.62 322.667 1247.09 322.72 1247.65 322.72C1248.29 322.72 1248.94 322.653 1249.61 322.52C1250.3 322.36 1250.93 322.147 1251.49 321.88L1251.65 326.24C1251.01 326.747 1250.28 327.2 1249.45 327.6C1248.62 327.973 1247.62 328.16 1246.45 328.16C1245.49 328.16 1244.6 328.053 1243.77 327.84C1242.94 327.6 1242.21 327.24 1241.57 326.76C1240.96 326.28 1240.48 325.667 1240.13 324.92C1239.78 324.147 1239.61 323.227 1239.61 322.16C1239.61 320.853 1239.82 319.587 1240.25 318.36C1240.68 317.133 1241.26 316.04 1242.01 315.08C1242.78 314.093 1243.66 313.32 1244.65 312.76C1245.66 312.173 1246.73 311.88 1247.85 311.88C1249.18 311.88 1250.34 312.213 1251.33 312.88C1252.34 313.547 1253.18 314.427 1253.85 315.52C1254.52 316.587 1255.02 317.747 1255.37 319C1255.72 320.253 1255.89 321.453 1255.89 322.6C1255.89 325.613 1255.25 328.173 1253.97 330.28C1252.69 332.387 1250.86 334.013 1248.49 335.16C1246.12 336.333 1243.29 337.013 1240.01 337.2ZM1258.29 337.24L1256.25 332.28C1257.67 331.8 1258.96 331.24 1260.13 330.6C1261.33 329.96 1262.37 329.253 1263.25 328.48C1264.13 327.707 1264.81 326.867 1265.29 325.96C1265.77 325.027 1266.01 324.027 1266.01 322.96C1266.01 321.84 1265.76 320.613 1265.25 319.28C1264.75 317.947 1264.13 316.587 1263.41 315.2L1268.65 312.68C1269.13 313.507 1269.55 314.4 1269.89 315.36C1270.27 316.293 1270.57 317.133 1270.81 317.88C1271.05 318.627 1271.21 319.133 1271.29 319.4C1271.67 320.68 1272.17 321.533 1272.81 321.96C1273.48 322.387 1274.55 322.6 1276.01 322.6C1277.03 322.6 1277.75 322.867 1278.17 323.4C1278.63 323.907 1278.85 324.547 1278.85 325.32C1278.85 326.147 1278.57 326.84 1278.01 327.4C1277.45 327.933 1276.65 328.2 1275.61 328.2C1274.52 328.2 1273.56 328.04 1272.73 327.72C1271.91 327.4 1271.24 326.933 1270.73 326.32C1270.25 325.707 1269.95 324.987 1269.81 324.16L1271.29 325C1271.13 326.413 1270.67 327.747 1269.89 329C1269.15 330.28 1268.17 331.453 1266.97 332.52C1265.77 333.587 1264.43 334.52 1262.93 335.32C1261.44 336.12 1259.89 336.76 1258.29 337.24ZM1275.66 328.2L1276.06 322.6C1277.66 322.6 1278.89 322.52 1279.74 322.36C1280.59 322.2 1281.18 321.907 1281.5 321.48C1281.85 321.027 1282.02 320.387 1282.02 319.56C1282.02 318.813 1281.91 317.92 1281.7 316.88C1281.51 315.84 1281.26 314.76 1280.94 313.64C1280.65 312.52 1280.33 311.493 1279.98 310.56L1285.5 309.04C1285.85 309.947 1286.18 311 1286.5 312.2C1286.82 313.4 1287.09 314.64 1287.3 315.92C1287.51 317.173 1287.62 318.387 1287.62 319.56C1287.62 321.373 1287.33 322.853 1286.74 324C1286.15 325.12 1285.33 325.987 1284.26 326.6C1283.22 327.213 1281.97 327.64 1280.5 327.88C1279.03 328.093 1277.42 328.2 1275.66 328.2ZM1281.7 341.52C1281.03 341.52 1280.47 341.293 1280.02 340.84C1279.59 340.387 1279.38 339.84 1279.38 339.2C1279.38 338.533 1279.59 337.96 1280.02 337.48C1280.47 337 1281.03 336.76 1281.7 336.76C1282.34 336.76 1282.89 337 1283.34 337.48C1283.79 337.96 1284.02 338.533 1284.02 339.2C1284.02 339.84 1283.79 340.387 1283.34 340.84C1282.89 341.293 1282.34 341.52 1281.7 341.52ZM1284.78 336.36C1284.11 336.36 1283.55 336.133 1283.1 335.68C1282.67 335.227 1282.46 334.68 1282.46 334.04C1282.46 333.373 1282.67 332.8 1283.1 332.32C1283.55 331.84 1284.11 331.6 1284.78 331.6C1285.42 331.6 1285.97 331.84 1286.42 332.32C1286.87 332.8 1287.1 333.373 1287.1 334.04C1287.1 334.68 1286.87 335.227 1286.42 335.68C1285.97 336.133 1285.42 336.36 1284.78 336.36ZM1278.78 336.36C1278.11 336.36 1277.55 336.133 1277.1 335.68C1276.65 335.227 1276.42 334.68 1276.42 334.04C1276.42 333.373 1276.65 332.8 1277.1 332.32C1277.55 331.84 1278.11 331.6 1278.78 331.6C1279.39 331.6 1279.93 331.84 1280.38 332.32C1280.86 332.8 1281.1 333.373 1281.1 334.04C1281.1 334.68 1280.86 335.227 1280.38 335.68C1279.93 336.133 1279.39 336.36 1278.78 336.36ZM1120.22 386.88C1120.22 386.267 1120.27 385.547 1120.38 384.72C1120.48 383.893 1120.68 382.96 1120.98 381.92C1121.27 380.853 1121.71 379.667 1122.3 378.36L1127.22 380.08C1126.92 380.907 1126.67 381.667 1126.46 382.36C1126.24 383.027 1126.08 383.653 1125.98 384.24C1125.87 384.8 1125.82 385.36 1125.82 385.92C1125.82 386.8 1126 387.587 1126.38 388.28C1126.78 389 1127.35 389.6 1128.1 390.08C1128.84 390.587 1129.75 390.973 1130.82 391.24C1131.91 391.507 1133.16 391.64 1134.58 391.64C1136.04 391.64 1137.35 391.573 1138.5 391.44C1139.67 391.307 1140.66 391.107 1141.46 390.84C1142.28 390.573 1142.91 390.227 1143.34 389.8C1143.76 389.4 1143.98 388.933 1143.98 388.4C1143.98 388.16 1143.88 387.933 1143.7 387.72C1143.54 387.507 1143.26 387.28 1142.86 387.04C1142.48 386.8 1141.98 386.547 1141.34 386.28C1140.72 386.013 1139.98 385.72 1139.1 385.4L1140.42 379.76C1141.56 380.24 1142.64 380.667 1143.66 381.04C1144.7 381.387 1145.68 381.68 1146.62 381.92C1147.55 382.133 1148.43 382.307 1149.26 382.44C1150.08 382.547 1150.86 382.6 1151.58 382.6C1152.59 382.6 1153.31 382.867 1153.74 383.4C1154.16 383.907 1154.38 384.547 1154.38 385.32C1154.38 386.147 1154.1 386.84 1153.54 387.4C1152.98 387.933 1152.19 388.2 1151.18 388.2C1150.96 388.2 1150.75 388.2 1150.54 388.2C1150.35 388.2 1150.15 388.2 1149.94 388.2C1149.75 388.2 1149.55 388.2 1149.34 388.2C1149.39 388.467 1149.42 388.693 1149.42 388.88C1149.42 389.093 1149.42 389.293 1149.42 389.48C1149.42 390.36 1149.11 391.253 1148.5 392.16C1147.91 393.067 1146.99 393.907 1145.74 394.68C1144.48 395.453 1142.88 396.067 1140.94 396.52C1139.02 397 1136.72 397.24 1134.06 397.24C1131.18 397.24 1128.7 396.867 1126.62 396.12C1124.56 395.4 1122.98 394.267 1121.86 392.72C1120.76 391.2 1120.22 389.253 1120.22 386.88ZM1151.17 388.2L1151.57 382.6C1152.74 382.6 1153.66 382.52 1154.33 382.36C1155.02 382.2 1155.51 381.907 1155.81 381.48C1156.1 381.027 1156.25 380.387 1156.25 379.56C1156.25 378.813 1156.14 377.92 1155.93 376.88C1155.74 375.84 1155.49 374.76 1155.17 373.64C1154.85 372.52 1154.53 371.493 1154.21 370.56L1159.73 369.04C1160.05 369.947 1160.37 371 1160.69 372.2C1161.01 373.4 1161.27 374.64 1161.49 375.92C1161.73 377.173 1161.85 378.387 1161.85 379.56C1161.85 381.027 1161.66 382.267 1161.29 383.28C1160.91 384.267 1160.39 385.093 1159.73 385.76C1159.09 386.4 1158.31 386.907 1157.41 387.28C1156.53 387.627 1155.55 387.867 1154.49 388C1153.42 388.133 1152.31 388.2 1151.17 388.2ZM1156.93 365.72C1156.1 365.72 1155.39 365.44 1154.81 364.88C1154.25 364.32 1153.97 363.627 1153.97 362.8C1153.97 361.973 1154.25 361.267 1154.81 360.68C1155.39 360.093 1156.1 359.8 1156.93 359.8C1157.73 359.8 1158.41 360.093 1158.97 360.68C1159.55 361.267 1159.85 361.973 1159.85 362.8C1159.85 363.627 1159.55 364.32 1158.97 364.88C1158.41 365.44 1157.73 365.72 1156.93 365.72ZM1176.54 388.2C1174.06 388.2 1172.14 387.947 1170.78 387.44C1169.45 386.933 1168.52 386.147 1167.98 385.08C1167.45 383.987 1167.14 382.613 1167.06 380.96L1166.22 358.72H1171.82L1172.66 378.28C1172.72 379.507 1172.85 380.427 1173.06 381.04C1173.28 381.653 1173.68 382.067 1174.26 382.28C1174.88 382.493 1175.77 382.6 1176.94 382.6C1177.96 382.6 1178.68 382.867 1179.1 383.4C1179.56 383.907 1179.78 384.547 1179.78 385.32C1179.78 386.147 1179.5 386.84 1178.94 387.4C1178.38 387.933 1177.58 388.2 1176.54 388.2ZM1176.6 388.2L1177 382.6C1177.66 382.6 1178.17 382.467 1178.52 382.2C1178.86 381.933 1179.21 381.467 1179.56 380.8C1179.9 380.133 1180.38 379.227 1181 378.08C1181.66 376.8 1182.36 375.733 1183.08 374.88C1183.8 374 1184.52 373.307 1185.24 372.8C1185.98 372.267 1186.72 371.893 1187.44 371.68C1188.18 371.44 1188.92 371.32 1189.64 371.32C1190.62 371.32 1191.54 371.533 1192.4 371.96C1193.28 372.36 1194.12 373.067 1194.92 374.08C1195.72 375.067 1196.48 376.427 1197.2 378.16C1197.7 379.36 1198.21 380.28 1198.72 380.92C1199.22 381.56 1199.74 382 1200.28 382.24C1200.84 382.48 1201.4 382.6 1201.96 382.6C1202.97 382.6 1203.69 382.867 1204.12 383.4C1204.54 383.907 1204.76 384.547 1204.76 385.32C1204.76 386.147 1204.48 386.84 1203.92 387.4C1203.36 387.933 1202.57 388.2 1201.56 388.2C1200.25 388.2 1199.06 387.987 1198 387.56C1196.93 387.133 1196.09 386.493 1195.48 385.64L1196.64 384.76C1196.4 385.32 1196.04 385.907 1195.56 386.52C1195.1 387.133 1194.5 387.653 1193.76 388.08C1193.04 388.507 1192.17 388.72 1191.16 388.72C1190.49 388.72 1189.7 388.587 1188.8 388.32C1187.92 388.08 1187 387.667 1186.04 387.08C1185.1 386.467 1184.24 385.64 1183.44 384.6C1182.93 385.533 1182.37 386.267 1181.76 386.8C1181.14 387.307 1180.42 387.667 1179.6 387.88C1178.77 388.093 1177.77 388.2 1176.6 388.2ZM1185.76 379.88C1186.02 380.28 1186.34 380.68 1186.72 381.08C1187.09 381.48 1187.5 381.84 1187.96 382.16C1188.41 382.453 1188.89 382.693 1189.4 382.88C1189.93 383.067 1190.45 383.16 1190.96 383.16C1191.49 383.16 1191.93 382.96 1192.28 382.56C1192.62 382.133 1192.64 381.507 1192.32 380.68C1192.18 380.333 1192 379.947 1191.76 379.52C1191.54 379.067 1191.29 378.64 1191 378.24C1190.73 377.84 1190.42 377.507 1190.08 377.24C1189.76 376.973 1189.42 376.84 1189.08 376.84C1188.73 376.84 1188.37 376.947 1188 377.16C1187.62 377.373 1187.25 377.707 1186.88 378.16C1186.5 378.587 1186.13 379.16 1185.76 379.88ZM1201.56 388.2L1201.96 382.6C1202.92 382.6 1203.75 382.507 1204.44 382.32C1205.13 382.133 1205.72 381.76 1206.2 381.2C1206.68 380.613 1207.08 379.76 1207.4 378.64C1207.75 377.52 1208.05 376.027 1208.32 374.16L1213.56 375.04C1213.51 375.44 1213.43 375.907 1213.32 376.44C1213.24 376.973 1213.16 377.52 1213.08 378.08C1213.03 378.613 1213 379.12 1213 379.6C1213 380.08 1213.09 380.507 1213.28 380.88C1213.47 381.253 1213.76 381.573 1214.16 381.84C1214.59 382.08 1215.13 382.267 1215.8 382.4C1216.49 382.533 1217.33 382.6 1218.32 382.6C1219.33 382.6 1220.05 382.867 1220.48 383.4C1220.91 383.907 1221.12 384.547 1221.12 385.32C1221.12 386.147 1220.84 386.84 1220.28 387.4C1219.75 387.933 1218.96 388.2 1217.92 388.2C1216.72 388.2 1215.63 388.107 1214.64 387.92C1213.68 387.733 1212.84 387.427 1212.12 387C1211.43 386.547 1210.85 385.96 1210.4 385.24C1209.97 384.493 1209.71 383.587 1209.6 382.52H1211.52C1211.04 383.8 1210.43 384.827 1209.68 385.6C1208.96 386.347 1208.15 386.907 1207.24 387.28C1206.33 387.653 1205.39 387.893 1204.4 388C1203.44 388.133 1202.49 388.2 1201.56 388.2ZM1214.4 370.56C1213.63 370.56 1212.96 370.293 1212.4 369.76C1211.87 369.2 1211.6 368.547 1211.6 367.8C1211.6 367.027 1211.87 366.36 1212.4 365.8C1212.96 365.24 1213.63 364.96 1214.4 364.96C1215.15 364.96 1215.79 365.24 1216.32 365.8C1216.85 366.36 1217.12 367.027 1217.12 367.8C1217.12 368.547 1216.85 369.2 1216.32 369.76C1215.79 370.293 1215.15 370.56 1214.4 370.56ZM1207.48 370.52C1206.71 370.52 1206.04 370.253 1205.48 369.72C1204.95 369.16 1204.68 368.507 1204.68 367.76C1204.68 366.987 1204.95 366.32 1205.48 365.76C1206.04 365.2 1206.71 364.92 1207.48 364.92C1208.23 364.92 1208.87 365.2 1209.4 365.76C1209.93 366.32 1210.2 366.987 1210.2 367.76C1210.2 368.507 1209.93 369.16 1209.4 369.72C1208.87 370.253 1208.23 370.52 1207.48 370.52ZM1217.93 388.2L1218.33 382.6C1219.77 382.6 1221.19 382.52 1222.61 382.36C1224.02 382.2 1225.39 381.96 1226.73 381.64C1228.06 381.32 1229.33 380.907 1230.53 380.4C1231.75 379.893 1232.9 379.28 1233.97 378.56C1233.17 378.08 1232.3 377.667 1231.37 377.32C1230.43 376.973 1229.43 376.72 1228.37 376.56C1227.33 376.373 1226.22 376.28 1225.05 376.28C1224.62 376.28 1224.17 376.293 1223.69 376.32C1223.23 376.347 1222.77 376.4 1222.29 376.48C1221.81 376.533 1221.33 376.613 1220.85 376.72L1220.05 371.24C1220.82 371.027 1221.63 370.88 1222.49 370.8C1223.37 370.693 1224.14 370.64 1224.81 370.64C1226.25 370.64 1227.57 370.8 1228.77 371.12C1229.99 371.44 1231.11 371.84 1232.13 372.32C1233.17 372.8 1234.13 373.28 1235.01 373.76C1235.91 374.24 1236.77 374.64 1237.57 374.96C1238.39 375.28 1239.19 375.44 1239.97 375.44H1241.45L1242.09 380.76C1240.94 380.813 1239.86 381.04 1238.85 381.44C1237.86 381.813 1236.87 382.293 1235.89 382.88C1234.93 383.44 1233.89 384.027 1232.77 384.64C1231.67 385.253 1230.43 385.827 1229.05 386.36C1227.66 386.893 1226.06 387.333 1224.25 387.68C1222.43 388.027 1220.33 388.2 1217.93 388.2ZM1224.85 366.92C1224.02 366.92 1223.31 366.64 1222.73 366.08C1222.17 365.52 1221.89 364.827 1221.89 364C1221.89 363.173 1222.17 362.467 1222.73 361.88C1223.31 361.293 1224.02 361 1224.85 361C1225.65 361 1226.33 361.293 1226.89 361.88C1227.47 362.467 1227.77 363.173 1227.77 364C1227.77 364.827 1227.47 365.52 1226.89 366.08C1226.33 366.64 1225.65 366.92 1224.85 366.92ZM1255.76 388.2C1253.28 388.2 1251.36 387.947 1250 387.44C1248.67 386.933 1247.74 386.147 1247.2 385.08C1246.67 383.987 1246.36 382.613 1246.28 380.96L1245.44 358.72H1251.04L1251.88 378.28C1251.94 379.507 1252.07 380.427 1252.28 381.04C1252.5 381.653 1252.9 382.067 1253.48 382.28C1254.1 382.493 1254.99 382.6 1256.16 382.6C1257.18 382.6 1257.9 382.867 1258.32 383.4C1258.78 383.907 1259 384.547 1259 385.32C1259 386.147 1258.72 386.84 1258.16 387.4C1257.6 387.933 1256.8 388.2 1255.76 388.2ZM1255.82 388.2L1256.22 382.6C1257.1 382.6 1257.82 382.533 1258.38 382.4C1258.94 382.24 1259.39 381.907 1259.74 381.4C1260.11 380.867 1260.43 380.08 1260.7 379.04C1260.99 377.973 1261.31 376.533 1261.66 374.72L1266.86 375.68C1266.78 376.08 1266.68 376.547 1266.58 377.08C1266.47 377.613 1266.38 378.16 1266.3 378.72C1266.22 379.253 1266.18 379.733 1266.18 380.16C1266.18 380.907 1266.42 381.507 1266.9 381.96C1267.38 382.387 1268.28 382.6 1269.62 382.6C1270.28 382.6 1270.86 382.533 1271.34 382.4C1271.84 382.24 1272.27 381.907 1272.62 381.4C1272.99 380.867 1273.31 380.053 1273.58 378.96C1273.87 377.84 1274.15 376.333 1274.42 374.44L1279.7 375.28C1279.59 375.893 1279.48 376.547 1279.38 377.24C1279.27 377.933 1279.18 378.573 1279.1 379.16C1279.02 379.747 1278.98 380.227 1278.98 380.6C1278.98 380.947 1279.07 381.28 1279.26 381.6C1279.47 381.893 1279.84 382.133 1280.38 382.32C1280.94 382.507 1281.72 382.6 1282.74 382.6C1283.46 382.6 1284.07 382.507 1284.58 382.32C1285.11 382.133 1285.51 381.827 1285.78 381.4C1286.07 380.973 1286.22 380.413 1286.22 379.72C1286.22 378.733 1285.99 377.44 1285.54 375.84C1285.08 374.24 1284.55 372.56 1283.94 370.8L1289.58 369.12C1290 370.267 1290.38 371.493 1290.7 372.8C1291.04 374.08 1291.31 375.333 1291.5 376.56C1291.71 377.76 1291.82 378.813 1291.82 379.72C1291.82 381.08 1291.6 382.293 1291.18 383.36C1290.75 384.4 1290.15 385.28 1289.38 386C1288.6 386.72 1287.68 387.267 1286.62 387.64C1285.55 388.013 1284.38 388.2 1283.1 388.2C1281.55 388.2 1280.28 388.053 1279.3 387.76C1278.31 387.44 1277.55 386.92 1277.02 386.2C1276.51 385.453 1276.18 384.44 1276.02 383.16H1277.38C1276.82 384.733 1276.19 385.88 1275.5 386.6C1274.8 387.293 1273.98 387.733 1273.02 387.92C1272.08 388.107 1270.91 388.2 1269.5 388.2C1268.62 388.2 1267.71 388.107 1266.78 387.92C1265.87 387.707 1265.06 387.227 1264.34 386.48C1263.62 385.733 1263.08 384.573 1262.74 383L1264.9 382.92C1264.34 384.493 1263.6 385.653 1262.7 386.4C1261.82 387.147 1260.8 387.64 1259.66 387.88C1258.51 388.093 1257.23 388.2 1255.82 388.2Z" fill="white"/>
<path d="M1100.4 511.515C1104.86 503.78 1104.86 494.25 1100.4 486.515L1025.53 356.838C1021.06 349.103 1012.81 344.338 1003.88 344.338H854.139C845.207 344.338 836.954 349.103 832.488 356.838L757.619 486.515C753.153 494.25 753.153 503.78 757.619 511.515L832.488 641.193C836.954 648.928 845.207 653.693 854.139 653.693H1003.88C1012.81 653.693 1021.06 648.928 1025.53 641.193L1100.4 511.515Z" fill="#89C958" fill-opacity="0.78"/>
</g>
<defs>
<clipPath id="clip0_1596_646">
<rect width="1440" height="567" fill="white" transform="matrix(-1 0 0 1 1440 0)"/>
</clipPath>
</defs>
</svg>
