<svg width="1440" height="567" viewBox="0 0 1440 567" fill="none" xmlns="http://www.w3.org/2000/svg">
<g clip-path="url(#clip0_1590_565)">
<path d="M-216.783 191.106C-221.249 183.371 -221.249 173.841 -216.783 166.106L-141.914 36.4287C-137.448 28.6937 -129.195 23.9287 -120.263 23.9287H29.4758C38.4075 23.9287 46.6607 28.6937 51.1265 36.4287L125.996 166.106C130.461 173.841 130.461 183.371 125.996 191.106L51.1265 320.784C46.6606 328.519 38.4075 333.284 29.4758 333.284H-120.263C-129.195 333.284 -137.448 328.519 -141.914 320.784L-216.783 191.106Z" fill="#89C958" fill-opacity="0.78"/>
<path d="M61.4104 671.719C56.9446 663.984 56.9446 654.454 61.4104 646.719L136.28 517.042C140.745 509.307 148.999 504.542 157.93 504.542H307.669C316.601 504.542 324.854 509.307 329.32 517.042L404.189 646.719C408.655 654.454 408.655 663.984 404.189 671.719L329.32 801.397C324.854 809.132 316.601 813.897 307.669 813.897H157.93C148.999 813.897 140.745 809.132 136.28 801.397L61.4104 671.719Z" fill="#89C958" fill-opacity="0.78"/>
<path d="M-216.783 511.515C-221.249 503.78 -221.249 494.25 -216.783 486.515L-141.914 356.838C-137.448 349.103 -129.195 344.338 -120.263 344.338H29.4758C38.4075 344.338 46.6607 349.103 51.1265 356.838L125.996 486.515C130.461 494.25 130.461 503.78 125.996 511.515L51.1265 641.193C46.6606 648.928 38.4075 653.693 29.4758 653.693H-120.263C-129.195 653.693 -137.448 648.928 -141.914 641.193L-216.783 511.515Z" fill="#89C958" fill-opacity="0.78"/>
<path d="M617.796 671.719C613.33 663.984 613.33 654.454 617.796 646.719L692.665 517.042C697.131 509.307 705.384 504.542 714.316 504.542H864.055C872.986 504.542 881.24 509.307 885.705 517.042L960.575 646.719C965.041 654.454 965.041 663.984 960.575 671.719L885.705 801.397C881.24 809.132 872.986 813.897 864.055 813.897H714.316C705.384 813.897 697.131 809.132 692.665 801.397L617.796 671.719Z" fill="#89C958" fill-opacity="0.78"/>
<path d="M895.988 511.515C891.523 503.78 891.523 494.25 895.988 486.515L970.858 356.838C975.324 349.103 983.577 344.338 992.508 344.338H1142.25C1151.18 344.338 1159.43 349.103 1163.9 356.838L1238.77 486.515C1243.23 494.25 1243.23 503.78 1238.77 511.515L1163.9 641.193C1159.43 648.928 1151.18 653.693 1142.25 653.693H992.508C983.577 653.693 975.324 648.928 970.858 641.193L895.988 511.515Z" fill="#89C958" fill-opacity="0.78"/>
<path d="M1174.18 671.719C1169.71 663.984 1169.71 654.454 1174.18 646.719L1249.05 517.042C1253.52 509.307 1261.77 504.542 1270.7 504.542H1420.44C1429.37 504.542 1437.62 509.307 1442.09 517.042L1516.96 646.719C1521.43 654.454 1521.43 663.984 1516.96 671.719L1442.09 801.397C1437.62 809.132 1429.37 813.897 1420.44 813.897H1270.7C1261.77 813.897 1253.52 809.132 1249.05 801.397L1174.18 671.719Z" fill="#89C958" fill-opacity="0.78"/>
<path d="M61.4104 351.311C56.9446 343.576 56.9446 334.046 61.4104 326.311L136.28 196.633C140.745 188.898 148.999 184.133 157.93 184.133H307.669C316.601 184.133 324.854 188.898 329.32 196.633L404.189 326.311C408.655 334.046 408.655 343.576 404.189 351.311L329.32 480.988C324.854 488.723 316.601 493.488 307.669 493.488H157.93C148.999 493.488 140.745 488.723 136.28 480.988L61.4104 351.311Z" fill="#89C958" fill-opacity="0.78"/>
<path d="M133.023 347.566H138.863C138.746 349.48 138.219 351.18 137.281 352.664C136.357 354.148 135.061 355.307 133.395 356.141C131.741 356.974 129.749 357.391 127.418 357.391C125.595 357.391 123.961 357.078 122.516 356.453C121.07 355.815 119.833 354.904 118.805 353.719C117.789 352.534 117.014 351.102 116.48 349.422C115.947 347.742 115.68 345.861 115.68 343.777V341.805C115.68 339.721 115.953 337.84 116.5 336.16C117.06 334.467 117.854 333.029 118.883 331.844C119.924 330.659 121.168 329.747 122.613 329.109C124.059 328.471 125.673 328.152 127.457 328.152C129.827 328.152 131.826 328.582 133.453 329.441C135.094 330.301 136.363 331.486 137.262 332.996C138.173 334.507 138.72 336.225 138.902 338.152H133.043C132.978 337.007 132.75 336.036 132.359 335.242C131.969 334.435 131.376 333.829 130.582 333.426C129.801 333.009 128.759 332.801 127.457 332.801C126.48 332.801 125.628 332.983 124.898 333.348C124.169 333.712 123.557 334.266 123.062 335.008C122.568 335.75 122.197 336.688 121.949 337.82C121.715 338.94 121.598 340.255 121.598 341.766V343.777C121.598 345.249 121.708 346.544 121.93 347.664C122.151 348.771 122.49 349.708 122.945 350.477C123.414 351.232 124.013 351.805 124.742 352.195C125.484 352.573 126.376 352.762 127.418 352.762C128.642 352.762 129.651 352.566 130.445 352.176C131.24 351.785 131.845 351.206 132.262 350.438C132.691 349.669 132.945 348.712 133.023 347.566ZM148.297 335.867V357H142.652V335.867H148.297ZM142.301 330.359C142.301 329.539 142.587 328.862 143.16 328.328C143.733 327.794 144.501 327.527 145.465 327.527C146.415 327.527 147.177 327.794 147.75 328.328C148.336 328.862 148.629 329.539 148.629 330.359C148.629 331.18 148.336 331.857 147.75 332.391C147.177 332.924 146.415 333.191 145.465 333.191C144.501 333.191 143.733 332.924 143.16 332.391C142.587 331.857 142.301 331.18 142.301 330.359ZM160.133 352.898L164.82 335.867H170.699L163.57 357H160.016L160.133 352.898ZM156.91 335.867L161.617 352.918L161.715 357H158.141L151.012 335.867H156.91ZM179.156 335.867V357H173.512V335.867H179.156ZM173.16 330.359C173.16 329.539 173.447 328.862 174.02 328.328C174.592 327.794 175.361 327.527 176.324 327.527C177.275 327.527 178.036 327.794 178.609 328.328C179.195 328.862 179.488 329.539 179.488 330.359C179.488 331.18 179.195 331.857 178.609 332.391C178.036 332.924 177.275 333.191 176.324 333.191C175.361 333.191 174.592 332.924 174.02 332.391C173.447 331.857 173.16 331.18 173.16 330.359ZM189.742 327V357H184.098V327H189.742ZM215.777 346.863H208.531V342.293H215.777C216.897 342.293 217.809 342.111 218.512 341.746C219.215 341.368 219.729 340.848 220.055 340.184C220.38 339.52 220.543 338.771 220.543 337.938C220.543 337.091 220.38 336.303 220.055 335.574C219.729 334.845 219.215 334.259 218.512 333.816C217.809 333.374 216.897 333.152 215.777 333.152H210.562V357H204.703V328.562H215.777C218.004 328.562 219.911 328.966 221.5 329.773C223.102 330.568 224.326 331.668 225.172 333.074C226.018 334.48 226.441 336.089 226.441 337.898C226.441 339.734 226.018 341.323 225.172 342.664C224.326 344.005 223.102 345.04 221.5 345.77C219.911 346.499 218.004 346.863 215.777 346.863ZM235.758 340.477V357H230.133V335.867H235.426L235.758 340.477ZM242.125 335.73L242.027 340.945C241.754 340.906 241.422 340.874 241.031 340.848C240.654 340.809 240.309 340.789 239.996 340.789C239.202 340.789 238.512 340.893 237.926 341.102C237.353 341.297 236.871 341.59 236.48 341.98C236.103 342.371 235.816 342.846 235.621 343.406C235.439 343.966 235.335 344.604 235.309 345.32L234.176 344.969C234.176 343.602 234.312 342.345 234.586 341.199C234.859 340.04 235.257 339.031 235.777 338.172C236.311 337.312 236.962 336.648 237.73 336.18C238.499 335.711 239.378 335.477 240.367 335.477C240.68 335.477 240.999 335.503 241.324 335.555C241.65 335.594 241.917 335.652 242.125 335.73ZM243.297 346.648V346.238C243.297 344.689 243.518 343.263 243.961 341.961C244.404 340.646 245.048 339.507 245.895 338.543C246.741 337.579 247.783 336.831 249.02 336.297C250.257 335.75 251.676 335.477 253.277 335.477C254.879 335.477 256.305 335.75 257.555 336.297C258.805 336.831 259.853 337.579 260.699 338.543C261.559 339.507 262.21 340.646 262.652 341.961C263.095 343.263 263.316 344.689 263.316 346.238V346.648C263.316 348.185 263.095 349.611 262.652 350.926C262.21 352.228 261.559 353.367 260.699 354.344C259.853 355.307 258.811 356.056 257.574 356.59C256.337 357.124 254.918 357.391 253.316 357.391C251.715 357.391 250.289 357.124 249.039 356.59C247.802 356.056 246.754 355.307 245.895 354.344C245.048 353.367 244.404 352.228 243.961 350.926C243.518 349.611 243.297 348.185 243.297 346.648ZM248.922 346.238V346.648C248.922 347.534 249 348.361 249.156 349.129C249.312 349.897 249.56 350.574 249.898 351.16C250.25 351.733 250.706 352.182 251.266 352.508C251.826 352.833 252.509 352.996 253.316 352.996C254.098 352.996 254.768 352.833 255.328 352.508C255.888 352.182 256.337 351.733 256.676 351.16C257.014 350.574 257.262 349.897 257.418 349.129C257.587 348.361 257.672 347.534 257.672 346.648V346.238C257.672 345.379 257.587 344.572 257.418 343.816C257.262 343.048 257.008 342.371 256.656 341.785C256.318 341.186 255.868 340.717 255.309 340.379C254.749 340.04 254.072 339.871 253.277 339.871C252.483 339.871 251.806 340.04 251.246 340.379C250.699 340.717 250.25 341.186 249.898 341.785C249.56 342.371 249.312 343.048 249.156 343.816C249 344.572 248.922 345.379 248.922 346.238ZM267.086 335.867H272.73V358.27C272.73 359.832 272.444 361.154 271.871 362.234C271.298 363.315 270.471 364.135 269.391 364.695C268.31 365.255 267.001 365.535 265.465 365.535C264.983 365.535 264.514 365.509 264.059 365.457C263.59 365.405 263.108 365.32 262.613 365.203L262.633 360.887C262.945 360.939 263.251 360.978 263.551 361.004C263.837 361.043 264.13 361.062 264.43 361.062C265.016 361.062 265.504 360.965 265.895 360.77C266.285 360.574 266.578 360.268 266.773 359.852C266.982 359.448 267.086 358.921 267.086 358.27V335.867ZM266.637 330.359C266.637 329.539 266.923 328.862 267.496 328.328C268.082 327.794 268.85 327.527 269.801 327.527C270.764 327.527 271.533 327.794 272.105 328.328C272.678 328.862 272.965 329.539 272.965 330.359C272.965 331.18 272.678 331.857 272.105 332.391C271.533 332.924 270.764 333.191 269.801 333.191C268.85 333.191 268.082 332.924 267.496 332.391C266.923 331.857 266.637 331.18 266.637 330.359ZM286.93 357.391C285.289 357.391 283.818 357.13 282.516 356.609C281.214 356.076 280.107 355.34 279.195 354.402C278.297 353.465 277.607 352.378 277.125 351.141C276.643 349.891 276.402 348.562 276.402 347.156V346.375C276.402 344.773 276.63 343.309 277.086 341.98C277.542 340.652 278.193 339.5 279.039 338.523C279.898 337.547 280.94 336.798 282.164 336.277C283.388 335.743 284.768 335.477 286.305 335.477C287.802 335.477 289.13 335.724 290.289 336.219C291.448 336.714 292.418 337.417 293.199 338.328C293.993 339.24 294.592 340.333 294.996 341.609C295.4 342.872 295.602 344.279 295.602 345.828V348.172H278.805V344.422H290.074V343.992C290.074 343.211 289.931 342.514 289.645 341.902C289.371 341.277 288.954 340.783 288.395 340.418C287.835 340.053 287.118 339.871 286.246 339.871C285.504 339.871 284.866 340.034 284.332 340.359C283.798 340.685 283.362 341.141 283.023 341.727C282.698 342.312 282.451 343.003 282.281 343.797C282.125 344.578 282.047 345.438 282.047 346.375V347.156C282.047 348.003 282.164 348.784 282.398 349.5C282.646 350.216 282.991 350.835 283.434 351.355C283.889 351.876 284.436 352.28 285.074 352.566C285.725 352.853 286.461 352.996 287.281 352.996C288.297 352.996 289.241 352.801 290.113 352.41C290.999 352.007 291.76 351.401 292.398 350.594L295.133 353.562C294.69 354.201 294.085 354.812 293.316 355.398C292.561 355.984 291.65 356.466 290.582 356.844C289.514 357.208 288.297 357.391 286.93 357.391ZM307.535 352.996C308.225 352.996 308.837 352.866 309.371 352.605C309.905 352.332 310.322 351.954 310.621 351.473C310.934 350.978 311.096 350.398 311.109 349.734H316.402C316.389 351.219 315.992 352.54 315.211 353.699C314.43 354.845 313.382 355.75 312.066 356.414C310.751 357.065 309.28 357.391 307.652 357.391C306.012 357.391 304.579 357.117 303.355 356.57C302.145 356.023 301.135 355.268 300.328 354.305C299.521 353.328 298.915 352.195 298.512 350.906C298.108 349.604 297.906 348.211 297.906 346.727V346.16C297.906 344.663 298.108 343.27 298.512 341.98C298.915 340.678 299.521 339.546 300.328 338.582C301.135 337.605 302.145 336.844 303.355 336.297C304.566 335.75 305.986 335.477 307.613 335.477C309.345 335.477 310.862 335.809 312.164 336.473C313.479 337.137 314.508 338.087 315.25 339.324C316.005 340.548 316.389 342 316.402 343.68H311.109C311.096 342.977 310.947 342.339 310.66 341.766C310.387 341.193 309.983 340.737 309.449 340.398C308.928 340.047 308.284 339.871 307.516 339.871C306.695 339.871 306.025 340.047 305.504 340.398C304.983 340.737 304.579 341.206 304.293 341.805C304.007 342.391 303.805 343.061 303.688 343.816C303.583 344.559 303.531 345.34 303.531 346.16V346.727C303.531 347.547 303.583 348.335 303.688 349.09C303.792 349.845 303.987 350.516 304.273 351.102C304.573 351.688 304.983 352.15 305.504 352.488C306.025 352.827 306.702 352.996 307.535 352.996ZM330.016 335.867V339.852H317.711V335.867H330.016ZM320.758 330.652H326.383V350.633C326.383 351.245 326.461 351.714 326.617 352.039C326.786 352.365 327.034 352.592 327.359 352.723C327.685 352.84 328.095 352.898 328.59 352.898C328.941 352.898 329.254 352.885 329.527 352.859C329.814 352.82 330.055 352.781 330.25 352.742L330.27 356.883C329.788 357.039 329.267 357.163 328.707 357.254C328.147 357.345 327.529 357.391 326.852 357.391C325.615 357.391 324.534 357.189 323.609 356.785C322.698 356.368 321.995 355.704 321.5 354.793C321.005 353.882 320.758 352.684 320.758 351.199V330.652ZM344.645 351.16C344.645 350.757 344.527 350.392 344.293 350.066C344.059 349.741 343.622 349.441 342.984 349.168C342.359 348.882 341.454 348.621 340.27 348.387C339.202 348.152 338.206 347.859 337.281 347.508C336.37 347.143 335.576 346.707 334.898 346.199C334.234 345.691 333.714 345.092 333.336 344.402C332.958 343.699 332.77 342.898 332.77 342C332.77 341.115 332.958 340.281 333.336 339.5C333.727 338.719 334.28 338.029 334.996 337.43C335.725 336.818 336.611 336.342 337.652 336.004C338.707 335.652 339.892 335.477 341.207 335.477C343.043 335.477 344.618 335.77 345.934 336.355C347.262 336.941 348.277 337.749 348.98 338.777C349.697 339.793 350.055 340.952 350.055 342.254H344.43C344.43 341.707 344.312 341.219 344.078 340.789C343.857 340.346 343.505 340.001 343.023 339.754C342.555 339.493 341.943 339.363 341.188 339.363C340.562 339.363 340.022 339.474 339.566 339.695C339.111 339.904 338.759 340.19 338.512 340.555C338.277 340.906 338.16 341.297 338.16 341.727C338.16 342.052 338.225 342.345 338.355 342.605C338.499 342.853 338.727 343.081 339.039 343.289C339.352 343.497 339.755 343.693 340.25 343.875C340.758 344.044 341.383 344.201 342.125 344.344C343.648 344.656 345.009 345.066 346.207 345.574C347.405 346.069 348.355 346.746 349.059 347.605C349.762 348.452 350.113 349.565 350.113 350.945C350.113 351.883 349.905 352.742 349.488 353.523C349.072 354.305 348.473 354.988 347.691 355.574C346.91 356.147 345.973 356.596 344.879 356.922C343.798 357.234 342.581 357.391 341.227 357.391C339.26 357.391 337.594 357.039 336.227 356.336C334.872 355.633 333.844 354.741 333.141 353.66C332.451 352.566 332.105 351.447 332.105 350.301H337.438C337.464 351.069 337.659 351.688 338.023 352.156C338.401 352.625 338.876 352.964 339.449 353.172C340.035 353.38 340.667 353.484 341.344 353.484C342.073 353.484 342.678 353.387 343.16 353.191C343.642 352.983 344.007 352.71 344.254 352.371C344.514 352.02 344.645 351.616 344.645 351.16Z" fill="white"/>
<path d="M339.603 511.515C335.137 503.78 335.137 494.25 339.603 486.515L414.472 356.838C418.938 349.103 427.191 344.338 436.123 344.338H585.861C594.793 344.338 603.046 349.103 607.512 356.838L682.381 486.515C686.847 494.25 686.847 503.78 682.381 511.515L607.512 641.193C603.046 648.928 594.793 653.693 585.861 653.693H436.123C427.191 653.693 418.938 648.928 414.472 641.193L339.603 511.515Z" fill="#89C958" fill-opacity="0.78"/>
</g>
<defs>
<clipPath id="clip0_1590_565">
<rect width="1440" height="567" fill="white"/>
</clipPath>
</defs>
</svg>
