<svg width="1440" height="567" viewBox="0 0 1440 567" fill="none" xmlns="http://www.w3.org/2000/svg">
<g clip-path="url(#clip0_1599_826)">
<path d="M1656.78 191.106C1661.25 183.371 1661.25 173.841 1656.78 166.106L1581.91 36.4287C1577.45 28.6937 1569.2 23.9287 1560.26 23.9287H1410.52C1401.59 23.9287 1393.34 28.6937 1388.87 36.4287L1314 166.106C1309.54 173.841 1309.54 183.371 1314 191.106L1388.87 320.784C1393.34 328.519 1401.59 333.284 1410.52 333.284H1560.26C1569.2 333.284 1577.45 328.519 1581.91 320.784L1656.78 191.106Z" fill="#89C958" fill-opacity="0.78"/>
<path d="M1378.59 671.719C1383.06 663.984 1383.06 654.454 1378.59 646.719L1303.72 517.042C1299.26 509.307 1291 504.542 1282.07 504.542H1132.33C1123.4 504.542 1115.15 509.307 1110.68 517.042L1035.81 646.719C1031.35 654.454 1031.35 663.984 1035.81 671.719L1110.68 801.397C1115.15 809.132 1123.4 813.897 1132.33 813.897H1282.07C1291 813.897 1299.26 809.132 1303.72 801.397L1378.59 671.719Z" fill="#89C958" fill-opacity="0.78"/>
<path d="M1656.78 511.515C1661.25 503.78 1661.25 494.25 1656.78 486.515L1581.91 356.838C1577.45 349.103 1569.2 344.338 1560.26 344.338H1410.52C1401.59 344.338 1393.34 349.103 1388.87 356.838L1314 486.515C1309.54 494.25 1309.54 503.78 1314 511.515L1388.87 641.193C1393.34 648.928 1401.59 653.693 1410.52 653.693H1560.26C1569.2 653.693 1577.45 648.928 1581.91 641.193L1656.78 511.515Z" fill="#89C958" fill-opacity="0.78"/>
<path d="M822.203 671.719C826.669 663.984 826.669 654.454 822.203 646.719L747.334 517.042C742.868 509.307 734.615 504.542 725.683 504.542H575.944C567.013 504.542 558.759 509.307 554.294 517.042L479.424 646.719C474.958 654.454 474.958 663.984 479.424 671.719L554.294 801.397C558.759 809.132 567.013 813.897 575.944 813.897H725.683C734.615 813.897 742.868 809.132 747.334 801.397L822.203 671.719Z" fill="#89C958" fill-opacity="0.78"/>
<path d="M544.013 511.515C548.478 503.78 548.478 494.25 544.013 486.515L469.143 356.838C464.677 349.103 456.424 344.338 447.493 344.338H297.751C288.821 344.338 280.571 349.103 276.101 356.838L201.231 486.515C196.771 494.25 196.771 503.78 201.231 511.515L276.101 641.193C280.571 648.928 288.821 653.693 297.751 653.693H447.493C456.424 653.693 464.677 648.928 469.143 641.193L544.013 511.515Z" fill="#89C958" fill-opacity="0.78"/>
<path d="M265.819 671.719C270.289 663.984 270.289 654.454 265.819 646.719L190.949 517.042C186.479 509.307 178.229 504.542 169.299 504.542H19.5595C10.6295 504.542 2.37945 509.307 -2.09055 517.042L-76.9605 646.719C-81.4305 654.454 -81.4305 663.984 -76.9605 671.719L-2.09055 801.397C2.37945 809.132 10.6295 813.897 19.5595 813.897H169.299C178.229 813.897 186.479 809.132 190.949 801.397L265.819 671.719Z" fill="#89C958" fill-opacity="0.78"/>
<path d="M1378.59 351.311C1383.06 343.576 1383.06 334.046 1378.59 326.311L1303.72 196.633C1299.26 188.898 1291 184.133 1282.07 184.133H1132.33C1123.4 184.133 1115.15 188.898 1110.68 196.633L1035.81 326.311C1031.35 334.046 1031.35 343.576 1035.81 351.311L1110.68 480.988C1115.15 488.723 1123.4 493.488 1132.33 493.488H1282.07C1291 493.488 1299.26 488.723 1303.72 480.988L1378.59 351.311Z" fill="#89C958" fill-opacity="0.78"/>
<path d="M1069.13 351.108C1067.79 351.108 1066.57 350.88 1065.49 350.424C1064.44 349.944 1063.6 349.236 1062.97 348.3C1062.37 347.34 1062.07 346.152 1062.07 344.736C1062.07 343.32 1062.55 341.748 1063.51 340.02C1064.47 338.268 1066.08 336.516 1068.34 334.764L1067.98 338.076L1064.74 335.556L1068.12 331.416C1069.95 332.808 1071.51 334.164 1072.8 335.484C1074.12 336.78 1075.13 338.112 1075.83 339.48C1076.52 340.848 1076.87 342.3 1076.87 343.836C1076.87 344.58 1076.75 345.384 1076.51 346.248C1076.27 347.088 1075.86 347.88 1075.29 348.624C1074.71 349.344 1073.92 349.944 1072.91 350.424C1071.93 350.88 1070.67 351.108 1069.13 351.108ZM1069.53 346.14C1070.13 346.14 1070.61 346.02 1070.97 345.78C1071.35 345.54 1071.64 345.228 1071.83 344.844C1072.02 344.46 1072.12 344.052 1072.12 343.62C1072.12 343.188 1072.02 342.72 1071.83 342.216C1071.64 341.712 1071.27 341.148 1070.71 340.524C1070.16 339.9 1069.35 339.18 1068.27 338.364L1071 338.004C1070.02 338.676 1069.23 339.36 1068.63 340.056C1068.03 340.752 1067.59 341.424 1067.33 342.072C1067.09 342.696 1066.97 343.272 1066.97 343.8C1066.97 344.568 1067.22 345.156 1067.73 345.564C1068.23 345.948 1068.83 346.14 1069.53 346.14ZM1085.89 346.14C1086.97 346.14 1087.8 346.044 1088.38 345.852C1088.95 345.66 1089.35 345.408 1089.57 345.096C1089.78 344.784 1089.89 344.448 1089.89 344.088C1089.89 343.512 1089.72 342.84 1089.39 342.072C1089.07 341.304 1088.68 340.5 1088.2 339.66C1087.72 338.82 1087.21 338.016 1086.69 337.248C1086.18 336.48 1085.73 335.808 1085.32 335.232L1089.6 332.388C1090.63 333.78 1091.52 335.16 1092.27 336.528C1093.01 337.872 1093.61 339.12 1094.07 340.272C1094.55 341.424 1094.88 342.408 1095.07 343.224C1095.27 343.992 1095.55 344.592 1095.94 345.024C1096.35 345.432 1096.81 345.72 1097.34 345.888C1097.87 346.056 1098.4 346.14 1098.93 346.14C1099.84 346.14 1100.49 346.38 1100.87 346.86C1101.28 347.316 1101.48 347.892 1101.48 348.588C1101.48 349.332 1101.23 349.956 1100.73 350.46C1100.25 350.94 1099.53 351.18 1098.57 351.18C1097.51 351.18 1096.59 351.036 1095.79 350.748C1095 350.46 1094.33 350.004 1093.78 349.38C1093.23 348.756 1092.76 347.964 1092.37 347.004L1094.57 347.472C1094.38 348.144 1093.93 348.768 1093.24 349.344C1092.57 349.896 1091.67 350.352 1090.54 350.712C1089.43 351.048 1088.13 351.216 1086.61 351.216C1085.89 351.216 1085.09 351.156 1084.2 351.036C1083.34 350.916 1082.47 350.736 1081.61 350.496C1080.77 350.256 1080 349.944 1079.31 349.56L1081.07 344.988C1081.96 345.372 1082.81 345.66 1083.63 345.852C1084.47 346.044 1085.22 346.14 1085.89 346.14ZM1098.61 351.18L1098.97 346.14C1099.89 346.14 1100.61 346.056 1101.13 345.888C1101.69 345.72 1102.12 345.384 1102.43 344.88C1102.77 344.352 1103.04 343.584 1103.26 342.576C1103.5 341.568 1103.74 340.224 1103.98 338.544L1108.69 339.336C1108.65 339.696 1108.57 340.116 1108.48 340.596C1108.41 341.076 1108.33 341.568 1108.26 342.072C1108.21 342.552 1108.19 343.008 1108.19 343.44C1108.19 344.016 1108.31 344.508 1108.55 344.916C1108.81 345.3 1109.27 345.6 1109.92 345.816C1110.59 346.032 1111.55 346.14 1112.8 346.14C1113.71 346.14 1114.36 346.38 1114.74 346.86C1115.13 347.316 1115.32 347.892 1115.32 348.588C1115.32 349.332 1115.07 349.956 1114.56 350.46C1114.08 350.94 1113.37 351.18 1112.44 351.18C1110.78 351.18 1109.44 351.024 1108.41 350.712C1107.37 350.4 1106.61 349.872 1106.1 349.128C1105.6 348.384 1105.27 347.364 1105.13 346.068H1106.86C1106.43 347.22 1105.92 348.144 1105.35 348.84C1104.77 349.512 1104.12 350.016 1103.4 350.352C1102.68 350.688 1101.91 350.904 1101.1 351C1100.31 351.12 1099.48 351.18 1098.61 351.18ZM1105.96 334.872C1105.21 334.872 1104.58 334.62 1104.05 334.116C1103.55 333.612 1103.29 332.988 1103.29 332.244C1103.29 331.5 1103.55 330.864 1104.05 330.336C1104.58 329.808 1105.21 329.544 1105.96 329.544C1106.68 329.544 1107.29 329.808 1107.79 330.336C1108.32 330.864 1108.59 331.5 1108.59 332.244C1108.59 332.988 1108.32 333.612 1107.79 334.116C1107.29 334.62 1106.68 334.872 1105.96 334.872ZM1112.43 351.18L1112.79 346.14C1113.7 346.14 1114.42 346.056 1114.95 345.888C1115.5 345.72 1115.93 345.384 1116.25 344.88C1116.58 344.352 1116.86 343.584 1117.07 342.576C1117.31 341.568 1117.55 340.224 1117.79 338.544L1122.51 339.336C1122.46 339.696 1122.39 340.116 1122.29 340.596C1122.22 341.076 1122.15 341.568 1122.08 342.072C1122.03 342.552 1122.01 343.008 1122.01 343.44C1122.01 344.016 1122.13 344.508 1122.37 344.916C1122.63 345.3 1123.09 345.6 1123.73 345.816C1124.41 346.032 1125.37 346.14 1126.61 346.14C1127.53 346.14 1128.17 346.38 1128.56 346.86C1128.94 347.316 1129.13 347.892 1129.13 348.588C1129.13 349.332 1128.88 349.956 1128.38 350.46C1127.9 350.94 1127.19 351.18 1126.25 351.18C1124.6 351.18 1123.25 351.024 1122.22 350.712C1121.19 350.4 1120.42 349.872 1119.92 349.128C1119.41 348.384 1119.09 347.364 1118.95 346.068H1120.67C1120.24 347.22 1119.74 348.144 1119.16 348.84C1118.59 349.512 1117.94 350.016 1117.22 350.352C1116.5 350.688 1115.73 350.904 1114.91 351C1114.12 351.12 1113.29 351.18 1112.43 351.18ZM1119.77 334.872C1119.03 334.872 1118.39 334.62 1117.87 334.116C1117.36 333.612 1117.11 332.988 1117.11 332.244C1117.11 331.5 1117.36 330.864 1117.87 330.336C1118.39 329.808 1119.03 329.544 1119.77 329.544C1120.49 329.544 1121.11 329.808 1121.61 330.336C1122.14 330.864 1122.4 331.5 1122.4 332.244C1122.4 332.988 1122.14 333.612 1121.61 334.116C1121.11 334.62 1120.49 334.872 1119.77 334.872ZM1126.25 351.18L1126.61 346.14H1131.75C1132.26 346.14 1132.7 346.116 1133.09 346.068C1133.47 345.996 1133.78 345.888 1134.02 345.744C1134.29 345.6 1134.48 345.42 1134.6 345.204C1134.72 344.988 1134.78 344.736 1134.78 344.448C1134.78 344.16 1134.62 343.704 1134.31 343.08C1134.02 342.432 1133.39 341.652 1132.4 340.74C1131.87 340.26 1131.3 339.756 1130.67 339.228C1130.07 338.676 1129.5 338.16 1128.95 337.68C1128.39 337.176 1127.94 336.732 1127.58 336.348C1127.22 335.964 1127.04 335.688 1127.04 335.52C1127.04 335.16 1127.06 334.764 1127.11 334.332C1127.16 333.9 1127.23 333.504 1127.33 333.144C1127.45 332.784 1127.6 332.52 1127.79 332.352C1128.2 331.968 1128.8 331.524 1129.59 331.02C1130.41 330.492 1131.38 329.928 1132.51 329.328C1133.64 328.704 1134.9 328.056 1136.29 327.384C1137.71 326.688 1139.22 325.992 1140.83 325.296L1142.88 329.688C1141.56 330.264 1140.31 330.828 1139.13 331.38C1137.96 331.908 1136.85 332.436 1135.82 332.964C1134.81 333.468 1133.88 333.972 1133.01 334.476C1132.17 334.956 1131.43 335.436 1130.78 335.916L1131.25 333.252C1133.29 334.812 1134.91 336.216 1136.11 337.464C1137.33 338.712 1138.25 339.828 1138.85 340.812C1139.45 341.772 1139.84 342.636 1140.03 343.404C1140.23 344.148 1140.32 344.808 1140.32 345.384C1140.32 345.96 1140.18 346.584 1139.89 347.256C1139.63 347.904 1139.13 348.528 1138.41 349.128C1137.72 349.728 1136.73 350.22 1135.46 350.604C1134.19 350.988 1132.56 351.18 1130.57 351.18H1126.25ZM1152.13 359.316L1150.3 354.852C1151.57 354.42 1152.73 353.916 1153.79 353.34C1154.87 352.764 1155.81 352.128 1156.6 351.432C1157.39 350.736 1158 349.98 1158.43 349.164C1158.87 348.324 1159.08 347.424 1159.08 346.464C1159.08 345.456 1158.85 344.352 1158.4 343.152C1157.94 341.952 1157.39 340.728 1156.74 339.48L1161.46 337.212C1161.89 337.956 1162.26 338.76 1162.57 339.624C1162.91 340.464 1163.19 341.22 1163.4 341.892C1163.62 342.564 1163.76 343.02 1163.83 343.26C1164.17 344.412 1164.63 345.18 1165.2 345.564C1165.8 345.948 1166.76 346.14 1168.08 346.14C1168.99 346.14 1169.64 346.38 1170.03 346.86C1170.43 347.316 1170.64 347.892 1170.64 348.588C1170.64 349.332 1170.39 349.956 1169.88 350.46C1169.38 350.94 1168.66 351.18 1167.72 351.18C1166.74 351.18 1165.87 351.036 1165.13 350.748C1164.39 350.46 1163.79 350.04 1163.33 349.488C1162.9 348.936 1162.62 348.288 1162.5 347.544L1163.83 348.3C1163.69 349.572 1163.27 350.772 1162.57 351.9C1161.9 353.052 1161.03 354.108 1159.95 355.068C1158.87 356.028 1157.65 356.868 1156.31 357.588C1154.97 358.308 1153.57 358.884 1152.13 359.316ZM1159.48 333.54C1158.73 333.54 1158.1 333.288 1157.57 332.784C1157.07 332.28 1156.81 331.656 1156.81 330.912C1156.81 330.168 1157.07 329.532 1157.57 329.004C1158.1 328.476 1158.73 328.212 1159.48 328.212C1160.2 328.212 1160.81 328.476 1161.31 329.004C1161.84 329.532 1162.11 330.168 1162.11 330.912C1162.11 331.656 1161.84 332.28 1161.31 332.784C1160.81 333.288 1160.2 333.54 1159.48 333.54ZM1167.77 351.18L1168.13 346.14C1168.99 346.14 1169.73 346.056 1170.36 345.888C1170.98 345.72 1171.51 345.384 1171.94 344.88C1172.37 344.352 1172.73 343.584 1173.02 342.576C1173.33 341.568 1173.61 340.224 1173.85 338.544L1178.57 339.336C1178.52 339.696 1178.45 340.116 1178.35 340.596C1178.28 341.076 1178.21 341.568 1178.13 342.072C1178.09 342.552 1178.06 343.008 1178.06 343.44C1178.06 343.872 1178.15 344.256 1178.31 344.592C1178.48 344.928 1178.75 345.216 1179.11 345.456C1179.49 345.672 1179.98 345.84 1180.58 345.96C1181.21 346.08 1181.96 346.14 1182.85 346.14C1183.76 346.14 1184.41 346.38 1184.79 346.86C1185.18 347.316 1185.37 347.892 1185.37 348.588C1185.37 349.332 1185.12 349.956 1184.61 350.46C1184.13 350.94 1183.43 351.18 1182.49 351.18C1181.41 351.18 1180.43 351.096 1179.54 350.928C1178.67 350.76 1177.92 350.484 1177.27 350.1C1176.65 349.692 1176.13 349.164 1175.72 348.516C1175.34 347.844 1175.1 347.028 1175 346.068H1176.73C1176.3 347.22 1175.75 348.144 1175.07 348.84C1174.43 349.512 1173.69 350.016 1172.88 350.352C1172.06 350.688 1171.21 350.904 1170.32 351C1169.46 351.12 1168.61 351.18 1167.77 351.18ZM1177.81 359.532C1177.11 359.532 1176.51 359.28 1176.01 358.776C1175.53 358.296 1175.29 357.72 1175.29 357.048C1175.29 356.352 1175.53 355.752 1176.01 355.248C1176.51 354.744 1177.11 354.492 1177.81 354.492C1178.48 354.492 1179.06 354.744 1179.54 355.248C1180.02 355.752 1180.26 356.352 1180.26 357.048C1180.26 357.72 1180.02 358.296 1179.54 358.776C1179.06 359.28 1178.48 359.532 1177.81 359.532ZM1171.58 359.532C1170.89 359.532 1170.29 359.28 1169.78 358.776C1169.3 358.296 1169.06 357.72 1169.06 357.048C1169.06 356.352 1169.3 355.752 1169.78 355.248C1170.29 354.744 1170.89 354.492 1171.58 354.492C1172.25 354.492 1172.83 354.744 1173.31 355.248C1173.79 355.752 1174.03 356.352 1174.03 357.048C1174.03 357.72 1173.79 358.296 1173.31 358.776C1172.83 359.28 1172.25 359.532 1171.58 359.532ZM1182.5 351.18L1182.86 346.14C1183.72 346.14 1184.46 346.056 1185.09 345.888C1185.71 345.72 1186.24 345.384 1186.67 344.88C1187.1 344.352 1187.46 343.584 1187.75 342.576C1188.06 341.568 1188.34 340.224 1188.58 338.544L1193.3 339.336C1193.25 339.696 1193.18 340.116 1193.08 340.596C1193.01 341.076 1192.94 341.568 1192.86 342.072C1192.82 342.552 1192.79 343.008 1192.79 343.44C1192.79 343.872 1192.88 344.256 1193.04 344.592C1193.21 344.928 1193.48 345.216 1193.84 345.456C1194.22 345.672 1194.71 345.84 1195.31 345.96C1195.94 346.08 1196.69 346.14 1197.58 346.14C1198.49 346.14 1199.14 346.38 1199.52 346.86C1199.91 347.316 1200.1 347.892 1200.1 348.588C1200.1 349.332 1199.85 349.956 1199.34 350.46C1198.86 350.94 1198.16 351.18 1197.22 351.18C1196.14 351.18 1195.16 351.096 1194.27 350.928C1193.4 350.76 1192.65 350.484 1192 350.1C1191.38 349.692 1190.86 349.164 1190.45 348.516C1190.07 347.844 1189.83 347.028 1189.73 346.068H1191.46C1191.03 347.22 1190.48 348.144 1189.8 348.84C1189.16 349.512 1188.42 350.016 1187.61 350.352C1186.79 350.688 1185.94 350.904 1185.05 351C1184.19 351.12 1183.34 351.18 1182.5 351.18ZM1192.54 359.532C1191.84 359.532 1191.24 359.28 1190.74 358.776C1190.26 358.296 1190.02 357.72 1190.02 357.048C1190.02 356.352 1190.26 355.752 1190.74 355.248C1191.24 354.744 1191.84 354.492 1192.54 354.492C1193.21 354.492 1193.79 354.744 1194.27 355.248C1194.75 355.752 1194.99 356.352 1194.99 357.048C1194.99 357.72 1194.75 358.296 1194.27 358.776C1193.79 359.28 1193.21 359.532 1192.54 359.532ZM1186.31 359.532C1185.62 359.532 1185.02 359.28 1184.51 358.776C1184.03 358.296 1183.79 357.72 1183.79 357.048C1183.79 356.352 1184.03 355.752 1184.51 355.248C1185.02 354.744 1185.62 354.492 1186.31 354.492C1186.98 354.492 1187.56 354.744 1188.04 355.248C1188.52 355.752 1188.76 356.352 1188.76 357.048C1188.76 357.72 1188.52 358.296 1188.04 358.776C1187.56 359.28 1186.98 359.532 1186.31 359.532ZM1197.23 351.18L1197.59 346.14C1198.19 346.14 1198.64 346.02 1198.95 345.78C1199.27 345.54 1199.58 345.12 1199.89 344.52C1200.2 343.92 1200.63 343.104 1201.19 342.072C1201.79 340.92 1202.41 339.96 1203.06 339.192C1203.71 338.4 1204.35 337.776 1205 337.32C1205.67 336.84 1206.33 336.504 1206.98 336.312C1207.65 336.096 1208.31 335.988 1208.96 335.988C1209.85 335.988 1210.68 336.18 1211.45 336.564C1212.24 336.924 1212.99 337.56 1213.71 338.472C1214.43 339.36 1215.12 340.584 1215.77 342.144C1216.22 343.224 1216.68 344.052 1217.13 344.628C1217.59 345.204 1218.06 345.6 1218.54 345.816C1219.04 346.032 1219.55 346.14 1220.05 346.14C1220.96 346.14 1221.61 346.38 1221.99 346.86C1222.38 347.316 1222.57 347.892 1222.57 348.588C1222.57 349.332 1222.32 349.956 1221.81 350.46C1221.31 350.94 1220.6 351.18 1219.69 351.18C1218.51 351.18 1217.45 350.988 1216.49 350.604C1215.53 350.22 1214.77 349.644 1214.22 348.876L1215.26 348.084C1215.05 348.588 1214.72 349.116 1214.29 349.668C1213.88 350.22 1213.34 350.688 1212.67 351.072C1212.02 351.456 1211.24 351.648 1210.33 351.648C1209.73 351.648 1209.02 351.528 1208.21 351.288C1207.41 351.072 1206.59 350.7 1205.72 350.172C1204.88 349.62 1204.1 348.876 1203.38 347.94C1202.93 348.78 1202.42 349.44 1201.87 349.92C1201.32 350.376 1200.67 350.7 1199.93 350.892C1199.18 351.084 1198.28 351.18 1197.23 351.18ZM1205.47 343.692C1205.71 344.052 1206 344.412 1206.33 344.772C1206.67 345.132 1207.04 345.456 1207.45 345.744C1207.86 346.008 1208.29 346.224 1208.75 346.392C1209.23 346.56 1209.69 346.644 1210.15 346.644C1210.63 346.644 1211.03 346.464 1211.34 346.104C1211.65 345.72 1211.66 345.156 1211.37 344.412C1211.25 344.1 1211.09 343.752 1210.87 343.368C1210.68 342.96 1210.45 342.576 1210.19 342.216C1209.95 341.856 1209.67 341.556 1209.36 341.316C1209.07 341.076 1208.77 340.956 1208.46 340.956C1208.15 340.956 1207.82 341.052 1207.49 341.244C1207.15 341.436 1206.81 341.736 1206.48 342.144C1206.14 342.528 1205.81 343.044 1205.47 343.692ZM1219.69 351.18L1220.05 346.14C1221.49 346.14 1222.6 346.068 1223.36 345.924C1224.13 345.78 1224.66 345.516 1224.95 345.132C1225.26 344.724 1225.42 344.148 1225.42 343.404C1225.42 342.732 1225.32 341.928 1225.13 340.992C1224.96 340.056 1224.73 339.084 1224.44 338.076C1224.18 337.068 1223.89 336.144 1223.58 335.304L1228.55 333.936C1228.86 334.752 1229.16 335.7 1229.45 336.78C1229.74 337.86 1229.98 338.976 1230.17 340.128C1230.36 341.256 1230.46 342.348 1230.46 343.404C1230.46 345.036 1230.19 346.368 1229.66 347.4C1229.14 348.408 1228.39 349.188 1227.43 349.74C1226.5 350.292 1225.37 350.676 1224.05 350.892C1222.73 351.084 1221.28 351.18 1219.69 351.18ZM1229.45 331.02C1228.75 331.02 1228.15 330.78 1227.65 330.3C1227.17 329.796 1226.93 329.208 1226.93 328.536C1226.93 327.84 1227.17 327.24 1227.65 326.736C1228.15 326.232 1228.75 325.98 1229.45 325.98C1230.12 325.98 1230.7 326.232 1231.18 326.736C1231.66 327.24 1231.9 327.84 1231.9 328.536C1231.9 329.208 1231.66 329.796 1231.18 330.3C1230.7 330.78 1230.12 331.02 1229.45 331.02ZM1223.22 330.984C1222.52 330.984 1221.92 330.744 1221.42 330.264C1220.94 329.76 1220.7 329.172 1220.7 328.5C1220.7 327.804 1220.94 327.204 1221.42 326.7C1221.92 326.196 1222.52 325.944 1223.22 325.944C1223.89 325.944 1224.47 326.196 1224.95 326.7C1225.43 327.204 1225.67 327.804 1225.67 328.5C1225.67 329.172 1225.43 329.76 1224.95 330.264C1224.47 330.744 1223.89 330.984 1223.22 330.984ZM1242.53 349.992C1242.53 349.44 1242.58 348.792 1242.67 348.048C1242.77 347.304 1242.95 346.464 1243.21 345.528C1243.48 344.568 1243.87 343.5 1244.4 342.324L1248.83 343.872C1248.57 344.616 1248.34 345.3 1248.15 345.924C1247.95 346.524 1247.81 347.088 1247.71 347.616C1247.62 348.12 1247.57 348.624 1247.57 349.128C1247.57 349.92 1247.74 350.628 1248.07 351.252C1248.43 351.9 1248.95 352.44 1249.62 352.872C1250.29 353.328 1251.11 353.676 1252.07 353.916C1253.05 354.156 1254.18 354.276 1255.45 354.276C1256.77 354.276 1257.95 354.216 1258.98 354.096C1260.04 353.976 1260.93 353.796 1261.65 353.556C1262.39 353.316 1262.95 353.004 1263.34 352.62C1263.72 352.26 1263.91 351.84 1263.91 351.36C1263.91 351.144 1263.83 350.94 1263.66 350.748C1263.52 350.556 1263.27 350.352 1262.91 350.136C1262.57 349.92 1262.11 349.692 1261.54 349.452C1260.99 349.212 1260.31 348.948 1259.52 348.66L1260.71 343.584C1261.74 344.016 1262.71 344.4 1263.63 344.736C1264.56 345.048 1265.45 345.312 1266.29 345.528C1267.13 345.72 1267.92 345.876 1268.67 345.996C1269.41 346.092 1270.11 346.14 1270.75 346.14C1271.67 346.14 1272.31 346.38 1272.7 346.86C1273.08 347.316 1273.27 347.892 1273.27 348.588C1273.27 349.332 1273.02 349.956 1272.52 350.46C1272.01 350.94 1271.31 351.18 1270.39 351.18C1270.2 351.18 1270.01 351.18 1269.82 351.18C1269.65 351.18 1269.47 351.18 1269.28 351.18C1269.11 351.18 1268.93 351.18 1268.74 351.18C1268.79 351.42 1268.81 351.624 1268.81 351.792C1268.81 351.984 1268.81 352.164 1268.81 352.332C1268.81 353.124 1268.53 353.928 1267.98 354.744C1267.45 355.56 1266.63 356.316 1265.5 357.012C1264.37 357.708 1262.93 358.26 1261.18 358.668C1259.45 359.1 1257.39 359.316 1254.99 359.316C1252.39 359.316 1250.16 358.98 1248.29 358.308C1246.44 357.66 1245.01 356.64 1244.01 355.248C1243.02 353.88 1242.53 352.128 1242.53 349.992ZM1270.39 351.18L1270.75 346.14C1271.8 346.14 1272.63 346.068 1273.23 345.924C1273.85 345.78 1274.3 345.516 1274.56 345.132C1274.83 344.724 1274.96 344.148 1274.96 343.404C1274.96 342.732 1274.86 341.928 1274.67 340.992C1274.5 340.056 1274.27 339.084 1273.99 338.076C1273.7 337.068 1273.41 336.144 1273.12 335.304L1278.09 333.936C1278.38 334.752 1278.67 335.7 1278.95 336.78C1279.24 337.86 1279.48 338.976 1279.67 340.128C1279.89 341.256 1280 342.348 1280 343.404C1280 344.724 1279.83 345.84 1279.49 346.752C1279.16 347.64 1278.69 348.384 1278.09 348.984C1277.51 349.56 1276.82 350.016 1276 350.352C1275.21 350.664 1274.33 350.88 1273.37 351C1272.41 351.12 1271.42 351.18 1270.39 351.18ZM1275.57 330.948C1274.83 330.948 1274.19 330.696 1273.66 330.192C1273.16 329.688 1272.91 329.064 1272.91 328.32C1272.91 327.576 1273.16 326.94 1273.66 326.412C1274.19 325.884 1274.83 325.62 1275.57 325.62C1276.29 325.62 1276.9 325.884 1277.41 326.412C1277.93 326.94 1278.2 327.576 1278.2 328.32C1278.2 329.064 1277.93 329.688 1277.41 330.192C1276.9 330.696 1276.29 330.948 1275.57 330.948ZM1284.69 351L1283.94 324.648H1288.98L1289.73 351H1284.69ZM1291.32 359.316L1289.48 354.852C1290.75 354.42 1291.92 353.916 1292.97 353.34C1294.05 352.764 1294.99 352.128 1295.78 351.432C1296.57 350.736 1297.19 349.98 1297.62 349.164C1298.05 348.324 1298.27 347.424 1298.27 346.464C1298.27 345.456 1298.04 344.352 1297.58 343.152C1297.13 341.952 1296.57 340.728 1295.93 339.48L1300.64 337.212C1301.07 337.956 1301.45 338.76 1301.76 339.624C1302.09 340.464 1302.37 341.22 1302.59 341.892C1302.8 342.564 1302.95 343.02 1303.02 343.26C1303.35 344.412 1303.81 345.18 1304.39 345.564C1304.99 345.948 1305.95 346.14 1307.27 346.14C1308.18 346.14 1308.83 346.38 1309.21 346.86C1309.62 347.316 1309.82 347.892 1309.82 348.588C1309.82 349.332 1309.57 349.956 1309.07 350.46C1308.56 350.94 1307.84 351.18 1306.91 351.18C1305.92 351.18 1305.06 351.036 1304.31 350.748C1303.57 350.46 1302.97 350.04 1302.51 349.488C1302.08 348.936 1301.81 348.288 1301.69 347.544L1303.02 348.3C1302.87 349.572 1302.45 350.772 1301.76 351.9C1301.09 353.052 1300.21 354.108 1299.13 355.068C1298.05 356.028 1296.84 356.868 1295.49 357.588C1294.15 358.308 1292.76 358.884 1291.32 359.316ZM1307.24 329.94L1305.47 326.988C1306.65 326.292 1307.86 325.596 1309.11 324.9C1310.36 324.18 1311.75 323.412 1313.29 322.596C1314.85 321.756 1316.67 320.808 1318.76 319.752L1320.41 322.92C1318.28 323.952 1316.43 324.876 1314.87 325.692C1313.33 326.508 1311.95 327.264 1310.73 327.96C1309.53 328.632 1308.37 329.292 1307.24 329.94ZM1306.95 351.18L1307.31 346.14H1312.35C1313.19 346.14 1313.83 346.092 1314.26 345.996C1314.71 345.9 1315.03 345.756 1315.19 345.564C1315.36 345.348 1315.45 345.096 1315.45 344.808C1315.45 344.376 1315.25 343.872 1314.87 343.296C1314.51 342.72 1314.03 342.12 1313.43 341.496C1312.85 340.872 1312.24 340.248 1311.59 339.624C1310.95 338.976 1310.32 338.376 1309.72 337.824C1309.15 337.272 1308.67 336.792 1308.28 336.384C1307.92 335.952 1307.74 335.64 1307.74 335.448C1307.74 334.776 1307.78 334.248 1307.85 333.864C1307.92 333.456 1308.02 333.132 1308.14 332.892C1308.28 332.652 1308.44 332.448 1308.61 332.28C1309.01 331.872 1309.63 331.416 1310.44 330.912C1311.26 330.384 1312.22 329.832 1313.32 329.256C1314.45 328.656 1315.71 328.032 1317.1 327.384C1318.49 326.712 1319.97 326.016 1321.53 325.296L1323.58 329.688C1322 330.384 1320.58 331.032 1319.33 331.632C1318.11 332.208 1317.01 332.748 1316.02 333.252C1315.06 333.732 1314.2 334.188 1313.43 334.62C1312.69 335.052 1312.01 335.46 1311.41 335.844L1311.77 333.18C1312.81 334.068 1313.74 334.908 1314.58 335.7C1315.42 336.492 1316.2 337.284 1316.92 338.076C1317.64 338.868 1318.31 339.684 1318.94 340.524C1319.59 341.364 1320.21 342.276 1320.81 343.26C1321.34 344.1 1321.88 344.724 1322.43 345.132C1323.01 345.54 1323.56 345.816 1324.09 345.96C1324.64 346.08 1325.13 346.14 1325.56 346.14C1326.47 346.14 1327.12 346.38 1327.51 346.86C1327.91 347.316 1328.12 347.892 1328.12 348.588C1328.12 349.332 1327.87 349.956 1327.36 350.46C1326.86 350.94 1326.14 351.18 1325.2 351.18C1324.41 351.18 1323.56 351.048 1322.65 350.784C1321.73 350.496 1320.88 350.04 1320.09 349.416C1319.3 348.792 1318.7 347.94 1318.29 346.86L1320.23 347.004C1319.87 347.772 1319.44 348.432 1318.94 348.984C1318.46 349.512 1317.88 349.944 1317.21 350.28C1316.54 350.592 1315.77 350.82 1314.91 350.964C1314.04 351.108 1313.07 351.18 1311.99 351.18H1306.95ZM1325.23 351.18L1325.59 346.14C1326.45 346.14 1327.2 346.056 1327.82 345.888C1328.45 345.72 1328.97 345.384 1329.41 344.88C1329.84 344.352 1330.2 343.584 1330.49 342.576C1330.8 341.568 1331.07 340.224 1331.31 338.544L1336.03 339.336C1335.98 339.696 1335.91 340.116 1335.81 340.596C1335.74 341.076 1335.67 341.568 1335.6 342.072C1335.55 342.552 1335.53 343.008 1335.53 343.44C1335.53 343.872 1335.61 344.256 1335.78 344.592C1335.95 344.928 1336.21 345.216 1336.57 345.456C1336.95 345.672 1337.45 345.84 1338.05 345.96C1338.67 346.08 1339.43 346.14 1340.31 346.14C1341.23 346.14 1341.87 346.38 1342.26 346.86C1342.64 347.316 1342.83 347.892 1342.83 348.588C1342.83 349.332 1342.58 349.956 1342.08 350.46C1341.6 350.94 1340.89 351.18 1339.95 351.18C1338.87 351.18 1337.89 351.096 1337 350.928C1336.14 350.76 1335.38 350.484 1334.73 350.1C1334.11 349.692 1333.59 349.164 1333.19 348.516C1332.8 347.844 1332.56 347.028 1332.47 346.068H1334.19C1333.76 347.22 1333.21 348.144 1332.54 348.84C1331.89 349.512 1331.16 350.016 1330.34 350.352C1329.53 350.688 1328.67 350.904 1327.79 351C1326.92 351.12 1326.07 351.18 1325.23 351.18ZM1335.27 359.532C1334.58 359.532 1333.98 359.28 1333.47 358.776C1332.99 358.296 1332.75 357.72 1332.75 357.048C1332.75 356.352 1332.99 355.752 1333.47 355.248C1333.98 354.744 1334.58 354.492 1335.27 354.492C1335.95 354.492 1336.52 354.744 1337 355.248C1337.48 355.752 1337.72 356.352 1337.72 357.048C1337.72 357.72 1337.48 358.296 1337 358.776C1336.52 359.28 1335.95 359.532 1335.27 359.532ZM1329.05 359.532C1328.35 359.532 1327.75 359.28 1327.25 358.776C1326.77 358.296 1326.53 357.72 1326.53 357.048C1326.53 356.352 1326.77 355.752 1327.25 355.248C1327.75 354.744 1328.35 354.492 1329.05 354.492C1329.72 354.492 1330.29 354.744 1330.77 355.248C1331.25 355.752 1331.49 356.352 1331.49 357.048C1331.49 357.72 1331.25 358.296 1330.77 358.776C1330.29 359.28 1329.72 359.532 1329.05 359.532ZM1339.96 351.18L1340.32 346.14C1341.76 346.14 1342.86 346.068 1343.63 345.924C1344.4 345.78 1344.93 345.516 1345.22 345.132C1345.53 344.724 1345.68 344.148 1345.68 343.404C1345.68 342.732 1345.59 341.928 1345.4 340.992C1345.23 340.056 1345 339.084 1344.71 338.076C1344.45 337.068 1344.16 336.144 1343.85 335.304L1348.82 333.936C1349.13 334.752 1349.43 335.7 1349.72 336.78C1350 337.86 1350.24 338.976 1350.44 340.128C1350.63 341.256 1350.72 342.348 1350.72 343.404C1350.72 345.036 1350.46 346.368 1349.93 347.4C1349.4 348.408 1348.66 349.188 1347.7 349.74C1346.76 350.292 1345.64 350.676 1344.32 350.892C1343 351.084 1341.54 351.18 1339.96 351.18ZM1345.4 363.168C1344.8 363.168 1344.29 362.964 1343.88 362.556C1343.5 362.148 1343.31 361.656 1343.31 361.08C1343.31 360.48 1343.5 359.964 1343.88 359.532C1344.29 359.1 1344.8 358.884 1345.4 358.884C1345.97 358.884 1346.46 359.1 1346.87 359.532C1347.28 359.964 1347.48 360.48 1347.48 361.08C1347.48 361.656 1347.28 362.148 1346.87 362.556C1346.46 362.964 1345.97 363.168 1345.4 363.168ZM1348.17 358.524C1347.57 358.524 1347.06 358.32 1346.66 357.912C1346.27 357.504 1346.08 357.012 1346.08 356.436C1346.08 355.836 1346.27 355.32 1346.66 354.888C1347.06 354.456 1347.57 354.24 1348.17 354.24C1348.74 354.24 1349.24 354.456 1349.64 354.888C1350.05 355.32 1350.26 355.836 1350.26 356.436C1350.26 357.012 1350.05 357.504 1349.64 357.912C1349.24 358.32 1348.74 358.524 1348.17 358.524ZM1342.77 358.524C1342.17 358.524 1341.66 358.32 1341.26 357.912C1340.85 357.504 1340.64 357.012 1340.64 356.436C1340.64 355.836 1340.85 355.32 1341.26 354.888C1341.66 354.456 1342.17 354.24 1342.77 354.24C1343.32 354.24 1343.8 354.456 1344.21 354.888C1344.64 355.32 1344.86 355.836 1344.86 356.436C1344.86 357.012 1344.64 357.504 1344.21 357.912C1343.8 358.32 1343.32 358.524 1342.77 358.524Z" fill="white"/>
<path d="M1100.4 511.515C1104.86 503.78 1104.86 494.25 1100.4 486.515L1025.53 356.838C1021.06 349.103 1012.81 344.338 1003.88 344.338H854.139C845.207 344.338 836.954 349.103 832.488 356.838L757.619 486.515C753.153 494.25 753.153 503.78 757.619 511.515L832.488 641.193C836.954 648.928 845.207 653.693 854.139 653.693H1003.88C1012.81 653.693 1021.06 648.928 1025.53 641.193L1100.4 511.515Z" fill="#89C958" fill-opacity="0.78"/>
</g>
<defs>
<clipPath id="clip0_1599_826">
<rect width="1440" height="567" fill="white" transform="matrix(-1 0 0 1 1440 0)"/>
</clipPath>
</defs>
</svg>
