<svg width="1440" height="567" viewBox="0 0 1440 567" fill="none" xmlns="http://www.w3.org/2000/svg">
<g clip-path="url(#clip0_1599_746)">
<path d="M-216.783 191.106C-221.249 183.371 -221.249 173.841 -216.783 166.106L-141.914 36.4287C-137.448 28.6937 -129.195 23.9287 -120.263 23.9287H29.4753C38.407 23.9287 46.6602 28.6937 51.126 36.4287L125.996 166.106C130.461 173.841 130.461 183.371 125.996 191.106L51.126 320.784C46.6601 328.519 38.407 333.284 29.4753 333.284H-120.263C-129.195 333.284 -137.448 328.519 -141.914 320.784L-216.783 191.106Z" fill="#89C958" fill-opacity="0.78"/>
<path d="M61.4099 671.719C56.9441 663.984 56.9441 654.454 61.4099 646.719L136.28 517.042C140.745 509.307 148.999 504.542 157.93 504.542H307.669C316.601 504.542 324.854 509.307 329.32 517.042L404.189 646.719C408.655 654.454 408.655 663.984 404.189 671.719L329.32 801.397C324.854 809.132 316.601 813.897 307.669 813.897H157.93C148.999 813.897 140.745 809.132 136.28 801.397L61.4099 671.719Z" fill="#89C958" fill-opacity="0.78"/>
<path d="M-216.783 511.515C-221.249 503.78 -221.249 494.25 -216.783 486.515L-141.914 356.838C-137.448 349.103 -129.195 344.338 -120.263 344.338H29.4753C38.407 344.338 46.6602 349.103 51.126 356.838L125.996 486.515C130.461 494.25 130.461 503.78 125.996 511.515L51.126 641.193C46.6601 648.928 38.407 653.693 29.4753 653.693H-120.263C-129.195 653.693 -137.448 648.928 -141.914 641.193L-216.783 511.515Z" fill="#89C958" fill-opacity="0.78"/>
<path d="M617.797 671.719C613.331 663.984 613.331 654.454 617.797 646.719L692.666 517.042C697.132 509.307 705.385 504.542 714.317 504.542H864.056C872.987 504.542 881.241 509.307 885.706 517.042L960.576 646.719C965.042 654.454 965.042 663.984 960.576 671.719L885.706 801.397C881.241 809.132 872.987 813.897 864.056 813.897H714.317C705.385 813.897 697.132 809.132 692.666 801.397L617.797 671.719Z" fill="#89C958" fill-opacity="0.78"/>
<path d="M895.987 511.515C891.522 503.78 891.522 494.25 895.987 486.515L970.857 356.838C975.323 349.103 983.576 344.338 992.507 344.338H1142.25C1151.18 344.338 1159.43 349.103 1163.9 356.838L1238.77 486.515C1243.23 494.25 1243.23 503.78 1238.77 511.515L1163.9 641.193C1159.43 648.928 1151.18 653.693 1142.25 653.693H992.507C983.576 653.693 975.323 648.928 970.857 641.193L895.987 511.515Z" fill="#89C958" fill-opacity="0.78"/>
<path d="M1174.18 671.719C1169.71 663.984 1169.71 654.454 1174.18 646.719L1249.05 517.042C1253.52 509.307 1261.77 504.542 1270.7 504.542H1420.44C1429.37 504.542 1437.62 509.307 1442.09 517.042L1516.96 646.719C1521.43 654.454 1521.43 663.984 1516.96 671.719L1442.09 801.397C1437.62 809.132 1429.37 813.897 1420.44 813.897H1270.7C1261.77 813.897 1253.52 809.132 1249.05 801.397L1174.18 671.719Z" fill="#89C958" fill-opacity="0.78"/>
<path d="M61.4099 351.311C56.9441 343.576 56.9441 334.046 61.4099 326.311L136.28 196.633C140.745 188.898 148.999 184.133 157.93 184.133H307.669C316.601 184.133 324.854 188.898 329.32 196.633L404.189 326.311C408.655 334.046 408.655 343.576 404.189 351.311L329.32 480.988C324.854 488.723 316.601 493.488 307.669 493.488H157.93C148.999 493.488 140.745 488.723 136.28 480.988L61.4099 351.311Z" fill="#89C958" fill-opacity="0.78"/>
<path d="M144.074 301.566H149.914C149.797 303.48 149.27 305.18 148.332 306.664C147.408 308.148 146.112 309.307 144.445 310.141C142.792 310.974 140.799 311.391 138.469 311.391C136.646 311.391 135.012 311.078 133.566 310.453C132.121 309.815 130.884 308.904 129.855 307.719C128.84 306.534 128.065 305.102 127.531 303.422C126.997 301.742 126.73 299.861 126.73 297.777V295.805C126.73 293.721 127.004 291.84 127.551 290.16C128.111 288.467 128.905 287.029 129.934 285.844C130.975 284.659 132.219 283.747 133.664 283.109C135.109 282.471 136.724 282.152 138.508 282.152C140.878 282.152 142.876 282.582 144.504 283.441C146.145 284.301 147.414 285.486 148.312 286.996C149.224 288.507 149.771 290.225 149.953 292.152H144.094C144.029 291.007 143.801 290.036 143.41 289.242C143.02 288.435 142.427 287.829 141.633 287.426C140.852 287.009 139.81 286.801 138.508 286.801C137.531 286.801 136.678 286.983 135.949 287.348C135.22 287.712 134.608 288.266 134.113 289.008C133.618 289.75 133.247 290.688 133 291.82C132.766 292.94 132.648 294.255 132.648 295.766V297.777C132.648 299.249 132.759 300.544 132.98 301.664C133.202 302.771 133.54 303.708 133.996 304.477C134.465 305.232 135.064 305.805 135.793 306.195C136.535 306.573 137.427 306.762 138.469 306.762C139.693 306.762 140.702 306.566 141.496 306.176C142.29 305.785 142.896 305.206 143.312 304.438C143.742 303.669 143.996 302.712 144.074 301.566ZM152.512 300.648V300.238C152.512 298.689 152.733 297.263 153.176 295.961C153.618 294.646 154.263 293.507 155.109 292.543C155.956 291.579 156.997 290.831 158.234 290.297C159.471 289.75 160.891 289.477 162.492 289.477C164.094 289.477 165.52 289.75 166.77 290.297C168.02 290.831 169.068 291.579 169.914 292.543C170.773 293.507 171.424 294.646 171.867 295.961C172.31 297.263 172.531 298.689 172.531 300.238V300.648C172.531 302.185 172.31 303.611 171.867 304.926C171.424 306.228 170.773 307.367 169.914 308.344C169.068 309.307 168.026 310.056 166.789 310.59C165.552 311.124 164.133 311.391 162.531 311.391C160.93 311.391 159.504 311.124 158.254 310.59C157.017 310.056 155.969 309.307 155.109 308.344C154.263 307.367 153.618 306.228 153.176 304.926C152.733 303.611 152.512 302.185 152.512 300.648ZM158.137 300.238V300.648C158.137 301.534 158.215 302.361 158.371 303.129C158.527 303.897 158.775 304.574 159.113 305.16C159.465 305.733 159.921 306.182 160.48 306.508C161.04 306.833 161.724 306.996 162.531 306.996C163.312 306.996 163.983 306.833 164.543 306.508C165.103 306.182 165.552 305.733 165.891 305.16C166.229 304.574 166.477 303.897 166.633 303.129C166.802 302.361 166.887 301.534 166.887 300.648V300.238C166.887 299.379 166.802 298.572 166.633 297.816C166.477 297.048 166.223 296.371 165.871 295.785C165.533 295.186 165.083 294.717 164.523 294.379C163.964 294.04 163.286 293.871 162.492 293.871C161.698 293.871 161.021 294.04 160.461 294.379C159.914 294.717 159.465 295.186 159.113 295.785C158.775 296.371 158.527 297.048 158.371 297.816C158.215 298.572 158.137 299.379 158.137 300.238ZM187.395 306.234V296.82C187.395 296.143 187.284 295.564 187.062 295.082C186.841 294.587 186.496 294.203 186.027 293.93C185.572 293.656 184.979 293.52 184.25 293.52C183.625 293.52 183.085 293.63 182.629 293.852C182.173 294.06 181.822 294.366 181.574 294.77C181.327 295.16 181.203 295.622 181.203 296.156H175.578C175.578 295.258 175.786 294.405 176.203 293.598C176.62 292.79 177.225 292.081 178.02 291.469C178.814 290.844 179.758 290.355 180.852 290.004C181.958 289.652 183.195 289.477 184.562 289.477C186.203 289.477 187.661 289.75 188.938 290.297C190.214 290.844 191.216 291.664 191.945 292.758C192.688 293.852 193.059 295.219 193.059 296.859V305.902C193.059 307.061 193.13 308.012 193.273 308.754C193.417 309.483 193.625 310.121 193.898 310.668V311H188.215C187.941 310.427 187.733 309.711 187.59 308.852C187.46 307.979 187.395 307.107 187.395 306.234ZM188.137 298.129L188.176 301.312H185.031C184.289 301.312 183.645 301.397 183.098 301.566C182.551 301.736 182.102 301.977 181.75 302.289C181.398 302.589 181.138 302.94 180.969 303.344C180.812 303.747 180.734 304.19 180.734 304.672C180.734 305.154 180.845 305.59 181.066 305.98C181.288 306.358 181.607 306.658 182.023 306.879C182.44 307.087 182.928 307.191 183.488 307.191C184.335 307.191 185.07 307.022 185.695 306.684C186.32 306.345 186.802 305.928 187.141 305.434C187.492 304.939 187.674 304.47 187.688 304.027L189.172 306.41C188.964 306.944 188.677 307.497 188.312 308.07C187.961 308.643 187.512 309.184 186.965 309.691C186.418 310.186 185.76 310.596 184.992 310.922C184.224 311.234 183.312 311.391 182.258 311.391C180.917 311.391 179.699 311.124 178.605 310.59C177.525 310.043 176.665 309.294 176.027 308.344C175.402 307.38 175.09 306.286 175.09 305.062C175.09 303.956 175.298 302.973 175.715 302.113C176.132 301.254 176.743 300.531 177.551 299.945C178.371 299.346 179.393 298.897 180.617 298.598C181.841 298.285 183.26 298.129 184.875 298.129H188.137ZM207.746 289.867V293.852H195.441V289.867H207.746ZM198.488 284.652H204.113V304.633C204.113 305.245 204.191 305.714 204.348 306.039C204.517 306.365 204.764 306.592 205.09 306.723C205.415 306.84 205.826 306.898 206.32 306.898C206.672 306.898 206.984 306.885 207.258 306.859C207.544 306.82 207.785 306.781 207.98 306.742L208 310.883C207.518 311.039 206.997 311.163 206.438 311.254C205.878 311.345 205.259 311.391 204.582 311.391C203.345 311.391 202.264 311.189 201.34 310.785C200.428 310.368 199.725 309.704 199.23 308.793C198.736 307.882 198.488 306.684 198.488 305.199V284.652ZM216.887 289.867V311H211.242V289.867H216.887ZM210.891 284.359C210.891 283.539 211.177 282.862 211.75 282.328C212.323 281.794 213.091 281.527 214.055 281.527C215.005 281.527 215.767 281.794 216.34 282.328C216.926 282.862 217.219 283.539 217.219 284.359C217.219 285.18 216.926 285.857 216.34 286.391C215.767 286.924 215.005 287.191 214.055 287.191C213.091 287.191 212.323 286.924 211.75 286.391C211.177 285.857 210.891 285.18 210.891 284.359ZM227.043 294.379V311H221.418V289.867H226.691L227.043 294.379ZM226.223 299.691H224.699C224.699 298.129 224.901 296.723 225.305 295.473C225.708 294.21 226.275 293.135 227.004 292.25C227.733 291.352 228.599 290.668 229.602 290.199C230.617 289.717 231.75 289.477 233 289.477C233.99 289.477 234.895 289.62 235.715 289.906C236.535 290.193 237.238 290.648 237.824 291.273C238.423 291.898 238.879 292.725 239.191 293.754C239.517 294.783 239.68 296.039 239.68 297.523V311H234.016V297.504C234.016 296.566 233.885 295.837 233.625 295.316C233.365 294.796 232.98 294.431 232.473 294.223C231.978 294.001 231.366 293.891 230.637 293.891C229.882 293.891 229.224 294.04 228.664 294.34C228.117 294.639 227.661 295.056 227.297 295.59C226.945 296.111 226.678 296.723 226.496 297.426C226.314 298.129 226.223 298.884 226.223 299.691ZM257.336 289.867H262.434V310.297C262.434 312.224 262.004 313.858 261.145 315.199C260.298 316.553 259.113 317.576 257.59 318.266C256.066 318.969 254.296 319.32 252.277 319.32C251.392 319.32 250.454 319.203 249.465 318.969C248.488 318.734 247.551 318.37 246.652 317.875C245.767 317.38 245.025 316.755 244.426 316L246.906 312.68C247.557 313.435 248.312 314.021 249.172 314.438C250.031 314.867 250.982 315.082 252.023 315.082C253.039 315.082 253.898 314.893 254.602 314.516C255.305 314.151 255.845 313.611 256.223 312.895C256.6 312.191 256.789 311.339 256.789 310.336V294.75L257.336 289.867ZM243.117 300.688V300.277C243.117 298.663 243.312 297.198 243.703 295.883C244.107 294.555 244.673 293.415 245.402 292.465C246.145 291.514 247.043 290.779 248.098 290.258C249.152 289.737 250.344 289.477 251.672 289.477C253.078 289.477 254.257 289.737 255.207 290.258C256.158 290.779 256.939 291.521 257.551 292.484C258.163 293.435 258.638 294.561 258.977 295.863C259.328 297.152 259.602 298.565 259.797 300.102V301C259.602 302.471 259.309 303.839 258.918 305.102C258.527 306.365 258.013 307.471 257.375 308.422C256.737 309.359 255.943 310.089 254.992 310.609C254.055 311.13 252.935 311.391 251.633 311.391C250.331 311.391 249.152 311.124 248.098 310.59C247.056 310.056 246.164 309.307 245.422 308.344C244.68 307.38 244.107 306.247 243.703 304.945C243.312 303.643 243.117 302.224 243.117 300.688ZM248.742 300.277V300.688C248.742 301.56 248.827 302.374 248.996 303.129C249.165 303.884 249.426 304.555 249.777 305.141C250.142 305.714 250.591 306.163 251.125 306.488C251.672 306.801 252.316 306.957 253.059 306.957C254.087 306.957 254.927 306.742 255.578 306.312C256.229 305.87 256.717 305.264 257.043 304.496C257.368 303.728 257.557 302.842 257.609 301.84V299.281C257.583 298.461 257.473 297.725 257.277 297.074C257.082 296.41 256.809 295.844 256.457 295.375C256.105 294.906 255.65 294.542 255.09 294.281C254.53 294.021 253.866 293.891 253.098 293.891C252.355 293.891 251.711 294.06 251.164 294.398C250.63 294.724 250.181 295.173 249.816 295.746C249.465 296.319 249.198 296.996 249.016 297.777C248.833 298.546 248.742 299.379 248.742 300.277ZM288.176 306.234V296.82C288.176 296.143 288.065 295.564 287.844 295.082C287.622 294.587 287.277 294.203 286.809 293.93C286.353 293.656 285.76 293.52 285.031 293.52C284.406 293.52 283.866 293.63 283.41 293.852C282.954 294.06 282.603 294.366 282.355 294.77C282.108 295.16 281.984 295.622 281.984 296.156H276.359C276.359 295.258 276.568 294.405 276.984 293.598C277.401 292.79 278.007 292.081 278.801 291.469C279.595 290.844 280.539 290.355 281.633 290.004C282.74 289.652 283.977 289.477 285.344 289.477C286.984 289.477 288.443 289.75 289.719 290.297C290.995 290.844 291.997 291.664 292.727 292.758C293.469 293.852 293.84 295.219 293.84 296.859V305.902C293.84 307.061 293.911 308.012 294.055 308.754C294.198 309.483 294.406 310.121 294.68 310.668V311H288.996C288.723 310.427 288.514 309.711 288.371 308.852C288.241 307.979 288.176 307.107 288.176 306.234ZM288.918 298.129L288.957 301.312H285.812C285.07 301.312 284.426 301.397 283.879 301.566C283.332 301.736 282.883 301.977 282.531 302.289C282.18 302.589 281.919 302.94 281.75 303.344C281.594 303.747 281.516 304.19 281.516 304.672C281.516 305.154 281.626 305.59 281.848 305.98C282.069 306.358 282.388 306.658 282.805 306.879C283.221 307.087 283.71 307.191 284.27 307.191C285.116 307.191 285.852 307.022 286.477 306.684C287.102 306.345 287.583 305.928 287.922 305.434C288.273 304.939 288.456 304.47 288.469 304.027L289.953 306.41C289.745 306.944 289.458 307.497 289.094 308.07C288.742 308.643 288.293 309.184 287.746 309.691C287.199 310.186 286.542 310.596 285.773 310.922C285.005 311.234 284.094 311.391 283.039 311.391C281.698 311.391 280.48 311.124 279.387 310.59C278.306 310.043 277.447 309.294 276.809 308.344C276.184 307.38 275.871 306.286 275.871 305.062C275.871 303.956 276.079 302.973 276.496 302.113C276.913 301.254 277.525 300.531 278.332 299.945C279.152 299.346 280.174 298.897 281.398 298.598C282.622 298.285 284.042 298.129 285.656 298.129H288.918ZM303.684 294.379V311H298.059V289.867H303.332L303.684 294.379ZM302.863 299.691H301.34C301.34 298.129 301.542 296.723 301.945 295.473C302.349 294.21 302.915 293.135 303.645 292.25C304.374 291.352 305.24 290.668 306.242 290.199C307.258 289.717 308.391 289.477 309.641 289.477C310.63 289.477 311.535 289.62 312.355 289.906C313.176 290.193 313.879 290.648 314.465 291.273C315.064 291.898 315.52 292.725 315.832 293.754C316.158 294.783 316.32 296.039 316.32 297.523V311H310.656V297.504C310.656 296.566 310.526 295.837 310.266 295.316C310.005 294.796 309.621 294.431 309.113 294.223C308.618 294.001 308.007 293.891 307.277 293.891C306.522 293.891 305.865 294.04 305.305 294.34C304.758 294.639 304.302 295.056 303.938 295.59C303.586 296.111 303.319 296.723 303.137 297.426C302.954 298.129 302.863 298.884 302.863 299.691ZM333.078 306.391V281H338.742V311H333.645L333.078 306.391ZM319.719 300.688V300.277C319.719 298.663 319.901 297.198 320.266 295.883C320.63 294.555 321.164 293.415 321.867 292.465C322.57 291.514 323.436 290.779 324.465 290.258C325.493 289.737 326.665 289.477 327.98 289.477C329.217 289.477 330.298 289.737 331.223 290.258C332.16 290.779 332.954 291.521 333.605 292.484C334.27 293.435 334.803 294.561 335.207 295.863C335.611 297.152 335.904 298.565 336.086 300.102V301C335.904 302.471 335.611 303.839 335.207 305.102C334.803 306.365 334.27 307.471 333.605 308.422C332.954 309.359 332.16 310.089 331.223 310.609C330.285 311.13 329.191 311.391 327.941 311.391C326.626 311.391 325.454 311.124 324.426 310.59C323.41 310.056 322.551 309.307 321.848 308.344C321.158 307.38 320.63 306.247 320.266 304.945C319.901 303.643 319.719 302.224 319.719 300.688ZM325.344 300.277V300.688C325.344 301.56 325.409 302.374 325.539 303.129C325.682 303.884 325.91 304.555 326.223 305.141C326.548 305.714 326.965 306.163 327.473 306.488C327.993 306.801 328.625 306.957 329.367 306.957C330.331 306.957 331.125 306.742 331.75 306.312C332.375 305.87 332.85 305.264 333.176 304.496C333.514 303.728 333.71 302.842 333.762 301.84V299.281C333.723 298.461 333.605 297.725 333.41 297.074C333.228 296.41 332.954 295.844 332.59 295.375C332.238 294.906 331.796 294.542 331.262 294.281C330.741 294.021 330.122 293.891 329.406 293.891C328.677 293.891 328.052 294.06 327.531 294.398C327.01 294.724 326.587 295.173 326.262 295.746C325.949 296.319 325.715 296.996 325.559 297.777C325.415 298.546 325.344 299.379 325.344 300.277ZM171.965 348.566H177.805C177.688 350.48 177.16 352.18 176.223 353.664C175.298 355.148 174.003 356.307 172.336 357.141C170.682 357.974 168.69 358.391 166.359 358.391C164.536 358.391 162.902 358.078 161.457 357.453C160.012 356.815 158.775 355.904 157.746 354.719C156.73 353.534 155.956 352.102 155.422 350.422C154.888 348.742 154.621 346.861 154.621 344.777V342.805C154.621 340.721 154.895 338.84 155.441 337.16C156.001 335.467 156.796 334.029 157.824 332.844C158.866 331.659 160.109 330.747 161.555 330.109C163 329.471 164.615 329.152 166.398 329.152C168.768 329.152 170.767 329.582 172.395 330.441C174.035 331.301 175.305 332.486 176.203 333.996C177.115 335.507 177.661 337.225 177.844 339.152H171.984C171.919 338.007 171.691 337.036 171.301 336.242C170.91 335.435 170.318 334.829 169.523 334.426C168.742 334.009 167.701 333.801 166.398 333.801C165.422 333.801 164.569 333.983 163.84 334.348C163.111 334.712 162.499 335.266 162.004 336.008C161.509 336.75 161.138 337.688 160.891 338.82C160.656 339.94 160.539 341.255 160.539 342.766V344.777C160.539 346.249 160.65 347.544 160.871 348.664C161.092 349.771 161.431 350.708 161.887 351.477C162.355 352.232 162.954 352.805 163.684 353.195C164.426 353.573 165.318 353.762 166.359 353.762C167.583 353.762 168.592 353.566 169.387 353.176C170.181 352.785 170.786 352.206 171.203 351.438C171.633 350.669 171.887 349.712 171.965 348.566ZM192.707 353.234V343.82C192.707 343.143 192.596 342.564 192.375 342.082C192.154 341.587 191.809 341.203 191.34 340.93C190.884 340.656 190.292 340.52 189.562 340.52C188.938 340.52 188.397 340.63 187.941 340.852C187.486 341.06 187.134 341.366 186.887 341.77C186.639 342.16 186.516 342.622 186.516 343.156H180.891C180.891 342.258 181.099 341.405 181.516 340.598C181.932 339.79 182.538 339.081 183.332 338.469C184.126 337.844 185.07 337.355 186.164 337.004C187.271 336.652 188.508 336.477 189.875 336.477C191.516 336.477 192.974 336.75 194.25 337.297C195.526 337.844 196.529 338.664 197.258 339.758C198 340.852 198.371 342.219 198.371 343.859V352.902C198.371 354.061 198.443 355.012 198.586 355.754C198.729 356.483 198.938 357.121 199.211 357.668V358H193.527C193.254 357.427 193.046 356.711 192.902 355.852C192.772 354.979 192.707 354.107 192.707 353.234ZM193.449 345.129L193.488 348.312H190.344C189.602 348.312 188.957 348.397 188.41 348.566C187.863 348.736 187.414 348.977 187.062 349.289C186.711 349.589 186.451 349.94 186.281 350.344C186.125 350.747 186.047 351.19 186.047 351.672C186.047 352.154 186.158 352.59 186.379 352.98C186.6 353.358 186.919 353.658 187.336 353.879C187.753 354.087 188.241 354.191 188.801 354.191C189.647 354.191 190.383 354.022 191.008 353.684C191.633 353.345 192.115 352.928 192.453 352.434C192.805 351.939 192.987 351.47 193 351.027L194.484 353.41C194.276 353.944 193.99 354.497 193.625 355.07C193.273 355.643 192.824 356.184 192.277 356.691C191.73 357.186 191.073 357.596 190.305 357.922C189.536 358.234 188.625 358.391 187.57 358.391C186.229 358.391 185.012 358.124 183.918 357.59C182.837 357.043 181.978 356.294 181.34 355.344C180.715 354.38 180.402 353.286 180.402 352.062C180.402 350.956 180.611 349.973 181.027 349.113C181.444 348.254 182.056 347.531 182.863 346.945C183.684 346.346 184.706 345.897 185.93 345.598C187.154 345.285 188.573 345.129 190.188 345.129H193.449ZM213.059 336.867V340.852H200.754V336.867H213.059ZM203.801 331.652H209.426V351.633C209.426 352.245 209.504 352.714 209.66 353.039C209.829 353.365 210.077 353.592 210.402 353.723C210.728 353.84 211.138 353.898 211.633 353.898C211.984 353.898 212.297 353.885 212.57 353.859C212.857 353.82 213.098 353.781 213.293 353.742L213.312 357.883C212.831 358.039 212.31 358.163 211.75 358.254C211.19 358.345 210.572 358.391 209.895 358.391C208.658 358.391 207.577 358.189 206.652 357.785C205.741 357.368 205.038 356.704 204.543 355.793C204.048 354.882 203.801 353.684 203.801 352.199V331.652ZM221.75 328V358H216.125V328H221.75ZM220.949 346.691H219.406C219.419 345.22 219.615 343.866 219.992 342.629C220.37 341.379 220.91 340.298 221.613 339.387C222.316 338.462 223.156 337.746 224.133 337.238C225.122 336.73 226.216 336.477 227.414 336.477C228.456 336.477 229.4 336.626 230.246 336.926C231.105 337.212 231.841 337.681 232.453 338.332C233.078 338.97 233.56 339.81 233.898 340.852C234.237 341.893 234.406 343.156 234.406 344.641V358H228.742V344.602C228.742 343.664 228.605 342.928 228.332 342.395C228.072 341.848 227.688 341.464 227.18 341.242C226.685 341.008 226.073 340.891 225.344 340.891C224.536 340.891 223.846 341.04 223.273 341.34C222.714 341.639 222.264 342.056 221.926 342.59C221.587 343.111 221.34 343.723 221.184 344.426C221.027 345.129 220.949 345.884 220.949 346.691ZM237.785 347.648V347.238C237.785 345.689 238.007 344.263 238.449 342.961C238.892 341.646 239.536 340.507 240.383 339.543C241.229 338.579 242.271 337.831 243.508 337.297C244.745 336.75 246.164 336.477 247.766 336.477C249.367 336.477 250.793 336.75 252.043 337.297C253.293 337.831 254.341 338.579 255.188 339.543C256.047 340.507 256.698 341.646 257.141 342.961C257.583 344.263 257.805 345.689 257.805 347.238V347.648C257.805 349.185 257.583 350.611 257.141 351.926C256.698 353.228 256.047 354.367 255.188 355.344C254.341 356.307 253.299 357.056 252.062 357.59C250.826 358.124 249.406 358.391 247.805 358.391C246.203 358.391 244.777 358.124 243.527 357.59C242.29 357.056 241.242 356.307 240.383 355.344C239.536 354.367 238.892 353.228 238.449 351.926C238.007 350.611 237.785 349.185 237.785 347.648ZM243.41 347.238V347.648C243.41 348.534 243.488 349.361 243.645 350.129C243.801 350.897 244.048 351.574 244.387 352.16C244.738 352.733 245.194 353.182 245.754 353.508C246.314 353.833 246.997 353.996 247.805 353.996C248.586 353.996 249.257 353.833 249.816 353.508C250.376 353.182 250.826 352.733 251.164 352.16C251.503 351.574 251.75 350.897 251.906 350.129C252.076 349.361 252.16 348.534 252.16 347.648V347.238C252.16 346.379 252.076 345.572 251.906 344.816C251.75 344.048 251.496 343.371 251.145 342.785C250.806 342.186 250.357 341.717 249.797 341.379C249.237 341.04 248.56 340.871 247.766 340.871C246.971 340.871 246.294 341.04 245.734 341.379C245.188 341.717 244.738 342.186 244.387 342.785C244.048 343.371 243.801 344.048 243.645 344.816C243.488 345.572 243.41 346.379 243.41 347.238ZM273.742 353.391V328H279.406V358H274.309L273.742 353.391ZM260.383 347.688V347.277C260.383 345.663 260.565 344.198 260.93 342.883C261.294 341.555 261.828 340.415 262.531 339.465C263.234 338.514 264.1 337.779 265.129 337.258C266.158 336.737 267.329 336.477 268.645 336.477C269.882 336.477 270.962 336.737 271.887 337.258C272.824 337.779 273.618 338.521 274.27 339.484C274.934 340.435 275.467 341.561 275.871 342.863C276.275 344.152 276.568 345.565 276.75 347.102V348C276.568 349.471 276.275 350.839 275.871 352.102C275.467 353.365 274.934 354.471 274.27 355.422C273.618 356.359 272.824 357.089 271.887 357.609C270.949 358.13 269.855 358.391 268.605 358.391C267.29 358.391 266.118 358.124 265.09 357.59C264.074 357.056 263.215 356.307 262.512 355.344C261.822 354.38 261.294 353.247 260.93 351.945C260.565 350.643 260.383 349.224 260.383 347.688ZM266.008 347.277V347.688C266.008 348.56 266.073 349.374 266.203 350.129C266.346 350.884 266.574 351.555 266.887 352.141C267.212 352.714 267.629 353.163 268.137 353.488C268.658 353.801 269.289 353.957 270.031 353.957C270.995 353.957 271.789 353.742 272.414 353.312C273.039 352.87 273.514 352.264 273.84 351.496C274.178 350.728 274.374 349.842 274.426 348.84V346.281C274.387 345.461 274.27 344.725 274.074 344.074C273.892 343.41 273.618 342.844 273.254 342.375C272.902 341.906 272.46 341.542 271.926 341.281C271.405 341.021 270.786 340.891 270.07 340.891C269.341 340.891 268.716 341.06 268.195 341.398C267.674 341.724 267.251 342.173 266.926 342.746C266.613 343.319 266.379 343.996 266.223 344.777C266.079 345.546 266.008 346.379 266.008 347.277ZM289.738 336.867V358H284.094V336.867H289.738ZM283.742 331.359C283.742 330.539 284.029 329.862 284.602 329.328C285.174 328.794 285.943 328.527 286.906 328.527C287.857 328.527 288.618 328.794 289.191 329.328C289.777 329.862 290.07 330.539 290.07 331.359C290.07 332.18 289.777 332.857 289.191 333.391C288.618 333.924 287.857 334.191 286.906 334.191C285.943 334.191 285.174 333.924 284.602 333.391C284.029 332.857 283.742 332.18 283.742 331.359ZM303.117 353.996C303.807 353.996 304.419 353.866 304.953 353.605C305.487 353.332 305.904 352.954 306.203 352.473C306.516 351.978 306.678 351.398 306.691 350.734H311.984C311.971 352.219 311.574 353.54 310.793 354.699C310.012 355.845 308.964 356.75 307.648 357.414C306.333 358.065 304.862 358.391 303.234 358.391C301.594 358.391 300.161 358.117 298.938 357.57C297.727 357.023 296.717 356.268 295.91 355.305C295.103 354.328 294.497 353.195 294.094 351.906C293.69 350.604 293.488 349.211 293.488 347.727V347.16C293.488 345.663 293.69 344.27 294.094 342.98C294.497 341.678 295.103 340.546 295.91 339.582C296.717 338.605 297.727 337.844 298.938 337.297C300.148 336.75 301.568 336.477 303.195 336.477C304.927 336.477 306.444 336.809 307.746 337.473C309.061 338.137 310.09 339.087 310.832 340.324C311.587 341.548 311.971 343 311.984 344.68H306.691C306.678 343.977 306.529 343.339 306.242 342.766C305.969 342.193 305.565 341.737 305.031 341.398C304.51 341.047 303.866 340.871 303.098 340.871C302.277 340.871 301.607 341.047 301.086 341.398C300.565 341.737 300.161 342.206 299.875 342.805C299.589 343.391 299.387 344.061 299.27 344.816C299.165 345.559 299.113 346.34 299.113 347.16V347.727C299.113 348.547 299.165 349.335 299.27 350.09C299.374 350.845 299.569 351.516 299.855 352.102C300.155 352.688 300.565 353.15 301.086 353.488C301.607 353.827 302.284 353.996 303.117 353.996ZM152.824 394.863H145.578V390.293H152.824C153.944 390.293 154.855 390.111 155.559 389.746C156.262 389.368 156.776 388.848 157.102 388.184C157.427 387.52 157.59 386.771 157.59 385.938C157.59 385.091 157.427 384.303 157.102 383.574C156.776 382.845 156.262 382.259 155.559 381.816C154.855 381.374 153.944 381.152 152.824 381.152H147.609V405H141.75V376.562H152.824C155.051 376.562 156.958 376.966 158.547 377.773C160.148 378.568 161.372 379.668 162.219 381.074C163.065 382.48 163.488 384.089 163.488 385.898C163.488 387.734 163.065 389.323 162.219 390.664C161.372 392.005 160.148 393.04 158.547 393.77C156.958 394.499 155.051 394.863 152.824 394.863ZM172.805 388.477V405H167.18V383.867H172.473L172.805 388.477ZM179.172 383.73L179.074 388.945C178.801 388.906 178.469 388.874 178.078 388.848C177.701 388.809 177.355 388.789 177.043 388.789C176.249 388.789 175.559 388.893 174.973 389.102C174.4 389.297 173.918 389.59 173.527 389.98C173.15 390.371 172.863 390.846 172.668 391.406C172.486 391.966 172.382 392.604 172.355 393.32L171.223 392.969C171.223 391.602 171.359 390.345 171.633 389.199C171.906 388.04 172.303 387.031 172.824 386.172C173.358 385.312 174.009 384.648 174.777 384.18C175.546 383.711 176.424 383.477 177.414 383.477C177.727 383.477 178.046 383.503 178.371 383.555C178.697 383.594 178.964 383.652 179.172 383.73ZM180.344 394.648V394.238C180.344 392.689 180.565 391.263 181.008 389.961C181.451 388.646 182.095 387.507 182.941 386.543C183.788 385.579 184.829 384.831 186.066 384.297C187.303 383.75 188.723 383.477 190.324 383.477C191.926 383.477 193.352 383.75 194.602 384.297C195.852 384.831 196.9 385.579 197.746 386.543C198.605 387.507 199.257 388.646 199.699 389.961C200.142 391.263 200.363 392.689 200.363 394.238V394.648C200.363 396.185 200.142 397.611 199.699 398.926C199.257 400.228 198.605 401.367 197.746 402.344C196.9 403.307 195.858 404.056 194.621 404.59C193.384 405.124 191.965 405.391 190.363 405.391C188.762 405.391 187.336 405.124 186.086 404.59C184.849 404.056 183.801 403.307 182.941 402.344C182.095 401.367 181.451 400.228 181.008 398.926C180.565 397.611 180.344 396.185 180.344 394.648ZM185.969 394.238V394.648C185.969 395.534 186.047 396.361 186.203 397.129C186.359 397.897 186.607 398.574 186.945 399.16C187.297 399.733 187.753 400.182 188.312 400.508C188.872 400.833 189.556 400.996 190.363 400.996C191.145 400.996 191.815 400.833 192.375 400.508C192.935 400.182 193.384 399.733 193.723 399.16C194.061 398.574 194.309 397.897 194.465 397.129C194.634 396.361 194.719 395.534 194.719 394.648V394.238C194.719 393.379 194.634 392.572 194.465 391.816C194.309 391.048 194.055 390.371 193.703 389.785C193.365 389.186 192.915 388.717 192.355 388.379C191.796 388.04 191.118 387.871 190.324 387.871C189.53 387.871 188.853 388.04 188.293 388.379C187.746 388.717 187.297 389.186 186.945 389.785C186.607 390.371 186.359 391.048 186.203 391.816C186.047 392.572 185.969 393.379 185.969 394.238ZM214.172 383.867V387.852H201.867V383.867H214.172ZM204.914 378.652H210.539V398.633C210.539 399.245 210.617 399.714 210.773 400.039C210.943 400.365 211.19 400.592 211.516 400.723C211.841 400.84 212.251 400.898 212.746 400.898C213.098 400.898 213.41 400.885 213.684 400.859C213.97 400.82 214.211 400.781 214.406 400.742L214.426 404.883C213.944 405.039 213.423 405.163 212.863 405.254C212.303 405.345 211.685 405.391 211.008 405.391C209.771 405.391 208.69 405.189 207.766 404.785C206.854 404.368 206.151 403.704 205.656 402.793C205.161 401.882 204.914 400.684 204.914 399.199V378.652ZM227.102 405.391C225.461 405.391 223.99 405.13 222.688 404.609C221.385 404.076 220.279 403.34 219.367 402.402C218.469 401.465 217.779 400.378 217.297 399.141C216.815 397.891 216.574 396.562 216.574 395.156V394.375C216.574 392.773 216.802 391.309 217.258 389.98C217.714 388.652 218.365 387.5 219.211 386.523C220.07 385.547 221.112 384.798 222.336 384.277C223.56 383.743 224.94 383.477 226.477 383.477C227.974 383.477 229.302 383.724 230.461 384.219C231.62 384.714 232.59 385.417 233.371 386.328C234.165 387.24 234.764 388.333 235.168 389.609C235.572 390.872 235.773 392.279 235.773 393.828V396.172H218.977V392.422H230.246V391.992C230.246 391.211 230.103 390.514 229.816 389.902C229.543 389.277 229.126 388.783 228.566 388.418C228.007 388.053 227.29 387.871 226.418 387.871C225.676 387.871 225.038 388.034 224.504 388.359C223.97 388.685 223.534 389.141 223.195 389.727C222.87 390.312 222.622 391.003 222.453 391.797C222.297 392.578 222.219 393.438 222.219 394.375V395.156C222.219 396.003 222.336 396.784 222.57 397.5C222.818 398.216 223.163 398.835 223.605 399.355C224.061 399.876 224.608 400.28 225.246 400.566C225.897 400.853 226.633 400.996 227.453 400.996C228.469 400.996 229.413 400.801 230.285 400.41C231.171 400.007 231.932 399.401 232.57 398.594L235.305 401.562C234.862 402.201 234.257 402.812 233.488 403.398C232.733 403.984 231.822 404.466 230.754 404.844C229.686 405.208 228.469 405.391 227.102 405.391ZM247.707 400.996C248.397 400.996 249.009 400.866 249.543 400.605C250.077 400.332 250.493 399.954 250.793 399.473C251.105 398.978 251.268 398.398 251.281 397.734H256.574C256.561 399.219 256.164 400.54 255.383 401.699C254.602 402.845 253.553 403.75 252.238 404.414C250.923 405.065 249.452 405.391 247.824 405.391C246.184 405.391 244.751 405.117 243.527 404.57C242.316 404.023 241.307 403.268 240.5 402.305C239.693 401.328 239.087 400.195 238.684 398.906C238.28 397.604 238.078 396.211 238.078 394.727V394.16C238.078 392.663 238.28 391.27 238.684 389.98C239.087 388.678 239.693 387.546 240.5 386.582C241.307 385.605 242.316 384.844 243.527 384.297C244.738 383.75 246.158 383.477 247.785 383.477C249.517 383.477 251.034 383.809 252.336 384.473C253.651 385.137 254.68 386.087 255.422 387.324C256.177 388.548 256.561 390 256.574 391.68H251.281C251.268 390.977 251.118 390.339 250.832 389.766C250.559 389.193 250.155 388.737 249.621 388.398C249.1 388.047 248.456 387.871 247.688 387.871C246.867 387.871 246.197 388.047 245.676 388.398C245.155 388.737 244.751 389.206 244.465 389.805C244.178 390.391 243.977 391.061 243.859 391.816C243.755 392.559 243.703 393.34 243.703 394.16V394.727C243.703 395.547 243.755 396.335 243.859 397.09C243.964 397.845 244.159 398.516 244.445 399.102C244.745 399.688 245.155 400.15 245.676 400.488C246.197 400.827 246.874 400.996 247.707 400.996ZM270.188 383.867V387.852H257.883V383.867H270.188ZM260.93 378.652H266.555V398.633C266.555 399.245 266.633 399.714 266.789 400.039C266.958 400.365 267.206 400.592 267.531 400.723C267.857 400.84 268.267 400.898 268.762 400.898C269.113 400.898 269.426 400.885 269.699 400.859C269.986 400.82 270.227 400.781 270.422 400.742L270.441 404.883C269.96 405.039 269.439 405.163 268.879 405.254C268.319 405.345 267.701 405.391 267.023 405.391C265.786 405.391 264.706 405.189 263.781 404.785C262.87 404.368 262.167 403.704 261.672 402.793C261.177 401.882 260.93 400.684 260.93 399.199V378.652ZM279.328 383.867V405H273.684V383.867H279.328ZM273.332 378.359C273.332 377.539 273.618 376.862 274.191 376.328C274.764 375.794 275.533 375.527 276.496 375.527C277.447 375.527 278.208 375.794 278.781 376.328C279.367 376.862 279.66 377.539 279.66 378.359C279.66 379.18 279.367 379.857 278.781 380.391C278.208 380.924 277.447 381.191 276.496 381.191C275.533 381.191 274.764 380.924 274.191 380.391C273.618 379.857 273.332 379.18 273.332 378.359ZM283.078 394.648V394.238C283.078 392.689 283.299 391.263 283.742 389.961C284.185 388.646 284.829 387.507 285.676 386.543C286.522 385.579 287.564 384.831 288.801 384.297C290.038 383.75 291.457 383.477 293.059 383.477C294.66 383.477 296.086 383.75 297.336 384.297C298.586 384.831 299.634 385.579 300.48 386.543C301.34 387.507 301.991 388.646 302.434 389.961C302.876 391.263 303.098 392.689 303.098 394.238V394.648C303.098 396.185 302.876 397.611 302.434 398.926C301.991 400.228 301.34 401.367 300.48 402.344C299.634 403.307 298.592 404.056 297.355 404.59C296.118 405.124 294.699 405.391 293.098 405.391C291.496 405.391 290.07 405.124 288.82 404.59C287.583 404.056 286.535 403.307 285.676 402.344C284.829 401.367 284.185 400.228 283.742 398.926C283.299 397.611 283.078 396.185 283.078 394.648ZM288.703 394.238V394.648C288.703 395.534 288.781 396.361 288.938 397.129C289.094 397.897 289.341 398.574 289.68 399.16C290.031 399.733 290.487 400.182 291.047 400.508C291.607 400.833 292.29 400.996 293.098 400.996C293.879 400.996 294.549 400.833 295.109 400.508C295.669 400.182 296.118 399.733 296.457 399.16C296.796 398.574 297.043 397.897 297.199 397.129C297.368 396.361 297.453 395.534 297.453 394.648V394.238C297.453 393.379 297.368 392.572 297.199 391.816C297.043 391.048 296.789 390.371 296.438 389.785C296.099 389.186 295.65 388.717 295.09 388.379C294.53 388.04 293.853 387.871 293.059 387.871C292.264 387.871 291.587 388.04 291.027 388.379C290.48 388.717 290.031 389.186 289.68 389.785C289.341 390.371 289.094 391.048 288.938 391.816C288.781 392.572 288.703 393.379 288.703 394.238ZM312.062 388.379V405H306.438V383.867H311.711L312.062 388.379ZM311.242 393.691H309.719C309.719 392.129 309.921 390.723 310.324 389.473C310.728 388.21 311.294 387.135 312.023 386.25C312.753 385.352 313.618 384.668 314.621 384.199C315.637 383.717 316.77 383.477 318.02 383.477C319.009 383.477 319.914 383.62 320.734 383.906C321.555 384.193 322.258 384.648 322.844 385.273C323.443 385.898 323.898 386.725 324.211 387.754C324.536 388.783 324.699 390.039 324.699 391.523V405H319.035V391.504C319.035 390.566 318.905 389.837 318.645 389.316C318.384 388.796 318 388.431 317.492 388.223C316.997 388.001 316.385 387.891 315.656 387.891C314.901 387.891 314.243 388.04 313.684 388.34C313.137 388.639 312.681 389.056 312.316 389.59C311.965 390.111 311.698 390.723 311.516 391.426C311.333 392.129 311.242 392.884 311.242 393.691Z" fill="white"/>
<path d="M339.603 511.515C335.137 503.78 335.137 494.25 339.603 486.515L414.472 356.838C418.938 349.103 427.191 344.338 436.123 344.338H585.861C594.793 344.338 603.046 349.103 607.512 356.838L682.381 486.515C686.847 494.25 686.847 503.78 682.381 511.515L607.512 641.193C603.046 648.928 594.793 653.693 585.861 653.693H436.123C427.191 653.693 418.938 648.928 414.472 641.193L339.603 511.515Z" fill="#89C958" fill-opacity="0.78"/>
</g>
<defs>
<clipPath id="clip0_1599_746">
<rect width="1440" height="567" fill="white"/>
</clipPath>
</defs>
</svg>
