<svg width="42" height="128" viewBox="0 0 42 128" fill="none" xmlns="http://www.w3.org/2000/svg">
<g filter="url(#filter0_f_458_215)">
<path fill-rule="evenodd" clip-rule="evenodd" d="M1.09038 4.21932C1.66221 3.92689 2.3397 3.92689 2.91154 4.21932L18.0431 11.9571C18.7118 12.299 19.1325 12.9868 19.1325 13.7378V28.8117C19.1325 29.5627 18.7118 30.2504 18.0431 30.5924L2.91154 38.3302C2.3397 38.6226 1.66222 38.6226 1.09038 38.3302L-14.0412 30.5924C-14.7099 30.2504 -15.1306 29.5627 -15.1306 28.8117V13.7378C-15.1306 12.9868 -14.7099 12.299 -14.0412 11.9571L1.09038 4.21932ZM19.1766 32.4791C19.7485 32.1867 20.426 32.1867 20.9978 32.4791L36.1294 40.2169C36.7981 40.5588 37.2188 41.2466 37.2188 41.9976V57.0715C37.2188 57.8225 36.7981 58.5102 36.1294 58.8521L20.9978 66.5899C20.426 66.8824 19.7485 66.8824 19.1766 66.5899L4.04505 58.8521C3.37638 58.5102 2.95564 57.8225 2.95564 57.0715V41.9976C2.95564 41.2466 3.37638 40.5588 4.04505 40.2169L19.1766 32.4791ZM2.91154 60.7389C2.3397 60.4465 1.66221 60.4465 1.09038 60.7389L-14.0412 68.4767C-14.7099 68.8186 -15.1306 69.5063 -15.1306 70.2574V85.3312C-15.1306 86.0823 -14.7099 86.77 -14.0412 87.1119L1.09038 94.8497C1.66222 95.1421 2.3397 95.1421 2.91154 94.8497L18.0431 87.1119C18.7118 86.77 19.1325 86.0823 19.1325 85.3312V70.2574C19.1325 69.5063 18.7118 68.8186 18.0431 68.4767L2.91154 60.7389ZM-35.0821 60.7389C-34.5103 60.4465 -33.8328 60.4465 -33.261 60.7389L-18.1294 68.4767C-17.4607 68.8186 -17.04 69.5063 -17.04 70.2574V85.3312C-17.04 86.0823 -17.4607 86.77 -18.1294 87.1119L-33.261 94.8497C-33.8328 95.1421 -34.5103 95.1421 -35.0821 94.8497L-50.2137 87.1119C-50.8824 86.77 -51.3031 86.0823 -51.3031 85.3312V70.2574C-51.3031 69.5063 -50.8824 68.8186 -50.2137 68.4767L-35.0821 60.7389ZM-16.6065 32.7573C-16.0346 32.4649 -15.3572 32.4649 -14.7853 32.7573L0.346274 40.4951C1.01494 40.837 1.43568 41.5247 1.43568 42.2758V57.3496C1.43568 58.1007 1.01494 58.7884 0.346274 59.1303L-14.7853 66.8681C-15.3572 67.1605 -16.0346 67.1605 -16.6065 66.8681L-31.7381 59.1303C-32.4067 58.7884 -32.8275 58.1007 -32.8275 57.3496V42.2758C-32.8275 41.5247 -32.4067 40.837 -31.7381 40.4951L-16.6065 32.7573ZM-50.9578 32.7573C-51.5297 32.4649 -52.2072 32.4649 -52.779 32.7573L-67.9106 40.4951C-68.5793 40.837 -69 41.5247 -69 42.2758V57.3496C-69 58.1007 -68.5793 58.7884 -67.9106 59.1303L-52.779 66.8681C-52.2072 67.1605 -51.5297 67.1605 -50.9578 66.8681L-35.8262 59.1303C-35.1576 58.7884 -34.7368 58.1007 -34.7368 57.3496V42.2758C-34.7368 41.5247 -35.1576 40.837 -35.8262 40.4951L-50.9578 32.7573ZM-34.6927 4.4975C-34.1209 4.20508 -33.4434 4.20508 -32.8716 4.4975L-17.74 12.2353C-17.0713 12.5772 -16.6506 13.265 -16.6506 14.016V29.0899C-16.6506 29.8409 -17.0713 30.5286 -17.74 30.8705L-32.8716 38.6083C-33.4434 38.9008 -34.1209 38.9008 -34.6927 38.6083L-49.8243 30.8705C-50.493 30.5286 -50.9137 29.8409 -50.9137 29.0899V14.016C-50.9137 13.265 -50.493 12.5772 -49.8243 12.2353L-34.6927 4.4975ZM-50.9577 89.2768C-51.5295 88.9844 -52.207 88.9844 -52.7789 89.2768L-67.9104 97.0146C-68.5791 97.3566 -68.9999 98.0443 -68.9999 98.7953V113.869C-68.9999 114.62 -68.5791 115.308 -67.9104 115.65L-52.7789 123.388C-52.207 123.68 -51.5295 123.68 -50.9577 123.388L-35.8261 115.65C-35.1574 115.308 -34.7367 114.62 -34.7367 113.869V98.7953C-34.7367 98.0443 -35.1574 97.3566 -35.8261 97.0146L-50.9577 89.2768ZM-16.6065 88.1465C-16.0346 87.854 -15.3572 87.854 -14.7853 88.1465L0.346274 95.8842C1.01494 96.2262 1.43568 96.9139 1.43568 97.6649V112.739C1.43568 113.49 1.01494 114.178 0.346274 114.519L-14.7853 122.257C-15.3572 122.55 -16.0346 122.55 -16.6065 122.257L-31.7381 114.519C-32.4067 114.178 -32.8275 113.49 -32.8275 112.739V97.6649C-32.8275 96.9139 -32.4067 96.2262 -31.7381 95.8842L-16.6065 88.1465ZM20.9978 88.9987C20.426 88.7062 19.7485 88.7062 19.1766 88.9987L4.04505 96.7365C3.37638 97.0784 2.95564 97.7661 2.95564 98.5171V113.591C2.95564 114.342 3.37638 115.03 4.04505 115.372L19.1766 123.11C19.7485 123.402 20.426 123.402 20.9978 123.11L36.1294 115.372C36.7981 115.03 37.2188 114.342 37.2188 113.591V98.5171C37.2188 97.7661 36.7981 97.0784 36.1294 96.7365L20.9978 88.9987Z" fill="#89C958" fill-opacity="0.79"/>
</g>
<defs>
<filter id="filter0_f_458_215" x="-73" y="0" width="114.219" height="127.607" filterUnits="userSpaceOnUse" color-interpolation-filters="sRGB">
<feFlood flood-opacity="0" result="BackgroundImageFix"/>
<feBlend mode="normal" in="SourceGraphic" in2="BackgroundImageFix" result="shape"/>
<feGaussianBlur stdDeviation="2" result="effect1_foregroundBlur_458_215"/>
</filter>
</defs>
</svg>
