<svg width="369" height="319" viewBox="0 0 369 319" fill="none" xmlns="http://www.w3.org/2000/svg">
<path d="M32.2139 -19.9668C29.9175 -22.7036 29.2555 -26.4577 30.4775 -29.8149L54.2318 -95.0794C55.4538 -98.4366 58.3739 -100.887 61.8923 -101.507L130.29 -113.568C133.809 -114.188 137.391 -112.884 139.687 -110.148L184.331 -56.9435C186.627 -54.2066 187.289 -50.4526 186.067 -47.0954L162.313 18.1691C161.091 21.5263 158.171 23.9766 154.652 24.597L86.2543 36.6575C82.7359 37.2778 79.1539 35.9741 76.8574 33.2373L32.2139 -19.9668Z" fill="#2FA3EE"/>
<path d="M58.2139 125.033C55.9175 122.296 55.2555 118.542 56.4775 115.185L80.2318 49.9206C81.4538 46.5634 84.3739 44.1131 87.8923 43.4927L156.29 31.4323C159.809 30.8119 163.391 32.1157 165.687 34.8525L210.331 88.0565C212.627 90.7934 213.289 94.5474 212.067 97.9046L188.313 163.169C187.091 166.526 184.171 168.977 180.652 169.597L112.254 181.657C108.736 182.278 105.154 180.974 102.857 178.237L58.2139 125.033Z" fill="#2FA3EE"/>
<path d="M-55.7861 220.032C-58.0825 217.295 -58.7445 213.541 -57.5225 210.184L-33.7682 144.92C-32.5462 141.562 -29.6261 139.112 -26.1077 138.492L42.2901 126.431C45.8085 125.811 49.3906 127.115 51.687 129.852L96.3305 183.056C98.627 185.792 99.2889 189.546 98.067 192.904L74.3126 258.168C73.0907 261.525 70.1705 263.976 66.6522 264.596L-1.74568 276.656C-5.26406 277.277 -8.84614 275.973 -11.1426 273.236L-55.7861 220.032Z" fill="#2FA3EE"/>
<path d="M172.214 30.0332C169.917 27.2964 169.256 23.5423 170.477 20.1851L194.232 -45.0794C195.454 -48.4366 198.374 -50.8869 201.892 -51.5073L270.29 -63.5677C273.809 -64.1881 277.391 -62.8843 279.687 -60.1475L324.331 -6.94346C326.627 -4.20665 327.289 -0.452585 326.067 2.90462L302.313 68.1691C301.091 71.5263 298.171 73.9766 294.652 74.597L226.254 86.6575C222.736 87.2778 219.154 85.9741 216.857 83.2373L172.214 30.0332Z" fill="#2FA3EE"/>
<path d="M-81.7861 75.0322C-84.0825 72.2954 -84.7445 68.5413 -83.5225 65.1841L-59.7682 -0.080366C-58.5462 -3.43757 -55.6261 -5.88786 -52.1077 -6.50824L16.2901 -18.5687C19.8085 -19.1891 23.3906 -17.8853 25.687 -15.1485L70.3305 38.0556C72.627 40.7924 73.2889 44.5464 72.067 47.9036L48.3126 113.168C47.0907 116.525 44.1705 118.976 40.6522 119.596L-27.7457 131.656C-31.2641 132.277 -34.8461 130.973 -37.1426 128.236L-81.7861 75.0322Z" fill="#2FA3EE"/>
</svg>
