<svg width="25" height="25" viewBox="0 0 25 25" fill="none" xmlns="http://www.w3.org/2000/svg">
<path d="M15.5 21.5V17.5C15.5 16.9696 15.7107 16.4609 16.0858 16.0858C16.4609 15.7107 16.9696 15.5 17.5 15.5H21.5" stroke="white" stroke-width="2" stroke-linecap="round" stroke-linejoin="round"/>
<path d="M7.5 4.5V6.5C7.71572 7.11347 8.12494 7.64024 8.66602 8.00096C9.2071 8.36168 9.85075 8.53682 10.5 8.5V8.5C11.0304 8.5 11.5391 8.71071 11.9142 9.08579C12.2893 9.46086 12.5 9.96957 12.5 10.5C12.5 11.0304 12.7107 11.5391 13.0858 11.9142C13.4609 12.2893 13.9696 12.5 14.5 12.5C15.0304 12.5 15.5391 12.2893 15.9142 11.9142C16.2893 11.5391 16.5 11.0304 16.5 10.5C16.5 9.96957 16.7107 9.46086 17.0858 9.08579C17.4609 8.71071 17.9696 8.5 18.5 8.5H21.5" stroke="white" stroke-width="2" stroke-linecap="round" stroke-linejoin="round"/>
<path d="M3.5 11.5H5.5C6.03043 11.5 6.53914 11.7107 6.91421 12.0858C7.28929 12.4609 7.5 12.9696 7.5 13.5V14.5C7.5 15.0304 7.71071 15.5391 8.08579 15.9142C8.46086 16.2893 8.96957 16.5 9.5 16.5C10.0304 16.5 10.5391 16.7107 10.9142 17.0858C11.2893 17.4609 11.5 17.9696 11.5 18.5V22.5" stroke="white" stroke-width="2" stroke-linecap="round" stroke-linejoin="round"/>
<path d="M12.5 22.5C18.0228 22.5 22.5 18.0228 22.5 12.5C22.5 6.97715 18.0228 2.5 12.5 2.5C6.97715 2.5 2.5 6.97715 2.5 12.5C2.5 18.0228 6.97715 22.5 12.5 22.5Z" stroke="white" stroke-width="2" stroke-linecap="round" stroke-linejoin="round"/>
</svg>
