<svg width="1440" height="567" viewBox="0 0 1440 567" fill="none" xmlns="http://www.w3.org/2000/svg">
<g clip-path="url(#clip0_1591_585)">
<path d="M-216.783 191.106C-221.249 183.371 -221.249 173.841 -216.783 166.106L-141.914 36.4287C-137.448 28.6937 -129.195 23.9287 -120.263 23.9287H29.4753C38.407 23.9287 46.6602 28.6937 51.126 36.4287L125.996 166.106C130.461 173.841 130.461 183.371 125.996 191.106L51.126 320.784C46.6601 328.519 38.407 333.284 29.4753 333.284H-120.263C-129.195 333.284 -137.448 328.519 -141.914 320.784L-216.783 191.106Z" fill="#89C958" fill-opacity="0.78"/>
<path d="M61.4099 671.719C56.9441 663.984 56.9441 654.454 61.4099 646.719L136.28 517.042C140.745 509.307 148.999 504.542 157.93 504.542H307.669C316.601 504.542 324.854 509.307 329.32 517.042L404.189 646.719C408.655 654.454 408.655 663.984 404.189 671.719L329.32 801.397C324.854 809.132 316.601 813.897 307.669 813.897H157.93C148.999 813.897 140.745 809.132 136.28 801.397L61.4099 671.719Z" fill="#89C958" fill-opacity="0.78"/>
<path d="M-216.783 511.515C-221.249 503.78 -221.249 494.25 -216.783 486.515L-141.914 356.838C-137.448 349.103 -129.195 344.338 -120.263 344.338H29.4753C38.407 344.338 46.6602 349.103 51.126 356.838L125.996 486.515C130.461 494.25 130.461 503.78 125.996 511.515L51.126 641.193C46.6601 648.928 38.407 653.693 29.4753 653.693H-120.263C-129.195 653.693 -137.448 648.928 -141.914 641.193L-216.783 511.515Z" fill="#89C958" fill-opacity="0.78"/>
<path d="M617.797 671.719C613.331 663.984 613.331 654.454 617.797 646.719L692.666 517.042C697.132 509.307 705.385 504.542 714.317 504.542H864.056C872.987 504.542 881.241 509.307 885.706 517.042L960.576 646.719C965.042 654.454 965.042 663.984 960.576 671.719L885.706 801.397C881.241 809.132 872.987 813.897 864.056 813.897H714.317C705.385 813.897 697.132 809.132 692.666 801.397L617.797 671.719Z" fill="#89C958" fill-opacity="0.78"/>
<path d="M895.987 511.515C891.522 503.78 891.522 494.25 895.987 486.515L970.857 356.838C975.323 349.103 983.576 344.338 992.507 344.338H1142.25C1151.18 344.338 1159.43 349.103 1163.9 356.838L1238.77 486.515C1243.23 494.25 1243.23 503.78 1238.77 511.515L1163.9 641.193C1159.43 648.928 1151.18 653.693 1142.25 653.693H992.507C983.576 653.693 975.323 648.928 970.857 641.193L895.987 511.515Z" fill="#89C958" fill-opacity="0.78"/>
<path d="M1174.18 671.719C1169.71 663.984 1169.71 654.454 1174.18 646.719L1249.05 517.042C1253.52 509.307 1261.77 504.542 1270.7 504.542H1420.44C1429.37 504.542 1437.62 509.307 1442.09 517.042L1516.96 646.719C1521.43 654.454 1521.43 663.984 1516.96 671.719L1442.09 801.397C1437.62 809.132 1429.37 813.897 1420.44 813.897H1270.7C1261.77 813.897 1253.52 809.132 1249.05 801.397L1174.18 671.719Z" fill="#89C958" fill-opacity="0.78"/>
<path d="M61.4099 351.311C56.9441 343.576 56.9441 334.046 61.4099 326.311L136.28 196.633C140.745 188.898 148.999 184.133 157.93 184.133H307.669C316.601 184.133 324.854 188.898 329.32 196.633L404.189 326.311C408.655 334.046 408.655 343.576 404.189 351.311L329.32 480.988C324.854 488.723 316.601 493.488 307.669 493.488H157.93C148.999 493.488 140.745 488.723 136.28 480.988L61.4099 351.311Z" fill="#89C958" fill-opacity="0.78"/>
<path d="M146.499 307.008V339H139.929V307.008H146.499ZM158.474 320.301V339H152.146V315.226H158.079L158.474 320.301ZM157.551 326.278H155.837C155.837 324.52 156.064 322.938 156.519 321.532C156.973 320.111 157.61 318.902 158.43 317.906C159.25 316.896 160.225 316.126 161.353 315.599C162.495 315.057 163.77 314.786 165.176 314.786C166.289 314.786 167.307 314.947 168.23 315.27C169.153 315.592 169.944 316.104 170.603 316.808C171.277 317.511 171.79 318.441 172.141 319.598C172.507 320.755 172.69 322.169 172.69 323.839V339H166.318V323.817C166.318 322.762 166.172 321.942 165.879 321.356C165.586 320.77 165.154 320.36 164.583 320.125C164.026 319.876 163.337 319.752 162.517 319.752C161.667 319.752 160.928 319.92 160.298 320.257C159.683 320.594 159.17 321.063 158.76 321.664C158.364 322.25 158.064 322.938 157.859 323.729C157.654 324.52 157.551 325.37 157.551 326.278ZM191.543 333.814V305.25H197.915V339H192.18L191.543 333.814ZM176.514 327.398V326.937C176.514 325.121 176.719 323.473 177.129 321.993C177.539 320.499 178.14 319.217 178.931 318.148C179.722 317.079 180.696 316.251 181.853 315.665C183.01 315.079 184.329 314.786 185.808 314.786C187.2 314.786 188.416 315.079 189.456 315.665C190.51 316.251 191.404 317.086 192.136 318.17C192.883 319.239 193.484 320.506 193.938 321.971C194.392 323.421 194.722 325.011 194.927 326.739V327.75C194.722 329.405 194.392 330.943 193.938 332.364C193.484 333.785 192.883 335.03 192.136 336.1C191.404 337.154 190.51 337.975 189.456 338.561C188.401 339.146 187.17 339.439 185.764 339.439C184.285 339.439 182.966 339.139 181.809 338.539C180.667 337.938 179.7 337.096 178.909 336.012C178.132 334.928 177.539 333.653 177.129 332.188C176.719 330.724 176.514 329.127 176.514 327.398ZM182.842 326.937V327.398C182.842 328.38 182.915 329.295 183.062 330.145C183.223 330.995 183.479 331.749 183.831 332.408C184.197 333.053 184.666 333.558 185.237 333.924C185.823 334.276 186.533 334.452 187.368 334.452C188.452 334.452 189.346 334.21 190.049 333.727C190.752 333.229 191.287 332.547 191.653 331.683C192.034 330.819 192.253 329.823 192.312 328.695V325.816C192.268 324.894 192.136 324.066 191.917 323.333C191.711 322.586 191.404 321.949 190.994 321.422C190.598 320.895 190.1 320.484 189.5 320.191C188.914 319.898 188.218 319.752 187.412 319.752C186.592 319.752 185.889 319.942 185.303 320.323C184.717 320.689 184.241 321.195 183.875 321.839C183.523 322.484 183.259 323.246 183.083 324.125C182.922 324.989 182.842 325.926 182.842 326.937ZM216.921 333.309V315.226H223.25V339H217.295L216.921 333.309ZM217.625 328.431L219.492 328.387C219.492 329.969 219.309 331.441 218.943 332.804C218.577 334.151 218.027 335.323 217.295 336.319C216.562 337.301 215.64 338.07 214.526 338.626C213.413 339.168 212.102 339.439 210.593 339.439C209.436 339.439 208.367 339.278 207.385 338.956C206.418 338.619 205.583 338.099 204.88 337.396C204.192 336.678 203.65 335.763 203.254 334.649C202.874 333.521 202.683 332.167 202.683 330.584V315.226H209.011V330.628C209.011 331.332 209.092 331.925 209.253 332.408C209.429 332.892 209.67 333.287 209.978 333.595C210.286 333.902 210.645 334.122 211.055 334.254C211.479 334.386 211.948 334.452 212.461 334.452C213.765 334.452 214.79 334.188 215.537 333.661C216.299 333.133 216.833 332.416 217.141 331.507C217.463 330.584 217.625 329.559 217.625 328.431ZM240.938 332.43C240.938 331.976 240.806 331.566 240.542 331.2C240.278 330.833 239.788 330.497 239.07 330.189C238.367 329.867 237.349 329.574 236.016 329.31C234.814 329.046 233.694 328.717 232.654 328.321C231.628 327.911 230.735 327.42 229.973 326.849C229.226 326.278 228.64 325.604 228.215 324.828C227.791 324.037 227.578 323.136 227.578 322.125C227.578 321.129 227.791 320.191 228.215 319.312C228.655 318.434 229.277 317.657 230.083 316.983C230.903 316.295 231.899 315.76 233.071 315.379C234.258 314.984 235.591 314.786 237.07 314.786C239.136 314.786 240.908 315.116 242.388 315.775C243.882 316.434 245.024 317.342 245.815 318.5C246.621 319.642 247.024 320.946 247.024 322.411H240.696C240.696 321.795 240.564 321.246 240.3 320.763C240.051 320.265 239.656 319.876 239.114 319.598C238.586 319.305 237.898 319.159 237.048 319.159C236.345 319.159 235.737 319.283 235.225 319.532C234.712 319.767 234.316 320.089 234.038 320.499C233.774 320.895 233.643 321.334 233.643 321.817C233.643 322.184 233.716 322.513 233.862 322.806C234.023 323.084 234.28 323.341 234.631 323.575C234.983 323.81 235.437 324.029 235.994 324.234C236.565 324.425 237.268 324.601 238.103 324.762C239.817 325.113 241.348 325.575 242.695 326.146C244.043 326.703 245.112 327.464 245.903 328.431C246.694 329.383 247.09 330.636 247.09 332.188C247.09 333.243 246.855 334.21 246.387 335.089C245.918 335.968 245.244 336.737 244.365 337.396C243.486 338.041 242.432 338.546 241.201 338.912C239.985 339.264 238.616 339.439 237.092 339.439C234.88 339.439 233.005 339.044 231.467 338.253C229.944 337.462 228.787 336.458 227.996 335.243C227.219 334.012 226.831 332.752 226.831 331.463H232.83C232.859 332.328 233.079 333.023 233.489 333.551C233.914 334.078 234.448 334.459 235.093 334.693C235.752 334.928 236.462 335.045 237.224 335.045C238.044 335.045 238.726 334.935 239.268 334.715C239.81 334.481 240.22 334.173 240.498 333.792C240.791 333.397 240.938 332.943 240.938 332.43ZM262.844 315.226V319.708H249.001V315.226H262.844ZM252.429 309.359H258.757V331.837C258.757 332.525 258.845 333.053 259.021 333.419C259.211 333.785 259.49 334.042 259.856 334.188C260.222 334.32 260.684 334.386 261.24 334.386C261.636 334.386 261.987 334.371 262.295 334.342C262.617 334.298 262.888 334.254 263.108 334.21L263.13 338.868C262.588 339.044 262.002 339.183 261.372 339.286C260.742 339.388 260.046 339.439 259.285 339.439C257.893 339.439 256.677 339.212 255.637 338.758C254.612 338.29 253.821 337.542 253.264 336.517C252.708 335.492 252.429 334.144 252.429 332.474V309.359ZM272.776 320.411V339H266.448V315.226H272.402L272.776 320.411ZM279.939 315.072L279.829 320.938C279.521 320.895 279.148 320.858 278.708 320.829C278.284 320.785 277.896 320.763 277.544 320.763C276.65 320.763 275.874 320.88 275.215 321.114C274.57 321.334 274.028 321.664 273.589 322.103C273.164 322.542 272.842 323.077 272.622 323.707C272.417 324.337 272.3 325.055 272.271 325.86L270.996 325.465C270.996 323.927 271.15 322.513 271.458 321.224C271.765 319.92 272.212 318.785 272.798 317.818C273.398 316.852 274.131 316.104 274.995 315.577C275.859 315.05 276.848 314.786 277.961 314.786C278.313 314.786 278.672 314.815 279.038 314.874C279.404 314.918 279.705 314.984 279.939 315.072ZM289.607 315.226V339H283.257V315.226H289.607ZM282.861 309.029C282.861 308.106 283.184 307.345 283.828 306.744C284.473 306.144 285.337 305.843 286.421 305.843C287.49 305.843 288.347 306.144 288.992 306.744C289.651 307.345 289.98 308.106 289.98 309.029C289.98 309.952 289.651 310.714 288.992 311.314C288.347 311.915 287.49 312.215 286.421 312.215C285.337 312.215 284.473 311.915 283.828 311.314C283.184 310.714 282.861 309.952 282.861 309.029ZM307.668 333.639V323.048C307.668 322.286 307.544 321.634 307.295 321.092C307.046 320.536 306.658 320.104 306.13 319.796C305.618 319.488 304.951 319.334 304.131 319.334C303.428 319.334 302.82 319.459 302.307 319.708C301.794 319.942 301.399 320.287 301.121 320.741C300.842 321.18 300.703 321.7 300.703 322.301H294.375C294.375 321.29 294.609 320.331 295.078 319.422C295.547 318.514 296.228 317.716 297.122 317.027C298.015 316.324 299.077 315.775 300.308 315.379C301.553 314.984 302.944 314.786 304.482 314.786C306.328 314.786 307.969 315.094 309.404 315.709C310.84 316.324 311.968 317.247 312.788 318.478C313.623 319.708 314.041 321.246 314.041 323.092V333.265C314.041 334.569 314.121 335.638 314.282 336.473C314.443 337.293 314.678 338.011 314.985 338.626V339H308.591C308.284 338.355 308.049 337.55 307.888 336.583C307.742 335.602 307.668 334.62 307.668 333.639ZM308.503 324.52L308.547 328.102H305.01C304.175 328.102 303.45 328.197 302.834 328.387C302.219 328.578 301.714 328.849 301.318 329.2C300.923 329.537 300.63 329.933 300.439 330.387C300.264 330.841 300.176 331.339 300.176 331.881C300.176 332.423 300.3 332.914 300.549 333.353C300.798 333.778 301.157 334.115 301.626 334.364C302.095 334.598 302.644 334.715 303.274 334.715C304.226 334.715 305.054 334.525 305.757 334.144C306.46 333.763 307.002 333.294 307.383 332.738C307.778 332.181 307.983 331.654 307.998 331.156L309.668 333.836C309.434 334.437 309.111 335.06 308.701 335.704C308.306 336.349 307.8 336.957 307.185 337.528C306.57 338.084 305.83 338.546 304.966 338.912C304.102 339.264 303.076 339.439 301.89 339.439C300.381 339.439 299.011 339.139 297.781 338.539C296.565 337.923 295.598 337.081 294.88 336.012C294.177 334.928 293.826 333.697 293.826 332.32C293.826 331.075 294.06 329.969 294.529 329.002C294.998 328.036 295.686 327.223 296.594 326.563C297.517 325.89 298.667 325.384 300.044 325.047C301.421 324.696 303.018 324.52 304.834 324.52H308.503ZM325.598 305.25V339H319.248V305.25H325.598ZM132.085 360.008V392H125.515V360.008H132.085ZM141.929 360.008V365.171H115.825V360.008H141.929ZM154.167 392.439C152.322 392.439 150.667 392.146 149.202 391.561C147.737 390.96 146.492 390.132 145.466 389.078C144.456 388.023 143.679 386.8 143.137 385.408C142.595 384.002 142.324 382.508 142.324 380.926V380.047C142.324 378.245 142.581 376.597 143.093 375.103C143.606 373.609 144.338 372.312 145.291 371.214C146.257 370.115 147.429 369.273 148.806 368.687C150.183 368.086 151.736 367.786 153.464 367.786C155.149 367.786 156.643 368.064 157.947 368.621C159.25 369.178 160.342 369.969 161.221 370.994C162.114 372.02 162.788 373.25 163.242 374.686C163.696 376.106 163.923 377.688 163.923 379.432V382.068H145.027V377.85H157.705V377.366C157.705 376.487 157.544 375.704 157.222 375.015C156.914 374.312 156.445 373.755 155.815 373.345C155.186 372.935 154.38 372.73 153.398 372.73C152.563 372.73 151.846 372.913 151.245 373.279C150.645 373.646 150.154 374.158 149.773 374.817C149.407 375.477 149.128 376.253 148.938 377.146C148.762 378.025 148.674 378.992 148.674 380.047V380.926C148.674 381.878 148.806 382.757 149.07 383.562C149.348 384.368 149.736 385.064 150.234 385.65C150.747 386.236 151.362 386.69 152.08 387.012C152.812 387.334 153.64 387.496 154.563 387.496C155.706 387.496 156.768 387.276 157.749 386.836C158.745 386.382 159.602 385.701 160.32 384.793L163.396 388.133C162.898 388.851 162.217 389.539 161.353 390.198C160.503 390.857 159.478 391.399 158.276 391.824C157.075 392.234 155.706 392.439 154.167 392.439ZM177.349 387.496C178.125 387.496 178.813 387.349 179.414 387.056C180.015 386.749 180.483 386.324 180.82 385.782C181.172 385.225 181.355 384.573 181.37 383.826H187.324C187.31 385.496 186.863 386.983 185.984 388.287C185.105 389.576 183.926 390.594 182.446 391.341C180.967 392.073 179.312 392.439 177.48 392.439C175.635 392.439 174.023 392.132 172.646 391.517C171.284 390.901 170.149 390.052 169.241 388.968C168.333 387.869 167.651 386.595 167.197 385.145C166.743 383.68 166.516 382.112 166.516 380.442V379.805C166.516 378.121 166.743 376.553 167.197 375.103C167.651 373.638 168.333 372.364 169.241 371.28C170.149 370.181 171.284 369.324 172.646 368.709C174.009 368.094 175.605 367.786 177.437 367.786C179.385 367.786 181.091 368.16 182.556 368.907C184.036 369.654 185.193 370.723 186.028 372.115C186.877 373.492 187.31 375.125 187.324 377.015H181.37C181.355 376.224 181.187 375.506 180.864 374.861C180.557 374.217 180.103 373.704 179.502 373.323C178.916 372.928 178.191 372.73 177.327 372.73C176.404 372.73 175.649 372.928 175.063 373.323C174.478 373.704 174.023 374.231 173.701 374.905C173.379 375.564 173.152 376.319 173.02 377.168C172.903 378.003 172.844 378.882 172.844 379.805V380.442C172.844 381.365 172.903 382.251 173.02 383.101C173.137 383.951 173.357 384.705 173.679 385.364C174.016 386.023 174.478 386.543 175.063 386.924C175.649 387.305 176.411 387.496 177.349 387.496ZM197.168 358.25V392H190.84V358.25H197.168ZM196.267 379.278H194.531C194.546 377.623 194.766 376.099 195.19 374.708C195.615 373.301 196.223 372.085 197.014 371.06C197.805 370.02 198.75 369.214 199.849 368.643C200.962 368.072 202.192 367.786 203.54 367.786C204.712 367.786 205.774 367.955 206.726 368.292C207.693 368.614 208.521 369.141 209.209 369.874C209.912 370.591 210.454 371.536 210.835 372.708C211.216 373.88 211.406 375.301 211.406 376.971V392H205.034V376.927C205.034 375.872 204.88 375.044 204.573 374.444C204.28 373.829 203.848 373.396 203.276 373.147C202.72 372.884 202.031 372.752 201.211 372.752C200.303 372.752 199.526 372.92 198.882 373.257C198.252 373.594 197.747 374.063 197.366 374.664C196.985 375.25 196.707 375.938 196.531 376.729C196.355 377.52 196.267 378.37 196.267 379.278ZM222.415 373.301V392H216.086V368.226H222.019L222.415 373.301ZM221.492 379.278H219.778C219.778 377.52 220.005 375.938 220.459 374.532C220.913 373.111 221.55 371.902 222.371 370.906C223.191 369.896 224.165 369.126 225.293 368.599C226.436 368.057 227.71 367.786 229.116 367.786C230.229 367.786 231.248 367.947 232.17 368.27C233.093 368.592 233.884 369.104 234.543 369.808C235.217 370.511 235.73 371.441 236.082 372.598C236.448 373.755 236.631 375.169 236.631 376.839V392H230.259V376.817C230.259 375.762 230.112 374.942 229.819 374.356C229.526 373.77 229.094 373.36 228.523 373.125C227.966 372.876 227.278 372.752 226.458 372.752C225.608 372.752 224.868 372.92 224.238 373.257C223.623 373.594 223.11 374.063 222.7 374.664C222.305 375.25 222.004 375.938 221.799 376.729C221.594 377.52 221.492 378.37 221.492 379.278ZM240.432 380.354V379.893C240.432 378.15 240.681 376.546 241.179 375.081C241.677 373.602 242.402 372.32 243.354 371.236C244.307 370.152 245.479 369.31 246.87 368.709C248.262 368.094 249.858 367.786 251.66 367.786C253.462 367.786 255.066 368.094 256.472 368.709C257.878 369.31 259.058 370.152 260.01 371.236C260.977 372.32 261.709 373.602 262.207 375.081C262.705 376.546 262.954 378.15 262.954 379.893V380.354C262.954 382.083 262.705 383.687 262.207 385.167C261.709 386.631 260.977 387.913 260.01 389.012C259.058 390.096 257.886 390.938 256.494 391.539C255.103 392.139 253.506 392.439 251.704 392.439C249.902 392.439 248.298 392.139 246.892 391.539C245.5 390.938 244.321 390.096 243.354 389.012C242.402 387.913 241.677 386.631 241.179 385.167C240.681 383.687 240.432 382.083 240.432 380.354ZM246.76 379.893V380.354C246.76 381.351 246.848 382.281 247.024 383.145C247.2 384.009 247.478 384.771 247.859 385.43C248.254 386.075 248.767 386.58 249.397 386.946C250.027 387.312 250.796 387.496 251.704 387.496C252.583 387.496 253.337 387.312 253.967 386.946C254.597 386.58 255.103 386.075 255.483 385.43C255.864 384.771 256.143 384.009 256.318 383.145C256.509 382.281 256.604 381.351 256.604 380.354V379.893C256.604 378.926 256.509 378.018 256.318 377.168C256.143 376.304 255.857 375.542 255.461 374.883C255.081 374.209 254.575 373.682 253.945 373.301C253.315 372.92 252.554 372.73 251.66 372.73C250.767 372.73 250.005 372.92 249.375 373.301C248.76 373.682 248.254 374.209 247.859 374.883C247.478 375.542 247.2 376.304 247.024 377.168C246.848 378.018 246.76 378.926 246.76 379.893ZM273.523 358.25V392H267.173V358.25H273.523ZM277.742 380.354V379.893C277.742 378.15 277.991 376.546 278.489 375.081C278.987 373.602 279.712 372.32 280.664 371.236C281.616 370.152 282.788 369.31 284.18 368.709C285.571 368.094 287.168 367.786 288.97 367.786C290.771 367.786 292.375 368.094 293.782 368.709C295.188 369.31 296.367 370.152 297.319 371.236C298.286 372.32 299.019 373.602 299.517 375.081C300.015 376.546 300.264 378.15 300.264 379.893V380.354C300.264 382.083 300.015 383.687 299.517 385.167C299.019 386.631 298.286 387.913 297.319 389.012C296.367 390.096 295.195 390.938 293.804 391.539C292.412 392.139 290.815 392.439 289.014 392.439C287.212 392.439 285.608 392.139 284.202 391.539C282.81 390.938 281.631 390.096 280.664 389.012C279.712 387.913 278.987 386.631 278.489 385.167C277.991 383.687 277.742 382.083 277.742 380.354ZM284.07 379.893V380.354C284.07 381.351 284.158 382.281 284.333 383.145C284.509 384.009 284.788 384.771 285.168 385.43C285.564 386.075 286.077 386.58 286.707 386.946C287.336 387.312 288.105 387.496 289.014 387.496C289.893 387.496 290.647 387.312 291.277 386.946C291.907 386.58 292.412 386.075 292.793 385.43C293.174 384.771 293.452 384.009 293.628 383.145C293.818 382.281 293.914 381.351 293.914 380.354V379.893C293.914 378.926 293.818 378.018 293.628 377.168C293.452 376.304 293.167 375.542 292.771 374.883C292.39 374.209 291.885 373.682 291.255 373.301C290.625 372.92 289.863 372.73 288.97 372.73C288.076 372.73 287.314 372.92 286.685 373.301C286.069 373.682 285.564 374.209 285.168 374.883C284.788 375.542 284.509 376.304 284.333 377.168C284.158 378.018 284.07 378.926 284.07 379.893ZM319.204 368.226H324.939V391.209C324.939 393.377 324.456 395.215 323.489 396.724C322.537 398.248 321.204 399.397 319.49 400.174C317.776 400.965 315.784 401.36 313.513 401.36C312.517 401.36 311.462 401.229 310.349 400.965C309.25 400.701 308.196 400.291 307.185 399.734C306.189 399.178 305.354 398.475 304.68 397.625L307.471 393.89C308.203 394.739 309.053 395.398 310.02 395.867C310.986 396.351 312.056 396.592 313.228 396.592C314.37 396.592 315.337 396.38 316.128 395.955C316.919 395.545 317.527 394.937 317.952 394.131C318.376 393.34 318.589 392.381 318.589 391.253V373.719L319.204 368.226ZM303.208 380.398V379.937C303.208 378.121 303.428 376.473 303.867 374.993C304.321 373.499 304.958 372.217 305.779 371.148C306.614 370.079 307.625 369.251 308.811 368.665C309.998 368.079 311.338 367.786 312.832 367.786C314.414 367.786 315.74 368.079 316.809 368.665C317.878 369.251 318.757 370.086 319.446 371.17C320.134 372.239 320.669 373.506 321.05 374.971C321.445 376.421 321.753 378.011 321.973 379.739V380.75C321.753 382.405 321.423 383.943 320.984 385.364C320.544 386.785 319.966 388.03 319.248 389.1C318.53 390.154 317.637 390.975 316.567 391.561C315.513 392.146 314.253 392.439 312.788 392.439C311.323 392.439 309.998 392.139 308.811 391.539C307.639 390.938 306.636 390.096 305.801 389.012C304.966 387.928 304.321 386.653 303.867 385.188C303.428 383.724 303.208 382.127 303.208 380.398ZM309.536 379.937V380.398C309.536 381.38 309.631 382.295 309.822 383.145C310.012 383.995 310.305 384.749 310.701 385.408C311.111 386.053 311.616 386.558 312.217 386.924C312.832 387.276 313.557 387.452 314.392 387.452C315.549 387.452 316.494 387.21 317.227 386.727C317.959 386.229 318.508 385.547 318.875 384.683C319.241 383.819 319.453 382.823 319.512 381.695V378.816C319.482 377.894 319.358 377.066 319.138 376.333C318.918 375.586 318.611 374.949 318.215 374.422C317.82 373.895 317.307 373.484 316.677 373.191C316.047 372.898 315.3 372.752 314.436 372.752C313.601 372.752 312.876 372.942 312.261 373.323C311.66 373.689 311.155 374.195 310.745 374.839C310.349 375.484 310.049 376.246 309.844 377.125C309.639 377.989 309.536 378.926 309.536 379.937ZM336.914 389.319L343.22 368.226H350.01L340.452 395.582C340.247 396.182 339.968 396.827 339.617 397.515C339.28 398.204 338.818 398.855 338.232 399.471C337.661 400.101 336.936 400.613 336.057 401.009C335.193 401.404 334.131 401.602 332.871 401.602C332.271 401.602 331.78 401.565 331.399 401.492C331.018 401.419 330.564 401.316 330.037 401.185V396.548C330.198 396.548 330.366 396.548 330.542 396.548C330.718 396.563 330.886 396.57 331.047 396.57C331.882 396.57 332.563 396.475 333.091 396.285C333.618 396.094 334.043 395.801 334.365 395.406C334.688 395.025 334.944 394.527 335.134 393.912L336.914 389.319ZM334.277 368.226L339.441 385.452L340.342 392.154L336.035 392.615L327.488 368.226H334.277Z" fill="white"/>
<path d="M339.603 511.515C335.137 503.78 335.137 494.25 339.603 486.515L414.472 356.838C418.938 349.103 427.191 344.338 436.123 344.338H585.861C594.793 344.338 603.046 349.103 607.512 356.838L682.381 486.515C686.847 494.25 686.847 503.78 682.381 511.515L607.512 641.193C603.046 648.928 594.793 653.693 585.861 653.693H436.123C427.191 653.693 418.938 648.928 414.472 641.193L339.603 511.515Z" fill="#89C958" fill-opacity="0.78"/>
</g>
<defs>
<clipPath id="clip0_1591_585">
<rect width="1440" height="567" fill="white"/>
</clipPath>
</defs>
</svg>
