<svg width="1440" height="567" viewBox="0 0 1440 567" fill="none" xmlns="http://www.w3.org/2000/svg">
<g clip-path="url(#clip0_1597_656)">
<path d="M1656.78 191.106C1661.25 183.371 1661.25 173.841 1656.78 166.106L1581.91 36.4287C1577.45 28.6937 1569.2 23.9287 1560.26 23.9287H1410.52C1401.59 23.9287 1393.34 28.6937 1388.87 36.4287L1314 166.106C1309.54 173.841 1309.54 183.371 1314 191.106L1388.87 320.784C1393.34 328.519 1401.59 333.284 1410.52 333.284H1560.26C1569.2 333.284 1577.45 328.519 1581.91 320.784L1656.78 191.106Z" fill="#89C958" fill-opacity="0.78"/>
<path d="M1378.59 671.719C1383.06 663.984 1383.06 654.454 1378.59 646.719L1303.72 517.042C1299.26 509.307 1291 504.542 1282.07 504.542H1132.33C1123.4 504.542 1115.15 509.307 1110.68 517.042L1035.81 646.719C1031.35 654.454 1031.35 663.984 1035.81 671.719L1110.68 801.397C1115.15 809.132 1123.4 813.897 1132.33 813.897H1282.07C1291 813.897 1299.26 809.132 1303.72 801.397L1378.59 671.719Z" fill="#89C958" fill-opacity="0.78"/>
<path d="M1656.78 511.515C1661.25 503.78 1661.25 494.25 1656.78 486.515L1581.91 356.838C1577.45 349.103 1569.2 344.338 1560.26 344.338H1410.52C1401.59 344.338 1393.34 349.103 1388.87 356.838L1314 486.515C1309.54 494.25 1309.54 503.78 1314 511.515L1388.87 641.193C1393.34 648.928 1401.59 653.693 1410.52 653.693H1560.26C1569.2 653.693 1577.45 648.928 1581.91 641.193L1656.78 511.515Z" fill="#89C958" fill-opacity="0.78"/>
<path d="M822.203 671.719C826.669 663.984 826.669 654.454 822.203 646.719L747.334 517.042C742.868 509.307 734.615 504.542 725.683 504.542H575.944C567.013 504.542 558.759 509.307 554.294 517.042L479.424 646.719C474.958 654.454 474.958 663.984 479.424 671.719L554.294 801.397C558.759 809.132 567.013 813.897 575.944 813.897H725.683C734.615 813.897 742.868 809.132 747.334 801.397L822.203 671.719Z" fill="#89C958" fill-opacity="0.78"/>
<path d="M544.013 511.515C548.478 503.78 548.478 494.25 544.013 486.515L469.143 356.838C464.677 349.103 456.424 344.338 447.493 344.338H297.751C288.821 344.338 280.571 349.103 276.101 356.838L201.231 486.515C196.771 494.25 196.771 503.78 201.231 511.515L276.101 641.193C280.571 648.928 288.821 653.693 297.751 653.693H447.493C456.424 653.693 464.677 648.928 469.143 641.193L544.013 511.515Z" fill="#89C958" fill-opacity="0.78"/>
<path d="M265.819 671.719C270.289 663.984 270.289 654.454 265.819 646.719L190.949 517.042C186.479 509.307 178.229 504.542 169.299 504.542H19.5595C10.6295 504.542 2.37945 509.307 -2.09055 517.042L-76.9605 646.719C-81.4305 654.454 -81.4305 663.984 -76.9605 671.719L-2.09055 801.397C2.37945 809.132 10.6295 813.897 19.5595 813.897H169.299C178.229 813.897 186.479 809.132 190.949 801.397L265.819 671.719Z" fill="#89C958" fill-opacity="0.78"/>
<path d="M1378.59 351.311C1383.06 343.576 1383.06 334.046 1378.59 326.311L1303.72 196.633C1299.26 188.898 1291 184.133 1282.07 184.133H1132.33C1123.4 184.133 1115.15 188.898 1110.68 196.633L1035.81 326.311C1031.35 334.046 1031.35 343.576 1035.81 351.311L1110.68 480.988C1115.15 488.723 1123.4 493.488 1132.33 493.488H1282.07C1291 493.488 1299.26 488.723 1303.72 480.988L1378.59 351.311Z" fill="#89C958" fill-opacity="0.78"/>
<path d="M1090.41 321.88C1090.41 321.267 1090.46 320.547 1090.57 319.72C1090.68 318.893 1090.88 317.96 1091.17 316.92C1091.46 315.853 1091.9 314.667 1092.49 313.36L1097.41 315.08C1097.12 315.907 1096.86 316.667 1096.65 317.36C1096.44 318.027 1096.28 318.653 1096.17 319.24C1096.06 319.8 1096.01 320.36 1096.01 320.92C1096.01 321.72 1096.18 322.467 1096.53 323.16C1096.88 323.853 1097.4 324.453 1098.09 324.96C1098.78 325.493 1099.64 325.907 1100.65 326.2C1101.69 326.493 1102.89 326.64 1104.25 326.64C1105.8 326.64 1107.16 326.493 1108.33 326.2C1109.53 325.933 1110.53 325.573 1111.33 325.12C1112.16 324.693 1112.78 324.24 1113.21 323.76C1113.64 323.28 1113.85 322.84 1113.85 322.44C1113.85 322.12 1113.62 321.84 1113.17 321.6C1112.74 321.36 1112.17 321.12 1111.45 320.88C1110.76 320.613 1110.01 320.32 1109.21 320C1108.44 319.68 1107.69 319.28 1106.97 318.8C1106.28 318.32 1105.7 317.733 1105.25 317.04C1104.82 316.347 1104.61 315.507 1104.61 314.52C1104.61 313.507 1104.88 312.4 1105.41 311.2C1105.94 309.973 1106.7 308.813 1107.69 307.72C1108.68 306.6 1109.85 305.693 1111.21 305C1112.6 304.28 1114.12 303.92 1115.77 303.92C1116.94 303.92 1118.01 304.107 1118.97 304.48C1119.96 304.853 1120.78 305.28 1121.45 305.76L1119.37 310.44C1118.81 310.067 1118.21 309.787 1117.57 309.6C1116.93 309.387 1116.32 309.28 1115.73 309.28C1114.98 309.28 1114.26 309.427 1113.57 309.72C1112.9 310.013 1112.3 310.4 1111.77 310.88C1111.26 311.333 1110.86 311.827 1110.57 312.36C1110.28 312.893 1110.13 313.4 1110.13 313.88C1110.13 314.36 1110.36 314.787 1110.81 315.16C1111.29 315.507 1111.9 315.84 1112.65 316.16C1113.4 316.453 1114.18 316.76 1115.01 317.08C1115.84 317.4 1116.62 317.76 1117.37 318.16C1118.12 318.56 1118.72 319.04 1119.17 319.6C1119.65 320.16 1119.89 320.84 1119.89 321.64C1119.89 322.787 1119.53 323.973 1118.81 325.2C1118.12 326.453 1117.08 327.613 1115.69 328.68C1114.3 329.747 1112.6 330.6 1110.57 331.24C1108.57 331.907 1106.25 332.24 1103.61 332.24C1101.69 332.24 1099.93 332.013 1098.33 331.56C1096.73 331.133 1095.33 330.48 1094.13 329.6C1092.96 328.747 1092.04 327.667 1091.37 326.36C1090.73 325.08 1090.41 323.587 1090.41 321.88ZM1134.9 323.2C1132.42 323.2 1130.5 322.947 1129.14 322.44C1127.81 321.933 1126.88 321.147 1126.34 320.08C1125.81 318.987 1125.5 317.613 1125.42 315.96L1124.58 293.72H1130.18L1131.02 313.28C1131.08 314.507 1131.21 315.427 1131.42 316.04C1131.64 316.653 1132.04 317.067 1132.62 317.28C1133.24 317.493 1134.13 317.6 1135.3 317.6C1136.32 317.6 1137.04 317.867 1137.46 318.4C1137.92 318.907 1138.14 319.547 1138.14 320.32C1138.14 321.147 1137.86 321.84 1137.3 322.4C1136.74 322.933 1135.94 323.2 1134.9 323.2ZM1151.24 323.32C1150.04 323.32 1148.8 323.173 1147.52 322.88C1146.26 322.587 1145.05 322.147 1143.88 321.56C1142.7 320.973 1141.65 320.24 1140.72 319.36C1139.78 318.48 1139.04 317.467 1138.48 316.32C1137.94 315.147 1137.68 313.827 1137.68 312.36C1137.68 311.16 1137.93 310.053 1138.44 309.04C1138.94 308.027 1139.69 307.213 1140.68 306.6C1141.69 305.96 1142.92 305.64 1144.36 305.64C1145.72 305.64 1146.89 305.973 1147.88 306.64C1148.89 307.28 1149.68 308.12 1150.24 309.16C1150.8 310.173 1151.08 311.24 1151.08 312.36C1151.08 314.147 1150.64 315.72 1149.76 317.08C1148.88 318.413 1147.66 319.533 1146.12 320.44C1144.6 321.347 1142.88 322.04 1140.96 322.52C1139.04 322.973 1137.04 323.2 1134.96 323.2L1135.36 317.6C1136.88 317.6 1138.2 317.56 1139.32 317.48C1140.46 317.4 1141.45 317.227 1142.28 316.96C1143.1 316.693 1143.82 316.293 1144.44 315.76C1145.05 315.227 1145.52 314.64 1145.84 314C1146.18 313.333 1146.36 312.68 1146.36 312.04C1146.36 311.613 1146.29 311.213 1146.16 310.84C1146.05 310.467 1145.86 310.16 1145.6 309.92C1145.36 309.653 1145.04 309.52 1144.64 309.52C1144.21 309.52 1143.85 309.653 1143.56 309.92C1143.29 310.16 1143.08 310.48 1142.92 310.88C1142.78 311.28 1142.72 311.707 1142.72 312.16C1142.72 313.093 1142.96 313.933 1143.44 314.68C1143.94 315.427 1144.61 316.053 1145.44 316.56C1146.26 317.067 1147.17 317.453 1148.16 317.72C1149.17 317.987 1150.2 318.12 1151.24 318.12C1152.06 318.12 1152.65 317.987 1153 317.72C1153.34 317.453 1153.52 317.093 1153.52 316.64C1153.52 316.32 1153.44 315.987 1153.28 315.64C1153.14 315.267 1152.84 314.813 1152.36 314.28C1151.88 313.747 1151.14 313.093 1150.16 312.32C1149.17 311.52 1147.85 310.533 1146.2 309.36C1144.54 308.187 1142.46 306.76 1139.96 305.08L1143.04 300.72C1145.86 302.72 1148.22 304.467 1150.12 305.96C1152.04 307.453 1153.58 308.76 1154.76 309.88C1155.93 311 1156.82 311.987 1157.44 312.84C1158.08 313.667 1158.5 314.427 1158.72 315.12C1158.93 315.813 1159.04 316.507 1159.04 317.2C1159.04 318.48 1158.73 319.573 1158.12 320.48C1157.5 321.387 1156.61 322.093 1155.44 322.6C1154.29 323.08 1152.89 323.32 1151.24 323.32ZM1171.58 321.88C1171.58 321.267 1171.64 320.547 1171.74 319.72C1171.85 318.893 1172.05 317.96 1172.34 316.92C1172.64 315.853 1173.08 314.667 1173.66 313.36L1178.58 315.08C1178.29 315.907 1178.04 316.667 1177.82 317.36C1177.61 318.027 1177.45 318.653 1177.34 319.24C1177.24 319.8 1177.18 320.36 1177.18 320.92C1177.18 321.72 1177.36 322.467 1177.7 323.16C1178.05 323.853 1178.57 324.453 1179.26 324.96C1179.96 325.493 1180.81 325.907 1181.82 326.2C1182.86 326.493 1184.06 326.64 1185.42 326.64C1186.97 326.64 1188.33 326.493 1189.5 326.2C1190.7 325.933 1191.7 325.573 1192.5 325.12C1193.33 324.693 1193.96 324.24 1194.38 323.76C1194.81 323.28 1195.02 322.84 1195.02 322.44C1195.02 322.12 1194.8 321.84 1194.34 321.6C1193.92 321.36 1193.34 321.12 1192.62 320.88C1191.93 320.613 1191.18 320.32 1190.38 320C1189.61 319.68 1188.86 319.28 1188.14 318.8C1187.45 318.32 1186.88 317.733 1186.42 317.04C1186 316.347 1185.78 315.507 1185.78 314.52C1185.78 313.507 1186.05 312.4 1186.58 311.2C1187.12 309.973 1187.88 308.813 1188.86 307.72C1189.85 306.6 1191.02 305.693 1192.38 305C1193.77 304.28 1195.29 303.92 1196.94 303.92C1198.12 303.92 1199.18 304.107 1200.14 304.48C1201.13 304.853 1201.96 305.28 1202.62 305.76L1200.54 310.44C1199.98 310.067 1199.38 309.787 1198.74 309.6C1198.1 309.387 1197.49 309.28 1196.9 309.28C1196.16 309.28 1195.44 309.427 1194.74 309.72C1194.08 310.013 1193.48 310.4 1192.94 310.88C1192.44 311.333 1192.04 311.827 1191.74 312.36C1191.45 312.893 1191.3 313.4 1191.3 313.88C1191.3 314.36 1191.53 314.787 1191.98 315.16C1192.46 315.507 1193.08 315.84 1193.82 316.16C1194.57 316.453 1195.36 316.76 1196.18 317.08C1197.01 317.4 1197.8 317.76 1198.54 318.16C1199.29 318.56 1199.89 319.04 1200.34 319.6C1200.82 320.16 1201.06 320.84 1201.06 321.64C1201.06 322.787 1200.7 323.973 1199.98 325.2C1199.29 326.453 1198.25 327.613 1196.86 328.68C1195.48 329.747 1193.77 330.6 1191.74 331.24C1189.74 331.907 1187.42 332.24 1184.78 332.24C1182.86 332.24 1181.1 332.013 1179.5 331.56C1177.9 331.133 1176.5 330.48 1175.3 329.6C1174.13 328.747 1173.21 327.667 1172.54 326.36C1171.9 325.08 1171.58 323.587 1171.58 321.88ZM1204.03 332.2L1201.99 327.08C1204.29 326.28 1206.14 325.4 1207.55 324.44C1208.99 323.48 1210.05 322.453 1210.71 321.36C1211.41 320.267 1211.75 319.133 1211.75 317.96C1211.75 317.213 1211.65 316.44 1211.43 315.64C1211.22 314.813 1210.91 313.947 1210.51 313.04C1210.14 312.133 1209.69 311.187 1209.15 310.2L1214.39 307.68C1215.33 309.467 1216.05 311.173 1216.55 312.8C1217.09 314.427 1217.35 315.947 1217.35 317.36C1217.35 318.667 1217.18 319.92 1216.83 321.12C1216.51 322.32 1216.01 323.44 1215.31 324.48C1214.65 325.547 1213.78 326.547 1212.71 327.48C1211.65 328.413 1210.39 329.267 1208.95 330.04C1207.51 330.84 1205.87 331.56 1204.03 332.2ZM1212.83 298.32C1212.17 298.32 1211.58 298.067 1211.07 297.56C1210.59 297.053 1210.35 296.453 1210.35 295.76C1210.35 295.067 1210.59 294.48 1211.07 294C1211.58 293.52 1212.17 293.28 1212.83 293.28C1213.53 293.28 1214.11 293.52 1214.59 294C1215.07 294.48 1215.31 295.067 1215.31 295.76C1215.31 296.453 1215.07 297.053 1214.59 297.56C1214.11 298.067 1213.53 298.32 1212.83 298.32ZM1209.63 303.6C1208.97 303.6 1208.38 303.347 1207.87 302.84C1207.39 302.333 1207.15 301.733 1207.15 301.04C1207.15 300.347 1207.39 299.76 1207.87 299.28C1208.38 298.8 1208.97 298.56 1209.63 298.56C1210.33 298.56 1210.91 298.8 1211.39 299.28C1211.87 299.76 1212.11 300.347 1212.11 301.04C1212.11 301.733 1211.87 302.333 1211.39 302.84C1210.91 303.347 1210.33 303.6 1209.63 303.6ZM1215.83 303.6C1215.17 303.6 1214.58 303.347 1214.07 302.84C1213.59 302.333 1213.35 301.733 1213.35 301.04C1213.35 300.347 1213.59 299.76 1214.07 299.28C1214.58 298.8 1215.17 298.56 1215.83 298.56C1216.53 298.56 1217.11 298.8 1217.59 299.28C1218.07 299.76 1218.31 300.347 1218.31 301.04C1218.31 301.733 1218.07 302.333 1217.59 302.84C1217.11 303.347 1216.53 303.6 1215.83 303.6ZM1222.04 332.2L1220.88 326.6C1222.78 326.36 1224.43 326.067 1225.84 325.72C1227.26 325.4 1228.44 324.947 1229.4 324.36C1230.36 323.773 1231.08 322.973 1231.56 321.96C1232.04 320.92 1232.28 319.587 1232.28 317.96C1232.28 316.387 1232.04 315.133 1231.56 314.2C1231.08 313.267 1230.44 312.8 1229.64 312.8C1229.08 312.8 1228.62 313 1228.24 313.4C1227.87 313.773 1227.59 314.227 1227.4 314.76C1227.24 315.267 1227.16 315.72 1227.16 316.12C1227.16 316.36 1227.23 316.613 1227.36 316.88C1227.5 317.147 1227.79 317.373 1228.24 317.56C1228.7 317.747 1229.4 317.853 1230.36 317.88C1231.35 317.907 1232.68 317.813 1234.36 317.6H1241.08C1242.1 317.6 1242.82 317.867 1243.24 318.4C1243.7 318.907 1243.92 319.547 1243.92 320.32C1243.92 321.147 1243.64 321.84 1243.08 322.4C1242.52 322.933 1241.72 323.2 1240.68 323.2H1229.68C1228 323.2 1226.56 323 1225.36 322.6C1224.16 322.2 1223.24 321.56 1222.6 320.68C1221.96 319.773 1221.64 318.573 1221.64 317.08C1221.64 315.88 1221.84 314.68 1222.24 313.48C1222.67 312.28 1223.26 311.187 1224 310.2C1224.75 309.187 1225.62 308.387 1226.6 307.8C1227.62 307.187 1228.71 306.88 1229.88 306.88C1231.48 306.88 1232.88 307.373 1234.08 308.36C1235.28 309.347 1236.22 310.653 1236.88 312.28C1237.58 313.907 1237.92 315.68 1237.92 317.6C1237.92 320.613 1237.28 323.173 1236 325.28C1234.72 327.387 1232.9 329.013 1230.52 330.16C1228.15 331.333 1225.32 332.013 1222.04 332.2ZM1240.74 323.2L1241.14 317.6C1242.36 317.6 1243.24 317.48 1243.78 317.24C1244.31 316.973 1244.63 316.493 1244.74 315.8C1244.84 315.08 1244.87 314.04 1244.82 312.68L1244.1 293.72H1249.74L1250.54 313.08C1250.59 314.627 1250.52 316.027 1250.34 317.28C1250.18 318.507 1249.76 319.56 1249.1 320.44C1248.46 321.32 1247.46 322 1246.1 322.48C1244.76 322.96 1242.98 323.2 1240.74 323.2ZM1254.89 332.2L1253.73 326.6C1255.63 326.36 1257.28 326.067 1258.69 325.72C1260.11 325.4 1261.29 324.947 1262.25 324.36C1263.21 323.773 1263.93 322.973 1264.41 321.96C1264.89 320.92 1265.13 319.587 1265.13 317.96C1265.13 316.387 1264.89 315.133 1264.41 314.2C1263.93 313.267 1263.29 312.8 1262.49 312.8C1261.93 312.8 1261.47 313 1261.09 313.4C1260.72 313.773 1260.44 314.227 1260.25 314.76C1260.09 315.267 1260.01 315.72 1260.01 316.12C1260.01 316.36 1260.08 316.613 1260.21 316.88C1260.35 317.147 1260.64 317.373 1261.09 317.56C1261.55 317.747 1262.25 317.853 1263.21 317.88C1264.2 317.907 1265.53 317.813 1267.21 317.6H1273.93C1274.95 317.6 1275.67 317.867 1276.09 318.4C1276.55 318.907 1276.77 319.547 1276.77 320.32C1276.77 321.147 1276.49 321.84 1275.93 322.4C1275.37 322.933 1274.57 323.2 1273.53 323.2H1262.53C1260.85 323.2 1259.41 323 1258.21 322.6C1257.01 322.2 1256.09 321.56 1255.45 320.68C1254.81 319.773 1254.49 318.573 1254.49 317.08C1254.49 315.88 1254.69 314.68 1255.09 313.48C1255.52 312.28 1256.11 311.187 1256.85 310.2C1257.6 309.187 1258.47 308.387 1259.45 307.8C1260.47 307.187 1261.56 306.88 1262.73 306.88C1264.33 306.88 1265.73 307.373 1266.93 308.36C1268.13 309.347 1269.07 310.653 1269.73 312.28C1270.43 313.907 1270.77 315.68 1270.77 317.6C1270.77 320.613 1270.13 323.173 1268.85 325.28C1267.57 327.387 1265.75 329.013 1263.37 330.16C1261 331.333 1258.17 332.013 1254.89 332.2ZM1273.59 323.2L1273.99 317.6C1275 317.6 1275.8 317.507 1276.39 317.32C1277 317.133 1277.48 316.76 1277.83 316.2C1278.2 315.613 1278.51 314.76 1278.75 313.64C1279.02 312.52 1279.28 311.027 1279.55 309.16L1284.79 310.04C1284.74 310.44 1284.66 310.907 1284.55 311.44C1284.47 311.973 1284.39 312.52 1284.31 313.08C1284.26 313.613 1284.23 314.12 1284.23 314.6C1284.23 315.24 1284.36 315.787 1284.63 316.24C1284.92 316.667 1285.43 317 1286.15 317.24C1286.9 317.48 1287.96 317.6 1289.35 317.6C1290.36 317.6 1291.08 317.867 1291.51 318.4C1291.94 318.907 1292.15 319.547 1292.15 320.32C1292.15 321.147 1291.87 321.84 1291.31 322.4C1290.78 322.933 1289.99 323.2 1288.95 323.2C1287.11 323.2 1285.62 323.027 1284.47 322.68C1283.32 322.333 1282.47 321.747 1281.91 320.92C1281.35 320.093 1280.99 318.96 1280.83 317.52H1282.75C1282.27 318.8 1281.71 319.827 1281.07 320.6C1280.43 321.347 1279.71 321.907 1278.91 322.28C1278.11 322.653 1277.26 322.893 1276.35 323C1275.47 323.133 1274.55 323.2 1273.59 323.2ZM1281.75 305.08C1280.92 305.08 1280.22 304.8 1279.63 304.24C1279.07 303.68 1278.79 302.987 1278.79 302.16C1278.79 301.333 1279.07 300.627 1279.63 300.04C1280.22 299.453 1280.92 299.16 1281.75 299.16C1282.55 299.16 1283.23 299.453 1283.79 300.04C1284.38 300.627 1284.67 301.333 1284.67 302.16C1284.67 302.987 1284.38 303.68 1283.79 304.24C1283.23 304.8 1282.55 305.08 1281.75 305.08ZM1288.94 323.2L1289.34 317.6H1294.94C1295.87 317.6 1296.58 317.547 1297.06 317.44C1297.57 317.333 1297.91 317.173 1298.1 316.96C1298.29 316.72 1298.38 316.44 1298.38 316.12C1298.38 315.64 1298.17 315.08 1297.74 314.44C1297.34 313.8 1296.81 313.133 1296.14 312.44C1295.5 311.747 1294.82 311.053 1294.1 310.36C1293.38 309.64 1292.69 308.973 1292.02 308.36C1291.38 307.747 1290.85 307.213 1290.42 306.76C1290.02 306.28 1289.82 305.933 1289.82 305.72C1289.82 304.973 1289.86 304.387 1289.94 303.96C1290.02 303.507 1290.13 303.147 1290.26 302.88C1290.42 302.613 1290.59 302.387 1290.78 302.2C1291.23 301.747 1291.91 301.24 1292.82 300.68C1293.73 300.093 1294.79 299.48 1296.02 298.84C1297.27 298.173 1298.67 297.48 1300.22 296.76C1301.77 296.013 1303.41 295.24 1305.14 294.44L1307.42 299.32C1305.66 300.093 1304.09 300.813 1302.7 301.48C1301.34 302.12 1300.11 302.72 1299.02 303.28C1297.95 303.813 1296.99 304.32 1296.14 304.8C1295.31 305.28 1294.57 305.733 1293.9 306.16L1294.3 303.2C1295.45 304.187 1296.49 305.12 1297.42 306C1298.35 306.88 1299.22 307.76 1300.02 308.64C1300.82 309.52 1301.57 310.427 1302.26 311.36C1302.98 312.293 1303.67 313.307 1304.34 314.4C1304.93 315.333 1305.53 316.027 1306.14 316.48C1306.78 316.933 1307.39 317.24 1307.98 317.4C1308.59 317.533 1309.14 317.6 1309.62 317.6C1310.63 317.6 1311.35 317.867 1311.78 318.4C1312.23 318.907 1312.46 319.547 1312.46 320.32C1312.46 321.147 1312.18 321.84 1311.62 322.4C1311.06 322.933 1310.26 323.2 1309.22 323.2C1308.34 323.2 1307.39 323.053 1306.38 322.76C1305.37 322.44 1304.42 321.933 1303.54 321.24C1302.66 320.547 1301.99 319.6 1301.54 318.4L1303.7 318.56C1303.3 319.413 1302.82 320.147 1302.26 320.76C1301.73 321.347 1301.09 321.827 1300.34 322.2C1299.59 322.547 1298.74 322.8 1297.78 322.96C1296.82 323.12 1295.74 323.2 1294.54 323.2H1288.94ZM1309.25 323.2L1309.65 317.6C1311.25 317.6 1312.48 317.52 1313.33 317.36C1314.19 317.2 1314.77 316.907 1315.09 316.48C1315.44 316.027 1315.61 315.387 1315.61 314.56C1315.61 313.813 1315.51 312.92 1315.29 311.88C1315.11 310.84 1314.85 309.76 1314.53 308.64C1314.24 307.52 1313.92 306.493 1313.57 305.56L1319.09 304.04C1319.44 304.947 1319.77 306 1320.09 307.2C1320.41 308.4 1320.68 309.64 1320.89 310.92C1321.11 312.173 1321.21 313.387 1321.21 314.56C1321.21 316.373 1320.92 317.853 1320.33 319C1319.75 320.12 1318.92 320.987 1317.85 321.6C1316.81 322.213 1315.56 322.64 1314.09 322.88C1312.63 323.093 1311.01 323.2 1309.25 323.2ZM1320.09 300.8C1319.32 300.8 1318.65 300.533 1318.09 300C1317.56 299.44 1317.29 298.787 1317.29 298.04C1317.29 297.267 1317.56 296.6 1318.09 296.04C1318.65 295.48 1319.32 295.2 1320.09 295.2C1320.84 295.2 1321.48 295.48 1322.01 296.04C1322.55 296.6 1322.81 297.267 1322.81 298.04C1322.81 298.787 1322.55 299.44 1322.01 300C1321.48 300.533 1320.84 300.8 1320.09 300.8ZM1313.17 300.76C1312.4 300.76 1311.73 300.493 1311.17 299.96C1310.64 299.4 1310.37 298.747 1310.37 298C1310.37 297.227 1310.64 296.56 1311.17 296C1311.73 295.44 1312.4 295.16 1313.17 295.16C1313.92 295.16 1314.56 295.44 1315.09 296C1315.63 296.56 1315.89 297.227 1315.89 298C1315.89 298.747 1315.63 299.4 1315.09 299.96C1314.56 300.493 1313.92 300.76 1313.17 300.76ZM1145.18 381.88C1145.18 381.267 1145.23 380.547 1145.34 379.72C1145.44 378.893 1145.64 377.96 1145.94 376.92C1146.23 375.853 1146.67 374.667 1147.26 373.36L1152.18 375.08C1151.88 375.907 1151.63 376.667 1151.42 377.36C1151.2 378.027 1151.04 378.653 1150.94 379.24C1150.83 379.8 1150.78 380.36 1150.78 380.92C1150.78 381.8 1150.96 382.587 1151.34 383.28C1151.74 384 1152.31 384.6 1153.06 385.08C1153.8 385.587 1154.71 385.973 1155.78 386.24C1156.87 386.507 1158.12 386.64 1159.54 386.64C1161 386.64 1162.31 386.573 1163.46 386.44C1164.63 386.307 1165.62 386.107 1166.42 385.84C1167.24 385.573 1167.87 385.227 1168.3 384.8C1168.72 384.4 1168.94 383.933 1168.94 383.4C1168.94 383.16 1168.84 382.933 1168.66 382.72C1168.5 382.507 1168.22 382.28 1167.82 382.04C1167.44 381.8 1166.94 381.547 1166.3 381.28C1165.68 381.013 1164.94 380.72 1164.06 380.4L1165.38 374.76C1166.52 375.24 1167.6 375.667 1168.62 376.04C1169.66 376.387 1170.64 376.68 1171.58 376.92C1172.51 377.133 1173.39 377.307 1174.22 377.44C1175.04 377.547 1175.82 377.6 1176.54 377.6C1177.55 377.6 1178.27 377.867 1178.7 378.4C1179.12 378.907 1179.34 379.547 1179.34 380.32C1179.34 381.147 1179.06 381.84 1178.5 382.4C1177.94 382.933 1177.15 383.2 1176.14 383.2C1175.92 383.2 1175.71 383.2 1175.5 383.2C1175.31 383.2 1175.11 383.2 1174.9 383.2C1174.71 383.2 1174.51 383.2 1174.3 383.2C1174.35 383.467 1174.38 383.693 1174.38 383.88C1174.38 384.093 1174.38 384.293 1174.38 384.48C1174.38 385.36 1174.07 386.253 1173.46 387.16C1172.87 388.067 1171.95 388.907 1170.7 389.68C1169.44 390.453 1167.84 391.067 1165.9 391.52C1163.98 392 1161.68 392.24 1159.02 392.24C1156.14 392.24 1153.66 391.867 1151.58 391.12C1149.52 390.4 1147.94 389.267 1146.82 387.72C1145.72 386.2 1145.18 384.253 1145.18 381.88ZM1176.13 383.2L1176.53 377.6C1177.49 377.6 1178.32 377.507 1179.01 377.32C1179.7 377.133 1180.29 376.76 1180.77 376.2C1181.25 375.613 1181.65 374.76 1181.97 373.64C1182.32 372.52 1182.62 371.027 1182.89 369.16L1188.13 370.04C1188.08 370.44 1188 370.907 1187.89 371.44C1187.81 371.973 1187.73 372.52 1187.65 373.08C1187.6 373.613 1187.57 374.12 1187.57 374.6C1187.57 375.08 1187.66 375.507 1187.85 375.88C1188.04 376.253 1188.33 376.573 1188.73 376.84C1189.16 377.08 1189.7 377.267 1190.37 377.4C1191.06 377.533 1191.9 377.6 1192.89 377.6C1193.9 377.6 1194.62 377.867 1195.05 378.4C1195.48 378.907 1195.69 379.547 1195.69 380.32C1195.69 381.147 1195.41 381.84 1194.85 382.4C1194.32 382.933 1193.53 383.2 1192.49 383.2C1191.29 383.2 1190.2 383.107 1189.21 382.92C1188.25 382.733 1187.41 382.427 1186.69 382C1186 381.547 1185.42 380.96 1184.97 380.24C1184.54 379.493 1184.28 378.587 1184.17 377.52H1186.09C1185.61 378.8 1185 379.827 1184.25 380.6C1183.53 381.347 1182.72 381.907 1181.81 382.28C1180.9 382.653 1179.96 382.893 1178.97 383C1178.01 383.133 1177.06 383.2 1176.13 383.2ZM1188.97 365.56C1188.2 365.56 1187.53 365.293 1186.97 364.76C1186.44 364.2 1186.17 363.547 1186.17 362.8C1186.17 362.027 1186.44 361.36 1186.97 360.8C1187.53 360.24 1188.2 359.96 1188.97 359.96C1189.72 359.96 1190.36 360.24 1190.89 360.8C1191.42 361.36 1191.69 362.027 1191.69 362.8C1191.69 363.547 1191.42 364.2 1190.89 364.76C1190.36 365.293 1189.72 365.56 1188.97 365.56ZM1182.05 365.52C1181.28 365.52 1180.61 365.253 1180.05 364.72C1179.52 364.16 1179.25 363.507 1179.25 362.76C1179.25 361.987 1179.52 361.32 1180.05 360.76C1180.61 360.2 1181.28 359.92 1182.05 359.92C1182.8 359.92 1183.44 360.2 1183.97 360.76C1184.5 361.32 1184.77 361.987 1184.77 362.76C1184.77 363.507 1184.5 364.16 1183.97 364.72C1183.44 365.253 1182.8 365.52 1182.05 365.52ZM1192.34 383.2L1192.74 377.6C1194.6 377.6 1196.28 377.48 1197.78 377.24C1199.27 376.973 1200.58 376.627 1201.7 376.2C1202.84 375.773 1203.79 375.28 1204.54 374.72C1205.31 374.16 1205.88 373.573 1206.26 372.96C1206.66 372.32 1206.86 371.693 1206.86 371.08C1206.86 370.733 1206.76 370.413 1206.58 370.12C1206.42 369.8 1206.14 369.547 1205.74 369.36C1205.34 369.147 1204.79 369.04 1204.1 369.04C1203.75 369.04 1203.34 369.08 1202.86 369.16C1202.38 369.24 1201.9 369.36 1201.42 369.52C1200.94 369.653 1200.48 369.84 1200.06 370.08C1200.62 370.507 1201.23 371.053 1201.9 371.72C1202.56 372.36 1203.23 373.04 1203.9 373.76C1204.56 374.453 1205.14 375.133 1205.62 375.8C1206.18 376.04 1206.79 376.28 1207.46 376.52C1208.15 376.733 1208.9 376.92 1209.7 377.08C1210.5 377.24 1211.34 377.373 1212.22 377.48C1213.1 377.56 1214 377.6 1214.94 377.6C1215.95 377.6 1216.67 377.867 1217.1 378.4C1217.55 378.907 1217.78 379.547 1217.78 380.32C1217.78 381.147 1217.5 381.84 1216.94 382.4C1216.38 382.933 1215.58 383.2 1214.54 383.2C1212.4 383.2 1210.51 383.04 1208.86 382.72C1207.2 382.373 1205.72 381.88 1204.42 381.24C1203.14 380.573 1201.94 379.773 1200.82 378.84C1200.5 378.28 1200.04 377.68 1199.46 377.04C1198.9 376.373 1198.3 375.733 1197.66 375.12C1197.04 374.507 1196.48 374 1195.98 373.6C1195.84 373.493 1195.68 373.213 1195.5 372.76C1195.34 372.28 1195.19 371.787 1195.06 371.28C1194.92 370.747 1194.86 370.373 1194.86 370.16C1194.86 369.547 1195.14 368.893 1195.7 368.2C1196.28 367.507 1197.06 366.867 1198.02 366.28C1199 365.667 1200.08 365.173 1201.26 364.8C1202.46 364.4 1203.67 364.2 1204.9 364.2C1206.55 364.2 1207.92 364.453 1209.02 364.96C1210.14 365.44 1210.98 366.12 1211.54 367C1212.1 367.853 1212.38 368.853 1212.38 370C1212.38 371.28 1212.1 372.56 1211.54 373.84C1210.98 375.093 1210.15 376.28 1209.06 377.4C1207.99 378.52 1206.64 379.52 1205.02 380.4C1203.42 381.253 1201.55 381.933 1199.42 382.44C1197.31 382.947 1194.95 383.2 1192.34 383.2ZM1214.57 383.2L1214.97 377.6C1215.98 377.6 1216.78 377.507 1217.37 377.32C1217.98 377.133 1218.46 376.76 1218.81 376.2C1219.18 375.613 1219.49 374.76 1219.73 373.64C1219.99 372.52 1220.26 371.027 1220.53 369.16L1225.77 370.04C1225.71 370.44 1225.63 370.907 1225.53 371.44C1225.45 371.973 1225.37 372.52 1225.29 373.08C1225.23 373.613 1225.21 374.12 1225.21 374.6C1225.21 375.24 1225.34 375.787 1225.61 376.24C1225.9 376.667 1226.41 377 1227.13 377.24C1227.87 377.48 1228.94 377.6 1230.33 377.6C1231.34 377.6 1232.06 377.867 1232.49 378.4C1232.91 378.907 1233.13 379.547 1233.13 380.32C1233.13 381.147 1232.85 381.84 1232.29 382.4C1231.75 382.933 1230.97 383.2 1229.93 383.2C1228.09 383.2 1226.59 383.027 1225.45 382.68C1224.3 382.333 1223.45 381.747 1222.89 380.92C1222.33 380.093 1221.97 378.96 1221.81 377.52H1223.73C1223.25 378.8 1222.69 379.827 1222.05 380.6C1221.41 381.347 1220.69 381.907 1219.89 382.28C1219.09 382.653 1218.23 382.893 1217.33 383C1216.45 383.133 1215.53 383.2 1214.57 383.2ZM1222.73 365.08C1221.9 365.08 1221.19 364.8 1220.61 364.24C1220.05 363.68 1219.77 362.987 1219.77 362.16C1219.77 361.333 1220.05 360.627 1220.61 360.04C1221.19 359.453 1221.9 359.16 1222.73 359.16C1223.53 359.16 1224.21 359.453 1224.77 360.04C1225.35 360.627 1225.65 361.333 1225.65 362.16C1225.65 362.987 1225.35 363.68 1224.77 364.24C1224.21 364.8 1223.53 365.08 1222.73 365.08ZM1250.64 383.72C1248.16 383.72 1246.09 383.613 1244.44 383.4C1242.81 383.187 1241.49 382.88 1240.48 382.48C1239.46 382.08 1238.66 381.6 1238.08 381.04C1237.49 380.48 1237.01 379.867 1236.64 379.2L1237.76 378.88C1237.09 380.16 1236.33 381.107 1235.48 381.72C1234.62 382.333 1233.73 382.733 1232.8 382.92C1231.86 383.107 1230.9 383.2 1229.92 383.2L1230.32 377.6C1231.14 377.6 1231.8 377.467 1232.28 377.2C1232.76 376.933 1233.14 376.493 1233.44 375.88C1233.76 375.267 1234.05 374.453 1234.32 373.44C1234.58 372.427 1234.9 371.187 1235.28 369.72L1240.36 370.96C1240.17 371.68 1240.01 372.307 1239.88 372.84C1239.77 373.373 1239.68 373.84 1239.6 374.24C1239.54 374.613 1239.52 374.92 1239.52 375.16C1239.52 375.667 1239.64 376.12 1239.88 376.52C1240.12 376.893 1240.58 377.2 1241.28 377.44C1241.97 377.653 1242.98 377.827 1244.32 377.96C1245.68 378.067 1247.45 378.12 1249.64 378.12C1251.96 378.12 1253.89 378.04 1255.44 377.88C1256.98 377.693 1258.21 377.44 1259.12 377.12C1260.05 376.773 1260.72 376.36 1261.12 375.88C1261.52 375.373 1261.72 374.8 1261.72 374.16C1261.72 373.653 1261.6 373.187 1261.36 372.76C1261.14 372.307 1260.78 371.933 1260.28 371.64C1259.77 371.347 1259.12 371.2 1258.32 371.2C1257.36 371.2 1256.38 371.44 1255.4 371.92C1254.44 372.373 1253.49 372.987 1252.56 373.76C1251.62 374.507 1250.73 375.347 1249.88 376.28C1249.05 377.213 1248.3 378.147 1247.64 379.08L1241.64 378.4C1242.68 376.72 1243.85 375.107 1245.16 373.56C1246.46 372.013 1247.86 370.653 1249.36 369.48C1250.85 368.28 1252.4 367.333 1254 366.64C1255.6 365.947 1257.22 365.6 1258.88 365.6C1260.66 365.6 1262.18 365.947 1263.44 366.64C1264.69 367.333 1265.65 368.293 1266.32 369.52C1266.98 370.747 1267.32 372.16 1267.32 373.76C1267.32 375.707 1266.76 377.427 1265.64 378.92C1264.54 380.413 1262.77 381.587 1260.32 382.44C1257.89 383.293 1254.66 383.72 1250.64 383.72Z" fill="white"/>
<path d="M1100.4 511.515C1104.86 503.78 1104.86 494.25 1100.4 486.515L1025.53 356.838C1021.06 349.103 1012.81 344.338 1003.88 344.338H854.139C845.207 344.338 836.954 349.103 832.488 356.838L757.619 486.515C753.153 494.25 753.153 503.78 757.619 511.515L832.488 641.193C836.954 648.928 845.207 653.693 854.139 653.693H1003.88C1012.81 653.693 1021.06 648.928 1025.53 641.193L1100.4 511.515Z" fill="#89C958" fill-opacity="0.78"/>
</g>
<defs>
<clipPath id="clip0_1597_656">
<rect width="1440" height="567" fill="white" transform="matrix(-1 0 0 1 1440 0)"/>
</clipPath>
</defs>
</svg>
