<svg width="1440" height="567" viewBox="0 0 1440 567" fill="none" xmlns="http://www.w3.org/2000/svg">
<g clip-path="url(#clip0_1599_676)">
<path d="M-216.783 191.106C-221.249 183.371 -221.249 173.841 -216.783 166.106L-141.914 36.4287C-137.448 28.6937 -129.195 23.9287 -120.263 23.9287H29.4753C38.407 23.9287 46.6602 28.6937 51.126 36.4287L125.996 166.106C130.461 173.841 130.461 183.371 125.996 191.106L51.126 320.784C46.6601 328.519 38.407 333.284 29.4753 333.284H-120.263C-129.195 333.284 -137.448 328.519 -141.914 320.784L-216.783 191.106Z" fill="#89C958" fill-opacity="0.78"/>
<path d="M61.4099 671.719C56.9441 663.984 56.9441 654.454 61.4099 646.719L136.28 517.042C140.745 509.307 148.999 504.542 157.93 504.542H307.669C316.601 504.542 324.854 509.307 329.32 517.042L404.189 646.719C408.655 654.454 408.655 663.984 404.189 671.719L329.32 801.397C324.854 809.132 316.601 813.897 307.669 813.897H157.93C148.999 813.897 140.745 809.132 136.28 801.397L61.4099 671.719Z" fill="#89C958" fill-opacity="0.78"/>
<path d="M-216.783 511.515C-221.249 503.78 -221.249 494.25 -216.783 486.515L-141.914 356.838C-137.448 349.103 -129.195 344.338 -120.263 344.338H29.4753C38.407 344.338 46.6602 349.103 51.126 356.838L125.996 486.515C130.461 494.25 130.461 503.78 125.996 511.515L51.126 641.193C46.6601 648.928 38.407 653.693 29.4753 653.693H-120.263C-129.195 653.693 -137.448 648.928 -141.914 641.193L-216.783 511.515Z" fill="#89C958" fill-opacity="0.78"/>
<path d="M617.797 671.719C613.331 663.984 613.331 654.454 617.797 646.719L692.666 517.042C697.132 509.307 705.385 504.542 714.317 504.542H864.056C872.987 504.542 881.241 509.307 885.706 517.042L960.576 646.719C965.042 654.454 965.042 663.984 960.576 671.719L885.706 801.397C881.241 809.132 872.987 813.897 864.056 813.897H714.317C705.385 813.897 697.132 809.132 692.666 801.397L617.797 671.719Z" fill="#89C958" fill-opacity="0.78"/>
<path d="M895.987 511.515C891.522 503.78 891.522 494.25 895.987 486.515L970.857 356.838C975.323 349.103 983.576 344.338 992.507 344.338H1142.25C1151.18 344.338 1159.43 349.103 1163.9 356.838L1238.77 486.515C1243.23 494.25 1243.23 503.78 1238.77 511.515L1163.9 641.193C1159.43 648.928 1151.18 653.693 1142.25 653.693H992.507C983.576 653.693 975.323 648.928 970.857 641.193L895.987 511.515Z" fill="#89C958" fill-opacity="0.78"/>
<path d="M1174.18 671.719C1169.71 663.984 1169.71 654.454 1174.18 646.719L1249.05 517.042C1253.52 509.307 1261.77 504.542 1270.7 504.542H1420.44C1429.37 504.542 1437.62 509.307 1442.09 517.042L1516.96 646.719C1521.43 654.454 1521.43 663.984 1516.96 671.719L1442.09 801.397C1437.62 809.132 1429.37 813.897 1420.44 813.897H1270.7C1261.77 813.897 1253.52 809.132 1249.05 801.397L1174.18 671.719Z" fill="#89C958" fill-opacity="0.78"/>
<path d="M61.4099 351.311C56.9441 343.576 56.9441 334.046 61.4099 326.311L136.28 196.633C140.745 188.898 148.999 184.133 157.93 184.133H307.669C316.601 184.133 324.854 188.898 329.32 196.633L404.189 326.311C408.655 334.046 408.655 343.576 404.189 351.311L329.32 480.988C324.854 488.723 316.601 493.488 307.669 493.488H157.93C148.999 493.488 140.745 488.723 136.28 480.988L61.4099 351.311Z" fill="#89C958" fill-opacity="0.78"/>
<path d="M181.377 291.453V327H174.077V291.453H181.377ZM194.683 306.224V327H187.651V300.584H194.243L194.683 306.224ZM193.657 312.864H191.753C191.753 310.911 192.005 309.153 192.51 307.591C193.014 306.012 193.722 304.669 194.634 303.562C195.545 302.439 196.628 301.585 197.881 300.999C199.15 300.397 200.566 300.096 202.129 300.096C203.366 300.096 204.497 300.275 205.522 300.633C206.548 300.991 207.427 301.561 208.159 302.342C208.908 303.123 209.478 304.157 209.868 305.442C210.275 306.728 210.479 308.299 210.479 310.154V327H203.398V310.13C203.398 308.958 203.236 308.047 202.91 307.396C202.585 306.744 202.104 306.289 201.47 306.028C200.851 305.752 200.086 305.613 199.175 305.613C198.231 305.613 197.409 305.8 196.709 306.175C196.025 306.549 195.456 307.07 195 307.737C194.561 308.388 194.227 309.153 193.999 310.032C193.771 310.911 193.657 311.855 193.657 312.864ZM223.247 289.5V327H216.191V289.5H223.247ZM236.479 300.584V327H229.424V300.584H236.479ZM228.984 293.699C228.984 292.674 229.342 291.827 230.059 291.16C230.775 290.493 231.735 290.159 232.939 290.159C234.128 290.159 235.08 290.493 235.796 291.16C236.528 291.827 236.895 292.674 236.895 293.699C236.895 294.725 236.528 295.571 235.796 296.238C235.08 296.906 234.128 297.239 232.939 297.239C231.735 297.239 230.775 296.906 230.059 296.238C229.342 295.571 228.984 294.725 228.984 293.699ZM249.175 306.224V327H242.144V300.584H248.735L249.175 306.224ZM248.149 312.864H246.245C246.245 310.911 246.497 309.153 247.002 307.591C247.507 306.012 248.215 304.669 249.126 303.562C250.037 302.439 251.12 301.585 252.373 300.999C253.643 300.397 255.059 300.096 256.621 300.096C257.858 300.096 258.989 300.275 260.015 300.633C261.04 300.991 261.919 301.561 262.651 302.342C263.4 303.123 263.97 304.157 264.36 305.442C264.767 306.728 264.971 308.299 264.971 310.154V327H257.891V310.13C257.891 308.958 257.728 308.047 257.402 307.396C257.077 306.744 256.597 306.289 255.962 306.028C255.343 305.752 254.578 305.613 253.667 305.613C252.723 305.613 251.901 305.8 251.201 306.175C250.518 306.549 249.948 307.07 249.492 307.737C249.053 308.388 248.719 309.153 248.491 310.032C248.263 310.911 248.149 311.855 248.149 312.864ZM282.476 327.488C280.425 327.488 278.586 327.163 276.958 326.512C275.33 325.844 273.947 324.925 272.808 323.753C271.685 322.581 270.822 321.222 270.22 319.676C269.618 318.113 269.316 316.453 269.316 314.695V313.719C269.316 311.717 269.601 309.886 270.171 308.226C270.741 306.565 271.554 305.125 272.612 303.904C273.687 302.684 274.989 301.748 276.519 301.097C278.049 300.429 279.774 300.096 281.694 300.096C283.566 300.096 285.226 300.405 286.675 301.023C288.123 301.642 289.336 302.521 290.312 303.66C291.305 304.799 292.054 306.167 292.559 307.762C293.063 309.34 293.315 311.098 293.315 313.035V315.965H272.319V311.277H286.406V310.74C286.406 309.764 286.227 308.893 285.869 308.128C285.527 307.347 285.007 306.728 284.307 306.272C283.607 305.817 282.712 305.589 281.621 305.589C280.693 305.589 279.896 305.792 279.229 306.199C278.561 306.606 278.016 307.176 277.593 307.908C277.186 308.641 276.877 309.503 276.665 310.496C276.47 311.473 276.372 312.547 276.372 313.719V314.695C276.372 315.753 276.519 316.73 276.812 317.625C277.121 318.52 277.552 319.293 278.105 319.944C278.675 320.595 279.359 321.1 280.156 321.458C280.97 321.816 281.89 321.995 282.915 321.995C284.185 321.995 285.365 321.751 286.455 321.263C287.562 320.758 288.514 320.001 289.312 318.992L292.729 322.703C292.176 323.501 291.419 324.266 290.459 324.998C289.515 325.73 288.376 326.333 287.041 326.805C285.706 327.26 284.185 327.488 282.476 327.488ZM125.469 350.453V386H118.169V350.453H125.469ZM138.774 365.224V386H131.743V359.584H138.335L138.774 365.224ZM137.749 371.864H135.845C135.845 369.911 136.097 368.153 136.602 366.591C137.106 365.012 137.814 363.669 138.726 362.562C139.637 361.439 140.719 360.585 141.973 359.999C143.242 359.397 144.658 359.096 146.221 359.096C147.458 359.096 148.589 359.275 149.614 359.633C150.64 359.991 151.519 360.561 152.251 361.342C153 362.123 153.569 363.157 153.96 364.442C154.367 365.728 154.57 367.299 154.57 369.154V386H147.49V369.13C147.49 367.958 147.327 367.047 147.002 366.396C146.676 365.744 146.196 365.289 145.562 365.028C144.943 364.752 144.178 364.613 143.267 364.613C142.323 364.613 141.501 364.8 140.801 365.175C140.117 365.549 139.548 366.07 139.092 366.737C138.652 367.388 138.319 368.153 138.091 369.032C137.863 369.911 137.749 370.855 137.749 371.864ZM174.199 378.7C174.199 378.196 174.053 377.74 173.76 377.333C173.467 376.926 172.922 376.552 172.124 376.21C171.343 375.852 170.212 375.526 168.73 375.233C167.396 374.94 166.151 374.574 164.995 374.135C163.856 373.679 162.863 373.134 162.017 372.499C161.187 371.864 160.535 371.116 160.063 370.253C159.591 369.374 159.355 368.373 159.355 367.25C159.355 366.143 159.591 365.102 160.063 364.125C160.552 363.148 161.243 362.286 162.139 361.537C163.05 360.772 164.157 360.178 165.459 359.755C166.777 359.315 168.258 359.096 169.902 359.096C172.197 359.096 174.167 359.462 175.811 360.194C177.471 360.927 178.74 361.936 179.619 363.222C180.514 364.491 180.962 365.94 180.962 367.567H173.931C173.931 366.884 173.784 366.273 173.491 365.736C173.215 365.183 172.775 364.752 172.173 364.442C171.587 364.117 170.822 363.954 169.878 363.954C169.097 363.954 168.421 364.092 167.852 364.369C167.282 364.63 166.842 364.988 166.533 365.443C166.24 365.883 166.094 366.371 166.094 366.908C166.094 367.315 166.175 367.681 166.338 368.007C166.517 368.316 166.802 368.601 167.192 368.861C167.583 369.122 168.088 369.366 168.706 369.594C169.341 369.805 170.122 370.001 171.05 370.18C172.954 370.57 174.655 371.083 176.152 371.718C177.65 372.336 178.838 373.183 179.717 374.257C180.596 375.315 181.035 376.706 181.035 378.432C181.035 379.604 180.775 380.678 180.254 381.654C179.733 382.631 178.984 383.485 178.008 384.218C177.031 384.934 175.859 385.495 174.492 385.902C173.141 386.293 171.619 386.488 169.927 386.488C167.469 386.488 165.386 386.049 163.677 385.17C161.984 384.291 160.698 383.176 159.819 381.825C158.957 380.458 158.525 379.058 158.525 377.626H165.19C165.223 378.586 165.467 379.359 165.923 379.945C166.395 380.531 166.989 380.954 167.705 381.215C168.438 381.475 169.227 381.605 170.073 381.605C170.985 381.605 171.742 381.483 172.344 381.239C172.946 380.979 173.402 380.637 173.711 380.214C174.036 379.774 174.199 379.27 174.199 378.7ZM192.632 364.662V396.156H185.601V359.584H192.119L192.632 364.662ZM209.355 372.499V373.012C209.355 374.932 209.128 376.715 208.672 378.358C208.232 380.002 207.581 381.435 206.719 382.655C205.856 383.86 204.782 384.804 203.496 385.487C202.227 386.155 200.762 386.488 199.102 386.488C197.49 386.488 196.09 386.163 194.902 385.512C193.714 384.861 192.713 383.949 191.899 382.777C191.102 381.589 190.459 380.214 189.971 378.651C189.482 377.089 189.108 375.412 188.848 373.622V372.279C189.108 370.359 189.482 368.601 189.971 367.006C190.459 365.395 191.102 364.003 191.899 362.831C192.713 361.643 193.706 360.723 194.878 360.072C196.066 359.421 197.458 359.096 199.053 359.096C200.729 359.096 202.202 359.413 203.472 360.048C204.757 360.683 205.832 361.594 206.694 362.782C207.573 363.97 208.232 365.386 208.672 367.03C209.128 368.674 209.355 370.497 209.355 372.499ZM202.3 373.012V372.499C202.3 371.376 202.202 370.342 202.007 369.398C201.828 368.438 201.535 367.6 201.128 366.884C200.737 366.168 200.216 365.614 199.565 365.224C198.931 364.817 198.158 364.613 197.246 364.613C196.286 364.613 195.464 364.768 194.78 365.077C194.113 365.386 193.568 365.834 193.145 366.42C192.721 367.006 192.404 367.706 192.192 368.52C191.981 369.333 191.851 370.253 191.802 371.278V374.672C191.883 375.876 192.111 376.959 192.485 377.919C192.86 378.863 193.438 379.612 194.219 380.165C195 380.718 196.025 380.995 197.295 380.995C198.223 380.995 199.004 380.792 199.639 380.385C200.273 379.962 200.786 379.384 201.177 378.651C201.584 377.919 201.868 377.073 202.031 376.112C202.21 375.152 202.3 374.118 202.3 373.012ZM225.884 386.488C223.833 386.488 221.994 386.163 220.366 385.512C218.739 384.844 217.355 383.925 216.216 382.753C215.093 381.581 214.23 380.222 213.628 378.676C213.026 377.113 212.725 375.453 212.725 373.695V372.719C212.725 370.717 213.009 368.886 213.579 367.226C214.149 365.565 214.963 364.125 216.021 362.904C217.095 361.684 218.397 360.748 219.927 360.097C221.457 359.429 223.182 359.096 225.103 359.096C226.974 359.096 228.634 359.405 230.083 360.023C231.532 360.642 232.744 361.521 233.721 362.66C234.714 363.799 235.462 365.167 235.967 366.762C236.471 368.34 236.724 370.098 236.724 372.035V374.965H215.728V370.277H229.814V369.74C229.814 368.764 229.635 367.893 229.277 367.128C228.936 366.347 228.415 365.728 227.715 365.272C227.015 364.817 226.12 364.589 225.029 364.589C224.102 364.589 223.304 364.792 222.637 365.199C221.969 365.606 221.424 366.176 221.001 366.908C220.594 367.641 220.285 368.503 220.073 369.496C219.878 370.473 219.78 371.547 219.78 372.719V373.695C219.78 374.753 219.927 375.73 220.22 376.625C220.529 377.52 220.96 378.293 221.514 378.944C222.083 379.595 222.767 380.1 223.564 380.458C224.378 380.816 225.298 380.995 226.323 380.995C227.593 380.995 228.773 380.751 229.863 380.263C230.97 379.758 231.922 379.001 232.72 377.992L236.138 381.703C235.584 382.501 234.827 383.266 233.867 383.998C232.923 384.73 231.784 385.333 230.449 385.805C229.115 386.26 227.593 386.488 225.884 386.488ZM251.641 380.995C252.503 380.995 253.268 380.832 253.936 380.507C254.603 380.165 255.124 379.693 255.498 379.091C255.889 378.472 256.092 377.748 256.108 376.918H262.725C262.708 378.773 262.212 380.425 261.235 381.874C260.259 383.306 258.949 384.438 257.305 385.268C255.661 386.081 253.822 386.488 251.787 386.488C249.736 386.488 247.946 386.146 246.416 385.463C244.902 384.779 243.641 383.835 242.632 382.631C241.623 381.41 240.866 379.994 240.361 378.383C239.857 376.755 239.604 375.014 239.604 373.158V372.45C239.604 370.578 239.857 368.837 240.361 367.226C240.866 365.598 241.623 364.182 242.632 362.978C243.641 361.757 244.902 360.805 246.416 360.121C247.93 359.438 249.704 359.096 251.738 359.096C253.903 359.096 255.799 359.511 257.427 360.341C259.071 361.171 260.356 362.359 261.284 363.905C262.228 365.435 262.708 367.25 262.725 369.35H256.108C256.092 368.471 255.905 367.673 255.547 366.957C255.205 366.241 254.701 365.671 254.033 365.248C253.382 364.809 252.576 364.589 251.616 364.589C250.591 364.589 249.753 364.809 249.102 365.248C248.451 365.671 247.946 366.257 247.588 367.006C247.23 367.738 246.978 368.576 246.831 369.521C246.701 370.448 246.636 371.425 246.636 372.45V373.158C246.636 374.184 246.701 375.168 246.831 376.112C246.961 377.056 247.205 377.895 247.563 378.627C247.938 379.359 248.451 379.937 249.102 380.36C249.753 380.784 250.599 380.995 251.641 380.995ZM279.741 359.584V364.564H264.36V359.584H279.741ZM268.169 353.065H275.2V378.041C275.2 378.806 275.298 379.392 275.493 379.799C275.705 380.206 276.014 380.491 276.421 380.653C276.828 380.8 277.34 380.873 277.959 380.873C278.398 380.873 278.789 380.857 279.131 380.824C279.489 380.775 279.79 380.727 280.034 380.678L280.059 385.854C279.456 386.049 278.805 386.203 278.105 386.317C277.406 386.431 276.632 386.488 275.786 386.488C274.24 386.488 272.889 386.236 271.733 385.731C270.594 385.211 269.715 384.381 269.097 383.241C268.478 382.102 268.169 380.604 268.169 378.749V353.065ZM291.167 359.584V386H284.111V359.584H291.167ZM283.672 352.699C283.672 351.674 284.03 350.827 284.746 350.16C285.462 349.493 286.423 349.159 287.627 349.159C288.815 349.159 289.767 349.493 290.483 350.16C291.216 350.827 291.582 351.674 291.582 352.699C291.582 353.725 291.216 354.571 290.483 355.238C289.767 355.906 288.815 356.239 287.627 356.239C286.423 356.239 285.462 355.906 284.746 355.238C284.03 354.571 283.672 353.725 283.672 352.699ZM295.854 373.061V372.548C295.854 370.611 296.131 368.829 296.685 367.201C297.238 365.557 298.044 364.133 299.102 362.929C300.16 361.724 301.462 360.788 303.008 360.121C304.554 359.438 306.328 359.096 308.33 359.096C310.332 359.096 312.114 359.438 313.677 360.121C315.239 360.788 316.549 361.724 317.607 362.929C318.682 364.133 319.495 365.557 320.049 367.201C320.602 368.829 320.879 370.611 320.879 372.548V373.061C320.879 374.981 320.602 376.763 320.049 378.407C319.495 380.035 318.682 381.459 317.607 382.68C316.549 383.884 315.247 384.82 313.701 385.487C312.155 386.155 310.381 386.488 308.379 386.488C306.377 386.488 304.595 386.155 303.032 385.487C301.486 384.82 300.176 383.884 299.102 382.68C298.044 381.459 297.238 380.035 296.685 378.407C296.131 376.763 295.854 374.981 295.854 373.061ZM302.886 372.548V373.061C302.886 374.167 302.983 375.201 303.179 376.161C303.374 377.121 303.683 377.968 304.106 378.7C304.546 379.416 305.116 379.978 305.815 380.385C306.515 380.792 307.37 380.995 308.379 380.995C309.355 380.995 310.194 380.792 310.894 380.385C311.593 379.978 312.155 379.416 312.578 378.7C313.001 377.968 313.311 377.121 313.506 376.161C313.717 375.201 313.823 374.167 313.823 373.061V372.548C313.823 371.474 313.717 370.465 313.506 369.521C313.311 368.56 312.993 367.714 312.554 366.981C312.131 366.233 311.569 365.647 310.869 365.224C310.169 364.8 309.323 364.589 308.33 364.589C307.337 364.589 306.491 364.8 305.791 365.224C305.107 365.647 304.546 366.233 304.106 366.981C303.683 367.714 303.374 368.56 303.179 369.521C302.983 370.465 302.886 371.474 302.886 372.548ZM332.085 365.224V386H325.054V359.584H331.646L332.085 365.224ZM331.06 371.864H329.155C329.155 369.911 329.408 368.153 329.912 366.591C330.417 365.012 331.125 363.669 332.036 362.562C332.948 361.439 334.03 360.585 335.283 359.999C336.553 359.397 337.969 359.096 339.531 359.096C340.768 359.096 341.899 359.275 342.925 359.633C343.95 359.991 344.829 360.561 345.562 361.342C346.31 362.123 346.88 363.157 347.271 364.442C347.677 365.728 347.881 367.299 347.881 369.154V386H340.801V369.13C340.801 367.958 340.638 367.047 340.312 366.396C339.987 365.744 339.507 365.289 338.872 365.028C338.254 364.752 337.489 364.613 336.577 364.613C335.633 364.613 334.811 364.8 334.111 365.175C333.428 365.549 332.858 366.07 332.402 366.737C331.963 367.388 331.629 368.153 331.401 369.032C331.174 369.911 331.06 370.855 331.06 371.864Z" fill="white"/>
<path d="M339.603 511.515C335.137 503.78 335.137 494.25 339.603 486.515L414.472 356.838C418.938 349.103 427.191 344.338 436.123 344.338H585.861C594.793 344.338 603.046 349.103 607.512 356.838L682.381 486.515C686.847 494.25 686.847 503.78 682.381 511.515L607.512 641.193C603.046 648.928 594.793 653.693 585.861 653.693H436.123C427.191 653.693 418.938 648.928 414.472 641.193L339.603 511.515Z" fill="#89C958" fill-opacity="0.78"/>
</g>
<defs>
<clipPath id="clip0_1599_676">
<rect width="1440" height="567" fill="white"/>
</clipPath>
</defs>
</svg>
