<svg width="368" height="69" viewBox="0 0 368 69" fill="none" xmlns="http://www.w3.org/2000/svg">
<path d="M152.414 17.5273L147.551 32H144.141L150.516 14.9375H152.695L152.414 17.5273ZM156.48 32L151.594 17.5273L151.301 14.9375H153.492L159.902 32H156.48ZM156.258 25.6602V28.2031H147.105V25.6602H156.258ZM168.199 24.3945H163.84L163.816 22.1211H167.555C168.195 22.1211 168.73 22.0312 169.16 21.8516C169.59 21.6719 169.914 21.4102 170.133 21.0664C170.359 20.7227 170.473 20.3047 170.473 19.8125C170.473 19.2656 170.367 18.8203 170.156 18.4766C169.953 18.1328 169.633 17.8828 169.195 17.7266C168.758 17.5625 168.203 17.4805 167.531 17.4805H164.883V32H161.66V14.9375H167.531C168.5 14.9375 169.363 15.0312 170.121 15.2188C170.887 15.3984 171.535 15.6797 172.066 16.0625C172.598 16.4453 173 16.9258 173.273 17.5039C173.555 18.082 173.695 18.7695 173.695 19.5664C173.695 20.2695 173.531 20.918 173.203 21.5117C172.883 22.0977 172.387 22.5742 171.715 22.9414C171.051 23.3086 170.207 23.5195 169.184 23.5742L168.199 24.3945ZM168.059 32H162.891L164.238 29.4688H168.059C168.699 29.4688 169.227 29.3633 169.641 29.1523C170.062 28.9414 170.375 28.6523 170.578 28.2852C170.789 27.9102 170.895 27.4805 170.895 26.9961C170.895 26.4648 170.801 26.0039 170.613 25.6133C170.434 25.2227 170.145 24.9219 169.746 24.7109C169.355 24.5 168.84 24.3945 168.199 24.3945H164.848L164.871 22.1211H169.137L169.875 23C170.859 23.0078 171.66 23.2031 172.277 23.5859C172.902 23.9688 173.363 24.4609 173.66 25.0625C173.957 25.6641 174.105 26.3125 174.105 27.0078C174.105 28.1016 173.867 29.0195 173.391 29.7617C172.922 30.5039 172.234 31.0625 171.328 31.4375C170.43 31.8125 169.34 32 168.059 32ZM181.992 32H178.312L178.336 29.4688H181.992C182.984 29.4688 183.816 29.25 184.488 28.8125C185.16 28.3672 185.668 27.7305 186.012 26.9023C186.355 26.0664 186.527 25.0664 186.527 23.9023V23.0234C186.527 22.125 186.43 21.332 186.234 20.6445C186.039 19.957 185.75 19.3789 185.367 18.9102C184.992 18.4414 184.527 18.0859 183.973 17.8438C183.418 17.6016 182.781 17.4805 182.062 17.4805H178.242V14.9375H182.062C183.203 14.9375 184.242 15.1289 185.18 15.5117C186.125 15.8945 186.941 16.4453 187.629 17.1641C188.324 17.875 188.855 18.7266 189.223 19.7188C189.598 20.7109 189.785 21.8203 189.785 23.0469V23.9023C189.785 25.1211 189.598 26.2305 189.223 27.2305C188.855 28.2227 188.324 29.0742 187.629 29.7852C186.941 30.4961 186.121 31.043 185.168 31.4258C184.215 31.8086 183.156 32 181.992 32ZM180.117 14.9375V32H176.895V14.9375H180.117ZM195.961 14.9375V32H192.738V14.9375H195.961ZM218.73 23.1758V29.8203C218.48 30.1406 218.086 30.4883 217.547 30.8633C217.016 31.2383 216.32 31.5625 215.461 31.8359C214.602 32.1016 213.547 32.2344 212.297 32.2344C211.211 32.2344 210.219 32.0547 209.32 31.6953C208.422 31.3281 207.648 30.793 207 30.0898C206.352 29.3867 205.852 28.5273 205.5 27.5117C205.148 26.4961 204.973 25.3359 204.973 24.0312V22.9062C204.973 21.6016 205.137 20.4414 205.465 19.4258C205.801 18.4102 206.277 17.5508 206.895 16.8477C207.52 16.1445 208.266 15.6094 209.133 15.2422C210.008 14.875 210.984 14.6914 212.062 14.6914C213.508 14.6914 214.695 14.9297 215.625 15.4062C216.562 15.8828 217.281 16.5391 217.781 17.375C218.281 18.2031 218.594 19.1562 218.719 20.2344H215.578C215.492 19.6406 215.32 19.1211 215.062 18.6758C214.805 18.2227 214.438 17.8711 213.961 17.6211C213.492 17.3633 212.883 17.2344 212.133 17.2344C211.5 17.2344 210.941 17.3594 210.457 17.6094C209.973 17.8594 209.566 18.2227 209.238 18.6992C208.91 19.1758 208.66 19.7656 208.488 20.4688C208.324 21.1719 208.242 21.9766 208.242 22.8828V24.0312C208.242 24.9453 208.336 25.7578 208.523 26.4688C208.711 27.1719 208.98 27.7656 209.332 28.25C209.691 28.7266 210.133 29.0898 210.656 29.3398C211.188 29.582 211.789 29.7031 212.461 29.7031C213.07 29.7031 213.574 29.6523 213.973 29.5508C214.379 29.4414 214.703 29.3125 214.945 29.1641C215.188 29.0156 215.375 28.8711 215.508 28.7305V25.5312H212.121V23.1758H218.73ZM221.777 14.9375H227.977C229.273 14.9375 230.387 15.1328 231.316 15.5234C232.246 15.9141 232.961 16.4922 233.461 17.2578C233.961 18.0234 234.211 18.9648 234.211 20.082C234.211 20.9648 234.055 21.7305 233.742 22.3789C233.43 23.0273 232.988 23.5703 232.418 24.0078C231.855 24.4453 231.191 24.7891 230.426 25.0391L229.418 25.5547H223.945L223.922 23.0117H228.012C228.676 23.0117 229.227 22.8945 229.664 22.6602C230.102 22.4258 230.43 22.1016 230.648 21.6875C230.875 21.2734 230.988 20.8008 230.988 20.2695C230.988 19.6992 230.879 19.207 230.66 18.793C230.441 18.3711 230.109 18.0469 229.664 17.8203C229.219 17.5938 228.656 17.4805 227.977 17.4805H225V32H221.777V14.9375ZM231.41 32L227.461 24.3594L230.871 24.3477L234.867 31.8359V32H231.41ZM250.852 23.0352V23.9141C250.852 25.2031 250.68 26.3633 250.336 27.3945C249.992 28.418 249.504 29.2891 248.871 30.0078C248.238 30.7266 247.484 31.2773 246.609 31.6602C245.734 32.043 244.762 32.2344 243.691 32.2344C242.637 32.2344 241.668 32.043 240.785 31.6602C239.91 31.2773 239.152 30.7266 238.512 30.0078C237.871 29.2891 237.375 28.418 237.023 27.3945C236.672 26.3633 236.496 25.2031 236.496 23.9141V23.0352C236.496 21.7383 236.672 20.5781 237.023 19.5547C237.375 18.5312 237.867 17.6602 238.5 16.9414C239.133 16.2148 239.887 15.6602 240.762 15.2773C241.645 14.8945 242.613 14.7031 243.668 14.7031C244.738 14.7031 245.711 14.8945 246.586 15.2773C247.461 15.6602 248.215 16.2148 248.848 16.9414C249.488 17.6602 249.98 18.5312 250.324 19.5547C250.676 20.5781 250.852 21.7383 250.852 23.0352ZM247.594 23.9141V23.0117C247.594 22.082 247.508 21.2656 247.336 20.5625C247.164 19.8516 246.91 19.2539 246.574 18.7695C246.238 18.2852 245.824 17.9219 245.332 17.6797C244.84 17.4297 244.285 17.3047 243.668 17.3047C243.043 17.3047 242.488 17.4297 242.004 17.6797C241.527 17.9219 241.121 18.2852 240.785 18.7695C240.449 19.2539 240.191 19.8516 240.012 20.5625C239.84 21.2656 239.754 22.082 239.754 23.0117V23.9141C239.754 24.8359 239.84 25.6523 240.012 26.3633C240.191 27.0742 240.449 27.6758 240.785 28.168C241.129 28.6523 241.543 29.0195 242.027 29.2695C242.512 29.5195 243.066 29.6445 243.691 29.6445C244.316 29.6445 244.871 29.5195 245.355 29.2695C245.84 29.0195 246.246 28.6523 246.574 28.168C246.91 27.6758 247.164 27.0742 247.336 26.3633C247.508 25.6523 247.594 24.8359 247.594 23.9141ZM263.074 14.9375H266.297V26.2695C266.297 27.5742 266.016 28.6719 265.453 29.5625C264.891 30.4453 264.125 31.1133 263.156 31.5664C262.188 32.0117 261.086 32.2344 259.852 32.2344C258.602 32.2344 257.488 32.0117 256.512 31.5664C255.535 31.1133 254.77 30.4453 254.215 29.5625C253.66 28.6719 253.383 27.5742 253.383 26.2695V14.9375H256.605V26.2695C256.605 27.0664 256.738 27.7188 257.004 28.2266C257.27 28.7266 257.645 29.0977 258.129 29.3398C258.613 29.582 259.188 29.7031 259.852 29.7031C260.523 29.7031 261.098 29.582 261.574 29.3398C262.059 29.0977 262.43 28.7266 262.688 28.2266C262.945 27.7188 263.074 27.0664 263.074 26.2695V14.9375ZM275.918 25.7773H271.523V23.2461H275.918C276.637 23.2461 277.219 23.1289 277.664 22.8945C278.117 22.6523 278.449 22.3242 278.66 21.9102C278.871 21.4883 278.977 21.0078 278.977 20.4688C278.977 19.9453 278.871 19.457 278.66 19.0039C278.449 18.5508 278.117 18.1836 277.664 17.9023C277.219 17.6211 276.637 17.4805 275.918 17.4805H272.578V32H269.355V14.9375H275.918C277.246 14.9375 278.379 15.1758 279.316 15.6523C280.262 16.1211 280.98 16.7734 281.473 17.6094C281.973 18.4375 282.223 19.3828 282.223 20.4453C282.223 21.5469 281.973 22.4961 281.473 23.293C280.98 24.0898 280.262 24.7031 279.316 25.1328C278.379 25.5625 277.246 25.7773 275.918 25.7773Z" fill="black"/>
<path d="M149.845 46.6738H146.048V46.0234H149.845C150.665 46.0234 151.333 45.8887 151.849 45.6191C152.364 45.3438 152.739 44.9775 152.974 44.5205C153.214 44.0576 153.334 43.5479 153.334 42.9912C153.334 42.417 153.214 41.8926 152.974 41.418C152.739 40.9434 152.364 40.5654 151.849 40.2842C151.333 39.9971 150.665 39.8535 149.845 39.8535H146.417V52H145.705V39.2031H149.845C150.765 39.2031 151.535 39.3613 152.156 39.6777C152.783 39.9941 153.255 40.4365 153.571 41.0049C153.888 41.5674 154.046 42.2236 154.046 42.9736C154.046 43.7354 153.888 44.3945 153.571 44.9512C153.255 45.502 152.786 45.9268 152.165 46.2256C151.544 46.5244 150.771 46.6738 149.845 46.6738ZM157.192 42.4902V52H156.489V42.4902H157.192ZM156.27 39.6074C156.27 39.4492 156.322 39.3145 156.428 39.2031C156.539 39.0859 156.68 39.0273 156.85 39.0273C157.014 39.0273 157.151 39.0859 157.263 39.2031C157.374 39.3145 157.43 39.4492 157.43 39.6074C157.43 39.7656 157.374 39.9004 157.263 40.0117C157.151 40.1172 157.014 40.1699 156.85 40.1699C156.68 40.1699 156.539 40.1172 156.428 40.0117C156.322 39.9004 156.27 39.7656 156.27 39.6074ZM160.91 44.3184V55.6562H160.207V42.4902H160.884L160.91 44.3184ZM167.643 47.1484V47.333C167.643 48.0537 167.561 48.71 167.396 49.3018C167.238 49.8936 167.004 50.4033 166.693 50.8311C166.389 51.2588 166.014 51.5898 165.568 51.8242C165.123 52.0586 164.616 52.1758 164.048 52.1758C163.503 52.1758 163.014 52.0967 162.58 51.9385C162.146 51.7744 161.771 51.5459 161.455 51.2529C161.139 50.96 160.884 50.626 160.69 50.251C160.497 49.8701 160.362 49.4629 160.286 49.0293V45.7246C160.386 45.2266 160.535 44.7725 160.734 44.3623C160.939 43.9463 161.194 43.5859 161.499 43.2812C161.81 42.9707 162.176 42.7334 162.598 42.5693C163.02 42.3994 163.497 42.3145 164.03 42.3145C164.599 42.3145 165.105 42.4287 165.551 42.6572C166.002 42.8799 166.383 43.2021 166.693 43.624C167.004 44.04 167.238 44.5469 167.396 45.1445C167.561 45.7363 167.643 46.4043 167.643 47.1484ZM166.931 47.333V47.1484C166.931 46.5508 166.869 45.9971 166.746 45.4873C166.629 44.9775 166.447 44.5352 166.201 44.1602C165.955 43.7852 165.645 43.4922 165.27 43.2812C164.895 43.0703 164.452 42.9648 163.942 42.9648C163.386 42.9648 162.914 43.0586 162.527 43.2461C162.141 43.4277 161.821 43.665 161.569 43.958C161.323 44.251 161.133 44.5674 160.998 44.9072C160.863 45.2412 160.764 45.5576 160.699 45.8564V48.9766C160.805 49.4453 160.992 49.873 161.262 50.2598C161.531 50.6465 161.889 50.957 162.334 51.1914C162.785 51.4199 163.327 51.5342 163.96 51.5342C164.47 51.5342 164.909 51.4287 165.278 51.2178C165.647 51.0068 165.955 50.7139 166.201 50.3389C166.447 49.9639 166.629 49.5215 166.746 49.0117C166.869 48.4961 166.931 47.9365 166.931 47.333ZM173.663 52.1758C173.065 52.1758 172.512 52.0615 172.002 51.833C171.492 51.5986 171.047 51.2734 170.666 50.8574C170.285 50.4355 169.986 49.9375 169.77 49.3633C169.559 48.7891 169.453 48.1592 169.453 47.4736V47.0869C169.453 46.3779 169.559 45.7334 169.77 45.1533C169.986 44.5674 170.279 44.0635 170.648 43.6416C171.018 43.2139 171.442 42.8857 171.923 42.6572C172.409 42.4287 172.928 42.3145 173.479 42.3145C174.035 42.3145 174.539 42.417 174.99 42.6221C175.441 42.8271 175.828 43.1143 176.15 43.4834C176.473 43.8525 176.719 44.292 176.889 44.8018C177.059 45.3115 177.144 45.874 177.144 46.4893V47.0781H169.893V46.4365H176.449V46.3223C176.443 45.7246 176.32 45.1709 176.08 44.6611C175.846 44.1514 175.509 43.7412 175.069 43.4307C174.63 43.1143 174.1 42.9561 173.479 42.9561C172.98 42.9561 172.526 43.0615 172.116 43.2725C171.712 43.4834 171.363 43.7764 171.07 44.1514C170.777 44.5205 170.552 44.957 170.394 45.4609C170.235 45.959 170.156 46.501 170.156 47.0869V47.4736C170.156 48.0361 170.244 48.5635 170.42 49.0557C170.596 49.5479 170.842 49.9814 171.158 50.3564C171.475 50.7256 171.847 51.0156 172.274 51.2266C172.702 51.4375 173.171 51.543 173.681 51.543C174.231 51.543 174.735 51.4463 175.192 51.2529C175.649 51.0596 176.065 50.7197 176.44 50.2334L176.897 50.5762C176.687 50.8809 176.432 51.1533 176.133 51.3936C175.834 51.6338 175.479 51.8242 175.069 51.9648C174.665 52.1055 174.196 52.1758 173.663 52.1758ZM180.132 38.5V52H179.429V38.5H180.132ZM183.981 42.4902V52H183.278V42.4902H183.981ZM183.059 39.6074C183.059 39.4492 183.111 39.3145 183.217 39.2031C183.328 39.0859 183.469 39.0273 183.639 39.0273C183.803 39.0273 183.94 39.0859 184.052 39.2031C184.163 39.3145 184.219 39.4492 184.219 39.6074C184.219 39.7656 184.163 39.9004 184.052 40.0117C183.94 40.1172 183.803 40.1699 183.639 40.1699C183.469 40.1699 183.328 40.1172 183.217 40.0117C183.111 39.9004 183.059 39.7656 183.059 39.6074ZM187.708 44.5205V52H187.014V42.4902H187.699L187.708 44.5205ZM187.576 46.5156L187.233 46.1113C187.286 45.6074 187.409 45.127 187.603 44.6699C187.802 44.2129 188.062 43.8086 188.385 43.457C188.713 43.1055 189.094 42.8271 189.527 42.6221C189.967 42.417 190.45 42.3145 190.978 42.3145C191.452 42.3145 191.877 42.3818 192.252 42.5166C192.627 42.6455 192.943 42.8506 193.201 43.1318C193.465 43.4131 193.664 43.7764 193.799 44.2217C193.934 44.6611 194.001 45.1973 194.001 45.8301V52H193.307V45.8301C193.307 45.0801 193.204 44.5 192.999 44.0898C192.794 43.6738 192.507 43.3809 192.138 43.2109C191.774 43.041 191.35 42.9561 190.863 42.9561C190.301 42.9561 189.814 43.082 189.404 43.334C189 43.5801 188.666 43.8936 188.402 44.2744C188.139 44.6494 187.937 45.0391 187.796 45.4434C187.661 45.8477 187.588 46.2051 187.576 46.5156ZM200.417 52.1758C199.819 52.1758 199.266 52.0615 198.756 51.833C198.246 51.5986 197.801 51.2734 197.42 50.8574C197.039 50.4355 196.74 49.9375 196.523 49.3633C196.312 48.7891 196.207 48.1592 196.207 47.4736V47.0869C196.207 46.3779 196.312 45.7334 196.523 45.1533C196.74 44.5674 197.033 44.0635 197.402 43.6416C197.771 43.2139 198.196 42.8857 198.677 42.6572C199.163 42.4287 199.682 42.3145 200.232 42.3145C200.789 42.3145 201.293 42.417 201.744 42.6221C202.195 42.8271 202.582 43.1143 202.904 43.4834C203.227 43.8525 203.473 44.292 203.643 44.8018C203.812 45.3115 203.897 45.874 203.897 46.4893V47.0781H196.646V46.4365H203.203V46.3223C203.197 45.7246 203.074 45.1709 202.834 44.6611C202.6 44.1514 202.263 43.7412 201.823 43.4307C201.384 43.1143 200.854 42.9561 200.232 42.9561C199.734 42.9561 199.28 43.0615 198.87 43.2725C198.466 43.4834 198.117 43.7764 197.824 44.1514C197.531 44.5205 197.306 44.957 197.147 45.4609C196.989 45.959 196.91 46.501 196.91 47.0869V47.4736C196.91 48.0361 196.998 48.5635 197.174 49.0557C197.35 49.5479 197.596 49.9814 197.912 50.3564C198.229 50.7256 198.601 51.0156 199.028 51.2266C199.456 51.4375 199.925 51.543 200.435 51.543C200.985 51.543 201.489 51.4463 201.946 51.2529C202.403 51.0596 202.819 50.7197 203.194 50.2334L203.651 50.5762C203.44 50.8809 203.186 51.1533 202.887 51.3936C202.588 51.6338 202.233 51.8242 201.823 51.9648C201.419 52.1055 200.95 52.1758 200.417 52.1758ZM212.282 45.2236L214.418 43.5537C214.793 43.2725 215.115 42.9531 215.385 42.5957C215.654 42.2383 215.789 41.8457 215.789 41.418C215.789 40.9551 215.631 40.5479 215.314 40.1963C214.998 39.8389 214.535 39.6602 213.926 39.6602C213.48 39.6602 213.103 39.7568 212.792 39.9502C212.481 40.1436 212.247 40.4043 212.089 40.7324C211.931 41.0547 211.852 41.4092 211.852 41.7959C211.852 42.0889 211.904 42.3936 212.01 42.71C212.115 43.0264 212.271 43.3545 212.476 43.6943C212.687 44.0283 212.947 44.377 213.258 44.7402L219.586 52H218.733L213.223 45.7158C212.795 45.2178 212.423 44.7549 212.106 44.3271C211.796 43.8994 211.559 43.4834 211.395 43.0791C211.23 42.6748 211.148 42.2559 211.148 41.8223C211.148 41.2598 211.26 40.7705 211.482 40.3545C211.711 39.9326 212.033 39.6045 212.449 39.3701C212.865 39.1357 213.357 39.0186 213.926 39.0186C214.471 39.0186 214.931 39.1299 215.306 39.3525C215.687 39.5693 215.977 39.8594 216.176 40.2227C216.375 40.5801 216.475 40.9785 216.475 41.418C216.475 41.7812 216.384 42.127 216.202 42.4551C216.021 42.7832 215.798 43.082 215.534 43.3516C215.276 43.6152 215.024 43.8467 214.778 44.0459L212.555 45.7949C212.004 46.2578 211.591 46.6768 211.315 47.0518C211.046 47.4268 210.864 47.7607 210.771 48.0537C210.683 48.3408 210.639 48.6016 210.639 48.8359C210.639 49.3047 210.753 49.7471 210.981 50.1631C211.21 50.5732 211.559 50.9043 212.027 51.1562C212.502 51.4082 213.097 51.5342 213.812 51.5342C214.403 51.5342 214.969 51.4111 215.508 51.165C216.053 50.9189 216.539 50.5703 216.967 50.1191C217.395 49.6621 217.734 49.1172 217.986 48.4844C218.238 47.8516 218.364 47.1484 218.364 46.375H219.032C219.032 46.9199 218.979 47.4268 218.874 47.8955C218.769 48.3584 218.616 48.7891 218.417 49.1875C218.218 49.5801 217.978 49.9434 217.696 50.2773C217.655 50.3359 217.629 50.3711 217.617 50.3828C217.611 50.3945 217.585 50.4268 217.538 50.4795C217.058 50.9775 216.504 51.3848 215.877 51.7012C215.25 52.0176 214.562 52.1758 213.812 52.1758C213.015 52.1758 212.326 52.0381 211.746 51.7627C211.166 51.4873 210.718 51.1006 210.401 50.6025C210.091 50.0986 209.936 49.5098 209.936 48.8359C209.936 48.3379 210.041 47.8809 210.252 47.4648C210.463 47.0488 210.747 46.6592 211.104 46.2959C211.462 45.9268 211.854 45.5693 212.282 45.2236ZM230.142 46.6738H226.345V46.0234H230.142C230.962 46.0234 231.63 45.8887 232.146 45.6191C232.661 45.3438 233.036 44.9775 233.271 44.5205C233.511 44.0576 233.631 43.5479 233.631 42.9912C233.631 42.417 233.511 41.8926 233.271 41.418C233.036 40.9434 232.661 40.5654 232.146 40.2842C231.63 39.9971 230.962 39.8535 230.142 39.8535H226.714V52H226.002V39.2031H230.142C231.062 39.2031 231.832 39.3613 232.453 39.6777C233.08 39.9941 233.552 40.4365 233.868 41.0049C234.185 41.5674 234.343 42.2236 234.343 42.9736C234.343 43.7354 234.185 44.3945 233.868 44.9512C233.552 45.502 233.083 45.9268 232.462 46.2256C231.841 46.5244 231.067 46.6738 230.142 46.6738ZM237.366 44.1074V52H236.672V42.4902H237.357L237.366 44.1074ZM240.987 42.4199L240.943 43.0527C240.838 43.0352 240.732 43.0205 240.627 43.0088C240.521 42.9971 240.41 42.9912 240.293 42.9912C239.789 42.9912 239.347 43.0908 238.966 43.29C238.591 43.4893 238.274 43.7617 238.017 44.1074C237.765 44.4531 237.574 44.8545 237.445 45.3115C237.316 45.7686 237.249 46.2578 237.243 46.7793L236.9 46.8496C236.9 46.1992 236.968 45.5986 237.103 45.0479C237.243 44.4971 237.454 44.0166 237.735 43.6064C238.017 43.1963 238.371 42.8799 238.799 42.6572C239.227 42.4287 239.73 42.3145 240.311 42.3145C240.451 42.3145 240.58 42.3262 240.697 42.3496C240.814 42.3672 240.911 42.3906 240.987 42.4199ZM241.875 47.4121V47.0781C241.875 46.3809 241.975 45.7422 242.174 45.1621C242.379 44.582 242.666 44.0811 243.035 43.6592C243.404 43.2314 243.844 42.9004 244.354 42.666C244.869 42.4316 245.44 42.3145 246.067 42.3145C246.694 42.3145 247.266 42.4316 247.781 42.666C248.297 42.9004 248.739 43.2314 249.108 43.6592C249.483 44.0811 249.771 44.582 249.97 45.1621C250.169 45.7422 250.269 46.3809 250.269 47.0781V47.4121C250.269 48.1094 250.169 48.748 249.97 49.3281C249.771 49.9082 249.486 50.4121 249.117 50.8398C248.748 51.2617 248.306 51.5898 247.79 51.8242C247.28 52.0586 246.712 52.1758 246.085 52.1758C245.452 52.1758 244.878 52.0586 244.362 51.8242C243.853 51.5898 243.41 51.2617 243.035 50.8398C242.666 50.4121 242.379 49.9082 242.174 49.3281C241.975 48.748 241.875 48.1094 241.875 47.4121ZM242.578 47.0781V47.4121C242.578 47.9629 242.654 48.4873 242.807 48.9854C242.965 49.4775 243.193 49.917 243.492 50.3037C243.791 50.6846 244.157 50.9863 244.591 51.209C245.024 51.4258 245.522 51.5342 246.085 51.5342C246.636 51.5342 247.128 51.4258 247.562 51.209C247.995 50.9863 248.358 50.6846 248.651 50.3037C248.95 49.917 249.176 49.4775 249.328 48.9854C249.486 48.4873 249.565 47.9629 249.565 47.4121V47.0781C249.565 46.5391 249.486 46.0234 249.328 45.5312C249.176 45.0391 248.95 44.5996 248.651 44.2129C248.353 43.8262 247.986 43.5215 247.553 43.2988C247.119 43.0703 246.624 42.9561 246.067 42.9561C245.511 42.9561 245.016 43.0703 244.582 43.2988C244.154 43.5215 243.788 43.8262 243.483 44.2129C243.185 44.5996 242.959 45.0391 242.807 45.5312C242.654 46.0234 242.578 46.5391 242.578 47.0781ZM255.867 51.5342C256.342 51.5342 256.79 51.4463 257.212 51.2705C257.64 51.0947 257.994 50.8281 258.275 50.4707C258.562 50.1074 258.724 49.6475 258.759 49.0908H259.444C259.415 49.7236 259.233 50.2715 258.899 50.7344C258.565 51.1914 258.135 51.5459 257.607 51.7979C257.08 52.0498 256.5 52.1758 255.867 52.1758C255.234 52.1758 254.669 52.0586 254.171 51.8242C253.679 51.5898 253.266 51.2588 252.932 50.8311C252.598 50.4033 252.343 49.9023 252.167 49.3281C251.997 48.748 251.912 48.1152 251.912 47.4297V47.0605C251.912 46.375 251.997 45.7451 252.167 45.1709C252.343 44.5908 252.598 44.0869 252.932 43.6592C253.266 43.2314 253.676 42.9004 254.162 42.666C254.654 42.4316 255.217 42.3145 255.85 42.3145C256.488 42.3145 257.074 42.4463 257.607 42.71C258.141 42.9678 258.571 43.3457 258.899 43.8438C259.233 44.3359 259.415 44.9395 259.444 45.6543H258.759C258.729 45.0684 258.58 44.5762 258.311 44.1777C258.041 43.7793 257.689 43.4775 257.256 43.2725C256.822 43.0615 256.354 42.9561 255.85 42.9561C255.287 42.9561 254.801 43.0645 254.391 43.2812C253.98 43.498 253.644 43.7969 253.38 44.1777C253.116 44.5527 252.923 44.9893 252.8 45.4873C252.677 45.9795 252.615 46.5039 252.615 47.0605V47.4297C252.615 47.9922 252.677 48.5225 252.8 49.0205C252.923 49.5127 253.116 49.9463 253.38 50.3213C253.644 50.6963 253.98 50.9922 254.391 51.209C254.807 51.4258 255.299 51.5342 255.867 51.5342ZM265.245 52.1758C264.647 52.1758 264.094 52.0615 263.584 51.833C263.074 51.5986 262.629 51.2734 262.248 50.8574C261.867 50.4355 261.568 49.9375 261.352 49.3633C261.141 48.7891 261.035 48.1592 261.035 47.4736V47.0869C261.035 46.3779 261.141 45.7334 261.352 45.1533C261.568 44.5674 261.861 44.0635 262.23 43.6416C262.6 43.2139 263.024 42.8857 263.505 42.6572C263.991 42.4287 264.51 42.3145 265.061 42.3145C265.617 42.3145 266.121 42.417 266.572 42.6221C267.023 42.8271 267.41 43.1143 267.732 43.4834C268.055 43.8525 268.301 44.292 268.471 44.8018C268.641 45.3115 268.726 45.874 268.726 46.4893V47.0781H261.475V46.4365H268.031V46.3223C268.025 45.7246 267.902 45.1709 267.662 44.6611C267.428 44.1514 267.091 43.7412 266.651 43.4307C266.212 43.1143 265.682 42.9561 265.061 42.9561C264.562 42.9561 264.108 43.0615 263.698 43.2725C263.294 43.4834 262.945 43.7764 262.652 44.1514C262.359 44.5205 262.134 44.957 261.976 45.4609C261.817 45.959 261.738 46.501 261.738 47.0869V47.4736C261.738 48.0361 261.826 48.5635 262.002 49.0557C262.178 49.5479 262.424 49.9814 262.74 50.3564C263.057 50.7256 263.429 51.0156 263.856 51.2266C264.284 51.4375 264.753 51.543 265.263 51.543C265.813 51.543 266.317 51.4463 266.774 51.2529C267.231 51.0596 267.647 50.7197 268.022 50.2334L268.479 50.5762C268.269 50.8809 268.014 51.1533 267.715 51.3936C267.416 51.6338 267.062 51.8242 266.651 51.9648C266.247 52.1055 265.778 52.1758 265.245 52.1758ZM276.697 49.6357C276.697 49.3545 276.621 49.0762 276.469 48.8008C276.322 48.5254 276.05 48.2676 275.651 48.0273C275.259 47.7871 274.688 47.585 273.938 47.4209C273.404 47.3037 272.933 47.1748 272.522 47.0342C272.118 46.8936 271.778 46.7236 271.503 46.5244C271.228 46.3193 271.02 46.0762 270.879 45.7949C270.744 45.5137 270.677 45.1768 270.677 44.7842C270.677 44.4443 270.75 44.125 270.896 43.8262C271.043 43.5273 271.257 43.2666 271.538 43.0439C271.825 42.8154 272.168 42.6367 272.566 42.5078C272.965 42.3789 273.416 42.3145 273.92 42.3145C274.641 42.3145 275.256 42.4346 275.766 42.6748C276.281 42.9092 276.677 43.2344 276.952 43.6504C277.228 44.0605 277.365 44.5381 277.365 45.083H276.662C276.662 44.7139 276.557 44.3682 276.346 44.0459C276.135 43.7236 275.824 43.4629 275.414 43.2637C275.01 43.0586 274.512 42.9561 273.92 42.9561C273.322 42.9561 272.836 43.0469 272.461 43.2285C272.086 43.4102 271.811 43.6416 271.635 43.9229C271.465 44.1982 271.38 44.4795 271.38 44.7666C271.38 44.9951 271.412 45.209 271.477 45.4082C271.547 45.6016 271.679 45.7803 271.872 45.9443C272.065 46.1084 272.344 46.2666 272.707 46.4189C273.07 46.5654 273.542 46.7031 274.122 46.832C274.884 47.002 275.505 47.21 275.985 47.4561C276.466 47.6963 276.82 47.9922 277.049 48.3438C277.277 48.6895 277.392 49.1143 277.392 49.6182C277.392 49.9932 277.312 50.3389 277.154 50.6553C276.996 50.9658 276.768 51.2354 276.469 51.4639C276.176 51.6924 275.818 51.8682 275.396 51.9912C274.975 52.1143 274.506 52.1758 273.99 52.1758C273.211 52.1758 272.549 52.0527 272.004 51.8066C271.465 51.5547 271.055 51.2236 270.773 50.8135C270.498 50.4033 270.36 49.9609 270.36 49.4863H271.063C271.104 50.0078 271.274 50.418 271.573 50.7168C271.878 51.0156 272.247 51.2266 272.681 51.3496C273.12 51.4727 273.557 51.5342 273.99 51.5342C274.582 51.5342 275.077 51.4434 275.476 51.2617C275.88 51.0742 276.185 50.8369 276.39 50.5498C276.595 50.2568 276.697 49.9521 276.697 49.6357ZM285.715 49.6357C285.715 49.3545 285.639 49.0762 285.486 48.8008C285.34 48.5254 285.067 48.2676 284.669 48.0273C284.276 47.7871 283.705 47.585 282.955 47.4209C282.422 47.3037 281.95 47.1748 281.54 47.0342C281.136 46.8936 280.796 46.7236 280.521 46.5244C280.245 46.3193 280.037 46.0762 279.896 45.7949C279.762 45.5137 279.694 45.1768 279.694 44.7842C279.694 44.4443 279.768 44.125 279.914 43.8262C280.061 43.5273 280.274 43.2666 280.556 43.0439C280.843 42.8154 281.186 42.6367 281.584 42.5078C281.982 42.3789 282.434 42.3145 282.938 42.3145C283.658 42.3145 284.273 42.4346 284.783 42.6748C285.299 42.9092 285.694 43.2344 285.97 43.6504C286.245 44.0605 286.383 44.5381 286.383 45.083H285.68C285.68 44.7139 285.574 44.3682 285.363 44.0459C285.152 43.7236 284.842 43.4629 284.432 43.2637C284.027 43.0586 283.529 42.9561 282.938 42.9561C282.34 42.9561 281.854 43.0469 281.479 43.2285C281.104 43.4102 280.828 43.6416 280.652 43.9229C280.482 44.1982 280.397 44.4795 280.397 44.7666C280.397 44.9951 280.43 45.209 280.494 45.4082C280.564 45.6016 280.696 45.7803 280.89 45.9443C281.083 46.1084 281.361 46.2666 281.725 46.4189C282.088 46.5654 282.56 46.7031 283.14 46.832C283.901 47.002 284.522 47.21 285.003 47.4561C285.483 47.6963 285.838 47.9922 286.066 48.3438C286.295 48.6895 286.409 49.1143 286.409 49.6182C286.409 49.9932 286.33 50.3389 286.172 50.6553C286.014 50.9658 285.785 51.2354 285.486 51.4639C285.193 51.6924 284.836 51.8682 284.414 51.9912C283.992 52.1143 283.523 52.1758 283.008 52.1758C282.229 52.1758 281.566 52.0527 281.021 51.8066C280.482 51.5547 280.072 51.2236 279.791 50.8135C279.516 50.4033 279.378 49.9609 279.378 49.4863H280.081C280.122 50.0078 280.292 50.418 280.591 50.7168C280.896 51.0156 281.265 51.2266 281.698 51.3496C282.138 51.4727 282.574 51.5342 283.008 51.5342C283.6 51.5342 284.095 51.4434 284.493 51.2617C284.897 51.0742 285.202 50.8369 285.407 50.5498C285.612 50.2568 285.715 49.9521 285.715 49.6357ZM301.017 48.8975C301.017 48.5166 300.952 48.1768 300.823 47.8779C300.694 47.5732 300.48 47.3037 300.182 47.0693C299.889 46.8291 299.502 46.6064 299.021 46.4014C298.541 46.1963 297.949 45.9971 297.246 45.8037C296.602 45.6279 296.019 45.4375 295.497 45.2324C294.981 45.0215 294.539 44.7812 294.17 44.5117C293.807 44.2422 293.528 43.9229 293.335 43.5537C293.142 43.1787 293.045 42.7363 293.045 42.2266C293.045 41.7344 293.15 41.292 293.361 40.8994C293.572 40.5068 293.868 40.1729 294.249 39.8975C294.636 39.6162 295.087 39.4023 295.603 39.2559C296.124 39.1035 296.692 39.0273 297.308 39.0273C298.169 39.0273 298.922 39.1914 299.566 39.5195C300.211 39.8418 300.715 40.29 301.078 40.8643C301.441 41.4326 301.623 42.0859 301.623 42.8242H300.911C300.911 42.2207 300.762 41.6816 300.463 41.207C300.17 40.7324 299.754 40.3604 299.215 40.0908C298.682 39.8154 298.046 39.6777 297.308 39.6777C296.546 39.6777 295.898 39.7949 295.365 40.0293C294.838 40.2637 294.437 40.5742 294.161 40.9609C293.892 41.3418 293.757 41.7578 293.757 42.209C293.757 42.5312 293.815 42.833 293.933 43.1143C294.056 43.3955 294.255 43.6533 294.53 43.8877C294.812 44.1221 295.189 44.3447 295.664 44.5557C296.145 44.7607 296.742 44.96 297.457 45.1533C298.113 45.3232 298.702 45.5166 299.224 45.7334C299.751 45.9443 300.202 46.1934 300.577 46.4805C300.952 46.7676 301.239 47.1074 301.438 47.5C301.638 47.8926 301.737 48.3525 301.737 48.8799C301.737 49.4014 301.626 49.8672 301.403 50.2773C301.181 50.6816 300.87 51.0273 300.472 51.3145C300.079 51.5957 299.616 51.8096 299.083 51.9561C298.556 52.1025 297.987 52.1758 297.378 52.1758C296.821 52.1758 296.262 52.1084 295.699 51.9736C295.143 51.8389 294.633 51.6221 294.17 51.3232C293.707 51.0244 293.335 50.6318 293.054 50.1455C292.772 49.6592 292.632 49.0674 292.632 48.3701H293.344C293.344 48.9678 293.467 49.4717 293.713 49.8818C293.959 50.2861 294.281 50.6084 294.68 50.8486C295.078 51.0889 295.512 51.2617 295.98 51.3672C296.455 51.4727 296.921 51.5254 297.378 51.5254C298.093 51.5254 298.723 51.417 299.268 51.2002C299.818 50.9775 300.246 50.6699 300.551 50.2773C300.861 49.8789 301.017 49.4189 301.017 48.8975ZM307.45 52.1758C306.853 52.1758 306.299 52.0615 305.789 51.833C305.279 51.5986 304.834 51.2734 304.453 50.8574C304.072 50.4355 303.773 49.9375 303.557 49.3633C303.346 48.7891 303.24 48.1592 303.24 47.4736V47.0869C303.24 46.3779 303.346 45.7334 303.557 45.1533C303.773 44.5674 304.066 44.0635 304.436 43.6416C304.805 43.2139 305.229 42.8857 305.71 42.6572C306.196 42.4287 306.715 42.3145 307.266 42.3145C307.822 42.3145 308.326 42.417 308.777 42.6221C309.229 42.8271 309.615 43.1143 309.938 43.4834C310.26 43.8525 310.506 44.292 310.676 44.8018C310.846 45.3115 310.931 45.874 310.931 46.4893V47.0781H303.68V46.4365H310.236V46.3223C310.23 45.7246 310.107 45.1709 309.867 44.6611C309.633 44.1514 309.296 43.7412 308.856 43.4307C308.417 43.1143 307.887 42.9561 307.266 42.9561C306.768 42.9561 306.313 43.0615 305.903 43.2725C305.499 43.4834 305.15 43.7764 304.857 44.1514C304.564 44.5205 304.339 44.957 304.181 45.4609C304.022 45.959 303.943 46.501 303.943 47.0869V47.4736C303.943 48.0361 304.031 48.5635 304.207 49.0557C304.383 49.5479 304.629 49.9814 304.945 50.3564C305.262 50.7256 305.634 51.0156 306.062 51.2266C306.489 51.4375 306.958 51.543 307.468 51.543C308.019 51.543 308.522 51.4463 308.979 51.2529C309.437 51.0596 309.853 50.7197 310.228 50.2334L310.685 50.5762C310.474 50.8809 310.219 51.1533 309.92 51.3936C309.621 51.6338 309.267 51.8242 308.856 51.9648C308.452 52.1055 307.983 52.1758 307.45 52.1758ZM313.796 44.1074V52H313.102V42.4902H313.787L313.796 44.1074ZM317.417 42.4199L317.373 43.0527C317.268 43.0352 317.162 43.0205 317.057 43.0088C316.951 42.9971 316.84 42.9912 316.723 42.9912C316.219 42.9912 315.776 43.0908 315.396 43.29C315.021 43.4893 314.704 43.7617 314.446 44.1074C314.194 44.4531 314.004 44.8545 313.875 45.3115C313.746 45.7686 313.679 46.2578 313.673 46.7793L313.33 46.8496C313.33 46.1992 313.397 45.5986 313.532 45.0479C313.673 44.4971 313.884 44.0166 314.165 43.6064C314.446 43.1963 314.801 42.8799 315.229 42.6572C315.656 42.4287 316.16 42.3145 316.74 42.3145C316.881 42.3145 317.01 42.3262 317.127 42.3496C317.244 42.3672 317.341 42.3906 317.417 42.4199ZM322.058 51.2617L325.38 42.4902H326.118L322.471 52H321.899L322.058 51.2617ZM318.946 42.4902L322.286 51.2793L322.436 52H321.855L318.208 42.4902H318.946ZM328.755 42.4902V52H328.052V42.4902H328.755ZM327.832 39.6074C327.832 39.4492 327.885 39.3145 327.99 39.2031C328.102 39.0859 328.242 39.0273 328.412 39.0273C328.576 39.0273 328.714 39.0859 328.825 39.2031C328.937 39.3145 328.992 39.4492 328.992 39.6074C328.992 39.7656 328.937 39.9004 328.825 40.0117C328.714 40.1172 328.576 40.1699 328.412 40.1699C328.242 40.1699 328.102 40.1172 327.99 40.0117C327.885 39.9004 327.832 39.7656 327.832 39.6074ZM335.127 51.5342C335.602 51.5342 336.05 51.4463 336.472 51.2705C336.899 51.0947 337.254 50.8281 337.535 50.4707C337.822 50.1074 337.983 49.6475 338.019 49.0908H338.704C338.675 49.7236 338.493 50.2715 338.159 50.7344C337.825 51.1914 337.395 51.5459 336.867 51.7979C336.34 52.0498 335.76 52.1758 335.127 52.1758C334.494 52.1758 333.929 52.0586 333.431 51.8242C332.938 51.5898 332.525 51.2588 332.191 50.8311C331.857 50.4033 331.603 49.9023 331.427 49.3281C331.257 48.748 331.172 48.1152 331.172 47.4297V47.0605C331.172 46.375 331.257 45.7451 331.427 45.1709C331.603 44.5908 331.857 44.0869 332.191 43.6592C332.525 43.2314 332.936 42.9004 333.422 42.666C333.914 42.4316 334.477 42.3145 335.109 42.3145C335.748 42.3145 336.334 42.4463 336.867 42.71C337.4 42.9678 337.831 43.3457 338.159 43.8438C338.493 44.3359 338.675 44.9395 338.704 45.6543H338.019C337.989 45.0684 337.84 44.5762 337.57 44.1777C337.301 43.7793 336.949 43.4775 336.516 43.2725C336.082 43.0615 335.613 42.9561 335.109 42.9561C334.547 42.9561 334.061 43.0645 333.65 43.2812C333.24 43.498 332.903 43.7969 332.64 44.1777C332.376 44.5527 332.183 44.9893 332.06 45.4873C331.937 45.9795 331.875 46.5039 331.875 47.0605V47.4297C331.875 47.9922 331.937 48.5225 332.06 49.0205C332.183 49.5127 332.376 49.9463 332.64 50.3213C332.903 50.6963 333.24 50.9922 333.65 51.209C334.066 51.4258 334.559 51.5342 335.127 51.5342ZM344.505 52.1758C343.907 52.1758 343.354 52.0615 342.844 51.833C342.334 51.5986 341.889 51.2734 341.508 50.8574C341.127 50.4355 340.828 49.9375 340.611 49.3633C340.4 48.7891 340.295 48.1592 340.295 47.4736V47.0869C340.295 46.3779 340.4 45.7334 340.611 45.1533C340.828 44.5674 341.121 44.0635 341.49 43.6416C341.859 43.2139 342.284 42.8857 342.765 42.6572C343.251 42.4287 343.77 42.3145 344.32 42.3145C344.877 42.3145 345.381 42.417 345.832 42.6221C346.283 42.8271 346.67 43.1143 346.992 43.4834C347.314 43.8525 347.561 44.292 347.73 44.8018C347.9 45.3115 347.985 45.874 347.985 46.4893V47.0781H340.734V46.4365H347.291V46.3223C347.285 45.7246 347.162 45.1709 346.922 44.6611C346.688 44.1514 346.351 43.7412 345.911 43.4307C345.472 43.1143 344.941 42.9561 344.32 42.9561C343.822 42.9561 343.368 43.0615 342.958 43.2725C342.554 43.4834 342.205 43.7764 341.912 44.1514C341.619 44.5205 341.394 44.957 341.235 45.4609C341.077 45.959 340.998 46.501 340.998 47.0869V47.4736C340.998 48.0361 341.086 48.5635 341.262 49.0557C341.438 49.5479 341.684 49.9814 342 50.3564C342.316 50.7256 342.688 51.0156 343.116 51.2266C343.544 51.4375 344.013 51.543 344.522 51.543C345.073 51.543 345.577 51.4463 346.034 51.2529C346.491 51.0596 346.907 50.7197 347.282 50.2334L347.739 50.5762C347.528 50.8809 347.273 51.1533 346.975 51.3936C346.676 51.6338 346.321 51.8242 345.911 51.9648C345.507 52.1055 345.038 52.1758 344.505 52.1758ZM355.957 49.6357C355.957 49.3545 355.881 49.0762 355.729 48.8008C355.582 48.5254 355.31 48.2676 354.911 48.0273C354.519 47.7871 353.947 47.585 353.197 47.4209C352.664 47.3037 352.192 47.1748 351.782 47.0342C351.378 46.8936 351.038 46.7236 350.763 46.5244C350.487 46.3193 350.279 46.0762 350.139 45.7949C350.004 45.5137 349.937 45.1768 349.937 44.7842C349.937 44.4443 350.01 44.125 350.156 43.8262C350.303 43.5273 350.517 43.2666 350.798 43.0439C351.085 42.8154 351.428 42.6367 351.826 42.5078C352.225 42.3789 352.676 42.3145 353.18 42.3145C353.9 42.3145 354.516 42.4346 355.025 42.6748C355.541 42.9092 355.937 43.2344 356.212 43.6504C356.487 44.0605 356.625 44.5381 356.625 45.083H355.922C355.922 44.7139 355.816 44.3682 355.605 44.0459C355.395 43.7236 355.084 43.4629 354.674 43.2637C354.27 43.0586 353.771 42.9561 353.18 42.9561C352.582 42.9561 352.096 43.0469 351.721 43.2285C351.346 43.4102 351.07 43.6416 350.895 43.9229C350.725 44.1982 350.64 44.4795 350.64 44.7666C350.64 44.9951 350.672 45.209 350.736 45.4082C350.807 45.6016 350.938 45.7803 351.132 45.9443C351.325 46.1084 351.604 46.2666 351.967 46.4189C352.33 46.5654 352.802 46.7031 353.382 46.832C354.144 47.002 354.765 47.21 355.245 47.4561C355.726 47.6963 356.08 47.9922 356.309 48.3438C356.537 48.6895 356.651 49.1143 356.651 49.6182C356.651 49.9932 356.572 50.3389 356.414 50.6553C356.256 50.9658 356.027 51.2354 355.729 51.4639C355.436 51.6924 355.078 51.8682 354.656 51.9912C354.234 52.1143 353.766 52.1758 353.25 52.1758C352.471 52.1758 351.809 52.0527 351.264 51.8066C350.725 51.5547 350.314 51.2236 350.033 50.8135C349.758 50.4033 349.62 49.9609 349.62 49.4863H350.323C350.364 50.0078 350.534 50.418 350.833 50.7168C351.138 51.0156 351.507 51.2266 351.94 51.3496C352.38 51.4727 352.816 51.5342 353.25 51.5342C353.842 51.5342 354.337 51.4434 354.735 51.2617C355.14 51.0742 355.444 50.8369 355.649 50.5498C355.854 50.2568 355.957 49.9521 355.957 49.6357Z" fill="black"/>
<path d="M4 28C4 23.0294 8.02944 19 13 19V19V69V69C8.02944 69 4 64.9706 4 60V28Z" fill="#85B95D"/>
<g filter="url(#filter0_d_868_406)">
<path d="M4 29.5C4 22.0442 10.0442 16 17.5 16H132C133.105 16 134 16.8954 134 18V47C134 48.1046 133.105 49 132 49H4V29.5Z" fill="#89C958"/>
</g>
<defs>
<filter id="filter0_d_868_406" x="0" y="13" width="138" height="41" filterUnits="userSpaceOnUse" color-interpolation-filters="sRGB">
<feFlood flood-opacity="0" result="BackgroundImageFix"/>
<feColorMatrix in="SourceAlpha" type="matrix" values="0 0 0 0 0 0 0 0 0 0 0 0 0 0 0 0 0 0 127 0" result="hardAlpha"/>
<feOffset dy="1"/>
<feGaussianBlur stdDeviation="2"/>
<feComposite in2="hardAlpha" operator="out"/>
<feColorMatrix type="matrix" values="0 0 0 0 0 0 0 0 0 0 0 0 0 0 0 0 0 0 0.11 0"/>
<feBlend mode="normal" in2="BackgroundImageFix" result="effect1_dropShadow_868_406"/>
<feBlend mode="normal" in="SourceGraphic" in2="effect1_dropShadow_868_406" result="shape"/>
</filter>
</defs>
</svg>
