<svg width="1440" height="567" viewBox="0 0 1440 567" fill="none" xmlns="http://www.w3.org/2000/svg">
<g clip-path="url(#clip0_1599_776)">
<path d="M-216.783 191.106C-221.249 183.371 -221.249 173.841 -216.783 166.106L-141.914 36.4287C-137.448 28.6937 -129.195 23.9287 -120.263 23.9287H29.4753C38.407 23.9287 46.6602 28.6937 51.126 36.4287L125.996 166.106C130.461 173.841 130.461 183.371 125.996 191.106L51.126 320.784C46.6601 328.519 38.407 333.284 29.4753 333.284H-120.263C-129.195 333.284 -137.448 328.519 -141.914 320.784L-216.783 191.106Z" fill="#89C958" fill-opacity="0.78"/>
<path d="M61.4118 671.719C56.9461 663.984 56.9461 654.454 61.4118 646.719L136.282 517.042C140.747 509.307 149.001 504.542 157.932 504.542H307.671C316.603 504.542 324.856 509.307 329.322 517.042L404.191 646.719C408.657 654.454 408.657 663.984 404.191 671.719L329.322 801.397C324.856 809.132 316.603 813.897 307.671 813.897H157.932C149.001 813.897 140.747 809.132 136.282 801.397L61.4118 671.719Z" fill="#89C958" fill-opacity="0.78"/>
<path d="M-216.783 511.515C-221.249 503.78 -221.249 494.25 -216.783 486.515L-141.914 356.838C-137.448 349.103 -129.195 344.338 -120.263 344.338H29.4753C38.407 344.338 46.6602 349.103 51.126 356.838L125.996 486.515C130.461 494.25 130.461 503.78 125.996 511.515L51.126 641.193C46.6601 648.928 38.407 653.693 29.4753 653.693H-120.263C-129.195 653.693 -137.448 648.928 -141.914 641.193L-216.783 511.515Z" fill="#89C958" fill-opacity="0.78"/>
<path d="M617.795 671.719C613.329 663.984 613.329 654.454 617.795 646.719L692.664 517.042C697.13 509.307 705.383 504.542 714.315 504.542H864.054C872.985 504.542 881.239 509.307 885.704 517.042L960.574 646.719C965.04 654.454 965.04 663.984 960.574 671.719L885.704 801.397C881.239 809.132 872.985 813.897 864.054 813.897H714.315C705.383 813.897 697.13 809.132 692.664 801.397L617.795 671.719Z" fill="#89C958" fill-opacity="0.78"/>
<path d="M895.989 511.515C891.524 503.78 891.524 494.25 895.989 486.515L970.859 356.838C975.325 349.103 983.578 344.338 992.509 344.338H1142.25C1151.18 344.338 1159.43 349.103 1163.9 356.838L1238.77 486.515C1243.23 494.25 1243.23 503.78 1238.77 511.515L1163.9 641.193C1159.43 648.928 1151.18 653.693 1142.25 653.693H992.509C983.578 653.693 975.325 648.928 970.859 641.193L895.989 511.515Z" fill="#89C958" fill-opacity="0.78"/>
<path d="M1174.18 671.719C1169.71 663.984 1169.71 654.454 1174.18 646.719L1249.05 517.042C1253.52 509.307 1261.77 504.542 1270.7 504.542H1420.44C1429.37 504.542 1437.62 509.307 1442.09 517.042L1516.96 646.719C1521.43 654.454 1521.43 663.984 1516.96 671.719L1442.09 801.397C1437.62 809.132 1429.37 813.897 1420.44 813.897H1270.7C1261.77 813.897 1253.52 809.132 1249.05 801.397L1174.18 671.719Z" fill="#89C958" fill-opacity="0.78"/>
<path d="M61.4118 351.311C56.9461 343.576 56.9461 334.046 61.4118 326.311L136.282 196.633C140.747 188.898 149.001 184.133 157.932 184.133H307.671C316.603 184.133 324.856 188.898 329.322 196.633L404.191 326.311C408.657 334.046 408.657 343.576 404.191 351.311L329.322 480.988C324.856 488.723 316.603 493.488 307.671 493.488H157.932C149.001 493.488 140.747 488.723 136.282 480.988L61.4118 351.311Z" fill="#89C958" fill-opacity="0.78"/>
<path d="M204.766 333.287V339H186.87V333.287H204.766ZM189.238 303.453V339H181.914V303.453H189.238ZM220.684 339.488C218.633 339.488 216.794 339.163 215.166 338.512C213.538 337.844 212.155 336.925 211.016 335.753C209.893 334.581 209.03 333.222 208.428 331.676C207.826 330.113 207.524 328.453 207.524 326.695V325.719C207.524 323.717 207.809 321.886 208.379 320.226C208.949 318.565 209.762 317.125 210.82 315.904C211.895 314.684 213.197 313.748 214.727 313.097C216.257 312.429 217.982 312.096 219.902 312.096C221.774 312.096 223.434 312.405 224.883 313.023C226.331 313.642 227.544 314.521 228.521 315.66C229.513 316.799 230.262 318.167 230.767 319.762C231.271 321.34 231.523 323.098 231.523 325.035V327.965H210.527V323.277H224.614V322.74C224.614 321.764 224.435 320.893 224.077 320.128C223.735 319.347 223.215 318.728 222.515 318.272C221.815 317.817 220.92 317.589 219.829 317.589C218.901 317.589 218.104 317.792 217.437 318.199C216.769 318.606 216.224 319.176 215.801 319.908C215.394 320.641 215.085 321.503 214.873 322.496C214.678 323.473 214.58 324.547 214.58 325.719V326.695C214.58 327.753 214.727 328.73 215.02 329.625C215.329 330.52 215.76 331.293 216.313 331.944C216.883 332.595 217.567 333.1 218.364 333.458C219.178 333.816 220.098 333.995 221.123 333.995C222.393 333.995 223.573 333.751 224.663 333.263C225.77 332.758 226.722 332.001 227.52 330.992L230.938 334.703C230.384 335.501 229.627 336.266 228.667 336.998C227.723 337.73 226.584 338.333 225.249 338.805C223.914 339.26 222.393 339.488 220.684 339.488ZM249.785 333.043V321.275C249.785 320.429 249.647 319.705 249.37 319.103C249.093 318.484 248.662 318.004 248.076 317.662C247.507 317.32 246.766 317.149 245.854 317.149C245.073 317.149 244.398 317.288 243.828 317.564C243.258 317.825 242.819 318.207 242.51 318.712C242.201 319.2 242.046 319.778 242.046 320.445H235.015C235.015 319.322 235.275 318.256 235.796 317.247C236.317 316.238 237.074 315.351 238.066 314.586C239.059 313.805 240.239 313.194 241.606 312.755C242.99 312.315 244.536 312.096 246.245 312.096C248.296 312.096 250.119 312.438 251.714 313.121C253.309 313.805 254.562 314.83 255.474 316.197C256.401 317.564 256.865 319.273 256.865 321.324V332.628C256.865 334.076 256.955 335.265 257.134 336.192C257.313 337.104 257.573 337.901 257.915 338.585V339H250.811C250.469 338.284 250.208 337.389 250.029 336.314C249.867 335.224 249.785 334.133 249.785 333.043ZM250.713 322.911L250.762 326.891H246.831C245.903 326.891 245.098 326.996 244.414 327.208C243.73 327.42 243.169 327.721 242.729 328.111C242.29 328.486 241.965 328.925 241.753 329.43C241.558 329.934 241.46 330.488 241.46 331.09C241.46 331.692 241.598 332.237 241.875 332.726C242.152 333.198 242.55 333.572 243.071 333.849C243.592 334.109 244.202 334.239 244.902 334.239C245.96 334.239 246.88 334.028 247.661 333.604C248.442 333.181 249.045 332.66 249.468 332.042C249.907 331.424 250.135 330.838 250.151 330.284L252.007 333.263C251.746 333.93 251.388 334.622 250.933 335.338C250.493 336.054 249.932 336.729 249.248 337.364C248.564 337.983 247.743 338.495 246.782 338.902C245.822 339.293 244.683 339.488 243.364 339.488C241.688 339.488 240.166 339.155 238.799 338.487C237.448 337.804 236.374 336.868 235.576 335.68C234.795 334.475 234.404 333.108 234.404 331.578C234.404 330.195 234.665 328.966 235.186 327.892C235.706 326.817 236.471 325.914 237.48 325.182C238.506 324.433 239.784 323.871 241.313 323.497C242.843 323.106 244.618 322.911 246.636 322.911H250.713ZM269.316 301.476V339H262.285V301.476H269.316ZM285.967 312.584L274.492 325.67L268.34 331.896L265.776 326.817L270.659 320.616L277.52 312.584H285.967ZM278.667 339L270.854 326.793L275.713 322.545L286.772 339H278.667ZM138.604 398H130.864L130.913 392.287H138.604C140.524 392.287 142.144 391.856 143.462 390.993C144.78 390.114 145.773 388.837 146.44 387.16C147.124 385.484 147.466 383.457 147.466 381.081V379.348C147.466 377.525 147.271 375.922 146.88 374.538C146.506 373.155 145.944 371.991 145.195 371.047C144.447 370.103 143.527 369.395 142.437 368.923C141.346 368.435 140.093 368.19 138.677 368.19H130.718V362.453H138.677C141.053 362.453 143.226 362.86 145.195 363.674C147.181 364.471 148.898 365.619 150.347 367.116C151.795 368.614 152.91 370.404 153.691 372.487C154.489 374.554 154.888 376.857 154.888 379.396V381.081C154.888 383.604 154.489 385.907 153.691 387.99C152.91 390.074 151.795 391.864 150.347 393.361C148.914 394.842 147.197 395.99 145.195 396.804C143.21 397.601 141.012 398 138.604 398ZM135.015 362.453V398H127.69V362.453H135.015ZM171.929 398.488C169.878 398.488 168.039 398.163 166.411 397.512C164.784 396.844 163.4 395.925 162.261 394.753C161.138 393.581 160.275 392.222 159.673 390.676C159.071 389.113 158.77 387.453 158.77 385.695V384.719C158.77 382.717 159.054 380.886 159.624 379.226C160.194 377.565 161.007 376.125 162.065 374.904C163.14 373.684 164.442 372.748 165.972 372.097C167.502 371.429 169.227 371.096 171.147 371.096C173.019 371.096 174.679 371.405 176.128 372.023C177.576 372.642 178.789 373.521 179.766 374.66C180.758 375.799 181.507 377.167 182.012 378.762C182.516 380.34 182.769 382.098 182.769 384.035V386.965H161.772V382.277H175.859V381.74C175.859 380.764 175.68 379.893 175.322 379.128C174.98 378.347 174.46 377.728 173.76 377.272C173.06 376.817 172.165 376.589 171.074 376.589C170.146 376.589 169.349 376.792 168.682 377.199C168.014 377.606 167.469 378.176 167.046 378.908C166.639 379.641 166.33 380.503 166.118 381.496C165.923 382.473 165.825 383.547 165.825 384.719V385.695C165.825 386.753 165.972 387.73 166.265 388.625C166.574 389.52 167.005 390.293 167.559 390.944C168.128 391.595 168.812 392.1 169.609 392.458C170.423 392.816 171.343 392.995 172.368 392.995C173.638 392.995 174.818 392.751 175.908 392.263C177.015 391.758 177.967 391.001 178.765 389.992L182.183 393.703C181.629 394.501 180.872 395.266 179.912 395.998C178.968 396.73 177.829 397.333 176.494 397.805C175.16 398.26 173.638 398.488 171.929 398.488ZM199.712 371.584V376.564H184.331V371.584H199.712ZM188.14 365.065H195.171V390.041C195.171 390.806 195.269 391.392 195.464 391.799C195.675 392.206 195.985 392.491 196.392 392.653C196.799 392.8 197.311 392.873 197.93 392.873C198.369 392.873 198.76 392.857 199.102 392.824C199.46 392.775 199.761 392.727 200.005 392.678L200.029 397.854C199.427 398.049 198.776 398.203 198.076 398.317C197.376 398.431 196.603 398.488 195.757 398.488C194.211 398.488 192.86 398.236 191.704 397.731C190.565 397.211 189.686 396.381 189.067 395.241C188.449 394.102 188.14 392.604 188.14 390.749V365.065ZM215.874 398.488C213.823 398.488 211.984 398.163 210.356 397.512C208.729 396.844 207.345 395.925 206.206 394.753C205.083 393.581 204.22 392.222 203.618 390.676C203.016 389.113 202.715 387.453 202.715 385.695V384.719C202.715 382.717 203 380.886 203.569 379.226C204.139 377.565 204.953 376.125 206.011 374.904C207.085 373.684 208.387 372.748 209.917 372.097C211.447 371.429 213.172 371.096 215.093 371.096C216.965 371.096 218.625 371.405 220.073 372.023C221.522 372.642 222.734 373.521 223.711 374.66C224.704 375.799 225.452 377.167 225.957 378.762C226.462 380.34 226.714 382.098 226.714 384.035V386.965H205.718V382.277H219.805V381.74C219.805 380.764 219.626 379.893 219.268 379.128C218.926 378.347 218.405 377.728 217.705 377.272C217.005 376.817 216.11 376.589 215.02 376.589C214.092 376.589 213.294 376.792 212.627 377.199C211.96 377.606 211.414 378.176 210.991 378.908C210.584 379.641 210.275 380.503 210.063 381.496C209.868 382.473 209.771 383.547 209.771 384.719V385.695C209.771 386.753 209.917 387.73 210.21 388.625C210.519 389.52 210.951 390.293 211.504 390.944C212.074 391.595 212.757 392.1 213.555 392.458C214.368 392.816 215.288 392.995 216.313 392.995C217.583 392.995 218.763 392.751 219.854 392.263C220.96 391.758 221.912 391.001 222.71 389.992L226.128 393.703C225.575 394.501 224.818 395.266 223.857 395.998C222.913 396.73 221.774 397.333 220.439 397.805C219.105 398.26 217.583 398.488 215.874 398.488ZM241.631 392.995C242.493 392.995 243.258 392.832 243.926 392.507C244.593 392.165 245.114 391.693 245.488 391.091C245.879 390.472 246.082 389.748 246.099 388.918H252.715C252.699 390.773 252.202 392.425 251.226 393.874C250.249 395.306 248.939 396.438 247.295 397.268C245.651 398.081 243.812 398.488 241.777 398.488C239.727 398.488 237.936 398.146 236.406 397.463C234.893 396.779 233.631 395.835 232.622 394.631C231.613 393.41 230.856 391.994 230.352 390.383C229.847 388.755 229.595 387.014 229.595 385.158V384.45C229.595 382.578 229.847 380.837 230.352 379.226C230.856 377.598 231.613 376.182 232.622 374.978C233.631 373.757 234.893 372.805 236.406 372.121C237.92 371.438 239.694 371.096 241.729 371.096C243.893 371.096 245.789 371.511 247.417 372.341C249.061 373.171 250.347 374.359 251.274 375.905C252.218 377.435 252.699 379.25 252.715 381.35H246.099C246.082 380.471 245.895 379.673 245.537 378.957C245.195 378.241 244.691 377.671 244.023 377.248C243.372 376.809 242.567 376.589 241.606 376.589C240.581 376.589 239.743 376.809 239.092 377.248C238.441 377.671 237.936 378.257 237.578 379.006C237.22 379.738 236.968 380.576 236.821 381.521C236.691 382.448 236.626 383.425 236.626 384.45V385.158C236.626 386.184 236.691 387.168 236.821 388.112C236.951 389.056 237.196 389.895 237.554 390.627C237.928 391.359 238.441 391.937 239.092 392.36C239.743 392.784 240.589 392.995 241.631 392.995ZM269.731 371.584V376.564H254.351V371.584H269.731ZM258.159 365.065H265.19V390.041C265.19 390.806 265.288 391.392 265.483 391.799C265.695 392.206 266.004 392.491 266.411 392.653C266.818 392.8 267.331 392.873 267.949 392.873C268.389 392.873 268.779 392.857 269.121 392.824C269.479 392.775 269.78 392.727 270.024 392.678L270.049 397.854C269.447 398.049 268.796 398.203 268.096 398.317C267.396 398.431 266.623 398.488 265.776 398.488C264.23 398.488 262.879 398.236 261.724 397.731C260.584 397.211 259.705 396.381 259.087 395.241C258.468 394.102 258.159 392.604 258.159 390.749V365.065ZM281.157 371.584V398H274.102V371.584H281.157ZM273.662 364.699C273.662 363.674 274.02 362.827 274.736 362.16C275.452 361.493 276.413 361.159 277.617 361.159C278.805 361.159 279.757 361.493 280.474 362.16C281.206 362.827 281.572 363.674 281.572 364.699C281.572 365.725 281.206 366.571 280.474 367.238C279.757 367.906 278.805 368.239 277.617 368.239C276.413 368.239 275.452 367.906 274.736 367.238C274.02 366.571 273.662 365.725 273.662 364.699ZM285.845 385.061V384.548C285.845 382.611 286.121 380.829 286.675 379.201C287.228 377.557 288.034 376.133 289.092 374.929C290.15 373.724 291.452 372.788 292.998 372.121C294.544 371.438 296.318 371.096 298.32 371.096C300.322 371.096 302.104 371.438 303.667 372.121C305.229 372.788 306.54 373.724 307.598 374.929C308.672 376.133 309.486 377.557 310.039 379.201C310.592 380.829 310.869 382.611 310.869 384.548V385.061C310.869 386.981 310.592 388.763 310.039 390.407C309.486 392.035 308.672 393.459 307.598 394.68C306.54 395.884 305.238 396.82 303.691 397.487C302.145 398.155 300.371 398.488 298.369 398.488C296.367 398.488 294.585 398.155 293.022 397.487C291.476 396.82 290.166 395.884 289.092 394.68C288.034 393.459 287.228 392.035 286.675 390.407C286.121 388.763 285.845 386.981 285.845 385.061ZM292.876 384.548V385.061C292.876 386.167 292.974 387.201 293.169 388.161C293.364 389.121 293.674 389.968 294.097 390.7C294.536 391.416 295.106 391.978 295.806 392.385C296.506 392.792 297.36 392.995 298.369 392.995C299.346 392.995 300.184 392.792 300.884 392.385C301.584 391.978 302.145 391.416 302.568 390.7C302.992 389.968 303.301 389.121 303.496 388.161C303.708 387.201 303.813 386.167 303.813 385.061V384.548C303.813 383.474 303.708 382.465 303.496 381.521C303.301 380.56 302.983 379.714 302.544 378.981C302.121 378.233 301.559 377.647 300.859 377.224C300.16 376.8 299.313 376.589 298.32 376.589C297.327 376.589 296.481 376.8 295.781 377.224C295.098 377.647 294.536 378.233 294.097 378.981C293.674 379.714 293.364 380.56 293.169 381.521C292.974 382.465 292.876 383.474 292.876 384.548ZM322.075 377.224V398H315.044V371.584H321.636L322.075 377.224ZM321.05 383.864H319.146C319.146 381.911 319.398 380.153 319.902 378.591C320.407 377.012 321.115 375.669 322.026 374.562C322.938 373.439 324.02 372.585 325.273 371.999C326.543 371.397 327.959 371.096 329.521 371.096C330.758 371.096 331.89 371.275 332.915 371.633C333.94 371.991 334.819 372.561 335.552 373.342C336.3 374.123 336.87 375.157 337.261 376.442C337.668 377.728 337.871 379.299 337.871 381.154V398H330.791V381.13C330.791 379.958 330.628 379.047 330.303 378.396C329.977 377.744 329.497 377.289 328.862 377.028C328.244 376.752 327.479 376.613 326.567 376.613C325.623 376.613 324.801 376.8 324.102 377.175C323.418 377.549 322.848 378.07 322.393 378.737C321.953 379.388 321.619 380.153 321.392 381.032C321.164 381.911 321.05 382.855 321.05 383.864Z" fill="white"/>
<path d="M339.603 511.515C335.137 503.78 335.137 494.25 339.603 486.515L414.472 356.838C418.938 349.103 427.191 344.338 436.123 344.338H585.861C594.793 344.338 603.046 349.103 607.512 356.838L682.381 486.515C686.847 494.25 686.847 503.78 682.381 511.515L607.512 641.193C603.046 648.928 594.793 653.693 585.861 653.693H436.123C427.191 653.693 418.938 648.928 414.472 641.193L339.603 511.515Z" fill="#89C958" fill-opacity="0.78"/>
</g>
<defs>
<clipPath id="clip0_1599_776">
<rect width="1440" height="567" fill="white"/>
</clipPath>
</defs>
</svg>
