<svg width="251" height="58" viewBox="0 0 251 58" fill="none" xmlns="http://www.w3.org/2000/svg">
<g filter="url(#filter0_d_735_433)">
<path d="M124.438 -22.8294C125.223 -22.9425 126.022 -22.938 126.806 -22.8162L239.4 -5.32265C243.645 -4.66312 246.611 -0.768759 246.119 3.49882L243.823 23.4148C243.416 26.9404 240.736 29.7768 237.239 30.3815L140.561 47.0999L126.697 48.9785C125.984 49.0751 125.261 49.0751 124.548 48.9785L110.684 47.0999L13.8165 30.3486C10.4107 29.7596 7.76824 27.05 7.26493 23.6305L4.16862 2.59413C3.52381 -1.78679 6.56039 -5.85815 10.9433 -6.48918L124.438 -22.8294Z" fill="#00006A"/>
</g>
<defs>
<filter id="filter0_d_735_433" x="0.0820312" y="-22.911" width="250.091" height="79.962" filterUnits="userSpaceOnUse" color-interpolation-filters="sRGB">
<feFlood flood-opacity="0" result="BackgroundImageFix"/>
<feColorMatrix in="SourceAlpha" type="matrix" values="0 0 0 0 0 0 0 0 0 0 0 0 0 0 0 0 0 0 127 0" result="hardAlpha"/>
<feOffset dy="4"/>
<feGaussianBlur stdDeviation="2"/>
<feComposite in2="hardAlpha" operator="out"/>
<feColorMatrix type="matrix" values="0 0 0 0 0 0 0 0 0 0 0 0 0 0 0.415686 0 0 0 0.14 0"/>
<feBlend mode="normal" in2="BackgroundImageFix" result="effect1_dropShadow_735_433"/>
<feBlend mode="normal" in="SourceGraphic" in2="effect1_dropShadow_735_433" result="shape"/>
</filter>
</defs>
</svg>
