<svg width="18" height="19" viewBox="0 0 18 19" fill="none" xmlns="http://www.w3.org/2000/svg">
<g clip-path="url(#clip0_1257_484)">
<path d="M15.8819 12.6569V14.8884C15.8828 15.0956 15.8402 15.3006 15.7571 15.4904C15.6739 15.6802 15.552 15.8506 15.399 15.9907C15.246 16.1307 15.0655 16.2373 14.8688 16.3037C14.6722 16.3701 14.4638 16.3947 14.2571 16.3761C11.9636 16.1274 9.76057 15.3452 7.82497 14.0925C6.02414 12.9504 4.49735 11.4267 3.35303 9.6294C2.09342 7.68886 1.30953 5.47948 1.06489 3.18025C1.04626 2.97455 1.07076 2.76724 1.13681 2.57151C1.20287 2.37577 1.30903 2.19591 1.44855 2.04337C1.58808 1.89083 1.75789 1.76896 1.94719 1.68551C2.1365 1.60206 2.34113 1.55886 2.54808 1.55867H4.78405C5.14576 1.55511 5.49642 1.68295 5.77068 1.91834C6.04494 2.15373 6.22407 2.48062 6.27469 2.83808C6.36907 3.55222 6.54409 4.25342 6.79642 4.92829C6.8967 5.19453 6.9184 5.48388 6.85896 5.76205C6.79951 6.04023 6.66142 6.29556 6.46103 6.49781L5.51447 7.44249C6.57547 9.30474 8.12045 10.8467 9.9864 11.9056L10.933 10.9609C11.1356 10.7609 11.3915 10.6231 11.6702 10.5637C11.9489 10.5044 12.2388 10.5261 12.5056 10.6262C13.1818 10.878 13.8844 11.0527 14.6 11.1468C14.962 11.1978 15.2927 11.3798 15.529 11.6582C15.7654 11.9366 15.891 12.2921 15.8819 12.6569Z" stroke="#89C958" stroke-width="2" stroke-linecap="round" stroke-linejoin="round"/>
</g>
<defs>
<clipPath id="clip0_1257_484">
<rect width="18" height="18" fill="white" transform="translate(0 0.5)"/>
</clipPath>
</defs>
</svg>
