<svg width="19" height="18" viewBox="0 0 19 18" fill="none" xmlns="http://www.w3.org/2000/svg">
<g clip-path="url(#clip0_1257_486)">
<path d="M4.73535 5.82341V0.529297H14.2648V5.82341" stroke="#89C958" stroke-width="2" stroke-linecap="round" stroke-linejoin="round"/>
<path d="M4.73531 13.2353H3.14707C2.72585 13.2353 2.32187 13.0865 2.02402 12.8218C1.72617 12.557 1.55884 12.1979 1.55884 11.8235V8.29409C1.55884 7.91967 1.72617 7.56058 2.02402 7.29582C2.32187 7.03106 2.72585 6.88232 3.14707 6.88232H15.853C16.2742 6.88232 16.6782 7.03106 16.976 7.29582C17.2739 7.56058 17.4412 7.91967 17.4412 8.29409V11.8235C17.4412 12.1979 17.2739 12.557 16.976 12.8218C16.6782 13.0865 16.2742 13.2353 15.853 13.2353H14.2647" stroke="#89C958" stroke-width="2" stroke-linecap="round" stroke-linejoin="round"/>
<path d="M14.2648 10.5884H4.73535V16.9413H14.2648V10.5884Z" stroke="#89C958" stroke-width="2" stroke-linecap="round" stroke-linejoin="round"/>
</g>
<defs>
<clipPath id="clip0_1257_486">
<rect width="18" height="18" fill="white" transform="translate(0.5)"/>
</clipPath>
</defs>
</svg>
