<svg width="1440" height="567" viewBox="0 0 1440 567" fill="none" xmlns="http://www.w3.org/2000/svg">
<g clip-path="url(#clip0_1595_636)">
<path d="M1656.78 191.106C1661.25 183.371 1661.25 173.841 1656.78 166.106L1581.91 36.4287C1577.45 28.6937 1569.2 23.9287 1560.26 23.9287H1410.52C1401.59 23.9287 1393.34 28.6937 1388.87 36.4287L1314 166.106C1309.54 173.841 1309.54 183.371 1314 191.106L1388.87 320.784C1393.34 328.519 1401.59 333.284 1410.52 333.284H1560.26C1569.2 333.284 1577.45 328.519 1581.91 320.784L1656.78 191.106Z" fill="#89C958" fill-opacity="0.78"/>
<path d="M1378.59 671.719C1383.06 663.984 1383.06 654.454 1378.59 646.719L1303.72 517.042C1299.26 509.307 1291 504.542 1282.07 504.542H1132.33C1123.4 504.542 1115.15 509.307 1110.68 517.042L1035.81 646.719C1031.35 654.454 1031.35 663.984 1035.81 671.719L1110.68 801.397C1115.15 809.132 1123.4 813.897 1132.33 813.897H1282.07C1291 813.897 1299.26 809.132 1303.72 801.397L1378.59 671.719Z" fill="#89C958" fill-opacity="0.78"/>
<path d="M1656.78 511.515C1661.25 503.78 1661.25 494.25 1656.78 486.515L1581.91 356.838C1577.45 349.103 1569.2 344.338 1560.26 344.338H1410.52C1401.59 344.338 1393.34 349.103 1388.87 356.838L1314 486.515C1309.54 494.25 1309.54 503.78 1314 511.515L1388.87 641.193C1393.34 648.928 1401.59 653.693 1410.52 653.693H1560.26C1569.2 653.693 1577.45 648.928 1581.91 641.193L1656.78 511.515Z" fill="#89C958" fill-opacity="0.78"/>
<path d="M822.203 671.719C826.669 663.984 826.669 654.454 822.203 646.719L747.334 517.042C742.868 509.307 734.615 504.542 725.683 504.542H575.944C567.013 504.542 558.759 509.307 554.294 517.042L479.424 646.719C474.958 654.454 474.958 663.984 479.424 671.719L554.294 801.397C558.759 809.132 567.013 813.897 575.944 813.897H725.683C734.615 813.897 742.868 809.132 747.334 801.397L822.203 671.719Z" fill="#89C958" fill-opacity="0.78"/>
<path d="M544.013 511.515C548.478 503.78 548.478 494.25 544.013 486.515L469.143 356.838C464.677 349.103 456.424 344.338 447.493 344.338H297.751C288.821 344.338 280.571 349.103 276.101 356.838L201.231 486.515C196.771 494.25 196.771 503.78 201.231 511.515L276.101 641.193C280.571 648.928 288.821 653.693 297.751 653.693H447.493C456.424 653.693 464.677 648.928 469.143 641.193L544.013 511.515Z" fill="#89C958" fill-opacity="0.78"/>
<path d="M265.819 671.719C270.289 663.984 270.289 654.454 265.819 646.719L190.949 517.042C186.479 509.307 178.229 504.542 169.299 504.542H19.5595C10.6295 504.542 2.37945 509.307 -2.09055 517.042L-76.9605 646.719C-81.4305 654.454 -81.4305 663.984 -76.9605 671.719L-2.09055 801.397C2.37945 809.132 10.6295 813.897 19.5595 813.897H169.299C178.229 813.897 186.479 809.132 190.949 801.397L265.819 671.719Z" fill="#89C958" fill-opacity="0.78"/>
<path d="M1378.59 351.311C1383.06 343.576 1383.06 334.046 1378.59 326.311L1303.72 196.633C1299.26 188.898 1291 184.133 1282.07 184.133H1132.33C1123.4 184.133 1115.15 188.898 1110.68 196.633L1035.81 326.311C1031.35 334.046 1031.35 343.576 1035.81 351.311L1110.68 480.988C1115.15 488.723 1123.4 493.488 1132.33 493.488H1282.07C1291 493.488 1299.26 488.723 1303.72 480.988L1378.59 351.311Z" fill="#89C958" fill-opacity="0.78"/>
<path d="M1128.02 323.88C1128.02 323.267 1128.07 322.547 1128.18 321.72C1128.29 320.893 1128.49 319.96 1128.78 318.92C1129.07 317.853 1129.51 316.667 1130.1 315.36L1135.02 317.08C1134.73 317.907 1134.47 318.667 1134.26 319.36C1134.05 320.027 1133.89 320.653 1133.78 321.24C1133.67 321.8 1133.62 322.36 1133.62 322.92C1133.62 323.72 1133.79 324.467 1134.14 325.16C1134.49 325.853 1135.01 326.453 1135.7 326.96C1136.39 327.493 1137.25 327.907 1138.26 328.2C1139.3 328.493 1140.5 328.64 1141.86 328.64C1143.41 328.64 1144.77 328.493 1145.94 328.2C1147.14 327.933 1148.14 327.573 1148.94 327.12C1149.77 326.693 1150.39 326.24 1150.82 325.76C1151.25 325.28 1151.46 324.84 1151.46 324.44C1151.46 324.12 1151.23 323.84 1150.78 323.6C1150.35 323.36 1149.78 323.12 1149.06 322.88C1148.37 322.613 1147.62 322.32 1146.82 322C1146.05 321.68 1145.3 321.28 1144.58 320.8C1143.89 320.32 1143.31 319.733 1142.86 319.04C1142.43 318.347 1142.22 317.507 1142.22 316.52C1142.22 315.507 1142.49 314.4 1143.02 313.2C1143.55 311.973 1144.31 310.813 1145.3 309.72C1146.29 308.6 1147.46 307.693 1148.82 307C1150.21 306.28 1151.73 305.92 1153.38 305.92C1154.55 305.92 1155.62 306.107 1156.58 306.48C1157.57 306.853 1158.39 307.28 1159.06 307.76L1156.98 312.44C1156.42 312.067 1155.82 311.787 1155.18 311.6C1154.54 311.387 1153.93 311.28 1153.34 311.28C1152.59 311.28 1151.87 311.427 1151.18 311.72C1150.51 312.013 1149.91 312.4 1149.38 312.88C1148.87 313.333 1148.47 313.827 1148.18 314.36C1147.89 314.893 1147.74 315.4 1147.74 315.88C1147.74 316.36 1147.97 316.787 1148.42 317.16C1148.9 317.507 1149.51 317.84 1150.26 318.16C1151.01 318.453 1151.79 318.76 1152.62 319.08C1153.45 319.4 1154.23 319.76 1154.98 320.16C1155.73 320.56 1156.33 321.04 1156.78 321.6C1157.26 322.16 1157.5 322.84 1157.5 323.64C1157.5 324.787 1157.14 325.973 1156.42 327.2C1155.73 328.453 1154.69 329.613 1153.3 330.68C1151.91 331.747 1150.21 332.6 1148.18 333.24C1146.18 333.907 1143.86 334.24 1141.22 334.24C1139.3 334.24 1137.54 334.013 1135.94 333.56C1134.34 333.133 1132.94 332.48 1131.74 331.6C1130.57 330.747 1129.65 329.667 1128.98 328.36C1128.34 327.08 1128.02 325.587 1128.02 323.88ZM1172.51 325.2C1170.03 325.2 1168.11 324.947 1166.75 324.44C1165.42 323.933 1164.49 323.147 1163.95 322.08C1163.42 320.987 1163.11 319.613 1163.03 317.96L1162.19 295.72H1167.79L1168.63 315.28C1168.69 316.507 1168.82 317.427 1169.03 318.04C1169.25 318.653 1169.65 319.067 1170.23 319.28C1170.85 319.493 1171.74 319.6 1172.91 319.6C1173.93 319.6 1174.65 319.867 1175.07 320.4C1175.53 320.907 1175.75 321.547 1175.75 322.32C1175.75 323.147 1175.47 323.84 1174.91 324.4C1174.35 324.933 1173.55 325.2 1172.51 325.2ZM1188.85 325.32C1187.65 325.32 1186.41 325.173 1185.13 324.88C1183.87 324.587 1182.66 324.147 1181.49 323.56C1180.31 322.973 1179.26 322.24 1178.33 321.36C1177.39 320.48 1176.65 319.467 1176.09 318.32C1175.55 317.147 1175.29 315.827 1175.29 314.36C1175.29 313.16 1175.54 312.053 1176.05 311.04C1176.55 310.027 1177.3 309.213 1178.29 308.6C1179.3 307.96 1180.53 307.64 1181.97 307.64C1183.33 307.64 1184.5 307.973 1185.49 308.64C1186.5 309.28 1187.29 310.12 1187.85 311.16C1188.41 312.173 1188.69 313.24 1188.69 314.36C1188.69 316.147 1188.25 317.72 1187.37 319.08C1186.49 320.413 1185.27 321.533 1183.73 322.44C1182.21 323.347 1180.49 324.04 1178.57 324.52C1176.65 324.973 1174.65 325.2 1172.57 325.2L1172.97 319.6C1174.49 319.6 1175.81 319.56 1176.93 319.48C1178.07 319.4 1179.06 319.227 1179.89 318.96C1180.71 318.693 1181.43 318.293 1182.05 317.76C1182.66 317.227 1183.13 316.64 1183.45 316C1183.79 315.333 1183.97 314.68 1183.97 314.04C1183.97 313.613 1183.9 313.213 1183.77 312.84C1183.66 312.467 1183.47 312.16 1183.21 311.92C1182.97 311.653 1182.65 311.52 1182.25 311.52C1181.82 311.52 1181.46 311.653 1181.17 311.92C1180.9 312.16 1180.69 312.48 1180.53 312.88C1180.39 313.28 1180.33 313.707 1180.33 314.16C1180.33 315.093 1180.57 315.933 1181.05 316.68C1181.55 317.427 1182.22 318.053 1183.05 318.56C1183.87 319.067 1184.78 319.453 1185.77 319.72C1186.78 319.987 1187.81 320.12 1188.85 320.12C1189.67 320.12 1190.26 319.987 1190.61 319.72C1190.95 319.453 1191.13 319.093 1191.13 318.64C1191.13 318.32 1191.05 317.987 1190.89 317.64C1190.75 317.267 1190.45 316.813 1189.97 316.28C1189.49 315.747 1188.75 315.093 1187.77 314.32C1186.78 313.52 1185.46 312.533 1183.81 311.36C1182.15 310.187 1180.07 308.76 1177.57 307.08L1180.65 302.72C1183.47 304.72 1185.83 306.467 1187.73 307.96C1189.65 309.453 1191.19 310.76 1192.37 311.88C1193.54 313 1194.43 313.987 1195.05 314.84C1195.69 315.667 1196.11 316.427 1196.33 317.12C1196.54 317.813 1196.65 318.507 1196.65 319.2C1196.65 320.48 1196.34 321.573 1195.73 322.48C1195.11 323.387 1194.22 324.093 1193.05 324.6C1191.9 325.08 1190.5 325.32 1188.85 325.32ZM1216.87 319.6C1218.07 319.6 1218.99 319.493 1219.63 319.28C1220.27 319.067 1220.71 318.787 1220.95 318.44C1221.19 318.093 1221.31 317.72 1221.31 317.32C1221.31 316.68 1221.13 315.933 1220.75 315.08C1220.41 314.227 1219.97 313.333 1219.43 312.4C1218.9 311.467 1218.34 310.573 1217.75 309.72C1217.19 308.867 1216.69 308.12 1216.23 307.48L1220.99 304.32C1222.14 305.867 1223.13 307.4 1223.95 308.92C1224.78 310.413 1225.45 311.8 1225.95 313.08C1226.49 314.36 1226.86 315.453 1227.07 316.36C1227.29 317.213 1227.61 317.88 1228.03 318.36C1228.49 318.813 1229.01 319.133 1229.59 319.32C1230.18 319.507 1230.77 319.6 1231.35 319.6C1232.37 319.6 1233.09 319.867 1233.51 320.4C1233.97 320.907 1234.19 321.547 1234.19 322.32C1234.19 323.147 1233.91 323.84 1233.35 324.4C1232.82 324.933 1232.02 325.2 1230.95 325.2C1229.78 325.2 1228.75 325.04 1227.87 324.72C1226.99 324.4 1226.25 323.893 1225.63 323.2C1225.02 322.507 1224.5 321.627 1224.07 320.56L1226.51 321.08C1226.3 321.827 1225.81 322.52 1225.03 323.16C1224.29 323.773 1223.29 324.28 1222.03 324.68C1220.81 325.053 1219.35 325.24 1217.67 325.24C1216.87 325.24 1215.98 325.173 1214.99 325.04C1214.03 324.907 1213.07 324.707 1212.11 324.44C1211.18 324.173 1210.33 323.827 1209.55 323.4L1211.51 318.32C1212.5 318.747 1213.45 319.067 1214.35 319.28C1215.29 319.493 1216.13 319.6 1216.87 319.6ZM1231 325.2L1231.4 319.6C1232.84 319.6 1234.27 319.52 1235.68 319.36C1237.1 319.2 1238.47 318.96 1239.8 318.64C1241.14 318.32 1242.4 317.907 1243.6 317.4C1244.83 316.893 1245.98 316.28 1247.04 315.56C1246.24 315.08 1245.38 314.667 1244.44 314.32C1243.51 313.973 1242.51 313.72 1241.44 313.56C1240.4 313.373 1239.3 313.28 1238.12 313.28C1237.7 313.28 1237.24 313.293 1236.76 313.32C1236.31 313.347 1235.84 313.4 1235.36 313.48C1234.88 313.533 1234.4 313.613 1233.92 313.72L1233.12 308.24C1233.9 308.027 1234.71 307.88 1235.56 307.8C1236.44 307.693 1237.22 307.64 1237.88 307.64C1239.32 307.64 1240.64 307.8 1241.84 308.12C1243.07 308.44 1244.19 308.84 1245.2 309.32C1246.24 309.8 1247.2 310.28 1248.08 310.76C1248.99 311.24 1249.84 311.64 1250.64 311.96C1251.47 312.28 1252.27 312.44 1253.04 312.44H1254.52L1255.16 317.76C1254.02 317.813 1252.94 318.04 1251.92 318.44C1250.94 318.813 1249.95 319.293 1248.96 319.88C1248 320.44 1246.96 321.027 1245.84 321.64C1244.75 322.253 1243.51 322.827 1242.12 323.36C1240.74 323.893 1239.14 324.333 1237.32 324.68C1235.51 325.027 1233.4 325.2 1231 325.2ZM1259.36 325L1258.52 295.72H1264.12L1264.96 325H1259.36ZM1269.38 334.2L1268.22 328.6C1270.11 328.36 1271.76 328.067 1273.18 327.72C1274.59 327.4 1275.78 326.947 1276.74 326.36C1277.7 325.773 1278.42 324.973 1278.9 323.96C1279.38 322.92 1279.62 321.587 1279.62 319.96C1279.62 319.373 1279.56 318.787 1279.46 318.2C1279.35 317.587 1279.19 317.027 1278.98 316.52C1278.76 316.013 1278.48 315.6 1278.14 315.28C1277.82 314.96 1277.43 314.8 1276.98 314.8C1276.5 314.8 1276.07 314.973 1275.7 315.32C1275.32 315.64 1275.03 316.053 1274.82 316.56C1274.6 317.04 1274.5 317.533 1274.5 318.04C1274.5 318.413 1274.59 318.733 1274.78 319C1274.96 319.24 1275.24 319.427 1275.62 319.56C1275.99 319.667 1276.46 319.72 1277.02 319.72C1277.66 319.72 1278.31 319.653 1278.98 319.52C1279.67 319.36 1280.3 319.147 1280.86 318.88L1281.02 323.24C1280.38 323.747 1279.64 324.2 1278.82 324.6C1277.99 324.973 1276.99 325.16 1275.82 325.16C1274.86 325.16 1273.96 325.053 1273.14 324.84C1272.31 324.6 1271.58 324.24 1270.94 323.76C1270.32 323.28 1269.84 322.667 1269.5 321.92C1269.15 321.147 1268.98 320.227 1268.98 319.16C1268.98 317.853 1269.19 316.587 1269.62 315.36C1270.04 314.133 1270.63 313.04 1271.38 312.08C1272.15 311.093 1273.03 310.32 1274.02 309.76C1275.03 309.173 1276.1 308.88 1277.22 308.88C1278.55 308.88 1279.71 309.213 1280.7 309.88C1281.71 310.547 1282.55 311.427 1283.22 312.52C1283.88 313.587 1284.39 314.747 1284.74 316C1285.08 317.253 1285.26 318.453 1285.26 319.6C1285.26 322.613 1284.62 325.173 1283.34 327.28C1282.06 329.387 1280.23 331.013 1277.86 332.16C1275.48 333.333 1272.66 334.013 1269.38 334.2ZM1141.26 378.88C1141.26 378.267 1141.32 377.547 1141.42 376.72C1141.53 375.893 1141.73 374.96 1142.02 373.92C1142.32 372.853 1142.76 371.667 1143.34 370.36L1148.26 372.08C1147.97 372.907 1147.72 373.667 1147.5 374.36C1147.29 375.027 1147.13 375.653 1147.02 376.24C1146.92 376.8 1146.86 377.36 1146.86 377.92C1146.86 378.72 1147.04 379.467 1147.38 380.16C1147.73 380.853 1148.25 381.453 1148.94 381.96C1149.64 382.493 1150.49 382.907 1151.5 383.2C1152.54 383.493 1153.74 383.64 1155.1 383.64C1156.65 383.64 1158.01 383.493 1159.18 383.2C1160.38 382.933 1161.38 382.573 1162.18 382.12C1163.01 381.693 1163.64 381.24 1164.06 380.76C1164.49 380.28 1164.7 379.84 1164.7 379.44C1164.7 379.12 1164.48 378.84 1164.02 378.6C1163.6 378.36 1163.02 378.12 1162.3 377.88C1161.61 377.613 1160.86 377.32 1160.06 377C1159.29 376.68 1158.54 376.28 1157.82 375.8C1157.13 375.32 1156.56 374.733 1156.1 374.04C1155.68 373.347 1155.46 372.507 1155.46 371.52C1155.46 370.507 1155.73 369.4 1156.26 368.2C1156.8 366.973 1157.56 365.813 1158.54 364.72C1159.53 363.6 1160.7 362.693 1162.06 362C1163.45 361.28 1164.97 360.92 1166.62 360.92C1167.8 360.92 1168.86 361.107 1169.82 361.48C1170.81 361.853 1171.64 362.28 1172.3 362.76L1170.22 367.44C1169.66 367.067 1169.06 366.787 1168.42 366.6C1167.78 366.387 1167.17 366.28 1166.58 366.28C1165.84 366.28 1165.12 366.427 1164.42 366.72C1163.76 367.013 1163.16 367.4 1162.62 367.88C1162.12 368.333 1161.72 368.827 1161.42 369.36C1161.13 369.893 1160.98 370.4 1160.98 370.88C1160.98 371.36 1161.21 371.787 1161.66 372.16C1162.14 372.507 1162.76 372.84 1163.5 373.16C1164.25 373.453 1165.04 373.76 1165.86 374.08C1166.69 374.4 1167.48 374.76 1168.22 375.16C1168.97 375.56 1169.57 376.04 1170.02 376.6C1170.5 377.16 1170.74 377.84 1170.74 378.64C1170.74 379.787 1170.38 380.973 1169.66 382.2C1168.97 383.453 1167.93 384.613 1166.54 385.68C1165.16 386.747 1163.45 387.6 1161.42 388.24C1159.42 388.907 1157.1 389.24 1154.46 389.24C1152.54 389.24 1150.78 389.013 1149.18 388.56C1147.58 388.133 1146.18 387.48 1144.98 386.6C1143.81 385.747 1142.89 384.667 1142.22 383.36C1141.58 382.08 1141.26 380.587 1141.26 378.88ZM1181.79 374.6C1182.99 374.6 1183.91 374.493 1184.55 374.28C1185.19 374.067 1185.63 373.787 1185.87 373.44C1186.11 373.093 1186.23 372.72 1186.23 372.32C1186.23 371.68 1186.05 370.933 1185.67 370.08C1185.33 369.227 1184.89 368.333 1184.35 367.4C1183.82 366.467 1183.26 365.573 1182.67 364.72C1182.11 363.867 1181.61 363.12 1181.15 362.48L1185.91 359.32C1187.06 360.867 1188.05 362.4 1188.87 363.92C1189.7 365.413 1190.37 366.8 1190.87 368.08C1191.41 369.36 1191.78 370.453 1191.99 371.36C1192.21 372.213 1192.53 372.88 1192.95 373.36C1193.41 373.813 1193.93 374.133 1194.51 374.32C1195.1 374.507 1195.69 374.6 1196.27 374.6C1197.29 374.6 1198.01 374.867 1198.43 375.4C1198.89 375.907 1199.11 376.547 1199.11 377.32C1199.11 378.147 1198.83 378.84 1198.27 379.4C1197.74 379.933 1196.94 380.2 1195.87 380.2C1194.7 380.2 1193.67 380.04 1192.79 379.72C1191.91 379.4 1191.17 378.893 1190.55 378.2C1189.94 377.507 1189.42 376.627 1188.99 375.56L1191.43 376.08C1191.22 376.827 1190.73 377.52 1189.95 378.16C1189.21 378.773 1188.21 379.28 1186.95 379.68C1185.73 380.053 1184.27 380.24 1182.59 380.24C1181.79 380.24 1180.9 380.173 1179.91 380.04C1178.95 379.907 1177.99 379.707 1177.03 379.44C1176.1 379.173 1175.25 378.827 1174.47 378.4L1176.43 373.32C1177.42 373.747 1178.37 374.067 1179.27 374.28C1180.21 374.493 1181.05 374.6 1181.79 374.6ZM1195.93 380.2L1196.33 374.6C1197.34 374.6 1198.14 374.507 1198.73 374.32C1199.34 374.133 1199.82 373.76 1200.17 373.2C1200.54 372.613 1200.85 371.76 1201.09 370.64C1201.35 369.52 1201.62 368.027 1201.89 366.16L1207.13 367.04C1207.07 367.44 1206.99 367.907 1206.89 368.44C1206.81 368.973 1206.73 369.52 1206.65 370.08C1206.59 370.613 1206.57 371.12 1206.57 371.6C1206.57 372.24 1206.7 372.787 1206.97 373.24C1207.26 373.667 1207.77 374 1208.49 374.24C1209.23 374.48 1210.3 374.6 1211.69 374.6C1212.7 374.6 1213.42 374.867 1213.85 375.4C1214.27 375.907 1214.49 376.547 1214.49 377.32C1214.49 378.147 1214.21 378.84 1213.65 379.4C1213.11 379.933 1212.33 380.2 1211.29 380.2C1209.45 380.2 1207.95 380.027 1206.81 379.68C1205.66 379.333 1204.81 378.747 1204.25 377.92C1203.69 377.093 1203.33 375.96 1203.17 374.52H1205.09C1204.61 375.8 1204.05 376.827 1203.41 377.6C1202.77 378.347 1202.05 378.907 1201.25 379.28C1200.45 379.653 1199.59 379.893 1198.69 380C1197.81 380.133 1196.89 380.2 1195.93 380.2ZM1204.09 362.08C1203.26 362.08 1202.55 361.8 1201.97 361.24C1201.41 360.68 1201.13 359.987 1201.13 359.16C1201.13 358.333 1201.41 357.627 1201.97 357.04C1202.55 356.453 1203.26 356.16 1204.09 356.16C1204.89 356.16 1205.57 356.453 1206.13 357.04C1206.71 357.627 1207.01 358.333 1207.01 359.16C1207.01 359.987 1206.71 360.68 1206.13 361.24C1205.57 361.8 1204.89 362.08 1204.09 362.08ZM1211.28 380.2L1211.68 374.6C1213.28 374.6 1214.5 374.52 1215.36 374.36C1216.21 374.2 1216.8 373.907 1217.12 373.48C1217.46 373.027 1217.64 372.387 1217.64 371.56C1217.64 370.813 1217.53 369.92 1217.32 368.88C1217.13 367.84 1216.88 366.76 1216.56 365.64C1216.26 364.52 1215.94 363.493 1215.6 362.56L1221.12 361.04C1221.46 361.947 1221.8 363 1222.12 364.2C1222.44 365.4 1222.7 366.64 1222.92 367.92C1223.13 369.173 1223.24 370.387 1223.24 371.56C1223.24 373.373 1222.94 374.853 1222.36 376C1221.77 377.12 1220.94 377.987 1219.88 378.6C1218.84 379.213 1217.58 379.64 1216.12 379.88C1214.65 380.093 1213.04 380.2 1211.28 380.2ZM1221.16 389.48C1220.38 389.48 1219.72 389.2 1219.16 388.64C1218.62 388.107 1218.36 387.467 1218.36 386.72C1218.36 385.947 1218.62 385.28 1219.16 384.72C1219.72 384.16 1220.38 383.88 1221.16 383.88C1221.9 383.88 1222.54 384.16 1223.08 384.72C1223.61 385.28 1223.88 385.947 1223.88 386.72C1223.88 387.467 1223.61 388.107 1223.08 388.64C1222.54 389.2 1221.9 389.48 1221.16 389.48ZM1214.24 389.48C1213.46 389.48 1212.8 389.2 1212.24 388.64C1211.7 388.107 1211.44 387.467 1211.44 386.72C1211.44 385.947 1211.7 385.28 1212.24 384.72C1212.8 384.16 1213.46 383.88 1214.24 383.88C1214.98 383.88 1215.62 384.16 1216.16 384.72C1216.69 385.28 1216.96 385.947 1216.96 386.72C1216.96 387.467 1216.69 388.107 1216.16 388.64C1215.62 389.2 1214.98 389.48 1214.24 389.48ZM1228.85 380L1228.01 350.72H1233.61L1234.45 380H1228.85ZM1236.21 389.24L1234.17 384.28C1235.59 383.8 1236.88 383.24 1238.05 382.6C1239.25 381.96 1240.29 381.253 1241.17 380.48C1242.05 379.707 1242.73 378.867 1243.21 377.96C1243.69 377.027 1243.93 376.027 1243.93 374.96C1243.93 373.84 1243.68 372.613 1243.17 371.28C1242.67 369.947 1242.05 368.587 1241.33 367.2L1246.57 364.68C1247.05 365.507 1247.47 366.4 1247.81 367.36C1248.19 368.293 1248.49 369.133 1248.73 369.88C1248.97 370.627 1249.13 371.133 1249.21 371.4C1249.59 372.68 1250.09 373.533 1250.73 373.96C1251.4 374.387 1252.47 374.6 1253.93 374.6C1254.95 374.6 1255.67 374.867 1256.09 375.4C1256.55 375.907 1256.77 376.547 1256.77 377.32C1256.77 378.147 1256.49 378.84 1255.93 379.4C1255.37 379.933 1254.57 380.2 1253.53 380.2C1252.44 380.2 1251.48 380.04 1250.65 379.72C1249.83 379.4 1249.16 378.933 1248.65 378.32C1248.17 377.707 1247.87 376.987 1247.73 376.16L1249.21 377C1249.05 378.413 1248.59 379.747 1247.81 381C1247.07 382.28 1246.09 383.453 1244.89 384.52C1243.69 385.587 1242.35 386.52 1240.85 387.32C1239.36 388.12 1237.81 388.76 1236.21 389.24ZM1253.58 380.2L1253.98 374.64C1256.2 374.64 1257.97 374.627 1259.3 374.6C1260.66 374.573 1261.72 374.52 1262.46 374.44C1263.24 374.333 1263.81 374.213 1264.18 374.08C1264.56 373.92 1264.88 373.747 1265.14 373.56C1265.46 373.32 1265.73 373 1265.94 372.6C1266.18 372.173 1266.37 371.613 1266.5 370.92C1266.64 370.227 1266.7 369.36 1266.7 368.32C1266.7 367.013 1266.58 365.92 1266.34 365.04C1266.13 364.133 1265.81 363.453 1265.38 363C1264.98 362.547 1264.49 362.32 1263.9 362.32C1263.48 362.32 1263.08 362.467 1262.7 362.76C1262.33 363.027 1262.02 363.4 1261.78 363.88C1261.54 364.36 1261.42 364.907 1261.42 365.52C1261.42 365.867 1261.52 366.173 1261.7 366.44C1261.89 366.707 1262.18 366.907 1262.58 367.04C1262.98 367.173 1263.49 367.24 1264.1 367.24C1264.69 367.24 1265.3 367.173 1265.94 367.04C1266.61 366.88 1267.22 366.667 1267.78 366.4L1267.94 371.16C1267.52 371.453 1267.02 371.72 1266.46 371.96C1265.9 372.2 1265.3 372.387 1264.66 372.52C1264.05 372.627 1263.42 372.68 1262.78 372.68C1261.37 372.68 1260.14 372.493 1259.1 372.12C1258.09 371.72 1257.3 371.08 1256.74 370.2C1256.18 369.32 1255.9 368.12 1255.9 366.6C1255.9 365.427 1256.1 364.267 1256.5 363.12C1256.9 361.947 1257.48 360.893 1258.22 359.96C1258.97 359 1259.85 358.24 1260.86 357.68C1261.88 357.093 1263 356.8 1264.22 356.8C1266.04 356.8 1267.53 357.333 1268.7 358.4C1269.9 359.44 1270.78 360.853 1271.34 362.64C1271.93 364.4 1272.22 366.36 1272.22 368.52C1272.22 370.413 1271.94 372.067 1271.38 373.48C1270.82 374.867 1270.16 375.96 1269.38 376.76C1268.74 377.427 1268.01 377.987 1267.18 378.44C1266.36 378.893 1265.34 379.253 1264.14 379.52C1262.97 379.76 1261.52 379.933 1259.78 380.04C1258.08 380.147 1256.01 380.2 1253.58 380.2ZM1264.14 353.08C1263.32 353.08 1262.61 352.8 1262.02 352.24C1261.46 351.68 1261.18 350.987 1261.18 350.16C1261.18 349.333 1261.46 348.627 1262.02 348.04C1262.61 347.453 1263.32 347.16 1264.14 347.16C1264.94 347.16 1265.62 347.453 1266.18 348.04C1266.77 348.627 1267.06 349.333 1267.06 350.16C1267.06 350.987 1266.77 351.68 1266.18 352.24C1265.62 352.8 1264.94 353.08 1264.14 353.08Z" fill="white"/>
<path d="M1100.4 511.515C1104.86 503.78 1104.86 494.25 1100.4 486.515L1025.53 356.838C1021.06 349.103 1012.81 344.338 1003.88 344.338H854.139C845.207 344.338 836.954 349.103 832.488 356.838L757.619 486.515C753.153 494.25 753.153 503.78 757.619 511.515L832.488 641.193C836.954 648.928 845.207 653.693 854.139 653.693H1003.88C1012.81 653.693 1021.06 648.928 1025.53 641.193L1100.4 511.515Z" fill="#89C958" fill-opacity="0.78"/>
</g>
<defs>
<clipPath id="clip0_1595_636">
<rect width="1440" height="567" fill="white" transform="matrix(-1 0 0 1 1440 0)"/>
</clipPath>
</defs>
</svg>
