<svg width="1440" height="567" viewBox="0 0 1440 567" fill="none" xmlns="http://www.w3.org/2000/svg">
<g clip-path="url(#clip0_1599_726)">
<path d="M-216.783 191.106C-221.249 183.371 -221.249 173.841 -216.783 166.106L-141.914 36.4287C-137.448 28.6937 -129.195 23.9287 -120.263 23.9287H29.4753C38.407 23.9287 46.6602 28.6937 51.126 36.4287L125.996 166.106C130.461 173.841 130.461 183.371 125.996 191.106L51.126 320.784C46.6601 328.519 38.407 333.284 29.4753 333.284H-120.263C-129.195 333.284 -137.448 328.519 -141.914 320.784L-216.783 191.106Z" fill="#89C958" fill-opacity="0.78"/>
<path d="M61.4099 671.719C56.9441 663.984 56.9441 654.454 61.4099 646.719L136.28 517.042C140.745 509.307 148.999 504.542 157.93 504.542H307.669C316.601 504.542 324.854 509.307 329.32 517.042L404.189 646.719C408.655 654.454 408.655 663.984 404.189 671.719L329.32 801.397C324.854 809.132 316.601 813.897 307.669 813.897H157.93C148.999 813.897 140.745 809.132 136.28 801.397L61.4099 671.719Z" fill="#89C958" fill-opacity="0.78"/>
<path d="M-216.783 511.515C-221.249 503.78 -221.249 494.25 -216.783 486.515L-141.914 356.838C-137.448 349.103 -129.195 344.338 -120.263 344.338H29.4753C38.407 344.338 46.6602 349.103 51.126 356.838L125.996 486.515C130.461 494.25 130.461 503.78 125.996 511.515L51.126 641.193C46.6601 648.928 38.407 653.693 29.4753 653.693H-120.263C-129.195 653.693 -137.448 648.928 -141.914 641.193L-216.783 511.515Z" fill="#89C958" fill-opacity="0.78"/>
<path d="M617.797 671.719C613.331 663.984 613.331 654.454 617.797 646.719L692.666 517.042C697.132 509.307 705.385 504.542 714.317 504.542H864.056C872.987 504.542 881.241 509.307 885.706 517.042L960.576 646.719C965.042 654.454 965.042 663.984 960.576 671.719L885.706 801.397C881.241 809.132 872.987 813.897 864.056 813.897H714.317C705.385 813.897 697.132 809.132 692.666 801.397L617.797 671.719Z" fill="#89C958" fill-opacity="0.78"/>
<path d="M895.987 511.515C891.522 503.78 891.522 494.25 895.987 486.515L970.857 356.838C975.323 349.103 983.576 344.338 992.507 344.338H1142.25C1151.18 344.338 1159.43 349.103 1163.9 356.838L1238.77 486.515C1243.23 494.25 1243.23 503.78 1238.77 511.515L1163.9 641.193C1159.43 648.928 1151.18 653.693 1142.25 653.693H992.507C983.576 653.693 975.323 648.928 970.857 641.193L895.987 511.515Z" fill="#89C958" fill-opacity="0.78"/>
<path d="M1174.18 671.719C1169.71 663.984 1169.71 654.454 1174.18 646.719L1249.05 517.042C1253.52 509.307 1261.77 504.542 1270.7 504.542H1420.44C1429.37 504.542 1437.62 509.307 1442.09 517.042L1516.96 646.719C1521.43 654.454 1521.43 663.984 1516.96 671.719L1442.09 801.397C1437.62 809.132 1429.37 813.897 1420.44 813.897H1270.7C1261.77 813.897 1253.52 809.132 1249.05 801.397L1174.18 671.719Z" fill="#89C958" fill-opacity="0.78"/>
<path d="M61.4099 351.311C56.9441 343.576 56.9441 334.046 61.4099 326.311L136.28 196.633C140.745 188.898 148.999 184.133 157.93 184.133H307.669C316.601 184.133 324.854 188.898 329.32 196.633L404.189 326.311C408.655 334.046 408.655 343.576 404.189 351.311L329.32 480.988C324.854 488.723 316.601 493.488 307.669 493.488H157.93C148.999 493.488 140.745 488.723 136.28 480.988L61.4099 351.311Z" fill="#89C958" fill-opacity="0.78"/>
<path d="M128.532 321.453H141.789C144.507 321.453 146.843 321.86 148.796 322.674C150.765 323.488 152.279 324.692 153.337 326.287C154.395 327.882 154.924 329.843 154.924 332.171C154.924 334.075 154.598 335.711 153.947 337.078C153.312 338.429 152.409 339.56 151.237 340.472C150.082 341.367 148.723 342.083 147.16 342.62L144.841 343.841H133.317L133.269 338.128H141.838C143.124 338.128 144.19 337.9 145.036 337.444C145.882 336.989 146.517 336.354 146.94 335.54C147.38 334.726 147.6 333.782 147.6 332.708C147.6 331.569 147.388 330.584 146.965 329.754C146.542 328.924 145.899 328.289 145.036 327.85C144.174 327.41 143.091 327.19 141.789 327.19H135.856V357H128.532V321.453ZM148.405 357L140.3 341.155L148.039 341.106L156.242 356.658V357H148.405ZM172.282 357.488C170.231 357.488 168.392 357.163 166.765 356.512C165.137 355.844 163.754 354.925 162.614 353.753C161.491 352.581 160.629 351.222 160.026 349.676C159.424 348.113 159.123 346.453 159.123 344.695V343.719C159.123 341.717 159.408 339.886 159.978 338.226C160.547 336.565 161.361 335.125 162.419 333.904C163.493 332.684 164.795 331.748 166.325 331.097C167.855 330.429 169.58 330.096 171.501 330.096C173.373 330.096 175.033 330.405 176.481 331.023C177.93 331.642 179.143 332.521 180.119 333.66C181.112 334.799 181.861 336.167 182.365 337.762C182.87 339.34 183.122 341.098 183.122 343.035V345.965H162.126V341.277H176.213V340.74C176.213 339.764 176.034 338.893 175.676 338.128C175.334 337.347 174.813 336.728 174.113 336.272C173.413 335.817 172.518 335.589 171.428 335.589C170.5 335.589 169.702 335.792 169.035 336.199C168.368 336.606 167.823 337.176 167.399 337.908C166.993 338.641 166.683 339.503 166.472 340.496C166.276 341.473 166.179 342.547 166.179 343.719V344.695C166.179 345.753 166.325 346.73 166.618 347.625C166.927 348.52 167.359 349.293 167.912 349.944C168.482 350.595 169.165 351.1 169.963 351.458C170.777 351.816 171.696 351.995 172.722 351.995C173.991 351.995 175.171 351.751 176.262 351.263C177.368 350.758 178.321 350.001 179.118 348.992L182.536 352.703C181.983 353.501 181.226 354.266 180.266 354.998C179.322 355.73 178.182 356.333 176.848 356.805C175.513 357.26 173.991 357.488 172.282 357.488ZM194.157 335.662V367.156H187.126V330.584H193.645L194.157 335.662ZM210.881 343.499V344.012C210.881 345.932 210.653 347.715 210.197 349.358C209.758 351.002 209.107 352.435 208.244 353.655C207.382 354.86 206.307 355.804 205.021 356.487C203.752 357.155 202.287 357.488 200.627 357.488C199.016 357.488 197.616 357.163 196.428 356.512C195.24 355.861 194.239 354.949 193.425 353.777C192.627 352.589 191.984 351.214 191.496 349.651C191.008 348.089 190.633 346.412 190.373 344.622V343.279C190.633 341.359 191.008 339.601 191.496 338.006C191.984 336.395 192.627 335.003 193.425 333.831C194.239 332.643 195.231 331.723 196.403 331.072C197.591 330.421 198.983 330.096 200.578 330.096C202.255 330.096 203.728 330.413 204.997 331.048C206.283 331.683 207.357 332.594 208.22 333.782C209.099 334.97 209.758 336.386 210.197 338.03C210.653 339.674 210.881 341.497 210.881 343.499ZM203.825 344.012V343.499C203.825 342.376 203.728 341.342 203.532 340.398C203.353 339.438 203.06 338.6 202.653 337.884C202.263 337.168 201.742 336.614 201.091 336.224C200.456 335.817 199.683 335.613 198.771 335.613C197.811 335.613 196.989 335.768 196.306 336.077C195.638 336.386 195.093 336.834 194.67 337.42C194.247 338.006 193.929 338.706 193.718 339.52C193.506 340.333 193.376 341.253 193.327 342.278V345.672C193.409 346.876 193.636 347.959 194.011 348.919C194.385 349.863 194.963 350.612 195.744 351.165C196.525 351.718 197.551 351.995 198.82 351.995C199.748 351.995 200.529 351.792 201.164 351.385C201.799 350.962 202.312 350.384 202.702 349.651C203.109 348.919 203.394 348.073 203.557 347.112C203.736 346.152 203.825 345.118 203.825 344.012ZM229.509 351.043V339.275C229.509 338.429 229.37 337.705 229.094 337.103C228.817 336.484 228.386 336.004 227.8 335.662C227.23 335.32 226.49 335.149 225.578 335.149C224.797 335.149 224.121 335.288 223.552 335.564C222.982 335.825 222.543 336.207 222.233 336.712C221.924 337.2 221.77 337.778 221.77 338.445H214.738C214.738 337.322 214.999 336.256 215.52 335.247C216.04 334.238 216.797 333.351 217.79 332.586C218.783 331.805 219.963 331.194 221.33 330.755C222.714 330.315 224.26 330.096 225.969 330.096C228.02 330.096 229.842 330.438 231.438 331.121C233.033 331.805 234.286 332.83 235.197 334.197C236.125 335.564 236.589 337.273 236.589 339.324V350.628C236.589 352.076 236.678 353.265 236.857 354.192C237.036 355.104 237.297 355.901 237.639 356.585V357H230.534C230.192 356.284 229.932 355.389 229.753 354.314C229.59 353.224 229.509 352.133 229.509 351.043ZM230.437 340.911L230.485 344.891H226.555C225.627 344.891 224.821 344.996 224.138 345.208C223.454 345.42 222.893 345.721 222.453 346.111C222.014 346.486 221.688 346.925 221.477 347.43C221.281 347.934 221.184 348.488 221.184 349.09C221.184 349.692 221.322 350.237 221.599 350.726C221.875 351.198 222.274 351.572 222.795 351.849C223.316 352.109 223.926 352.239 224.626 352.239C225.684 352.239 226.604 352.028 227.385 351.604C228.166 351.181 228.768 350.66 229.191 350.042C229.631 349.424 229.859 348.838 229.875 348.284L231.73 351.263C231.47 351.93 231.112 352.622 230.656 353.338C230.217 354.054 229.655 354.729 228.972 355.364C228.288 355.983 227.466 356.495 226.506 356.902C225.546 357.293 224.406 357.488 223.088 357.488C221.411 357.488 219.89 357.155 218.522 356.487C217.172 355.804 216.097 354.868 215.3 353.68C214.519 352.475 214.128 351.108 214.128 349.578C214.128 348.195 214.388 346.966 214.909 345.892C215.43 344.817 216.195 343.914 217.204 343.182C218.229 342.433 219.507 341.871 221.037 341.497C222.567 341.106 224.341 340.911 226.359 340.911H230.437ZM249.431 330.584V357H242.375V330.584H249.431ZM241.936 323.699C241.936 322.674 242.294 321.827 243.01 321.16C243.726 320.493 244.686 320.159 245.891 320.159C247.079 320.159 248.031 320.493 248.747 321.16C249.479 321.827 249.846 322.674 249.846 323.699C249.846 324.725 249.479 325.571 248.747 326.238C248.031 326.906 247.079 327.239 245.891 327.239C244.686 327.239 243.726 326.906 243.01 326.238C242.294 325.571 241.936 324.725 241.936 323.699ZM262.272 336.346V357H255.241V330.584H261.857L262.272 336.346ZM270.231 330.413L270.109 336.932C269.768 336.883 269.353 336.842 268.864 336.81C268.392 336.761 267.961 336.736 267.57 336.736C266.577 336.736 265.715 336.867 264.982 337.127C264.266 337.371 263.664 337.737 263.176 338.226C262.704 338.714 262.346 339.308 262.102 340.008C261.874 340.708 261.743 341.505 261.711 342.4L260.295 341.961C260.295 340.252 260.466 338.681 260.808 337.249C261.149 335.8 261.646 334.539 262.297 333.465C262.964 332.391 263.778 331.561 264.738 330.975C265.699 330.389 266.797 330.096 268.034 330.096C268.425 330.096 268.824 330.128 269.23 330.193C269.637 330.242 269.971 330.315 270.231 330.413ZM280.974 330.584V357H273.918V330.584H280.974ZM273.479 323.699C273.479 322.674 273.837 321.827 274.553 321.16C275.269 320.493 276.229 320.159 277.434 320.159C278.622 320.159 279.574 320.493 280.29 321.16C281.022 321.827 281.389 322.674 281.389 323.699C281.389 324.725 281.022 325.571 280.29 326.238C279.574 326.906 278.622 327.239 277.434 327.239C276.229 327.239 275.269 326.906 274.553 326.238C273.837 325.571 273.479 324.725 273.479 323.699ZM293.669 336.224V357H286.638V330.584H293.229L293.669 336.224ZM292.644 342.864H290.739C290.739 340.911 290.992 339.153 291.496 337.591C292.001 336.012 292.709 334.669 293.62 333.562C294.532 332.439 295.614 331.585 296.867 330.999C298.137 330.397 299.553 330.096 301.115 330.096C302.352 330.096 303.483 330.275 304.509 330.633C305.534 330.991 306.413 331.561 307.146 332.342C307.894 333.123 308.464 334.157 308.854 335.442C309.261 336.728 309.465 338.299 309.465 340.154V357H302.385V340.13C302.385 338.958 302.222 338.047 301.896 337.396C301.571 336.744 301.091 336.289 300.456 336.028C299.838 335.752 299.073 335.613 298.161 335.613C297.217 335.613 296.395 335.8 295.695 336.175C295.012 336.549 294.442 337.07 293.986 337.737C293.547 338.388 293.213 339.153 292.985 340.032C292.757 340.911 292.644 341.855 292.644 342.864ZM331.535 330.584H337.907V356.121C337.907 358.53 337.37 360.573 336.296 362.249C335.238 363.942 333.757 365.219 331.853 366.082C329.948 366.961 327.735 367.4 325.212 367.4C324.105 367.4 322.933 367.254 321.696 366.961C320.476 366.668 319.304 366.212 318.181 365.594C317.074 364.975 316.146 364.194 315.397 363.25L318.498 359.1C319.312 360.044 320.256 360.776 321.33 361.297C322.404 361.834 323.592 362.103 324.895 362.103C326.164 362.103 327.238 361.867 328.117 361.395C328.996 360.939 329.672 360.263 330.144 359.368C330.616 358.489 330.852 357.423 330.852 356.17V336.688L331.535 330.584ZM313.762 344.109V343.597C313.762 341.578 314.006 339.747 314.494 338.104C314.999 336.443 315.707 335.019 316.618 333.831C317.546 332.643 318.669 331.723 319.987 331.072C321.306 330.421 322.795 330.096 324.455 330.096C326.213 330.096 327.686 330.421 328.874 331.072C330.062 331.723 331.039 332.651 331.804 333.855C332.569 335.044 333.163 336.451 333.586 338.079C334.025 339.69 334.367 341.456 334.611 343.377V344.5C334.367 346.339 334.001 348.048 333.513 349.627C333.024 351.206 332.382 352.589 331.584 353.777C330.786 354.949 329.794 355.861 328.605 356.512C327.434 357.163 326.034 357.488 324.406 357.488C322.779 357.488 321.306 357.155 319.987 356.487C318.685 355.82 317.57 354.884 316.643 353.68C315.715 352.475 314.999 351.059 314.494 349.432C314.006 347.804 313.762 346.03 313.762 344.109ZM320.793 343.597V344.109C320.793 345.2 320.899 346.217 321.11 347.161C321.322 348.105 321.647 348.943 322.087 349.676C322.543 350.392 323.104 350.953 323.771 351.36C324.455 351.751 325.261 351.946 326.188 351.946C327.474 351.946 328.524 351.678 329.338 351.141C330.152 350.587 330.762 349.83 331.169 348.87C331.576 347.91 331.812 346.803 331.877 345.55V342.352C331.844 341.326 331.706 340.407 331.462 339.593C331.218 338.763 330.876 338.055 330.437 337.469C329.997 336.883 329.427 336.427 328.728 336.102C328.028 335.776 327.198 335.613 326.237 335.613C325.31 335.613 324.504 335.825 323.82 336.248C323.153 336.655 322.591 337.216 322.136 337.933C321.696 338.649 321.363 339.495 321.135 340.472C320.907 341.432 320.793 342.474 320.793 343.597Z" fill="white"/>
<path d="M339.603 511.515C335.137 503.78 335.137 494.25 339.603 486.515L414.472 356.838C418.938 349.103 427.191 344.338 436.123 344.338H585.861C594.793 344.338 603.046 349.103 607.512 356.838L682.381 486.515C686.847 494.25 686.847 503.78 682.381 511.515L607.512 641.193C603.046 648.928 594.793 653.693 585.861 653.693H436.123C427.191 653.693 418.938 648.928 414.472 641.193L339.603 511.515Z" fill="#89C958" fill-opacity="0.78"/>
</g>
<defs>
<clipPath id="clip0_1599_726">
<rect width="1440" height="567" fill="white"/>
</clipPath>
</defs>
</svg>
