<svg width="1440" height="567" viewBox="0 0 1440 567" fill="none" xmlns="http://www.w3.org/2000/svg">
<g clip-path="url(#clip0_1599_836)">
<path d="M1656.78 191.106C1661.25 183.371 1661.25 173.841 1656.78 166.106L1581.91 36.4287C1577.45 28.6937 1569.2 23.9287 1560.26 23.9287H1410.52C1401.59 23.9287 1393.34 28.6937 1388.87 36.4287L1314 166.106C1309.54 173.841 1309.54 183.371 1314 191.106L1388.87 320.784C1393.34 328.519 1401.59 333.284 1410.52 333.284H1560.26C1569.2 333.284 1577.45 328.519 1581.91 320.784L1656.78 191.106Z" fill="#89C958" fill-opacity="0.78"/>
<path d="M1378.59 671.719C1383.06 663.984 1383.06 654.454 1378.59 646.719L1303.72 517.042C1299.26 509.307 1291 504.542 1282.07 504.542H1132.33C1123.4 504.542 1115.15 509.307 1110.68 517.042L1035.81 646.719C1031.35 654.454 1031.35 663.984 1035.81 671.719L1110.68 801.397C1115.15 809.132 1123.4 813.897 1132.33 813.897H1282.07C1291 813.897 1299.26 809.132 1303.72 801.397L1378.59 671.719Z" fill="#89C958" fill-opacity="0.78"/>
<path d="M1656.78 511.515C1661.25 503.78 1661.25 494.25 1656.78 486.515L1581.91 356.838C1577.45 349.103 1569.2 344.338 1560.26 344.338H1410.52C1401.59 344.338 1393.34 349.103 1388.87 356.838L1314 486.515C1309.54 494.25 1309.54 503.78 1314 511.515L1388.87 641.193C1393.34 648.928 1401.59 653.693 1410.52 653.693H1560.26C1569.2 653.693 1577.45 648.928 1581.91 641.193L1656.78 511.515Z" fill="#89C958" fill-opacity="0.78"/>
<path d="M822.203 671.719C826.669 663.984 826.669 654.454 822.203 646.719L747.334 517.042C742.868 509.307 734.615 504.542 725.683 504.542H575.944C567.013 504.542 558.759 509.307 554.294 517.042L479.424 646.719C474.958 654.454 474.958 663.984 479.424 671.719L554.294 801.397C558.759 809.132 567.013 813.897 575.944 813.897H725.683C734.615 813.897 742.868 809.132 747.334 801.397L822.203 671.719Z" fill="#89C958" fill-opacity="0.78"/>
<path d="M544.013 511.515C548.478 503.78 548.478 494.25 544.013 486.515L469.143 356.838C464.677 349.103 456.424 344.338 447.493 344.338H297.751C288.821 344.338 280.571 349.103 276.101 356.838L201.231 486.515C196.771 494.25 196.771 503.78 201.231 511.515L276.101 641.193C280.571 648.928 288.821 653.693 297.751 653.693H447.493C456.424 653.693 464.677 648.928 469.143 641.193L544.013 511.515Z" fill="#89C958" fill-opacity="0.78"/>
<path d="M265.819 671.719C270.289 663.984 270.289 654.454 265.819 646.719L190.949 517.042C186.479 509.307 178.229 504.542 169.299 504.542H19.5595C10.6295 504.542 2.37945 509.307 -2.09055 517.042L-76.9605 646.719C-81.4305 654.454 -81.4305 663.984 -76.9605 671.719L-2.09055 801.397C2.37945 809.132 10.6295 813.897 19.5595 813.897H169.299C178.229 813.897 186.479 809.132 190.949 801.397L265.819 671.719Z" fill="#89C958" fill-opacity="0.78"/>
<path d="M1378.59 351.311C1383.06 343.576 1383.06 334.046 1378.59 326.311L1303.72 196.633C1299.26 188.898 1291 184.133 1282.07 184.133H1132.33C1123.4 184.133 1115.15 188.898 1110.68 196.633L1035.81 326.311C1031.35 334.046 1031.35 343.576 1035.81 351.311L1110.68 480.988C1115.15 488.723 1123.4 493.488 1132.33 493.488H1282.07C1291 493.488 1299.26 488.723 1303.72 480.988L1378.59 351.311Z" fill="#89C958" fill-opacity="0.78"/>
<path d="M1136.08 358.05L1137.38 351.05C1140.61 351.05 1143.43 350.967 1145.83 350.8C1148.23 350.6 1150.21 350.317 1151.78 349.95C1153.38 349.55 1154.56 349.033 1155.33 348.4C1156.13 347.767 1156.53 347 1156.53 346.1C1156.53 344.9 1156.33 343.467 1155.93 341.8C1155.53 340.1 1155.01 338.383 1154.38 336.65L1160.93 334.75C1161.36 335.883 1161.78 337.133 1162.18 338.5C1162.58 339.833 1162.89 341.183 1163.13 342.55C1163.39 343.883 1163.53 345.133 1163.53 346.3C1163.53 348.367 1163.08 350.15 1162.18 351.65C1161.28 353.117 1159.78 354.333 1157.68 355.3C1155.61 356.233 1152.81 356.917 1149.28 357.35C1145.74 357.817 1141.34 358.05 1136.08 358.05ZM1136.03 358.05C1132.43 358.05 1129.38 357.767 1126.88 357.2C1124.41 356.667 1122.39 355.9 1120.83 354.9C1119.29 353.867 1118.18 352.667 1117.48 351.3C1116.78 349.933 1116.43 348.433 1116.43 346.8C1116.43 345.733 1116.51 344.667 1116.68 343.6C1116.88 342.5 1117.11 341.433 1117.38 340.4C1117.68 339.367 1117.94 338.433 1118.18 337.6L1124.43 339.05C1124.29 339.65 1124.14 340.3 1123.98 341C1123.81 341.7 1123.68 342.383 1123.58 343.05C1123.48 343.683 1123.43 344.267 1123.43 344.8C1123.43 346.033 1123.86 347.133 1124.73 348.1C1125.63 349.033 1127.09 349.767 1129.13 350.3C1131.16 350.8 1133.89 351.05 1137.33 351.05L1138.33 356.45L1136.03 358.05ZM1144.28 335.2C1143.31 335.2 1142.48 334.867 1141.78 334.2C1141.11 333.5 1140.78 332.683 1140.78 331.75C1140.78 330.783 1141.11 329.95 1141.78 329.25C1142.48 328.55 1143.31 328.2 1144.28 328.2C1145.21 328.2 1146.01 328.55 1146.68 329.25C1147.34 329.95 1147.68 330.783 1147.68 331.75C1147.68 332.683 1147.34 333.5 1146.68 334.2C1146.01 334.867 1145.21 335.2 1144.28 335.2ZM1135.63 335.15C1134.66 335.15 1133.83 334.817 1133.13 334.15C1132.46 333.45 1132.13 332.633 1132.13 331.7C1132.13 330.733 1132.46 329.9 1133.13 329.2C1133.83 328.5 1134.66 328.15 1135.63 328.15C1136.56 328.15 1137.36 328.5 1138.03 329.2C1138.69 329.9 1139.03 330.733 1139.03 331.7C1139.03 332.633 1138.69 333.45 1138.03 334.15C1137.36 334.817 1136.56 335.15 1135.63 335.15ZM1170.05 357L1169 320.4H1176L1177.05 357H1170.05ZM1179.25 368.55L1176.7 362.35C1178.46 361.75 1180.08 361.05 1181.55 360.25C1183.05 359.45 1184.35 358.567 1185.45 357.6C1186.55 356.633 1187.4 355.583 1188 354.45C1188.6 353.283 1188.9 352.033 1188.9 350.7C1188.9 349.3 1188.58 347.767 1187.95 346.1C1187.31 344.433 1186.55 342.733 1185.65 341L1192.2 337.85C1192.8 338.883 1193.31 340 1193.75 341.2C1194.21 342.367 1194.6 343.417 1194.9 344.35C1195.2 345.283 1195.4 345.917 1195.5 346.25C1195.96 347.85 1196.6 348.917 1197.4 349.45C1198.23 349.983 1199.56 350.25 1201.4 350.25C1202.66 350.25 1203.56 350.583 1204.1 351.25C1204.66 351.883 1204.95 352.683 1204.95 353.65C1204.95 354.683 1204.6 355.55 1203.9 356.25C1203.2 356.917 1202.2 357.25 1200.9 357.25C1199.53 357.25 1198.33 357.05 1197.3 356.65C1196.26 356.25 1195.43 355.667 1194.8 354.9C1194.2 354.133 1193.81 353.233 1193.65 352.2L1195.5 353.25C1195.3 355.017 1194.71 356.683 1193.75 358.25C1192.81 359.85 1191.6 361.317 1190.1 362.65C1188.6 363.983 1186.91 365.15 1185.05 366.15C1183.18 367.15 1181.25 367.95 1179.25 368.55ZM1200.96 357.25L1201.46 350.25C1202.66 350.25 1203.69 350.133 1204.56 349.9C1205.42 349.667 1206.16 349.2 1206.76 348.5C1207.36 347.767 1207.86 346.7 1208.26 345.3C1208.69 343.9 1209.07 342.033 1209.41 339.7L1215.96 340.8C1215.89 341.3 1215.79 341.883 1215.66 342.55C1215.56 343.217 1215.46 343.9 1215.36 344.6C1215.29 345.267 1215.26 345.9 1215.26 346.5C1215.26 347.1 1215.37 347.633 1215.61 348.1C1215.84 348.567 1216.21 348.967 1216.71 349.3C1217.24 349.6 1217.92 349.833 1218.76 350C1219.62 350.167 1220.67 350.25 1221.91 350.25C1223.17 350.25 1224.07 350.583 1224.61 351.25C1225.14 351.883 1225.41 352.683 1225.41 353.65C1225.41 354.683 1225.06 355.55 1224.36 356.25C1223.69 356.917 1222.71 357.25 1221.41 357.25C1219.91 357.25 1218.54 357.133 1217.31 356.9C1216.11 356.667 1215.06 356.283 1214.16 355.75C1213.29 355.183 1212.57 354.45 1212.01 353.55C1211.47 352.617 1211.14 351.483 1211.01 350.15H1213.41C1212.81 351.75 1212.04 353.033 1211.11 354C1210.21 354.933 1209.19 355.633 1208.06 356.1C1206.92 356.567 1205.74 356.867 1204.51 357C1203.31 357.167 1202.12 357.25 1200.96 357.25ZM1214.91 368.85C1213.94 368.85 1213.11 368.5 1212.41 367.8C1211.74 367.133 1211.41 366.333 1211.41 365.4C1211.41 364.433 1211.74 363.6 1212.41 362.9C1213.11 362.2 1213.94 361.85 1214.91 361.85C1215.84 361.85 1216.64 362.2 1217.31 362.9C1217.97 363.6 1218.31 364.433 1218.31 365.4C1218.31 366.333 1217.97 367.133 1217.31 367.8C1216.64 368.5 1215.84 368.85 1214.91 368.85ZM1206.26 368.85C1205.29 368.85 1204.46 368.5 1203.76 367.8C1203.09 367.133 1202.76 366.333 1202.76 365.4C1202.76 364.433 1203.09 363.6 1203.76 362.9C1204.46 362.2 1205.29 361.85 1206.26 361.85C1207.19 361.85 1207.99 362.2 1208.66 362.9C1209.32 363.6 1209.66 364.433 1209.66 365.4C1209.66 366.333 1209.32 367.133 1208.66 367.8C1207.99 368.5 1207.19 368.85 1206.26 368.85ZM1221.42 357.25L1221.92 350.25C1222.75 350.25 1223.38 350.083 1223.82 349.75C1224.25 349.417 1224.68 348.833 1225.12 348C1225.55 347.167 1226.15 346.033 1226.92 344.6C1227.75 343 1228.62 341.667 1229.52 340.6C1230.42 339.5 1231.32 338.633 1232.22 338C1233.15 337.333 1234.07 336.867 1234.97 336.6C1235.9 336.3 1236.82 336.15 1237.72 336.15C1238.95 336.15 1240.1 336.417 1241.17 336.95C1242.27 337.45 1243.32 338.333 1244.32 339.6C1245.32 340.833 1246.27 342.533 1247.17 344.7C1247.8 346.2 1248.43 347.35 1249.07 348.15C1249.7 348.95 1250.35 349.5 1251.02 349.8C1251.72 350.1 1252.42 350.25 1253.12 350.25C1254.38 350.25 1255.28 350.583 1255.82 351.25C1256.35 351.883 1256.62 352.683 1256.62 353.65C1256.62 354.683 1256.27 355.55 1255.57 356.25C1254.87 356.917 1253.88 357.25 1252.62 357.25C1250.98 357.25 1249.5 356.983 1248.17 356.45C1246.83 355.917 1245.78 355.117 1245.02 354.05L1246.47 352.95C1246.17 353.65 1245.72 354.383 1245.12 355.15C1244.55 355.917 1243.8 356.567 1242.87 357.1C1241.97 357.633 1240.88 357.9 1239.62 357.9C1238.78 357.9 1237.8 357.733 1236.67 357.4C1235.57 357.1 1234.42 356.583 1233.22 355.85C1232.05 355.083 1230.97 354.05 1229.97 352.75C1229.33 353.917 1228.63 354.833 1227.87 355.5C1227.1 356.133 1226.2 356.583 1225.17 356.85C1224.13 357.117 1222.88 357.25 1221.42 357.25ZM1232.87 346.85C1233.2 347.35 1233.6 347.85 1234.07 348.35C1234.53 348.85 1235.05 349.3 1235.62 349.7C1236.18 350.067 1236.78 350.367 1237.42 350.6C1238.08 350.833 1238.73 350.95 1239.37 350.95C1240.03 350.95 1240.58 350.7 1241.02 350.2C1241.45 349.667 1241.47 348.883 1241.07 347.85C1240.9 347.417 1240.67 346.933 1240.37 346.4C1240.1 345.833 1239.78 345.3 1239.42 344.8C1239.08 344.3 1238.7 343.883 1238.27 343.55C1237.87 343.217 1237.45 343.05 1237.02 343.05C1236.58 343.05 1236.13 343.183 1235.67 343.45C1235.2 343.717 1234.73 344.133 1234.27 344.7C1233.8 345.233 1233.33 345.95 1232.87 346.85ZM1252.42 357.25L1252.92 350.25C1255.25 350.25 1257.35 350.1 1259.22 349.8C1261.08 349.467 1262.72 349.033 1264.12 348.5C1265.55 347.967 1266.73 347.35 1267.67 346.65C1268.63 345.95 1269.35 345.217 1269.82 344.45C1270.32 343.65 1270.57 342.867 1270.57 342.1C1270.57 341.667 1270.45 341.267 1270.22 340.9C1270.02 340.5 1269.67 340.183 1269.17 339.95C1268.67 339.683 1267.98 339.55 1267.12 339.55C1266.68 339.55 1266.17 339.6 1265.57 339.7C1264.97 339.8 1264.37 339.95 1263.77 340.15C1263.17 340.317 1262.6 340.55 1262.07 340.85C1262.77 341.383 1263.53 342.067 1264.37 342.9C1265.2 343.7 1266.03 344.55 1266.87 345.45C1267.7 346.317 1268.42 347.167 1269.02 348C1269.72 348.3 1270.48 348.6 1271.32 348.9C1272.18 349.167 1273.12 349.4 1274.12 349.6C1275.12 349.8 1276.17 349.967 1277.27 350.1C1278.37 350.2 1279.5 350.25 1280.67 350.25C1281.93 350.25 1282.83 350.583 1283.37 351.25C1283.93 351.883 1284.22 352.683 1284.22 353.65C1284.22 354.683 1283.87 355.55 1283.17 356.25C1282.47 356.917 1281.47 357.25 1280.17 357.25C1277.5 357.25 1275.13 357.05 1273.07 356.65C1271 356.217 1269.15 355.6 1267.52 354.8C1265.92 353.967 1264.42 352.967 1263.02 351.8C1262.62 351.1 1262.05 350.35 1261.32 349.55C1260.62 348.717 1259.87 347.917 1259.07 347.15C1258.3 346.383 1257.6 345.75 1256.97 345.25C1256.8 345.117 1256.6 344.767 1256.37 344.2C1256.17 343.6 1255.98 342.983 1255.82 342.35C1255.65 341.683 1255.57 341.217 1255.57 340.95C1255.57 340.183 1255.92 339.367 1256.62 338.5C1257.35 337.633 1258.32 336.833 1259.52 336.1C1260.75 335.333 1262.1 334.717 1263.57 334.25C1265.07 333.75 1266.58 333.5 1268.12 333.5C1270.18 333.5 1271.9 333.817 1273.27 334.45C1274.67 335.05 1275.72 335.9 1276.42 337C1277.12 338.067 1277.47 339.317 1277.47 340.75C1277.47 342.35 1277.12 343.95 1276.42 345.55C1275.72 347.117 1274.68 348.6 1273.32 350C1271.98 351.4 1270.3 352.65 1268.27 353.75C1266.27 354.817 1263.93 355.667 1261.27 356.3C1258.63 356.933 1255.68 357.25 1252.42 357.25ZM1280.21 357.25L1280.71 350.25C1282.71 350.25 1284.24 350.15 1285.31 349.95C1286.37 349.75 1287.11 349.383 1287.51 348.85C1287.94 348.283 1288.16 347.483 1288.16 346.45C1288.16 345.517 1288.02 344.4 1287.76 343.1C1287.52 341.8 1287.21 340.45 1286.81 339.05C1286.44 337.65 1286.04 336.367 1285.61 335.2L1292.51 333.3C1292.94 334.433 1293.36 335.75 1293.76 337.25C1294.16 338.75 1294.49 340.3 1294.76 341.9C1295.02 343.467 1295.16 344.983 1295.16 346.45C1295.16 348.717 1294.79 350.567 1294.06 352C1293.32 353.4 1292.29 354.483 1290.96 355.25C1289.66 356.017 1288.09 356.55 1286.26 356.85C1284.42 357.117 1282.41 357.25 1280.21 357.25ZM1293.76 329.25C1292.79 329.25 1291.96 328.917 1291.26 328.25C1290.59 327.55 1290.26 326.733 1290.26 325.8C1290.26 324.833 1290.59 324 1291.26 323.3C1291.96 322.6 1292.79 322.25 1293.76 322.25C1294.69 322.25 1295.49 322.6 1296.16 323.3C1296.82 324 1297.16 324.833 1297.16 325.8C1297.16 326.733 1296.82 327.55 1296.16 328.25C1295.49 328.917 1294.69 329.25 1293.76 329.25ZM1285.11 329.2C1284.14 329.2 1283.31 328.867 1282.61 328.2C1281.94 327.5 1281.61 326.683 1281.61 325.75C1281.61 324.783 1281.94 323.95 1282.61 323.25C1283.31 322.55 1284.14 322.2 1285.11 322.2C1286.04 322.2 1286.84 322.55 1287.51 323.25C1288.17 323.95 1288.51 324.783 1288.51 325.75C1288.51 326.683 1288.17 327.5 1287.51 328.2C1286.84 328.867 1286.04 329.2 1285.11 329.2Z" fill="white"/>
<path d="M1100.4 511.515C1104.86 503.78 1104.86 494.25 1100.4 486.515L1025.53 356.838C1021.06 349.103 1012.81 344.338 1003.88 344.338H854.139C845.207 344.338 836.954 349.103 832.488 356.838L757.619 486.515C753.153 494.25 753.153 503.78 757.619 511.515L832.488 641.193C836.954 648.928 845.207 653.693 854.139 653.693H1003.88C1012.81 653.693 1021.06 648.928 1025.53 641.193L1100.4 511.515Z" fill="#89C958" fill-opacity="0.78"/>
</g>
<defs>
<clipPath id="clip0_1599_836">
<rect width="1440" height="567" fill="white" transform="matrix(-1 0 0 1 1440 0)"/>
</clipPath>
</defs>
</svg>
