<svg width="1440" height="567" viewBox="0 0 1440 567" fill="none" xmlns="http://www.w3.org/2000/svg">
<g clip-path="url(#clip0_1599_706)">
<path d="M-216.783 191.106C-221.249 183.371 -221.249 173.841 -216.783 166.106L-141.914 36.4287C-137.448 28.6937 -129.195 23.9287 -120.263 23.9287H29.4753C38.407 23.9287 46.6602 28.6937 51.126 36.4287L125.996 166.106C130.461 173.841 130.461 183.371 125.996 191.106L51.126 320.784C46.6601 328.519 38.407 333.284 29.4753 333.284H-120.263C-129.195 333.284 -137.448 328.519 -141.914 320.784L-216.783 191.106Z" fill="#89C958" fill-opacity="0.78"/>
<path d="M61.4099 671.719C56.9441 663.984 56.9441 654.454 61.4099 646.719L136.28 517.042C140.745 509.307 148.999 504.542 157.93 504.542H307.669C316.601 504.542 324.854 509.307 329.32 517.042L404.189 646.719C408.655 654.454 408.655 663.984 404.189 671.719L329.32 801.397C324.854 809.132 316.601 813.897 307.669 813.897H157.93C148.999 813.897 140.745 809.132 136.28 801.397L61.4099 671.719Z" fill="#89C958" fill-opacity="0.78"/>
<path d="M-216.783 511.515C-221.249 503.78 -221.249 494.25 -216.783 486.515L-141.914 356.838C-137.448 349.103 -129.195 344.338 -120.263 344.338H29.4753C38.407 344.338 46.6602 349.103 51.126 356.838L125.996 486.515C130.461 494.25 130.461 503.78 125.996 511.515L51.126 641.193C46.6601 648.928 38.407 653.693 29.4753 653.693H-120.263C-129.195 653.693 -137.448 648.928 -141.914 641.193L-216.783 511.515Z" fill="#89C958" fill-opacity="0.78"/>
<path d="M617.797 671.719C613.331 663.984 613.331 654.454 617.797 646.719L692.666 517.042C697.132 509.307 705.385 504.542 714.317 504.542H864.056C872.987 504.542 881.241 509.307 885.706 517.042L960.576 646.719C965.042 654.454 965.042 663.984 960.576 671.719L885.706 801.397C881.241 809.132 872.987 813.897 864.056 813.897H714.317C705.385 813.897 697.132 809.132 692.666 801.397L617.797 671.719Z" fill="#89C958" fill-opacity="0.78"/>
<path d="M895.987 511.515C891.522 503.78 891.522 494.25 895.987 486.515L970.857 356.838C975.323 349.103 983.576 344.338 992.507 344.338H1142.25C1151.18 344.338 1159.43 349.103 1163.9 356.838L1238.77 486.515C1243.23 494.25 1243.23 503.78 1238.77 511.515L1163.9 641.193C1159.43 648.928 1151.18 653.693 1142.25 653.693H992.507C983.576 653.693 975.323 648.928 970.857 641.193L895.987 511.515Z" fill="#89C958" fill-opacity="0.78"/>
<path d="M1174.18 671.719C1169.71 663.984 1169.71 654.454 1174.18 646.719L1249.05 517.042C1253.52 509.307 1261.77 504.542 1270.7 504.542H1420.44C1429.37 504.542 1437.62 509.307 1442.09 517.042L1516.96 646.719C1521.43 654.454 1521.43 663.984 1516.96 671.719L1442.09 801.397C1437.62 809.132 1429.37 813.897 1420.44 813.897H1270.7C1261.77 813.897 1253.52 809.132 1249.05 801.397L1174.18 671.719Z" fill="#89C958" fill-opacity="0.78"/>
<path d="M61.4099 351.311C56.9441 343.576 56.9441 334.046 61.4099 326.311L136.28 196.633C140.745 188.898 148.999 184.133 157.93 184.133H307.669C316.601 184.133 324.854 188.898 329.32 196.633L404.189 326.311C408.655 334.046 408.655 343.576 404.189 351.311L329.32 480.988C324.854 488.723 316.601 493.488 307.669 493.488H157.93C148.999 493.488 140.745 488.723 136.28 480.988L61.4099 351.311Z" fill="#89C958" fill-opacity="0.78"/>
<path d="M139.699 310.562H145.539V329.352C145.539 331.539 145.07 333.382 144.133 334.879C143.208 336.376 141.926 337.503 140.285 338.258C138.658 339.013 136.783 339.391 134.66 339.391C132.538 339.391 130.65 339.013 128.996 338.258C127.355 337.503 126.066 336.376 125.129 334.879C124.204 333.382 123.742 331.539 123.742 329.352V310.562H129.602V329.352C129.602 330.628 129.803 331.669 130.207 332.477C130.611 333.284 131.19 333.876 131.945 334.254C132.714 334.632 133.618 334.82 134.66 334.82C135.728 334.82 136.633 334.632 137.375 334.254C138.13 333.876 138.703 333.284 139.094 332.477C139.497 331.669 139.699 330.628 139.699 329.352V310.562ZM155.52 322.379V339H149.895V317.867H155.168L155.52 322.379ZM154.699 327.691H153.176C153.176 326.129 153.378 324.723 153.781 323.473C154.185 322.21 154.751 321.135 155.48 320.25C156.21 319.352 157.076 318.668 158.078 318.199C159.094 317.717 160.227 317.477 161.477 317.477C162.466 317.477 163.371 317.62 164.191 317.906C165.012 318.193 165.715 318.648 166.301 319.273C166.9 319.898 167.355 320.725 167.668 321.754C167.993 322.783 168.156 324.039 168.156 325.523V339H162.492V325.504C162.492 324.566 162.362 323.837 162.102 323.316C161.841 322.796 161.457 322.431 160.949 322.223C160.454 322.001 159.842 321.891 159.113 321.891C158.358 321.891 157.701 322.04 157.141 322.34C156.594 322.639 156.138 323.056 155.773 323.59C155.422 324.111 155.155 324.723 154.973 325.426C154.79 326.129 154.699 326.884 154.699 327.691ZM184.914 334.391V309H190.578V339H185.48L184.914 334.391ZM171.555 328.688V328.277C171.555 326.663 171.737 325.198 172.102 323.883C172.466 322.555 173 321.415 173.703 320.465C174.406 319.514 175.272 318.779 176.301 318.258C177.329 317.737 178.501 317.477 179.816 317.477C181.053 317.477 182.134 317.737 183.059 318.258C183.996 318.779 184.79 319.521 185.441 320.484C186.105 321.435 186.639 322.561 187.043 323.863C187.447 325.152 187.74 326.565 187.922 328.102V329C187.74 330.471 187.447 331.839 187.043 333.102C186.639 334.365 186.105 335.471 185.441 336.422C184.79 337.359 183.996 338.089 183.059 338.609C182.121 339.13 181.027 339.391 179.777 339.391C178.462 339.391 177.29 339.124 176.262 338.59C175.246 338.056 174.387 337.307 173.684 336.344C172.993 335.38 172.466 334.247 172.102 332.945C171.737 331.643 171.555 330.224 171.555 328.688ZM177.18 328.277V328.688C177.18 329.56 177.245 330.374 177.375 331.129C177.518 331.884 177.746 332.555 178.059 333.141C178.384 333.714 178.801 334.163 179.309 334.488C179.829 334.801 180.461 334.957 181.203 334.957C182.167 334.957 182.961 334.742 183.586 334.312C184.211 333.87 184.686 333.264 185.012 332.496C185.35 331.728 185.546 330.842 185.598 329.84V327.281C185.559 326.461 185.441 325.725 185.246 325.074C185.064 324.41 184.79 323.844 184.426 323.375C184.074 322.906 183.632 322.542 183.098 322.281C182.577 322.021 181.958 321.891 181.242 321.891C180.513 321.891 179.888 322.06 179.367 322.398C178.846 322.724 178.423 323.173 178.098 323.746C177.785 324.319 177.551 324.996 177.395 325.777C177.251 326.546 177.18 327.379 177.18 328.277ZM204.699 339.391C203.059 339.391 201.587 339.13 200.285 338.609C198.983 338.076 197.876 337.34 196.965 336.402C196.066 335.465 195.376 334.378 194.895 333.141C194.413 331.891 194.172 330.562 194.172 329.156V328.375C194.172 326.773 194.4 325.309 194.855 323.98C195.311 322.652 195.962 321.5 196.809 320.523C197.668 319.547 198.71 318.798 199.934 318.277C201.158 317.743 202.538 317.477 204.074 317.477C205.572 317.477 206.9 317.724 208.059 318.219C209.217 318.714 210.188 319.417 210.969 320.328C211.763 321.24 212.362 322.333 212.766 323.609C213.169 324.872 213.371 326.279 213.371 327.828V330.172H196.574V326.422H207.844V325.992C207.844 325.211 207.701 324.514 207.414 323.902C207.141 323.277 206.724 322.783 206.164 322.418C205.604 322.053 204.888 321.871 204.016 321.871C203.273 321.871 202.635 322.034 202.102 322.359C201.568 322.685 201.132 323.141 200.793 323.727C200.467 324.312 200.22 325.003 200.051 325.797C199.895 326.578 199.816 327.438 199.816 328.375V329.156C199.816 330.003 199.934 330.784 200.168 331.5C200.415 332.216 200.76 332.835 201.203 333.355C201.659 333.876 202.206 334.28 202.844 334.566C203.495 334.853 204.23 334.996 205.051 334.996C206.066 334.996 207.01 334.801 207.883 334.41C208.768 334.007 209.53 333.401 210.168 332.594L212.902 335.562C212.46 336.201 211.854 336.812 211.086 337.398C210.331 337.984 209.419 338.466 208.352 338.844C207.284 339.208 206.066 339.391 204.699 339.391ZM222.199 322.477V339H216.574V317.867H221.867L222.199 322.477ZM228.566 317.73L228.469 322.945C228.195 322.906 227.863 322.874 227.473 322.848C227.095 322.809 226.75 322.789 226.438 322.789C225.643 322.789 224.953 322.893 224.367 323.102C223.794 323.297 223.312 323.59 222.922 323.98C222.544 324.371 222.258 324.846 222.062 325.406C221.88 325.966 221.776 326.604 221.75 327.32L220.617 326.969C220.617 325.602 220.754 324.345 221.027 323.199C221.301 322.04 221.698 321.031 222.219 320.172C222.753 319.312 223.404 318.648 224.172 318.18C224.94 317.711 225.819 317.477 226.809 317.477C227.121 317.477 227.44 317.503 227.766 317.555C228.091 317.594 228.358 317.652 228.566 317.73ZM248.391 334.488L254.055 310.562H257.219L257.941 314.547L251.906 339H248.508L248.391 334.488ZM245.48 310.562L250.168 334.488L249.777 339H245.988L239.68 310.562H245.48ZM262.922 334.391L267.551 310.562H273.352L267.062 339H263.273L262.922 334.391ZM258.996 310.562L264.699 334.586L264.543 339H261.145L255.07 314.527L255.852 310.562H258.996ZM286.926 334.234V324.82C286.926 324.143 286.815 323.564 286.594 323.082C286.372 322.587 286.027 322.203 285.559 321.93C285.103 321.656 284.51 321.52 283.781 321.52C283.156 321.52 282.616 321.63 282.16 321.852C281.704 322.06 281.353 322.366 281.105 322.77C280.858 323.16 280.734 323.622 280.734 324.156H275.109C275.109 323.258 275.318 322.405 275.734 321.598C276.151 320.79 276.757 320.081 277.551 319.469C278.345 318.844 279.289 318.355 280.383 318.004C281.49 317.652 282.727 317.477 284.094 317.477C285.734 317.477 287.193 317.75 288.469 318.297C289.745 318.844 290.747 319.664 291.477 320.758C292.219 321.852 292.59 323.219 292.59 324.859V333.902C292.59 335.061 292.661 336.012 292.805 336.754C292.948 337.483 293.156 338.121 293.43 338.668V339H287.746C287.473 338.427 287.264 337.711 287.121 336.852C286.991 335.979 286.926 335.107 286.926 334.234ZM287.668 326.129L287.707 329.312H284.562C283.82 329.312 283.176 329.397 282.629 329.566C282.082 329.736 281.633 329.977 281.281 330.289C280.93 330.589 280.669 330.94 280.5 331.344C280.344 331.747 280.266 332.19 280.266 332.672C280.266 333.154 280.376 333.59 280.598 333.98C280.819 334.358 281.138 334.658 281.555 334.879C281.971 335.087 282.46 335.191 283.02 335.191C283.866 335.191 284.602 335.022 285.227 334.684C285.852 334.345 286.333 333.928 286.672 333.434C287.023 332.939 287.206 332.47 287.219 332.027L288.703 334.41C288.495 334.944 288.208 335.497 287.844 336.07C287.492 336.643 287.043 337.184 286.496 337.691C285.949 338.186 285.292 338.596 284.523 338.922C283.755 339.234 282.844 339.391 281.789 339.391C280.448 339.391 279.23 339.124 278.137 338.59C277.056 338.043 276.197 337.294 275.559 336.344C274.934 335.38 274.621 334.286 274.621 333.062C274.621 331.956 274.829 330.973 275.246 330.113C275.663 329.254 276.275 328.531 277.082 327.945C277.902 327.346 278.924 326.897 280.148 326.598C281.372 326.285 282.792 326.129 284.406 326.129H287.668ZM307.277 317.867V321.852H294.973V317.867H307.277ZM298.02 312.652H303.645V332.633C303.645 333.245 303.723 333.714 303.879 334.039C304.048 334.365 304.296 334.592 304.621 334.723C304.947 334.84 305.357 334.898 305.852 334.898C306.203 334.898 306.516 334.885 306.789 334.859C307.076 334.82 307.316 334.781 307.512 334.742L307.531 338.883C307.049 339.039 306.529 339.163 305.969 339.254C305.409 339.345 304.79 339.391 304.113 339.391C302.876 339.391 301.796 339.189 300.871 338.785C299.96 338.368 299.257 337.704 298.762 336.793C298.267 335.882 298.02 334.684 298.02 333.199V312.652ZM320.207 339.391C318.566 339.391 317.095 339.13 315.793 338.609C314.491 338.076 313.384 337.34 312.473 336.402C311.574 335.465 310.884 334.378 310.402 333.141C309.921 331.891 309.68 330.562 309.68 329.156V328.375C309.68 326.773 309.908 325.309 310.363 323.98C310.819 322.652 311.47 321.5 312.316 320.523C313.176 319.547 314.217 318.798 315.441 318.277C316.665 317.743 318.046 317.477 319.582 317.477C321.079 317.477 322.408 317.724 323.566 318.219C324.725 318.714 325.695 319.417 326.477 320.328C327.271 321.24 327.87 322.333 328.273 323.609C328.677 324.872 328.879 326.279 328.879 327.828V330.172H312.082V326.422H323.352V325.992C323.352 325.211 323.208 324.514 322.922 323.902C322.648 323.277 322.232 322.783 321.672 322.418C321.112 322.053 320.396 321.871 319.523 321.871C318.781 321.871 318.143 322.034 317.609 322.359C317.076 322.685 316.639 323.141 316.301 323.727C315.975 324.312 315.728 325.003 315.559 325.797C315.402 326.578 315.324 327.438 315.324 328.375V329.156C315.324 330.003 315.441 330.784 315.676 331.5C315.923 332.216 316.268 332.835 316.711 333.355C317.167 333.876 317.714 334.28 318.352 334.566C319.003 334.853 319.738 334.996 320.559 334.996C321.574 334.996 322.518 334.801 323.391 334.41C324.276 334.007 325.038 333.401 325.676 332.594L328.41 335.562C327.967 336.201 327.362 336.812 326.594 337.398C325.839 337.984 324.927 338.466 323.859 338.844C322.792 339.208 321.574 339.391 320.207 339.391ZM337.707 322.477V339H332.082V317.867H337.375L337.707 322.477ZM344.074 317.73L343.977 322.945C343.703 322.906 343.371 322.874 342.98 322.848C342.603 322.809 342.258 322.789 341.945 322.789C341.151 322.789 340.461 322.893 339.875 323.102C339.302 323.297 338.82 323.59 338.43 323.98C338.052 324.371 337.766 324.846 337.57 325.406C337.388 325.966 337.284 326.604 337.258 327.32L336.125 326.969C336.125 325.602 336.262 324.345 336.535 323.199C336.809 322.04 337.206 321.031 337.727 320.172C338.26 319.312 338.911 318.648 339.68 318.18C340.448 317.711 341.327 317.477 342.316 317.477C342.629 317.477 342.948 317.503 343.273 317.555C343.599 317.594 343.866 317.652 344.074 317.73ZM147.375 357.562V386H141.535V357.562H147.375ZM158.02 369.379V386H152.395V364.867H157.668L158.02 369.379ZM157.199 374.691H155.676C155.676 373.129 155.878 371.723 156.281 370.473C156.685 369.21 157.251 368.135 157.98 367.25C158.71 366.352 159.576 365.668 160.578 365.199C161.594 364.717 162.727 364.477 163.977 364.477C164.966 364.477 165.871 364.62 166.691 364.906C167.512 365.193 168.215 365.648 168.801 366.273C169.4 366.898 169.855 367.725 170.168 368.754C170.493 369.783 170.656 371.039 170.656 372.523V386H164.992V372.504C164.992 371.566 164.862 370.837 164.602 370.316C164.341 369.796 163.957 369.431 163.449 369.223C162.954 369.001 162.342 368.891 161.613 368.891C160.858 368.891 160.201 369.04 159.641 369.34C159.094 369.639 158.638 370.056 158.273 370.59C157.922 371.111 157.655 371.723 157.473 372.426C157.29 373.129 157.199 373.884 157.199 374.691ZM186.359 380.16C186.359 379.757 186.242 379.392 186.008 379.066C185.773 378.741 185.337 378.441 184.699 378.168C184.074 377.882 183.169 377.621 181.984 377.387C180.917 377.152 179.921 376.859 178.996 376.508C178.085 376.143 177.29 375.707 176.613 375.199C175.949 374.691 175.428 374.092 175.051 373.402C174.673 372.699 174.484 371.898 174.484 371C174.484 370.115 174.673 369.281 175.051 368.5C175.441 367.719 175.995 367.029 176.711 366.43C177.44 365.818 178.326 365.342 179.367 365.004C180.422 364.652 181.607 364.477 182.922 364.477C184.758 364.477 186.333 364.77 187.648 365.355C188.977 365.941 189.992 366.749 190.695 367.777C191.411 368.793 191.77 369.952 191.77 371.254H186.145C186.145 370.707 186.027 370.219 185.793 369.789C185.572 369.346 185.22 369.001 184.738 368.754C184.27 368.493 183.658 368.363 182.902 368.363C182.277 368.363 181.737 368.474 181.281 368.695C180.826 368.904 180.474 369.19 180.227 369.555C179.992 369.906 179.875 370.297 179.875 370.727C179.875 371.052 179.94 371.345 180.07 371.605C180.214 371.853 180.441 372.081 180.754 372.289C181.066 372.497 181.47 372.693 181.965 372.875C182.473 373.044 183.098 373.201 183.84 373.344C185.363 373.656 186.724 374.066 187.922 374.574C189.12 375.069 190.07 375.746 190.773 376.605C191.477 377.452 191.828 378.565 191.828 379.945C191.828 380.883 191.62 381.742 191.203 382.523C190.786 383.305 190.188 383.988 189.406 384.574C188.625 385.147 187.688 385.596 186.594 385.922C185.513 386.234 184.296 386.391 182.941 386.391C180.975 386.391 179.309 386.039 177.941 385.336C176.587 384.633 175.559 383.741 174.855 382.66C174.165 381.566 173.82 380.447 173.82 379.301H179.152C179.178 380.069 179.374 380.688 179.738 381.156C180.116 381.625 180.591 381.964 181.164 382.172C181.75 382.38 182.382 382.484 183.059 382.484C183.788 382.484 184.393 382.387 184.875 382.191C185.357 381.983 185.721 381.71 185.969 381.371C186.229 381.02 186.359 380.616 186.359 380.16ZM201.105 368.93V394.125H195.48V364.867H200.695L201.105 368.93ZM214.484 375.199V375.609C214.484 377.146 214.302 378.572 213.938 379.887C213.586 381.202 213.065 382.348 212.375 383.324C211.685 384.288 210.826 385.043 209.797 385.59C208.781 386.124 207.609 386.391 206.281 386.391C204.992 386.391 203.872 386.13 202.922 385.609C201.971 385.089 201.171 384.359 200.52 383.422C199.882 382.471 199.367 381.371 198.977 380.121C198.586 378.871 198.286 377.53 198.078 376.098V375.023C198.286 373.487 198.586 372.081 198.977 370.805C199.367 369.516 199.882 368.402 200.52 367.465C201.171 366.514 201.965 365.779 202.902 365.258C203.853 364.737 204.966 364.477 206.242 364.477C207.583 364.477 208.762 364.73 209.777 365.238C210.806 365.746 211.665 366.475 212.355 367.426C213.059 368.376 213.586 369.509 213.938 370.824C214.302 372.139 214.484 373.598 214.484 375.199ZM208.84 375.609V375.199C208.84 374.301 208.762 373.474 208.605 372.719C208.462 371.951 208.228 371.28 207.902 370.707C207.59 370.134 207.173 369.691 206.652 369.379C206.145 369.053 205.526 368.891 204.797 368.891C204.029 368.891 203.371 369.014 202.824 369.262C202.29 369.509 201.854 369.867 201.516 370.336C201.177 370.805 200.923 371.365 200.754 372.016C200.585 372.667 200.48 373.402 200.441 374.223V376.938C200.507 377.901 200.689 378.767 200.988 379.535C201.288 380.29 201.75 380.889 202.375 381.332C203 381.775 203.82 381.996 204.836 381.996C205.578 381.996 206.203 381.833 206.711 381.508C207.219 381.169 207.629 380.707 207.941 380.121C208.267 379.535 208.495 378.858 208.625 378.09C208.768 377.322 208.84 376.495 208.84 375.609ZM227.707 386.391C226.066 386.391 224.595 386.13 223.293 385.609C221.991 385.076 220.884 384.34 219.973 383.402C219.074 382.465 218.384 381.378 217.902 380.141C217.421 378.891 217.18 377.562 217.18 376.156V375.375C217.18 373.773 217.408 372.309 217.863 370.98C218.319 369.652 218.97 368.5 219.816 367.523C220.676 366.547 221.717 365.798 222.941 365.277C224.165 364.743 225.546 364.477 227.082 364.477C228.579 364.477 229.908 364.724 231.066 365.219C232.225 365.714 233.195 366.417 233.977 367.328C234.771 368.24 235.37 369.333 235.773 370.609C236.177 371.872 236.379 373.279 236.379 374.828V377.172H219.582V373.422H230.852V372.992C230.852 372.211 230.708 371.514 230.422 370.902C230.148 370.277 229.732 369.783 229.172 369.418C228.612 369.053 227.896 368.871 227.023 368.871C226.281 368.871 225.643 369.034 225.109 369.359C224.576 369.685 224.139 370.141 223.801 370.727C223.475 371.312 223.228 372.003 223.059 372.797C222.902 373.578 222.824 374.438 222.824 375.375V376.156C222.824 377.003 222.941 377.784 223.176 378.5C223.423 379.216 223.768 379.835 224.211 380.355C224.667 380.876 225.214 381.28 225.852 381.566C226.503 381.853 227.238 381.996 228.059 381.996C229.074 381.996 230.018 381.801 230.891 381.41C231.776 381.007 232.538 380.401 233.176 379.594L235.91 382.562C235.467 383.201 234.862 383.812 234.094 384.398C233.339 384.984 232.427 385.466 231.359 385.844C230.292 386.208 229.074 386.391 227.707 386.391ZM248.312 381.996C249.003 381.996 249.615 381.866 250.148 381.605C250.682 381.332 251.099 380.954 251.398 380.473C251.711 379.978 251.874 379.398 251.887 378.734H257.18C257.167 380.219 256.77 381.54 255.988 382.699C255.207 383.845 254.159 384.75 252.844 385.414C251.529 386.065 250.057 386.391 248.43 386.391C246.789 386.391 245.357 386.117 244.133 385.57C242.922 385.023 241.913 384.268 241.105 383.305C240.298 382.328 239.693 381.195 239.289 379.906C238.885 378.604 238.684 377.211 238.684 375.727V375.16C238.684 373.663 238.885 372.27 239.289 370.98C239.693 369.678 240.298 368.546 241.105 367.582C241.913 366.605 242.922 365.844 244.133 365.297C245.344 364.75 246.763 364.477 248.391 364.477C250.122 364.477 251.639 364.809 252.941 365.473C254.257 366.137 255.285 367.087 256.027 368.324C256.783 369.548 257.167 371 257.18 372.68H251.887C251.874 371.977 251.724 371.339 251.438 370.766C251.164 370.193 250.76 369.737 250.227 369.398C249.706 369.047 249.061 368.871 248.293 368.871C247.473 368.871 246.802 369.047 246.281 369.398C245.76 369.737 245.357 370.206 245.07 370.805C244.784 371.391 244.582 372.061 244.465 372.816C244.361 373.559 244.309 374.34 244.309 375.16V375.727C244.309 376.547 244.361 377.335 244.465 378.09C244.569 378.845 244.764 379.516 245.051 380.102C245.35 380.688 245.76 381.15 246.281 381.488C246.802 381.827 247.479 381.996 248.312 381.996ZM270.793 364.867V368.852H258.488V364.867H270.793ZM261.535 359.652H267.16V379.633C267.16 380.245 267.238 380.714 267.395 381.039C267.564 381.365 267.811 381.592 268.137 381.723C268.462 381.84 268.872 381.898 269.367 381.898C269.719 381.898 270.031 381.885 270.305 381.859C270.591 381.82 270.832 381.781 271.027 381.742L271.047 385.883C270.565 386.039 270.044 386.163 269.484 386.254C268.924 386.345 268.306 386.391 267.629 386.391C266.392 386.391 265.311 386.189 264.387 385.785C263.475 385.368 262.772 384.704 262.277 383.793C261.783 382.882 261.535 381.684 261.535 380.199V359.652ZM279.934 364.867V386H274.289V364.867H279.934ZM273.938 359.359C273.938 358.539 274.224 357.862 274.797 357.328C275.37 356.794 276.138 356.527 277.102 356.527C278.052 356.527 278.814 356.794 279.387 357.328C279.973 357.862 280.266 358.539 280.266 359.359C280.266 360.18 279.973 360.857 279.387 361.391C278.814 361.924 278.052 362.191 277.102 362.191C276.138 362.191 275.37 361.924 274.797 361.391C274.224 360.857 273.938 360.18 273.938 359.359ZM283.684 375.648V375.238C283.684 373.689 283.905 372.263 284.348 370.961C284.79 369.646 285.435 368.507 286.281 367.543C287.128 366.579 288.169 365.831 289.406 365.297C290.643 364.75 292.062 364.477 293.664 364.477C295.266 364.477 296.691 364.75 297.941 365.297C299.191 365.831 300.24 366.579 301.086 367.543C301.945 368.507 302.596 369.646 303.039 370.961C303.482 372.263 303.703 373.689 303.703 375.238V375.648C303.703 377.185 303.482 378.611 303.039 379.926C302.596 381.228 301.945 382.367 301.086 383.344C300.24 384.307 299.198 385.056 297.961 385.59C296.724 386.124 295.305 386.391 293.703 386.391C292.102 386.391 290.676 386.124 289.426 385.59C288.189 385.056 287.141 384.307 286.281 383.344C285.435 382.367 284.79 381.228 284.348 379.926C283.905 378.611 283.684 377.185 283.684 375.648ZM289.309 375.238V375.648C289.309 376.534 289.387 377.361 289.543 378.129C289.699 378.897 289.947 379.574 290.285 380.16C290.637 380.733 291.092 381.182 291.652 381.508C292.212 381.833 292.896 381.996 293.703 381.996C294.484 381.996 295.155 381.833 295.715 381.508C296.275 381.182 296.724 380.733 297.062 380.16C297.401 379.574 297.648 378.897 297.805 378.129C297.974 377.361 298.059 376.534 298.059 375.648V375.238C298.059 374.379 297.974 373.572 297.805 372.816C297.648 372.048 297.395 371.371 297.043 370.785C296.704 370.186 296.255 369.717 295.695 369.379C295.135 369.04 294.458 368.871 293.664 368.871C292.87 368.871 292.193 369.04 291.633 369.379C291.086 369.717 290.637 370.186 290.285 370.785C289.947 371.371 289.699 372.048 289.543 372.816C289.387 373.572 289.309 374.379 289.309 375.238ZM312.668 369.379V386H307.043V364.867H312.316L312.668 369.379ZM311.848 374.691H310.324C310.324 373.129 310.526 371.723 310.93 370.473C311.333 369.21 311.9 368.135 312.629 367.25C313.358 366.352 314.224 365.668 315.227 365.199C316.242 364.717 317.375 364.477 318.625 364.477C319.615 364.477 320.52 364.62 321.34 364.906C322.16 365.193 322.863 365.648 323.449 366.273C324.048 366.898 324.504 367.725 324.816 368.754C325.142 369.783 325.305 371.039 325.305 372.523V386H319.641V372.504C319.641 371.566 319.51 370.837 319.25 370.316C318.99 369.796 318.605 369.431 318.098 369.223C317.603 369.001 316.991 368.891 316.262 368.891C315.507 368.891 314.849 369.04 314.289 369.34C313.742 369.639 313.286 370.056 312.922 370.59C312.57 371.111 312.303 371.723 312.121 372.426C311.939 373.129 311.848 373.884 311.848 374.691Z" fill="white"/>
<path d="M339.603 511.515C335.137 503.78 335.137 494.25 339.603 486.515L414.472 356.838C418.938 349.103 427.191 344.338 436.123 344.338H585.861C594.793 344.338 603.046 349.103 607.512 356.838L682.381 486.515C686.847 494.25 686.847 503.78 682.381 511.515L607.512 641.193C603.046 648.928 594.793 653.693 585.861 653.693H436.123C427.191 653.693 418.938 648.928 414.472 641.193L339.603 511.515Z" fill="#89C958" fill-opacity="0.78"/>
</g>
<defs>
<clipPath id="clip0_1599_706">
<rect width="1440" height="567" fill="white"/>
</clipPath>
</defs>
</svg>
