<svg width="1440" height="567" viewBox="0 0 1440 567" fill="none" xmlns="http://www.w3.org/2000/svg">
<g clip-path="url(#clip0_1599_816)">
<path d="M1656.78 191.106C1661.25 183.371 1661.25 173.841 1656.78 166.106L1581.91 36.4287C1577.45 28.6937 1569.2 23.9287 1560.26 23.9287H1410.52C1401.59 23.9287 1393.34 28.6937 1388.87 36.4287L1314 166.106C1309.54 173.841 1309.54 183.371 1314 191.106L1388.87 320.784C1393.34 328.519 1401.59 333.284 1410.52 333.284H1560.26C1569.2 333.284 1577.45 328.519 1581.91 320.784L1656.78 191.106Z" fill="#89C958" fill-opacity="0.78"/>
<path d="M1378.59 671.719C1383.06 663.984 1383.06 654.454 1378.59 646.719L1303.72 517.042C1299.26 509.307 1291 504.542 1282.07 504.542H1132.33C1123.4 504.542 1115.15 509.307 1110.68 517.042L1035.81 646.719C1031.35 654.454 1031.35 663.984 1035.81 671.719L1110.68 801.397C1115.15 809.132 1123.4 813.897 1132.33 813.897H1282.07C1291 813.897 1299.26 809.132 1303.72 801.397L1378.59 671.719Z" fill="#89C958" fill-opacity="0.78"/>
<path d="M1656.78 511.515C1661.25 503.78 1661.25 494.25 1656.78 486.515L1581.91 356.838C1577.45 349.103 1569.2 344.338 1560.26 344.338H1410.52C1401.59 344.338 1393.34 349.103 1388.87 356.838L1314 486.515C1309.54 494.25 1309.54 503.78 1314 511.515L1388.87 641.193C1393.34 648.928 1401.59 653.693 1410.52 653.693H1560.26C1569.2 653.693 1577.45 648.928 1581.91 641.193L1656.78 511.515Z" fill="#89C958" fill-opacity="0.78"/>
<path d="M822.203 671.719C826.669 663.984 826.669 654.454 822.203 646.719L747.334 517.042C742.868 509.307 734.615 504.542 725.683 504.542H575.944C567.013 504.542 558.759 509.307 554.294 517.042L479.424 646.719C474.958 654.454 474.958 663.984 479.424 671.719L554.294 801.397C558.759 809.132 567.013 813.897 575.944 813.897H725.683C734.615 813.897 742.868 809.132 747.334 801.397L822.203 671.719Z" fill="#89C958" fill-opacity="0.78"/>
<path d="M544.013 511.515C548.478 503.78 548.478 494.25 544.013 486.515L469.143 356.838C464.677 349.103 456.424 344.338 447.493 344.338H297.751C288.821 344.338 280.571 349.103 276.101 356.838L201.231 486.515C196.771 494.25 196.771 503.78 201.231 511.515L276.101 641.193C280.571 648.928 288.821 653.693 297.751 653.693H447.493C456.424 653.693 464.677 648.928 469.143 641.193L544.013 511.515Z" fill="#89C958" fill-opacity="0.78"/>
<path d="M265.819 671.719C270.289 663.984 270.289 654.454 265.819 646.719L190.949 517.042C186.479 509.307 178.229 504.542 169.299 504.542H19.5595C10.6295 504.542 2.37945 509.307 -2.09055 517.042L-76.9605 646.719C-81.4305 654.454 -81.4305 663.984 -76.9605 671.719L-2.09055 801.397C2.37945 809.132 10.6295 813.897 19.5595 813.897H169.299C178.229 813.897 186.479 809.132 190.949 801.397L265.819 671.719Z" fill="#89C958" fill-opacity="0.78"/>
<path d="M1378.59 351.311C1383.06 343.576 1383.06 334.046 1378.59 326.311L1303.72 196.633C1299.26 188.898 1291 184.133 1282.07 184.133H1132.33C1123.4 184.133 1115.15 188.898 1110.68 196.633L1035.81 326.311C1031.35 334.046 1031.35 343.576 1035.81 351.311L1110.68 480.988C1115.15 488.723 1123.4 493.488 1132.33 493.488H1282.07C1291 493.488 1299.26 488.723 1303.72 480.988L1378.59 351.311Z" fill="#89C958" fill-opacity="0.78"/>
<path d="M1087.61 339.17C1086 339.17 1084.61 338.966 1083.43 338.558C1082.27 338.127 1081.38 337.447 1080.74 336.518C1080.11 335.566 1079.75 334.297 1079.66 332.71L1079.04 319.008H1083.84L1084.42 331.044C1084.46 331.973 1084.61 332.687 1084.86 333.186C1085.13 333.662 1085.52 333.991 1086.01 334.172C1086.51 334.331 1087.16 334.41 1087.95 334.41C1088.81 334.41 1089.43 334.637 1089.79 335.09C1090.15 335.521 1090.33 336.065 1090.33 336.722C1090.33 337.425 1090.09 338.014 1089.62 338.49C1089.17 338.943 1088.5 339.17 1087.61 339.17ZM1081.39 336.008C1079.87 336.348 1078.41 336.507 1077 336.484C1075.6 336.439 1074.34 336.189 1073.23 335.736C1072.12 335.26 1071.24 334.58 1070.58 333.696C1069.94 332.812 1069.63 331.69 1069.63 330.33C1069.63 329.129 1069.89 328.041 1070.41 327.066C1070.95 326.069 1071.7 325.196 1072.65 324.448C1073.63 323.7 1074.76 323.065 1076.05 322.544C1077.34 322.023 1078.75 321.626 1080.27 321.354L1080.74 326.182C1079.77 326.227 1078.89 326.363 1078.09 326.59C1077.32 326.794 1076.65 327.066 1076.09 327.406C1075.54 327.746 1075.12 328.131 1074.83 328.562C1074.53 328.97 1074.39 329.412 1074.39 329.888C1074.39 330.273 1074.52 330.591 1074.79 330.84C1075.07 331.089 1075.43 331.293 1075.88 331.452C1076.34 331.588 1076.86 331.667 1077.45 331.69C1078.04 331.713 1078.64 331.679 1079.25 331.588C1079.88 331.497 1080.51 331.35 1081.12 331.146L1081.39 336.008ZM1087.6 339.17L1087.94 334.41C1088.98 334.41 1089.73 334.308 1090.19 334.104C1090.64 333.877 1090.91 333.469 1091 332.88C1091.09 332.268 1091.11 331.384 1091.07 330.228L1090.46 314.112H1095.25L1095.93 330.568C1095.98 331.883 1095.92 333.073 1095.76 334.138C1095.63 335.181 1095.27 336.076 1094.71 336.824C1094.16 337.572 1093.31 338.15 1092.16 338.558C1091.02 338.966 1089.51 339.17 1087.6 339.17ZM1099.63 346.82L1098.65 342.06C1100.26 341.856 1101.66 341.607 1102.86 341.312C1104.06 341.04 1105.07 340.655 1105.89 340.156C1106.71 339.657 1107.32 338.977 1107.73 338.116C1108.13 337.232 1108.34 336.099 1108.34 334.716C1108.34 333.379 1108.13 332.313 1107.73 331.52C1107.32 330.727 1106.77 330.33 1106.09 330.33C1105.62 330.33 1105.22 330.5 1104.9 330.84C1104.59 331.157 1104.35 331.543 1104.19 331.996C1104.05 332.427 1103.99 332.812 1103.99 333.152C1103.99 333.356 1104.04 333.571 1104.16 333.798C1104.27 334.025 1104.52 334.217 1104.9 334.376C1105.29 334.535 1105.89 334.625 1106.71 334.648C1107.54 334.671 1108.68 334.591 1110.11 334.41H1115.82C1116.68 334.41 1117.29 334.637 1117.65 335.09C1118.04 335.521 1118.23 336.065 1118.23 336.722C1118.23 337.425 1117.99 338.014 1117.52 338.49C1117.04 338.943 1116.36 339.17 1115.48 339.17H1106.13C1104.7 339.17 1103.48 339 1102.46 338.66C1101.44 338.32 1100.65 337.776 1100.11 337.028C1099.57 336.257 1099.29 335.237 1099.29 333.968C1099.29 332.948 1099.46 331.928 1099.8 330.908C1100.17 329.888 1100.66 328.959 1101.3 328.12C1101.93 327.259 1102.67 326.579 1103.51 326.08C1104.37 325.559 1105.3 325.298 1106.3 325.298C1107.66 325.298 1108.85 325.717 1109.87 326.556C1110.89 327.395 1111.68 328.505 1112.25 329.888C1112.84 331.271 1113.13 332.778 1113.13 334.41C1113.13 336.971 1112.59 339.147 1111.5 340.938C1110.41 342.729 1108.86 344.111 1106.84 345.086C1104.82 346.083 1102.42 346.661 1099.63 346.82ZM1115.53 339.17L1115.87 334.41C1116.91 334.41 1117.66 334.308 1118.11 334.104C1118.56 333.877 1118.83 333.469 1118.93 332.88C1119.02 332.268 1119.04 331.384 1118.99 330.228L1118.38 314.112H1123.18L1123.86 330.568C1123.9 331.883 1123.84 333.073 1123.69 334.138C1123.55 335.181 1123.2 336.076 1122.63 336.824C1122.09 337.572 1121.24 338.15 1120.08 338.558C1118.95 338.966 1117.43 339.17 1115.53 339.17ZM1147.24 339.442C1146.07 339.442 1144.91 339.419 1143.78 339.374C1142.64 339.351 1141.54 339.317 1140.48 339.272C1139.41 339.227 1138.4 339.159 1137.45 339.068C1136.5 338.977 1135.6 338.887 1134.77 338.796L1135.31 334.104C1136.44 334.217 1137.5 334.319 1138.47 334.41C1139.47 334.478 1140.42 334.535 1141.33 334.58C1142.23 334.625 1143.14 334.659 1144.05 334.682C1144.95 334.682 1145.88 334.682 1146.84 334.682C1148.69 334.682 1150.26 334.603 1151.53 334.444C1152.8 334.285 1153.81 334.059 1154.55 333.764C1155.32 333.469 1155.87 333.118 1156.19 332.71C1156.53 332.302 1156.7 331.86 1156.7 331.384C1156.7 330.953 1156.58 330.545 1156.36 330.16C1156.15 329.775 1155.83 329.457 1155.4 329.208C1155 328.959 1154.47 328.834 1153.84 328.834C1152.98 328.834 1152.13 329.038 1151.29 329.446C1150.45 329.854 1149.64 330.398 1148.84 331.078C1148.07 331.735 1147.35 332.461 1146.67 333.254C1145.99 334.025 1145.37 334.773 1144.83 335.498L1139.63 334.92C1140.56 333.469 1141.57 332.098 1142.65 330.806C1143.76 329.491 1144.94 328.335 1146.19 327.338C1147.46 326.318 1148.77 325.525 1150.13 324.958C1151.49 324.369 1152.88 324.074 1154.28 324.074C1155.73 324.074 1156.99 324.369 1158.06 324.958C1159.12 325.547 1159.95 326.363 1160.54 327.406C1161.15 328.449 1161.46 329.65 1161.46 331.01C1161.46 332.642 1160.99 334.093 1160.06 335.362C1159.13 336.631 1157.63 337.629 1155.54 338.354C1153.48 339.079 1150.71 339.442 1147.24 339.442ZM1141.33 335.634L1140.61 314.112H1145.37L1145.99 330.364L1141.33 335.634ZM1164.71 346.82L1163.73 342.06C1165.33 341.856 1166.74 341.607 1167.94 341.312C1169.14 341.04 1170.15 340.655 1170.97 340.156C1171.78 339.657 1172.4 338.977 1172.8 338.116C1173.21 337.232 1173.42 336.099 1173.42 334.716C1173.42 333.379 1173.21 332.313 1172.8 331.52C1172.4 330.727 1171.85 330.33 1171.17 330.33C1170.7 330.33 1170.3 330.5 1169.98 330.84C1169.66 331.157 1169.43 331.543 1169.27 331.996C1169.13 332.427 1169.06 332.812 1169.06 333.152C1169.06 333.356 1169.12 333.571 1169.23 333.798C1169.35 334.025 1169.6 334.217 1169.98 334.376C1170.37 334.535 1170.97 334.625 1171.78 334.648C1172.62 334.671 1173.76 334.591 1175.18 334.41H1180.9C1181.76 334.41 1182.37 334.637 1182.73 335.09C1183.12 335.521 1183.31 336.065 1183.31 336.722C1183.31 337.425 1183.07 338.014 1182.6 338.49C1182.12 338.943 1181.44 339.17 1180.56 339.17H1171.21C1169.78 339.17 1168.55 339 1167.53 338.66C1166.51 338.32 1165.73 337.776 1165.19 337.028C1164.64 336.257 1164.37 335.237 1164.37 333.968C1164.37 332.948 1164.54 331.928 1164.88 330.908C1165.24 329.888 1165.74 328.959 1166.38 328.12C1167.01 327.259 1167.75 326.579 1168.59 326.08C1169.45 325.559 1170.38 325.298 1171.38 325.298C1172.74 325.298 1173.93 325.717 1174.95 326.556C1175.97 327.395 1176.76 328.505 1177.33 329.888C1177.91 331.271 1178.21 332.778 1178.21 334.41C1178.21 336.971 1177.67 339.147 1176.58 340.938C1175.49 342.729 1173.94 344.111 1171.92 345.086C1169.9 346.083 1167.5 346.661 1164.71 346.82ZM1206.48 339.17C1205.32 339.17 1204.21 339.068 1203.15 338.864C1202.08 338.637 1201.12 338.343 1200.26 337.98C1199.42 337.617 1198.73 337.209 1198.18 336.756L1201.24 333.458C1202.06 333.798 1202.9 334.047 1203.76 334.206C1204.62 334.342 1205.64 334.41 1206.82 334.41C1207.68 334.41 1208.29 334.637 1208.65 335.09C1209.04 335.521 1209.23 336.065 1209.23 336.722C1209.23 337.425 1208.99 338.014 1208.52 338.49C1208.04 338.943 1207.36 339.17 1206.48 339.17ZM1180.6 339.17L1180.94 334.41H1188.56C1190.69 334.41 1192.46 334.331 1193.86 334.172C1195.29 334.013 1196.42 333.787 1197.26 333.492C1198.1 333.175 1198.69 332.812 1199.03 332.404C1199.39 331.996 1199.58 331.554 1199.58 331.078C1199.58 330.647 1199.47 330.239 1199.27 329.854C1199.07 329.446 1198.76 329.117 1198.35 328.868C1197.94 328.619 1197.41 328.494 1196.75 328.494C1195.91 328.494 1195.08 328.698 1194.24 329.106C1193.4 329.491 1192.58 330.024 1191.79 330.704C1191 331.361 1190.24 332.098 1189.51 332.914C1188.81 333.73 1188.16 334.557 1187.57 335.396L1182.44 334.682C1183.39 333.209 1184.42 331.815 1185.53 330.5C1186.67 329.163 1187.86 327.995 1189.1 326.998C1190.37 325.978 1191.68 325.185 1193.01 324.618C1194.37 324.029 1195.76 323.734 1197.16 323.734C1198.66 323.734 1199.94 324.04 1201 324.652C1202.07 325.264 1202.88 326.103 1203.45 327.168C1204.04 328.233 1204.34 329.469 1204.34 330.874C1204.34 332.347 1203.92 333.673 1203.08 334.852C1202.26 336.031 1200.87 337.005 1198.9 337.776C1198.06 338.093 1197.15 338.354 1196.18 338.558C1195.2 338.762 1194.06 338.909 1192.74 339C1191.43 339.113 1189.85 339.17 1188.02 339.17H1180.6ZM1184.14 335.702L1183.43 314.112H1188.19L1188.8 330.432L1184.14 335.702ZM1206.5 339.17L1206.84 334.41C1208.07 334.41 1209.28 334.342 1210.48 334.206C1211.68 334.07 1212.85 333.866 1213.98 333.594C1215.12 333.322 1216.19 332.971 1217.21 332.54C1218.25 332.109 1219.23 331.588 1220.14 330.976C1219.46 330.568 1218.72 330.217 1217.93 329.922C1217.13 329.627 1216.28 329.412 1215.38 329.276C1214.49 329.117 1213.55 329.038 1212.55 329.038C1212.19 329.038 1211.81 329.049 1211.4 329.072C1211.01 329.095 1210.62 329.14 1210.21 329.208C1209.8 329.253 1209.39 329.321 1208.98 329.412L1208.3 324.754C1208.96 324.573 1209.65 324.448 1210.38 324.38C1211.13 324.289 1211.78 324.244 1212.35 324.244C1213.57 324.244 1214.7 324.38 1215.72 324.652C1216.76 324.924 1217.71 325.264 1218.57 325.672C1219.46 326.08 1220.27 326.488 1221.02 326.896C1221.79 327.304 1222.52 327.644 1223.2 327.916C1223.9 328.188 1224.58 328.324 1225.24 328.324H1226.49L1227.04 332.846C1226.06 332.891 1225.15 333.084 1224.28 333.424C1223.45 333.741 1222.61 334.149 1221.77 334.648C1220.95 335.124 1220.07 335.623 1219.12 336.144C1218.19 336.665 1217.13 337.153 1215.95 337.606C1214.78 338.059 1213.42 338.433 1211.87 338.728C1210.33 339.023 1208.54 339.17 1206.5 339.17ZM1212.38 321.082C1211.68 321.082 1211.08 320.844 1210.58 320.368C1210.11 319.892 1209.87 319.303 1209.87 318.6C1209.87 317.897 1210.11 317.297 1210.58 316.798C1211.08 316.299 1211.68 316.05 1212.38 316.05C1213.06 316.05 1213.64 316.299 1214.12 316.798C1214.62 317.297 1214.87 317.897 1214.87 318.6C1214.87 319.303 1214.62 319.892 1214.12 320.368C1213.64 320.844 1213.06 321.082 1212.38 321.082ZM1237.24 338.048C1237.24 337.527 1237.28 336.915 1237.37 336.212C1237.46 335.509 1237.63 334.716 1237.88 333.832C1238.13 332.925 1238.5 331.917 1239 330.806L1243.19 332.268C1242.94 332.971 1242.72 333.617 1242.54 334.206C1242.36 334.773 1242.22 335.305 1242.13 335.804C1242.04 336.28 1242 336.756 1242 337.232C1242 337.98 1242.15 338.649 1242.47 339.238C1242.81 339.85 1243.3 340.36 1243.93 340.768C1244.57 341.199 1245.34 341.527 1246.25 341.754C1247.17 341.981 1248.24 342.094 1249.44 342.094C1250.69 342.094 1251.8 342.037 1252.77 341.924C1253.77 341.811 1254.61 341.641 1255.29 341.414C1255.99 341.187 1256.52 340.893 1256.89 340.53C1257.25 340.19 1257.43 339.793 1257.43 339.34C1257.43 339.136 1257.35 338.943 1257.19 338.762C1257.06 338.581 1256.82 338.388 1256.48 338.184C1256.16 337.98 1255.73 337.765 1255.19 337.538C1254.67 337.311 1254.03 337.062 1253.28 336.79L1254.41 331.996C1255.38 332.404 1256.3 332.767 1257.16 333.084C1258.04 333.379 1258.88 333.628 1259.68 333.832C1260.47 334.013 1261.22 334.161 1261.92 334.274C1262.62 334.365 1263.28 334.41 1263.89 334.41C1264.75 334.41 1265.36 334.637 1265.73 335.09C1266.09 335.521 1266.27 336.065 1266.27 336.722C1266.27 337.425 1266.03 338.014 1265.56 338.49C1265.08 338.943 1264.41 339.17 1263.55 339.17C1263.37 339.17 1263.19 339.17 1263.01 339.17C1262.85 339.17 1262.68 339.17 1262.5 339.17C1262.34 339.17 1262.17 339.17 1261.99 339.17C1262.03 339.397 1262.06 339.589 1262.06 339.748C1262.06 339.929 1262.06 340.099 1262.06 340.258C1262.06 341.006 1261.79 341.765 1261.27 342.536C1260.77 343.307 1259.99 344.021 1258.93 344.678C1257.86 345.335 1256.5 345.857 1254.85 346.242C1253.22 346.65 1251.27 346.854 1249 346.854C1246.55 346.854 1244.44 346.537 1242.68 345.902C1240.93 345.29 1239.58 344.327 1238.63 343.012C1237.7 341.72 1237.24 340.065 1237.24 338.048ZM1263.54 339.17L1263.88 334.41C1264.63 334.41 1265.24 334.353 1265.72 334.24C1266.2 334.104 1266.58 333.821 1266.88 333.39C1267.19 332.937 1267.47 332.268 1267.69 331.384C1267.94 330.477 1268.21 329.253 1268.51 327.712L1272.93 328.528C1272.86 328.868 1272.78 329.265 1272.69 329.718C1272.6 330.171 1272.52 330.636 1272.45 331.112C1272.38 331.565 1272.35 331.973 1272.35 332.336C1272.35 332.971 1272.55 333.481 1272.96 333.866C1273.37 334.229 1274.14 334.41 1275.27 334.41C1275.84 334.41 1276.33 334.353 1276.74 334.24C1277.17 334.104 1277.53 333.821 1277.82 333.39C1278.14 332.937 1278.41 332.245 1278.64 331.316C1278.89 330.364 1279.13 329.083 1279.35 327.474L1283.84 328.188C1283.75 328.709 1283.66 329.265 1283.57 329.854C1283.48 330.443 1283.4 330.987 1283.33 331.486C1283.26 331.985 1283.23 332.393 1283.23 332.71C1283.23 333.005 1283.31 333.288 1283.47 333.56C1283.65 333.809 1283.97 334.013 1284.42 334.172C1284.9 334.331 1285.57 334.41 1286.43 334.41C1287.04 334.41 1287.56 334.331 1287.99 334.172C1288.44 334.013 1288.78 333.753 1289.01 333.39C1289.26 333.027 1289.38 332.551 1289.38 331.962C1289.38 331.123 1289.19 330.024 1288.81 328.664C1288.42 327.304 1287.97 325.876 1287.45 324.38L1292.24 322.952C1292.6 323.927 1292.92 324.969 1293.19 326.08C1293.49 327.168 1293.71 328.233 1293.87 329.276C1294.05 330.296 1294.14 331.191 1294.14 331.962C1294.14 333.118 1293.96 334.149 1293.6 335.056C1293.24 335.94 1292.73 336.688 1292.07 337.3C1291.41 337.912 1290.63 338.377 1289.72 338.694C1288.82 339.011 1287.82 339.17 1286.73 339.17C1285.42 339.17 1284.34 339.045 1283.5 338.796C1282.66 338.524 1282.02 338.082 1281.56 337.47C1281.13 336.835 1280.85 335.974 1280.71 334.886H1281.87C1281.39 336.223 1280.86 337.198 1280.27 337.81C1279.68 338.399 1278.98 338.773 1278.16 338.932C1277.37 339.091 1276.37 339.17 1275.17 339.17C1274.42 339.17 1273.65 339.091 1272.86 338.932C1272.09 338.751 1271.4 338.343 1270.79 337.708C1270.17 337.073 1269.72 336.087 1269.43 334.75L1271.26 334.682C1270.79 336.019 1270.16 337.005 1269.39 337.64C1268.64 338.275 1267.78 338.694 1266.81 338.898C1265.83 339.079 1264.75 339.17 1263.54 339.17ZM1296.4 346.82L1294.66 342.468C1296.61 341.788 1298.19 341.04 1299.39 340.224C1300.61 339.408 1301.51 338.535 1302.07 337.606C1302.66 336.677 1302.96 335.713 1302.96 334.716C1302.96 334.081 1302.87 333.424 1302.69 332.744C1302.5 332.041 1302.24 331.305 1301.9 330.534C1301.59 329.763 1301.2 328.959 1300.75 328.12L1305.2 325.978C1305.99 327.497 1306.61 328.947 1307.04 330.33C1307.49 331.713 1307.72 333.005 1307.72 334.206C1307.72 335.317 1307.57 336.382 1307.28 337.402C1307 338.422 1306.57 339.374 1305.98 340.258C1305.42 341.165 1304.68 342.015 1303.77 342.808C1302.87 343.601 1301.8 344.327 1300.58 344.984C1299.35 345.664 1297.96 346.276 1296.4 346.82ZM1310.31 346.82L1308.57 342.468C1310.52 341.788 1312.1 341.04 1313.3 340.224C1314.52 339.408 1315.42 338.535 1315.99 337.606C1316.58 336.677 1316.87 335.713 1316.87 334.716C1316.87 334.081 1316.78 333.424 1316.6 332.744C1316.42 332.041 1316.16 331.305 1315.82 330.534C1315.5 329.763 1315.11 328.959 1314.66 328.12L1319.11 325.978C1319.91 327.497 1320.52 328.947 1320.95 330.33C1321.4 331.713 1321.63 333.005 1321.63 334.206C1321.63 335.317 1321.48 336.382 1321.19 337.402C1320.92 338.422 1320.49 339.374 1319.9 340.258C1319.33 341.165 1318.59 342.015 1317.69 342.808C1316.78 343.601 1315.71 344.327 1314.49 344.984C1313.27 345.664 1311.87 346.276 1310.31 346.82ZM1317.82 322.51C1317.12 322.51 1316.52 322.272 1316.02 321.796C1315.54 321.32 1315.31 320.731 1315.31 320.028C1315.31 319.325 1315.54 318.725 1316.02 318.226C1316.52 317.727 1317.12 317.478 1317.82 317.478C1318.5 317.478 1319.08 317.727 1319.56 318.226C1320.05 318.725 1320.3 319.325 1320.3 320.028C1320.3 320.731 1320.05 321.32 1319.56 321.796C1319.08 322.272 1318.5 322.51 1317.82 322.51ZM1334.45 339.17C1332.35 339.17 1330.71 338.955 1329.56 338.524C1328.42 338.093 1327.63 337.425 1327.18 336.518C1326.72 335.589 1326.46 334.421 1326.4 333.016L1325.68 314.112H1330.44L1331.16 330.738C1331.2 331.781 1331.31 332.563 1331.5 333.084C1331.68 333.605 1332.02 333.957 1332.52 334.138C1333.04 334.319 1333.8 334.41 1334.79 334.41C1335.66 334.41 1336.27 334.637 1336.63 335.09C1337.02 335.521 1337.21 336.065 1337.21 336.722C1337.21 337.425 1336.97 338.014 1336.49 338.49C1336.02 338.943 1335.34 339.17 1334.45 339.17ZM1334.5 339.17L1334.84 334.41C1335.84 334.41 1336.62 334.342 1337.19 334.206C1337.78 334.07 1338.19 333.821 1338.44 333.458C1338.69 333.073 1338.82 332.529 1338.82 331.826C1338.82 331.191 1338.73 330.432 1338.55 329.548C1338.39 328.664 1338.17 327.746 1337.9 326.794C1337.63 325.842 1337.36 324.969 1337.08 324.176L1341.78 322.884C1342.05 323.655 1342.32 324.55 1342.59 325.57C1342.86 326.59 1343.09 327.644 1343.27 328.732C1343.48 329.797 1343.58 330.829 1343.58 331.826C1343.58 333.073 1343.42 334.127 1343.1 334.988C1342.78 335.827 1342.34 336.529 1341.78 337.096C1341.23 337.64 1340.57 338.071 1339.8 338.388C1339.06 338.683 1338.23 338.887 1337.32 339C1336.42 339.113 1335.47 339.17 1334.5 339.17ZM1338.68 346.99C1338.02 346.99 1337.46 346.763 1336.98 346.31C1336.53 345.857 1336.3 345.301 1336.3 344.644C1336.3 343.987 1336.53 343.409 1336.98 342.91C1337.46 342.434 1338.02 342.196 1338.68 342.196C1339.34 342.196 1339.89 342.434 1340.35 342.91C1340.82 343.409 1341.06 343.987 1341.06 344.644C1341.06 345.301 1340.82 345.857 1340.35 346.31C1339.89 346.763 1339.34 346.99 1338.68 346.99ZM1135.97 389.048C1135.97 388.527 1136.01 387.915 1136.1 387.212C1136.19 386.509 1136.36 385.716 1136.61 384.832C1136.86 383.925 1137.24 382.917 1137.73 381.806L1141.92 383.268C1141.67 383.971 1141.45 384.617 1141.27 385.206C1141.09 385.773 1140.95 386.305 1140.86 386.804C1140.77 387.28 1140.73 387.756 1140.73 388.232C1140.73 388.98 1140.88 389.649 1141.2 390.238C1141.54 390.85 1142.03 391.36 1142.66 391.768C1143.3 392.199 1144.07 392.527 1144.98 392.754C1145.91 392.981 1146.97 393.094 1148.17 393.094C1149.42 393.094 1150.53 393.037 1151.5 392.924C1152.5 392.811 1153.34 392.641 1154.02 392.414C1154.72 392.187 1155.26 391.893 1155.62 391.53C1155.98 391.19 1156.16 390.793 1156.16 390.34C1156.16 390.136 1156.08 389.943 1155.92 389.762C1155.79 389.581 1155.55 389.388 1155.21 389.184C1154.89 388.98 1154.46 388.765 1153.92 388.538C1153.4 388.311 1152.76 388.062 1152.01 387.79L1153.14 382.996C1154.11 383.404 1155.03 383.767 1155.89 384.084C1156.77 384.379 1157.61 384.628 1158.41 384.832C1159.2 385.013 1159.95 385.161 1160.65 385.274C1161.35 385.365 1162.01 385.41 1162.62 385.41C1163.48 385.41 1164.1 385.637 1164.46 386.09C1164.82 386.521 1165 387.065 1165 387.722C1165 388.425 1164.76 389.014 1164.29 389.49C1163.81 389.943 1163.14 390.17 1162.28 390.17C1162.1 390.17 1161.92 390.17 1161.74 390.17C1161.58 390.17 1161.41 390.17 1161.23 390.17C1161.07 390.17 1160.9 390.17 1160.72 390.17C1160.76 390.397 1160.79 390.589 1160.79 390.748C1160.79 390.929 1160.79 391.099 1160.79 391.258C1160.79 392.006 1160.53 392.765 1160 393.536C1159.51 394.307 1158.72 395.021 1157.66 395.678C1156.59 396.335 1155.23 396.857 1153.58 397.242C1151.95 397.65 1150 397.854 1147.73 397.854C1145.28 397.854 1143.17 397.537 1141.41 396.902C1139.66 396.29 1138.31 395.327 1137.36 394.012C1136.43 392.72 1135.97 391.065 1135.97 389.048ZM1162.28 390.17L1162.62 385.41C1163.98 385.41 1165.02 385.342 1165.74 385.206C1166.47 385.07 1166.97 384.821 1167.24 384.458C1167.53 384.073 1167.68 383.529 1167.68 382.826C1167.68 382.191 1167.59 381.432 1167.41 380.548C1167.25 379.664 1167.04 378.746 1166.76 377.794C1166.51 376.842 1166.24 375.969 1165.95 375.176L1170.64 373.884C1170.93 374.655 1171.22 375.55 1171.49 376.57C1171.76 377.59 1171.99 378.644 1172.17 379.732C1172.35 380.797 1172.44 381.829 1172.44 382.826C1172.44 384.367 1172.19 385.625 1171.69 386.6C1171.19 387.552 1170.49 388.289 1169.59 388.81C1168.7 389.331 1167.64 389.694 1166.39 389.898C1165.14 390.079 1163.77 390.17 1162.28 390.17ZM1170.67 398.058C1170.02 398.058 1169.45 397.82 1168.97 397.344C1168.52 396.891 1168.29 396.347 1168.29 395.712C1168.29 395.055 1168.52 394.488 1168.97 394.012C1169.45 393.536 1170.02 393.298 1170.67 393.298C1171.31 393.298 1171.85 393.536 1172.31 394.012C1172.76 394.488 1172.99 395.055 1172.99 395.712C1172.99 396.347 1172.76 396.891 1172.31 397.344C1171.85 397.82 1171.31 398.058 1170.67 398.058ZM1164.79 398.058C1164.13 398.058 1163.57 397.82 1163.09 397.344C1162.64 396.891 1162.41 396.347 1162.41 395.712C1162.41 395.055 1162.64 394.488 1163.09 394.012C1163.57 393.536 1164.13 393.298 1164.79 393.298C1165.43 393.298 1165.97 393.536 1166.42 394.012C1166.88 394.488 1167.1 395.055 1167.1 395.712C1167.1 396.347 1166.88 396.891 1166.42 397.344C1165.97 397.82 1165.43 398.058 1164.79 398.058ZM1185.27 390.17C1183.16 390.17 1181.53 389.955 1180.38 389.524C1179.24 389.093 1178.45 388.425 1178 387.518C1177.54 386.589 1177.28 385.421 1177.21 384.016L1176.5 365.112H1181.26L1181.97 381.738C1182.02 382.781 1182.13 383.563 1182.31 384.084C1182.5 384.605 1182.84 384.957 1183.33 385.138C1183.86 385.319 1184.61 385.41 1185.61 385.41C1186.47 385.41 1187.09 385.637 1187.45 386.09C1187.83 386.521 1188.03 387.065 1188.03 387.722C1188.03 388.425 1187.79 389.014 1187.31 389.49C1186.84 389.943 1186.16 390.17 1185.27 390.17ZM1185.32 390.17L1185.66 385.41C1187.02 385.41 1188.06 385.342 1188.79 385.206C1189.51 385.07 1190.01 384.821 1190.28 384.458C1190.58 384.073 1190.72 383.529 1190.72 382.826C1190.72 382.191 1190.63 381.432 1190.45 380.548C1190.29 379.664 1190.08 378.746 1189.81 377.794C1189.56 376.842 1189.29 375.969 1188.99 375.176L1193.68 373.884C1193.98 374.655 1194.26 375.55 1194.53 376.57C1194.8 377.59 1195.03 378.644 1195.21 379.732C1195.39 380.797 1195.48 381.829 1195.48 382.826C1195.48 384.367 1195.24 385.625 1194.74 386.6C1194.24 387.552 1193.54 388.289 1192.63 388.81C1191.74 389.331 1190.68 389.694 1189.43 389.898C1188.19 390.079 1186.81 390.17 1185.32 390.17ZM1193.72 398.058C1193.06 398.058 1192.49 397.82 1192.02 397.344C1191.56 396.891 1191.34 396.347 1191.34 395.712C1191.34 395.055 1191.56 394.488 1192.02 394.012C1192.49 393.536 1193.06 393.298 1193.72 393.298C1194.35 393.298 1194.9 393.536 1195.35 394.012C1195.8 394.488 1196.03 395.055 1196.03 395.712C1196.03 396.347 1195.8 396.891 1195.35 397.344C1194.9 397.82 1194.35 398.058 1193.72 398.058ZM1187.83 398.058C1187.18 398.058 1186.61 397.82 1186.13 397.344C1185.68 396.891 1185.45 396.347 1185.45 395.712C1185.45 395.055 1185.68 394.488 1186.13 394.012C1186.61 393.536 1187.18 393.298 1187.83 393.298C1188.47 393.298 1189.01 393.536 1189.47 394.012C1189.92 394.488 1190.15 395.055 1190.15 395.712C1190.15 396.347 1189.92 396.891 1189.47 397.344C1189.01 397.82 1188.47 398.058 1187.83 398.058ZM1198.08 397.82L1196.35 393.468C1198.3 392.788 1199.87 392.04 1201.07 391.224C1202.3 390.408 1203.19 389.535 1203.76 388.606C1204.35 387.677 1204.64 386.713 1204.64 385.716C1204.64 385.081 1204.55 384.424 1204.37 383.744C1204.19 383.041 1203.93 382.305 1203.59 381.534C1203.27 380.763 1202.89 379.959 1202.43 379.12L1206.89 376.978C1207.68 378.497 1208.29 379.947 1208.72 381.33C1209.18 382.713 1209.4 384.005 1209.4 385.206C1209.4 386.317 1209.26 387.382 1208.96 388.402C1208.69 389.422 1208.26 390.374 1207.67 391.258C1207.1 392.165 1206.37 393.015 1205.46 393.808C1204.55 394.601 1203.49 395.327 1202.26 395.984C1201.04 396.664 1199.65 397.276 1198.08 397.82ZM1212.64 388.64L1214.31 384.322C1215.14 384.685 1215.95 384.957 1216.72 385.138C1217.49 385.319 1218.26 385.41 1219.03 385.41C1219.82 385.41 1220.48 385.342 1221 385.206C1221.55 385.047 1221.96 384.821 1222.23 384.526C1222.5 384.231 1222.64 383.88 1222.64 383.472C1222.64 383.087 1222.51 382.554 1222.26 381.874C1222.03 381.194 1221.62 380.31 1221 379.222C1220.39 378.111 1219.5 376.74 1218.32 375.108L1222.36 372.422C1223.45 373.963 1224.39 375.471 1225.19 376.944C1225.98 378.395 1226.59 379.755 1227.02 381.024C1227.47 382.271 1227.7 383.37 1227.7 384.322C1227.7 385.501 1227.38 386.532 1226.75 387.416C1226.14 388.277 1225.22 388.957 1224 389.456C1222.79 389.955 1221.31 390.204 1219.54 390.204C1218.88 390.204 1218.15 390.147 1217.33 390.034C1216.52 389.921 1215.69 389.751 1214.85 389.524C1214.03 389.297 1213.3 389.003 1212.64 388.64ZM1238.02 397.854L1236.29 393.638C1237.49 393.23 1238.59 392.754 1239.59 392.21C1240.61 391.666 1241.49 391.065 1242.24 390.408C1242.99 389.751 1243.57 389.037 1243.97 388.266C1244.38 387.473 1244.59 386.623 1244.59 385.716C1244.59 384.764 1244.37 383.721 1243.94 382.588C1243.51 381.455 1242.99 380.299 1242.38 379.12L1246.83 376.978C1247.24 377.681 1247.59 378.44 1247.88 379.256C1248.2 380.049 1248.46 380.763 1248.67 381.398C1248.87 382.033 1249.01 382.463 1249.07 382.69C1249.39 383.778 1249.82 384.503 1250.37 384.866C1250.93 385.229 1251.84 385.41 1253.09 385.41C1253.95 385.41 1254.56 385.637 1254.92 386.09C1255.31 386.521 1255.5 387.065 1255.5 387.722C1255.5 388.425 1255.26 389.014 1254.79 389.49C1254.31 389.943 1253.63 390.17 1252.75 390.17C1251.82 390.17 1251 390.034 1250.3 389.762C1249.6 389.49 1249.03 389.093 1248.6 388.572C1248.19 388.051 1247.93 387.439 1247.82 386.736L1249.07 387.45C1248.94 388.651 1248.54 389.785 1247.88 390.85C1247.25 391.938 1246.42 392.935 1245.4 393.842C1244.38 394.749 1243.24 395.542 1241.97 396.222C1240.7 396.902 1239.38 397.446 1238.02 397.854ZM1252.79 390.17L1253.13 385.41C1254.49 385.41 1255.53 385.342 1256.26 385.206C1256.98 385.07 1257.48 384.821 1257.75 384.458C1258.05 384.073 1258.19 383.529 1258.19 382.826C1258.19 382.191 1258.1 381.432 1257.92 380.548C1257.76 379.664 1257.55 378.746 1257.28 377.794C1257.03 376.842 1256.75 375.969 1256.46 375.176L1261.15 373.884C1261.45 374.655 1261.73 375.55 1262 376.57C1262.27 377.59 1262.5 378.644 1262.68 379.732C1262.86 380.797 1262.95 381.829 1262.95 382.826C1262.95 384.367 1262.7 385.625 1262.21 386.6C1261.71 387.552 1261 388.289 1260.1 388.81C1259.21 389.331 1258.15 389.694 1256.9 389.898C1255.65 390.079 1254.28 390.17 1252.79 390.17ZM1261.19 398.058C1260.53 398.058 1259.96 397.82 1259.49 397.344C1259.03 396.891 1258.81 396.347 1258.81 395.712C1258.81 395.055 1259.03 394.488 1259.49 394.012C1259.96 393.536 1260.53 393.298 1261.19 393.298C1261.82 393.298 1262.36 393.536 1262.82 394.012C1263.27 394.488 1263.5 395.055 1263.5 395.712C1263.5 396.347 1263.27 396.891 1262.82 397.344C1262.36 397.82 1261.82 398.058 1261.19 398.058ZM1255.3 398.058C1254.65 398.058 1254.08 397.82 1253.6 397.344C1253.15 396.891 1252.92 396.347 1252.92 395.712C1252.92 395.055 1253.15 394.488 1253.6 394.012C1254.08 393.536 1254.65 393.298 1255.3 393.298C1255.94 393.298 1256.48 393.536 1256.94 394.012C1257.39 394.488 1257.62 395.055 1257.62 395.712C1257.62 396.347 1257.39 396.891 1256.94 397.344C1256.48 397.82 1255.94 398.058 1255.3 398.058ZM1265.55 397.82L1263.82 393.468C1265.77 392.788 1267.34 392.04 1268.54 391.224C1269.77 390.408 1270.66 389.535 1271.23 388.606C1271.82 387.677 1272.11 386.713 1272.11 385.716C1272.11 385.081 1272.02 384.424 1271.84 383.744C1271.66 383.041 1271.4 382.305 1271.06 381.534C1270.74 380.763 1270.36 379.959 1269.9 379.12L1274.36 376.978C1275.15 378.497 1275.76 379.947 1276.19 381.33C1276.65 382.713 1276.87 384.005 1276.87 385.206C1276.87 386.317 1276.72 387.382 1276.43 388.402C1276.16 389.422 1275.73 390.374 1275.14 391.258C1274.57 392.165 1273.83 393.015 1272.93 393.808C1272.02 394.601 1270.96 395.327 1269.73 395.984C1268.51 396.664 1267.11 397.276 1265.55 397.82ZM1273.06 373.51C1272.36 373.51 1271.76 373.272 1271.26 372.796C1270.79 372.32 1270.55 371.731 1270.55 371.028C1270.55 370.325 1270.79 369.725 1271.26 369.226C1271.76 368.727 1272.36 368.478 1273.06 368.478C1273.74 368.478 1274.32 368.727 1274.8 369.226C1275.3 369.725 1275.55 370.325 1275.55 371.028C1275.55 371.731 1275.3 372.32 1274.8 372.796C1274.32 373.272 1273.74 373.51 1273.06 373.51Z" fill="white"/>
<path d="M1100.4 511.515C1104.86 503.78 1104.86 494.25 1100.4 486.515L1025.53 356.838C1021.06 349.103 1012.81 344.338 1003.88 344.338H854.139C845.207 344.338 836.954 349.103 832.488 356.838L757.619 486.515C753.153 494.25 753.153 503.78 757.619 511.515L832.488 641.193C836.954 648.928 845.207 653.693 854.139 653.693H1003.88C1012.81 653.693 1021.06 648.928 1025.53 641.193L1100.4 511.515Z" fill="#89C958" fill-opacity="0.78"/>
</g>
<defs>
<clipPath id="clip0_1599_816">
<rect width="1440" height="567" fill="white" transform="matrix(-1 0 0 1 1440 0)"/>
</clipPath>
</defs>
</svg>
