<svg width="912" height="804" viewBox="0 0 912 804" fill="none" xmlns="http://www.w3.org/2000/svg">
<path fill-rule="evenodd" clip-rule="evenodd" d="M1060.04 123.201C1065.11 128.044 1067.22 135.296 1065.58 142.265L1026.08 310.699C1024.43 317.757 1019.19 323.45 1012.35 325.62L850.628 376.911C843.789 379.081 836.4 377.393 831.265 372.489L708.725 255.448C703.655 250.605 701.545 243.353 703.179 236.384L742.677 67.9503C744.332 60.8925 749.574 55.1987 756.414 53.0294L918.132 1.73773C924.972 -0.431532 932.361 1.25619 937.496 6.16048L1060.04 123.201ZM829.332 396.581C830.966 389.612 828.857 382.36 823.786 377.517L701.246 260.476C696.111 255.572 688.722 253.884 681.883 256.053L520.164 307.345C513.325 309.514 508.083 315.208 506.428 322.266L466.93 490.699C465.296 497.669 467.405 504.921 472.476 509.764L595.016 626.804C600.151 631.709 607.54 633.396 614.379 631.227L776.098 579.935C782.937 577.766 788.179 572.072 789.834 565.015L829.332 396.581ZM591.414 633.057C596.484 637.899 598.594 645.152 596.96 652.121L557.462 820.554C555.807 827.612 550.565 833.306 543.725 835.475L382.007 886.767C375.167 888.936 367.778 887.248 362.644 882.344L240.104 765.304C235.033 760.461 232.924 753.209 234.558 746.239L274.056 577.806C275.711 570.748 280.953 565.054 287.792 562.885L449.511 511.593C456.35 509.424 463.739 511.112 468.874 516.016L591.414 633.057ZM358.036 888.053C363.107 892.896 365.216 900.148 363.582 907.117L324.084 1075.55C322.429 1082.61 317.187 1088.3 310.348 1090.47L148.629 1141.76C141.79 1143.93 134.401 1142.24 129.266 1137.34L6.72582 1020.3C1.65537 1015.46 -0.454205 1008.21 1.18014 1001.24L40.678 832.802C42.3331 825.744 47.5749 820.051 54.4144 817.881L216.133 766.59C222.973 764.42 230.362 766.108 235.496 771.012L358.036 888.053ZM920.412 709.686C925.482 714.529 927.592 721.781 925.957 728.751L886.459 897.184C884.804 904.242 879.563 909.936 872.723 912.105L711.004 963.397C704.165 965.566 696.776 963.878 691.641 958.974L569.101 841.933C564.031 837.09 561.921 829.838 563.555 822.869L603.053 654.436C604.708 647.378 609.95 641.684 616.79 639.515L778.508 588.223C785.348 586.054 792.737 587.741 797.872 592.646L920.412 709.686ZM694.361 984.044C695.995 977.075 693.886 969.823 688.815 964.98L566.275 847.939C561.14 843.035 553.751 841.347 546.912 843.517L385.193 894.808C378.354 896.978 373.112 902.671 371.457 909.729L331.959 1078.16C330.325 1085.13 332.434 1092.38 337.505 1097.23L460.045 1214.27C465.179 1219.17 472.568 1220.86 479.408 1218.69L641.127 1167.4C647.966 1165.23 653.208 1159.54 654.863 1152.48L694.361 984.044ZM1159.92 472.434C1161.55 465.465 1159.44 458.213 1154.37 453.37L1031.83 336.329C1026.7 331.425 1019.31 329.737 1012.47 331.907L850.748 383.198C843.908 385.367 838.667 391.061 837.012 398.119L797.514 566.553C795.879 573.522 797.989 580.774 803.059 585.617L925.599 702.657C930.734 707.562 938.123 709.249 944.963 707.08L1106.68 655.789C1113.52 653.619 1118.76 647.925 1120.42 640.868L1159.92 472.434Z" fill="#89C958" fill-opacity="0.68"/>
</svg>
