<svg width="1440" height="567" viewBox="0 0 1440 567" fill="none" xmlns="http://www.w3.org/2000/svg">
<g clip-path="url(#clip0_1599_806)">
<path d="M1656.78 191.106C1661.25 183.371 1661.25 173.841 1656.78 166.106L1581.91 36.4287C1577.45 28.6937 1569.2 23.9287 1560.26 23.9287H1410.52C1401.59 23.9287 1393.34 28.6937 1388.87 36.4287L1314 166.106C1309.54 173.841 1309.54 183.371 1314 191.106L1388.87 320.784C1393.34 328.519 1401.59 333.284 1410.52 333.284H1560.26C1569.2 333.284 1577.45 328.519 1581.91 320.784L1656.78 191.106Z" fill="#89C958" fill-opacity="0.78"/>
<path d="M1378.59 671.719C1383.06 663.984 1383.06 654.454 1378.59 646.719L1303.72 517.042C1299.26 509.307 1291 504.542 1282.07 504.542H1132.33C1123.4 504.542 1115.15 509.307 1110.68 517.042L1035.81 646.719C1031.35 654.454 1031.35 663.984 1035.81 671.719L1110.68 801.397C1115.15 809.132 1123.4 813.897 1132.33 813.897H1282.07C1291 813.897 1299.26 809.132 1303.72 801.397L1378.59 671.719Z" fill="#89C958" fill-opacity="0.78"/>
<path d="M1656.78 511.515C1661.25 503.78 1661.25 494.25 1656.78 486.515L1581.91 356.838C1577.45 349.103 1569.2 344.338 1560.26 344.338H1410.52C1401.59 344.338 1393.34 349.103 1388.87 356.838L1314 486.515C1309.54 494.25 1309.54 503.78 1314 511.515L1388.87 641.193C1393.34 648.928 1401.59 653.693 1410.52 653.693H1560.26C1569.2 653.693 1577.45 648.928 1581.91 641.193L1656.78 511.515Z" fill="#89C958" fill-opacity="0.78"/>
<path d="M822.203 671.719C826.669 663.984 826.669 654.454 822.203 646.719L747.334 517.042C742.868 509.307 734.615 504.542 725.683 504.542H575.944C567.013 504.542 558.759 509.307 554.294 517.042L479.424 646.719C474.958 654.454 474.958 663.984 479.424 671.719L554.294 801.397C558.759 809.132 567.013 813.897 575.944 813.897H725.683C734.615 813.897 742.868 809.132 747.334 801.397L822.203 671.719Z" fill="#89C958" fill-opacity="0.78"/>
<path d="M544.013 511.515C548.478 503.78 548.478 494.25 544.013 486.515L469.143 356.838C464.677 349.103 456.424 344.338 447.493 344.338H297.751C288.821 344.338 280.571 349.103 276.101 356.838L201.231 486.515C196.771 494.25 196.771 503.78 201.231 511.515L276.101 641.193C280.571 648.928 288.821 653.693 297.751 653.693H447.493C456.424 653.693 464.677 648.928 469.143 641.193L544.013 511.515Z" fill="#89C958" fill-opacity="0.78"/>
<path d="M265.819 671.719C270.289 663.984 270.289 654.454 265.819 646.719L190.949 517.042C186.479 509.307 178.229 504.542 169.299 504.542H19.5595C10.6295 504.542 2.37946 509.307 -2.09055 517.042L-76.9605 646.719C-81.4305 654.454 -81.4305 663.984 -76.9605 671.719L-2.09055 801.397C2.37946 809.132 10.6295 813.897 19.5595 813.897H169.299C178.229 813.897 186.479 809.132 190.949 801.397L265.819 671.719Z" fill="#89C958" fill-opacity="0.78"/>
<path d="M1378.59 351.311C1383.06 343.576 1383.06 334.046 1378.59 326.311L1303.72 196.633C1299.26 188.898 1291 184.133 1282.07 184.133H1132.33C1123.4 184.133 1115.15 188.898 1110.68 196.633L1035.81 326.311C1031.35 334.046 1031.35 343.576 1035.81 351.311L1110.68 480.988C1115.15 488.723 1123.4 493.488 1132.33 493.488H1282.07C1291 493.488 1299.26 488.723 1303.72 480.988L1378.59 351.311Z" fill="#89C958" fill-opacity="0.78"/>
<path d="M1087.61 330.17C1086 330.17 1084.61 329.966 1083.43 329.558C1082.27 329.127 1081.38 328.447 1080.74 327.518C1080.11 326.566 1079.75 325.297 1079.66 323.71L1079.04 310.008H1083.84L1084.42 322.044C1084.46 322.973 1084.61 323.687 1084.86 324.186C1085.13 324.662 1085.52 324.991 1086.01 325.172C1086.51 325.331 1087.16 325.41 1087.95 325.41C1088.81 325.41 1089.43 325.637 1089.79 326.09C1090.15 326.521 1090.33 327.065 1090.33 327.722C1090.33 328.425 1090.09 329.014 1089.62 329.49C1089.17 329.943 1088.5 330.17 1087.61 330.17ZM1081.39 327.008C1079.87 327.348 1078.41 327.507 1077 327.484C1075.6 327.439 1074.34 327.189 1073.23 326.736C1072.12 326.26 1071.24 325.58 1070.58 324.696C1069.94 323.812 1069.63 322.69 1069.63 321.33C1069.63 320.129 1069.89 319.041 1070.41 318.066C1070.95 317.069 1071.7 316.196 1072.65 315.448C1073.63 314.7 1074.76 314.065 1076.05 313.544C1077.34 313.023 1078.75 312.626 1080.27 312.354L1080.74 317.182C1079.77 317.227 1078.89 317.363 1078.09 317.59C1077.32 317.794 1076.65 318.066 1076.09 318.406C1075.54 318.746 1075.12 319.131 1074.83 319.562C1074.53 319.97 1074.39 320.412 1074.39 320.888C1074.39 321.273 1074.52 321.591 1074.79 321.84C1075.07 322.089 1075.43 322.293 1075.88 322.452C1076.34 322.588 1076.86 322.667 1077.45 322.69C1078.04 322.713 1078.64 322.679 1079.25 322.588C1079.88 322.497 1080.51 322.35 1081.12 322.146L1081.39 327.008ZM1087.6 330.17L1087.94 325.41C1088.98 325.41 1089.73 325.308 1090.19 325.104C1090.64 324.877 1090.91 324.469 1091 323.88C1091.09 323.268 1091.11 322.384 1091.07 321.228L1090.46 305.112H1095.25L1095.93 321.568C1095.98 322.883 1095.92 324.073 1095.76 325.138C1095.63 326.181 1095.27 327.076 1094.71 327.824C1094.16 328.572 1093.31 329.15 1092.16 329.558C1091.02 329.966 1089.51 330.17 1087.6 330.17ZM1099.63 337.82L1098.65 333.06C1100.26 332.856 1101.66 332.607 1102.86 332.312C1104.06 332.04 1105.07 331.655 1105.89 331.156C1106.71 330.657 1107.32 329.977 1107.73 329.116C1108.13 328.232 1108.34 327.099 1108.34 325.716C1108.34 324.379 1108.13 323.313 1107.73 322.52C1107.32 321.727 1106.77 321.33 1106.09 321.33C1105.62 321.33 1105.22 321.5 1104.9 321.84C1104.59 322.157 1104.35 322.543 1104.19 322.996C1104.05 323.427 1103.99 323.812 1103.99 324.152C1103.99 324.356 1104.04 324.571 1104.16 324.798C1104.27 325.025 1104.52 325.217 1104.9 325.376C1105.29 325.535 1105.89 325.625 1106.71 325.648C1107.54 325.671 1108.68 325.591 1110.11 325.41H1115.82C1116.68 325.41 1117.29 325.637 1117.65 326.09C1118.04 326.521 1118.23 327.065 1118.23 327.722C1118.23 328.425 1117.99 329.014 1117.52 329.49C1117.04 329.943 1116.36 330.17 1115.48 330.17H1106.13C1104.7 330.17 1103.48 330 1102.46 329.66C1101.44 329.32 1100.65 328.776 1100.11 328.028C1099.57 327.257 1099.29 326.237 1099.29 324.968C1099.29 323.948 1099.46 322.928 1099.8 321.908C1100.17 320.888 1100.66 319.959 1101.3 319.12C1101.93 318.259 1102.67 317.579 1103.51 317.08C1104.37 316.559 1105.3 316.298 1106.3 316.298C1107.66 316.298 1108.85 316.717 1109.87 317.556C1110.89 318.395 1111.68 319.505 1112.25 320.888C1112.84 322.271 1113.13 323.778 1113.13 325.41C1113.13 327.971 1112.59 330.147 1111.5 331.938C1110.41 333.729 1108.86 335.111 1106.84 336.086C1104.82 337.083 1102.42 337.661 1099.63 337.82ZM1115.53 330.17L1115.87 325.41C1116.91 325.41 1117.66 325.308 1118.11 325.104C1118.56 324.877 1118.83 324.469 1118.93 323.88C1119.02 323.268 1119.04 322.384 1118.99 321.228L1118.38 305.112H1123.18L1123.86 321.568C1123.9 322.883 1123.84 324.073 1123.69 325.138C1123.55 326.181 1123.2 327.076 1122.63 327.824C1122.09 328.572 1121.24 329.15 1120.08 329.558C1118.95 329.966 1117.43 330.17 1115.53 330.17ZM1147.24 330.442C1146.07 330.442 1144.91 330.419 1143.78 330.374C1142.64 330.351 1141.54 330.317 1140.48 330.272C1139.41 330.227 1138.4 330.159 1137.45 330.068C1136.5 329.977 1135.6 329.887 1134.77 329.796L1135.31 325.104C1136.44 325.217 1137.5 325.319 1138.47 325.41C1139.47 325.478 1140.42 325.535 1141.33 325.58C1142.23 325.625 1143.14 325.659 1144.05 325.682C1144.95 325.682 1145.88 325.682 1146.84 325.682C1148.69 325.682 1150.26 325.603 1151.53 325.444C1152.8 325.285 1153.81 325.059 1154.55 324.764C1155.32 324.469 1155.87 324.118 1156.19 323.71C1156.53 323.302 1156.7 322.86 1156.7 322.384C1156.7 321.953 1156.58 321.545 1156.36 321.16C1156.15 320.775 1155.83 320.457 1155.4 320.208C1155 319.959 1154.47 319.834 1153.84 319.834C1152.98 319.834 1152.13 320.038 1151.29 320.446C1150.45 320.854 1149.64 321.398 1148.84 322.078C1148.07 322.735 1147.35 323.461 1146.67 324.254C1145.99 325.025 1145.37 325.773 1144.83 326.498L1139.63 325.92C1140.56 324.469 1141.57 323.098 1142.65 321.806C1143.76 320.491 1144.94 319.335 1146.19 318.338C1147.46 317.318 1148.77 316.525 1150.13 315.958C1151.49 315.369 1152.88 315.074 1154.28 315.074C1155.73 315.074 1156.99 315.369 1158.06 315.958C1159.12 316.547 1159.95 317.363 1160.54 318.406C1161.15 319.449 1161.46 320.65 1161.46 322.01C1161.46 323.642 1160.99 325.093 1160.06 326.362C1159.13 327.631 1157.63 328.629 1155.54 329.354C1153.48 330.079 1150.71 330.442 1147.24 330.442ZM1141.33 326.634L1140.61 305.112H1145.37L1145.99 321.364L1141.33 326.634ZM1164.71 337.82L1163.73 333.06C1165.33 332.856 1166.74 332.607 1167.94 332.312C1169.14 332.04 1170.15 331.655 1170.97 331.156C1171.78 330.657 1172.4 329.977 1172.8 329.116C1173.21 328.232 1173.42 327.099 1173.42 325.716C1173.42 324.379 1173.21 323.313 1172.8 322.52C1172.4 321.727 1171.85 321.33 1171.17 321.33C1170.7 321.33 1170.3 321.5 1169.98 321.84C1169.66 322.157 1169.43 322.543 1169.27 322.996C1169.13 323.427 1169.06 323.812 1169.06 324.152C1169.06 324.356 1169.12 324.571 1169.23 324.798C1169.35 325.025 1169.6 325.217 1169.98 325.376C1170.37 325.535 1170.97 325.625 1171.78 325.648C1172.62 325.671 1173.76 325.591 1175.18 325.41H1180.9C1181.76 325.41 1182.37 325.637 1182.73 326.09C1183.12 326.521 1183.31 327.065 1183.31 327.722C1183.31 328.425 1183.07 329.014 1182.6 329.49C1182.12 329.943 1181.44 330.17 1180.56 330.17H1171.21C1169.78 330.17 1168.55 330 1167.53 329.66C1166.51 329.32 1165.73 328.776 1165.19 328.028C1164.64 327.257 1164.37 326.237 1164.37 324.968C1164.37 323.948 1164.54 322.928 1164.88 321.908C1165.24 320.888 1165.74 319.959 1166.38 319.12C1167.01 318.259 1167.75 317.579 1168.59 317.08C1169.45 316.559 1170.38 316.298 1171.38 316.298C1172.74 316.298 1173.93 316.717 1174.95 317.556C1175.97 318.395 1176.76 319.505 1177.33 320.888C1177.91 322.271 1178.21 323.778 1178.21 325.41C1178.21 327.971 1177.67 330.147 1176.58 331.938C1175.49 333.729 1173.94 335.111 1171.92 336.086C1169.9 337.083 1167.5 337.661 1164.71 337.82ZM1206.48 330.17C1205.32 330.17 1204.21 330.068 1203.15 329.864C1202.08 329.637 1201.12 329.343 1200.26 328.98C1199.42 328.617 1198.73 328.209 1198.18 327.756L1201.24 324.458C1202.06 324.798 1202.9 325.047 1203.76 325.206C1204.62 325.342 1205.64 325.41 1206.82 325.41C1207.68 325.41 1208.29 325.637 1208.65 326.09C1209.04 326.521 1209.23 327.065 1209.23 327.722C1209.23 328.425 1208.99 329.014 1208.52 329.49C1208.04 329.943 1207.36 330.17 1206.48 330.17ZM1180.6 330.17L1180.94 325.41H1188.56C1190.69 325.41 1192.46 325.331 1193.86 325.172C1195.29 325.013 1196.42 324.787 1197.26 324.492C1198.1 324.175 1198.69 323.812 1199.03 323.404C1199.39 322.996 1199.58 322.554 1199.58 322.078C1199.58 321.647 1199.47 321.239 1199.27 320.854C1199.07 320.446 1198.76 320.117 1198.35 319.868C1197.94 319.619 1197.41 319.494 1196.75 319.494C1195.91 319.494 1195.08 319.698 1194.24 320.106C1193.4 320.491 1192.58 321.024 1191.79 321.704C1191 322.361 1190.24 323.098 1189.51 323.914C1188.81 324.73 1188.16 325.557 1187.57 326.396L1182.44 325.682C1183.39 324.209 1184.42 322.815 1185.53 321.5C1186.67 320.163 1187.86 318.995 1189.1 317.998C1190.37 316.978 1191.68 316.185 1193.01 315.618C1194.37 315.029 1195.76 314.734 1197.16 314.734C1198.66 314.734 1199.94 315.04 1201 315.652C1202.07 316.264 1202.88 317.103 1203.45 318.168C1204.04 319.233 1204.34 320.469 1204.34 321.874C1204.34 323.347 1203.92 324.673 1203.08 325.852C1202.26 327.031 1200.87 328.005 1198.9 328.776C1198.06 329.093 1197.15 329.354 1196.18 329.558C1195.2 329.762 1194.06 329.909 1192.74 330C1191.43 330.113 1189.85 330.17 1188.02 330.17H1180.6ZM1184.14 326.702L1183.43 305.112H1188.19L1188.8 321.432L1184.14 326.702ZM1206.5 330.17L1206.84 325.41C1208.07 325.41 1209.28 325.342 1210.48 325.206C1211.68 325.07 1212.85 324.866 1213.98 324.594C1215.12 324.322 1216.19 323.971 1217.21 323.54C1218.25 323.109 1219.23 322.588 1220.14 321.976C1219.46 321.568 1218.72 321.217 1217.93 320.922C1217.13 320.627 1216.28 320.412 1215.38 320.276C1214.49 320.117 1213.55 320.038 1212.55 320.038C1212.19 320.038 1211.81 320.049 1211.4 320.072C1211.01 320.095 1210.62 320.14 1210.21 320.208C1209.8 320.253 1209.39 320.321 1208.98 320.412L1208.3 315.754C1208.96 315.573 1209.65 315.448 1210.38 315.38C1211.13 315.289 1211.78 315.244 1212.35 315.244C1213.57 315.244 1214.7 315.38 1215.72 315.652C1216.76 315.924 1217.71 316.264 1218.57 316.672C1219.46 317.08 1220.27 317.488 1221.02 317.896C1221.79 318.304 1222.52 318.644 1223.2 318.916C1223.9 319.188 1224.58 319.324 1225.24 319.324H1226.49L1227.04 323.846C1226.06 323.891 1225.15 324.084 1224.28 324.424C1223.45 324.741 1222.61 325.149 1221.77 325.648C1220.95 326.124 1220.07 326.623 1219.12 327.144C1218.19 327.665 1217.13 328.153 1215.95 328.606C1214.78 329.059 1213.42 329.433 1211.87 329.728C1210.33 330.023 1208.54 330.17 1206.5 330.17ZM1212.38 312.082C1211.68 312.082 1211.08 311.844 1210.58 311.368C1210.11 310.892 1209.87 310.303 1209.87 309.6C1209.87 308.897 1210.11 308.297 1210.58 307.798C1211.08 307.299 1211.68 307.05 1212.38 307.05C1213.06 307.05 1213.64 307.299 1214.12 307.798C1214.62 308.297 1214.87 308.897 1214.87 309.6C1214.87 310.303 1214.62 310.892 1214.12 311.368C1213.64 311.844 1213.06 312.082 1212.38 312.082ZM1237.24 329.048C1237.24 328.527 1237.28 327.915 1237.37 327.212C1237.46 326.509 1237.63 325.716 1237.88 324.832C1238.13 323.925 1238.5 322.917 1239 321.806L1243.19 323.268C1242.94 323.971 1242.72 324.617 1242.54 325.206C1242.36 325.773 1242.22 326.305 1242.13 326.804C1242.04 327.28 1242 327.756 1242 328.232C1242 328.98 1242.15 329.649 1242.47 330.238C1242.81 330.85 1243.3 331.36 1243.93 331.768C1244.57 332.199 1245.34 332.527 1246.25 332.754C1247.17 332.981 1248.24 333.094 1249.44 333.094C1250.69 333.094 1251.8 333.037 1252.77 332.924C1253.77 332.811 1254.61 332.641 1255.29 332.414C1255.99 332.187 1256.52 331.893 1256.89 331.53C1257.25 331.19 1257.43 330.793 1257.43 330.34C1257.43 330.136 1257.35 329.943 1257.19 329.762C1257.06 329.581 1256.82 329.388 1256.48 329.184C1256.16 328.98 1255.73 328.765 1255.19 328.538C1254.67 328.311 1254.03 328.062 1253.28 327.79L1254.41 322.996C1255.38 323.404 1256.3 323.767 1257.16 324.084C1258.04 324.379 1258.88 324.628 1259.68 324.832C1260.47 325.013 1261.22 325.161 1261.92 325.274C1262.62 325.365 1263.28 325.41 1263.89 325.41C1264.75 325.41 1265.36 325.637 1265.73 326.09C1266.09 326.521 1266.27 327.065 1266.27 327.722C1266.27 328.425 1266.03 329.014 1265.56 329.49C1265.08 329.943 1264.41 330.17 1263.55 330.17C1263.37 330.17 1263.19 330.17 1263.01 330.17C1262.85 330.17 1262.68 330.17 1262.5 330.17C1262.34 330.17 1262.17 330.17 1261.99 330.17C1262.03 330.397 1262.06 330.589 1262.06 330.748C1262.06 330.929 1262.06 331.099 1262.06 331.258C1262.06 332.006 1261.79 332.765 1261.27 333.536C1260.77 334.307 1259.99 335.021 1258.93 335.678C1257.86 336.335 1256.5 336.857 1254.85 337.242C1253.22 337.65 1251.27 337.854 1249 337.854C1246.55 337.854 1244.44 337.537 1242.68 336.902C1240.93 336.29 1239.58 335.327 1238.63 334.012C1237.7 332.72 1237.24 331.065 1237.24 329.048ZM1263.54 330.17L1263.88 325.41C1264.63 325.41 1265.24 325.353 1265.72 325.24C1266.2 325.104 1266.58 324.821 1266.88 324.39C1267.19 323.937 1267.47 323.268 1267.69 322.384C1267.94 321.477 1268.21 320.253 1268.51 318.712L1272.93 319.528C1272.86 319.868 1272.78 320.265 1272.69 320.718C1272.6 321.171 1272.52 321.636 1272.45 322.112C1272.38 322.565 1272.35 322.973 1272.35 323.336C1272.35 323.971 1272.55 324.481 1272.96 324.866C1273.37 325.229 1274.14 325.41 1275.27 325.41C1275.84 325.41 1276.33 325.353 1276.74 325.24C1277.17 325.104 1277.53 324.821 1277.82 324.39C1278.14 323.937 1278.41 323.245 1278.64 322.316C1278.89 321.364 1279.13 320.083 1279.35 318.474L1283.84 319.188C1283.75 319.709 1283.66 320.265 1283.57 320.854C1283.48 321.443 1283.4 321.987 1283.33 322.486C1283.26 322.985 1283.23 323.393 1283.23 323.71C1283.23 324.005 1283.31 324.288 1283.47 324.56C1283.65 324.809 1283.97 325.013 1284.42 325.172C1284.9 325.331 1285.57 325.41 1286.43 325.41C1287.04 325.41 1287.56 325.331 1287.99 325.172C1288.44 325.013 1288.78 324.753 1289.01 324.39C1289.26 324.027 1289.38 323.551 1289.38 322.962C1289.38 322.123 1289.19 321.024 1288.81 319.664C1288.42 318.304 1287.97 316.876 1287.45 315.38L1292.24 313.952C1292.6 314.927 1292.92 315.969 1293.19 317.08C1293.49 318.168 1293.71 319.233 1293.87 320.276C1294.05 321.296 1294.14 322.191 1294.14 322.962C1294.14 324.118 1293.96 325.149 1293.6 326.056C1293.24 326.94 1292.73 327.688 1292.07 328.3C1291.41 328.912 1290.63 329.377 1289.72 329.694C1288.82 330.011 1287.82 330.17 1286.73 330.17C1285.42 330.17 1284.34 330.045 1283.5 329.796C1282.66 329.524 1282.02 329.082 1281.56 328.47C1281.13 327.835 1280.85 326.974 1280.71 325.886H1281.87C1281.39 327.223 1280.86 328.198 1280.27 328.81C1279.68 329.399 1278.98 329.773 1278.16 329.932C1277.37 330.091 1276.37 330.17 1275.17 330.17C1274.42 330.17 1273.65 330.091 1272.86 329.932C1272.09 329.751 1271.4 329.343 1270.79 328.708C1270.17 328.073 1269.72 327.087 1269.43 325.75L1271.26 325.682C1270.79 327.019 1270.16 328.005 1269.39 328.64C1268.64 329.275 1267.78 329.694 1266.81 329.898C1265.83 330.079 1264.75 330.17 1263.54 330.17ZM1296.4 337.82L1294.66 333.468C1296.61 332.788 1298.19 332.04 1299.39 331.224C1300.61 330.408 1301.51 329.535 1302.07 328.606C1302.66 327.677 1302.96 326.713 1302.96 325.716C1302.96 325.081 1302.87 324.424 1302.69 323.744C1302.5 323.041 1302.24 322.305 1301.9 321.534C1301.59 320.763 1301.2 319.959 1300.75 319.12L1305.2 316.978C1305.99 318.497 1306.61 319.947 1307.04 321.33C1307.49 322.713 1307.72 324.005 1307.72 325.206C1307.72 326.317 1307.57 327.382 1307.28 328.402C1307 329.422 1306.57 330.374 1305.98 331.258C1305.42 332.165 1304.68 333.015 1303.77 333.808C1302.87 334.601 1301.8 335.327 1300.58 335.984C1299.35 336.664 1297.96 337.276 1296.4 337.82ZM1310.31 337.82L1308.57 333.468C1310.52 332.788 1312.1 332.04 1313.3 331.224C1314.52 330.408 1315.42 329.535 1315.99 328.606C1316.58 327.677 1316.87 326.713 1316.87 325.716C1316.87 325.081 1316.78 324.424 1316.6 323.744C1316.42 323.041 1316.16 322.305 1315.82 321.534C1315.5 320.763 1315.11 319.959 1314.66 319.12L1319.11 316.978C1319.91 318.497 1320.52 319.947 1320.95 321.33C1321.4 322.713 1321.63 324.005 1321.63 325.206C1321.63 326.317 1321.48 327.382 1321.19 328.402C1320.92 329.422 1320.49 330.374 1319.9 331.258C1319.33 332.165 1318.59 333.015 1317.69 333.808C1316.78 334.601 1315.71 335.327 1314.49 335.984C1313.27 336.664 1311.87 337.276 1310.31 337.82ZM1317.82 313.51C1317.12 313.51 1316.52 313.272 1316.02 312.796C1315.54 312.32 1315.31 311.731 1315.31 311.028C1315.31 310.325 1315.54 309.725 1316.02 309.226C1316.52 308.727 1317.12 308.478 1317.82 308.478C1318.5 308.478 1319.08 308.727 1319.56 309.226C1320.05 309.725 1320.3 310.325 1320.3 311.028C1320.3 311.731 1320.05 312.32 1319.56 312.796C1319.08 313.272 1318.5 313.51 1317.82 313.51ZM1334.45 330.17C1332.35 330.17 1330.71 329.955 1329.56 329.524C1328.42 329.093 1327.63 328.425 1327.18 327.518C1326.72 326.589 1326.46 325.421 1326.4 324.016L1325.68 305.112H1330.44L1331.16 321.738C1331.2 322.781 1331.31 323.563 1331.5 324.084C1331.68 324.605 1332.02 324.957 1332.52 325.138C1333.04 325.319 1333.8 325.41 1334.79 325.41C1335.66 325.41 1336.27 325.637 1336.63 326.09C1337.02 326.521 1337.21 327.065 1337.21 327.722C1337.21 328.425 1336.97 329.014 1336.49 329.49C1336.02 329.943 1335.34 330.17 1334.45 330.17ZM1334.5 330.17L1334.84 325.41C1335.84 325.41 1336.62 325.342 1337.19 325.206C1337.78 325.07 1338.19 324.821 1338.44 324.458C1338.69 324.073 1338.82 323.529 1338.82 322.826C1338.82 322.191 1338.73 321.432 1338.55 320.548C1338.39 319.664 1338.17 318.746 1337.9 317.794C1337.63 316.842 1337.36 315.969 1337.08 315.176L1341.78 313.884C1342.05 314.655 1342.32 315.55 1342.59 316.57C1342.86 317.59 1343.09 318.644 1343.27 319.732C1343.48 320.797 1343.58 321.829 1343.58 322.826C1343.58 324.073 1343.42 325.127 1343.1 325.988C1342.78 326.827 1342.34 327.529 1341.78 328.096C1341.23 328.64 1340.57 329.071 1339.8 329.388C1339.06 329.683 1338.23 329.887 1337.32 330C1336.42 330.113 1335.47 330.17 1334.5 330.17ZM1338.68 337.99C1338.02 337.99 1337.46 337.763 1336.98 337.31C1336.53 336.857 1336.3 336.301 1336.3 335.644C1336.3 334.987 1336.53 334.409 1336.98 333.91C1337.46 333.434 1338.02 333.196 1338.68 333.196C1339.34 333.196 1339.89 333.434 1340.35 333.91C1340.82 334.409 1341.06 334.987 1341.06 335.644C1341.06 336.301 1340.82 336.857 1340.35 337.31C1339.89 337.763 1339.34 337.99 1338.68 337.99ZM1089.95 380.048C1089.95 379.527 1089.99 378.915 1090.08 378.212C1090.17 377.509 1090.34 376.716 1090.59 375.832C1090.84 374.925 1091.22 373.917 1091.71 372.806L1095.9 374.268C1095.65 374.971 1095.43 375.617 1095.25 376.206C1095.07 376.773 1094.93 377.305 1094.84 377.804C1094.75 378.28 1094.71 378.756 1094.71 379.232C1094.71 379.98 1094.87 380.649 1095.18 381.238C1095.52 381.85 1096.01 382.36 1096.64 382.768C1097.28 383.199 1098.05 383.527 1098.96 383.754C1099.89 383.981 1100.95 384.094 1102.15 384.094C1103.4 384.094 1104.51 384.037 1105.48 383.924C1106.48 383.811 1107.32 383.641 1108 383.414C1108.7 383.187 1109.24 382.893 1109.6 382.53C1109.96 382.19 1110.14 381.793 1110.14 381.34C1110.14 381.136 1110.06 380.943 1109.9 380.762C1109.77 380.581 1109.53 380.388 1109.19 380.184C1108.87 379.98 1108.44 379.765 1107.9 379.538C1107.38 379.311 1106.74 379.062 1105.99 378.79L1107.12 373.996C1108.09 374.404 1109.01 374.767 1109.87 375.084C1110.75 375.379 1111.59 375.628 1112.39 375.832C1113.18 376.013 1113.93 376.161 1114.63 376.274C1115.33 376.365 1115.99 376.41 1116.6 376.41C1117.46 376.41 1118.08 376.637 1118.44 377.09C1118.8 377.521 1118.98 378.065 1118.98 378.722C1118.98 379.425 1118.74 380.014 1118.27 380.49C1117.79 380.943 1117.12 381.17 1116.26 381.17C1116.08 381.17 1115.9 381.17 1115.72 381.17C1115.56 381.17 1115.39 381.17 1115.21 381.17C1115.05 381.17 1114.88 381.17 1114.7 381.17C1114.74 381.397 1114.77 381.589 1114.77 381.748C1114.77 381.929 1114.77 382.099 1114.77 382.258C1114.77 383.006 1114.51 383.765 1113.98 384.536C1113.49 385.307 1112.7 386.021 1111.64 386.678C1110.57 387.335 1109.21 387.857 1107.56 388.242C1105.93 388.65 1103.98 388.854 1101.71 388.854C1099.26 388.854 1097.15 388.537 1095.39 387.902C1093.64 387.29 1092.29 386.327 1091.34 385.012C1090.41 383.72 1089.95 382.065 1089.95 380.048ZM1116.26 381.17L1116.6 376.41C1117.59 376.41 1118.38 376.342 1118.94 376.206C1119.53 376.07 1119.95 375.821 1120.2 375.458C1120.45 375.073 1120.57 374.529 1120.57 373.826C1120.57 373.191 1120.48 372.432 1120.3 371.548C1120.14 370.664 1119.93 369.746 1119.66 368.794C1119.38 367.842 1119.11 366.969 1118.84 366.176L1123.53 364.884C1123.8 365.655 1124.08 366.55 1124.35 367.57C1124.62 368.59 1124.85 369.644 1125.03 370.732C1125.23 371.797 1125.33 372.829 1125.33 373.826C1125.33 375.073 1125.18 376.127 1124.86 376.988C1124.54 377.827 1124.1 378.529 1123.53 379.096C1122.99 379.64 1122.33 380.071 1121.56 380.388C1120.81 380.683 1119.98 380.887 1119.08 381C1118.17 381.113 1117.23 381.17 1116.26 381.17ZM1121.15 362.062C1120.45 362.062 1119.85 361.824 1119.35 361.348C1118.87 360.872 1118.64 360.283 1118.64 359.58C1118.64 358.877 1118.87 358.277 1119.35 357.778C1119.85 357.279 1120.45 357.03 1121.15 357.03C1121.83 357.03 1122.41 357.279 1122.89 357.778C1123.38 358.277 1123.63 358.877 1123.63 359.58C1123.63 360.283 1123.38 360.872 1122.89 361.348C1122.41 361.824 1121.83 362.062 1121.15 362.062ZM1129.77 381L1129.05 356.112H1133.81L1134.53 381H1129.77ZM1136.02 388.854L1134.29 384.638C1135.49 384.23 1136.59 383.754 1137.59 383.21C1138.61 382.666 1139.49 382.065 1140.24 381.408C1140.99 380.751 1141.57 380.037 1141.97 379.266C1142.38 378.473 1142.59 377.623 1142.59 376.716C1142.59 375.764 1142.37 374.721 1141.94 373.588C1141.51 372.455 1140.99 371.299 1140.38 370.12L1144.83 367.978C1145.24 368.681 1145.59 369.44 1145.88 370.256C1146.2 371.049 1146.46 371.763 1146.67 372.398C1146.87 373.033 1147.01 373.463 1147.07 373.69C1147.39 374.778 1147.82 375.503 1148.37 375.866C1148.93 376.229 1149.84 376.41 1151.09 376.41C1151.95 376.41 1152.56 376.637 1152.92 377.09C1153.31 377.521 1153.5 378.065 1153.5 378.722C1153.5 379.425 1153.26 380.014 1152.79 380.49C1152.31 380.943 1151.63 381.17 1150.75 381.17C1149.82 381.17 1149 381.034 1148.3 380.762C1147.6 380.49 1147.03 380.093 1146.6 379.572C1146.19 379.051 1145.93 378.439 1145.82 377.736L1147.07 378.45C1146.94 379.651 1146.54 380.785 1145.88 381.85C1145.25 382.938 1144.42 383.935 1143.4 384.842C1142.38 385.749 1141.24 386.542 1139.97 387.222C1138.7 387.902 1137.38 388.446 1136.02 388.854ZM1151.06 361.11L1149.39 358.322C1150.5 357.665 1151.65 357.007 1152.83 356.35C1154.01 355.67 1155.32 354.945 1156.77 354.174C1158.24 353.381 1159.97 352.485 1161.94 351.488L1163.5 354.48C1161.49 355.455 1159.74 356.327 1158.27 357.098C1156.82 357.869 1155.51 358.583 1154.36 359.24C1153.22 359.875 1152.12 360.498 1151.06 361.11ZM1150.79 381.17L1151.13 376.41H1155.89C1156.68 376.41 1157.28 376.365 1157.69 376.274C1158.12 376.183 1158.41 376.047 1158.57 375.866C1158.73 375.662 1158.81 375.424 1158.81 375.152C1158.81 374.744 1158.63 374.268 1158.27 373.724C1157.93 373.18 1157.47 372.613 1156.91 372.024C1156.36 371.435 1155.79 370.845 1155.17 370.256C1154.56 369.644 1153.97 369.077 1153.41 368.556C1152.86 368.035 1152.41 367.581 1152.05 367.196C1151.71 366.788 1151.54 366.493 1151.54 366.312C1151.54 365.677 1151.57 365.179 1151.64 364.816C1151.71 364.431 1151.8 364.125 1151.91 363.898C1152.05 363.671 1152.19 363.479 1152.35 363.32C1152.74 362.935 1153.31 362.504 1154.09 362.028C1154.86 361.529 1155.76 361.008 1156.81 360.464C1157.87 359.897 1159.06 359.308 1160.38 358.696C1161.69 358.061 1163.08 357.404 1164.56 356.724L1166.5 360.872C1165 361.529 1163.66 362.141 1162.48 362.708C1161.33 363.252 1160.28 363.762 1159.36 364.238C1158.45 364.691 1157.63 365.122 1156.91 365.53C1156.2 365.938 1155.57 366.323 1155 366.686L1155.34 364.17C1156.32 365.009 1157.2 365.802 1158 366.55C1158.79 367.298 1159.53 368.046 1160.21 368.794C1160.89 369.542 1161.52 370.313 1162.11 371.106C1162.72 371.899 1163.31 372.761 1163.88 373.69C1164.38 374.483 1164.89 375.073 1165.41 375.458C1165.95 375.843 1166.47 376.104 1166.97 376.24C1167.49 376.353 1167.96 376.41 1168.37 376.41C1169.23 376.41 1169.84 376.637 1170.2 377.09C1170.59 377.521 1170.78 378.065 1170.78 378.722C1170.78 379.425 1170.54 380.014 1170.07 380.49C1169.59 380.943 1168.91 381.17 1168.03 381.17C1167.28 381.17 1166.47 381.045 1165.61 380.796C1164.75 380.524 1163.95 380.093 1163.2 379.504C1162.45 378.915 1161.88 378.11 1161.5 377.09L1163.33 377.226C1162.99 377.951 1162.59 378.575 1162.11 379.096C1161.66 379.595 1161.11 380.003 1160.48 380.32C1159.84 380.615 1159.12 380.83 1158.3 380.966C1157.49 381.102 1156.57 381.17 1155.55 381.17H1150.79ZM1168.05 381.17L1168.39 376.41C1169.21 376.41 1169.91 376.331 1170.5 376.172C1171.09 376.013 1171.59 375.696 1172 375.22C1172.4 374.721 1172.74 373.996 1173.02 373.044C1173.31 372.092 1173.57 370.823 1173.8 369.236L1178.25 369.984C1178.21 370.324 1178.14 370.721 1178.05 371.174C1177.98 371.627 1177.91 372.092 1177.84 372.568C1177.8 373.021 1177.78 373.452 1177.78 373.86C1177.78 374.268 1177.86 374.631 1178.01 374.948C1178.17 375.265 1178.42 375.537 1178.76 375.764C1179.13 375.968 1179.59 376.127 1180.16 376.24C1180.75 376.353 1181.46 376.41 1182.3 376.41C1183.16 376.41 1183.77 376.637 1184.13 377.09C1184.5 377.521 1184.68 378.065 1184.68 378.722C1184.68 379.425 1184.44 380.014 1183.96 380.49C1183.51 380.943 1182.84 381.17 1181.96 381.17C1180.94 381.17 1180.01 381.091 1179.17 380.932C1178.35 380.773 1177.64 380.513 1177.03 380.15C1176.44 379.765 1175.95 379.266 1175.57 378.654C1175.2 378.019 1174.98 377.249 1174.89 376.342H1176.52C1176.11 377.43 1175.59 378.303 1174.95 378.96C1174.34 379.595 1173.65 380.071 1172.88 380.388C1172.11 380.705 1171.31 380.909 1170.47 381C1169.65 381.113 1168.85 381.17 1168.05 381.17ZM1177.54 389.058C1176.88 389.058 1176.31 388.82 1175.84 388.344C1175.39 387.891 1175.16 387.347 1175.16 386.712C1175.16 386.055 1175.39 385.488 1175.84 385.012C1176.31 384.536 1176.88 384.298 1177.54 384.298C1178.17 384.298 1178.72 384.536 1179.17 385.012C1179.62 385.488 1179.85 386.055 1179.85 386.712C1179.85 387.347 1179.62 387.891 1179.17 388.344C1178.72 388.82 1178.17 389.058 1177.54 389.058ZM1171.66 389.058C1171 389.058 1170.43 388.82 1169.96 388.344C1169.5 387.891 1169.28 387.347 1169.28 386.712C1169.28 386.055 1169.5 385.488 1169.96 385.012C1170.43 384.536 1171 384.298 1171.66 384.298C1172.29 384.298 1172.84 384.536 1173.29 385.012C1173.74 385.488 1173.97 386.055 1173.97 386.712C1173.97 387.347 1173.74 387.891 1173.29 388.344C1172.84 388.82 1172.29 389.058 1171.66 389.058ZM1181.96 381.17L1182.3 376.41C1183.66 376.41 1184.71 376.342 1185.43 376.206C1186.16 376.07 1186.66 375.821 1186.93 375.458C1187.22 375.073 1187.37 374.529 1187.37 373.826C1187.37 373.191 1187.28 372.432 1187.1 371.548C1186.94 370.664 1186.72 369.746 1186.45 368.794C1186.2 367.842 1185.93 366.969 1185.64 366.176L1190.33 364.884C1190.62 365.655 1190.91 366.55 1191.18 367.57C1191.45 368.59 1191.68 369.644 1191.86 370.732C1192.04 371.797 1192.13 372.829 1192.13 373.826C1192.13 375.367 1191.88 376.625 1191.38 377.6C1190.88 378.552 1190.18 379.289 1189.27 379.81C1188.39 380.331 1187.33 380.694 1186.08 380.898C1184.83 381.079 1183.46 381.17 1181.96 381.17ZM1187.1 392.492C1186.53 392.492 1186.06 392.299 1185.67 391.914C1185.31 391.529 1185.13 391.064 1185.13 390.52C1185.13 389.953 1185.31 389.466 1185.67 389.058C1186.06 388.65 1186.53 388.446 1187.1 388.446C1187.64 388.446 1188.11 388.65 1188.49 389.058C1188.88 389.466 1189.07 389.953 1189.07 390.52C1189.07 391.064 1188.88 391.529 1188.49 391.914C1188.11 392.299 1187.64 392.492 1187.1 392.492ZM1189.72 388.106C1189.15 388.106 1188.67 387.913 1188.29 387.528C1187.93 387.143 1187.74 386.678 1187.74 386.134C1187.74 385.567 1187.93 385.08 1188.29 384.672C1188.67 384.264 1189.15 384.06 1189.72 384.06C1190.26 384.06 1190.73 384.264 1191.11 384.672C1191.5 385.08 1191.69 385.567 1191.69 386.134C1191.69 386.678 1191.5 387.143 1191.11 387.528C1190.73 387.913 1190.26 388.106 1189.72 388.106ZM1184.62 388.106C1184.05 388.106 1183.57 387.913 1183.19 387.528C1182.8 387.143 1182.61 386.678 1182.61 386.134C1182.61 385.567 1182.8 385.08 1183.19 384.672C1183.57 384.264 1184.05 384.06 1184.62 384.06C1185.14 384.06 1185.59 384.264 1185.98 384.672C1186.38 385.08 1186.59 385.567 1186.59 386.134C1186.59 386.678 1186.38 387.143 1185.98 387.528C1185.59 387.913 1185.14 388.106 1184.62 388.106ZM1203.53 380.048C1203.53 379.527 1203.58 378.915 1203.67 378.212C1203.76 377.509 1203.93 376.716 1204.18 375.832C1204.43 374.925 1204.8 373.917 1205.3 372.806L1209.48 374.268C1209.24 374.971 1209.02 375.617 1208.84 376.206C1208.66 376.773 1208.52 377.305 1208.43 377.804C1208.34 378.28 1208.29 378.756 1208.29 379.232C1208.29 380.252 1208.54 381.136 1209.04 381.884C1209.56 382.655 1210.27 383.244 1211.15 383.652C1212.06 384.083 1213.1 384.298 1214.28 384.298C1216.21 384.298 1217.68 383.981 1218.7 383.346C1219.74 382.734 1220.44 381.759 1220.81 380.422C1221.19 379.062 1221.34 377.305 1221.25 375.152L1220.57 356.112H1225.36L1225.87 372.194C1225.92 373.327 1226.08 374.2 1226.35 374.812C1226.62 375.424 1227.04 375.843 1227.61 376.07C1228.2 376.297 1228.96 376.41 1229.88 376.41C1230.75 376.41 1231.36 376.637 1231.72 377.09C1232.08 377.521 1232.26 378.065 1232.26 378.722C1232.26 379.425 1232.03 380.014 1231.55 380.49C1231.07 380.943 1230.41 381.17 1229.54 381.17C1229.05 381.17 1228.51 381.102 1227.95 380.966C1227.38 380.83 1226.84 380.615 1226.31 380.32C1225.79 380.025 1225.34 379.64 1224.95 379.164C1224.57 378.665 1224.31 378.053 1224.17 377.328L1226.01 376.41C1226.01 378.699 1225.74 380.637 1225.19 382.224C1224.67 383.811 1223.9 385.091 1222.88 386.066C1221.88 387.041 1220.65 387.743 1219.17 388.174C1217.72 388.627 1216.05 388.854 1214.14 388.854C1212.69 388.854 1211.32 388.673 1210.03 388.31C1208.76 387.947 1207.64 387.403 1206.66 386.678C1205.69 385.953 1204.92 385.035 1204.35 383.924C1203.81 382.836 1203.53 381.544 1203.53 380.048ZM1229.54 381.17L1229.88 376.41C1230.88 376.41 1231.66 376.342 1232.23 376.206C1232.82 376.07 1233.24 375.821 1233.49 375.458C1233.74 375.073 1233.86 374.529 1233.86 373.826C1233.86 373.191 1233.77 372.432 1233.59 371.548C1233.43 370.664 1233.22 369.746 1232.94 368.794C1232.67 367.842 1232.4 366.969 1232.13 366.176L1236.82 364.884C1237.09 365.655 1237.36 366.55 1237.64 367.57C1237.91 368.59 1238.14 369.644 1238.32 370.732C1238.52 371.797 1238.62 372.829 1238.62 373.826C1238.62 375.073 1238.46 376.127 1238.15 376.988C1237.83 377.827 1237.39 378.529 1236.82 379.096C1236.28 379.64 1235.62 380.071 1234.85 380.388C1234.1 380.683 1233.27 380.887 1232.37 381C1231.46 381.113 1230.52 381.17 1229.54 381.17ZM1233.73 388.99C1233.07 388.99 1232.5 388.763 1232.03 388.31C1231.57 387.857 1231.35 387.301 1231.35 386.644C1231.35 385.987 1231.57 385.409 1232.03 384.91C1232.5 384.434 1233.07 384.196 1233.73 384.196C1234.38 384.196 1234.94 384.434 1235.39 384.91C1235.87 385.409 1236.11 385.987 1236.11 386.644C1236.11 387.301 1235.87 387.857 1235.39 388.31C1234.94 388.763 1234.38 388.99 1233.73 388.99ZM1251.11 381.17C1249.01 381.17 1247.37 380.955 1246.22 380.524C1245.08 380.093 1244.29 379.425 1243.84 378.518C1243.38 377.589 1243.12 376.421 1243.06 375.016L1242.34 356.112H1247.1L1247.82 372.738C1247.86 373.781 1247.97 374.563 1248.16 375.084C1248.34 375.605 1248.68 375.957 1249.18 376.138C1249.7 376.319 1250.46 376.41 1251.45 376.41C1252.32 376.41 1252.93 376.637 1253.29 377.09C1253.68 377.521 1253.87 378.065 1253.87 378.722C1253.87 379.425 1253.63 380.014 1253.15 380.49C1252.68 380.943 1252 381.17 1251.11 381.17ZM1251.16 381.17L1251.5 376.444C1253.38 376.444 1254.89 376.433 1256.02 376.41C1257.18 376.387 1258.07 376.342 1258.71 376.274C1259.37 376.183 1259.85 376.081 1260.17 375.968C1260.49 375.832 1260.76 375.685 1260.99 375.526C1261.26 375.322 1261.48 375.05 1261.67 374.71C1261.87 374.347 1262.03 373.871 1262.14 373.282C1262.26 372.693 1262.31 371.956 1262.31 371.072C1262.31 369.961 1262.21 369.032 1262.01 368.284C1261.82 367.513 1261.55 366.935 1261.19 366.55C1260.85 366.165 1260.43 365.972 1259.93 365.972C1259.57 365.972 1259.23 366.097 1258.91 366.346C1258.59 366.573 1258.33 366.89 1258.13 367.298C1257.93 367.706 1257.82 368.171 1257.82 368.692C1257.82 368.987 1257.9 369.247 1258.06 369.474C1258.22 369.701 1258.47 369.871 1258.81 369.984C1259.15 370.097 1259.58 370.154 1260.1 370.154C1260.6 370.154 1261.12 370.097 1261.67 369.984C1262.23 369.848 1262.75 369.667 1263.23 369.44L1263.37 373.486C1263 373.735 1262.58 373.962 1262.11 374.166C1261.63 374.37 1261.12 374.529 1260.58 374.642C1260.06 374.733 1259.52 374.778 1258.98 374.778C1257.78 374.778 1256.74 374.619 1255.85 374.302C1254.99 373.962 1254.32 373.418 1253.85 372.67C1253.37 371.922 1253.13 370.902 1253.13 369.61C1253.13 368.613 1253.3 367.627 1253.64 366.652C1253.98 365.655 1254.47 364.759 1255.1 363.966C1255.74 363.15 1256.49 362.504 1257.35 362.028C1258.21 361.529 1259.16 361.28 1260.2 361.28C1261.75 361.28 1263.01 361.733 1264.01 362.64C1265.03 363.524 1265.78 364.725 1266.26 366.244C1266.75 367.74 1267 369.406 1267 371.242C1267 372.851 1266.77 374.257 1266.29 375.458C1265.81 376.637 1265.25 377.566 1264.59 378.246C1264.05 378.813 1263.42 379.289 1262.72 379.674C1262.02 380.059 1261.16 380.365 1260.14 380.592C1259.14 380.796 1257.9 380.943 1256.43 381.034C1254.98 381.125 1253.22 381.17 1251.16 381.17ZM1263.09 358.186C1262.44 358.186 1261.87 357.959 1261.39 357.506C1260.94 357.03 1260.71 356.475 1260.71 355.84C1260.71 355.183 1260.94 354.616 1261.39 354.14C1261.87 353.664 1262.44 353.426 1263.09 353.426C1263.73 353.426 1264.27 353.664 1264.73 354.14C1265.18 354.616 1265.41 355.183 1265.41 355.84C1265.41 356.475 1265.18 357.03 1264.73 357.506C1264.27 357.959 1263.73 358.186 1263.09 358.186ZM1257.21 358.152C1256.55 358.152 1255.99 357.925 1255.51 357.472C1255.06 356.996 1254.83 356.441 1254.83 355.806C1254.83 355.149 1255.06 354.582 1255.51 354.106C1255.99 353.63 1256.55 353.392 1257.21 353.392C1257.85 353.392 1258.39 353.63 1258.84 354.106C1259.3 354.582 1259.52 355.149 1259.52 355.806C1259.52 356.441 1259.3 356.996 1258.84 357.472C1258.39 357.925 1257.85 358.152 1257.21 358.152ZM1277.34 388.854L1275.6 384.638C1276.8 384.23 1277.9 383.754 1278.9 383.21C1279.92 382.666 1280.8 382.065 1281.55 381.408C1282.3 380.751 1282.88 380.037 1283.29 379.266C1283.69 378.473 1283.9 377.623 1283.9 376.716C1283.9 375.764 1283.68 374.721 1283.25 373.588C1282.82 372.455 1282.3 371.299 1281.69 370.12L1286.14 367.978C1286.55 368.681 1286.9 369.44 1287.2 370.256C1287.51 371.049 1287.77 371.763 1287.98 372.398C1288.18 373.033 1288.32 373.463 1288.39 373.69C1288.7 374.778 1289.13 375.503 1289.68 375.866C1290.25 376.229 1291.15 376.41 1292.4 376.41C1293.26 376.41 1293.87 376.637 1294.23 377.09C1294.62 377.521 1294.81 378.065 1294.81 378.722C1294.81 379.425 1294.57 380.014 1294.1 380.49C1293.62 380.943 1292.94 381.17 1292.06 381.17C1291.13 381.17 1290.31 381.034 1289.61 380.762C1288.91 380.49 1288.34 380.093 1287.91 379.572C1287.5 379.051 1287.24 378.439 1287.13 377.736L1288.39 378.45C1288.25 379.651 1287.85 380.785 1287.2 381.85C1286.56 382.938 1285.73 383.935 1284.71 384.842C1283.69 385.749 1282.55 386.542 1281.28 387.222C1280.01 387.902 1278.7 388.446 1277.34 388.854ZM1292.1 381.17L1292.44 376.41C1293.26 376.41 1293.96 376.331 1294.55 376.172C1295.14 376.013 1295.64 375.696 1296.04 375.22C1296.45 374.721 1296.79 373.996 1297.06 373.044C1297.36 372.092 1297.62 370.823 1297.85 369.236L1302.3 369.984C1302.25 370.324 1302.19 370.721 1302.1 371.174C1302.03 371.627 1301.96 372.092 1301.89 372.568C1301.85 373.021 1301.82 373.452 1301.82 373.86C1301.82 374.268 1301.9 374.631 1302.06 374.948C1302.22 375.265 1302.47 375.537 1302.81 375.764C1303.17 375.968 1303.64 376.127 1304.2 376.24C1304.79 376.353 1305.51 376.41 1306.35 376.41C1307.21 376.41 1307.82 376.637 1308.18 377.09C1308.54 377.521 1308.73 378.065 1308.73 378.722C1308.73 379.425 1308.49 380.014 1308.01 380.49C1307.56 380.943 1306.89 381.17 1306.01 381.17C1304.99 381.17 1304.06 381.091 1303.22 380.932C1302.4 380.773 1301.69 380.513 1301.08 380.15C1300.49 379.765 1300 379.266 1299.61 378.654C1299.25 378.019 1299.02 377.249 1298.93 376.342H1300.57C1300.16 377.43 1299.64 378.303 1299 378.96C1298.39 379.595 1297.7 380.071 1296.93 380.388C1296.16 380.705 1295.35 380.909 1294.51 381C1293.7 381.113 1292.89 381.17 1292.1 381.17ZM1301.59 389.058C1300.93 389.058 1300.36 388.82 1299.89 388.344C1299.43 387.891 1299.21 387.347 1299.21 386.712C1299.21 386.055 1299.43 385.488 1299.89 385.012C1300.36 384.536 1300.93 384.298 1301.59 384.298C1302.22 384.298 1302.76 384.536 1303.22 385.012C1303.67 385.488 1303.9 386.055 1303.9 386.712C1303.9 387.347 1303.67 387.891 1303.22 388.344C1302.76 388.82 1302.22 389.058 1301.59 389.058ZM1295.7 389.058C1295.05 389.058 1294.48 388.82 1294 388.344C1293.55 387.891 1293.32 387.347 1293.32 386.712C1293.32 386.055 1293.55 385.488 1294 385.012C1294.48 384.536 1295.05 384.298 1295.7 384.298C1296.34 384.298 1296.88 384.536 1297.34 385.012C1297.79 385.488 1298.02 386.055 1298.02 386.712C1298.02 387.347 1297.79 387.891 1297.34 388.344C1296.88 388.82 1296.34 389.058 1295.7 389.058ZM1306.01 381.17L1306.35 376.41C1307.42 376.41 1308.23 376.399 1308.8 376.376C1309.39 376.353 1309.83 376.331 1310.13 376.308C1310.42 376.263 1310.67 376.229 1310.87 376.206C1310.65 375.979 1310.35 375.651 1309.99 375.22C1309.63 374.789 1309.3 374.234 1309 373.554C1308.73 372.874 1308.6 372.058 1308.6 371.106C1308.6 369.723 1308.95 368.511 1309.65 367.468C1310.38 366.425 1311.35 365.609 1312.57 365.02C1313.8 364.431 1315.17 364.136 1316.69 364.136C1317.41 364.136 1318.08 364.181 1318.69 364.272C1319.33 364.363 1319.96 364.499 1320.6 364.68L1319.85 369.202C1319.4 369.089 1318.92 368.998 1318.42 368.93C1317.92 368.862 1317.48 368.828 1317.1 368.828C1316.35 368.828 1315.69 368.953 1315.12 369.202C1314.58 369.429 1314.15 369.757 1313.83 370.188C1313.54 370.596 1313.39 371.095 1313.39 371.684C1313.39 372.069 1313.46 372.432 1313.59 372.772C1313.75 373.112 1313.95 373.418 1314.17 373.69C1314.4 373.962 1314.65 374.2 1314.92 374.404C1315.19 374.608 1315.45 374.778 1315.7 374.914C1315.97 375.027 1316.2 375.107 1316.38 375.152C1316.95 374.993 1317.44 374.857 1317.84 374.744C1318.27 374.608 1318.68 374.483 1319.07 374.37C1319.48 374.234 1319.92 374.064 1320.39 373.86C1320.87 373.656 1321.46 373.407 1322.16 373.112L1323.69 377.6C1321.79 378.529 1319.93 379.255 1318.12 379.776C1316.3 380.297 1314.42 380.66 1312.47 380.864C1310.52 381.068 1308.37 381.17 1306.01 381.17ZM1315.36 360.974C1314.66 360.974 1314.06 360.736 1313.56 360.26C1313.08 359.784 1312.85 359.195 1312.85 358.492C1312.85 357.789 1313.08 357.189 1313.56 356.69C1314.06 356.191 1314.66 355.942 1315.36 355.942C1316.04 355.942 1316.62 356.191 1317.1 356.69C1317.59 357.189 1317.84 357.789 1317.84 358.492C1317.84 359.195 1317.59 359.784 1317.1 360.26C1316.62 360.736 1316.04 360.974 1315.36 360.974Z" fill="white"/>
<path d="M1100.4 511.515C1104.86 503.78 1104.86 494.25 1100.4 486.515L1025.53 356.838C1021.06 349.103 1012.81 344.338 1003.88 344.338H854.139C845.207 344.338 836.954 349.103 832.488 356.838L757.619 486.515C753.153 494.25 753.153 503.78 757.619 511.515L832.488 641.193C836.954 648.928 845.207 653.693 854.139 653.693H1003.88C1012.81 653.693 1021.06 648.928 1025.53 641.193L1100.4 511.515Z" fill="#89C958" fill-opacity="0.78"/>
</g>
<defs>
<clipPath id="clip0_1599_806">
<rect width="1440" height="567" fill="white" transform="matrix(-1 0 0 1 1440 0)"/>
</clipPath>
</defs>
</svg>
