<svg width="1440" height="567" viewBox="0 0 1440 567" fill="none" xmlns="http://www.w3.org/2000/svg">
<g clip-path="url(#clip0_1599_736)">
<path d="M-216.783 191.106C-221.249 183.371 -221.249 173.841 -216.783 166.106L-141.914 36.4287C-137.448 28.6937 -129.195 23.9287 -120.263 23.9287H29.4753C38.407 23.9287 46.6602 28.6937 51.126 36.4287L125.996 166.106C130.461 173.841 130.461 183.371 125.996 191.106L51.126 320.784C46.6601 328.519 38.407 333.284 29.4753 333.284H-120.263C-129.195 333.284 -137.448 328.519 -141.914 320.784L-216.783 191.106Z" fill="#89C958" fill-opacity="0.78"/>
<path d="M61.4099 671.719C56.9441 663.984 56.9441 654.454 61.4099 646.719L136.28 517.042C140.745 509.307 148.999 504.542 157.93 504.542H307.669C316.601 504.542 324.854 509.307 329.32 517.042L404.189 646.719C408.655 654.454 408.655 663.984 404.189 671.719L329.32 801.397C324.854 809.132 316.601 813.897 307.669 813.897H157.93C148.999 813.897 140.745 809.132 136.28 801.397L61.4099 671.719Z" fill="#89C958" fill-opacity="0.78"/>
<path d="M-216.783 511.515C-221.249 503.78 -221.249 494.25 -216.783 486.515L-141.914 356.838C-137.448 349.103 -129.195 344.338 -120.263 344.338H29.4753C38.407 344.338 46.6602 349.103 51.126 356.838L125.996 486.515C130.461 494.25 130.461 503.78 125.996 511.515L51.126 641.193C46.6601 648.928 38.407 653.693 29.4753 653.693H-120.263C-129.195 653.693 -137.448 648.928 -141.914 641.193L-216.783 511.515Z" fill="#89C958" fill-opacity="0.78"/>
<path d="M617.797 671.719C613.331 663.984 613.331 654.454 617.797 646.719L692.666 517.042C697.132 509.307 705.385 504.542 714.317 504.542H864.056C872.987 504.542 881.241 509.307 885.706 517.042L960.576 646.719C965.042 654.454 965.042 663.984 960.576 671.719L885.706 801.397C881.241 809.132 872.987 813.897 864.056 813.897H714.317C705.385 813.897 697.132 809.132 692.666 801.397L617.797 671.719Z" fill="#89C958" fill-opacity="0.78"/>
<path d="M895.987 511.515C891.522 503.78 891.522 494.25 895.987 486.515L970.857 356.838C975.323 349.103 983.576 344.338 992.507 344.338H1142.25C1151.18 344.338 1159.43 349.103 1163.9 356.838L1238.77 486.515C1243.23 494.25 1243.23 503.78 1238.77 511.515L1163.9 641.193C1159.43 648.928 1151.18 653.693 1142.25 653.693H992.507C983.576 653.693 975.323 648.928 970.857 641.193L895.987 511.515Z" fill="#89C958" fill-opacity="0.78"/>
<path d="M1174.18 671.719C1169.71 663.984 1169.71 654.454 1174.18 646.719L1249.05 517.042C1253.52 509.307 1261.77 504.542 1270.7 504.542H1420.44C1429.37 504.542 1437.62 509.307 1442.09 517.042L1516.96 646.719C1521.43 654.454 1521.43 663.984 1516.96 671.719L1442.09 801.397C1437.62 809.132 1429.37 813.897 1420.44 813.897H1270.7C1261.77 813.897 1253.52 809.132 1249.05 801.397L1174.18 671.719Z" fill="#89C958" fill-opacity="0.78"/>
<path d="M61.4099 351.311C56.9441 343.576 56.9441 334.046 61.4099 326.311L136.28 196.633C140.745 188.898 148.999 184.133 157.93 184.133H307.669C316.601 184.133 324.854 188.898 329.32 196.633L404.189 326.311C408.655 334.046 408.655 343.576 404.189 351.311L329.32 480.988C324.854 488.723 316.601 493.488 307.669 493.488H157.93C148.999 493.488 140.745 488.723 136.28 480.988L61.4099 351.311Z" fill="#89C958" fill-opacity="0.78"/>
<path d="M117.741 349.578L126.115 321.453H134.27L121.892 357H116.521L117.741 349.578ZM110.026 321.453L118.376 349.578L119.646 357H114.226L101.921 321.453H110.026ZM150.285 351.043V339.275C150.285 338.429 150.147 337.705 149.87 337.103C149.593 336.484 149.162 336.004 148.576 335.662C148.007 335.32 147.266 335.149 146.354 335.149C145.573 335.149 144.898 335.288 144.328 335.564C143.758 335.825 143.319 336.207 143.01 336.712C142.701 337.2 142.546 337.778 142.546 338.445H135.515C135.515 337.322 135.775 336.256 136.296 335.247C136.817 334.238 137.574 333.351 138.566 332.586C139.559 331.805 140.739 331.194 142.106 330.755C143.49 330.315 145.036 330.096 146.745 330.096C148.796 330.096 150.619 330.438 152.214 331.121C153.809 331.805 155.062 332.83 155.974 334.197C156.901 335.564 157.365 337.273 157.365 339.324V350.628C157.365 352.076 157.455 353.265 157.634 354.192C157.813 355.104 158.073 355.901 158.415 356.585V357H151.311C150.969 356.284 150.708 355.389 150.529 354.314C150.367 353.224 150.285 352.133 150.285 351.043ZM151.213 340.911L151.262 344.891H147.331C146.403 344.891 145.598 344.996 144.914 345.208C144.23 345.42 143.669 345.721 143.229 346.111C142.79 346.486 142.465 346.925 142.253 347.43C142.058 347.934 141.96 348.488 141.96 349.09C141.96 349.692 142.098 350.237 142.375 350.726C142.652 351.198 143.05 351.572 143.571 351.849C144.092 352.109 144.702 352.239 145.402 352.239C146.46 352.239 147.38 352.028 148.161 351.604C148.942 351.181 149.545 350.66 149.968 350.042C150.407 349.424 150.635 348.838 150.651 348.284L152.507 351.263C152.246 351.93 151.888 352.622 151.433 353.338C150.993 354.054 150.432 354.729 149.748 355.364C149.064 355.983 148.243 356.495 147.282 356.902C146.322 357.293 145.183 357.488 143.864 357.488C142.188 357.488 140.666 357.155 139.299 356.487C137.948 355.804 136.874 354.868 136.076 353.68C135.295 352.475 134.904 351.108 134.904 349.578C134.904 348.195 135.165 346.966 135.686 345.892C136.206 344.817 136.971 343.914 137.98 343.182C139.006 342.433 140.284 341.871 141.813 341.497C143.343 341.106 145.118 340.911 147.136 340.911H151.213ZM170.207 319.5V357H163.151V319.5H170.207ZM185.002 351.873L190.861 330.584H198.21L189.299 357H184.855L185.002 351.873ZM180.974 330.584L186.857 351.897L186.979 357H182.512L173.601 330.584H180.974ZM213.176 357.488C211.125 357.488 209.286 357.163 207.658 356.512C206.031 355.844 204.647 354.925 203.508 353.753C202.385 352.581 201.522 351.222 200.92 349.676C200.318 348.113 200.017 346.453 200.017 344.695V343.719C200.017 341.717 200.301 339.886 200.871 338.226C201.441 336.565 202.255 335.125 203.312 333.904C204.387 332.684 205.689 331.748 207.219 331.097C208.749 330.429 210.474 330.096 212.395 330.096C214.266 330.096 215.926 330.405 217.375 331.023C218.824 331.642 220.036 332.521 221.013 333.66C222.006 334.799 222.754 336.167 223.259 337.762C223.763 339.34 224.016 341.098 224.016 343.035V345.965H203.02V341.277H217.106V340.74C217.106 339.764 216.927 338.893 216.569 338.128C216.228 337.347 215.707 336.728 215.007 336.272C214.307 335.817 213.412 335.589 212.321 335.589C211.394 335.589 210.596 335.792 209.929 336.199C209.261 336.606 208.716 337.176 208.293 337.908C207.886 338.641 207.577 339.503 207.365 340.496C207.17 341.473 207.072 342.547 207.072 343.719V344.695C207.072 345.753 207.219 346.73 207.512 347.625C207.821 348.52 208.252 349.293 208.806 349.944C209.375 350.595 210.059 351.1 210.856 351.458C211.67 351.816 212.59 351.995 213.615 351.995C214.885 351.995 216.065 351.751 217.155 351.263C218.262 350.758 219.214 350.001 220.012 348.992L223.43 352.703C222.876 353.501 222.119 354.266 221.159 354.998C220.215 355.73 219.076 356.333 217.741 356.805C216.407 357.26 214.885 357.488 213.176 357.488ZM261.516 345.208H268.815C268.669 347.601 268.01 349.725 266.838 351.58C265.682 353.436 264.063 354.884 261.979 355.926C259.912 356.967 257.422 357.488 254.509 357.488C252.23 357.488 250.188 357.098 248.381 356.316C246.574 355.519 245.028 354.38 243.742 352.898C242.473 351.417 241.504 349.627 240.837 347.527C240.17 345.428 239.836 343.076 239.836 340.472V338.006C239.836 335.402 240.178 333.05 240.861 330.95C241.561 328.834 242.554 327.036 243.84 325.555C245.142 324.074 246.696 322.934 248.503 322.137C250.31 321.339 252.328 320.94 254.558 320.94C257.52 320.94 260.018 321.478 262.053 322.552C264.104 323.626 265.69 325.107 266.813 326.995C267.953 328.883 268.636 331.032 268.864 333.44H261.54C261.459 332.008 261.174 330.796 260.686 329.803C260.197 328.794 259.457 328.037 258.464 327.532C257.487 327.011 256.185 326.751 254.558 326.751C253.337 326.751 252.271 326.979 251.359 327.435C250.448 327.89 249.683 328.582 249.064 329.51C248.446 330.438 247.982 331.609 247.673 333.025C247.38 334.425 247.233 336.069 247.233 337.957V340.472C247.233 342.311 247.372 343.93 247.648 345.33C247.925 346.714 248.348 347.885 248.918 348.846C249.504 349.79 250.253 350.506 251.164 350.994C252.092 351.466 253.207 351.702 254.509 351.702C256.039 351.702 257.3 351.458 258.293 350.97C259.286 350.481 260.043 349.757 260.563 348.797C261.101 347.837 261.418 346.64 261.516 345.208ZM280.607 319.5V357H273.552V319.5H280.607ZM293.84 330.584V357H286.784V330.584H293.84ZM286.345 323.699C286.345 322.674 286.703 321.827 287.419 321.16C288.135 320.493 289.095 320.159 290.3 320.159C291.488 320.159 292.44 320.493 293.156 321.16C293.889 321.827 294.255 322.674 294.255 323.699C294.255 324.725 293.889 325.571 293.156 326.238C292.44 326.906 291.488 327.239 290.3 327.239C289.095 327.239 288.135 326.906 287.419 326.238C286.703 325.571 286.345 324.725 286.345 323.699ZM306.535 336.224V357H299.504V330.584H306.096L306.535 336.224ZM305.51 342.864H303.605C303.605 340.911 303.858 339.153 304.362 337.591C304.867 336.012 305.575 334.669 306.486 333.562C307.398 332.439 308.48 331.585 309.733 330.999C311.003 330.397 312.419 330.096 313.981 330.096C315.218 330.096 316.35 330.275 317.375 330.633C318.4 330.991 319.279 331.561 320.012 332.342C320.76 333.123 321.33 334.157 321.721 335.442C322.128 336.728 322.331 338.299 322.331 340.154V357H315.251V340.13C315.251 338.958 315.088 338.047 314.763 337.396C314.437 336.744 313.957 336.289 313.322 336.028C312.704 335.752 311.939 335.613 311.027 335.613C310.083 335.613 309.261 335.8 308.562 336.175C307.878 336.549 307.308 337.07 306.853 337.737C306.413 338.388 306.079 339.153 305.852 340.032C305.624 340.911 305.51 341.855 305.51 342.864ZM335.1 330.584V357H328.044V330.584H335.1ZM327.604 323.699C327.604 322.674 327.963 321.827 328.679 321.16C329.395 320.493 330.355 320.159 331.56 320.159C332.748 320.159 333.7 320.493 334.416 321.16C335.148 321.827 335.515 322.674 335.515 323.699C335.515 324.725 335.148 325.571 334.416 326.238C333.7 326.906 332.748 327.239 331.56 327.239C330.355 327.239 329.395 326.906 328.679 326.238C327.963 325.571 327.604 324.725 327.604 323.699ZM351.823 351.995C352.686 351.995 353.451 351.832 354.118 351.507C354.785 351.165 355.306 350.693 355.681 350.091C356.071 349.472 356.275 348.748 356.291 347.918H362.907C362.891 349.773 362.395 351.425 361.418 352.874C360.441 354.306 359.131 355.438 357.487 356.268C355.843 357.081 354.004 357.488 351.97 357.488C349.919 357.488 348.129 357.146 346.599 356.463C345.085 355.779 343.824 354.835 342.814 353.631C341.805 352.41 341.049 350.994 340.544 349.383C340.039 347.755 339.787 346.014 339.787 344.158V343.45C339.787 341.578 340.039 339.837 340.544 338.226C341.049 336.598 341.805 335.182 342.814 333.978C343.824 332.757 345.085 331.805 346.599 331.121C348.112 330.438 349.886 330.096 351.921 330.096C354.086 330.096 355.982 330.511 357.609 331.341C359.253 332.171 360.539 333.359 361.467 334.905C362.411 336.435 362.891 338.25 362.907 340.35H356.291C356.275 339.471 356.088 338.673 355.729 337.957C355.388 337.241 354.883 336.671 354.216 336.248C353.565 335.809 352.759 335.589 351.799 335.589C350.773 335.589 349.935 335.809 349.284 336.248C348.633 336.671 348.129 337.257 347.771 338.006C347.412 338.738 347.16 339.576 347.014 340.521C346.883 341.448 346.818 342.425 346.818 343.45V344.158C346.818 345.184 346.883 346.168 347.014 347.112C347.144 348.056 347.388 348.895 347.746 349.627C348.12 350.359 348.633 350.937 349.284 351.36C349.935 351.784 350.782 351.995 351.823 351.995Z" fill="white"/>
<path d="M339.603 511.515C335.137 503.78 335.137 494.25 339.603 486.515L414.472 356.838C418.938 349.103 427.191 344.338 436.123 344.338H585.861C594.793 344.338 603.046 349.103 607.512 356.838L682.381 486.515C686.847 494.25 686.847 503.78 682.381 511.515L607.512 641.193C603.046 648.928 594.793 653.693 585.861 653.693H436.123C427.191 653.693 418.938 648.928 414.472 641.193L339.603 511.515Z" fill="#89C958" fill-opacity="0.78"/>
</g>
<defs>
<clipPath id="clip0_1599_736">
<rect width="1440" height="567" fill="white"/>
</clipPath>
</defs>
</svg>
