<svg width="1440" height="567" viewBox="0 0 1440 567" fill="none" xmlns="http://www.w3.org/2000/svg">
<g clip-path="url(#clip0_1599_846)">
<path d="M1656.78 191.106C1661.25 183.371 1661.25 173.841 1656.78 166.106L1581.91 36.4287C1577.45 28.6937 1569.2 23.9287 1560.26 23.9287H1410.52C1401.59 23.9287 1393.34 28.6937 1388.87 36.4287L1314 166.106C1309.54 173.841 1309.54 183.371 1314 191.106L1388.87 320.784C1393.34 328.519 1401.59 333.284 1410.52 333.284H1560.26C1569.2 333.284 1577.45 328.519 1581.91 320.784L1656.78 191.106Z" fill="#89C958" fill-opacity="0.78"/>
<path d="M1378.59 671.719C1383.06 663.984 1383.06 654.454 1378.59 646.719L1303.72 517.042C1299.26 509.307 1291 504.542 1282.07 504.542H1132.33C1123.4 504.542 1115.15 509.307 1110.68 517.042L1035.81 646.719C1031.35 654.454 1031.35 663.984 1035.81 671.719L1110.68 801.397C1115.15 809.132 1123.4 813.897 1132.33 813.897H1282.07C1291 813.897 1299.26 809.132 1303.72 801.397L1378.59 671.719Z" fill="#89C958" fill-opacity="0.78"/>
<path d="M1656.78 511.515C1661.25 503.78 1661.25 494.25 1656.78 486.515L1581.91 356.838C1577.45 349.103 1569.2 344.338 1560.26 344.338H1410.52C1401.59 344.338 1393.34 349.103 1388.87 356.838L1314 486.515C1309.54 494.25 1309.54 503.78 1314 511.515L1388.87 641.193C1393.34 648.928 1401.59 653.693 1410.52 653.693H1560.26C1569.2 653.693 1577.45 648.928 1581.91 641.193L1656.78 511.515Z" fill="#89C958" fill-opacity="0.78"/>
<path d="M822.203 671.719C826.669 663.984 826.669 654.454 822.203 646.719L747.334 517.042C742.868 509.307 734.615 504.542 725.683 504.542H575.944C567.013 504.542 558.759 509.307 554.294 517.042L479.424 646.719C474.958 654.454 474.958 663.984 479.424 671.719L554.294 801.397C558.759 809.132 567.013 813.897 575.944 813.897H725.683C734.615 813.897 742.868 809.132 747.334 801.397L822.203 671.719Z" fill="#89C958" fill-opacity="0.78"/>
<path d="M544.013 511.515C548.478 503.78 548.478 494.25 544.013 486.515L469.143 356.838C464.677 349.103 456.424 344.338 447.493 344.338H297.751C288.821 344.338 280.571 349.103 276.101 356.838L201.231 486.515C196.771 494.25 196.771 503.78 201.231 511.515L276.101 641.193C280.571 648.928 288.821 653.693 297.751 653.693H447.493C456.424 653.693 464.677 648.928 469.143 641.193L544.013 511.515Z" fill="#89C958" fill-opacity="0.78"/>
<path d="M265.819 671.719C270.289 663.984 270.289 654.454 265.819 646.719L190.949 517.042C186.479 509.307 178.229 504.542 169.299 504.542H19.5595C10.6295 504.542 2.37945 509.307 -2.09055 517.042L-76.9605 646.719C-81.4305 654.454 -81.4305 663.984 -76.9605 671.719L-2.09055 801.397C2.37945 809.132 10.6295 813.897 19.5595 813.897H169.299C178.229 813.897 186.479 809.132 190.949 801.397L265.819 671.719Z" fill="#89C958" fill-opacity="0.78"/>
<path d="M1378.59 351.311C1383.06 343.576 1383.06 334.046 1378.59 326.311L1303.72 196.633C1299.26 188.898 1291 184.133 1282.07 184.133H1132.33C1123.4 184.133 1115.15 188.898 1110.68 196.633L1035.81 326.311C1031.35 334.046 1031.35 343.576 1035.81 351.311L1110.68 480.988C1115.15 488.723 1123.4 493.488 1132.33 493.488H1282.07C1291 493.488 1299.26 488.723 1303.72 480.988L1378.59 351.311Z" fill="#89C958" fill-opacity="0.78"/>
<path d="M1164.92 328.84L1165.96 323.24C1167.85 323.24 1169.4 323.213 1170.6 323.16C1171.8 323.107 1172.72 323.013 1173.36 322.88C1174.02 322.72 1174.49 322.507 1174.76 322.24C1175.02 321.973 1175.16 321.64 1175.16 321.24C1175.16 320.76 1174.94 320.2 1174.52 319.56C1174.12 318.92 1173.58 318.253 1172.92 317.56C1172.28 316.867 1171.6 316.173 1170.88 315.48C1170.16 314.76 1169.46 314.093 1168.8 313.48C1168.16 312.867 1167.62 312.333 1167.2 311.88C1166.8 311.4 1166.6 311.053 1166.6 310.84C1166.6 310.093 1166.64 309.507 1166.72 309.08C1166.8 308.627 1166.9 308.267 1167.04 308C1167.2 307.733 1167.37 307.507 1167.56 307.32C1168.17 306.707 1169.16 306 1170.52 305.2C1171.9 304.4 1173.57 303.533 1175.52 302.6C1177.46 301.64 1179.6 300.627 1181.92 299.56L1184.2 304.44C1181.88 305.48 1179.86 306.413 1178.16 307.24C1176.48 308.04 1175.02 308.773 1173.8 309.44C1172.6 310.08 1171.56 310.693 1170.68 311.28L1171.08 308.32C1172.22 309.307 1173.26 310.24 1174.2 311.12C1175.13 312 1176 312.88 1176.8 313.76C1177.6 314.64 1178.34 315.547 1179.04 316.48C1179.76 317.413 1180.45 318.427 1181.12 319.52C1181.54 320.213 1181.98 320.773 1182.44 321.2C1182.92 321.6 1183.38 321.907 1183.84 322.12C1184.32 322.307 1184.77 322.44 1185.2 322.52C1185.65 322.573 1186.05 322.6 1186.4 322.6C1187.41 322.6 1188.13 322.88 1188.56 323.44C1189.01 324 1189.24 324.667 1189.24 325.44C1189.24 326.267 1188.96 326.933 1188.4 327.44C1187.84 327.947 1187.04 328.2 1186 328.2C1185.12 328.2 1184.17 328.067 1183.16 327.8C1182.14 327.507 1181.2 327.027 1180.32 326.36C1179.44 325.667 1178.77 324.72 1178.32 323.52L1180.48 323.68C1179.97 324.773 1179.36 325.667 1178.64 326.36C1177.92 327.027 1176.98 327.547 1175.84 327.92C1174.69 328.267 1173.22 328.507 1171.44 328.64C1169.68 328.773 1167.5 328.84 1164.92 328.84ZM1164.92 328.84C1162.04 328.84 1159.6 328.613 1157.6 328.16C1155.62 327.733 1154.01 327.12 1152.76 326.32C1151.53 325.493 1150.64 324.533 1150.08 323.44C1149.52 322.347 1149.24 321.147 1149.24 319.84C1149.24 318.987 1149.3 318.133 1149.44 317.28C1149.6 316.4 1149.78 315.547 1150 314.72C1150.24 313.893 1150.45 313.147 1150.64 312.48L1155.64 313.64C1155.53 314.12 1155.41 314.64 1155.28 315.2C1155.14 315.76 1155.04 316.307 1154.96 316.84C1154.88 317.347 1154.84 317.813 1154.84 318.24C1154.84 319.227 1155.18 320.107 1155.88 320.88C1156.6 321.627 1157.77 322.213 1159.4 322.64C1161.02 323.04 1163.21 323.24 1165.96 323.24L1166.76 327.56L1164.92 328.84ZM1186.04 328.2L1186.44 322.6C1187.4 322.6 1188.23 322.507 1188.92 322.32C1189.62 322.133 1190.2 321.76 1190.68 321.2C1191.16 320.613 1191.56 319.76 1191.88 318.64C1192.23 317.52 1192.54 316.027 1192.8 314.16L1198.04 315.04C1197.99 315.44 1197.91 315.907 1197.8 316.44C1197.72 316.973 1197.64 317.52 1197.56 318.08C1197.51 318.613 1197.48 319.12 1197.48 319.6C1197.48 320.08 1197.58 320.507 1197.76 320.88C1197.95 321.253 1198.24 321.573 1198.64 321.84C1199.07 322.08 1199.62 322.267 1200.28 322.4C1200.98 322.533 1201.82 322.6 1202.8 322.6C1203.82 322.6 1204.54 322.867 1204.96 323.4C1205.39 323.907 1205.6 324.547 1205.6 325.32C1205.6 326.147 1205.32 326.84 1204.76 327.4C1204.23 327.933 1203.44 328.2 1202.4 328.2C1201.2 328.2 1200.11 328.107 1199.12 327.92C1198.16 327.733 1197.32 327.427 1196.6 327C1195.91 326.547 1195.34 325.96 1194.88 325.24C1194.46 324.493 1194.19 323.587 1194.08 322.52H1196C1195.52 323.8 1194.91 324.827 1194.16 325.6C1193.44 326.347 1192.63 326.907 1191.72 327.28C1190.82 327.653 1189.87 327.893 1188.88 328C1187.92 328.133 1186.98 328.2 1186.04 328.2ZM1197.2 337.48C1196.43 337.48 1195.76 337.2 1195.2 336.64C1194.67 336.107 1194.4 335.467 1194.4 334.72C1194.4 333.947 1194.67 333.28 1195.2 332.72C1195.76 332.16 1196.43 331.88 1197.2 331.88C1197.95 331.88 1198.59 332.16 1199.12 332.72C1199.66 333.28 1199.92 333.947 1199.92 334.72C1199.92 335.467 1199.66 336.107 1199.12 336.64C1198.59 337.2 1197.95 337.48 1197.2 337.48ZM1190.28 337.48C1189.51 337.48 1188.84 337.2 1188.28 336.64C1187.75 336.107 1187.48 335.467 1187.48 334.72C1187.48 333.947 1187.75 333.28 1188.28 332.72C1188.84 332.16 1189.51 331.88 1190.28 331.88C1191.03 331.88 1191.67 332.16 1192.2 332.72C1192.74 333.28 1193 333.947 1193 334.72C1193 335.467 1192.74 336.107 1192.2 336.64C1191.67 337.2 1191.03 337.48 1190.28 337.48ZM1202.41 328.2L1202.81 322.6C1203.82 322.6 1204.62 322.507 1205.21 322.32C1205.82 322.133 1206.3 321.76 1206.65 321.2C1207.02 320.613 1207.33 319.76 1207.57 318.64C1207.84 317.52 1208.1 316.027 1208.37 314.16L1213.61 315.04C1213.56 315.44 1213.48 315.907 1213.37 316.44C1213.29 316.973 1213.21 317.52 1213.13 318.08C1213.08 318.613 1213.05 319.12 1213.05 319.6C1213.05 320.24 1213.18 320.787 1213.45 321.24C1213.74 321.667 1214.25 322 1214.97 322.24C1215.72 322.48 1216.78 322.6 1218.17 322.6C1219.18 322.6 1219.9 322.867 1220.33 323.4C1220.76 323.907 1220.97 324.547 1220.97 325.32C1220.97 326.147 1220.69 326.84 1220.13 327.4C1219.6 327.933 1218.81 328.2 1217.77 328.2C1215.93 328.2 1214.44 328.027 1213.29 327.68C1212.14 327.333 1211.29 326.747 1210.73 325.92C1210.17 325.093 1209.81 323.96 1209.65 322.52H1211.57C1211.09 323.8 1210.53 324.827 1209.89 325.6C1209.25 326.347 1208.53 326.907 1207.73 327.28C1206.93 327.653 1206.08 327.893 1205.17 328C1204.29 328.133 1203.37 328.2 1202.41 328.2ZM1210.57 310.08C1209.74 310.08 1209.04 309.8 1208.45 309.24C1207.89 308.68 1207.61 307.987 1207.61 307.16C1207.61 306.333 1207.89 305.627 1208.45 305.04C1209.04 304.453 1209.74 304.16 1210.57 304.16C1211.37 304.16 1212.05 304.453 1212.61 305.04C1213.2 305.627 1213.49 306.333 1213.49 307.16C1213.49 307.987 1213.2 308.68 1212.61 309.24C1212.05 309.8 1211.37 310.08 1210.57 310.08ZM1217.76 328.2L1218.16 322.6C1219.12 322.6 1219.95 322.507 1220.64 322.32C1221.34 322.133 1221.92 321.76 1222.4 321.2C1222.88 320.613 1223.28 319.76 1223.6 318.64C1223.95 317.52 1224.26 316.027 1224.52 314.16L1229.76 315.04C1229.71 315.44 1229.63 315.907 1229.52 316.44C1229.44 316.973 1229.36 317.52 1229.28 318.08C1229.23 318.613 1229.2 319.12 1229.2 319.6C1229.2 320.08 1229.3 320.507 1229.48 320.88C1229.67 321.253 1229.96 321.573 1230.36 321.84C1230.79 322.08 1231.34 322.267 1232 322.4C1232.7 322.533 1233.54 322.6 1234.52 322.6C1235.54 322.6 1236.26 322.867 1236.68 323.4C1237.11 323.907 1237.32 324.547 1237.32 325.32C1237.32 326.147 1237.04 326.84 1236.48 327.4C1235.95 327.933 1235.16 328.2 1234.12 328.2C1232.92 328.2 1231.83 328.107 1230.84 327.92C1229.88 327.733 1229.04 327.427 1228.32 327C1227.63 326.547 1227.06 325.96 1226.6 325.24C1226.18 324.493 1225.91 323.587 1225.8 322.52H1227.72C1227.24 323.8 1226.63 324.827 1225.88 325.6C1225.16 326.347 1224.35 326.907 1223.44 327.28C1222.54 327.653 1221.59 327.893 1220.6 328C1219.64 328.133 1218.7 328.2 1217.76 328.2ZM1228.92 337.48C1228.15 337.48 1227.48 337.2 1226.92 336.64C1226.39 336.107 1226.12 335.467 1226.12 334.72C1226.12 333.947 1226.39 333.28 1226.92 332.72C1227.48 332.16 1228.15 331.88 1228.92 331.88C1229.67 331.88 1230.31 332.16 1230.84 332.72C1231.38 333.28 1231.64 333.947 1231.64 334.72C1231.64 335.467 1231.38 336.107 1230.84 336.64C1230.31 337.2 1229.67 337.48 1228.92 337.48ZM1222 337.48C1221.23 337.48 1220.56 337.2 1220 336.64C1219.47 336.107 1219.2 335.467 1219.2 334.72C1219.2 333.947 1219.47 333.28 1220 332.72C1220.56 332.16 1221.23 331.88 1222 331.88C1222.75 331.88 1223.39 332.16 1223.92 332.72C1224.46 333.28 1224.72 333.947 1224.72 334.72C1224.72 335.467 1224.46 336.107 1223.92 336.64C1223.39 337.2 1222.75 337.48 1222 337.48ZM1234.13 328.2L1234.53 322.6C1235.78 322.6 1236.66 322.48 1237.17 322.24C1237.7 321.973 1238.02 321.493 1238.13 320.8C1238.24 320.08 1238.26 319.04 1238.21 317.68L1237.57 298.72H1243.25L1243.93 317.64C1243.98 318.973 1244.14 320 1244.41 320.72C1244.68 321.44 1245.12 321.933 1245.73 322.2C1246.37 322.467 1247.22 322.6 1248.29 322.6C1249.3 322.6 1250.02 322.867 1250.45 323.4C1250.88 323.907 1251.09 324.547 1251.09 325.32C1251.09 326.147 1250.81 326.84 1250.25 327.4C1249.69 327.933 1248.9 328.2 1247.89 328.2C1246.72 328.2 1245.62 328.067 1244.61 327.8C1243.6 327.533 1242.76 327.027 1242.09 326.28C1241.42 325.533 1240.98 324.453 1240.77 323.04L1242.53 323.08C1242.08 324.467 1241.49 325.533 1240.77 326.28C1240.05 327 1239.14 327.507 1238.05 327.8C1236.98 328.067 1235.68 328.2 1234.13 328.2ZM1247.88 328.2L1248.28 322.6H1254C1254.56 322.6 1255.05 322.573 1255.48 322.52C1255.91 322.44 1256.25 322.32 1256.52 322.16C1256.81 322 1257.03 321.8 1257.16 321.56C1257.29 321.32 1257.36 321.04 1257.36 320.72C1257.36 320.4 1257.19 319.893 1256.84 319.2C1256.52 318.48 1255.81 317.613 1254.72 316.6C1254.13 316.067 1253.49 315.507 1252.8 314.92C1252.13 314.307 1251.49 313.733 1250.88 313.2C1250.27 312.64 1249.76 312.147 1249.36 311.72C1248.96 311.293 1248.76 310.987 1248.76 310.8C1248.76 310.4 1248.79 309.96 1248.84 309.48C1248.89 309 1248.97 308.56 1249.08 308.16C1249.21 307.76 1249.39 307.467 1249.6 307.28C1250.05 306.853 1250.72 306.36 1251.6 305.8C1252.51 305.213 1253.59 304.587 1254.84 303.92C1256.09 303.227 1257.49 302.507 1259.04 301.76C1260.61 300.987 1262.29 300.213 1264.08 299.44L1266.36 304.32C1264.89 304.96 1263.51 305.587 1262.2 306.2C1260.89 306.787 1259.67 307.373 1258.52 307.96C1257.4 308.52 1256.36 309.08 1255.4 309.64C1254.47 310.173 1253.64 310.707 1252.92 311.24L1253.44 308.28C1255.71 310.013 1257.51 311.573 1258.84 312.96C1260.2 314.347 1261.21 315.587 1261.88 316.68C1262.55 317.747 1262.99 318.707 1263.2 319.56C1263.41 320.387 1263.52 321.12 1263.52 321.76C1263.52 322.4 1263.36 323.093 1263.04 323.84C1262.75 324.56 1262.2 325.253 1261.4 325.92C1260.63 326.587 1259.53 327.133 1258.12 327.56C1256.71 327.987 1254.89 328.2 1252.68 328.2H1247.88ZM1101.49 397.2L1100.33 391.6C1102.22 391.36 1103.87 391.067 1105.29 390.72C1106.7 390.4 1107.89 389.947 1108.85 389.36C1109.81 388.773 1110.53 387.973 1111.01 386.96C1111.49 385.92 1111.73 384.587 1111.73 382.96C1111.73 381.387 1111.49 380.133 1111.01 379.2C1110.53 378.267 1109.89 377.8 1109.09 377.8C1108.53 377.8 1108.06 378 1107.69 378.4C1107.31 378.773 1107.03 379.227 1106.85 379.76C1106.69 380.267 1106.61 380.72 1106.61 381.12C1106.61 381.36 1106.67 381.613 1106.81 381.88C1106.94 382.147 1107.23 382.373 1107.69 382.56C1108.14 382.747 1108.85 382.853 1109.81 382.88C1110.79 382.907 1112.13 382.813 1113.81 382.6H1120.53C1121.54 382.6 1122.26 382.867 1122.69 383.4C1123.14 383.907 1123.37 384.547 1123.37 385.32C1123.37 386.147 1123.09 386.84 1122.53 387.4C1121.97 387.933 1121.17 388.2 1120.13 388.2H1109.13C1107.45 388.2 1106.01 388 1104.81 387.6C1103.61 387.2 1102.69 386.56 1102.05 385.68C1101.41 384.773 1101.09 383.573 1101.09 382.08C1101.09 380.88 1101.29 379.68 1101.69 378.48C1102.11 377.28 1102.7 376.187 1103.45 375.2C1104.19 374.187 1105.06 373.387 1106.05 372.8C1107.06 372.187 1108.15 371.88 1109.33 371.88C1110.93 371.88 1112.33 372.373 1113.53 373.36C1114.73 374.347 1115.66 375.653 1116.33 377.28C1117.02 378.907 1117.37 380.68 1117.37 382.6C1117.37 385.613 1116.73 388.173 1115.45 390.28C1114.17 392.387 1112.34 394.013 1109.97 395.16C1107.59 396.333 1104.77 397.013 1101.49 397.2ZM1120.18 388.2L1120.58 382.6C1121.81 382.6 1122.69 382.48 1123.22 382.24C1123.76 381.973 1124.08 381.493 1124.18 380.8C1124.29 380.08 1124.32 379.04 1124.26 377.68L1123.54 358.72H1129.18L1129.98 378.08C1130.04 379.627 1129.97 381.027 1129.78 382.28C1129.62 383.507 1129.21 384.56 1128.54 385.44C1127.9 386.32 1126.9 387 1125.54 387.48C1124.21 387.96 1122.42 388.2 1120.18 388.2ZM1134.34 397.2L1133.18 391.6C1135.07 391.36 1136.73 391.067 1138.14 390.72C1139.55 390.4 1140.74 389.947 1141.7 389.36C1142.66 388.773 1143.38 387.973 1143.86 386.96C1144.34 385.92 1144.58 384.587 1144.58 382.96C1144.58 382.373 1144.53 381.787 1144.42 381.2C1144.31 380.587 1144.15 380.027 1143.94 379.52C1143.73 379.013 1143.45 378.6 1143.1 378.28C1142.78 377.96 1142.39 377.8 1141.94 377.8C1141.46 377.8 1141.03 377.973 1140.66 378.32C1140.29 378.64 1139.99 379.053 1139.78 379.56C1139.57 380.04 1139.46 380.533 1139.46 381.04C1139.46 381.413 1139.55 381.733 1139.74 382C1139.93 382.24 1140.21 382.427 1140.58 382.56C1140.95 382.667 1141.42 382.72 1141.98 382.72C1142.62 382.72 1143.27 382.653 1143.94 382.52C1144.63 382.36 1145.26 382.147 1145.82 381.88L1145.98 386.24C1145.34 386.747 1144.61 387.2 1143.78 387.6C1142.95 387.973 1141.95 388.16 1140.78 388.16C1139.82 388.16 1138.93 388.053 1138.1 387.84C1137.27 387.6 1136.54 387.24 1135.9 386.76C1135.29 386.28 1134.81 385.667 1134.46 384.92C1134.11 384.147 1133.94 383.227 1133.94 382.16C1133.94 380.853 1134.15 379.587 1134.58 378.36C1135.01 377.133 1135.59 376.04 1136.34 375.08C1137.11 374.093 1137.99 373.32 1138.98 372.76C1139.99 372.173 1141.06 371.88 1142.18 371.88C1143.51 371.88 1144.67 372.213 1145.66 372.88C1146.67 373.547 1147.51 374.427 1148.18 375.52C1148.85 376.587 1149.35 377.747 1149.7 379C1150.05 380.253 1150.22 381.453 1150.22 382.6C1150.22 385.613 1149.58 388.173 1148.3 390.28C1147.02 392.387 1145.19 394.013 1142.82 395.16C1140.45 396.333 1137.62 397.013 1134.34 397.2ZM1162.98 386.88C1162.98 386.267 1163.03 385.547 1163.14 384.72C1163.25 383.893 1163.45 382.96 1163.74 381.92C1164.03 380.853 1164.47 379.667 1165.06 378.36L1169.98 380.08C1169.69 380.907 1169.43 381.667 1169.22 382.36C1169.01 383.027 1168.85 383.653 1168.74 384.24C1168.63 384.8 1168.58 385.36 1168.58 385.92C1168.58 386.8 1168.77 387.587 1169.14 388.28C1169.54 389 1170.11 389.6 1170.86 390.08C1171.61 390.587 1172.51 390.973 1173.58 391.24C1174.67 391.507 1175.93 391.64 1177.34 391.64C1178.81 391.64 1180.11 391.573 1181.26 391.44C1182.43 391.307 1183.42 391.107 1184.22 390.84C1185.05 390.573 1185.67 390.227 1186.1 389.8C1186.53 389.4 1186.74 388.933 1186.74 388.4C1186.74 388.16 1186.65 387.933 1186.46 387.72C1186.3 387.507 1186.02 387.28 1185.62 387.04C1185.25 386.8 1184.74 386.547 1184.1 386.28C1183.49 386.013 1182.74 385.72 1181.86 385.4L1183.18 379.76C1184.33 380.24 1185.41 380.667 1186.42 381.04C1187.46 381.387 1188.45 381.68 1189.38 381.92C1190.31 382.133 1191.19 382.307 1192.02 382.44C1192.85 382.547 1193.62 382.6 1194.34 382.6C1195.35 382.6 1196.07 382.867 1196.5 383.4C1196.93 383.907 1197.14 384.547 1197.14 385.32C1197.14 386.147 1196.86 386.84 1196.3 387.4C1195.74 387.933 1194.95 388.2 1193.94 388.2C1193.73 388.2 1193.51 388.2 1193.3 388.2C1193.11 388.2 1192.91 388.2 1192.7 388.2C1192.51 388.2 1192.31 388.2 1192.1 388.2C1192.15 388.467 1192.18 388.693 1192.18 388.88C1192.18 389.093 1192.18 389.293 1192.18 389.48C1192.18 390.36 1191.87 391.253 1191.26 392.16C1190.67 393.067 1189.75 393.907 1188.5 394.68C1187.25 395.453 1185.65 396.067 1183.7 396.52C1181.78 397 1179.49 397.24 1176.82 397.24C1173.94 397.24 1171.46 396.867 1169.38 396.12C1167.33 395.4 1165.74 394.267 1164.62 392.72C1163.53 391.2 1162.98 389.253 1162.98 386.88ZM1234.05 388.2C1232.69 388.2 1231.39 388.08 1230.13 387.84C1228.88 387.573 1227.75 387.227 1226.73 386.8C1225.75 386.373 1224.93 385.893 1224.29 385.36L1227.89 381.48C1228.85 381.88 1229.84 382.173 1230.85 382.36C1231.87 382.52 1233.07 382.6 1234.45 382.6C1235.47 382.6 1236.19 382.867 1236.61 383.4C1237.07 383.907 1237.29 384.547 1237.29 385.32C1237.29 386.147 1237.01 386.84 1236.45 387.4C1235.89 387.933 1235.09 388.2 1234.05 388.2ZM1214.65 388.72C1212.17 388.72 1210.11 388.613 1208.45 388.4C1206.83 388.187 1205.51 387.88 1204.49 387.48C1203.48 387.08 1202.68 386.6 1202.09 386.04C1201.51 385.48 1201.03 384.867 1200.65 384.2L1201.77 383.88C1201.11 385.16 1200.35 386.107 1199.49 386.72C1198.64 387.333 1197.75 387.733 1196.81 387.92C1195.88 388.107 1194.92 388.2 1193.93 388.2L1194.33 382.6C1195.16 382.6 1195.81 382.467 1196.29 382.2C1196.77 381.933 1197.16 381.493 1197.45 380.88C1197.77 380.267 1198.07 379.453 1198.33 378.44C1198.6 377.427 1198.92 376.187 1199.29 374.72L1204.37 375.96C1204.19 376.68 1204.03 377.307 1203.89 377.84C1203.79 378.373 1203.69 378.84 1203.61 379.24C1203.56 379.613 1203.53 379.92 1203.53 380.16C1203.53 380.667 1203.65 381.12 1203.89 381.52C1204.13 381.893 1204.6 382.2 1205.29 382.44C1205.99 382.653 1207 382.827 1208.33 382.96C1209.69 383.067 1211.47 383.12 1213.65 383.12C1215.97 383.12 1217.91 383.04 1219.45 382.88C1221 382.693 1222.23 382.44 1223.13 382.12C1224.07 381.773 1224.73 381.36 1225.13 380.88C1225.53 380.373 1225.73 379.8 1225.73 379.16C1225.73 378.653 1225.61 378.187 1225.37 377.76C1225.16 377.307 1224.8 376.933 1224.29 376.64C1223.79 376.347 1223.13 376.2 1222.33 376.2C1221.37 376.2 1220.4 376.44 1219.41 376.92C1218.45 377.373 1217.51 377.987 1216.57 378.76C1215.64 379.507 1214.75 380.347 1213.89 381.28C1213.07 382.213 1212.32 383.147 1211.65 384.08L1205.65 383.4C1206.69 381.72 1207.87 380.107 1209.17 378.56C1210.48 377.013 1211.88 375.653 1213.37 374.48C1214.87 373.28 1216.41 372.333 1218.01 371.64C1219.61 370.947 1221.24 370.6 1222.89 370.6C1224.68 370.6 1226.2 370.947 1227.45 371.64C1228.71 372.333 1229.67 373.293 1230.33 374.52C1231 375.747 1231.33 377.16 1231.33 378.76C1231.33 380.707 1230.77 382.427 1229.65 383.92C1228.56 385.413 1226.79 386.587 1224.33 387.44C1221.91 388.293 1218.68 388.72 1214.65 388.72ZM1274.21 388.2C1272.85 388.2 1271.54 388.08 1270.29 387.84C1269.04 387.573 1267.9 387.227 1266.89 386.8C1265.9 386.373 1265.09 385.893 1264.45 385.36L1268.05 381.48C1269.01 381.88 1270 382.173 1271.01 382.36C1272.02 382.52 1273.22 382.6 1274.61 382.6C1275.62 382.6 1276.34 382.867 1276.77 383.4C1277.22 383.907 1277.45 384.547 1277.45 385.32C1277.45 386.147 1277.17 386.84 1276.61 387.4C1276.05 387.933 1275.25 388.2 1274.21 388.2ZM1254.81 388.72C1252.33 388.72 1250.26 388.613 1248.61 388.4C1246.98 388.187 1245.66 387.88 1244.65 387.48C1243.64 387.08 1242.84 386.6 1242.25 386.04C1241.66 385.48 1241.18 384.867 1240.81 384.2L1241.93 383.88C1241.26 385.16 1240.5 386.107 1239.65 386.72C1238.8 387.333 1237.9 387.733 1236.97 387.92C1236.04 388.107 1235.08 388.2 1234.09 388.2L1234.49 382.6C1235.32 382.6 1235.97 382.467 1236.45 382.2C1236.93 381.933 1237.32 381.493 1237.61 380.88C1237.93 380.267 1238.22 379.453 1238.49 378.44C1238.76 377.427 1239.08 376.187 1239.45 374.72L1244.53 375.96C1244.34 376.68 1244.18 377.307 1244.05 377.84C1243.94 378.373 1243.85 378.84 1243.77 379.24C1243.72 379.613 1243.69 379.92 1243.69 380.16C1243.69 380.667 1243.81 381.12 1244.05 381.52C1244.29 381.893 1244.76 382.2 1245.45 382.44C1246.14 382.653 1247.16 382.827 1248.49 382.96C1249.85 383.067 1251.62 383.12 1253.81 383.12C1256.13 383.12 1258.06 383.04 1259.61 382.88C1261.16 382.693 1262.38 382.44 1263.29 382.12C1264.22 381.773 1264.89 381.36 1265.29 380.88C1265.69 380.373 1265.89 379.8 1265.89 379.16C1265.89 378.653 1265.77 378.187 1265.53 377.76C1265.32 377.307 1264.96 376.933 1264.45 376.64C1263.94 376.347 1263.29 376.2 1262.49 376.2C1261.53 376.2 1260.56 376.44 1259.57 376.92C1258.61 377.373 1257.66 377.987 1256.73 378.76C1255.8 379.507 1254.9 380.347 1254.05 381.28C1253.22 382.213 1252.48 383.147 1251.81 384.08L1245.81 383.4C1246.85 381.72 1248.02 380.107 1249.33 378.56C1250.64 377.013 1252.04 375.653 1253.53 374.48C1255.02 373.28 1256.57 372.333 1258.17 371.64C1259.77 370.947 1261.4 370.6 1263.05 370.6C1264.84 370.6 1266.36 370.947 1267.61 371.64C1268.86 372.333 1269.82 373.293 1270.49 374.52C1271.16 375.747 1271.49 377.16 1271.49 378.76C1271.49 380.707 1270.93 382.427 1269.81 383.92C1268.72 385.413 1266.94 386.587 1264.49 387.44C1262.06 388.293 1258.84 388.72 1254.81 388.72ZM1300.41 388.2C1299.18 388.2 1298.03 388.107 1296.97 387.92C1295.93 387.733 1294.97 387.413 1294.09 386.96C1293.21 386.48 1292.42 385.827 1291.73 385C1291.06 384.173 1290.5 383.133 1290.05 381.88L1293.21 379.36C1293.69 380.213 1294.27 380.88 1294.97 381.36C1295.66 381.813 1296.49 382.133 1297.45 382.32C1298.41 382.507 1299.53 382.6 1300.81 382.6C1301.82 382.6 1302.54 382.867 1302.97 383.4C1303.39 383.907 1303.61 384.547 1303.61 385.32C1303.61 386.147 1303.33 386.84 1302.77 387.4C1302.23 387.933 1301.45 388.2 1300.41 388.2ZM1274.25 388.2L1274.65 382.6C1276.09 382.6 1277.51 382.52 1278.93 382.36C1280.34 382.2 1281.71 381.96 1283.05 381.64C1284.38 381.32 1285.65 380.907 1286.85 380.4C1288.07 379.893 1289.22 379.28 1290.29 378.56C1289.49 378.08 1288.62 377.667 1287.69 377.32C1286.75 376.973 1285.75 376.72 1284.69 376.56C1283.65 376.373 1282.54 376.28 1281.37 376.28C1280.94 376.28 1280.49 376.293 1280.01 376.32C1279.55 376.347 1279.09 376.4 1278.61 376.48C1278.13 376.533 1277.65 376.613 1277.17 376.72L1276.37 371.24C1277.14 371.027 1277.95 370.88 1278.81 370.8C1279.69 370.693 1280.46 370.64 1281.13 370.64C1282.57 370.64 1283.89 370.8 1285.09 371.12C1286.31 371.44 1287.43 371.84 1288.45 372.32C1289.49 372.8 1290.45 373.28 1291.33 373.76C1292.23 374.24 1293.09 374.64 1293.89 374.96C1294.71 375.28 1295.51 375.44 1296.29 375.44H1297.77L1298.41 380.76C1297.26 380.813 1296.18 381.04 1295.17 381.44C1294.18 381.813 1293.19 382.293 1292.21 382.88C1291.25 383.44 1290.21 384.027 1289.09 384.64C1287.99 385.253 1286.75 385.827 1285.37 386.36C1283.98 386.893 1282.38 387.333 1280.57 387.68C1278.75 388.027 1276.65 388.2 1274.25 388.2ZM1281.13 366.52C1280.3 366.52 1279.59 366.24 1279.01 365.68C1278.45 365.12 1278.17 364.427 1278.17 363.6C1278.17 362.773 1278.45 362.067 1279.01 361.48C1279.59 360.893 1280.3 360.6 1281.13 360.6C1281.93 360.6 1282.61 360.893 1283.17 361.48C1283.75 362.067 1284.05 362.773 1284.05 363.6C1284.05 364.427 1283.75 365.12 1283.17 365.68C1282.61 366.24 1281.93 366.52 1281.13 366.52ZM1300.42 388.2L1300.82 382.6C1302.42 382.6 1303.64 382.52 1304.5 382.36C1305.35 382.2 1305.94 381.907 1306.26 381.48C1306.6 381.027 1306.78 380.387 1306.78 379.56C1306.78 378.813 1306.67 377.92 1306.46 376.88C1306.27 375.84 1306.02 374.76 1305.7 373.64C1305.4 372.52 1305.08 371.493 1304.74 370.56L1310.26 369.04C1310.6 369.947 1310.94 371 1311.26 372.2C1311.58 373.4 1311.84 374.64 1312.06 375.92C1312.27 377.173 1312.38 378.387 1312.38 379.56C1312.38 381.373 1312.08 382.853 1311.5 384C1310.91 385.12 1310.08 385.987 1309.02 386.6C1307.98 387.213 1306.72 387.64 1305.26 387.88C1303.79 388.093 1302.18 388.2 1300.42 388.2ZM1311.26 365.8C1310.48 365.8 1309.82 365.533 1309.26 365C1308.72 364.44 1308.46 363.787 1308.46 363.04C1308.46 362.267 1308.72 361.6 1309.26 361.04C1309.82 360.48 1310.48 360.2 1311.26 360.2C1312 360.2 1312.64 360.48 1313.18 361.04C1313.71 361.6 1313.98 362.267 1313.98 363.04C1313.98 363.787 1313.71 364.44 1313.18 365C1312.64 365.533 1312 365.8 1311.26 365.8ZM1304.34 365.76C1303.56 365.76 1302.9 365.493 1302.34 364.96C1301.8 364.4 1301.54 363.747 1301.54 363C1301.54 362.227 1301.8 361.56 1302.34 361C1302.9 360.44 1303.56 360.16 1304.34 360.16C1305.08 360.16 1305.72 360.44 1306.26 361C1306.79 361.56 1307.06 362.227 1307.06 363C1307.06 363.747 1306.79 364.4 1306.26 364.96C1305.72 365.493 1305.08 365.76 1304.34 365.76Z" fill="white"/>
<path d="M1100.4 511.515C1104.86 503.78 1104.86 494.25 1100.4 486.515L1025.53 356.838C1021.06 349.103 1012.81 344.338 1003.88 344.338H854.139C845.207 344.338 836.954 349.103 832.488 356.838L757.619 486.515C753.153 494.25 753.153 503.78 757.619 511.515L832.488 641.193C836.954 648.928 845.207 653.693 854.139 653.693H1003.88C1012.81 653.693 1021.06 648.928 1025.53 641.193L1100.4 511.515Z" fill="#89C958" fill-opacity="0.78"/>
</g>
<defs>
<clipPath id="clip0_1599_846">
<rect width="1440" height="567" fill="white" transform="matrix(-1 0 0 1 1440 0)"/>
</clipPath>
</defs>
</svg>
