<svg width="58" height="55" viewBox="0 0 58 55" fill="none" xmlns="http://www.w3.org/2000/svg">
<g filter="url(#filter0_d_1260_542)">
<path d="M5.44338 27.5C4.55021 25.953 4.55021 24.047 5.44338 22.5L15.0566 5.84937C15.9498 4.30236 17.6004 3.34937 19.3868 3.34937H38.6132C40.3996 3.34937 42.0502 4.30236 42.9434 5.84937L52.5566 22.5C53.4498 24.047 53.4498 25.953 52.5566 27.5L42.9434 44.1506C42.0502 45.6976 40.3996 46.6506 38.6133 46.6506H19.3868C17.6004 46.6506 15.9498 45.6976 15.0566 44.1506L5.44338 27.5Z" fill="#89C958"/>
<g clip-path="url(#clip0_1260_542)">
<path d="M36.8386 16.5601C34.7565 14.4272 31.9128 13.2085 28.8659 13.2085C22.6706 13.2085 17.5925 18.2866 17.5925 24.4819C17.5925 26.5132 18.1511 28.4429 19.1159 30.1187L17.5417 35.9585L23.4831 34.4351C25.1589 35.2983 26.987 35.8062 28.8659 35.8062C35.112 35.8062 40.2917 30.728 40.2917 24.5327C40.2917 21.4858 38.9714 18.6929 36.8386 16.5601ZM28.8659 33.8765C27.1901 33.8765 25.5651 33.4194 24.0925 32.5562L23.7878 32.353L20.2331 33.3179L21.1979 29.8647L20.944 29.5093C20.03 27.9858 19.5222 26.2593 19.5222 24.4819C19.5222 19.353 23.737 15.1382 28.9167 15.1382C31.405 15.1382 33.7409 16.103 35.5182 17.8804C37.2956 19.6577 38.362 21.9937 38.362 24.5327C38.362 29.6616 34.0456 33.8765 28.8659 33.8765ZM34.0456 26.8687C33.7409 26.7163 32.3698 26.0562 32.1159 25.9546C31.862 25.853 31.6589 25.8022 31.4557 26.1069C31.3034 26.3608 30.7448 27.021 30.5925 27.2241C30.3893 27.3765 30.237 27.4272 29.9831 27.2749C28.3073 26.4624 27.2409 25.8022 26.1237 23.9233C25.819 23.4155 26.4284 23.4663 26.9362 22.3999C27.0378 22.1968 26.987 22.0444 26.9362 21.8921C26.8854 21.7397 26.2761 20.3687 26.0729 19.8101C25.819 19.2515 25.6159 19.3022 25.4128 19.3022C25.2604 19.3022 25.0573 19.3022 24.905 19.3022C24.7018 19.3022 24.3972 19.353 24.1432 19.6577C23.8893 19.9624 23.1784 20.6226 23.1784 21.9937C23.1784 23.4155 24.1432 24.7358 24.2956 24.939C24.4479 25.0913 26.2761 27.9351 29.1198 29.1538C30.8972 29.9663 31.6081 30.0171 32.5222 29.8647C33.03 29.814 34.1472 29.2046 34.4011 28.5444C34.655 27.8843 34.655 27.3257 34.5534 27.2241C34.5026 27.0718 34.2995 27.021 34.0456 26.8687Z" fill="white"/>
</g>
</g>
<defs>
<filter id="filter0_d_1260_542" x="0.773499" y="3.34961" width="56.453" height="51.3008" filterUnits="userSpaceOnUse" color-interpolation-filters="sRGB">
<feFlood flood-opacity="0" result="BackgroundImageFix"/>
<feColorMatrix in="SourceAlpha" type="matrix" values="0 0 0 0 0 0 0 0 0 0 0 0 0 0 0 0 0 0 127 0" result="hardAlpha"/>
<feOffset dy="4"/>
<feGaussianBlur stdDeviation="2"/>
<feComposite in2="hardAlpha" operator="out"/>
<feColorMatrix type="matrix" values="0 0 0 0 0.395833 0 0 0 0 0.395833 0 0 0 0 0.395833 0 0 0 0.25 0"/>
<feBlend mode="normal" in2="BackgroundImageFix" result="effect1_dropShadow_1260_542"/>
<feBlend mode="normal" in="SourceGraphic" in2="effect1_dropShadow_1260_542" result="shape"/>
</filter>
<clipPath id="clip0_1260_542">
<rect width="26" height="26" fill="white" transform="translate(16 12)"/>
</clipPath>
</defs>
</svg>
