<svg width="102" height="102" viewBox="0 0 102 102" fill="none" xmlns="http://www.w3.org/2000/svg">
<path d="M54 95.6491C52.1436 96.7209 49.8564 96.7209 48 95.6491L13.8327 75.9226C11.9763 74.8509 10.8327 72.8701 10.8327 70.7265L10.8327 31.2735C10.8327 29.1299 11.9763 27.1491 13.8327 26.0774L48 6.35085C49.8564 5.27906 52.1436 5.27906 54 6.35085L88.1673 26.0774C90.0237 27.1491 91.1673 29.1299 91.1673 31.2735L91.1673 70.7265C91.1673 72.8701 90.0237 74.8509 88.1673 75.9226L54 95.6491Z" fill="#89C958" stroke="white" stroke-width="8"/>
<path d="M71.8327 46.8333V59.3333V46.8333ZM30.166 46.8333L50.9994 36.4166L71.8327 46.8333L50.9994 57.25L30.166 46.8333Z" stroke="white" stroke-width="4" stroke-linecap="round" stroke-linejoin="round"/>
<path d="M38.5 51V61.4167C44.75 67.6667 57.25 67.6667 63.5 61.4167V51" stroke="white" stroke-width="4" stroke-linecap="round" stroke-linejoin="round"/>
</svg>
