<svg width="376" height="339" viewBox="0 0 376 339" fill="none" xmlns="http://www.w3.org/2000/svg">
<path fill-rule="evenodd" clip-rule="evenodd" d="M69.7791 157.403C71.3171 158.319 73.2047 158.362 74.7414 157.519L100.964 143.126C102.52 142.272 103.48 140.638 103.478 138.844L103.455 108.919C103.454 107.125 102.492 105.447 100.934 104.52L74.6885 88.9051C73.1505 87.99 71.2628 87.9461 69.7262 88.7895L43.5035 103.183C41.9474 104.037 40.988 105.671 40.9894 107.465L41.0124 137.389C41.0138 139.183 41.9758 140.862 43.5333 141.789L69.7791 157.403ZM43.0239 101.586C41.4872 102.43 39.5996 102.386 38.0616 101.471L11.8158 85.8556C10.2583 84.929 9.29635 83.2503 9.29497 81.4564L9.27191 51.5319C9.27053 49.7381 10.2299 48.1041 11.7861 47.25L38.0087 32.8567C39.5454 32.0132 41.433 32.0572 42.971 32.9722L69.2168 48.5872C70.7743 49.5138 71.7363 51.1925 71.7377 52.9864L71.7607 82.9109C71.7621 84.7047 70.8027 86.3387 69.2466 87.1929L43.0239 101.586ZM5.91136 46.1542C7.44936 47.0692 9.33702 47.1132 10.8737 46.2697L37.0963 31.8764C38.6525 31.0223 39.6119 29.3883 39.6105 27.5945L39.5874 -2.33004C39.586 -4.12387 38.6241 -5.80259 37.0666 -6.72924L10.8208 -22.3442C9.28279 -23.2592 7.39514 -23.3032 5.85849 -22.4597L-20.3642 -8.06645C-21.9203 -7.21231 -22.8797 -5.57832 -22.8783 -3.7845L-22.8553 26.14C-22.8539 27.9339 -21.8919 29.6126 -20.3344 30.5392L5.91136 46.1542ZM-26.0868 -9.30953C-24.5488 -8.3945 -22.6611 -8.35054 -21.1245 -9.19399L5.09819 -23.5873C6.65432 -24.4414 7.61371 -26.0754 7.61233 -27.8692L7.58927 -57.7938C7.58789 -59.5876 6.62594 -61.2663 5.06845 -62.193L-21.1774 -77.8079C-22.7154 -78.723 -24.603 -78.7669 -26.1397 -77.9235L-52.3623 -63.5302C-53.9185 -62.676 -54.8779 -61.042 -54.8765 -59.2482L-54.8534 -29.3237C-54.852 -27.5299 -53.8901 -25.8511 -52.3326 -24.9245L-26.0868 -9.30953ZM-26.0026 99.9789C-24.4645 100.894 -22.5769 100.938 -21.0402 100.094L5.18243 85.7012C6.73857 84.847 7.69796 83.213 7.69657 81.4192L7.67352 51.4947C7.67214 49.7009 6.71019 48.0221 5.15269 47.0955L-21.0931 31.4805C-22.6311 30.5655 -24.5188 30.5215 -26.0554 31.365L-52.2781 45.7583C-53.8342 46.6124 -54.7936 48.2464 -54.7922 50.0402L-54.7692 79.9648C-54.7678 81.7586 -53.8058 83.4373 -52.2483 84.3639L-26.0026 99.9789ZM-53.1904 44.9288C-54.727 45.7722 -56.6147 45.7283 -58.1527 44.8132L-84.3985 29.1982C-85.956 28.2716 -86.9179 26.5929 -86.9193 24.7991L-86.9424 -5.12548C-86.9438 -6.9193 -85.9844 -8.55329 -84.4282 -9.40742L-58.2056 -23.8007C-56.6689 -24.6442 -54.7813 -24.6002 -53.2433 -23.6852L-26.9975 -8.0702C-25.44 -7.14357 -24.478 -5.46483 -24.4766 -3.67102L-24.4536 26.2535C-24.4522 28.0473 -25.4116 29.6813 -26.9677 30.5355L-53.1904 44.9288ZM11.1586 155.734C9.62194 156.578 7.73429 156.534 6.19628 155.619L-20.0495 140.004C-21.607 139.077 -22.569 137.399 -22.5703 135.605L-22.5934 105.68C-22.5948 103.886 -21.6354 102.252 -20.0793 101.398L6.14342 87.0049C7.68006 86.1615 9.56772 86.2054 11.1057 87.1205L37.3515 102.735C38.909 103.662 39.871 105.341 39.8724 107.135L39.8954 137.059C39.8968 138.853 38.9374 140.487 37.3813 141.341L11.1586 155.734ZM413.427 179.73C414.322 178.181 414.343 176.293 413.48 174.767L398.76 148.726C397.887 147.18 396.241 146.241 394.447 146.265L364.526 146.662C362.732 146.686 361.065 147.669 360.158 149.238L344.872 175.676C343.976 177.226 343.956 179.114 344.819 180.64L359.538 206.681C360.412 208.226 362.058 209.165 363.851 209.141L393.773 208.744C395.567 208.721 397.234 207.738 398.141 206.169L413.427 179.73ZM357.948 207.18C358.81 208.706 358.79 210.594 357.894 212.144L342.608 238.582C341.701 240.151 340.035 241.134 338.241 241.158L308.319 241.555C306.525 241.579 304.88 240.64 304.006 239.094L289.286 213.053C288.424 211.527 288.444 209.639 289.34 208.09L304.626 181.651C305.533 180.082 307.2 179.1 308.993 179.076L338.915 178.679C340.709 178.655 342.355 179.594 343.228 181.139L357.948 207.18ZM302.984 244.982C303.88 243.433 303.9 241.545 303.037 240.019L288.318 213.978C287.444 212.433 285.798 211.494 284.005 211.518L254.083 211.914C252.289 211.938 250.622 212.921 249.715 214.49L234.429 240.929C233.534 242.478 233.513 244.366 234.376 245.892L249.096 271.933C249.969 273.478 251.615 274.417 253.409 274.393L283.33 273.997C285.124 273.973 286.791 272.99 287.698 271.421L302.984 244.982ZM247.924 277.671C248.82 276.121 248.84 274.233 247.978 272.707L233.258 246.666C232.384 245.121 230.738 244.182 228.945 244.206L199.023 244.603C197.229 244.627 195.563 245.609 194.656 247.178L179.37 273.617C178.474 275.166 178.454 277.055 179.316 278.581L194.036 304.621C194.909 306.167 196.555 307.106 198.349 307.082L228.271 306.685C230.064 306.661 231.731 305.678 232.638 304.109L247.924 277.671ZM357.203 276.221C358.099 274.672 358.119 272.784 357.256 271.258L342.537 245.217C341.663 243.672 340.017 242.733 338.224 242.757L308.302 243.154C306.508 243.177 304.842 244.16 303.934 245.729L288.649 272.168C287.753 273.717 287.732 275.605 288.595 277.131L303.315 303.172C304.188 304.717 305.834 305.656 307.628 305.633L337.55 305.236C339.343 305.212 341.01 304.229 341.917 302.66L357.203 276.221ZM302.497 304.095C303.359 305.621 303.339 307.509 302.443 309.058L287.157 335.497C286.25 337.066 284.583 338.049 282.79 338.072L252.868 338.469C251.074 338.493 249.428 337.554 248.555 336.009L233.835 309.968C232.973 308.442 232.993 306.554 233.889 305.005L249.175 278.566C250.082 276.997 251.748 276.014 253.542 275.99L283.464 275.593C285.258 275.57 286.903 276.508 287.777 278.054L302.497 304.095ZM412.49 238.367C413.352 239.893 413.332 241.781 412.436 243.33L397.15 269.769C396.243 271.338 394.577 272.321 392.783 272.344L362.861 272.741C361.067 272.765 359.422 271.826 358.548 270.281L343.828 244.24C342.966 242.714 342.986 240.826 343.882 239.277L359.168 212.838C360.075 211.269 361.742 210.286 363.535 210.262L393.457 209.865C395.251 209.842 396.897 210.781 397.77 212.326L412.49 238.367Z" fill="#2FA3EE" fill-opacity="0.68"/>
</svg>
