<svg width="104" height="159" viewBox="0 0 104 159" fill="none" xmlns="http://www.w3.org/2000/svg">
<path fill-rule="evenodd" clip-rule="evenodd" d="M74.7414 157.519C73.2048 158.362 71.3171 158.319 69.7791 157.403L43.5333 141.788C41.9758 140.862 41.0139 139.183 41.0125 137.389L40.9894 107.465C40.988 105.671 41.9474 104.037 43.5036 103.183L69.7262 88.7895C71.2629 87.9461 73.1505 87.99 74.6885 88.9051L100.934 104.52C102.492 105.447 103.454 107.125 103.455 108.919L103.478 138.844C103.48 140.638 102.52 142.272 100.964 143.126L74.7414 157.519ZM38.0617 101.471C39.5997 102.386 41.4873 102.43 43.024 101.586L69.2466 87.1928C70.8028 86.3387 71.7622 84.7047 71.7608 82.9109L71.7377 52.9863C71.7363 51.1925 70.7744 49.5138 69.2169 48.5872L42.9711 32.9722C41.4331 32.0572 39.5454 32.0132 38.0088 32.8566L11.7861 47.2499C10.23 48.1041 9.27058 49.7381 9.27196 51.5319L9.29503 81.4564C9.29641 83.2503 10.2584 84.929 11.8159 85.8556L38.0617 101.471ZM10.8737 46.2697C9.33707 47.1132 7.44942 47.0692 5.91141 46.1542L-20.3344 30.5392C-21.8919 29.6126 -22.8538 27.9338 -22.8552 26.14L-22.8783 -3.78451C-22.8797 -5.57833 -21.9203 -7.21232 -20.3641 -8.06647L5.85855 -22.4598C7.39519 -23.3032 9.28285 -23.2593 10.8209 -22.3442L37.0666 -6.72925C38.6241 -5.8026 39.5861 -4.12388 39.5875 -2.33006L39.6105 27.5945C39.6119 29.3883 38.6525 31.0223 37.0964 31.8764L10.8737 46.2697ZM-21.1244 -9.194C-22.6611 -8.35055 -24.5487 -8.39451 -26.0867 -9.30954L-52.3325 -24.9245C-53.89 -25.8512 -54.852 -27.5299 -54.8534 -29.3237L-54.8764 -59.2482C-54.8778 -61.0421 -53.9184 -62.676 -52.3623 -63.5302L-26.1396 -77.9235C-24.603 -78.7669 -22.7153 -78.723 -21.1773 -77.8079L5.0685 -62.193C6.626 -61.2663 7.58795 -59.5876 7.58933 -57.7938L7.61239 -27.8692C7.61377 -26.0754 6.65438 -24.4414 5.09824 -23.5873L-21.1244 -9.194ZM-21.0402 100.094C-22.5768 100.938 -24.4645 100.894 -26.0025 99.9789L-52.2483 84.3639C-53.8058 83.4373 -54.7677 81.7586 -54.7691 79.9648L-54.7922 50.0402C-54.7936 48.2464 -53.8342 46.6124 -52.278 45.7583L-26.0554 31.365C-24.5187 30.5215 -22.6311 30.5655 -21.0931 31.4805L5.15275 47.0955C6.71025 48.0221 7.67219 49.7009 7.67357 51.4947L7.69663 81.4192C7.69802 83.213 6.73862 84.847 5.18249 85.7012L-21.0402 100.094ZM-58.1526 44.8132C-56.6146 45.7283 -54.727 45.7722 -53.1903 44.9288L-26.9677 30.5355C-25.4115 29.6813 -24.4521 28.0473 -24.4535 26.2535L-24.4766 -3.67103C-24.478 -5.46484 -25.4399 -7.14358 -26.9974 -8.07021L-53.2432 -23.6852C-54.7812 -24.6002 -56.6689 -24.6442 -58.2055 -23.8007L-84.4282 -9.40743C-85.9843 -8.5533 -86.9437 -6.91931 -86.9423 -5.12549L-86.9193 24.7991C-86.9179 26.5929 -85.9559 28.2716 -84.3984 29.1982L-58.1526 44.8132ZM6.19634 155.619C7.73435 156.534 9.622 156.578 11.1587 155.734L37.3813 141.341C38.9375 140.487 39.8969 138.853 39.8955 137.059L39.8724 107.135C39.871 105.341 38.9091 103.662 37.3516 102.735L11.1058 87.1205C9.56778 86.2054 7.68012 86.1615 6.14347 87.0049L-20.0792 101.398C-21.6353 102.252 -22.5947 103.886 -22.5933 105.68L-22.5703 135.605C-22.5689 137.399 -21.6069 139.077 -20.0494 140.004L6.19634 155.619Z" fill="#2FA3EE" fill-opacity="0.68"/>
</svg>
