<svg width="1051" height="576" viewBox="0 0 1051 576" fill="none" xmlns="http://www.w3.org/2000/svg">
<path fill-rule="evenodd" clip-rule="evenodd" d="M959.968 846.719C956.325 852.71 949.693 856.325 942.536 856.223L769.551 853.755C762.302 853.652 755.617 849.752 752.032 843.537L667.261 696.576C663.676 690.36 663.74 682.781 667.429 676.715L755.476 531.931C759.119 525.94 765.75 522.325 772.908 522.427L945.893 524.895C953.142 524.998 959.827 528.897 963.412 535.113L1048.18 682.074C1051.77 688.289 1051.7 695.868 1048.01 701.935L959.968 846.719ZM643.483 679.992C650.64 680.094 657.271 676.478 660.915 670.488L748.961 525.704C752.651 519.637 752.715 512.058 749.13 505.843L664.359 358.881C660.774 352.666 654.088 348.767 646.84 348.663L473.855 346.196C466.697 346.094 460.066 349.709 456.423 355.7L368.376 500.483C364.687 506.55 364.622 514.129 368.208 520.345L452.979 667.306C456.564 673.521 463.249 677.42 470.497 677.524L643.483 679.992ZM361.497 498.306C357.854 504.297 351.223 507.912 344.065 507.81L171.08 505.342C163.831 505.239 157.146 501.339 153.561 495.124L68.7901 348.163C65.2049 341.947 65.2692 334.368 68.9586 328.301L157.005 183.518C160.649 177.527 167.28 173.912 174.437 174.014L347.422 176.482C354.671 176.585 361.356 180.484 364.941 186.7L449.712 333.661C453.298 339.876 453.233 347.455 449.544 353.522L361.497 498.306ZM62.3947 325.025C58.7515 331.016 52.1204 334.631 44.9626 334.529L-128.022 332.062C-135.271 331.958 -141.956 328.059 -145.541 321.844L-230.312 174.882C-233.898 168.667 -233.833 161.088 -230.144 155.021L-142.097 10.2374C-138.454 4.24659 -131.823 0.631252 -124.665 0.733376L48.32 3.20118C55.5686 3.30466 62.2538 7.20376 65.839 13.4192L150.61 160.38C154.195 166.596 154.131 174.175 150.441 180.242L62.3947 325.025ZM357.185 836.082C353.542 842.073 346.911 845.688 339.753 845.586L166.768 843.118C159.52 843.015 152.835 839.116 149.249 832.901L64.4784 685.939C60.8932 679.724 60.9575 672.145 64.6468 666.078L152.694 521.294C156.337 515.304 162.968 511.688 170.126 511.79L343.111 514.258C350.359 514.362 357.044 518.261 360.63 524.476L445.401 671.437C448.986 677.653 448.921 685.232 445.232 691.299L357.185 836.082ZM40.7425 674.109C47.9002 674.212 54.5314 670.596 58.1746 664.605L146.221 519.822C149.911 513.755 149.975 506.176 146.39 499.96L61.6188 352.999C58.0336 346.784 51.3484 342.885 44.0999 342.781L-128.885 340.313C-136.043 340.211 -142.674 343.827 -146.317 349.818L-234.364 494.601C-238.053 500.668 -238.118 508.247 -234.532 514.462L-149.761 661.424C-146.176 667.639 -139.491 671.538 -132.243 671.642L40.7425 674.109ZM640.269 1019.15C647.427 1019.25 654.058 1015.64 657.702 1009.65L745.748 864.863C749.438 858.796 749.502 851.217 745.917 845.002L661.146 698.04C657.561 691.825 650.875 687.926 643.627 687.822L470.642 685.355C463.484 685.253 456.853 688.868 453.21 694.859L365.163 839.642C361.474 845.709 361.409 853.288 364.995 859.504L449.765 1006.46C453.351 1012.68 460.036 1016.58 467.284 1016.68L640.269 1019.15Z" fill="#2FA3EE" fill-opacity="0.68"/>
</svg>
